<?xml version="1.0" encoding="utf-8"?>
<!-- Generator: Adobe Illustrator 19.2.1, SVG Export Plug-In . SVG Version: 6.00 Build 0)  -->
<svg version="1.1" id="Layer_1" xmlns="http://www.w3.org/2000/svg" xmlns:xlink="http://www.w3.org/1999/xlink" x="0px" y="0px"
	 viewBox="0 0 38.4 62.6" style="enable-background:new 0 0 38.4 62.6;" xml:space="preserve">
<style type="text/css">
	.st0{fill:#F6E102;}
	.st1{fill:#231F20;}
</style>
<g>
	<path class="st0" d="M33,43.8c-3.5-0.5-6.9-0.9-10.4-1.4C32,33.3,37.4,20.2,37.1,7c-3.4,3.5-9.1,4-13.8,2.5S14.8,4.8,11,1.6
		c5.4,12.1,5.9,26.2,1.4,38.7c-2.9-2.5-5.7-5-8.6-7.5c4.3,9.2,3.2,20.6-2.7,28.8c9.3-7.5,20-13.3,31.4-17"/>
	<g>
		<path class="st1" d="M33.2,43.2c-2.3-0.3-4.7-0.5-6.9-0.9c-3-0.6-1.7-0.9,0-2.9c2.6-3.1,4.7-6.4,6.5-10c3.4-7,5-14.6,5-22.3
			c0-0.6-0.7-0.8-1-0.4c-8.3,7.5-18.5,0.2-25.2-5.4c-0.6-0.5-1.2,0.1-1,0.7c3.2,7.6,4.8,15.8,4.3,24.1c-0.2,2.6-0.2,9.4-2.1,11.7
			c-1.3,1.6-1.8,0.4-3.4-1c-1.7-1.5-3.3-2.9-5-4.4c-0.5-0.5-1.2,0.1-1,0.7c4,9.3,3,19.7-2.7,28.1c-0.4,0.6,0.5,1.1,1,0.7
			c9.4-7.4,19.8-13,31.1-16.8c0.7-0.3,0.4-1.4-0.3-1.2c-11.5,3.9-22.1,9.6-31.6,17.2c0.3,0.2,0.6,0.5,1,0.7
			C7.7,53,8.6,42.2,4.4,32.5c-0.3,0.2-0.6,0.5-1,0.7c2.9,2.5,5.7,5,8.6,7.5c0.4,0.3,0.9,0.2,1-0.3c4.4-12.9,3.8-26.6-1.5-39.2
			c-0.3,0.2-0.6,0.5-1,0.7c7.4,6.1,18.2,13.4,27,5.4c-0.3-0.1-0.7-0.3-1-0.4c0,13.2-5.1,25.6-14.3,34.9c-0.3,0.3-0.2,1,0.3,1
			c3.5,0.5,6.9,0.9,10.4,1.4C33.6,44.5,34,43.3,33.2,43.2L33.2,43.2z"/>
	</g>
</g>
</svg>
