<?xml version="1.0" encoding="utf-8"?>
<!-- Generator: Adobe Illustrator 19.2.1, SVG Export Plug-In . SVG Version: 6.00 Build 0)  -->
<svg version="1.1" id="Layer_1" xmlns="http://www.w3.org/2000/svg" xmlns:xlink="http://www.w3.org/1999/xlink" x="0px" y="0px"
	 viewBox="0 0 40.1 63.5" style="enable-background:new 0 0 40.1 63.5;" xml:space="preserve">
<style type="text/css">
	.st0{fill:#F6E102;}
	.st1{fill:#231F20;}
</style>
<g>
	<path class="st0" d="M6.2,44.2c3.5-0.5,6.9-0.9,10.4-1.4C7.2,33.6,1.8,20.5,2,7.4c3.4,3.5,9.1,4,13.8,2.5S24.4,5.1,28.1,2
		c-5.4,12.1-5.9,26.2-1.4,38.7c2.9-2.5,5.7-5,8.6-7.5C31,42.3,32.1,53.7,38,61.9c-9.3-7.5-20-13.3-31.4-17"/>
	<g>
		<path class="st1" d="M6.3,44.8c3.5-0.5,6.9-0.9,10.4-1.4c0.5-0.1,0.6-0.7,0.3-1C7.7,33,2.6,20.6,2.6,7.4c-0.3,0.1-0.7,0.3-1,0.4
			c8.8,7.9,19.6,0.7,27-5.4c-0.3-0.2-0.6-0.5-1-0.7c-5.3,12.6-5.9,26.2-1.5,39.2c0.2,0.5,0.7,0.6,1,0.3c2.9-2.5,5.7-5,8.6-7.5
			c-0.3-0.2-0.6-0.5-1-0.7c-4.2,9.7-3.2,20.6,2.7,29.4c0.3-0.2,0.6-0.5,1-0.7c-9.6-7.5-20.1-13.3-31.6-17.2C6,44,5.7,45.2,6.4,45.5
			c11.3,3.8,21.7,9.5,31.1,16.8c0.5,0.4,1.4-0.1,1-0.7c-5.7-8.4-6.7-18.8-2.7-28.1c0.3-0.6-0.4-1.2-1-0.7c-1.3,1.2-6.4,6.9-8.1,6.2
			c-1.7-0.7-2.3-11.5-2.3-12.5c-0.5-8.3,1-16.4,4.3-24.1c0.3-0.6-0.4-1.2-1-0.7C20.9,7.1,10.7,14.4,2.5,7c-0.4-0.3-1-0.1-1,0.4
			c0,7.8,1.6,15.3,5,22.3c1.6,3.3,3.6,6.5,6,9.4c0.4,0.6,1.9,1.7,2.1,2.4c0.3,1.4,0.8,0.2-0.7,1c-1.8,1-5.8,0.8-7.8,1
			C5.2,43.7,5.5,44.9,6.3,44.8L6.3,44.8z"/>
	</g>
</g>
</svg>
