<?xml version="1.0" encoding="utf-8"?>
<!-- Generator: Adobe Illustrator 17.1.0, SVG Export Plug-In . SVG Version: 6.00 Build 0)  -->
<!DOCTYPE svg PUBLIC "-//W3C//DTD SVG 1.1//EN" "http://www.w3.org/Graphics/SVG/1.1/DTD/svg11.dtd">
<svg version="1.1" id="Layer_1" xmlns="http://www.w3.org/2000/svg" xmlns:xlink="http://www.w3.org/1999/xlink" x="0px" y="0px"
	 viewBox="0 0 318.2 531.3" enable-background="new 0 0 318.2 531.3" xml:space="preserve">
<path fill="#0A0C0D" d="M102.8,525.8l0.5,0.1h1.8l1.3,0.1h1.7c2.9,0.2,5.8,0.2,8.6,0.6h2.3c2.3-0.1,4.6-0.5,6.9-0.5h1.2l1,0.1h1
	c2.2,0.3,4.5,0.2,6.7-0.1l0.5-0.1l0.5-0.1c2.2-0.1,3.6-0.4,5.8-1l0.4-0.3l0.1-0.2l0.2-0.3l0.1-0.3l0.3-0.7c0.2-1.4,1.7-3.2,1.8-4.5
	v-0.9c0.1-2.9-0.7-4.1-1.3-6.6l-0.1-0.7l-0.1-0.9v-1.6c-0.5-2-0.6-3.3-1.9-4.8l-0.1-0.2l-0.1-0.5l-0.1-0.1v-0.5l0.1-0.1h0.4l0.1-0.1
	v-0.2l-0.1-0.1v-1.3l-0.1-0.4v-0.4l0.1-0.6l0.1-0.2l0.1-0.1l0.1-0.3v-0.8l-0.1-0.4l0.1-0.4c-0.1-1.2-0.2-2.5-0.4-3.7v-1.3
	c-0.2-5.5,0.9-9.2,1.4-14.6v-1l-0.1-1l0.1-1v-1l0.1-0.9c-0.2-2.9-0.2-2.8,0.2-5.5v-1.1c-0.3-2.7,0.3-4.6,0.1-7.2v-0.8l0.1-0.3
	l0.2-0.7c0-2.3,0.1-4.5,0.1-6.7l0.1-0.3v-0.3c0.2-1.9,0.2-4.1,0.5-5.9v-1l0.1-0.4v-1l0.1-1.1l0.1-1.2l0.1-1.1l0.1-1l0.1-1
	c0.2-1.6,0.6-3.2,1-4.7l0.1-1.1v-1c-0.2-3.3,0.5-2.1,0.7-4.7v-1.5l-0.1-0.4c-0.6-1.7-0.7-2.5-0.5-4.4l0.1-0.6l0.1-0.2
	c1.3-2.1,0.9-1.6,1.6-3.8v-0.1l0.1-0.2l0.1-0.1l0.3-0.1l0.2-0.1l0.2-0.1l0.3-0.1l0.2-0.2l0.2-0.1l0.4-0.1l0.3-0.1l0.4-0.1l0.4-0.2
	l2.6-0.7c3.6-1.1,6.7-1.6,10.4-1.7h2.2c2.5,0.2,5.3,0,7.7,0.3l0.9,0.1l0.8,0.2c2.4,0.8,4.9,1.6,7.2,2.4l0.4,0.1l0.3,0.1l0.3,0.1
	l0.4,0.3l0.6,0.3l1,0.7l0.5,0.4l0.6,0.5l0.6,0.4l0.4,0.3l0.3,0.2l0.2,0.2l0.2,0.1l0.2,0.1h0.1l0.1,0.1l0.1,0.1l0.1,0.1l0.1,0.4v0.4
	l0.1,0.4l0.1,0.4l0.1,0.5l0.1,0.3l0.4,1.8l0.1,0.6l0.2,0.5c0.5,1.4,1.2,2.8,1.6,4.3v0.1l0.1,0.4c0.3,1.2-0.2,2.6-0.1,3.9l0.2,0.9
	l0.4,1.2l0.1,0.5c1.1,4.1,2,8.4,2.2,12.7l0.1,0.8l0.1,0.7v0.8c0,2.2,0.7,5,1,7.3l0.1,0.7v0.7c0,2.1-0.2,4.7,0.4,6.7l0.1,0.5l0.1,0.6
	l0.2,0.5l0.1,0.5l0.1,0.4l0.1,0.4l-0.1,0.4v0.9l0.1,0.4v0.2c0.6,6.6,1.3,13.2,1.9,19.8l0.1,0.7l0.1,0.3v0.3l0.1,0.5l0.1,0.4l0.1,0.4
	l0.1,0.7l0.2,2l0.1,0.7l0.1,0.7v0.5c-0.1,1.5,0.4,3,0.9,4.4l0.1,0.4l0.1,0.4v0.7l-0.1,0.3l-0.1,0.3l-0.1,0.3v0.5l0.1,0.1l0.1,0.1
	l0.3,0.2l0.2,0.1l0.1,0.1l0.1,0.1v0.2c-0.1,1.2-0.4,2.5-0.5,3.7l-0.1,0.5v0.4l-0.1,0.4v0.7l-0.1,0.6l-0.3,1.5l-0.2,0.7l-0.1,0.7
	l-0.2,0.6l-0.1,0.6l-0.1,0.5l-0.1,0.4l-0.1,0.2l-0.1,0.3v0.4c-0.5,2.1,0,5,0.4,7.2l0.3,0.6l0.3,0.7l0.3,0.3l0.2,0.2l0.3,0.1l0.3,0.2
	l0.6,0.2l0.7,0.2c1.6,0.6,3.4,1.2,5.2,1l0.5-0.1l0.5-0.1c2.8-0.1,5.3,0.4,8,0.1h1.3c6,0.2,10.9-0.2,16.8-1.5l0.6-0.1l0.5-0.1
	l0.4-0.2l0.9-0.3c1.9-0.5,1.7-1,2.8-2.7l0.4-0.8l0.3-0.9c0.8-2-0.7-6.2-1.1-8.4l-0.2-1l-0.1-1l-0.1-1l-0.1-1.1l-0.1-1l-0.3-0.9
	l-0.3-0.8l-0.1-0.4l-0.1-0.4l-0.1-0.3l-0.1-0.3l-0.1-0.2v-0.5l0.1-0.2l0.1-0.4l0.1-0.4l-0.1-0.4v-0.4l-0.1-0.2v-0.2l-0.1-0.2v-0.4
	l-0.1-0.4v-0.4l-0.1-0.5l-0.2-1.8l-0.1-1.1l-0.1-0.5l-0.1-0.5l-0.1-0.4l-0.1-0.4l-0.2-0.8c-1.8-5.2-0.7-10.8-1.3-16.2l-0.1-0.8
	l-0.1-0.4c-0.3-6.1-1.1-12.1-1.7-18.1v-3.1c0.2-3.4,0.1-6.9-0.1-10.3l-0.1-1.4l-0.1-0.8c-0.1-3.6,0.2-6.8-0.1-10.4v-1l-0.1-0.9
	l-0.1-0.8v-0.7c-0.2-2.9-0.2-5.7-0.3-8.6v-0.3l-0.1-0.6c0.1-2,0-4,0.1-5.9l0.3-0.9l0.4-0.8l0.5-0.8l0.2-0.4l0.3-0.3l0.3-0.2
	c4.9-2.1,11.1-2.5,16.3-1.6h2.1c7,0.1,14.1,0.7,20.8,2.7l0.7,0.1l0.7,0.1l0.8,0.1l1.6,0.1c1.3,0.1,2,0,3.3,0.7l1.6,0.9
	c2.6,1.4,4.6,1.5,7.2,3l0.7,0.3l0.7,0.4l0.7,0.3l0.6,0.3c1.8,1.1,3.7,1.6,5.4,2.8l0.7,0.4l0.3,0.1c1.3,0.8,2.3,1.9,3.5,2.7l0.2,0.1
	l0.1,0.1l0.3,0.1l0.2,0.1l0.3,0.2h0.1l0.1,0.1l0.1-0.1h0.1l0.1-0.1l0.1-0.1l0.2-0.1l0.1-0.1l0.1-0.2c1.3-2.4,2.8-6.1,3.3-8.8
	l0.1-0.6l0.3-1.3c0.9-5,1.8-9,2.1-14l0.1-0.7V396l0.1-0.7v-1.2l0.1-0.6v-0.5l0.1-0.4v-0.4l0.1-0.6l0.1-0.7l0.1-0.6l-0.1-0.8v-0.9
	c-0.1-1.8,0.1-5.2-0.4-6.8l-0.1-0.8l-0.1-0.9l-0.1-1l-0.1-1c-0.4-1.7,0.1-3.6-0.3-5.2l-0.1-1l-0.1-0.5c0-1.1-0.3-2.4-0.1-3.5v-1.4
	l-0.1-0.9l-0.1-1v-1.7l0.1-1l0.1-0.9c0.4-2.2-0.5-4.2-0.7-6.3l-0.1-0.4V354c-0.1-2.1-0.3-4.3-0.4-6.4l-0.1-1l-0.1-1v-1.9
	c0.3-1.9-0.1-3.4-0.3-5.2l-0.1-0.7l-0.1-0.8c0.1-3.4,0.2-5.2-0.4-8.6l-0.6-5.3v-1.2c-0.6-5.1-2-8.5-2.5-13.9l-0.1-1
	c-0.3-5.9-1.3-11.6-1.9-17.4l-0.2-1.7l-0.1-0.9l-0.1-0.8l-0.2-1l-0.3-1l-0.1-0.5l-0.1-0.6l-0.1-0.6c-0.8-4.5-0.9-9-1.9-13.5v-0.4
	l-0.1-0.4l-0.1-0.5c-0.3-2.6-0.6-4.7-1.3-7.2l-0.1-0.8l-0.1-0.8c-0.2-2.2-1.1-3.5-1.3-5.6v-2.5l-0.1-1.2l-0.1-1.1l-0.1-1.2
	c-1.1-4.2-2.3-10.7-0.7-14.9l0.3-0.4l0.3-0.3l0.7-0.6c1.3-0.9,1.8-2.4,2.8-3.5l0.7-0.7l0.3-0.4c0.6-0.6,1.5-2.5,1.2-3.4l-0.1-0.4
	l-0.1-0.3l-0.4-0.7l-0.1-0.4l-0.2-0.4l-0.1-0.5l-0.2-0.9c-0.4-1.7-0.8-2.9-1.3-4.6l-0.3-1.5c-0.3-2.2,0.1-3.3,1-5.2l0.1-0.5l0.2-0.5
	l0.4-1.2l0.5-1.3c1.1-2.3,2.2-4.2,3-6.7l0.1-0.6l0.2-0.7c0.5-2.5,0.9-5.1,1-7.7v-2.3l-0.1-0.8v-0.9c0.2-5-0.5-9.2-4.4-12.6l-0.5-0.5
	l-0.7-0.6c-2.9-3.2-8.9-5-10.5-9.1l-0.3-0.8l-0.3-0.7l-0.3-0.7l-0.2-0.6l-0.1-0.2l-0.1-0.3l-0.2-0.3l-0.3-0.3l-0.3-0.4l-0.4-0.4
	c-4.1-3.9-9-7-13.8-10.1l-0.7-0.4l-1.3-0.9c-5.5-3.5-10.9-7.4-16.6-10.5l-0.7-0.4l-2.2-1.1l-0.6-0.4l-0.5-0.3
	c-0.9-0.5-1.9-0.8-2.9-0.9l-0.3-0.1l-0.4-0.1c-2.5-1.8-2.2-1.8-5.3-2.7l-0.9-0.4l-0.9-0.4l-0.4-0.3c-1.2-1-2.5-2.5-3.5-3.7l-0.7-0.7
	l-0.4-0.4c-1.3-1.2-2.9-1.9-4.1-3.1l-0.4-0.3l-0.3-0.4l-0.4-0.4l-0.3-0.4l-0.5-1l-0.4-0.9c-1.5-2.6-8.9-4.7-11.8-6l-0.8-0.4
	l-0.8-0.3c-5.1-2.1-10.1-4.5-15.5-6l-1-0.3l-1.1-0.3l-1.2-0.3l-1.2-0.2c-5.9-1.4-11.3,0.2-17.1-0.2h-0.3l-0.2,0.1l-0.1,0.1l-0.1,0.1
	l-0.1,0.2l-0.1,0.3l-0.1,0.9l-0.1,0.5l-0.1,0.4l-0.4,0.9c-1.3,1.3-2,2.6-2.7,4.3l-0.2,0.4l-0.1,0.2l-0.1,0.3l-0.2,0.3l-0.2,0.4
	l-0.6,0.9l-0.7,1l-0.7,1l-0.7,1c-0.9,1.3-1.6,2.7-2.4,4l-0.3,0.5l-0.4,0.5c-1,1.2-1.8,2.9-3.1,3.8l-0.4,0.1l-0.3,0.1l-0.4,0.1
	l-0.4,0.1c-1.6,0-3.5,0.1-5-0.1h-1.3c-0.9-0.2-2-0.2-2.4-1.2l-0.1-0.4l-0.4-0.7l-0.4-0.4l-0.3-0.4c-3.5-3.7-9.8-6.6-12.6-10.6
	l-0.7-1c-2.1-3.8-2.7-9.3-4.5-13.1l-0.1-0.2l-0.2-0.2l-0.2-0.1l-0.1-0.1h-0.4l-0.1,0.1c-0.4,0.3-0.4,1.4-1.2,1.8l-0.1,0.1H133
	l-0.3-0.1l-0.6-0.3l-0.7-0.2l-0.5-0.3l-0.4-0.1l-0.3-0.2l-0.4-0.1l-0.4-0.2l-0.9-0.4c-5.5-1.8-11.7-2-17.4-1.4l-0.7,0.1l-0.6,0.1
	l-0.7,0.1l-0.6,0.1c-5.2,1.3-9.9,2.4-14.9,4.4l-1.4,0.4l-1.4,0.6l-1.4,0.7c-2.1,1-4.1,2.2-6,3.6l-0.9,0.9c-1.4,1.4-1.8,2.6-3,4.2
	l-0.7,0.9l-0.4,0.4l-0.2,0.3l-0.3,0.3l-0.4,0.3l-1.8,1.8l-0.3,0.4l-0.4,0.3l-0.3,0.3l-0.2,0.3l-0.4,0.5c-2.2,3.8-6.1,6.8-9.8,9
	l-0.8,0.5l-0.4,0.3c-4.4,2.6-8.5,5.7-12.4,8.9l-0.5,0.4l-0.5,0.4l-0.4,0.4l-0.4,0.3c-4.7,4.6-10.3,8.2-15,12.8l-0.9,0.8l-0.9,0.7
	l-0.4,0.5c-1.5,1.8-2.5,3.5-4.2,5.2l-0.2,0.2l-0.1,0.2c-0.8,1-0.5,1.7-0.7,2.8v0.6l-0.1,0.4l-0.1,0.3l-0.3,0.6l-0.1,0.4
	c-1.5,3-6.4,5.6-8.6,8.1l-0.6,0.7c-3.4,4.9-4.1,8-3.8,13.8v0.5l0.1,1.2l0.1,0.7c0.3,4.4,1.6,9.2,4,12.9l0.2,0.4l0.2,0.4l0.3,0.4
	c0.6,1.3,1.5,2.3,1.8,3.7l0.3,0.7l0.4,0.8c0.8,1.7,2.3,2.9,2.9,4.7l0.4,1.5v1.3l-0.1,0.4l-0.1,0.8l-0.3,0.9l-0.2,0.9
	c-0.9,3.1-1.8,7.1,0.7,9.8l0.2,0.2l0.4,0.3l0.4,0.2l0.4,0.3l0.1,0.1l0.1,0.2l0.1,0.3l0.1,0.4l0.1,0.4l-0.1,0.5v0.6l-0.1,0.6
	c-0.4,2.8-0.3,5.7-0.4,8.5v3.7c-0.2,4.3,0.6,9.1,0.2,13.2v0.5l-0.1,0.5c-0.2,4.2-0.9,8-0.7,12.3v1.8l-0.1,2.5l-0.1,1.1l-0.2,1
	c-1,5.7-0.9,11.4-1.2,17.2v0.4l-0.1,0.5c-0.9,8.2-1.5,16.3-2.1,24.5l-0.1,1.2v4.4c0.2,1.7-0.1,3.4-0.4,5v1.5
	c-0.2,2.8,0.3,6.4-0.1,8.9l-0.1,1.1l-0.2,1l-0.1,1c-0.6,6.3-1.9,13.4-1.6,19.7l0.1,1.2v1.2l-0.1,0.6v0.6l-0.2,1.3l-0.1,0.7l-0.1,0.6
	l-0.1,1.1l-0.1,0.4v0.3c-0.2,6.8-2,10.7-2.9,17l-0.1,1l-0.1,1c-0.2,6.2-2.8,11.9-4.8,17.6l-0.3,0.7l-0.7,2l-0.4,1.2l-0.4,1.1
	c-0.2,1.8-1.2,4.1-1.5,5.7l-0.1,0.4L6,419c0.5,1,1.7,0.7,2.6,0.5l0.4-0.1l0.4-0.1L10,419c4.3-1.6,8.5-3,12.8-4.4l0.7-0.2l1.3-0.4
	l0.7-0.2l0.7-0.3l3.1-1.2c5.2-1.6,10.4-3.6,15.9-3.9h0.6l0.7-0.1l1.4-0.1c1.5-0.1,3.1-0.2,4.6-0.3l0.7-0.1h0.7
	c2.8-0.5,4.2-1.1,7.1-1.1l0.8-0.1l0.9-0.1l1.8-0.1h1.6c4.7,0.2,8.8,1.1,13.5,2.1l0.9,0.2c2.1,0.6,4.4,1,6.6,1.8l0.4,0.1l0.4,0.1
	c1.6,0.6,2.4,1.7,4.2,2.4l1,0.3l0.8,0.2l0.8,0.3l0.4,0.1l0.3,0.1l0.3,0.1l0.4,0.2l0.4,0.1l0.8,0.4c5.8,3.4,5.6,2.2,6.1,8.9l0.1,1.3
	l0.1,1.3c0.3,3.8,0.5,8.5,0.2,12.3l-0.1,0.3v0.6l-0.1,0.6l-0.1,0.5l-0.1,1c-0.1,2.6,0.3,4.5,0.2,7l-0.1,0.7l-0.1,0.7
	c-0.4,2.5-1.2,4.6-1.8,7l-0.1,1l-0.1,1l-0.1,1.1c-0.1,4.5,0.6,9.4,0.6,14l0.1,0.3v0.9l-0.1,0.1l-0.1,0.2c-0.9,1.3-1.1,1.2-1.2,2.8
	v0.4l-0.1,0.5c0,1.6,0.3,3.3,0.3,4.9v1.2c0.1,4.6-0.7,7.9,0.1,12.6v0.4l-0.1,1l-0.2,1l-0.2,1.1c-0.8,4.3-2.5,9.5-3.5,13.8l-0.1,0.9
	l-0.1,0.8c-0.3,2.1,1.2,8.1,4.1,8.4H102.8"/>
<path fill="#EDEDCE" d="M219,156.9l-0.1-0.1l-0.2-0.1c-3-6.8-2.8-14.6-2.4-21.9v-1l0.1-1.1l0.1-1l0.2-1l0.1-1l0.2-0.9l0.1-0.9
	l0.1-0.8l0.1-0.7l0.1-0.7l0.2-0.6l0.2-0.5l0.3-0.4l0.3-0.3l0.4-0.2l0.4-0.2l1-0.4c3.1-1.5,2.7-1.4,6.1-2.1h0.1l0.1-0.1l0.3-0.1
	l0.1,0.1h0.1l0.4,0.3c2,1.6,4.1,3.2,6,4.9l0.6,0.5l0.7,0.6l0.7,0.6c1.2,1.4,2.3,2.3,3.3,3.8l0.6,0.7l0.2,0.3l0.3,0.3l0.4,0.2
	l0.3,0.2l0.3,0.1l0.3,0.1l0.5,0.1l0.4,0.1l0.4,0.1l0.4,0.1c5.9,3.1,12.6,4.7,18.1,8.6l0.5,0.4l1.2,1l0.7,0.6l0.7,0.5
	c2.6,2.2,5.8,3.2,7.4,5.7l0.7,0.7c2.7,1.3,5.7,2.1,8.1,4.1l0.7,0.5l1.3,0.9l0.7,0.5l0.9,0.5l1.8,1.2l0.4,0.1l0.4,0.1l0.3,0.2
	l0.2,0.2l0.1,0.3l0.1,0.4l0.1,0.4v0.5l-0.1,0.5l-0.1,0.4l-0.1,0.5c-0.6,2.1-2.5,3.4-3.6,5.2l-0.1,0.1v0.1l0.1,0.1v0.1l0.2,0.1
	l0.4,0.4l0.1,0.1h0.1c2.7-1,3.9-2.7,6.5-1.8l0.4,0.2l0.4,0.2c1.7,1.1,3.2,2.7,5.1,3.9l0.4,0.4l0.4,0.4l0.5,0.4l0.6,0.3
	c2.5,1.6,4.3,2.6,5,5.5l0.2,0.6l0.1,0.6c1.2,5.3-0.3,6.3-0.7,11.2v2.7l-0.1,0.5l-0.1,0.6c-0.8,3.6-0.4,5.1-2.4,8.4l-0.4,0.9
	l-0.4,0.8l-0.1,0.4c-0.4,0.8-0.4,1.4-1,2.1l-0.1,0.1l-0.1,0.1c-0.5,0.2-0.9,0.1-1.4,0l-0.2,0.1h-0.1l-0.1,0.1l-0.1,0.1l-0.1,0.1
	l-0.3,0.4c-0.5,1-0.6,1.6-0.1,2.6l0.1,0.3l0.2,0.3c0.8,1.1,0.7,2,1.3,3.1l0.4,1.2l0.2,0.7c1,3.4,1.9,6.4,0,9.7l-0.2,0.3l-0.3,0.3
	l-0.6,0.5l-0.6,0.7l-0.5,0.6l-0.5,0.4l-0.4,0.5l-0.4,0.5c-1.6,2.7-4.8,4.2-6.4,6.8l-0.4,0.6l-0.2,0.3c-1.8,1.5-3.6,0.1-3.7-2
	l0.4-0.4l0.7-0.4c0.5-0.3,1.1-1.1,1-1.7l-0.1-0.3c-0.6-0.2-1-0.8-1.1-1.5l-0.1-0.3l-0.1-0.8l-0.1-0.7c-0.9-5.8-2.2-5-6.8-8.2
	l-0.9-0.7l-1-0.6l-0.4-0.3l-0.4-0.2l-0.8-0.4l-0.8-0.3c-3.3-0.9-8.5-0.7-11.5,0.7l-0.6,0.2l-0.5,0.2l-0.4,0.2
	c-1.1,0.5-1.7,0.9-2.7,1.5h-0.4c-0.6-0.5-0.7-1.2-0.7-1.9v-0.4l0.1-0.9l0.1-0.8l0.1-0.9v-1.2c0.1-0.9,0.5-1.4,0.7-2.1l0.1-0.4
	l0.1-0.4c0.3-1,0.4-2,0.7-3l0.2-0.3l0.4-0.4l0.3-0.1c1.2-0.6,2.5-0.8,3.5-1.5l1.1-0.7c1.5-0.7,2.1-0.3,3.5-0.4l0.4,0.1h0.8l0.1-0.1
	l0.1-0.1l-0.1-0.1v-0.1l-0.2-0.1l-0.3-0.2c-4.9-3.1-2.1-4.6-1.1-8.4l0.1-0.6l0.2-0.5l0.2-0.6c0.6-1.5,1.8-3,1.6-4.7l0.1-0.4l0.1-0.5
	c0.5-1.4-0.5-2.7-0.7-4.1v-0.1l-0.1-0.1v-0.1h-0.1l-0.1-0.1v0.1l-0.1,0.1l-0.1,0.2v0.2c-0.4,0.9-0.7,3.4-1.2,4.2l-0.2,0.1l-0.3,0.1
	c-1.9,0.1-2.8-0.5-4.6-0.8h-0.4l-0.4-0.1l-0.2-0.1l-0.2-0.1c-2.9-1.9-3.6-2.3-6.9-3.5l-0.6-0.4l-0.3-0.2c-2.5-1.6-4.7-2.7-7.2-4.1
	l-1-0.7l-0.5-0.5l-0.6-0.5l-1.3-1l-0.5-0.5c-2.4-1.7-2.6-1.3-4.4-3.7l-0.4-0.4l-1-1.1c-2-2.6-4.1-3.8-5.5-6.9l-0.2-0.4l-0.4-0.4
	l-0.3-0.4l-0.4-0.4c-1.4-1.5-3.9-2-4.5-3l-0.1-0.3l-0.4-0.6c-1.6-1.5-2.2-3.1-4.6-2.9h-0.4l-0.4-0.1l-0.2-0.1L219,156.9"/>
<path fill="#F5BE7A" d="M228.9,285.8l0.4,0.1l0.4,0.1h0.4c1.9-0.1,6.8-1.7,8.7-2.4l1-0.5l1-0.6c2.7-1.5,3.8-3.2,6-4.9l0.4-0.3l1-0.7
	l0.5-0.5c2.6-2.2,3.9-4.1,6.1-6.5l1-1l0.4-0.4l0.3-0.4l1.1-2.2l0.1-0.2l0.1-0.3v-0.3l0.1-0.3l0.1-0.2l0.1-0.2l0.1-0.1l0.1-0.1
	l0.1,0.1l0.1,0.4l0.1,0.1h0.3c0.8-0.1,1.7-1.7,2.4-2.2l0.1-0.3l0.3-0.4c1.1-1.4,2.2-2.6,3.3-4.1l0.9-1l0.4-0.4l0.4-0.4
	c1.5-1.9,2.4-3.6,4.3-5.6l0.7-0.8l0.7-0.7c1.1-1.2,2.7-2.5,3.3-4.1l0.3-0.6l0.3-0.7l0.2-0.7l0.1-0.4l0.2-0.4l0.2-0.4
	c1.6-1.8,2.6-3.8,4.1-5.8l0.7-0.8l0.7-0.9c0.8-0.9,1.1-1.7,1.1-2.9l-0.1-0.6l-0.1-0.3l-0.2-0.3c-1.3-1.8-2.5-3.7-4.3-5.1l-1.3-0.7
	c-2.5-0.7-5.3-1.3-7.9-1.7h-1.6l-0.6,0.1l-1.3,0.1l-1.1,0.1l-1.2,0.2c-8.2,1.6-5.6,3-8.9,8.9l-0.2,0.4l-0.2,0.4
	c-2.1,4.9-5.8,6-7.5,10.1l-0.1,0.4l0.1,0.3l0.1,0.2v0.1l-0.1,0.1l-0.1,0.2l-0.3,0.1l-0.4,0.3l-0.5,0.2l-1.1,0.5l-1,0.5l-1,0.4
	l-1,0.4l-0.5,0.1c-2.1,0.6-4.2,1-6.2,1.6l-1.3,0.3l-0.6,0.1l-0.6,0.1l-1,0.1c-2.3,0.5-4.4,0-6.1,2.1l-0.3,0.6l-0.3,0.8l-0.1,0.7v0.4
	l-0.1,0.4l0.1,0.3v0.2l0.3,0.4l0.4,0.3l0.4,0.2l0.2,0.1l0.2,0.1h0.7l0.3-0.1l0.7-0.2l0.7-0.3l0.7-0.2l0.6-0.2
	c0.9-0.3,2.3-1.2,3.1-0.1l0.1,0.6c0.2,1,0,2-0.9,2.6l-0.3,0.1l-0.4,0.3l-0.4,0.3l-0.9,0.7c-1.9,1.3-1.8,0.9-3.9,1.6l-0.6,0.2
	l-0.6,0.1c-1.3,0.6-3.4,0.1-4.4,0.5l-0.2,0.1l-0.3,0.1l-0.5,0.4l-0.5,0.4l-0.1,0.2c-2.2,3.7,3.5,3.3,5.4,3.8l0.7,0.1h0.6l0.6,0.1
	c0.5,0,2.1,0,1.1,0.8l-0.1,0.1l-0.2,0.1c-1.4,0.6-2.6,0.3-4,0.3l-0.4,0.1l-0.4,0.1l-0.4,0.2l-0.5,0.3l-0.4,0.3l-0.4,0.6l-0.1,0.3
	c-0.3,1.2,0.3,2.9,1.5,3.5l0.2,0.1l0.6,0.2c1.9,0.7,3.8,0.5,5.8,0.4h0.2l0.2-0.1h0.7l0.1,0.1v0.1l-0.1,0.1l-0.2,0.2l-0.2,0.1
	l-0.4,0.1l-0.4,0.1l-0.5,0.1l-0.4,0.1l-0.5,0.1l-0.3,0.1l-0.3,0.1l-1.8,0.9l-0.4,0.2l-0.2,0.1l-0.2,0.2l-0.1,0.2l-0.1,0.2v0.2
	l-0.1,0.2l0.1,0.4l0.1,0.2c1.5,4.4,6.8,0.8,9.4,1.8l0.1,0.1l0.1,0.1c-0.3,2.1-6-0.1-5.1,4.4l0.1,0.1l0.4,0.4l0.3,0.1L228.9,285.8"/>
<path fill="#EDEDCE" d="M40.5,232.6l0.1,0.1h1.1l0.2,0.1c0.9,0.3,0.8,0.8,0.4,1.6l-0.2,0.4l-0.4,0.5l-0.3,0.4l-0.4,0.4l-0.4,0.2
	l-0.4,0.2l-0.3,0.1l-0.1,0.1h-0.4l-0.1-0.1l-0.4-0.2l-0.4-0.3l-0.4-0.4c-3.7-3-6.7-7-10.9-9.3l-0.6-0.5l-0.3-0.3l-0.2-0.3l-0.2-0.4
	c-2.2-3.8-0.2-9.3,1.3-13.2l0.1-0.5l0.1-0.4l0.1-0.5v-0.2l-0.1-0.2v-0.3l-0.1-0.2l-0.3-0.4l-0.3-0.4l-0.3-0.4l-0.2-0.4l-0.3-0.3
	l-0.4-0.2l-0.3-0.1c-1.5,0.1-1.3,0.2-2.5-1l-0.4-0.4l-0.1-0.3l-0.1-0.2l-0.4-1l-0.1-0.3l-0.1-0.1l-0.1-0.2c-0.7-1.3-1.4-2.7-1.6-4.1
	l-0.1-0.3l-0.1-0.4l-0.2-0.4l-0.4-0.9l-0.4-0.9l-0.2-0.4l-0.1-0.4l-0.1-0.3l-0.1-0.3l-0.1-0.2v-0.2l-0.1-0.4l-0.2-1.1
	c-0.3-2-0.4-3.6-1.1-5.5l-0.2-0.7l-0.2-0.5c-0.4-1.3-0.6-3-0.6-4.4v-1.8l0.1-1l0.2-0.9l0.1-0.4c1.2-4.3,6.2-5.3,8.6-8.8l0.4-0.4
	l0.3-0.3c2.4-3.3,4.9-3,8.3-1.3l0.4,0.1h0.6l0.1-0.2l0.1-0.1l0.1-0.2v-0.4c-1.3-2.1-4.2-3-4.6-5.8l-0.1-0.5l0.1-0.9
	c0.3-0.7,1-1.2,1.6-1.7l1.3-1c1.9-1.4,2.7-2,4.4-3.7l0.3-0.3l0.4-0.3l0.4-0.4l0.5-0.4l1.2-1c1.2-1.2,2.7-1.9,3.9-3l0.4-0.6l0.4-0.7
	c1.1-1.3,2.7-2.8,4.1-3.8l0.8-0.7l0.4-0.4l0.5-0.4c3.7-3.3,7.3-6.9,11.7-9.2l0.5-0.3l1-0.5l1.9-0.9l1.8-0.9c4.1-3.6,4.5-1.5,7.6-7.5
	l0.4-0.7c2.6-4.1,6.3-7.2,10.5-9.7l0.5-0.2l1-0.4l0.4-0.1l0.6-0.2c4.5-1.5,10.8,0.2,15.4,1l1.1,0.3l1.1,0.4c3.4,1.5,7.4,3.3,8.1,7.4
	l0.1,0.4l0.2,1.6l0.1,0.6l0.1,0.6l0.1,0.7l0.4,2.2c0.8,4.9-1,9.7-4.2,13.4l-0.6,0.8l-0.6,0.9l-0.5,0.9c-1.6,2.3-3.6,4.6-5.3,6.8
	l-0.5,0.6l-0.4,0.5c-1.2,1.1-2.5,1.7-4.1,2.1l-0.5,0.1h-1.2l-0.7-0.1h-0.6c-5-1.2-11,7.3-12.9,11l-0.9,1.3l-1,1.3l-1,1.3
	c-0.8,1.1-1.8,3.3-2.8,4.1l-0.3,0.4l-0.8,0.7c-3.4,2.9-6,5.1-9.7,7.6l-0.7,0.5l-0.7,0.5l-0.6,0.4l-0.6,0.4l-1.3,0.9l-0.8,0.5
	c-4.6,3.7-2,3-8.3,4.4h-0.6l-0.2-0.1l-0.2-0.1l-0.1-0.1l-0.3-0.5L52,185l-0.7-1.8l-0.2-0.5l-0.1-0.4l-0.1-0.1l-0.1-0.1l-0.1-0.1
	h-0.1l-0.1,0.1l-0.1,0.1v0.4l0.1,0.2l0.1,0.6v0.7c0.1,1.6-0.4,1,0.1,2.6l0.6,1.3c0.6,1.8,1.5,3.4,2.3,5.1l0.3,0.6l0.2,0.4
	c2.2,3.3,3.3,3.7,0.7,7.2l-0.4,0.6l-0.3,0.5l-0.1,0.2l-0.1,0.2v0.1h0.1l0.1,0.1H54c2.1-0.6,2.2-1.5,4.7-0.8l0.4,0.1l0.4,0.1
	c0.8,0.2,3.7,0.7,4.5,1.3l0.1,0.4l0.1,0.5l0.4,0.9l0.3,0.4l0.1,0.4l0.1,1.2l0.1,0.5l0.1,0.4l0.1,0.4l0.1,0.3l0.4,0.7l0.3,0.4
	l0.3,0.4c0.8,1.8-0.7,0.9,0.6,3.3l0.1,0.4v0.7v0.1l-0.2,0.4l-0.2,0.3l-0.1,0.2l-0.1,0.1h-0.1l-0.1-0.1l-0.1-0.1l-0.2-0.2l-0.4-0.2
	l-0.4-0.1l-0.4-0.1l-0.4-0.1c-1-0.1-1.3-0.4-2.1-0.5l-0.4-0.1l-0.6-0.1l-1.1-0.2c-4.1-0.5-9.7,0.2-13,3l-0.2,0.1l-0.3,0.3l-0.2,0.3
	l-0.2,0.2c-1.3,2.1-4,3-4.7,5.5l-0.1,0.5l-0.1,0.6l-0.1,0.5c-0.3,1.3-0.3,2.7-0.6,4l-0.1,0.7l-0.1,0.3l-0.1,0.3l-0.1,0.2l-0.1,0.1
	l-0.1,0.1l-0.1,0.3v0.4l0.1,0.1l0.1,0.2l0.1,0.1L40.5,232.6"/>
<path fill="#E22529" d="M69.7,218.8l0.1,0.4l0.2,0.6l0.3,0.7l0.2,0.6c1.3,2.8,3.3,5.2,5.1,7.6l0.6,0.7l0.2,0.3c1,1,2.3,1.4,3.2,2.5
	l0.9,1c0.7,0.7,1.6,2.3,2.4,2.7l0.6,0.2l0.6,0.1l0.6,0.1l0.7,0.1l0.4,0.1c4.3,0.2,8.7,0.7,13,1h0.4l0.4,0.1h0.1
	c0.7,0,0.4-0.7,0.4-1.1l-0.1-0.4l-0.2-0.4c-0.3-0.5-1.3-2-1.3-2.5l-0.3-0.7l-0.2-0.7l-0.4-1.7l-0.2-0.7l-0.1-0.7l-0.2-0.7l-0.1-0.6
	c-1-4.1-1.7-8.3-2.4-12.4l-0.1-0.8l-0.1-0.8c-1.1-5.1-0.7-8.9-2-13.8l-0.3-1.5l-0.1-1.4l-0.1-0.6l-0.1-0.7c-0.5-5-1-10.1-1.2-15.2
	v-1.5l-0.1-1.3l-0.1-1.3c-0.1-2.3-0.1-3.3-0.8-5.5l-0.1-0.4l-0.1-0.4c-0.2-1.2-0.2-2.4-0.1-3.5l-0.1-0.7l-0.1-1.2v-0.5l0.1-0.6v-1.6
	l-0.1-0.2l-0.1-0.1c-0.6-0.7-1.3,0.4-1.5,0.8l-0.4,0.5l-0.4,0.6c-0.8,0.8-1.7,2.5-2.2,3.4l-0.4,0.7l-0.5,0.8l-0.2,0.4
	c-3.2,3.6-2.6,5.4-7,8.4l-0.3,0.2l-0.4,0.3l-0.5,0.4l-0.6,0.4c-1.2,1.1-2.3,1.3-3.3,2.5l-0.3,0.4l-0.4,0.4c-1,1.3-2.4,2.3-3.8,3
	l-0.6,0.4l-0.7,0.4l-0.7,0.4c-1,0.7-6.4,3.4-7.7,3.4l-0.3,0.1h-0.3l-0.2,0.1l-0.3,0.1l-0.2,0.1l-0.2,0.1l-0.2,0.3
	c-0.3,0.3-0.6,0.9-0.1,1.3l0.1,0.2l0.2,0.2c0.5,0.7,1,1.2,1.4,1.8l0.1,0.3l0.4,0.6l0.4,0.7c1.5,4.1,1.9,4.3,6,4.6h0.4l0.3,0.1
	l0.2,0.1l0.1,0.1l0.1,0.1c1.6,1.7,1.3,1.6,2.1,3.8l0.4,0.7l0.4,0.8c0.5,1.3,1.3,2.2,1.6,3.5l0.1,0.4l0.1,1l0.2,0.9l0.2,0.8
	c0.7,1.5,0.7,2.6,1.1,4.1l0.1,0.3v0.3l0.1,0.2v1l-0.1,0.1h-0.1l-0.2,0.1l-0.2,0.1l-0.2,0.1l-0.1,0.1v0.1l0.1,0.1V218.8"/>
<path fill="#E22529" d="M227.6,247.2v-0.7l0.1-0.3c-0.1-4.5,0.3-8.8-0.3-13.2l-0.1-1l-0.1-1l-0.1-0.9c0-2-0.2-4.2-0.3-6.2v-0.7
	l-0.1-0.7c-0.3-2.4-1.1-4.6-1.2-7.1l-0.1-0.7v-2c-0.3-4.6,0.1-9.3-0.9-13.8l-0.2-1.3l-0.3-1.3l-0.3-1.4c-0.5-2.3-0.9-4.5-1.3-6.8
	l-0.1-1.1v-0.6c0-1.7,0.1-3.5-0.4-5.2l-0.2-0.9l-0.1-0.9l-0.2-0.8l-0.1-0.7l-0.3-1.3l-0.1-0.6c-0.9-4.3-0.3-9.2-1-13.5l-0.1-0.3
	v-0.5c0-0.7,0.3-0.5,0.8-0.5l0.3,0.1l0.2,0.1l0.1,0.1l0.2,0.1l0.3,0.1l0.6,0.4l0.6,0.5l0.7,0.5l0.6,0.5l0.7,0.4l1.2,1l0.6,0.4
	l0.3,0.3c3.3,4.3,6.2,7.1,9.6,11l0.4,0.7l0.2,0.4c2.6,4.4,7.6,7.7,12.2,9.5l1.2,0.5l1,0.5l2.2,1l1.1,0.6l0.5,0.2l0.4,0.3l0.4,0.2
	c4.5,2.1,4.7,3.6,10.1,3.4l0.3,0.1l0.2,0.1l0.2,0.1l0.1,0.2v0.3l-0.1,0.4l-0.2,0.4l-0.1,0.4l-0.5,1l-0.4,1l-0.4,0.8
	c-0.7,1.3-1.2,2.7-2,4l-0.3,0.4l-0.6,0.6l-0.4,0.3l-0.9,0.4l-0.4,0.1l-0.4,0.1l-0.4,0.1h-0.4l-0.3,0.1l-0.2,0.1l-0.1,0.1l-0.1,0.1
	c-0.5,0.6-1.2,2.8-1.5,3.6l-0.4,0.9l-0.3,1l-0.4,1c-1.6,3.4-1.4,5.2-1.3,8.9v0.4l-0.2,0.9l-0.1,0.6l-0.1,0.4v0.4l-0.1,0.3v0.2
	l0.1,0.1l0.1,0.1l0.1,0.1h0.1l0.1,0.1h0.1l0.2,0.1l0.1,0.1v0.5l-0.1,0.3l-0.1,0.4l-0.2,0.9l-0.1,0.4l-0.1,0.4l-0.1,0.3
	c-1.5,3.7-3.9,6.9-6.1,10.1l-0.4,0.5l-0.6,0.9l-0.2,0.3c-3.6,4.2-0.9,3.2-6.6,5.2l-0.4,0.1l-0.4,0.1c-3.5,0.8-7.8,1.3-11.2,2.4
	l-0.5,0.1h-0.4l-0.1-0.1h-0.1l-0.1-0.1V247.2"/>
<path fill="#E22529" d="M87.2,107.6l0.1-0.1l0.2-0.1l0.4-0.3l1-0.7c1.7-1.4,4-2.2,6.1-2.9l0.7-0.1l1.4-0.4c3.1-1,6.1-2.1,9.2-3
	l0.7-0.2l0.7-0.1l0.6-0.2c6.5-1.9,10.7-2,17.2-1.1l0.7,0.1l0.3,0.1l0.5,0.2c3.8,1.7,6.9,1.4,8,6.1l0.3,0.9c1,4.3,5.6,8.3,8.9,10.9
	l0.9,0.6l0.9,0.7l0.4,0.3l0.4,0.2l0.6,0.5l0.7,0.4l0.8,0.4l0.8,0.4l1.1,0.7l0.3,0.2l0.5,0.5l0.4,0.6l0.1,0.3l0.1,0.3
	c0.4,1,0,1.7-1.1,1.9l-0.4,0.1l-1,0.1l-1,0.1c-8.1,0.5-16-1.8-23.4-4.9l-2.5-1l-1.2-0.5l-1.1-0.6c-5.9-3.2-7.6-7.3-14.9-9.4
	l-0.5-0.1l-0.5-0.1c-6.9-1.7-9.4-2.3-16.5-0.4l-0.2,0.1l-0.3,0.1h-0.2L87.2,107.6"/>
<path fill="#E22529" d="M170.6,123.5l0.3,0.1l0.3,0.1l0.9,0.1l0.8,0.1c4.5,0.8,9.3,1.2,13.8,1.1h1.8l0.8-0.1c2-0.3,4-0.7,6.1-0.9
	h1.2l0.5,0.1c1.5,0.1,2.4-0.1,3.8-0.1l0.6-0.1l0.5-0.1l0.4-0.1l0.4-0.1l1.1-0.4c1.1-0.8,2.3-1.5,3.5-2l0.6-0.2l0.6-0.1
	c2.5-0.7,3.7-0.1,6.3-1l0.8-0.2l0.9-0.2l1-0.1c1.1-0.1,8.1,0,5.9-2.4l-0.3-0.3l-0.6-0.4l-0.4-0.3l-0.4-0.2l-0.9-0.4
	c-4.5-1.8-8.3-5.1-13-6.3l-1.2-0.4l-1.1-0.4l-1-0.4c-1.9-0.6-3.9-1-5.8-1.6l-0.7-0.1l-0.7-0.2c-2.7-0.7-3.9-1.4-6.9-1.4h-1.1
	l-1.2,0.1l-2.4,0.1h-1c-1.2,0-2.1,0-3,0.8l-0.2,0.2l-0.5,0.7c-1.1,1.9-1.3,1.7-2,3.9l-0.4,0.7l-0.3,0.4c-2.8,3.6-5.4,7.2-8.1,10.9
	v0.6l0.1,0.2L170.6,123.5"/>
<path fill="#F5BE7A" d="M42.8,229.9l0.1,0.1l0.1,0.2l0.5,0.5l0.5,0.4l0.6,0.4c1.7,1.3,2,2.8,3.8,4.5l0.3,0.4l0.2,0.2
	c1.5,1.7,2,2.1,3.1,4.1l0.3,0.4l0.3,0.3c4,3.9,8.6,7.1,12.4,11.2l0.3,0.2l0.2,0.3l0.7,0.7l0.7,0.7c1.5,1.9,2.3,2.3,3.9,3.7l0.1,0.1
	l0.1,0.1h0.2l0.1-0.1l0.1-0.2l0.1-0.1l0.1-0.1h0.1l0.1,0.1l0.3,0.4l0.3,0.6l0.1,0.2l0.1,0.1c1.7,1.9,1.6,2.9,3.8,4.3l1.6,0.9
	c2.4,1.6,4.3,3.1,6.4,4.9l0.5,0.4l0.9,0.4l0.4,0.2l0.3,0.1l0.2,0.2l0.5,0.4l0.7,0.4c1.4,1.1,4.3,2.2,6.1,2.9l0.5,0.1l0.5,0.2
	c1.7,0.5,3.2,0.4,5,0.7l0.4,0.1l0.4,0.1h0.7c1.8,0.3,2.8-1.3,2.8-2.9v-0.3l-0.1-0.2c-0.8-0.7-3.4-0.1-4.8-0.6l-0.3-0.1l-0.2-0.2
	l-0.1-0.1v-0.2c1.1-2,8.1,0.8,9.5-3.1l0.1-0.3l0.1-0.4v-0.3c-0.1-2-1.6-1.4-3-1.8l-0.7-0.1l-0.6-0.1h-0.3l-0.2-0.1h-0.4l-0.4-0.1
	h-0.8l-0.1-0.1l-0.1-0.1l-0.1-0.1l-0.3-0.3l-0.1-0.2l-0.1-0.1v-0.1h1.1c1.4,0,2.9-0.1,4.3-0.4l0.6-0.1l0.6-0.1
	c1.5-0.4,2.1-1.1,2.7-2.4l0.2-0.4v-0.9c-0.3-1-0.6-2-1.8-2.1l-0.6-0.1H108c-1.7,0.1-2.8,0.2-4.4-0.3l-0.2-0.1h-0.1l-0.1-0.1
	l-0.1-0.1V257l0.1-0.1h0.1l0.2-0.1h0.3l0.4-0.1l0.4-0.1l0.5-0.1l0.4-0.1l0.5-0.1l0.6-0.1l0.5-0.1l0.5-0.1l1.3-0.4l1.1-0.2l0.3-0.1
	l0.7-0.7l0.2-0.3l0.1-0.3l0.1-0.4c0.3-1.1-0.2-2.3-1.3-2.7l-0.4-0.1h-0.4c-1.6-0.3-3.6,0.3-5.1-0.1h-0.4l-0.3-0.1h-0.3l-0.7-0.1
	l-0.7-0.1l-0.6-0.2l-0.6-0.1c-1.5-0.8-2.7-0.7-3.8-1.8l-0.3-0.2l-0.2-0.3c-0.6-0.8-0.6-2.1,0.1-2.8l0.4-0.3l0.3-0.1h0.2
	c1.1-0.1,1.7,0.4,2.7,0.7l0.4,0.1l0.3,0.1c1.4,0.5,2.1,0.8,3.1-0.4l0.1-0.3l0.1-0.4v-0.4l-0.1-0.4v-0.5l-0.1-0.4
	c-0.1-1.2-1.1-2.1-2.1-2.6l-0.4-0.1l-0.2-0.1c-2.2,0-4.4-0.3-6.7-0.4l-1.1-0.1h-1c-4.6-0.4-7.4-0.7-11.7-2.6l-0.3-0.1l-0.1-0.1h-0.1
	l-0.1-0.1l0.1-0.1v-0.1L80,236l0.2-0.2l0.1-0.1v-0.1l-0.2-0.4l-0.2-0.1c-0.5-0.5-1.1-0.9-1.5-1.5l-0.5-0.5l-0.9-0.7
	c-0.5-0.4-1-0.9-1.5-1.4l-0.1-0.2l-0.3-0.6l-0.4-0.4l-0.6-0.4l-0.4-0.2l-0.3-0.2l-0.7-0.9c-1.1-1.3-2-3.4-3.1-5l-0.2-0.2l-0.3-0.4
	l-0.2-0.1l-0.1-0.1l-0.3-0.4l-0.2-0.7c-0.3-0.3-0.2-0.8-0.7-1.1l-0.2-0.1l-0.3-0.1l-0.3-0.1l-0.4-0.1l-0.4-0.1l-0.4-0.1
	c-3.7-2.1-9.6-0.8-13.5-0.1l-0.8,0.2l-0.7,0.2l-0.7,0.3c-3.4,1.5-3.9,1.9-5.8,5l-0.2,0.3l-0.1,0.4c-0.4,1.8-1.2,2.3-1,4.1l0.1,0.3
	l0.1,0.1L42.8,229.9"/>
<path fill="#1D699A" d="M104.7,497.9h0.7l1-0.1h0.8c4.8-0.5,5.8-0.1,10.3,0.6l0.9,0.1l0.9,0.2c3.3,0.9,6.8,0.7,10.2,0.3h0.5l0.5-0.1
	h1.2l1.2-0.1h1.1c1.3,0,2.4-0.1,3.7-0.1h0.5l0.1-0.1l0.1-0.1l0.1-0.3v-0.4l0.1-0.8v-2.7l0.1-0.7l0.1-0.7c0.2-1.3-0.2-2.7-0.1-4.2
	l0.1-0.4v-0.4c0.2-1.2,0.8-2,0.7-3l0.1-0.8l0.2-0.9l0.1-0.4l0.1-0.4v-0.3l0.1-0.2l-0.1-0.4v-0.4l-0.1-0.4v-1.3l-0.1-0.9v-0.5
	l-0.1-0.1h-0.3l-0.1,0.1l-0.4,0.1l-0.7,0.1h-1l-0.4,0.1h-0.4c-1.8-0.1-2.4-0.6-3.9-0.7h-1.1c-1.8,0-1.4,0.4-3.3-0.2l-0.2-0.1
	l-0.3-0.1l-0.4,0.1l-0.3-0.1h-0.1l-0.2-0.1c-0.6-0.4-0.8-1.1-0.6-1.8l0.1-0.1l0.1-0.1c0.9-0.6,2.2-0.3,3.3-0.4h0.4l0.5-0.1l1-0.1
	c2.7-0.1,5.2,0.5,7.8,0h0.7l0.2-0.1h0.1l0.1-0.3l0.1-0.4v-0.9c0.1-4.1-1.7-1.9-0.2-6.9v-0.4l0.1-0.3v-0.3c-0.1-0.7-0.1-1.4,0.1-2
	l0.1-0.4l0.1-0.5c0-1.6,0.3-3.1-0.2-4.7l-0.1-0.5v-1.3l0.1-0.4c0.6-3.9-1.4-4.4-0.8-8.1l0.1-0.7l0.1-0.7c0.7-3.2,0.4-5.5,1.5-8.8
	l0.1-0.7l0.4-1.8l0.2-0.7l0.1-0.7l0.1-0.6l0.1-0.7l0.2-0.5l0.1-0.5l0.1-0.4l0.1-0.4V430l0.1-0.3V429c-0.2-1.1,0-2.2,0.1-3.3
	l-0.1-0.3v-0.4l-0.2-1.1l-0.2-0.3l-0.1-0.3l-0.3-0.1l-0.2-0.1l-0.3-0.1l-0.2-0.1h-0.2l-0.3,0.1l-0.3,0.2l-0.4,0.3l-0.7,0.4l-0.4,0.2
	l-0.3,0.1l-0.4,0.1l-0.4,0.1l-0.4,0.1H137c-0.9,0-0.8,0-1-0.7v-0.3l0.1-0.3l0.1-0.3l0.5-0.5l0.3-0.2l0.2-0.2l0.4-0.3h0.1l0.1-0.1
	l0.1-0.1l0.1-0.2c0.5-0.5,0.9-0.9,1.6-1.3l0.3-0.4l0.1-0.1l0.1-0.1h0.2l0.1,0.1h0.1l0.2-0.2l0.3-0.4l0.4-0.6l0.2-0.5l0.2-0.4
	l0.2-0.4l0.1-0.4c1.3-4.4,2.5-3.2,3.5-7.5l0.1-0.4l0.1-0.4c0.1-4,1.4-6.7,1.3-11.3l0.1-0.4v-0.8l0.1-0.4c0.9-3.2,1.4-6.6,1.3-10
	l-0.1-0.7v-0.7c0.4-3.9,2.2-7.4,2.4-11.3l0.1-0.4v-0.3l0.1-0.4l0.1-0.6l0.1-0.4v-0.4l0.1-0.5c0-1.3,0.5-2.6,0.4-4.1l0.1-0.4l0.1-0.7
	c0.5-2.1,0.7-2.3,1.3-4.2v-0.9l-0.1-0.6v-0.4c0.4-2,0.5-3.5,0.4-5.5l-0.1-1v-0.9c-0.1-1.8-0.2-2,0.2-3.8l0.1-1.5l0.1-0.7v-0.6
	l0.1-0.6c0.7-2.3,0.5-6.6,0.8-9.1l0.1-0.6l0.1-0.7l0.1-0.6c0.1-1-0.3-2-0.2-3l0.1-0.4v-0.3c0.5-1,0.5-1,0.5-2.1v-0.4l-0.1-0.4v-0.4
	l-0.1-0.3v-0.2l-0.1-0.4v-0.4l0.1-1l0.1-0.6l0.1-0.5v-0.4l0.1-0.5v-0.7l-0.1-0.1l-0.4-0.4c-1-0.8-0.6-1-1.4-2l-0.4-0.4l-0.3-0.4
	l-0.1-0.2l-0.1-0.2c0.1-0.7-0.1-2.1,0-2.6l0.1-0.4c0.3-0.5,1.1-0.2,1.5,0.1l0.3,0.1l0.4,0.1l0.4,0.1l0.5,0.1h0.4l0.5,0.1
	c1.1,0.4,1.5,1,2.8,1.3l0.3,0.1h0.4c1.2,0.2,2.4,0.2,3.5,0.2h0.5l0.7,0.1l0.6,0.1c1.9,0.6,4.7-0.2,7.2,0.1h0.4l0.4,0.1h0.4l0.6,0.1
	l0.7,0.1h0.7c4.9,0.1,5.9-0.2,10.6-1.5l0.5-0.1l0.4-0.1l0.5-0.1c0.7-0.1,0.8,0.1,1.3,0.6l0.1,0.2v0.5l-0.1,0.2l-0.1,0.1l-0.7,0.9
	l-0.7,0.7l-0.4,0.1l-1.2,0.4l-0.5,0.1c-1,0.3-1.9,0.8-3,1l-0.4,0.1l-0.4,0.2c-0.7,0.4-0.2,0.7-0.1,1.3l0.1,0.4l0.1,0.4l0.1,0.5
	c1,3.8,2,5.7,2.5,10.1v0.3l0.1,0.6l0.1,0.5l0.1,0.6l0.1,0.7l0.1,0.7l0.1,0.8l0.1,0.7c0.8,4.9,1.4,9.1,2.4,14l0.1,0.8l0.1,0.7
	l-0.1,0.6c-0.1,1.7,0.2,2.1,0.4,3.8l0.1,0.6v0.6c0.1,0.9-0.1,1.7-0.3,2.6v0.4l-0.1,0.3l-0.1,0.1l-0.3,0.3l-0.1,0.1L188,363v0.4
	l-0.1,0.2v0.6l0.1,0.4v0.4c0.3,1.5,0.2,2.6,0.4,4v0.9l0.1,0.3c0,3.1,0.7,6.3,0.7,9.5l0.1,0.4l0.2,1l0.1,0.5l0.1,0.6l0.2,1.1l0.1,0.5
	l0.1,0.5c0.4,1.9,1.3,3.7,1.3,5.7l0.1,1v0.9c0.1,1.8,0.4,3.5,0.6,5.2l0.1,0.7v0.6l0.1,0.7l0.1,0.7c0,2.2,0.2,2.9,0.9,5l0.1,0.4
	l0.1,0.5c0.4,1.8,0,4.1,0.4,5.7l0.1,0.7l0.3,1.6l0.1,1l0.1,0.9c0.8,5,3.1,6.9,5,10.8l0.2,0.5l0.1,0.4l0.1,0.3
	c0.4,0.5,0.6,1.5,0.7,2.1l0.1,0.3l0.2,0.7v0.3l-0.1,0.3v0.4l-0.1,0.1l-0.1,0.1l-0.1,0.1l-0.2,0.2h-0.1l-0.1,0.1h-0.2V432l-0.1-0.1
	l-0.1-0.1v-0.1l-0.1-0.1c-0.3-0.4-0.4-0.8-0.7-1.2l-0.1-0.1l-0.1-0.1h-0.1l-0.1-0.1h-0.1l-0.1-0.1h-0.4l-0.1,0.1H198l-0.3,0.1
	l-0.1,0.1c-0.3,0.3-0.4,0.9-0.2,1.3v0.3l0.1,0.3c0.2,0.7,0.6,1.6,0.7,2.3l0.1,0.3v0.7l0.1,0.5c0.6,2.8,0.7,5.6,1,8.4l0.1,0.6v0.9
	c0,1.6,0.5,2.2,0.5,3.7v0.7c0.1,0.7,0.6,1.7,0.6,2.4v1.5l0.1,1.2v1c0,1.3,0,1.3,0.1,2.4l0.1,0.1l0.1,0.3c0.2,1.7,0.4,2.6,0.4,4.4
	l0.1,0.7l0.1,0.5l0.1,0.7c0.5,3.1,0.7,6.1,0.9,9.2l0.1,0.4l0.2,0.4l0.2,0.4l0.1,0.4l0.2,0.3c0.5,0.8,1.5,0.3,2.2,0.7l0.4,0.1
	l0.4,0.1c1,0.2,1.9,0.9,2.9,1.1h0.2l0.3,0.1l0.3-0.1h0.4c0.9,0,1.9,0,2.8,0l0.3,0.1l0.3,0.1c1.3,0.5,1.3-0.1,2.4,0.5l0.4,0.3
	l0.1,0.1l0.1,0.3l-0.1,0.1l-0.1,0.1l-0.1,0.1l-0.4,0.1l-0.4,0.2c-2,0.8-5.7,0.5-7.9,0.7l-0.6,0.1h-1.1c-0.7,0.1-1.7-0.3-2.4-0.3
	h-0.4l-0.1,0.1v0.7l0.1,0.5l0.1,0.4l0.1,0.5l0.1,0.6l0.1,0.6l0.3,1.2c1.2,3.7,0.4,5.9,1.3,9.3l0.1,0.6l0.1,0.5l0.1,0.4
	c0.2,0.8,0.7,1.5,0.6,2.4l0.1,0.1v0.1l0.1,0.1h0.1l0.3,0.1h2.3l0.7,0.1h0.8l0.8,0.1l0.8,0.1l0.8,0.1l0.8,0.1c3.4,0.4,6.6,0.3,10,0.4
	l0.4-0.1h0.4c3.9-0.3,7.9-0.7,11.8-1l0.1-0.1l0.3-0.3v-0.6c-0.2-1.1-0.5-2.1-0.6-3.1l-0.1-1.3c-0.1-1.2-0.2-2.4-0.3-3.7l-0.1-0.7
	l-0.1-0.8l-0.1-0.7l-0.1-0.7c-0.2-1-0.2-2-0.2-3v-1c0-0.8-0.3-1.6-0.4-2.4v-1.1l-0.1-0.3l-0.1-0.1l-0.2-0.2l-0.3-0.1
	c-3.4-0.8-3.9,1.8-5.3,0.1v-0.5l0.1-0.2c0.3-0.5,0.7-0.9,1.3-1.2l0.6-0.4l0.2-0.1c1.1-0.5,1,0,2.1-0.4l0.2-0.1l0.2-0.1l0.2-0.1
	l0.1-0.1l0.3-0.4c0.4-0.9,0.1-1.8,0.1-2.7v-0.7l0.1-0.5c0-0.9-0.1-1.5-0.1-2.4v-2.4c-1.1-3.8-0.8-8.2-1.3-12.1V454l-0.1-0.4
	l-0.1-0.8l-0.1-1.9l-0.1-1.1c0.4-4.2-0.1-6.9-0.4-10.7V437c-0.4-6-0.3-11.5-1.2-17.4l-0.1-1.9l-0.1-1.8l-0.1-2l-0.1-1
	c0.1-6-0.8-7.8-2.2-13.2l-0.3-0.7l-0.1-0.4l-0.2-0.4c-0.2-1-0.9-1.9-1-3l-0.1-0.3l-0.1-0.3c-0.3-0.7-0.9-1.9-1-2.6v-0.4l0.1-0.3
	v-0.3l0.1-0.2l0.1-0.1l0.1-0.1l0.1,0.1l0.1,0.1c2.2,1,1.8,2.8,3,4.7l0.1,0.4l0.2,0.4l0.2,0.4c0.3,0.7,0.7,1.4,1,2.1l0.1,0.3l0.1,0.4
	l0.7,0.9l0.4,0.4h0.4l0.1-0.1v-0.1l0.1-0.1v-0.7l0.1-0.5l-0.1-0.4v-0.4l-0.1-0.3l-0.1-0.7c-0.4-1.1-0.2-1.5-0.2-2.6l0.1-0.4v-1.3
	c-0.2-1.6-0.4-3.2-0.6-4.8v-0.8c0-0.7-0.1-1.2-0.1-1.9l-0.1-0.2v-1.3c-0.6-6.2-1.1-13-1-19.3v-0.6l-0.1-0.6l-0.1-1.1v-1.3l0.1-1.3
	c0.2-4.8-0.7-5.9-1.6-10.2l-0.1-0.6l-0.1-0.7c-0.4-2.8-1.4-5.1-2-7.9l-0.1-0.5l-0.2-0.5l-0.1-0.5l-0.4-0.9c-0.2-0.9-0.2-1.3-0.3-2.1
	V335l0.1-0.2l0.1-0.1l0.1-0.1h0.1l0.1,0.1l0.1,0.1c0.2,1.2,1.2,2.9,1.9,3.8l0.2,0.1h0.3l0.1-0.1l0.1-0.1l0.1-0.3v-0.1
	c-0.3-0.9-0.4-1.1-0.5-2.1l-0.1-0.6l-0.1-0.7c0-1-0.4-2.1-0.3-3.1l-0.1-1.3v-2.6c0.2-3,0.2-5.9,0.2-8.9v-1.6l0.1-0.7
	c0-4.5-0.5-8.9-0.4-13.5V302l0.1-0.5c0-0.9,0.3-2.6,0.1-3.5v-1.4c0.2-1.3,0.5-3.6,0.3-5l-0.1-0.7l-0.1-0.4l-0.1-0.4l-0.4-0.7
	l-0.4-0.7L227,288l-0.1-0.7c-0.1-0.9-0.4-1.6-0.7-2.5l-0.1-0.3v-0.7l0.1-0.4v-0.3l0.1-0.3l-0.1-0.3l-0.1-0.2l-0.1-0.1l-0.1-0.1
	c-1.7-0.2-4-0.7-4.4-2.7l-0.1-0.4v-1.3l0.1-0.4c0-0.6,0.4-1.1-0.1-1.6l-0.2-0.3l-0.3-0.2c-0.7-0.4-1.1-0.6-1.6-1.3l-0.3-0.3
	l-0.3-0.6c-0.5-1.7-0.9-4,0.7-5.3l0.3-0.3v-0.1h-0.1l-0.1-0.1l-0.7-0.4l-0.3-0.1l-0.2-0.2l-0.2-0.3c-0.4-0.4-0.8-1.6-0.8-2.1v-0.9
	l0.3-0.9l0.1-0.3l0.2-0.4l0.2-0.1l0.1-0.2l0.4-0.4l0.4-0.3c2.1-1,4-0.4,5.6-1.3l0.3-0.1l0.2-0.2l0.4-0.6c0.7-2.4-0.3-0.8-1.8-2.7
	l-0.1-0.1l-0.1-0.3c-1.3-1.9-1.3-4.5-0.4-6.6l0.1-0.3l0.1-0.2l0.1-0.1l0.1-0.2l0.1-0.3v-0.7c-0.2-0.6-0.4-0.9-0.5-1.6v-0.2l-0.1-0.5
	c-0.1-1.5-0.1-3.1-0.1-4.6v-0.8l-0.1-0.7v-0.7c-0.1-3.7-0.7-7.7-0.4-11.2v-1l-0.1-0.3v-0.4c-0.4-4.2-1.6-8.4-1.6-12.3l-0.1-1.1V210
	c0-4-1-7.8-1.3-11.8l-0.1-1l-0.1-1l-0.1-1.1l-0.4-3.3l-0.1-1l-0.1-0.9v-0.9c-0.3-6.4-1-12.7-1.6-19.1v-0.8l-0.1-0.7
	c-0.1-6.8,0.5-8.3-2.1-14.7l-0.4-1.2l-0.3-1.2l-0.1-1.3c-0.7-4.3-0.5-7.1-0.7-11.2v-1.9c0.2-3.3,1-6.5,0.8-9.8V126l0.1-0.4l0.1-0.4
	l0.1-0.4v-0.2c-0.1-0.4-0.6-0.5-1-0.4h-0.8c-0.9,0.1-1.2,0.3-2.1,0.4l-0.4,0.1l-0.4,0.1h-0.4c-5.1,0.2-8.1,2.1-12.7,2.6l-0.8,0.1
	l-0.7,0.1l-0.6,0.1l-0.6,0.1c-4.2,0.5-6.7,0.9-10.9,0.1l-1.3-0.1l-1.3-0.1c-5.2-0.4-9.8-0.1-14.9-0.1h-1l-1-0.1l-1-0.1l-1-0.1
	l-1.7-0.1h-1.7l-1.6-0.1l-1.7-0.1l-0.8-0.1l-0.9-0.1c-3.6,0.3-7.1,0.5-10.7,0.1h-0.4l-0.3-0.1c-3.5-0.4-6.9-1.3-10.3-1.9l-1-0.3
	l-1-0.4l-2.1-0.7c-3.7-0.7-5.3-2.6-8.1-3.5l-0.6-0.1h-0.3c-2,0.2-0.2,3.6,0.4,4.5l0.1,0.2l0.1,0.4l0.1,0.3v0.8l-0.1,0.4
	c-1.3,3.9-2.6,7.9-4.1,11.7l-0.2,0.4l-0.3,0.5c-2.7,2.5-3.8,6.3-6.7,8.6l-0.8,0.8l-0.5,0.4l-0.9,1.2c-0.3,0.5-1.5,1-2,1.2l-0.9,0.4
	l-0.7,0.3c-1.9,0.6-2.3,1.4-3.8,2.3l-0.5,0.3l-0.6,0.2l-0.5,0.2c-3.2,0.8-2.2,3.8-2.7,6.6l-0.1,1v1.2l0.1,0.5v0.8l0.1,0.4v0.4
	c0,4.9,0.5,6.7,1.5,11.4l0.1,1.5v0.7c0.2,5,0.6,7.8,1.8,12.6l0.1,1.1l0.1,2.1l0.1,1c0.6,5,1.4,10,1.5,15v0.9l0.1,0.3v0.7l0.1,0.5
	v0.5l0.3,1l0.3,1c0.6,1.7,0.7,2.7,0.9,4.5l0.2,1.8v0.7l0.1,0.8v2.2c-0.1,2.8,2,7.5,3,10.1l0.2,0.7l0.3,0.6c1.2,2.2,2.5,5.7,1,8.1
	l-0.3,0.4l-0.3,0.3l-0.3,0.2l-0.2,0.2l-0.4,0.1c-0.5,0.2-0.6,0.4-0.6,0.9l0.2,0.7l0.2,0.4l0.1,0.1l0.1,0.1h0.6l0.7-0.1l0.6-0.1
	l0.6-0.1h0.7c3.1,0.7,5.5,1,5.5,4.7l-0.1,0.4l-0.1,0.3l-0.1,0.4l-0.1,0.2l-1,1l-0.1,0.2v0.7c-0.1,2.7,1.8,3,0.4,6.1l-0.6,0.6
	c-0.4,0.4-0.9,0.6-1.5,0.7l-0.1,0.1l-0.1,0.2c-0.3,0.7,0.4,1.2,0.7,1.8l0.1,0.3l0.1,0.4l0.1,0.5v0.4l-0.1,0.4
	c-0.2,1.3-1.1,2.9-2.4,3.3l-0.1,0.1h-0.4c-2.3-0.3-1,2.8-2,4.5l-0.2,0.4l-0.2,0.2l-0.2,0.3l-0.4,0.4l-0.1,0.2l-0.3,0.6l-0.1,0.3v0.5
	l0.1,0.4l0.1,0.5l0.1,0.5c0.3,0.8,0.3,1.7,0.4,2.6v1.7l0.1,0.8c-0.1,3.9,0.6,6.7,0.7,10.3v1c0.7,8.3-1.9,15.3-1.3,23.8l-0.1,0.9v0.9
	l-0.1,0.8l-0.1,1v1.1l0.1,1.1c0.2,6.3-0.1,12.3,0.3,18.8l-0.1,1v1l0.1,0.9v0.4c0.2,0.7-0.1,2.1,0.1,2.9l0.1,0.5v0.5
	c-0.2,1-0.2,0.7-0.5,1.6v1.2c-0.1,0.3,0.1,1.5,0,2.1l0.1,0.7l0.1,0.2v0.2l0.1,0.1v0.1l0.1,0.1l0.2,0.1l0.1,0.1h0.3l0.1-0.1l0.1-0.1
	l0.1-0.1l0.2-0.3c0.2-0.5,0.5-0.9,0.8-1.3l0.1-0.2l0.2-0.1c0.3-0.5,0.4-0.3,0.7-0.6h0.7l0.1,0.1l0.4,0.4l0.1,0.1v0.3
	c-0.1,0.5-0.5,0.4-0.5,1.3l-0.1,0.2l-0.1,0.1l-0.1,0.5l-0.1,0.3l-0.1,0.2c-0.8,2.6-0.9,2.2-1.9,4.4l-0.1,0.4l-0.1,0.4
	c-1.1,3.4-0.1,3.9-0.4,6.2l-0.1,0.4l-0.1,0.4l-0.4,1.8l-0.3,1.9l-0.1,0.9l-0.1,0.8l-0.1,0.4v0.5c-0.2,3.4-0.8,5.3,0.1,8.6l0.1,0.8
	v0.8c0.2,0.8,0,1.7,0.1,2.4v2.3c-0.3,2.2,0.2,3.1,0.4,5L104,399v0.6l-0.1,0.6v1c0.1,2.9,0.7,3.7,3,5.2l0.3,0.2l0.3,0.3
	c1.2,2-0.4,3-2.2,1.8H105l-0.1,0.1l-0.1,0.2v0.8c0,2.8,0,6.7,0.4,9.2l0.1,0.7l0.1,0.7l0.1,0.7c0.3,1.6,0.4,3,0.7,4.6l0.1,1v0.5
	l0.1,0.4l-0.1,0.4v0.4l-0.1,0.3v0.4l-0.1,0.4l0.1,0.6v0.7l0.1,1.6l0.1,1c0.2,4.5,1.2,7.4,0.2,11.9l-0.1,0.7l-0.1,0.7
	c-0.7,3.4,0.3,6.7-0.1,10.1v1.1l-0.1,0.4v0.4l-0.1,0.4l-0.1,0.7l-0.1,0.7l-0.2,0.7c-1.5,4.4-0.7,6.8-1,11.5v0.5l0.1,0.4v0.5l0.1,0.1
	h1c0.9,0,1.4-0.1,2.3,0.1h0.3l0.3,0.1h0.5l0.3,0.1l0.1,0.1c0.3,0.3,0.6,0.3,1,0.4l0.1,0.1v0.2l-0.1,0.2l-0.2,0.2l-0.1,0.2l-0.2,0.1
	l-0.6,0.3l-0.2,0.1H109c-0.6-0.1-1.2-0.2-1.8-0.1h-0.7c-0.7,0-0.8,0.1-1.6,0.1l-0.1,0.1v2.1c-0.1,1.3,0.2,3,0,4.1v0.2l0.1,0.1
	l0.1,0.1c0.5,0.4,0.3,0.3,0.5,1v1.4l0.1,0.3l-0.1,0.3l-0.1,0.4l-0.1,0.4l-0.2,0.4l-0.1,0.3l-0.1,0.4l-0.1,0.3l-0.1,0.3l-0.1,0.2
	l-0.3,0.3l-0.1,0.3l-0.1,0.1v0.2c0,0.7,0,1.5,0,2.2v1.6c0,0.5,0,0.9,0.1,1.4l0.1,0.3v0.4l-0.1,0.2l-0.1,0.3v0.3l-0.1,0.3l0.1,0.3
	v0.4l0.1,0.1h0.1l0.1,0.1H104.7"/>
<path fill="#E22529" d="M29.1,279.2l-0.1,1l-0.1,1l-0.1,0.8l-0.1,0.4c-0.8,3.1-0.8,6.3-1.2,9.5l-0.1,0.7l-0.1,0.8
	c-0.8,5.4-0.2,10.9-1.2,16.3l-0.1,0.9v0.9l-0.1,0.8v0.4c-0.4,5,0.4,7.4-1.3,12.3l-0.1,1.3c-0.5,5.7-0.3,11.5-0.4,17.2l-0.1,0.9
	l-0.1,1.5v0.7l-0.3,2.4c-0.2,5.4-1.5,9.8-2.1,15v2.1c0.5,5.7-0.8,11.3-1.3,17l-0.1,1.2l-0.2,1.6c-1,5-2.6,11.9-4.7,16.5l-0.2,0.4
	l-0.2,0.5l-0.1,0.5c-0.8,2.2-1.2,4.8-2,6.5l-0.6,1.3c-1,1.6-1.5,1.7-2.1,3.7l-0.1,0.4l-0.3,0.6l-0.1,0.2v0.1h0.2l0.3-0.1l0.3-0.1
	l0.6-0.3l0.7-0.4c2.3-1.4,4.1-1.6,6.4-2.4L18,413l0.5-0.2c4.9-2.8,6.8-3,12.1-4.3l0.7-0.2l0.7-0.1l0.7-0.2l1.3-0.4
	c4.3-1.2,8.7-1.5,13.2-1.6l1.3-0.1h0.6c4.2-1,6.2-1.6,10.6-2.1l0.8-0.1l0.7-0.1h3.4l1.7,0.1c8.9,0.4,18.1,2,26.1,6.1l1.1,0.6l1,0.7
	l0.5,0.3l0.9,0.4l0.4,0.1l0.8,0.3l0.8,0.4l0.8,0.4l0.8,0.4c0.4,0.2,0.9,0.4,1.3,0.4h0.1l0.1-0.1l0.1-0.1c0-1.9-0.7-3.1-0.6-5.2v-0.4
	l-0.1-0.5v-1l-0.1-0.4v-0.8l-0.1-0.7c-0.3-1.8,0.2-3.9,0.1-5.8V398c0.1-3.3,0-5.7-0.4-8.9v-1.2l0.1-1.2l0.1-0.5
	c0.3-2.8,0-5.6,0.1-8.4l0.1-1.6v-0.8c0.2-3.5,1.1-4.8,1.1-8.9l0.1-0.7l0.1-0.7v-0.7l-0.1-0.8l-0.2-1.3c-0.8-3.3-0.7-4.6-0.4-8l0.1-1
	v-0.9c-0.3-3.3,0.5-6.7,0.1-10v-0.7l-0.1-0.3v-0.9c-0.3-3.6-1-7.8-0.8-11.3l0.2-2.2c0.3-3.6,0.1-5.1-0.2-8.5l0.1-0.5l0.1-0.6
	l0.1-0.6l0.3-1.3l0.2-1.3l0.1-0.6l0.1-0.6l0.1-0.6l0.1-0.5l0.1-0.4c0.2-4.1,0.2-7.7-0.2-11.8v-0.7l-0.1-0.7c-0.3-4.6,0-8.4-0.7-13.3
	v-2.3c-0.1-1.8,0.3-4.6-2.4-4.4l-0.6-0.1l-0.7-0.1c-4-0.9-7.8-2.7-11.5-4.6l-1-0.5l-0.4-0.3l-0.7-0.6l-0.2-0.2l-0.3-0.2
	c-2.7-1-4.3-3.6-6.6-5.2l-1.5-1.2l-0.7-0.7c-0.9-0.7-1.8-1.7-2.7-2.4l-0.3-0.2l-0.2-0.2c-0.2-0.2-0.4-0.4-0.4-0.7v-0.2l-0.1-0.2
	l-0.1-0.1l-0.3-0.2l-0.4-0.3c-1.5-1.5-3.3-2.9-4.8-4.4l-0.7-0.7l-1-1c-1-0.9-1.3-1.4-2.1-2.4l-0.4-0.5l-0.5-0.4
	c-1.1-0.7-2.1-1.3-3.1-2.1l-0.5-0.6l-0.5-0.4l-0.4-0.5l-0.5-0.4l-1.2-1l-1.1-1.1l-0.4-0.4c-3.2-2.8-2-3.4-5.2-6.1l-0.9-0.9l-0.3-0.2
	l-0.1-0.2l-0.2-0.1l-0.2-0.1l-0.3-0.1h-0.2l-0.3,0.1l-0.4,0.1c-0.8,0.4-1.6,0.8-2.4,1.2l-0.7,0.4l-0.7,0.3l-0.4,0.1l-0.3,0.1h-0.3
	l-0.1,0.1h-0.4l-0.2-0.1l-0.3-0.1l-0.7-0.2l-0.6-0.2l-0.6-0.3c-0.5-0.3-1.2-0.9-1.7-1.3l-0.3-0.2l-0.4-0.4l-0.2-0.1
	c-0.6-1-0.4-0.4-1.1-1l-0.3-0.1l-0.3-0.1l-0.3-0.1l-0.3-0.1l-0.3-0.1h-0.2l-0.3,0.1l-0.2,0.1l-0.1,0.1l-0.1,0.2l-0.1,0.1v0.4
	l-0.1,0.2v1.1l-0.1,0.8v0.7l-0.1,0.6v1.1c-0.1,0.6-0.2,1.3-0.1,1.9l-0.1,0.2v0.4l-0.1,0.4c-0.4,2.8-0.3,6.3,0,9.1v0.5l-0.1,0.6
	l-0.1,0.5l-0.1,0.7c-0.7,3.4-0.1,7.5-0.4,11.1l-0.1,0.5v0.5c-0.2,3.9-1.3,5.9-0.6,10.1v0.4l0.1,1v0.6L29.1,279.2"/>
<path fill="#E22529" d="M150.4,406.3l0.1-0.9l0.1-0.5l0.1-0.4l0.1-0.3V404c0.4-0.7-0.1-1.7,0.1-2.5l0.1-0.6l0.1-0.7
	c0.3-1.5,0.6-3,0.7-4.5l0.1-0.7l0.1-0.7l0.1-0.7c0-3.4,0.1-6.4,0.6-9.8v-0.2l0.2-1.1c0.9-3.3,0.8-7.8,1.4-11.4l0.1-0.7l0.1-0.7
	l0.1-0.7c0.7-2,0.1-4.3,0.6-6l0.2-1l0.2-1c0.2-1.3,0.6-2.9,1-4.1l0.1-0.4l0.1-0.4v-0.4l0.1-0.4l-0.1-0.4v-0.4l-0.1-0.4
	c-0.5-4.2,1.3-8.2,1.6-12.3l0.1-0.4l0.2-0.7c0.2-4.7,0.3-9.4,0.4-14v-2.1l-0.1-0.5c-0.2-0.9,0.4-2.1,1.1-2.6l0.3-0.1l0.2-0.1
	l0.3-0.1l0.3,0.1l0.2,0.1l0.3,0.1l0.4,0.1l0.4,0.1h0.7l0.4,0.1h0.4l0.4,0.1c1,0.1,2,0.3,3,0.1l0.4-0.1l0.4-0.1
	c1.5-0.4,1.6,0.1,3.2-0.4l1-0.1l0.5,0.1l0.5,0.1l0.6,0.2l0.5,0.2l0.5,0.1l0.4,0.2l0.3,0.3c2.1,2,3.5,4.6,4.4,7.4l0.2,1l0.1,1.1
	l0.1,1c0.2,1.2,0.3,1.5,0.9,2.6l0.1,0.4l0.1,0.6c-0.1,1.4,1,3.3,1,4.7l0.1,0.6l0.1,1.2v0.3l0.1,0.4c0.2,3,0.3,6.1,0.7,9.1l0.1,0.4
	v0.4c0.5,3.8,0.2,3.2,0.2,6.7v0.3l0.1,0.3l0.1,0.7l0.1,0.7l0.1,0.7c0.2,7.1,0.8,14.2,2.1,21.1l0.1,0.5l0.1,0.4l0.1,0.4
	c1,4,1.3,7.6,1.5,11.7v1l0.1,0.9c0.1,3.3,0.8,7,0.7,10.1l-0.1,0.2v0.4l-0.1,0.1l-0.1,0.1l-0.1-0.1l-0.2-0.1l-0.3-0.3
	c-1.7-1.6-6.4-2.6-8.6-3.1l-0.8-0.2l-0.4-0.1c-4-1.5-3.6-1.3-7.8-2h-0.4l-0.4-0.1h-0.5l-0.5-0.1c-4.2-0.4-8.5-0.2-12.6,1l-0.5,0.1
	l-1.2,0.6c-1.3,0.7-1.3,0.1-2.4,1.1l-0.6,0.4l-0.3,0.1l-0.3,0.1H151l-0.1,0.1h-0.3l-0.1-0.1v-0.1l-0.1-0.1v-0.2L150.4,406.3"/>
<path fill="#E22529" d="M236.9,403.9l-0.1-0.2l-0.1-0.2l-0.4-1.2l-0.1-0.6l-0.1-0.5v-0.5c0-2-0.6-3.2-0.2-5.5l-0.1-1.5
	c-0.3-1.9-0.7-3-0.8-5.1l-0.1-0.8v-0.7c-0.6-4.4-0.1-7.9-0.4-12.1l-0.1-0.8l-0.1-0.9l-0.1-0.8v-0.4c-0.2-3.6-0.2-7.3-0.4-10.9
	l-0.1-0.5v-1c-0.1-2.1-0.2-4.3,0.1-6.4v-1.4c0.1-2.2-0.6-2.9-0.8-4.8l-0.1-0.6l-0.2-0.7l-0.1-0.7l-0.2-0.6l-0.1-0.6l-0.1-0.4
	l-0.1-0.4c-0.6-4.6-1.9-6.1-1.6-11l0.1-0.6v-1c-0.2-1.6-0.1-3.2-0.3-4.7l0.1-0.5l0.1-0.4c0.2-1.5,0.6-2.4,0.7-3.8v-0.3l0.1-0.7v-1.4
	c0.7-9.4-1.3-17.4-0.5-26.8v-1.3l0.1-0.4v-0.6l0.1-0.4l0.1-0.3c0.9-1,2-0.9,3.1-1.4l0.7-0.3l0.4-0.1c1.4-0.6,2.7-0.9,4.1-1.6
	l0.4-0.3l0.5-0.3l0.6-0.4c7.2-4,9.8-6.9,14.9-13.2l0.4-0.4l0.3-0.4l0.3-0.3l0.9-0.7l0.5-0.4l0.8-0.8l0.4-0.4l0.2-0.4l0.1-0.2
	l0.1-0.1v-0.6l0.1-0.2c0.7-1.3,1.9-2.1,2.8-3.2l0.3-0.4l1.1-1.3c3.9-4.7,6.2-8.5,10.8-13.1l0.4-0.5l0.4-0.4l0.9-1.1l0.6-0.6
	c1.2-1,1.2-2.3,1.6-3.6l0.1-0.4l0.2-0.4c0.6-1,1.5-2,2.4-2.6l0.4-0.1h0.4c0.8,0.1,1.9,1,2.9,1.1l0.3,0.1l0.4,0.1
	c1.4,0.4,2.1,0.5,3.5-0.1l0.4-0.3l0.4-0.2l0.4-0.2l0.3-0.3l0.2-0.4l0.2-0.3l0.3-0.4l0.3-0.3h0.1l0.1,0.1l0.2,0.1l0.1,0.2l0.1,0.1
	c0.1,0.9,0.5,1.8,0.4,2.7v0.3l0.1,0.3v0.3c0.6,2.6,1,5.2,1.5,7.8l0.3,0.9l0.1,0.4v0.4l0.1,0.4v0.3l0.1,0.1v0.2l0.1,0.3v0.1
	c0.4,3.2,0.9,6.4,1.6,9.5l0.3,0.9v0.4c0.3,1.3,0.6,2.7,1.1,3.9l0.1,0.3l0.1,0.2c0.4,1.7,0.4,3,1,5l0.2,0.7l0.1,0.7l0.1,1.3l0.1,0.7
	c0.3,4.1,2.1,7.8,2.1,12v0.4l0.1,0.4c0.7,3.9,1.5,7.9,1.8,11.8l0.1,1.6v0.7l0.1,0.7l0.1,0.6v0.6c1.4,10.3,3,20.6,3.3,31v1l-0.1,1
	c0.4,5.2,1.4,9.8,1.3,15.2l0.1,0.6v0.6c0.5,5-0.1,9.7,0.4,14.6v0.7l0.1,0.7l0.1,0.3l0.1,0.9v0.5l0.1,1.3v0.7c0.1,2,0.7,4.1,0.7,5.9
	v0.5l-0.1,1c-0.1,1.5-0.3,3.1,0.1,4.6l0.1,0.4l0.1,0.8l0.1,0.9c0.5,3.1,0,6.2-0.1,9.2v1.2c-0.2,3.3-0.7,6.6-1.4,9.8l-0.2,0.8
	l-0.3,1.3c-0.2,2.6-0.7,3.1-1.4,5.3l-0.1,0.5l-0.2,0.5c-0.2,0.7-0.8,2.2-1.5,2.6h-0.2l-0.2-0.1l-0.2-0.1l-0.2-0.1l-0.2-0.1l-0.3-0.2
	l-0.3-0.1c-1.8-0.7-3.6-1.4-5-2.8l-0.4-0.3l-0.4-0.4c-2.6-1.6-5.4-2.8-8.1-4.4l-0.6-0.4l-0.6-0.2l-1-0.4c-6.5-2.6-13.4-3-20.3-4.9
	l-1-0.2l-1.1-0.1l-1-0.1l-1.2-0.1c-6,0-9.2-0.1-15.2-1.3h-0.7c-3,0.5-6.6,0.8-9.5,1.6h-0.1l-0.1-0.1h-0.1l-0.1-0.1L236.9,403.9"/>
<path fill="#A95D29" d="M100.7,508v-0.2l0.1-0.3l0.3-0.5l0.2-0.5l0.2-0.4c0.6-0.8,1.1-2.3,1.1-3.3l0.1-0.5l0.1-0.3
	c0.2-0.7,1.4-1.5,2.1-1.5l0.2-0.1h0.3l0.4-0.1c4.5-0.3,6.9,0.2,11.3,0.7l0.5,0.1h0.5l0.5,0.1l0.6,0.1c4.2,0.1,8.2,0.3,12.4,0.4h1.6
	c4.4-0.6,5.6-1.2,7.4,3.4l0.4,0.8l0.4,0.7l0.1,0.4l0.1,0.4l0.1,0.6l0.1,0.6l0.1,0.6c0,0.7,0.1,1.2-0.8,0.9l-0.3-0.4
	c-0.6-1-0.8-1.4-1.6-2.1l-0.3-0.1l-0.4-0.1l-0.4-0.2c-3.8-2.1-8.1-3.4-12.4-3.4l-0.8-0.1l-0.9-0.1l-0.9-0.1h-0.8
	c-3.1-0.1-10,0.4-12.9,1.8l-0.7,0.1l-0.6,0.2l-0.6,0.2c-1.1,0.5-2.7,0.7-3.7,1.6l-0.4,0.3l-0.4,0.2c-0.6,0.4-1.4,0.8-2.1,0.9
	l-0.1-0.1l-0.1-0.1v-0.1l-0.1-0.2L100.7,508"/>
<path fill="#A95D29" d="M99.9,512.3l-0.2,0.1l-0.1,0.1l-0.1,0.1l-0.1,0.2v0.3l-0.1,0.3l-0.1,0.6l-0.1,0.7l-0.1,1.2
	c-0.1,1-0.3,1.9,0,2.9l0.1,0.3h0.1l0.1,0.1h0.1l0.2-0.1c3.9-1.2,6.6,0,10.6,0h1c4-0.4,7.4,0.4,11.8-0.2l1.3-0.1h3.4
	c3.5,0,6.9,0.3,10.5,0.3h0.4l0.6,0.1l1.3,0.1l0.6,0.1h0.7l0.1-0.1h0.1l0.1-0.1c0.3-0.3,0-1.2,0-1.6l-0.1-0.4l-0.1-1l-0.1-0.5
	l-0.1-1.2l-0.1-0.5l-0.1-0.5c-1.6-3-3.8-4.9-7-5.9l-0.9-0.3c-2.5-1.4-6.5-1.8-9.4-1.9h-2.3l-0.4,0.1c-3.7-0.1-5.3,0-8.8,1.6
	l-0.5,0.2l-0.6,0.2c-3.3,1.2-6.8,2.2-9.8,3.9l-0.6,0.3l-0.6,0.2l-0.3,0.1L99.9,512.3"/>
<path fill="#A95D29" d="M100.7,521.9l0.1,0.1l0.1,0.1l0.1,0.1h0.1l0.1,0.1h0.2l0.2,0.1h0.6l0.7-0.1l0.7-0.1h0.5c0.8,0,1.6,0,2.4,0.1
	l1,0.1l1,0.1l1,0.1c4.1,0.5,7.6,0,11.6,0h3.8c3-0.1,6,0.1,8.9,0.5h0.7l0.7-0.1h0.7c1-0.1,1.9-0.1,2.9-0.2h0.3l0.3-0.1l0.2-0.1
	l0.1-0.1l0.1-0.1l0.1-0.1l0.1-0.1v-0.3l-0.1-0.2l-0.1-0.1l-0.1-0.1l-0.3-0.1l-0.3-0.1c-3.2-0.5-5.9-0.2-9-0.4h-1.6
	c-2.4-0.3-5-0.5-7.5-0.5l-0.7,0.1l-0.7,0.1h-1.2c-3.6,0.1-4.3,0.1-7.8-0.2h-1.3l-0.9,0.1c-1.1,0-2.4,0.3-3.4,0.3h-1.5
	c-0.9,0-1.8-0.1-2.6,0.4l-0.3,0.2l-0.3,0.3V521.9"/>
<path fill="#A95D29" d="M205.7,502l0.1-0.1h0.2l0.4,0.1l0.3,0.1c4.2,1.4,5.4,0,10,0.2h0.8c1.8,0,2.9-0.1,4.7,0.3l0.7,0.1l0.7,0.1
	c1.7,0.2,2.1,0,3.6-0.4h0.4l0.7-0.1l0.7-0.1l0.3-0.1h0.3c2.5-0.1,5.1-1.1,8.1-1.3l0.2,0.1h0.1l0.2,0.1l0.1,0.1v1.2l0.1,0.3l0.1,0.7
	l0.1,0.6c1.1,2.1,0.4,3,1,4.8l0.1,0.4v0.4l-0.1,0.4l-0.1,0.2l-0.1,0.1h-0.1l-0.2,0.1c-2.8,0.3-6.8-2.8-9.7-2.7l-1.2-0.1l-1-0.2
	l-1-0.2c-1.5-0.2-3.6-0.3-5.1-0.7H221l-0.4-0.1c-2.1,0.2-4.1,0.4-6.2,0.5h-0.5l-0.4,0.1h-0.4l-0.4,0.1l-0.6,0.1l-0.6,0.1
	c-1.1,0.2-3.2,1.1-4,1.8l-0.4,0.2l-0.4,0.3l-0.4,0.3l-0.4,0.2l-0.2,0.2l-0.3,0.2l-0.2,0.1l-0.3,0.1h-0.1l-0.1-0.1l-0.1-0.1l-0.1-0.1
	v-0.1c0-1.3-0.1-2.2,0.3-3.5l0.1-0.4V506c0-1.8-0.3-1.3,0.3-3.2l0.1-0.2l0.1-0.1l0.1-0.1l0.2-0.1L205.7,502"/>
<path fill="#A95D29" d="M204,518.4l-0.2-0.1h-0.1l-0.1-0.1l-0.1-0.1l-0.1-0.2l-0.1-0.4c-0.1-2.6,1.3-5.1,3.5-6.5l0.9-0.6
	c2.6-1.4,6.9-3,9.8-2.4h0.6l0.6,0.1l0.5,0.1h0.7c0.9,0,1.4,0,2.3-0.1h1.3c1.6,0,3.4,0.3,5,0.6h0.4l0.9,0.1c2.9,0.3,5.7,1.5,8.4,2.5
	l0.3,0.2l0.2,0.3l0.6,0.6l0.2,0.3l0.2,0.2l0.1,0.2l0.2,0.3l0.1,0.4l0.2,0.4l0.2,0.5l0.1,0.5v0.4l0.1,0.6v0.5
	c-0.1,0.5-0.1,1.1-0.4,1.6l-0.3,0.1l-0.3,0.1h-0.4l-0.4,0.1c-1.1-0.2-2-0.1-3-0.2l-0.7-0.1h-0.7c-1.5-0.2-3.5,0.1-5-0.2l-0.4-0.1
	h-0.3l-0.3-0.1h-0.8c-3.8-0.4-7.9-0.6-11.6,0l-0.8,0.1l-0.8,0.1c-3,0.4-6.7-0.4-9.5,0.1H204"/>
<path fill="#A95D29" d="M204.2,520.9l0.1,0.4l0.1,0.3l0.1,0.1l0.1,0.1l0.1,0.1l0.2,0.1l0.4,0.1l0.5,0.1h0.6l0.7,0.1h0.7
	c1.4,0.3,2.8,0.3,4.2,0.4l0.7,0.1h1.7c2.8,0.1,4.6,0.3,7.5-0.1l0.5-0.1h0.4l0.4,0.1h0.7c2.5-0.2,5.3,0.4,7.4-0.2l0.4-0.1l0.5-0.1
	c2-0.1,4.6-0.3,6.6-0.7l0.3-0.1l0.2-0.2l-0.1-0.1l-0.1-0.1c-2.8-1.1-5.8-0.2-8.7-0.2H230c-2.7,0.1-4.4-0.3-7.1-0.1h-1
	c-5.8,0.5-11.6-0.4-17.3,0l-0.1,0.1h-0.1L204.2,520.9"/>
<g>
	<path fill="#010101" d="M125.8,165.3l0.1-0.2l0.2-0.2l0.5-0.6c3.4-4.1,7.1-8.1,10-12.6l0.2-0.2l0.3-0.2c5.9-1.8,12.6,0.1,18.6-0.1
		l2.7,0.2l5.3,0.3l1.3,0.1l1.4,0.1c9.2,0.5,18.6,0.8,27.9,0.9l1.9,0c4.8,0.1,3.8-0.3,7.2,2.6l0.5,0.4l0.5,0.5l0.6,0.5l0.7,0.5
		l1.3,1.1l1.3,1.2c1.9,1.8,6.1,4.1,7.7,6.1l0,0.3l0,0.2c-0.6,1-1,1.3-1.7,2.1l-0.2,0.3l-0.3,0.3c-0.8,1-1.9,2.1-2.7,3.1l-1.1,1.1
		l-0.6,0.7l-0.7,0.7c-10.9,11.5-22.8,22.2-32.9,34.3l-0.3,0.1l-0.2,0l-0.1-0.1l-0.2-0.1c-9.2-8.1-19.2-15.7-28.6-23.7l-0.8-0.6
		l-0.7-0.7l-0.7-0.5c-5.1-4.4-9.8-9-14.8-13.5l-0.6-0.5l-0.5-0.5l-0.4-0.4c-0.6-0.5-1.1-1.1-1.7-1.5l-0.2-0.1l-0.2-0.2l-0.2-0.2
		l-0.1-0.2l-0.1,0l0-0.1l0.1-0.2l0.1-0.1l0-0.1L125.8,165.3"/>
	<path fill="#E02528" d="M202.9,175.9l0.7-0.7l0.6-0.6c1.9-2,4-4.4,5.7-6.6l0.3-0.3l0.3-0.4l0.2-0.2l0.2-0.3l0.1-0.2l0.2-0.2
		l0.1-0.2l0.2-0.3l0.1-0.2l0.1,0l0-0.1l0-0.1l0-0.1l-0.1,0l-0.1-0.1l-0.2-0.2l-0.1,0l-0.5-0.4l-0.2-0.2l-0.3-0.2l-0.3-0.2l-0.3-0.2
		l-0.7-0.5l-1.6-1.1l-1.8-1.3c-2.1-1.5-4.1-3.1-6.1-4.6l-0.2-0.1l-0.2-0.1l-0.3-0.1c-0.6-0.1-1.9-0.1-2.6-0.2l-0.4,0l-0.6,0
		c-7.4-0.4-14.8-0.6-22.2-0.8l-2-0.2l-2.1-0.1l-2.2,0l-24.2-0.7l-0.8,0l-0.4,0c-2.6,0.4-3.5,2.1-5.1,4l-0.3,0.4l-0.3,0.5l-0.4,0.5
		c-1,1.4-2,2.9-3,4.2l-0.3,0.4l-0.3,0.4l-0.2,0.3l-0.3,0.4l0,0.1l-0.1,0l-0.1,0.2l0.1,0.2l0.1,0l0.1,0.1l0.1,0.1l0.3,0.4l0.2,0.2
		l0.3,0.2c0.5,0.5,1.3,1.4,1.9,1.8l0.5,0.5l0.3,0.3l0.4,0.3c2.3,2.4,4.8,4.5,7.2,6.8l0.7,0.7l1.5,1.4l1.6,1.5l15.5,13.7l1.2,0.9
		l1.1,0.9c2.7,2.2,5.6,4.2,8.5,6.2l0.4,0.3l0.3,0.2c0.6,0.3,1.1,0.7,1.7,1.1l0.1,0l0,0.1l0.1,0l0.1,0l0.1-0.1l0-0.1
		c0.7-0.6,1.4-1.7,2.1-2.4l0.7-0.7c1.7-1.8,3.6-3.7,5.4-5.4l0.7-0.7l1.5-1.4L202.9,175.9z"/>
	<path fill="#FAEA09" d="M202.8,175.6l-0.2-0.6l-0.3-0.5l-0.2-0.6l-0.4-0.5l-0.3-0.4c-1.7-1.5-3.8-1.8-5.9-1.2l-0.2,0l-0.1,0l0-0.1
		c3.5-2.2,6.5-8.1,3.3-11.7l-0.7-0.9l-1.2-1.2l-0.6-0.5c-0.7-0.7-1.7-1.3-2.7-1.4l-0.5-0.1l-26.2-1l-2.2-0.1l-6.9-0.3l-2.3-0.2
		l-1.1,0l-2.1-0.1c-2.7-0.1-5.3-0.1-7.9-0.2l-0.7,0l-0.6,0l-0.5,0l-4.5,12.2l11.7-0.5l-3.5,14.4l4.9,4.5c3.3,2.9,6.5,5.9,10,8.7
		l0.6,0.6l24-0.9l1.8-1.7l1.8-1.7l1.9-1.8c2.8-2.8,5.7-5.5,8.4-8.3l2.3-2.4l1-1.1L202.8,175.6z M167.7,166.3l10.3-0.4l0.7,0l0.5,0
		c1.3,0.2,2.8,0.3,3.7,1.4l0,0.2l0,0.1c0,1.3-3,2.6-4.2,2.6l-0.5,0l-11.4,0.6L167.7,166.3z M181.4,180l-16.3,1.9l0.8-4.5l14.7-1.2
		l0.7,0C186.1,176.1,187.7,180.3,181.4,180z"/>
</g>
<g>
	<path fill="#010101" d="M133.1,100.4l-0.1-0.2l-0.1-0.3l0-0.1l0-0.1l-0.1-0.1c-0.5-0.9-1.2-1.5,0.3-2l0.1,0l0.1,0
		c1.7-0.7,0.3-3.4,0.3-4.7l-0.1-0.8l0-0.2c-0.1-2.3,0-4.7-0.1-7l0-0.1l0-0.2l0-0.3c-0.1-1-0.6-1.7-0.6-2.8l0-0.1l0-0.1
		c-0.1-1-0.2-2-0.2-3l0-0.1l0-0.1l0-0.1l0-0.1l0-0.1l0-0.3l0-0.3c0.2-0.7,0.1-1.1-0.4-1.6l-0.1-0.2l-0.2-0.2c-1.1-1-2.2-1.6-2.9-3
		l-0.1-0.2l-0.1-0.3l-0.1-0.3l-0.1-0.3c-0.4-1-0.6-1.8-0.6-2.9l0-0.3l0-0.3c-0.2-0.9-0.1-1.4-0.6-2.3l-0.1-0.2l-0.1-0.2l-0.1-0.2
		l-0.2-0.2l-0.2-0.2l-0.1-0.1c-0.3-0.5-0.3-0.9-0.6-1.5l-0.1-0.2l-0.1-0.2c-0.2-0.8-0.2-1.5,0-2.3l0-0.2l0-0.2l0.1-0.2
		c0.3-0.8,0.4-1.6,0.7-2.4l0.1-0.4l0.1-0.2c0.2-0.7,0.6-1.3,0.9-1.9l0-0.2l0-0.1l0-0.1l0-0.1l0-0.1l0-0.1l0-0.1l0-0.1l0-0.1
		l-0.1-0.3c-0.3-1.3-0.6-1.6-0.6-3.1l0-1.2l0-0.6l0-0.6l0-0.3l0-0.3l0-0.2l-0.1-0.2c-0.1-0.5-0.3-0.6-0.5-1.1l-0.1-0.2l-0.1-0.2
		l0-0.2l0-0.2l0-0.2c0-0.9,0.6-1.3,0.8-2.1l0-0.2l0-0.2c0.1-0.7-0.4-1.2-0.5-1.9l0-0.1l0-0.1l0-0.1l0-0.1l0-0.2l0-0.2
		c0.4-1.5,0.7-3,1.2-4.4l0.1-0.4l0.1-0.4c0.5-1.1,0.8-2.1,1.1-3.2l0.2-0.6c0.9-2.1,1.6-4.2,3-6l0.1-0.2l0.1-0.2l0.1-0.2l0.3-0.4
		l0.3-0.4c1.9-2.7,4.2-4.9,6.8-6.8l0.1-0.1l0.1-0.1l0.1-0.1c1.2-0.9,2.4-1.8,3.7-2.5l0.3-0.1l0.3-0.2c2.1-1,4.2-2.1,6.3-3.1l0.5-0.2
		l1.1-0.5l0.5-0.2l0.3-0.1l0.2-0.1l0.2-0.1c1.3-0.7,2.4-0.9,3.8-1.3l0.3-0.1l0.3-0.1c1.1-0.4,2.2-0.7,3.3-1.1l0.7-0.3l0.7-0.2
		l0.4-0.1c3.6-1,6.9-1.7,10.6-1.2l0.3,0l0.3,0.1l0.3,0l0.3,0l0.3,0l0.4,0l0.4,0l0.4,0l0.8,0l0.4,0l0.3,0c1,0,1.7,0.5,2.5,1l0.1,0.1
		l0.1,0.1c0.9,0.5,2,0.8,2.9,1.4l0.1,0.1l0.5,0.4c1.6,1.6,3.1,3.3,4.2,5.2l0.1,0.2l0.1,0.2l0.1,0.2l0.1,0.2c1.1,1.9,1.5,5,1.6,7.2
		l0,0.4l0,0.9l0,0.4c0,1-0.1,2-0.2,3l0,0.2l0,0.2c-0.2,1.3-0.5,3.2-1,4.5l0,0.1l-0.1,0.2l-0.1,0.2l-0.1,0.2l-0.1,0.1l-0.1,0.1
		c-1.1,2.6-2.3,1.6-1,5l0.1,0.2l0.2,0.4l0,0.1c0.3,0.8,0.4,2.1,0.4,3l0,0.5l0,0.5c0.2,1.8,0.2,2.8,0,4.6l0,0.3l0,0.3l0,0.2l0,0.2
		l0,0.2l0,0.2c0,0.5-0.3,1.3-0.1,1.8l0.1,0.2c0.7,1,1.2,1.9,1.7,3.1l0.2,0.5l0.1,0.3l0.1,0.3l0.1,0.3c0.4,1.4,0.7,2.8,0.9,4.2l0,0.2
		l0.1,0.4c0.2,0.9,0.3,1.8,0.2,2.7l0,0.4l0,0.4l-0.1,0.8l-0.1,0.8l0,0.4l-0.2,1.1l-0.2,1.4c-0.3,1.9-0.7,3.8-1.1,5.7l0,0.2l0,0.2
		c-0.2,1-0.2,2.2-0.3,3.2l0,0.4l0,0.7l0,0.2c0.1,1.2,0,1.8-0.3,3l0,0.2l0,0.2c-0.3,1.2-0.1,2.4-0.2,3.6l0,0.2l0,0.2l0,0.2l-0.1,0.5
		l-0.1,0.5c-0.9,4-2.1,4.1-4.5,7.2l-0.2,0.2l-0.3,0.3c-0.5,0.6-1.2,1-1.8,1.5l-0.1,0.1l-0.1,0.1c-0.5,0.3-0.5,0.6-0.7,1.1l-0.1,0.2
		l0,0.3l0,0.2l-0.1,0.4l-0.1,0.2c-0.3,1.2-0.7,2.4-1,3.7l-0.1,0.2l0,0.2c-0.1,0.5-0.4,1.4,0.2,1.7l0.1,0l0.1,0l0.7,0.2
		c0.9,0.2,0.9-0.1,1.6,0.7l0.1,0.2c0.2,0.3,0,0.8-0.2,1.1l-0.2,0.2l-0.1,0.1l-0.1,0.1l-0.1,0.1l-0.1,0.1c-0.7,0.5-0.8,0.7-1.3,1.5
		l-0.2,0.3l-0.2,0.3c-0.8,1.4-1.6,2.9-2.6,4.2l-0.1,0.2l-0.1,0.2l-0.2,0.3l-0.2,0.4c-1.1,1.5-2.2,3.3-3.3,4.7l-0.3,0.3l-0.3,0.3
		c-1,1.2-2.1,2.7-3,4l-0.1,0.2l-0.1,0.2l-0.1,0.3l0,0.1l-0.1,0.1l0,0.1l0-0.1l-0.1,0.2l0,0.2c-0.5,2-1.2,3.5-3.6,3.7l-0.3,0l-0.6,0
		c-2.5-0.1-4.9-0.3-7.4-0.3l-0.4,0l-0.4,0c-1.8-0.1-3.8-0.1-5.3-1.2l-0.2-0.2l-0.2-0.2l-0.2-0.2l0.1-0.1l0.1-0.1l0.1-0.1
		c1-1.7,0.6-3-1-4l-0.1-0.1l-0.1-0.1c-2.3-1.5-4.6-3-6.8-4.7l-0.2-0.2l-0.2-0.2l-0.2-0.2l-0.2-0.2l-0.2-0.2
		c-1.2-0.9-1.8-1.6-2.7-2.7l-0.4-0.5c-0.8-0.9-1.7-1.7-2.4-2.7l-0.2-0.3l-0.2-0.3l-0.2-0.4l-0.2-0.4c-0.9-1.8-1.5-3.7-2.3-5.5
		l-0.1-0.2l-0.1-0.2C133.3,102,133.3,101.2,133.1,100.4L133.1,100.4l0-0.1l-0.1-0.2"/>
	<path fill="#F1BB7B" d="M185,32.5L185,32.5l-0.1,0l-0.2,0l-0.2,0l-0.2,0l-0.2,0l-0.2,0c-2.3,0.2-4.6,0.8-6.7,1.8l-0.1,0.1l-0.1,0.1
		c-0.9,0.6-1.5,1.5-1.1,2.6l0.1,0.2l0.1,0.2l0.1,0.3c0.4,0.8,1.4,1.7,2.3,1.2l0.2-0.1l0.4-0.2c1.4-0.6,3.5-1.2,5.1-1.2l0.5,0l0.2,0
		l0.2,0l0.2,0l0.2,0.1c0.9,0.1,1.5,0.6,1.7,1.5l0.1,0.3c0.3,1.7,0.1,3.3,0.1,5l0,0.2l0,0.2l0,0.2l0,0.2l0,0.2
		c-0.1,0.6-0.2,1.2-0.3,1.8l-0.1,0.4c-0.1,0.5-0.1,0.4,0,0.9l0,0.1l0,0.1l0.1,0.1c1.1,1.9,1.6,3.5,2.4,5.5l0.1,0.4l0.1,0.4l0.4,1.4
		l0.2,0.7c1,3.7-0.1,7.4-0.7,11.1l0,0.2l0,0.3c-0.1,1.8-0.8,3.5-1.1,5.3l0,0.2l0,0.2l0,0.2c-0.1,0.6-0.1,1.3-0.1,1.9l0,0.3l0,0.1
		c0,0.4,0.3,0.8,0.4,1.2l0,0.1l0,0.1l0,0.1l0,0.2l0,0.2l0,0.2l-0.1,0.2l-0.1,0.5c-0.1,0.5-0.3,0.8-0.1,1.4l0.1,0.2l0.1,0.3
		c0.2,0.4,0.2,1.1,0.1,1.5l0,0.2l0,0.1l0,0.1c-0.4,1.2-0.8,2.6-1.5,3.6l-0.1,0.1l-0.1,0.1l-0.1,0.1l-0.1,0.1
		c-0.9,0.8-1.5,1.4-2.4,2.3l-0.4,0.3l-0.4,0.3l-0.4,0.3c-0.8,0.6-2,1.1-2.9,1.6l-0.4,0.2l-0.4,0.2c-0.6,0.3-1.3,0.5-2,0.7l-0.3,0.1
		l-0.3,0.1l-0.8,0.3l-0.3,0.1l-0.2,0.1l-0.2,0.1l-0.2,0.1l-0.5,0.2l-0.5,0.1c-1.1,0.3-2.4,0.7-3.6,0.5l-0.2,0l-0.4-0.1
		c-1.8-0.3-3.8-1.2-5.4-1.9l-0.4-0.2l-0.4-0.2l-0.3-0.2l-0.3-0.2c-2-1.3-3.6-2.4-5.4-3.9l-0.2-0.1l-0.2-0.1c-0.9-0.6-1.9,0.1-2.2,1
		l-0.1,0.2l0,0.1l0,0.1l0,0.1l0,0.1l0,0.1c0.1,0.2,0.3,0.3,0.4,0.5l0.1,0.1l0.2,0.2c0.6,0.4,1.1,0.9,1.7,1.3l0.2,0.1L158,93l0.4,0.2
		c2.2,1.4,3.8,2.1,6.1,3.1l0.3,0.1l0.3,0.1l0.3,0.1l0.3,0.1c1.8,0.6,3.7,1.1,5.7,1.1l0.2,0l0.2,0c2.1-0.1,3.9-1,6-1.6l0.3-0.1
		l0.3-0.1l0.1,0l0.1-0.1l0.2-0.1l0.2-0.1l0.2-0.1c0.5-0.3,1.2-0.2,1.3,0.4l0,0.1l0,0.1c-0.2,1-0.5,2-0.7,3l-0.2,0.6l-0.1,0.2
		c-0.4,1-0.6,2.1-0.8,3.1l0,0.1l0,0.1c-0.3,1.1-0.6,2.5-1.1,3.5l-0.1,0.1l-0.1,0.2l-0.1,0.2l-0.5,0.7l-0.1,0.2
		c-1.2,1.7-2.4,2.8-3.2,4.7l-0.1,0.3l-0.1,0.3c-0.9,1.5-1.9,2.7-2.8,4.3l-0.3,0.4l-0.1,0.2l-0.1,0.2c-1.7,2-3.3,4-4.8,6.2l-0.3,0.4
		c-0.4,0.8-1.4,0.4-2.1,0.4l-0.2,0l-0.2,0l-0.2,0l-0.2,0l-0.2,0l-0.2,0l-0.4,0l-0.4,0l-0.2,0l-0.2,0l-0.4,0l-0.4,0l-0.2,0
		c-0.4,0-0.9,0-1.3,0l-0.6,0l-0.3,0c-0.3,0-0.5,0-0.7-0.1l-0.1-0.1l-0.1-0.1l0,0c-0.7-1.5-0.8-2-2.1-3.1l-0.3-0.2l-0.3-0.2l-0.3-0.3
		l-0.3-0.3c-1.3-1.2-2.5-2-4-3l-0.8-0.5l-0.4-0.3l-0.4-0.2c-0.8-0.6-1.5-1.3-2.3-1.9l-0.1-0.1l-0.1-0.1c-0.6-0.4-1.1-0.8-1.6-1.3
		l-0.3-0.3l-0.3-0.3l-0.3-0.3l-0.2-0.3l-0.2-0.3l-0.2-0.3l-0.2-0.3c-1-1.4-1.6-3.6-2.3-5.2l-0.1-0.3l-0.1-0.2
		c-0.9-2.2-1.4-4.3-1.8-6.7l-0.1-0.5l-0.1-0.4l-0.1-0.4l-0.1-0.4c-0.6-2.4-0.5-4.8-0.5-7.2l0-0.6l0-0.6c-0.2-2.7-1.2-5.2-1.3-7.9
		l0-0.4l0-0.4l0-0.4l0-0.4l0-0.3l0-0.3l0-0.3l0-0.3c0-0.6-0.1-1.5,0.7-1.6l0.2,0l0.2,0c1.2-0.1,1.9,0.8,2.2-0.9l0-0.1l0-0.1l0-0.2
		c0-0.9-0.1-0.9-0.9-1.2l-0.4-0.1c-1.3-0.4-2.4-0.4-3.6-1.1l-0.2-0.1l-0.2-0.1l-0.2-0.2l-0.1-0.1l-0.1-0.1c-1-1-1.5-2.5-2.1-3.8
		l0-0.1l0-0.1c-0.1-1.2-0.1-2.3,0.6-3.3l0.1-0.2l0-0.1l0-0.1l0-0.1l0-0.1c0-0.3-0.4-0.6-0.6-0.8l-0.1-0.1l-0.1-0.1
		c-0.3-0.4-0.7-0.8-1-1.2l0-0.1l0-0.1l-0.1-0.2c-0.5-1.2-0.6-2.1-0.2-3.4l0-0.1l0-0.3l0.1-0.4l0.1-0.1l0.1-0.1l0.1-0.1l0.1-0.2
		l0.1-0.1c0.7-0.9,2-0.8,3-0.5l0.1,0l0.1,0l0.1,0c0.7,0.2,1.1,0.3,1.7,0.6l0.2,0.1l0.2,0c0.3,0.1,0.4,0.1,0.7,0.2l0.1,0l0.1,0l0.1,0
		l0.2-0.1c0.8-0.5,1.2-1.1,1.3-2l0-0.3l0-0.2c-0.1-0.5-0.4-1-0.5-1.5l0-0.1l0-0.1c0-0.3,0.1-0.7,0.1-1l0-0.3l0-0.1l0-0.1l0-0.1
		l0-0.3c0.1-1.9,0.5-2.9,1.1-4.6L138,46c0.2-0.8,0.4-1.5,0.6-2.3l0.1-0.5c0.2-0.7,0.2-1.5,0.6-2.2l0.2-0.4l0.2-0.4l0.1-0.2l0.1-0.2
		l0.1-0.2l0.1-0.2c0.4-0.5,1-0.8,1.5-1.3l0.2-0.1l0.2-0.2c0.2-0.2,0.5-0.5,0.7-0.8l0.1-0.2l0.3-0.3l0.3-0.3c1-1,2.2-2,3.3-2.9
		l0.2-0.1l0.1-0.1l0.1-0.1l0.1-0.1l0.1-0.1l0.3-0.2l0.6-0.5l0.3-0.2c1.4-1.2,3-2.6,4.7-3.4l0.5-0.2l0.2-0.1c0.7-0.2,1.5-0.4,2.2-0.6
		l0.3-0.1l0.4-0.1c0.8-0.2,1.6-0.2,2.4-0.2l0.3,0l0.6,0l0.3,0l0.3,0l0.3,0c1.3,0,2.2,0.5,3.4,0.7l0.3,0.1l0.7,0.1
		c2,0.4,4.2,0.8,6.3,0.8l0.7,0l0.3,0l0.3,0l0.3,0l0.3,0c1.9,0.3,3.7,0.3,5.6,0.4l0.3,0l0.3,0l0.3,0c0.6-0.1,1.1-0.5,1.7-0.7l0.2-0.1
		l0.2,0c0.5-0.1,1.1-0.2,1.6,0l0.2,0.1l0.2,0.1l0.1,0.1l0.1,0.1l0.2,0.2c0.2,0.2,0.4,0.6,0.4,0.8l0,0.1l0,0.1l-0.1,0.3l0,0.1L185,31
		l0,0.2l0.1,0.1l0,0l0.1,0.1c0.1,0.2,0.4,0.3,0.4,0.6l-0.1,0.2l0,0.1l0,0l0,0l0,0l0,0l0,0l0,0l0,0l-0.1,0l-0.1,0l-0.1,0L185,32.5
		L185,32.5"/>
	<path fill="#010101" d="M154.8,46.9L154.8,46.9l0,0.2c0.2,1.2,1.6,1.3,2.5,1.5l0.2,0l0.1,0c1.1,0.1,1.8-0.8,2.1-1.7l0.1-0.4l0-0.1
		c0.1-0.8-0.4-1.8-1.3-1.6l-0.1,0l-0.2,0c-1.4,0.1-2.2,0.8-3.3,1.7l-0.1,0.1L154.8,46.9L154.8,46.9"/>
	<path fill="#7B5F40" d="M156.4,46.7l0.1,0.1c0.9,0.8,1.9,0.6,2.1-0.7l0-0.1l0-0.1l0-0.1c-0.1-0.5-1-0.8-1.5-0.7l-0.1,0l-0.1,0
		l-0.1,0.1c-0.1,0.1-0.3,0.3-0.3,0.5l0,0.1l0,0.1c0,0.1-0.1,0.3-0.1,0.4l0,0L156.4,46.7L156.4,46.7"/>
	<path fill="#010101" d="M149.4,40.9L149.4,40.9L149.4,40.9l0.1,0l0.1,0c1.5-1,2.7-2,4.5-2.4l0.3-0.1l0.6-0.1
		c1.6-0.5,2.8-0.6,4.5-0.6l0.3,0l0.3,0l0.2,0l0.2,0l0.1,0c0.6,0,0.9,0,1.5,0.2l0.4,0.1c0.4,0.1,1.2,0.4,1.5,0.3l0.1,0l0.1-0.1
		c0.5-0.8,0.8-1.9,0.8-2.9l0-0.2l0-0.2l-0.1-0.2l-0.1-0.2l-0.1-0.2l-0.1-0.1c-0.3-0.2-0.7-0.4-1.1-0.5l-0.1-0.1l-0.1,0
		c-0.5-0.2-1.1-0.3-1.7-0.5l-0.2,0l-0.4-0.1c-1.7-0.4-3.4,0.3-5,0.9l-0.4,0.1l-0.3,0.2l-0.3,0.1c-1.5,0.8-3,1.8-4.1,3.1l-0.1,0.1
		l-0.1,0.2l-0.1,0.2c-0.4,0.5-0.7,1.2-0.9,1.9l-0.1,0.2l0,0.2c-0.1,0.3-0.3,0.8-0.2,1.1l0,0.1L149.4,40.9L149.4,40.9L149.4,40.9"/>
	<path fill="#A85C28" d="M162.2,36.5l-0.1,0l-0.1,0l-0.3-0.1c-1.1-0.4-2.4-0.2-3.5,0l-0.3,0.1l-0.3,0.1l-0.2,0.1
		c-0.5,0.2-0.9,0.4-1.4,0.5l-0.2,0.1l-0.2,0.1l-0.2,0l-0.1,0l-0.1,0l-0.1,0l-0.1,0l-0.1,0l-0.1-0.1l-0.1-0.1l-0.1-0.1l-0.3-0.3
		l-0.1-0.1l0-0.1l0,0l0-0.1l0-0.1l0-0.1c0.1-0.3,0.1-0.6,0.2-0.9l0-0.1l0-0.2l0-0.1l0-0.1l0,0l0,0l0,0l0-0.1l0.1-0.1l0.1-0.1
		c0.2-0.1,0.2-0.2,0.4-0.2l0.2-0.1l0.2-0.1l0.2-0.1l0.1,0l0.2-0.1c1.3-0.5,1.8-0.7,3.2-0.8l0.3-0.1l0.1,0c0.9,0,1.8,0.3,2.7,0.4
		l0.1,0l0.2,0.1l0.2,0.1l0.1,0c0.6,0.2,0.6,0.7,0.4,1.2l-0.1,0.1l-0.1,0.3c-0.2,0.3-0.3,0.9-0.8,1l-0.1,0L162.2,36.5L162.2,36.5"/>
	<path fill="#A85C28" d="M185.7,36.7l0.1,0l0.1,0l0.3-0.1l0.1-0.1c0.4-0.2,0.4-0.7,0.3-1.1l-0.1-0.3c-0.3-0.5-0.7-0.9-1.2-1
		l-0.1-0.1l-0.1-0.1l-0.1,0c-1.7-0.5-5.3,0.3-6.5,1.7l-0.1,0.2l0,0.1l0,0.1c0.2,1.7,2.5,1.2,3.6,0.9l0.3-0.1
		c1.3-0.2,1.9-0.3,3.2-0.2l0.1,0l0.1,0L185.7,36.7"/>
	<path fill="#010101" d="M178.2,44.9l0.1-0.3c0.9-1.8,1.5-1.9,3.5-2l0.2,0l0.2,0l0.2,0c0.8,0.1,1.5,0.3,2.2,0.6l0.1,0.1l0.1,0.1
		l0.1,0.1l0.1,0.1l0,0.1l0,0.1l0,0.1l0,0l0,0l-0.1,0l0,0l-0.1,0l-0.1,0l-0.1,0l-0.1,0c-1.2-0.4-3.5-0.2-4.5,0.4l-0.4,0.3
		c-0.4,0.3-0.6,0.5-1,0.8l0,0l-0.1,0l0,0l-0.1,0l-0.1,0l-0.1,0l-0.1,0l-0.1,0l-0.1-0.1l0-0.1l0-0.1l0-0.1l0,0L178.2,44.9L178.2,44.9
		"/>
	<path fill="#010101" d="M179.3,44.8l0,0.2l0,0.1c0.2,0.7,0.6,1.6,1.4,1.7l0.1,0l0.1,0l0.1,0c0.4,0,0.6-0.1,0.9-0.4l0.1-0.1l0.1-0.1
		c0.2-0.3,0.4-0.8,0.5-1.2l0-0.1l0-0.3l0-0.1l0-0.1l0-0.1l0-0.1l0-0.1l0-0.1l0-0.1l-0.1-0.2l0-0.1l0,0l0,0l0,0
		c-0.2,0-0.6,0.1-0.8,0.1l-0.3,0.1l-0.1,0c-0.6,0.1-1.4,0.6-1.8,1L179.3,44.8L179.3,44.8L179.3,44.8"/>
	<path fill="#7B5F40" d="M180.3,44.2L180.3,44.2L180.3,44.2c-0.2,1.1,0.9,1.9,1.4,0.7l0.1-0.3l0-0.1c0.1-0.4,0-0.9-0.5-0.8l-0.2,0
		c-0.1,0-0.3,0.1-0.4,0.1l-0.1,0l-0.1,0c-0.1,0.1-0.1,0-0.2,0.2l0,0L180.3,44.2L180.3,44.2"/>
	<path fill="#010101" d="M179.1,80L179.1,80l-0.2,0.1l-0.1,0c-2.7,0.9-5.2,2.1-8.2,1.9l-0.3,0l-0.5,0l-0.3,0c-0.7,0-1.4-0.2-2-0.2
		l-0.1,0l-0.1,0c-0.5,0.3-0.6,0.9-0.1,1.3l0.1,0.1l0.1,0l0.1,0l0.1,0l0.1,0.1l0.1,0c1.3,0.5,2.5,0.8,3.9,1l0.2,0l0.2,0
		c1.2,0.1,1.5,0,2.6-0.5l0.2-0.1l0.2-0.1l0.2-0.1c0.3-0.2,4.9-3.3,3.9-3.6l0,0L179.1,80L179.1,80"/>
	<path fill="#010101" d="M155.4,66.3l0,0.2l0.1,0.2l0.1,0.2l0.1,0.2l0.1,0.4l0.2,0.4c0.5,1,1.1,1.9,1.6,2.9l0.1,0.2l0.1,0.2
		c0.4,0.8,1,1.5,1.7,2.1l0.3,0.3l0.3,0.3l0.3,0.3l0.3,0.3c1,0.8,2.1,1.6,3.1,2.3l0.1,0.1l0.1,0.1c1,0.5,2.2,1.1,3.2,1.4l0.7,0.2
		l0.4,0.1l0.3,0.1l0.3,0.1l0.3,0c1,0.1,2,0.3,3,0.3l0.3,0l0.3,0c0.9-0.1,1.9-0.3,2.8-0.5l0.3-0.1l0.3-0.1l0.3-0.1l0.3-0.1
		c0.9-0.3,1.7-0.6,2.5-1.1l0.3-0.2c1-0.8,2.2-1.9,3.1-2.9l0.4-0.5l0.1-0.2l0.5-0.7l0.2-0.3l0.1-0.2c0.6-1,1.4-2,2-3l0.2-0.2l0.1-0.3
		c0.4-0.8,0.6-1.9,0.9-2.8l0.3-1.2c0.7-2.3-0.2-2.1-1.7-3.6l-0.2-0.2l-0.2-0.1l-0.2-0.1l-0.2-0.1c-2.5-1-2.1-1.6-2.9-4.1l-0.2-0.6
		l-0.1-0.3l-0.1-0.3c-0.5-1.3-1.2-2.7-1.8-4l-0.2-0.3l-0.2-0.3c-0.5-0.7-0.9-1.5-1.4-2.2l-0.2-0.3l-0.2-0.3l-0.1-0.1l-0.1-0.1
		l-0.1-0.1l-0.1-0.1l-0.1-0.1l-0.1-0.2c-0.7-1.1-1.9-1.8-2.7-0.2l-0.1,0.2l0,0.1c0.1,0.5,0.4,0.7,0.7,1.1l0.1,0.1l0.1,0.1
		c0.4,0.6,0.7,1.3,1.1,1.9l0.2,0.2l0.1,0.2l0.1,0.2l0.1,0.2l0.1,0.2c1,1.4,2,3.8,2.5,5.4l0.1,0.2l0.1,0.2c0.5,1.2,0.7,3.1-0.7,3.7
		l-0.1,0.1l-0.3,0.1l-0.3,0.1l-0.3,0.1l-0.3,0.1l-0.2,0.1l-0.1,0c-0.7,0.1-1,0-1.7-0.2l-0.5-0.2c-1.2-0.4-2.4-0.7-3.6-1l-0.3-0.1
		l-0.3-0.1l-0.3-0.1l-0.3,0c-1-0.1-1.9,0.1-2.9,0.1l-0.2,0l-0.2,0c-1,0.2-1.8,0.1-2.7,0.2l-0.1,0l-0.1,0l-0.1,0l-0.1,0l-0.3,0
		l-0.3,0c-0.8,0.2-1.5,0.3-2.3,0.3l-0.5,0l-0.3,0c-1,0-1.2-0.1-2.2,0.3l-0.2,0.1l-0.5,0.2c-1.8,0.8-2.2,2.6-2.3,4.4l0,0.1l0,0.1
		l0,0.2L155.4,66.3"/>
	<path fill="#FFFFFF" d="M159.3,68.6l0,0.2l0,0.2l0.1,0.3l0.1,0.2c0.5,0.7,0.5,1.1,1.1,1.8l0.1,0.1l0.1,0.1c0.5,0.6,1.1,1.2,1.7,1.7
		l0.2,0.2l0.4,0.3c1.7,1.3,3.7,2.2,5.8,2.6l0.3,0.1l0.2,0l0.2,0l0.2,0l0.1,0c0.7,0.1,1.4,0.2,2.1,0.3l0.2,0l0.2,0
		c0.9,0,1.9-0.3,2.9-0.4l0.2-0.1l0.2-0.1l0.2-0.1c2.2-0.9,3.7-2.2,4.9-4.3l0.1-0.2l0.1-0.2l0.1-0.2l0.1-0.2l0.1-0.3l0-0.1l0-0.1
		l0-0.1l0-0.1l0-0.1l0,0l0,0l0,0l-0.1,0l-0.1,0l-0.1,0l-0.2,0c-0.6,0.1-1.2,0.3-1.8,0.4l-0.2,0l-0.3,0.1l-0.3,0.1
		c-1.8,0.4-3.6,0.5-5.5,0.2l-0.4-0.1l-0.4-0.1l-0.4-0.1c-2.4-0.5-4.6-1.1-7-1.8l-0.3-0.1l-0.6-0.1l-0.3-0.1c-1-0.3-1.9-0.6-2.9-0.9
		l-0.2-0.1l-0.2,0c-0.4-0.1-0.7-0.2-0.8,0.3l0,0.1l0,0.2l0,0.1L159.3,68.6"/>
	<path fill="#A85C28" d="M159.2,64.7L159.2,64.7l0.1-0.2l0.1-0.2l0.1-0.1c0.3-0.5,0.8-0.6,1.3-0.8l0.2-0.1l0.3-0.1
		c1-0.2,2.1-0.1,3.1-0.2l0.8-0.1l0.4,0l0.2,0l0.2,0c1,0,1.9-0.1,2.8,0l0.3,0l0.3,0c1-0.2,2.6-0.2,3.5,0.1l0.3,0.1l0.8,0.3l0.3,0.1
		l0.3,0.1l0.3,0.1c0.8,0.2,2.1,0,3-0.1l0.2,0l0.2-0.1c0.9-0.3,1.8-0.7,2.8-1l0.3-0.1l0.2,0c1.3-0.2,3.5,0.8,4.1,2l0.2,0.3l0.1,0.2
		l0.1,0.2l0.1,0.2l0.2,0.4l0.1,0.2c0,0.2,0.3,0.7,0.1,0.9l-0.1,0.1c-0.5,0.4-1.3,0.6-2,0.8l-0.3,0.1l-0.3,0.1l-0.3,0.1
		c-3.2,1-5.9,1-9.2,1.3l-0.5,0l-0.2,0l-0.3,0l-0.5-0.1c-1.3-0.2-2.5-0.4-3.8-0.6l-0.3-0.1l-0.3-0.1c-1.6-0.3-3.1-1-4.7-1.3l-0.3-0.1
		l-0.3-0.1l-0.3-0.1l-0.3-0.1c-0.8-0.2-1.6-0.4-2.3-0.7l-0.1-0.1l-0.1-0.1c-0.2-0.1-0.5-0.3-0.4-0.6l0-0.1l0-0.1L159.2,64.7
		L159.2,64.7"/>
	<path fill="#A85C28" d="M129.2,51.6l0-0.2l0-0.2l0-0.2l0-0.2l0.1-0.5l0-0.2c0.2-1.7,0.3-1.8-0.4-3.5l-0.1-0.3l0-0.1
		c-0.1-1-0.1-2.6,0.1-3.6l0-0.3l0.1-0.7l0.1-0.6l0.1-0.3c0.4-1.6,1-3.2,1.4-4.8l0.2-0.6c0.5-1.8,0.9-3.6,1.5-5.3l0.1-0.2l0.3-0.8
		l0.1-0.2l0.1-0.2l0.1-0.2l0.1-0.2c0.5-1.3,1.1-3.1,2.1-4.1l0.2-0.2l0.2-0.2c1.9-1.6,3.4-3.1,5.4-4.4l0.5-0.4l0.2-0.2l0.2-0.2
		c1.5-1,3.3-1.7,4.9-2.7l0.4-0.3l0.5-0.3c2-1.2,3.7-1.8,5.8-2.6l0.4-0.2l0.9-0.4l0.4-0.2l0.2-0.1l0.2-0.1l0.4-0.2
		c2-0.9,4-1.7,5.9-2.6l0.7-0.4l0.2-0.1c0.7-0.3,1.3-0.5,2-0.6l0.4-0.1l0.4-0.1c0.9-0.2,1.7-0.4,2.6-0.5l0.4-0.1l0.4-0.1l2.2-0.3
		l0.7-0.1c0.7,0,1.1-0.1,1.8-0.1l0.2,0l0.2,0c0.6,0.1,1.2,0.3,1.7,0.4l0.4,0.1l0.4,0l0.4,0.1c1.9,0.1,4,0.4,5.6,1.5l0.3,0.2l0.3,0.2
		l0.5,0.4l0.2,0.1l0.2,0.1c0.4,0.3,0.9,0.6,1.3,1l0.1,0.1l0.1,0.1c0.4,0.5,1,1.3,1.3,1.8l0.1,0.1l0.1,0.2l0.1,0.2
		c0.5,1.4,0.4,3,0.3,4.5l0,0.1l0,0.1l0.1,0.3l0.1,0.3l0.1,0.2c0.2,0.5,0.4,0.9,0.6,1.3l0.2,0.5l0.1,0.2c0.1,0.3,0.3,0.5,0.3,0.8
		l0,0.1l0,0.1l0,0.1c-0.1,1.6-0.3,2.3-0.9,3.8L188,26l-0.1,0.2l-0.2,0.8l0,0.2l-0.1,0.3l-0.1,0.6c-0.1,0.5-0.2,1.9-1,1.6l-0.1,0
		l-0.1,0c-0.6-0.3-1.1-1.9-1.6-2.4l-0.1-0.1l-0.2-0.1l-0.4-0.2c-0.7-0.4-1.7-0.2-2.4,0.1l-0.1,0.1l-0.1,0.1c-1.1,0.7-1,1-2.5,1
		l-0.3,0l-0.3,0l-0.3-0.1l-0.3,0l-0.6-0.1c-1.2-0.1-2.5-0.3-3.6-0.3l-0.2,0l-0.2,0c-1.7,0.1-3.3-0.3-4.9-0.5l-0.2,0l-0.2,0l-0.2,0
		l-0.2,0c-1.9-0.1-3.3-0.6-5.1-1l-0.3-0.1l-0.3-0.1c-1.8-0.4-3.4-0.1-5.2,0.2l-0.2,0l-0.2,0l-0.4,0.1l-0.4,0.1l-0.4,0.1l-0.2,0
		l-0.2,0.1l-0.2,0.1c-1.4,0.5-2.3,1-3.4,2l-0.2,0.1l-0.2,0.2c-1.8,1.7-3.8,2.8-5.7,4.3l-0.2,0.2l-0.2,0.1l-0.4,0.3
		c-1.7,1.2-2.6,2.5-4.1,3.9l-0.4,0.5c-0.8,0.9-1.6,2.7-2.1,3.9l-0.1,0.2l-0.1,0.2l-0.1,0.4l-0.2,0.6l-0.1,0.5
		c-0.1,0.4-0.2,0.8-0.3,1.3l-0.1,0.8l-0.1,0.8c-0.1,1-0.4,1.9-0.5,2.9l0,0.2l-0.1,0.3l0,0.1c-0.1,0.2-0.1,0.7-0.1,0.9l0,0.2l0,0.2
		c0,0.4,0.1,0.8,0.1,1.1l0,0.2l-0.1,0.2l-0.1,0.2l-0.1,0.1c-0.8,1.1-1.7,0.7-2.8,0.7l-0.2,0l-0.2,0c-0.5-0.2-2.5-0.4-2.5-1.3l0-0.1
		l0-0.2l0-0.1l0-0.1L129.2,51.6"/>
	<path fill="#010101" d="M152.2,47.3l-0.1-0.1l0-0.1l0-0.1c0.2-2.2,4.3-3.9,6.1-4.3l0.3-0.1l0.2,0c0.6-0.2,4.7,0,4.1,1.4l0,0.1
		l0,0.1l-0.1,0.1l-0.1,0.1c-1,1.3-4.8,0.3-6.2,1.2l-0.2,0.1l-0.2,0.2l-0.2,0.2c-0.7,0.5-1.2,1-1.8,1.6l-0.1,0.1l-0.2,0.1l-0.2,0
		l-0.1,0l-0.1,0l-0.1,0l-0.1,0l-0.3-0.1l-0.2-0.1l-0.1-0.1l-0.1-0.1L152.2,47.3L152.2,47.3"/>
</g>
<g>
</g>
<g>
</g>
<g>
</g>
<g>
</g>
<g>
</g>
<g>
</g>
</svg>
