<?xml version="1.0" encoding="utf-8"?>
<!-- Generator: Adobe Illustrator 17.1.0, SVG Export Plug-In . SVG Version: 6.00 Build 0)  -->
<!DOCTYPE svg PUBLIC "-//W3C//DTD SVG 1.1//EN" "http://www.w3.org/Graphics/SVG/1.1/DTD/svg11.dtd">
<svg version="1.1" id="Layer_1" xmlns="http://www.w3.org/2000/svg" xmlns:xlink="http://www.w3.org/1999/xlink" x="0px" y="0px"
	 viewBox="0 0 183 249" enable-background="new 0 0 183 249" xml:space="preserve">
<path d="M49.9,242.2l-0.9-0.1H38.6c-3.1-0.2-6.3-0.2-9.4-0.3l-2.3-0.1l-1.1-0.1c-1.3-0.2-3.2,0.2-3.9-1.2l-0.1-0.2l-0.2-0.3
	l-0.2-0.7c-1.6-7.8-3.4-15.1-4.4-23.1l-0.1-0.5l-0.2-1.1l-0.2-1.2c-1.1-6.1-1.6-12.2-1.8-18.4l0.1-1v-1c-0.4-4.6,1.5-9.3-0.7-13.4
	l-0.2-0.6l-0.2-0.7l-0.3-1.3l-0.5-1.7l-0.1-0.4c-0.7-2.6-0.1-3.8-0.3-6l-0.1-0.5l-0.1-0.6c-0.7-2.4,0.1-4.9,0.5-7.3l0.2-0.5l0.1-0.5
	l0.2-0.8c2-5.9-0.1-12.5,0.2-19v-0.5l0.1-0.5v-0.7l0.1-0.7c0.6-6.9,2.4-13.8,3-20.7l0.1-0.9l0.2-0.9l0.2-1l0.3-1.6v-0.7l0.1-0.4
	v-0.8l0.1-0.4l0.2-0.3l0.2-0.3l0.4-0.5l0.2-0.6l0.1-0.2c0.2-1.3-0.4-4.2-0.3-5.6l0.1-0.5v-0.4l0.1-0.5v-0.5l-0.2-1.1v-1.6l0.1-0.4
	c0.7-2.3,1.4-4.7,2.1-7l0.2-0.6l0.2-0.6c0.5-2.8,0.9-2.6-0.7-5.1L20,83.8l-0.2-0.3L19.6,83l-0.2-0.5l-0.2-0.7l-0.3-0.7l-0.2-0.7
	l-0.3-0.7L18,79.1l-0.2-0.5l-0.2-0.5l-0.1-0.4l-0.1-0.3v-0.3l0.2-0.7l0.1-0.4c0.6-2,2.9-5.4,4.3-7l0.2-0.3l0.7-0.7l0.8-1.1l0.5-0.7
	c1.3-2,1.7-3,3.5-4.6l0.3-0.4l0.8-0.7l0.4-0.2l0.5-0.2l0.4-0.2l0.4-0.2h0.2l0.2,0.1l0.2,0.1l0.1,0.2l0.2,0.2h0.1l0.1-0.1l0.2-0.1
	l0.1-0.2l0.2-0.5V59l0.1-0.7l0.1-0.3l0.2-0.8l0.2-0.4l0.2-0.6l0.7-1.1l0.2-0.5l0.2-0.3l0.2-0.4c1.1-1.8,1.8-4.1,2.2-6.1l0.2-1.1
	l0.5-2l0.3-0.8l0.2-0.7l0.2-0.7l0.1-0.7c0.4-1.6,1.4-4.6,0.9-6.1l-0.3-1.1c-0.6-2,0.5-5.2,1.1-7.1l0.2-0.9l0.2-0.8l0.2-0.7l0.3-0.7
	l0.3-0.6l0.4-0.6l0.6-0.5l0.5-0.5l0.4-0.5l1.1-1.1l0.2-0.3l0.1-0.3l0.1-0.2l0.1-0.4c0.3-1.6-1.3-2.1-1.5-3.4v-0.4l-0.1-0.7v-0.7
	l0.2-0.6l0.2-0.7c1.7-3.9,4.9-7.1,9.5-6.7l0.4,0.1l0.4,0.2l0.4,0.2c1.7,1,0.5,1.8,2.8,0.9h0.3L57,7.5c1.2,0,2.8,0,3.8,0.8l0.2,0.2
	l0.2,0.2L61.6,9l0.2,0.1h0.5L62.5,9l0.3-0.2l0.2-0.1h0.7l0.3,0.1c1.1,0,1.7,1,2.3,1.8l0.2,0.3l0.1,0.3c0.5,1.7,1.3,1.8,2.9,1.7
	l0.5,0.1h0.5l1.1,0.3c2.7,0.4,3,2,3.4,4.3l-0.1,0.5L75,18.8l-0.1,0.4l-0.2,0.4l-0.2,0.2l-0.1,0.2l-0.1,0.3V21l-0.1,0.2l-0.1,0.7
	l-0.1,0.7l-0.1,0.8L74,24.4v0.7l-0.1,0.7v0.4c-0.7,6.3,0.7,10.1-4.7,14.5L69,41l-0.2,0.2c-6.5,5.5-6.1,0.6-8.3,10.6l-0.2,0.7
	l-0.2,0.9l-0.5,2l-0.1,0.4l-0.2,1c0.1,2.2-1.2,4.1-1.6,6.1l-0.2,1c-0.2,1.3-0.4,3.1,0.6,4h0.6l0.2-0.1H59l0.1,0.1v0.3l0.1,0.2v1.8
	l0.1,0.5v3.4l0.1,0.7c0,2.3-0.3,4.4-0.4,6.8l-0.3,1.1l-0.2,0.7L58.3,84L58,84.8l-0.2,0.8c-0.5,0.9-0.3,2.1-1.5,2.3L56,88.3
	c-0.7,1.5-2,0.8-2.8,1.8l-0.2,0.3l-0.2,0.5l-0.1,0.4l-0.1,0.5c-0.6,1.8-0.7,3.7-1.1,5.6l-0.1,0.4v0.4c-0.6,2.8-1,3.4-0.6,6.4v0.3
	l-0.2,0.8l-0.5,1.5l-0.2,0.4L50,108l-0.3,0.7l-0.1,0.2l-0.2,0.2l-0.2,0.4l-0.1,0.5v1l0.1,0.1l0.2,0.2l0.4,0.2l0.2,0.2l0.2,0.2
	c0.9,1.7,0.9,3.6,1.3,5.5l0.1,0.2l0.2,0.4v0.2l0.1,0.2c0.6,2.9,0.8,6.9,0.9,9.9l-0.1,1.1l-0.2,1.1c0.1,3.9-0.4,4.8-1.1,8.7l-0.2,0.9
	l-0.1,0.8v1.3l-0.1,0.5c0.7,4.2-4.7,8.8-0.8,12.8l0.2,0.2l0.2,0.1l0.2,0.1c2.7,0.1,5.2,1.2,7.7,2l0.7,0.2l0.7,0.2
	c2.2,0.8,4.3,2,6.6,2.3l0.7,0.1l0.6,0.1h0.6l0.4,0.1l0.4,0.2l0.3,0.3l0.3,0.4l0.3,0.6c1.1,1.7,1.2,4.8,2.4,6.9l0.3,0.6l0.3,0.7
	c1.2,2.5,1,2.9,3.2,4.7l0.5,0.5l0.5,0.4c2.4,2,7.2,4.5,8.7,7.3l0.2,0.3l0.1,0.3l0.3,0.7l0.2,0.1c1,0.6,2.7,0.5,3.8,0.5h1
	c3,0.1,2.6,0.6,4.3-1.9l0.6-0.8l0.6-0.7l0.5-0.7L98,181c1.4-1.7,3.3-4.3,4.3-6.2l0.2-0.5l0.2-0.5c1.2-2.2,3.2-3.9,3.8-5.9l0.2-0.6
	l0.2-0.2l0.3-0.3l0.3-0.2l0.2,0.1h0.2c16.7,1.3,28.5,15,38.6,27.1l0.4,0.6l0.3,0.5l0.6,1c3.9,5.2,7,14.8,8.7,21l0.1,0.5l0.3,0.9
	l0.5,1.6c1,2.8,1,4.9,1.6,7.5l0.4,0.4c2.2,1,5.8,2.8,7.4,4.5l0.3,0.3l0.2,0.3l0.5,1l0.2,0.8v0.5c0,1-1.2,3.6-2,4.2l-0.2,0.2
	l-0.2,0.1c-1.4,0.1-2.8,0.2-4.2,0.2h-0.7l-0.7,0.1l-1.6,0.1c-8.8,0.3-18.3,0.7-27.1,0.7h-2.9l-2-0.1l-2,0.1
	c-9.9,0.1-19.9,1.3-29.8,1.3l-1.1,0.1h-1.9c-4.7,0.4-9.3,0.6-14,0.5h-2.4l-5,0.2c-4.4,0.1-8.7,0.1-13.2-0.2l-1.1-0.1l-4.3-0.2
	l-1.1-0.1H49.9"/>
<path fill="#F6BE7A" d="M47.4,19.6V19l0.1-0.3l0.2-0.3c1.1-2,3.8-6.2,5.4-7.8l0.3-0.2l0.4-0.2c1.3-0.6,4.7-1.4,4,1.3l-0.2,0.2
	L57.5,12l-0.2,0.4l-0.3,0.4l-0.2,0.3c-0.5,0.6-0.7,1-1.1,1.6l-0.2,0.4l-0.2,0.2l-0.2,0.3L54.7,16l-0.3,0.5v0.3l0.1,0.1h0.1l0.2-0.1
	l0.2-0.1c0.5-0.8,0.7-1,1.5-1.7l0.6-0.6c0.8-1.2,0.9-0.7,1.9-1.8l0.3-0.2l0.2-0.2l0.3-0.1l0.4-0.2l0.3-0.1l0.4-0.1h0.4
	c2.1-0.3,3.5,1.4,2.3,3.3l-0.2,0.2l-0.2,0.2L63,15.9c-0.5,0.7-1.2,1-1.6,1.6l-0.2,0.2l-0.2,0.3l-0.2,0.2l-0.1,0.3v0.2l0.1,0.2
	l0.1,0.1h0.2l0.2-0.1l0.1-0.2l0.2-0.1l0.3-0.4c1.8-1.8,2.8-2.1,5.1-3.1l0.4-0.2h0.4l0.4-0.1c0.7,0,1.6,0,2.1,0.6l0.3,0.2L71,16
	c0.7,0.7,0.8,0.5,1.2,1.5l0.2,0.4l0.1,0.3v0.2l-0.1,0.1v0.1h-0.2l-0.2,0.1h-0.2c-4.5-0.3-3.1-1.4-7.4,2l-0.2,0.3l-0.2,0.4l-0.2,0.5
	c-0.3,1.2-0.5,1.6-0.4,2.9l-0.1,0.2L63.5,25c-0.6,0.5-1.5,1.4-2.3,1.5l-0.4-0.1l-0.2-0.1l-0.2-0.2L60,26.1l-0.5-0.3
	c-0.7-0.6-1-0.8-1.6-1.6l-0.2-0.2l-0.2-0.2l-0.2-0.1h-0.2L57,23.7l-0.3,0.1l-0.2,0.1L56.2,24l-0.2,0.1l-0.2,0.1l-0.2,0.1l-0.3,0.1
	h-0.4c-1-0.2-2-0.4-3-0.6l-0.3-0.2l-0.2-0.2l-0.2-0.2L51,23.1l-0.2-0.3l-0.1-0.2l-0.2-0.3l-0.1-0.2l-0.2-0.7L50.2,21l-0.1-0.2H50
	c-1.2,0.1-1.4,0.4-2.4-1L47.4,19.6"/>
<path fill="#F6BE7A" d="M45.2,16.2l-0.3-0.3l-0.5-1.2l-0.1-0.5v-0.2l0.1-0.2l0.1-0.4l0.7-1.3l0.8-0.8c1.1-0.9,3-2.6,4.3-2.7h0.3
	l0.5,0.2l0.2,0.2L51.4,9l0.2,0.2l0.1,0.2l0.1,0.1v0.2l-0.2,0.2l-0.2,0.3l-0.2,0.4L50.9,11l-0.3,0.5L50,12.3l-0.8,0.8l-0.3,0.4
	l-0.2,0.4l-0.2,0.4l-0.2,0.4l-0.2,0.5l-0.3,0.5l-0.2,0.4L47,16.3l-0.2,0.2l-0.2,0.1h-0.7l-0.2-0.2L45.2,16.2"/>
<path fill="#F6BE7A" d="M33.5,66.5l0.2-0.5l0.1-0.5l0.3-1.3l0.1-0.7c0.3-3.8-0.5-4.1,1.5-7.8l0.2-0.6l0.2-0.5c0.8-3.5,3-6,3.2-8.9
	l0.1-0.7l0.2-0.7l0.2-0.8l0.2-0.8v-0.8l0.1-0.7v-0.7l0.1-0.3l0.1-0.2l0.2-0.5l0.3-0.4l0.2-0.5l0.2-0.3v-0.2l0.2-0.2h0.2l0.2,0.1h0.5
	l0.2-0.2l0.2-0.2v-0.2l-0.1-0.3l-0.3-0.3c-0.4-0.2-0.6-0.6-0.8-1L41,35l-0.2-0.6l-0.2-0.5l-0.1-0.5L40.6,33l-0.1-0.5
	c-0.2-5.2,0.7-9.5,6-4l0.2,0.2l0.3,0.2l0.2,0.2c1.3,0.8,2.4,0.9,3.2,2v0.2l-0.1,0.3V32l-0.1,0.3v1.1l0.2,0.2h0.1l0.2-0.1l0.2-0.2
	l0.2-0.2l0.5-0.7l0.3-0.3l0.4-0.2l0.5-0.2l0.7-0.2l0.7-0.2l0.7-0.2l0.7-0.2l0.8-0.2l0.8-0.2l0.3-0.2l0.2-0.1l0.3-0.1l0.2-0.2
	l0.6-0.4l0.3-0.2l0.2-0.2l0.3-0.1l0.3-0.1l0.5-0.1l0.5-0.1c1.5-0.6,4.9,0.6,5.3-1.2v-0.4L66.1,27L66,26.5c-0.3-2.7,0-3.3,1.1-5.8
	l0.2-0.2l0.2-0.4c1.9-1.5,3.3-1,4.7,0.7l0.1,0.2l0.2,0.3v0.3l0.1,0.3v0.7c-0.1,1.8-0.3,3.2-0.6,5V28l-0.1,0.7l-0.1,0.5
	c-0.3,0.4-0.7,1.7-0.7,2.2v0.3l-0.1,0.7c-0.1,0.8-0.2,2.2-0.5,2.9l-0.2,0.6L69.8,37L69,38c-1.9,1.7-4.2,4.8-6.5,5.5l-1,0.3
	c-2.9,0.8-1.9,0.8-5.6,0.7h-1l0.2,0.1h0.1l0.2,0.1h1.1l0.2,0.1h0.3l0.3,0.1h0.4l0.3,0.1h0.3l0.2,0.1h0.4l0.1,0.1l0.2,0.1l0.1,0.1
	h0.1l0.2,0.2l-0.1,0.1l-0.1,0.2l-0.1,0.1v0.2L59.4,46v0.2l-0.1,0.2v0.2l-0.1,0.2v0.2l-0.1,0.2v0.2L59,47.5l-0.1,0.3l-0.2,0.4
	l-0.1,0.4L58.6,49l-0.2,0.3c-0.3,1.7-0.9,3.3-1.3,5l-0.1,0.5l-0.2,0.5l-0.1,0.3c-1.3,4.1-3,6.6-2.6,11v3.6L54,70.5L54,70.6l-0.1,0.2
	l-0.4,0.4L53,71.6l-1,0.7l-0.5,0.2l-0.4,0.2l-0.4,0.2l-0.6,0.2c-2.8,1.1-4.9,1.1-7.8,1.3l-0.5-0.1L41,74.2h-0.5
	c-2.3-0.2-4-0.5-5.4-2.5l-0.6-0.6c-1.1-0.5-2.6-2.7-1.4-3.8l0.2-0.3l0.1-0.2L33.5,66.5"/>
<path fill="#E32228" d="M35.4,232.1l-0.2-0.6l-0.2-0.7l-0.3-0.8c-2.1-5-3.6-9.6-5.8-14.6l-0.4-1.1l-0.6-1.1
	c-2.2-4.5-4.4-8.9-5.5-13.8l-0.2-1l-0.1-0.4l-0.1-0.3l-0.2-0.6c-0.7-1.7-1-3.3-1.8-5.1l-0.2-1.5v-0.5l-0.1-0.4l-0.2-0.4l-0.2-0.3
	l-0.1-0.5l-0.2-0.5l-0.2-0.4l-0.2-0.2l-0.2-0.2l-0.2-0.2h-0.5c-0.7,0.4-1.1,2.2-1.1,2.9v0.5l0.1,0.5c0.2,1.7,0.2,3.3,0.4,5.1v0.6
	l0.1,0.5v0.5l0.1,0.4v1.9c0.2,5.2,1.9,11.6,2.5,17l0.2,0.7l0.1,0.7c0.7,5.8,2.1,10.8,2.9,16.6l0.2,0.9l0.1,0.4l0.2,0.7v0.3l0.1,0.5
	l0.1,0.4l0.1,0.2v0.2l0.1,0.2v0.2l0.2,0.3l0.2,0.2h0.1l0.2,0.1c1.1,0.2,2.7,0.1,3.8,0l1.1-0.1l1.1-0.1h0.5l0.5-0.1
	c1.6-0.3,2.7-0.5,4.4-0.4h0.3l0.2-0.1l0.2-0.2l0.1-0.2l0.1-0.3v-0.8l-0.1-0.5l-0.2-0.6l-0.1-0.5l-0.2-0.4l-0.1-0.3l-0.2-0.7
	l-0.2-0.4l-0.1-0.4L35.4,232.1"/>
<path fill="#1C6899" d="M40.1,233.9l-0.2-0.4l-0.2-0.3l-0.3-0.9l-0.4-0.9l-0.3-1c-2.8-7-5.7-13.9-8.6-20.9l-0.3-0.7l-0.7-1.1
	c-1.5-2.6-1.9-5.7-3.4-8.4l-0.4-1l-0.5-1c-1.1-2.3-2.3-4.1-2.8-6.6l-0.1-0.6l-0.2-0.7l-0.1-0.2v-0.2l-0.1-0.2v-0.3l0.1-0.1h0.4
	l0.5,0.2l0.5,0.2l0.7,0.2l0.7,0.3l0.7,0.3l0.8,0.2c2.8,1.2,4.9,1.2,7.9,0.8l0.6-0.1H35l0.4-0.1c5.5-0.7,9.9-4.7,11.4-10l0.3-1.1
	l0.3-1.1l0.2-0.5l0.1-0.4l0.2-0.7l0.1-0.4c0.6-1.2,2.4-1.5,3.5-0.7l0.4,0.2l0.3,0.2c1.4,1,2.8,2,4,3.3l0.3,0.2L57,180l0.9,0.7l1,0.7
	c1.9,1.6,5,2,7.4,2.9l0.5,0.2l0.7,0.2c3,0.9,6.2,1.3,9.3,1.8l0.7,0.1l0.7,0.1l0.7,0.1l0.6,0.1H80l0.4,0.1c1.9,0.1,3.1-0.2,4.8-0.8
	h0.3l0.2,0.1c1.8,0.3,3.3,0.4,5.1,0.6h1.1l0.9,0.1h1c1.7,0.2,2.9-0.4,3.9-0.2l0.4,0.2h0.5c1.7,0,3.4,0.2,5.1,0.2h3.5l0.3-0.1h0.8
	c3.9,0.6,8.1,1,11.9-0.3l0.6-0.2l0.5-0.1l0.3-0.1c1.1-0.2,2.6-1,3.4,0.1l0.2,0.2l0.2,0.2c1,1.7,1.8,3.8,2.9,5.4l0.2,0.4l0.2,0.5
	l0.3,0.5l0.2,0.6l0.3,0.7c3.2,6.2,3.1,10.6,4.7,17.1l0.1,0.4v0.5c0.5,6,0.8,11.9,1.6,17.8l0.1,0.7l0.3,2.8l0.1,0.7v0.7l0.1,0.5v0.6
	c0.1,1.1,0,2.2-1.1,2.6l-0.3,0.1l-0.4,0.1c-3.2,0.4-7.4,0-10.8-0.2l-2.1-0.1h-2c-12.2,0.7-23.8,0.5-36,0.7h-2.9
	c-7.1,0-14.2,0.3-21.3,0.2h-1l-0.5,0.1c-3.9-0.1-7.8,0.5-11.7-0.1l-0.7-0.1l-0.6-0.1c-2.7-0.6-2.5-0.7-3.5-3.1l-0.3-0.7l-0.2-0.3
	l-0.5-1l-0.1-0.2L40.1,233.9"/>
<path fill="#EDEDCE" d="M138.6,233.6l0.1-0.5v-0.5l0.1-0.7v-0.7c0.2-7,0.2-10.3-0.9-17.3l-0.1-0.4l-0.1-0.6
	c-1.5-7.1-2.6-14.3-4.9-21.1l-0.3-0.7l-0.2-0.7l-0.2-0.7l-1-2.3l-0.4-1.1l-0.5-1l-0.2-0.5l-0.3-0.8l-0.2-0.3l-0.1-0.3l-0.1-0.2v-0.2
	l0.2-0.5l0.3-0.2l0.2-0.1h0.3l0.2,0.1l0.4,0.2l0.5,0.2l0.6,0.2l0.7,0.3l1.5,0.7l0.6,0.4l0.4,0.5l0.5,0.5c4.7,4.7,7.1,8.4,9.7,14.6
	l0.5,0.7l0.5,0.7l0.3,0.7l0.4,0.8l0.3,0.8l0.4,0.8l0.4,0.7c1.1,1.7,1,3.3,2.3,5.4l0.2,0.6l0.2,0.7c1,2.1,1.8,4.1,2.6,6.3l0.2,0.6
	l0.2,0.7l0.2,0.7l0.2,0.3c0.9,2.1,1.5,4.1,2.4,6.2l0.2,0.4l0.1,0.4c0.7,1.9-0.3,2.3,1.4,2.5l0.4,0.1l0.5,0.1l0.4,0.1l0.5,0.2
	l0.5,0.2l0.4,0.2c1,0.8,2.4,2.1,3.3,3.1l0.2,0.3l0.1,0.2c0.8,1.2-1.7,0.9-2.2,1l-0.7,0.1l-0.9,0.2l-0.5,0.1c-5,1.2-11.2,2-16.2,0.5
	l-0.2-0.1l-0.2-0.1l-0.1-0.1l-0.1-0.2l0.2-0.3c0.8-1,2.3-1.6,3.4-2.3l0.7-0.4l0.5-0.3c1.1-0.7,2.2-1.4,3.4-2l0.2-0.1l0.1-0.2
	l-0.1-0.1v-0.1l-0.1-0.2c-0.7-0.4-2-0.7-2.7-0.7h-0.3l-0.3,0.1c-1.7,0.3-3.2,0.9-4.7,1.8l-0.3,0.2l-0.7,0.6l-0.7,0.5
	c-0.9,0.8-1.3,1.9-2.1,2.8l-0.2,0.2l-0.2,0.1l-0.2,0.2l-0.2,0.1h-0.2l-0.2-0.1l-0.1-0.2l-0.1-0.2l-0.1-0.2V233.6"/>
<path fill="#E32228" d="M98.9,183.6v-0.2l0.2-0.7c3.4-4.8,6.4-8.7,9.5-13.7l0.2-0.2l0.3-0.2c1.9,0.2,3.9,0.8,5.7,1.4l0.5,0.2l1,0.2
	c2.8,1,3.8,1.5,6.2,3l0.5,0.3l1.1,0.7l0.4,0.3l0.8,0.5l0.3,0.2l0.4,0.3l0.4,0.5l0.4,0.4l0.2,0.4l0.2,0.3l0.2,0.2l0.1,0.4v0.9l-0.5,1
	l-0.2,0.4c-1.1,1.4-5,2.4-6.7,2.8l-0.7,0.2l-0.8,0.2l-0.9,0.2l-0.8,0.2c-3.7,0.6-6.7,1.6-10.5,1.1h-0.7c-2.9,0.2-3.5-0.4-6-0.7
	l-0.3-0.2l-0.3-0.1l-0.2-0.2V183.6"/>
<path fill="#E32228" d="M49.6,170.4v-0.2l0.1-0.2c1.1-3.9-1.1-4.2-0.5-7.8l-0.1-0.2l-0.2-0.5l-0.2-0.6c-0.4-0.8-0.6-1.6-0.9-2.5
	l-0.1-0.2l-0.2-0.3l-0.2-0.5v-0.3l-0.1-0.2v-0.2l0.1-0.2l0.2-0.2l0.2-0.1l0.2-0.1l0.2,0.1h0.2l0.3,0.2c2.2,1.3,3,0.3,5.8,2h0.2
	l0.2,0.1l0.2,0.2c1.1,0.4,2.2,0.6,3.2,1.2l0.5,0.2l0.5,0.3c0.8,0.6,1.7,1.1,2.7,1.5l0.2,0.1l0.3,0.2l0.5,0.2l0.6,0.1l0.5,0.2
	c1,0.2,2.2,0.4,3.1,0.7l0.2,0.1l0.2,0.1l0.2,0.1l0.2,0.2l0.2,0.2l0.1,0.3l0.1,0.4l0.2,0.4l0.1,0.4v0.4l0.2,0.3l0.2,0.7
	c0.5,1,0.8,1.8,1.2,2.8l0.2,0.4l0.2,0.3c0.3,0.9,0.9,2,1.6,2.6l0.3,0.5l0.3,0.3l0.3,0.4l0.2,0.2l0.2,0.2l0.2,0.2l0.2,0.2
	c2.6,2.9,5.5,4.3,8.4,6.6l0.7,0.7l0.3,0.2l0.3,0.4l0.1,0.2L84,183v0.5l-0.1,0.2l-0.2,0.2l-0.2,0.2c-1.4,0.3-2.8,0.2-4.2,0.2
	l-1.6-0.2l-0.7-0.1l-0.7-0.1h-0.7c-3.1-0.5-9.3-1.4-11.9-2.7l-1.2-0.6l-1.1-0.7c-4.5-2.6-7.7-5.4-11.2-9l-0.5-0.5v-0.2L49.6,170.4"
	/>
<path fill="#EDEDCE" d="M41.5,165.6h0.2l0.2-0.1l0.2-0.2c2.1-2.2,1.1-5.1,3.5-5.2l0.3,0.1l0.2,0.1c1.3,1.1,1.2,5.7,0.9,7.2l-0.2,1.7
	l-0.1,1.3c-0.2,4.6-1.4,9.1-3.5,13.2l-0.2,0.5l-0.2,0.3c-1.6,2.5-5.9,4.5-8.7,4.7h-0.8l-0.7-0.1l-0.7-0.1l-0.7-0.1l-0.4-0.1
	c-7.5-0.9-14.7-6.9-15.7-14.6l-0.1-0.5l-0.1-0.4l-0.1-0.8v-0.7c0.1-1.2,0.5-2.6,0.7-3.8l0.1-0.9l0.2-0.9c0.2-1.6-0.1-2.6,0.3-4.3
	l0.3-0.8l0.5-0.7l0.4-0.7c0.8-0.9,0.9-2.3,1.3-3.4l0.2-0.7l0.2-0.6c0.5-1.5,1-2.3,1.7-3.7l0.2-0.6l0.1-0.6v-0.3l-0.1-0.2h-0.1
	l-0.1-0.1h-0.2l-0.2,0.1c-0.8,0.5-1.9,1.2-2.9,0.8l-0.2-0.2l-0.2-0.2c-0.9-1.4-0.1-3.3-0.4-4.9l0.1-1.5v-1.8
	c0.1-1.9,0.3-3.1,0.2-5.1l-0.1-0.7v-0.7c0.8-2.1,0.3-4.7,0.8-7l0.2-0.8l0.2-0.8l0.2-0.7l0.1-0.7v-0.7c0.2-2.1,0.6-4.2,0.6-6.3
	l0.1-0.7l0.1-0.7c0.4-1.5,0.3-3.1,0.6-4.6l0.2-0.4l0.3-0.4l0.3-0.3l0.2-0.4L21,111l0.7-0.7l0.2-0.3l0.2-0.1l0.1-0.2v-0.3l-0.1-0.2
	v-0.2L22,109v-0.1l-0.1-0.2v-0.2l-0.1-0.2v-0.2l-0.1-0.1h-0.1l-0.2,0.2l-0.2,0.1h-0.1v-0.3l0.1-0.2c0.2-4.5-0.8-8.1,0.4-13.1
	l0.2-0.4l0.1-0.5l0.2-0.8l0.1-0.5l0.1-0.6l0.2-0.5l0.2-0.6l0.2-0.4l0.1-0.2v-0.1l0.2-0.2l0.2-0.1h0.6L24,90h0.2l0.2-0.2l0.3-0.7
	l0.2-0.4l0.1-0.4l0.2-0.4l0.1-0.3v-0.6l-0.3-0.5l-0.2-0.2c-0.8-1.5-1.7-3.2-2.5-4.7L22,81.2l-0.2-0.4c-0.4-1.4-1.3-2.6-1.2-4.1
	l0.1-0.3l0.2-0.4l0.2-0.6l0.3-0.7c1.4-2.7,3-4.4,4.6-7l0.3-0.5l0.7-1.2l0.2-0.5l0.3-0.3l0.2-0.3l0.2-0.7l0.2-0.3l0.1-0.2l0.2-0.2
	l0.2-0.1l0.2-0.1l0.2-0.1h0.2l0.2,0.1v0.2l0.1,0.2c0.7,5.4,4.3,10.4,9.2,12.8l0.7,0.2l0.7,0.2l0.6,0.2c2.7,1,5.6,0.3,8.3-0.4
	l0.4-0.2l0.3-0.1l0.8-0.3c0.7-0.2,1.3-0.7,2-0.9l0.4-0.3l1-0.7l0.3-0.4l0.7-0.7l0.2-0.1h0.3l0.1,0.2l0.2,0.2l0.2,1.2v1.6l0.1,0.3
	l0.2,0.3l0.1,0.4v0.7l-0.1,0.3v0.2l-0.1,0.2L56,79.2l-0.1,0.4l-0.1,0.5v0.6l-0.1,0.6v0.5l-0.2,0.8v0.9l-0.2,0.3l-0.5,0.5l-0.3,0.2
	l-0.3,0.2L54,84.8l-0.3,0.2l-0.3,0.2l-0.7,0.3l-0.4,0.1l-1,0.5l-0.2,0.2l-0.3,0.1l-0.2,0.1l-0.3,0.1h-0.8L49,86.6h-0.3l-0.3,0.1
	h-0.4l-0.2,0.1l-0.2,0.1h-0.1v0.2l0.1,0.1l0.2,0.1c1,0.6,1.5,0.9,2.5,1.7l0.2,0.2l0.2,0.2c0.7,0.9,0.1,1.7,0.1,2.5l-0.2,0.6
	l-0.2,0.5c-0.9,3.1-1.3,5.6-1.5,8.8v0.5l-0.1,0.2v0.3c-1.2,3.6-0.8,5.8-2.5,9l-0.2,0.2l-0.1,0.2l-0.2,0.6c-0.5,1.2-1,2.5-1.6,3.7
	l-0.2,0.2l-0.2,0.3l-0.2,0.4l-0.2,0.3l-0.2,0.2l-0.3,0.7l-0.2,0.4l-0.1,0.3l-0.1,0.4l-0.2,0.3l-0.1,0.3v0.1l0.1,0.1l0.2,0.1l0.2-0.1
	l0.2-0.2l0.2-0.2l0.2-0.2c1.3-1.1,1.1-1,2-2.4l0.3-0.3c0.3-0.6,1.4-2,2.2-1.4l0.2,0.2l0.3,0.3l0.1,0.2c0.4,2.2-0.7,1,0.2,4.2
	l0.2,0.8v0.4l0.1,0.3l0.2,0.8v0.3l0.1,0.4v0.2c0,0.9,0.1,1.5,0.2,2.4l0.1,0.7v1.7l-0.1,0.5v0.6l0.1,0.6c-0.2,2.2-0.7,5.4-1.1,7.6
	l-0.1,0.4l-0.1,0.3c-1,3.5-0.4,6-1.6,9.4l-0.2,0.9l-0.3,0.9l-0.2,0.8l-0.2,0.4c-0.4,2-1.3,2.7-1.7,4.9l-0.2,0.8l-0.2,0.7l-0.2,0.5
	l-0.2,0.6l-0.2,0.4l-0.2,0.4l-0.2,0.3l-0.1,0.3c-0.2,1.1-0.3,1.9-0.6,3l-0.2,0.7l-0.2,0.6l-0.2,0.7V165.6"/>
<g>
	<path d="M68.9,164.4l0-0.1l-0.1-0.2l0-0.1l0-0.1l0-0.1c-0.4-0.7-0.9-1.2,0.3-1.6l0,0l0.1,0c1.3-0.6,0.3-2.7,0.2-3.7l-0.1-0.6l0-0.2
		c-0.1-1.8,0-3.8-0.1-5.6l0-0.1l0-0.1l0-0.2c-0.1-0.8-0.5-1.4-0.5-2.2l0-0.1l0-0.1c-0.1-0.8-0.1-1.6-0.1-2.4l0-0.1l0-0.1l0-0.1
		l0-0.1l0-0.1l0-0.2l0-0.2c0.1-0.5,0.1-0.9-0.3-1.3l-0.1-0.1l-0.1-0.1c-0.9-0.8-1.7-1.2-2.3-2.4l0-0.1l-0.1-0.2l-0.1-0.3l-0.1-0.3
		c-0.3-0.8-0.4-1.5-0.5-2.3l0-0.2l0-0.3c-0.1-0.7,0-1.1-0.4-1.8l-0.1-0.2l-0.1-0.2L64,136l-0.1-0.2l-0.1-0.2l-0.1-0.1
		c-0.3-0.4-0.2-0.7-0.4-1.2l-0.1-0.2l-0.1-0.2c-0.2-0.6-0.1-1.2,0-1.8l0-0.1l0-0.2l0-0.2c0.2-0.6,0.3-1.3,0.5-1.9l0.1-0.3l0.1-0.2
		c0.2-0.6,0.5-1,0.7-1.5l0-0.1l0-0.1l0-0.1l0-0.1l0-0.1l0-0.1l0-0.1l0-0.1l0-0.1l0-0.2c-0.3-1-0.5-1.3-0.5-2.4l0-1l0-0.5l0-0.5
		l0-0.2l0-0.2l0-0.2l0-0.2c-0.1-0.4-0.2-0.5-0.4-0.8l-0.1-0.2l0-0.2l0-0.2l0-0.2l0-0.2c0-0.7,0.5-1,0.6-1.6l0-0.1l0-0.1
		c0-0.5-0.3-1-0.4-1.5l0-0.1l0-0.1l0-0.1l0-0.1l0-0.1l0-0.1c0.3-1.2,0.6-2.4,1-3.5L65,112l0.1-0.3c0.4-0.9,0.6-1.7,0.9-2.6l0.2-0.5
		c0.7-1.6,1.3-3.4,2.4-4.7l0.1-0.1l0.1-0.1l0.1-0.1l0.3-0.3l0.3-0.3c1.5-2.1,3.3-3.9,5.4-5.4l0.1-0.1l0.1-0.1l0.1-0.1
		c1-0.7,1.9-1.4,3-2l0.2-0.1l0.2-0.1c1.7-0.8,3.3-1.7,5-2.5l0.4-0.2l0.8-0.4l0.4-0.2l0.2-0.1l0.2-0.1l0.2-0.1c1-0.5,1.9-0.8,3-1.1
		l0.3-0.1l0.2-0.1c0.9-0.3,1.8-0.6,2.6-0.9l0.5-0.2l0.5-0.2l0.3-0.1c2.8-0.8,5.4-1.4,8.4-1l0.3,0l0.2,0l0.2,0l0.3,0l0.3,0l0.3,0
		l0.3,0l0.3,0l0.6,0l0.3,0l0.3,0c0.8,0,1.3,0.4,2,0.8l0.1,0.1l0.1,0.1c0.7,0.4,1.6,0.6,2.3,1.1l0.1,0.1l0.4,0.4
		c1.3,1.2,2.5,2.6,3.4,4.2l0.1,0.2l0.1,0.1l0.1,0.2l0.1,0.2c0.9,1.5,1.2,4,1.3,5.7l0,0.4l0,0.7l0,0.3c0,0.8-0.1,1.6-0.2,2.4l0,0.2
		l0,0.2c-0.2,1-0.4,2.6-0.8,3.6l0,0.1l-0.1,0.2l-0.1,0.2l-0.1,0.2l-0.1,0.1l-0.1,0.1c-0.9,2.1-1.8,1.3-0.8,4l0.1,0.2l0.1,0.3l0,0.1
		c0.2,0.7,0.3,1.7,0.3,2.4l0,0.4l0,0.4c0.2,1.4,0.1,2.2,0,3.6l0,0.2l0,0.2l0,0.2l0,0.2l0,0.2l0,0.2c0,0.4-0.3,1-0.1,1.4l0.1,0.2
		c0.6,0.8,1,1.5,1.3,2.4l0.2,0.4l0.1,0.2l0.1,0.2l0.1,0.2c0.3,1.1,0.5,2.2,0.7,3.3l0,0.2l0.1,0.3c0.1,0.7,0.2,1.4,0.2,2.1l0,0.3
		l0,0.3l-0.1,0.6l-0.1,0.7l0,0.3l-0.1,0.9l-0.2,1.1c-0.2,1.5-0.5,3-0.9,4.5l0,0.2l0,0.2c-0.2,0.8-0.2,1.7-0.2,2.6l0,0.3l0,0.6l0,0.1
		c0,0.9,0,1.4-0.2,2.4l0,0.1l0,0.1c-0.2,0.9-0.1,1.9-0.1,2.8l0,0.2l0,0.2l0,0.2l-0.1,0.4l-0.1,0.4c-0.7,3.2-1.7,3.2-3.6,5.7
		l-0.1,0.1l-0.2,0.2c-0.4,0.5-0.9,0.8-1.5,1.2l-0.1,0.1l-0.1,0.1c-0.4,0.2-0.4,0.5-0.5,0.9l-0.1,0.2l0,0.2l0,0.1l-0.1,0.3l0,0.2
		c-0.2,1-0.5,1.9-0.8,2.9l0,0.2l0,0.2c-0.1,0.4-0.3,1.1,0.2,1.3l0.1,0l0.1,0l0.5,0.1c0.7,0.1,0.7-0.1,1.3,0.5l0,0.1
		c0.2,0.2,0,0.6-0.2,0.8l-0.1,0.2l-0.1,0.1l-0.1,0.1l-0.1,0.1l-0.1,0.1c-0.6,0.4-0.6,0.6-1,1.2l-0.1,0.2l-0.1,0.2
		c-0.6,1.1-1.3,2.3-2,3.3l-0.1,0.1l-0.1,0.2l-0.2,0.3l-0.2,0.3c-0.8,1.2-1.7,2.6-2.6,3.7l-0.2,0.3L101,179c-0.8,1-1.7,2.1-2.3,3.2
		l-0.1,0.2l-0.1,0.2l-0.1,0.2l0,0.1l0,0.1l0,0l0,0l0,0.2l0,0.2c-0.4,1.6-1,2.8-2.8,2.9l-0.2,0l-0.5,0c-2,0-3.9-0.2-5.9-0.3l-0.3,0
		l-0.3,0c-1.4-0.1-3-0.1-4.2-1l-0.2-0.1l-0.2-0.2l-0.2-0.2l0.1-0.1l0.1-0.1l0.1-0.1c0.8-1.3,0.5-2.4-0.8-3.2l-0.1-0.1l-0.1-0.1
		c-1.9-1.2-3.7-2.3-5.4-3.8l-0.2-0.1l-0.2-0.1l-0.2-0.1l-0.1-0.1l-0.2-0.1c-1-0.7-1.4-1.2-2.2-2.1l-0.3-0.4
		c-0.6-0.7-1.4-1.3-1.9-2.1l-0.2-0.2l-0.2-0.3l-0.2-0.3l-0.1-0.3c-0.7-1.4-1.2-2.9-1.8-4.3l-0.1-0.1l0-0.1
		C69.1,165.7,69,165.1,68.9,164.4L68.9,164.4l0-0.1l0-0.1"/>
	<path fill="#F1BB7B" d="M110,110.6L110,110.6l-0.1,0l-0.1,0l-0.1,0l-0.2,0l-0.2,0l-0.2,0c-1.8,0.2-3.7,0.6-5.3,1.5l-0.1,0l-0.1,0
		c-0.8,0.5-1.2,1.2-0.9,2.1l0,0.1l0.1,0.1l0.1,0.3c0.3,0.6,1.1,1.3,1.9,1l0.1-0.1l0.3-0.1c1.1-0.5,2.8-1,4-0.9l0.4,0l0.2,0l0.2,0
		l0.2,0l0.1,0c0.7,0.1,1.2,0.5,1.3,1.2l0.1,0.3c0.2,1.4,0,2.6,0.1,4l0,0.2l0,0.2l0,0.2l0,0.2l0,0.2c-0.1,0.5-0.2,1-0.3,1.4l-0.1,0.3
		c-0.1,0.4-0.1,0.4,0,0.7l0,0.1l0,0.1l0.1,0.1c0.8,1.5,1.3,2.8,1.9,4.3l0.1,0.3l0.1,0.3l0.3,1.1l0.1,0.6c0.8,2.9-0.1,5.9-0.6,8.8
		l0,0.2l0,0.2c-0.1,1.4-0.6,2.8-0.9,4.2l0,0.2l0,0.2l0,0.1c0,0.5-0.1,1-0.1,1.5l0,0.2l0,0.1c0,0.4,0.2,0.7,0.3,1l0,0.1l0,0.1l0,0.1
		l0,0.2l0,0.2l0,0.2l0,0.2l-0.1,0.4c-0.1,0.4-0.2,0.6-0.1,1.1l0.1,0.1l0.1,0.3c0.1,0.3,0.2,0.9,0.1,1.2l0,0.2l0,0.1l0,0.1
		c-0.3,0.9-0.6,2.1-1.2,2.9l-0.1,0.1l-0.1,0.1l0,0.1l-0.1,0.1c-0.7,0.6-1.2,1.1-1.9,1.8l-0.3,0.2l-0.3,0.2l-0.3,0.2
		c-0.7,0.5-1.6,0.9-2.3,1.3l-0.3,0.2l-0.3,0.1c-0.5,0.3-1.1,0.4-1.6,0.6l-0.2,0.1l-0.2,0.1l-0.6,0.3l-0.2,0.1l-0.2,0.1l-0.2,0.1
		l-0.2,0.1l-0.4,0.1l-0.4,0.1c-0.9,0.2-1.9,0.6-2.8,0.4l-0.1,0l-0.3-0.1c-1.4-0.2-3-0.9-4.3-1.5l-0.3-0.1l-0.3-0.1l-0.3-0.2
		l-0.3-0.1c-1.6-1-2.8-1.9-4.3-3.1l-0.1-0.1l-0.1-0.1c-0.7-0.5-1.5,0.1-1.7,0.8l-0.1,0.2l0,0.1l0,0.1l0,0.1l0,0l0,0
		c0,0.2,0.2,0.3,0.3,0.4l0.1,0.1l0.2,0.1c0.5,0.3,0.8,0.7,1.4,1l0.2,0.1l0.3,0.2l0.3,0.2c1.7,1.1,3,1.7,4.9,2.4l0.2,0.1l0.2,0.1
		l0.2,0.1l0.2,0.1c1.4,0.5,3,0.9,4.5,0.9l0.1,0l0.1,0c1.6-0.1,3.1-0.8,4.7-1.2l0.2-0.1l0.2-0.1l0.1,0l0.1-0.1l0.2-0.1l0.1-0.1
		l0.1-0.1c0.4-0.2,1-0.2,1,0.3l0,0.1l0,0.1c-0.2,0.8-0.4,1.6-0.6,2.4l-0.1,0.5l-0.1,0.2c-0.3,0.8-0.5,1.7-0.7,2.5l0,0.1l0,0.1
		c-0.2,0.9-0.5,2-0.9,2.8l-0.1,0.1l-0.1,0.1l-0.1,0.1l-0.4,0.6l-0.1,0.1c-0.9,1.3-1.9,2.2-2.5,3.8l-0.1,0.2l-0.1,0.2
		c-0.8,1.2-1.5,2.1-2.3,3.4l-0.2,0.3l-0.1,0.1l-0.1,0.1c-1.3,1.6-2.6,3.2-3.8,4.9l-0.2,0.3c-0.3,0.7-1.1,0.3-1.6,0.3l-0.2,0l-0.2,0
		l-0.2,0l-0.2,0l-0.1,0l-0.1,0l-0.3,0l-0.3,0l-0.1,0l-0.2,0l-0.3,0l-0.3,0l-0.1,0c-0.4,0-0.7,0-1.1,0l-0.5,0l-0.2,0
		c-0.2,0-0.4,0-0.6-0.1l-0.1,0l-0.1-0.1l0,0c-0.6-1.2-0.6-1.6-1.7-2.5l-0.2-0.2l-0.2-0.2l-0.2-0.2l-0.2-0.2c-1.1-0.9-2-1.6-3.2-2.4
		l-0.6-0.4l-0.3-0.2l-0.3-0.2c-0.7-0.4-1.2-1-1.8-1.5l-0.1-0.1l-0.1-0.1c-0.4-0.3-0.9-0.7-1.3-1l-0.2-0.2l-0.2-0.2l-0.2-0.2L76,174
		l-0.2-0.3l-0.2-0.2l-0.2-0.2c-0.8-1.1-1.3-2.8-1.8-4.1l-0.1-0.2l-0.1-0.2c-0.7-1.8-1.1-3.4-1.4-5.3l-0.1-0.4l-0.1-0.4l-0.1-0.4
		l-0.1-0.3c-0.5-1.9-0.4-3.8-0.4-5.7l0-0.5l0-0.5c-0.1-2.1-0.9-4.1-1-6.3l0-0.3l0-0.3l0-0.3l0-0.3l0-0.3l0-0.3l0-0.3l0-0.2
		c0-0.5-0.1-1.2,0.6-1.3l0.2,0l0.2,0c1-0.1,1.5,0.6,1.7-0.7l0-0.1l0-0.1l0-0.2c0-0.8-0.1-0.7-0.7-1l-0.3-0.1c-1-0.3-1.9-0.3-2.9-0.9
		l-0.1-0.1l-0.1-0.1l-0.2-0.1l-0.1-0.1l-0.1-0.1c-0.8-0.8-1.2-2-1.7-3l0-0.1l0-0.1c-0.1-0.9-0.1-1.8,0.5-2.6l0.1-0.2l0-0.1l0-0.1
		l0-0.1l0-0.1c0-0.2-0.3-0.5-0.4-0.6l-0.1-0.1l-0.1-0.1c-0.2-0.3-0.6-0.6-0.8-0.9l0-0.1l0-0.1l-0.1-0.1c-0.4-0.9-0.4-1.7-0.2-2.7
		l0-0.1l0-0.2l0.1-0.3l0-0.1l0-0.1l0.1-0.1l0.1-0.2l0.1-0.1c0.5-0.7,1.6-0.6,2.4-0.4l0.1,0l0.1,0l0.1,0c0.5,0.1,0.9,0.3,1.4,0.4
		l0.1,0l0.1,0c0.2,0.1,0.3,0.1,0.5,0.1l0,0l0,0l0,0l0.2-0.1c0.6-0.4,1-0.8,1-1.6l0-0.2l0-0.1c-0.1-0.4-0.3-0.8-0.4-1.2l0-0.1l0-0.1
		c0-0.3,0.1-0.6,0.1-0.8l0-0.3l0-0.1l0-0.1l0-0.1l0-0.2c0.1-1.5,0.4-2.3,0.9-3.7l0.1-0.3c0.2-0.6,0.3-1.2,0.5-1.8l0.1-0.4
		c0.2-0.6,0.2-1.2,0.5-1.7L74,117l0.1-0.3l0.1-0.2l0.1-0.2l0.1-0.1l0.1-0.1c0.3-0.4,0.8-0.7,1.2-1l0.1-0.1l0.1-0.1
		c0.2-0.2,0.4-0.4,0.6-0.6l0.1-0.1l0.2-0.2l0.2-0.3c0.8-0.8,1.7-1.6,2.6-2.3l0.2-0.1l0.1-0.1l0.1-0.1l0.1-0.1l0.1-0.1l0.2-0.2
		l0.4-0.4l0.2-0.2c1.1-1,2.4-2.1,3.8-2.7l0.4-0.1l0.2-0.1c0.6-0.2,1.2-0.3,1.7-0.5l0.3-0.1l0.3-0.1c0.6-0.2,1.3-0.1,1.9-0.2l0.2,0
		l0.5,0l0.3,0l0.2,0l0.2,0c1,0,1.8,0.4,2.7,0.6l0.2,0.1l0.5,0.1c1.6,0.3,3.4,0.6,5,0.6l0.6,0l0.3,0l0.3,0l0.2,0l0.2,0
		c1.5,0.2,2.9,0.3,4.4,0.3l0.2,0l0.2,0l0.2,0c0.5-0.1,0.9-0.4,1.4-0.6l0.2-0.1l0.2,0c0.4-0.1,0.8-0.1,1.2,0l0.1,0l0.1,0l0.1,0.1
		l0.1,0.1l0.2,0.2c0.1,0.1,0.3,0.4,0.3,0.7l0,0.1l0,0.1l0,0.2l0,0.1l-0.1,0.2l0,0.2l0.1,0.1l0,0l0.1,0.1c0.1,0.1,0.3,0.2,0.3,0.4
		l0,0.2l0,0l0,0l0,0l0,0l0,0l0,0l0,0l0,0l-0.1,0l-0.1,0L110,110.6L110,110.6L110,110.6"/>
	<path d="M86.1,122L86.1,122l0,0.2c0.1,0.9,1.3,1.1,2,1.2l0.1,0l0.1,0c0.9,0.1,1.4-0.6,1.7-1.4l0.1-0.3l0-0.1
		c0.1-0.6-0.3-1.4-1.1-1.3l-0.1,0l-0.2,0c-1.1,0.1-1.8,0.6-2.6,1.4L86.1,122L86.1,122L86.1,122"/>
	<path fill="#7A5E3F" d="M87.4,121.8L87.4,121.8c0.7,0.7,1.5,0.6,1.7-0.4l0-0.1l0-0.1l0-0.1c-0.1-0.4-0.8-0.6-1.2-0.5l-0.1,0l-0.1,0
		l-0.1,0c-0.1,0.1-0.2,0.2-0.2,0.4l0,0.1l0,0.1c0,0.1-0.1,0.2-0.1,0.3l0,0L87.4,121.8L87.4,121.8"/>
	<path d="M81.8,117.2L81.8,117.2L81.8,117.2l0.1,0l0,0c1.2-0.8,2.1-1.6,3.6-1.9l0.2-0.1l0.5-0.1c1.3-0.4,2.2-0.5,3.6-0.5l0.3,0
		l0.3,0l0.1,0l0.1,0l0.1,0c0.4,0,0.7,0,1.2,0.1l0.3,0.1c0.3,0.1,0.9,0.3,1.2,0.2l0.1,0l0.1-0.1c0.4-0.7,0.6-1.5,0.6-2.3l0-0.2l0-0.2
		l-0.1-0.2l-0.1-0.1l-0.1-0.1l-0.1-0.1c-0.2-0.2-0.6-0.3-0.9-0.4l-0.1,0l-0.1,0c-0.4-0.1-0.9-0.3-1.3-0.4l-0.2,0l-0.3-0.1
		c-1.3-0.4-2.7,0.2-4,0.7l-0.3,0.1l-0.3,0.1l-0.3,0.1c-1.2,0.6-2.4,1.4-3.2,2.4l-0.1,0.1l-0.1,0.1l-0.1,0.1c-0.3,0.4-0.6,1-0.7,1.5
		l-0.1,0.1l0,0.1c-0.1,0.2-0.3,0.6-0.2,0.8L81.8,117.2L81.8,117.2L81.8,117.2L81.8,117.2"/>
	<path fill="#A75B28" d="M92,113.8L92,113.8l-0.2,0l-0.2-0.1c-0.9-0.3-1.9-0.2-2.8,0l-0.2,0.1l-0.2,0.1l-0.2,0.1
		c-0.4,0.1-0.8,0.3-1.1,0.4l-0.2,0l-0.1,0l-0.1,0l-0.1,0l-0.1,0l-0.1,0l-0.1,0l-0.1,0l-0.1,0l-0.1-0.1l-0.1-0.1l-0.2-0.2l-0.1-0.1
		l0-0.1l0,0l0-0.1l0-0.1l0-0.1c0.1-0.2,0.1-0.5,0.2-0.7l0-0.1l0-0.2l0-0.1l0,0l0,0l0,0l0,0l0,0l0.1-0.1l0.1-0.1
		c0.1-0.1,0.2-0.1,0.3-0.2l0.1,0l0.1,0l0.1,0l0.1,0l0.1,0c1.1-0.4,1.5-0.5,2.6-0.6l0.2,0l0.1,0c0.7,0,1.4,0.2,2.2,0.3l0.1,0l0.2,0.1
		l0.2,0.1l0.1,0c0.5,0.2,0.5,0.6,0.3,1l0,0.1l-0.1,0.2c-0.2,0.3-0.3,0.7-0.7,0.8l0,0L92,113.8L92,113.8"/>
	<path fill="#A75B28" d="M110.6,113.9l0.1,0l0.1,0l0.2-0.1l0.1,0c0.3-0.2,0.3-0.5,0.3-0.8l-0.1-0.2c-0.2-0.4-0.5-0.7-0.9-0.8l-0.1,0
		l-0.1,0l-0.1,0c-1.4-0.4-4.2,0.2-5.2,1.3l-0.1,0.2l0,0.1l0,0.1c0.1,1.4,2,1,2.8,0.7l0.2-0.1c1-0.2,1.5-0.2,2.5-0.1l0.1,0
		L110.6,113.9L110.6,113.9"/>
	<path d="M104.7,120.4l0.1-0.2c0.7-1.4,1.2-1.5,2.8-1.6l0.2,0l0.2,0l0.2,0c0.6,0.1,1.2,0.2,1.7,0.5l0.1,0.1l0.1,0.1l0.1,0l0.1,0
		l0,0.1l0,0l0,0.1l0,0l0,0l0,0l0,0l-0.1,0l-0.1,0l-0.1,0l-0.1,0c-0.9-0.3-2.8-0.2-3.6,0.3l-0.3,0.2c-0.3,0.2-0.5,0.4-0.8,0.6l0,0
		l0,0l0,0l-0.1,0l0,0l-0.1,0l0,0l0,0l-0.1,0l0,0l0-0.1l0,0L104.7,120.4L104.7,120.4L104.7,120.4"/>
	<path d="M105.5,120.4l0,0.1l0,0.1c0.2,0.6,0.5,1.2,1.1,1.3l0.1,0l0.1,0l0.1,0c0.3,0,0.5-0.1,0.7-0.3l0.1-0.1l0.1-0.1
		c0.2-0.3,0.3-0.6,0.4-0.9l0-0.1l0-0.3l0-0.1l0-0.1l0-0.1l0-0.1l0-0.1l0-0.1l0-0.1l0-0.1l0-0.1l0,0l0,0l0,0c-0.1,0-0.5,0.1-0.6,0.1
		l-0.3,0.1l-0.1,0C106.5,119.5,105.9,119.9,105.5,120.4L105.5,120.4L105.5,120.4L105.5,120.4"/>
	<path fill="#7A5E3F" d="M106.4,119.8L106.4,119.8L106.4,119.8c-0.2,0.9,0.7,1.5,1.1,0.6l0.1-0.2l0-0.1c0-0.3,0-0.7-0.4-0.7l-0.2,0
		c-0.1,0-0.2,0.1-0.3,0.1l-0.1,0l0,0c-0.1,0.1-0.1,0-0.1,0.1L106.4,119.8L106.4,119.8L106.4,119.8"/>
	<path d="M105.4,148.2L105.4,148.2l-0.1,0l-0.1,0c-2.2,0.7-4.2,1.7-6.5,1.5l-0.2,0l-0.4,0l-0.2,0c-0.5,0-1.1-0.1-1.6-0.1l0,0l0,0
		c-0.4,0.3-0.5,0.7-0.1,1.1l0.1,0.1l0,0l0.1,0l0.1,0l0.1,0l0.1,0c1,0.4,2,0.6,3.1,0.8l0.2,0l0.2,0c1,0.1,1.2,0,2.1-0.4l0.2-0.1
		l0.1-0.1l0.1-0.1c0.2-0.2,3.9-2.6,3.1-2.9l0,0L105.4,148.2L105.4,148.2"/>
	<path d="M86.5,137.4l0,0.1l0,0.1l0,0.2l0.1,0.1l0.1,0.3l0.1,0.3c0.4,0.8,0.9,1.5,1.3,2.3l0.1,0.1l0.1,0.1c0.3,0.6,0.8,1.2,1.3,1.7
		l0.3,0.2l0.2,0.2l0.2,0.2l0.2,0.2c0.8,0.6,1.6,1.3,2.4,1.9l0.1,0.1l0.1,0.1c0.8,0.4,1.8,0.9,2.6,1.1l0.5,0.1l0.3,0.1l0.3,0.1l0.3,0
		l0.2,0c0.8,0.1,1.6,0.2,2.4,0.3l0.3,0l0.3,0c0.7-0.1,1.5-0.2,2.3-0.4l0.2-0.1l0.2-0.1l0.2-0.1l0.2-0.1c0.7-0.3,1.3-0.5,2-0.9
		l0.3-0.2c0.8-0.7,1.8-1.5,2.5-2.3l0.3-0.4l0.1-0.1l0.4-0.6l0.2-0.3l0.1-0.1c0.5-0.8,1.1-1.6,1.6-2.4l0.1-0.2l0.1-0.2
		c0.3-0.7,0.5-1.5,0.7-2.2l0.3-1c0.6-1.8-0.2-1.7-1.3-2.9l-0.2-0.1l-0.1-0.1l-0.1-0.1l-0.1-0.1c-1.9-0.8-1.7-1.2-2.3-3.2l-0.1-0.5
		l-0.1-0.2l-0.1-0.3c-0.4-1-1-2.2-1.5-3.2l-0.1-0.2l-0.1-0.2c-0.4-0.6-0.7-1.2-1.1-1.7l-0.2-0.3l-0.2-0.2l-0.1-0.1l-0.1-0.1
		l-0.1-0.1l-0.1-0.1l-0.1-0.1l-0.1-0.2c-0.6-0.9-1.5-1.4-2.1-0.2l0,0.1l0,0.1c0.1,0.4,0.3,0.6,0.5,0.9l0.1,0.1l0.1,0.1
		c0.3,0.5,0.6,1,0.8,1.5l0.1,0.2l0.1,0.2l0.1,0.2l0.1,0.2l0.1,0.1c0.8,1.1,1.6,3,2,4.3l0.1,0.2l0.1,0.2c0.4,1,0.5,2.4-0.5,3
		l-0.1,0.1l-0.2,0.1l-0.2,0.1l-0.3,0.1l-0.2,0.1l-0.1,0l-0.1,0c-0.6,0.1-0.8,0-1.4-0.2l-0.4-0.1c-1-0.3-1.9-0.6-2.9-0.8l-0.2-0.1
		l-0.2-0.1l-0.2,0l-0.2,0c-0.8-0.1-1.5,0-2.3,0.1l-0.2,0l-0.2,0c-0.8,0.1-1.4,0.1-2.2,0.2l-0.1,0l-0.1,0l-0.1,0l-0.1,0l-0.2,0
		l-0.3,0c-0.7,0.1-1.2,0.2-1.8,0.2l-0.4,0l-0.2,0c-0.8,0-0.9-0.1-1.7,0.2l-0.2,0.1l-0.4,0.2c-1.4,0.7-1.8,2.1-1.8,3.5l0,0.1l0,0.1
		l0,0.1L86.5,137.4"/>
	<path fill="#FFFFFF" d="M89.7,139.2l0,0.1l0,0.1l0.1,0.3l0.1,0.1c0.4,0.5,0.4,0.9,0.8,1.5l0.1,0.1l0.1,0.1c0.4,0.5,0.9,0.9,1.4,1.4
		l0.2,0.1l0.3,0.2c1.3,1.1,2.9,1.8,4.6,2l0.3,0.1l0.1,0l0.1,0l0.2,0l0.1,0c0.6,0.1,1.1,0.2,1.7,0.2l0.2,0l0.2,0
		c0.7,0,1.5-0.3,2.3-0.3l0.1,0l0.2,0l0.2-0.1c1.7-0.7,2.9-1.8,3.9-3.4l0.1-0.1l0.1-0.1l0.1-0.1l0.1-0.1l0.1-0.2l0-0.1l0-0.1l0-0.1
		l0-0.1l0-0.1l0,0l0,0l0,0l-0.1,0l-0.1,0l-0.1,0l-0.2,0c-0.5,0.1-1,0.3-1.5,0.3l-0.1,0l-0.2,0l-0.2,0.1c-1.4,0.3-2.9,0.4-4.3,0.1
		l-0.3,0l-0.3-0.1l-0.3-0.1c-1.9-0.4-3.7-0.8-5.6-1.4l-0.2-0.1l-0.5-0.1l-0.2-0.1c-0.8-0.2-1.5-0.5-2.3-0.7l-0.1,0l-0.1,0
		c-0.3-0.1-0.6-0.2-0.7,0.2l0,0.1l0,0.2l0,0.1L89.7,139.2"/>
	<path fill="#A75B28" d="M89.6,136.1L89.6,136.1l0-0.1l0.1-0.1l0-0.1c0.2-0.4,0.6-0.5,1-0.7l0.2-0.1l0.2-0.1c0.8-0.2,1.7,0,2.5-0.2
		l0.6,0l0.3,0l0.1,0l0.1,0c0.8,0,1.5-0.1,2.2,0l0.2,0l0.2,0c0.8-0.1,2-0.2,2.8,0.1l0.2,0.1l0.6,0.2l0.2,0.1l0.2,0.1l0.2,0
		c0.7,0.1,1.7,0,2.4-0.1l0.2,0l0.2-0.1c0.7-0.3,1.4-0.5,2.2-0.8l0.3-0.1l0.1,0c1.1-0.2,2.7,0.7,3.2,1.6l0.2,0.2l0.1,0.1l0.1,0.1
		l0.1,0.2l0.1,0.3l0.1,0.2c0,0.2,0.2,0.5,0.1,0.7l-0.1,0.1c-0.4,0.3-1.1,0.5-1.6,0.6l-0.2,0.1l-0.2,0.1l-0.2,0.1
		c-2.5,0.8-4.6,0.8-7.3,1l-0.4,0l-0.2,0l-0.2,0l-0.4,0c-1-0.1-2-0.3-3-0.5l-0.2,0l-0.2,0c-1.2-0.3-2.5-0.8-3.7-1l-0.2-0.1l-0.3-0.1
		l-0.2-0.1l-0.3-0.1c-0.6-0.2-1.3-0.3-1.8-0.6l-0.1-0.1l-0.1,0c-0.1-0.1-0.4-0.3-0.4-0.5l0-0.1l0-0.1L89.6,136.1L89.6,136.1"/>
	<path fill="#A75B28" d="M65.8,125.7l0-0.1l0-0.2l0-0.2l0-0.2l0-0.4l0-0.2c0.2-1.3,0.2-1.4-0.3-2.8l-0.1-0.2l0-0.1
		c-0.1-0.8-0.1-2,0.1-2.8l0-0.2l0.1-0.5l0.1-0.5l0.1-0.2c0.3-1.3,0.8-2.5,1.1-3.8l0.1-0.5c0.4-1.4,0.7-2.9,1.2-4.2l0.1-0.2l0.3-0.6
		l0.1-0.2l0.1-0.2l0.1-0.2L69,107c0.4-1,0.9-2.5,1.6-3.3l0.1-0.1l0.1-0.1c1.5-1.2,2.7-2.5,4.3-3.5l0.4-0.3l0.2-0.1l0.2-0.1
		c1.2-0.8,2.6-1.4,3.9-2.1l0.3-0.2l0.4-0.2c1.6-1,2.9-1.4,4.6-2l0.3-0.1l0.7-0.3l0.3-0.1l0.2-0.1l0.2-0.1l0.3-0.1
		c1.5-0.7,3.1-1.4,4.7-2.1l0.5-0.3l0.2-0.1c0.5-0.3,1.1-0.4,1.6-0.5l0.3-0.1l0.3-0.1c0.7-0.2,1.4-0.3,2.1-0.4l0.3,0l0.3,0l1.7-0.2
		l0.5-0.1c0.5,0,0.9-0.1,1.4-0.1l0.1,0l0.1,0c0.4,0,0.9,0.2,1.4,0.3l0.3,0.1l0.3,0l0.3,0c1.5,0.1,3.1,0.4,4.5,1.2l0.2,0.2l0.2,0.2
		l0.4,0.3l0.1,0.1l0.1,0.1c0.3,0.3,0.7,0.5,1,0.8l0.1,0.1l0.1,0.1c0.3,0.4,0.8,1,1.1,1.4l0.1,0.1l0.1,0.1l0,0.1
		c0.4,1.1,0.3,2.4,0.3,3.6l0,0.1l0,0.1l0.1,0.2l0.1,0.2l0.1,0.2c0.1,0.4,0.3,0.7,0.4,1.1l0.1,0.4l0.1,0.2c0.1,0.2,0.2,0.4,0.2,0.7
		l0,0.1l0,0.1l0,0.1c-0.1,1.3-0.2,1.8-0.7,3.1l-0.1,0.2l-0.1,0.2l-0.2,0.6l0,0.1l-0.1,0.3l-0.1,0.5c-0.1,0.4-0.2,1.5-0.8,1.3l-0.1,0
		l-0.1,0c-0.5-0.3-0.8-1.5-1.2-1.9l-0.1-0.1l-0.1-0.1l-0.3-0.2c-0.6-0.3-1.3-0.2-1.9,0.1l-0.1,0l-0.1,0c-0.9,0.6-0.8,0.8-1.9,0.8
		l-0.3,0l-0.3,0l-0.2,0l-0.2,0l-0.4-0.1c-1,0-1.9-0.3-2.9-0.3l-0.2,0l-0.2,0c-1.3,0.1-2.6-0.3-3.9-0.4l-0.1,0l-0.2,0l-0.2,0l-0.2,0
		c-1.5-0.1-2.6-0.5-4.1-0.8l-0.3,0l-0.3,0c-1.4-0.3-2.7-0.1-4.2,0.1l-0.2,0l-0.2,0l-0.3,0.1l-0.3,0.1l-0.3,0.1l-0.2,0l-0.2,0
		l-0.2,0.1c-1.1,0.4-1.8,0.8-2.7,1.6l-0.1,0.1l-0.1,0.1c-1.5,1.3-3,2.2-4.5,3.4l-0.2,0.1l-0.2,0.1l-0.3,0.2c-1.3,0.9-2.1,2-3.3,3.1
		l-0.3,0.4c-0.6,0.7-1.3,2.2-1.7,3.1L72,118l-0.1,0.1l-0.1,0.3l-0.2,0.5l-0.1,0.4c-0.1,0.3-0.2,0.7-0.2,1l-0.1,0.6l-0.1,0.6
		c-0.1,0.8-0.3,1.5-0.4,2.3l0,0.1l0,0.3l0,0.1c0,0.2-0.1,0.5-0.1,0.7l0,0.2l0,0.2c0,0.3,0.1,0.6,0,0.9l0,0.1l0,0.2l-0.1,0.1l0,0.1
		c-0.6,0.9-1.3,0.6-2.2,0.5l-0.2,0l-0.2,0c-0.4-0.2-2-0.3-2-1l0-0.1l0-0.2l0-0.1l0-0.1L65.8,125.7"/>
	<path d="M84.1,122.3L84.1,122.3l-0.1-0.2l0-0.1c0.1-1.7,3.4-3.1,4.8-3.4l0.2-0.1l0.2,0c0.5-0.2,3.7,0,3.3,1.1l0,0.1l0,0.1l-0.1,0.1
		l-0.1,0.1c-0.8,1-3.8,0.2-4.9,1l-0.2,0.1l-0.2,0.1l-0.2,0.1c-0.5,0.4-0.9,0.8-1.4,1.3l-0.1,0.1l-0.2,0.1l-0.1,0l-0.1,0l-0.1,0
		l-0.1,0l-0.1,0l-0.3-0.1l-0.2-0.1l-0.1-0.1l-0.1,0L84.1,122.3L84.1,122.3"/>
</g>
<g>
	<path d="M55.8,207.8l0.1-0.1l0.1-0.2l0.4-0.5c2.6-3.4,5.4-6.6,7.6-10.2l0.2-0.2l0.2-0.2c4.6-1.6,10-0.2,14.7-0.6l2.2,0l4.2,0.1l1,0
		l1.1,0c7.3,0.2,14.8,0.1,22.1,0l1.5,0c3.8,0,3-0.3,5.8,1.9l0.4,0.3l0.4,0.4l0.5,0.4l0.5,0.4l1,0.8l1,0.9c1.6,1.4,4.9,3.1,6.2,4.6
		l0,0.2l0,0.2c-0.4,0.8-0.7,1-1.3,1.7l-0.2,0.2l-0.2,0.2c-0.6,0.8-1.4,1.7-2.1,2.5l-0.9,0.9l-0.5,0.6l-0.5,0.6
		c-8.3,9.4-17.4,18.2-25.2,28.1l-0.2,0.1l-0.1,0l-0.1-0.1l-0.1-0.1c-7.5-6.2-15.6-11.9-23.3-18l-0.6-0.5l-0.6-0.5l-0.6-0.4
		c-4.1-3.4-8-6.9-12.1-10.3l-0.5-0.4l-0.4-0.4l-0.3-0.3c-0.5-0.4-0.9-0.8-1.4-1.2l-0.1-0.1l-0.1-0.2l-0.2-0.1l-0.1-0.1l-0.1,0l0-0.1
		l0-0.2l0.1-0.1l0-0.1L55.8,207.8"/>
	<path fill="#E02126" d="M117.2,214.1l0.5-0.6l0.4-0.5c1.4-1.6,3-3.6,4.3-5.3l0.2-0.2l0.2-0.3l0.1-0.2l0.2-0.2l0.1-0.1l0.2-0.1
		l0.1-0.1l0.1-0.3l0.1-0.1l0.1,0l0-0.1l0-0.1l0-0.1l-0.1,0l-0.1-0.1l-0.1-0.2l-0.1,0l-0.4-0.3l-0.2-0.1l-0.2-0.2l-0.3-0.1l-0.2-0.2
		l-0.6-0.4l-1.3-0.8l-1.5-1c-1.7-1.1-3.3-2.4-5-3.5l-0.2,0l-0.1-0.1l-0.2-0.1c-0.5-0.1-1.5,0-2-0.1l-0.4,0l-0.5,0
		c-5.8-0.1-11.8-0.1-17.6-0.1l-1.6-0.1l-1.6,0l-1.7,0l-19.2,0.1l-0.6,0.1l-0.4,0c-2.1,0.4-2.7,1.8-4,3.3l-0.2,0.3l-0.2,0.4l-0.3,0.4
		c-0.8,1.1-1.5,2.3-2.3,3.4l-0.2,0.3l-0.2,0.3l-0.1,0.3l-0.2,0.3l0,0.1l-0.1,0l0,0.2l0.1,0.1l0.1,0l0.1,0.1l0.1,0.1l0.3,0.3l0.2,0.2
		l0.2,0.2c0.4,0.4,1.1,1.1,1.5,1.4l0.4,0.4l0.2,0.2l0.3,0.2c1.9,1.8,3.9,3.5,5.9,5.2l0.6,0.5l1.3,1.1l1.3,1.1L85,229.4l1,0.7
		l0.9,0.7c2.2,1.7,4.6,3.2,6.9,4.7l0.3,0.2l0.2,0.2c0.5,0.2,0.9,0.5,1.3,0.8l0.1,0l0,0.1l0.1,0l0.1,0l0.1-0.1l0-0.1
		c0.6-0.5,1-1.4,1.6-1.9l0.5-0.6c1.3-1.5,2.7-3,4.2-4.4l0.5-0.6l1.2-1.2L117.2,214.1z"/>
	<path fill="#FCEB06" d="M117.1,213.9l-0.2-0.5l-0.2-0.4l-0.2-0.5l-0.3-0.4l-0.3-0.3c-1.4-1.2-3.1-1.4-4.7-0.8l-0.1,0l-0.1,0l0-0.1
		c2.7-1.9,4.9-6.6,2.3-9.4l-0.6-0.7l-1-0.9l-0.5-0.4c-0.6-0.5-1.4-1-2.2-1.1l-0.4-0.1l-20.8-0.1l-1.8,0l-5.4,0l-1.8-0.1l-0.8,0
		l-1.6,0c-2.1,0-4.2,0-6.3,0l-0.5,0l-0.5,0l-0.4,0.1l-3.2,9.8l9.3-0.7L72.4,219l4,3.4c2.7,2.2,5.3,4.5,8.1,6.6l0.5,0.4l19-1.4
		l1.4-1.4l1.4-1.4l1.5-1.4c2.1-2.3,4.3-4.5,6.5-6.8l1.7-1.9l0.8-0.9L117.1,213.9z M89,207.5l8.1-0.6l0.5,0l0.4,0c1,0.1,2.2,0.2,3,1
		l0,0.1l0,0.1c0,1.1-2.3,2.1-3.3,2.1l-0.4,0.1l-9,0.8L89,207.5z M100.2,217.9l-12.8,1.9l0.5-3.6l11.6-1.4l0.5,0
		C103.9,214.7,105.2,218,100.2,217.9z"/>
</g>
</svg>
