<?xml version="1.0" encoding="utf-8"?>
<!-- Generator: Adobe Illustrator 19.2.1, SVG Export Plug-In . SVG Version: 6.00 Build 0)  -->
<svg version="1.1" id="Layer_1" xmlns="http://www.w3.org/2000/svg" xmlns:xlink="http://www.w3.org/1999/xlink" x="0px" y="0px"
	 viewBox="0 0 388.3 173.2" style="enable-background:new 0 0 388.3 173.2;" xml:space="preserve">
<style type="text/css">
	.st0{fill:#FFFFFF;stroke:#000000;stroke-width:4;stroke-miterlimit:10;}
	.st1{fill:#010101;}
	.st2{fill:#F2BC7B;}
	.st3{fill:#7A5F3F;}
	.st4{fill:#A85C28;}
	.st5{fill:#FFFFFF;}
	.st6{fill:#FFFFFF;stroke:#000000;stroke-width:3;stroke-miterlimit:10;}
	.st7{fill:none;}
</style>
<rect x="76.1" y="4.1" class="st0" width="308" height="145"/>
<g>
	<path class="st1" d="M17.6,157.4l-0.1-0.1l-0.1-0.2l-0.1-0.1l0-0.1l-0.1-0.1c-0.5-0.5-1.1-0.8-0.2-1.4l0,0l0,0
		c1-0.8-0.4-2.4-0.7-3.3l-0.2-0.5l-0.1-0.2c-0.5-1.5-0.9-3.3-1.4-4.9l0-0.1l0-0.1l-0.1-0.2c-0.3-0.7-0.7-1.1-0.9-1.8l0-0.1l0-0.1
		c-0.3-0.7-0.5-1.4-0.7-2l0-0.1l0-0.1l0-0.1l0-0.1v-0.1l0-0.2l0-0.2c0-0.5-0.2-0.8-0.6-1.1l-0.1-0.1L12,140c-1-0.5-1.8-0.7-2.6-1.5
		l-0.1-0.1l-0.2-0.2L9.1,138l-0.1-0.2c-0.5-0.6-0.7-1.2-1-1.9l-0.1-0.2l-0.1-0.2c-0.3-0.6-0.3-1-0.8-1.5l-0.1-0.1l-0.1-0.1l-0.1-0.1
		l-0.2-0.1l-0.2-0.1l-0.1-0.1c-0.3-0.3-0.4-0.6-0.7-0.9l-0.1-0.1l-0.1-0.1c-0.3-0.5-0.4-1-0.5-1.6v-0.1l0-0.1v-0.2
		c0-0.6,0-1.2,0-1.8l0-0.3l0-0.2c0-0.5,0.2-1,0.3-1.5l0-0.1v-0.1l0-0.1l0-0.1l0-0.1l0-0.1l0-0.1l0-0.1l0-0.1l-0.1-0.2
		c-0.5-0.9-0.7-1-1-2l-0.2-0.8l-0.1-0.4l-0.1-0.4l-0.1-0.2l-0.1-0.2l-0.1-0.2l-0.1-0.1c-0.2-0.3-0.3-0.4-0.5-0.7l-0.1-0.1l-0.1-0.1
		l-0.1-0.2l-0.1-0.2l0-0.1c-0.1-0.6,0.2-1,0.2-1.6v-0.1l0-0.1c-0.1-0.5-0.5-0.8-0.7-1.2l0-0.1l0-0.1l0-0.1l0-0.1l0-0.1l0-0.1
		c0-1.1-0.1-2.2,0-3.3l0-0.3l0-0.3c0.1-0.9,0.2-1.6,0.2-2.5l0-0.5c0.2-1.6,0.3-3.2,1-4.7l0.1-0.1l0.1-0.1l0.1-0.2l0.2-0.3l0.2-0.4
		c0.8-2.2,2-4.2,3.4-6l0.1-0.1L7,97.3l0.1-0.1c0.7-0.8,1.3-1.7,2.1-2.4l0.2-0.2l0.2-0.2c1.3-1.1,2.5-2.2,3.8-3.3l0.3-0.3l0.6-0.6
		l0.3-0.3l0.2-0.1l0.2-0.1l0.1-0.1c0.8-0.7,1.5-1.1,2.4-1.6l0.2-0.1l0.2-0.1c0.7-0.5,1.4-0.9,2.1-1.4l0.4-0.3l0.4-0.3l0.2-0.2
		c2.3-1.4,4.4-2.5,7.1-2.9l0.2,0l0.2,0l0.2,0l0.2,0l0.2,0l0.2-0.1l0.3-0.1l0.3-0.1l0.5-0.1l0.2-0.1l0.2,0c0.7-0.2,1.3,0.1,1.9,0.2
		l0.1,0l0.1,0c0.8,0.2,1.6,0.2,2.3,0.4l0.1,0l0.4,0.2c1.4,0.8,2.8,1.7,3.9,2.8l0.1,0.1l0.1,0.1l0.1,0.1l0.1,0.1
		c1.1,1.1,2,3.2,2.5,4.7l0.1,0.3l0.2,0.6l0.1,0.3c0.2,0.7,0.3,1.4,0.4,2.1l0,0.2l0,0.2c0.1,1,0.3,2.3,0.2,3.3l0,0.1l0,0.2l0,0.2
		l0,0.2l0,0.1l0,0.1c-0.3,2-1.3,1.6,0.3,3.7l0.1,0.1l0.2,0.3l0,0.1c0.4,0.5,0.7,1.4,0.9,2l0.1,0.3l0.1,0.3c0.5,1.2,0.7,1.9,0.9,3.2
		l0,0.2l0,0.2l0,0.2l0,0.2l0,0.2l0,0.1c0.1,0.4,0,1,0.2,1.3l0.1,0.1c0.7,0.6,1.2,1.1,1.7,1.8l0.2,0.3l0.1,0.2l0.1,0.2L49,114
		c0.5,0.9,1,1.8,1.4,2.7l0.1,0.2l0.1,0.3c0.3,0.6,0.5,1.2,0.7,1.8l0.1,0.3l0.1,0.3l0.1,0.6l0.1,0.6l0,0.3l0.1,0.8l0.1,1
		c0.2,1.4,0.2,2.8,0.3,4.1l0,0.2l0,0.1c0.1,0.7,0.3,1.6,0.4,2.3l0.1,0.3l0.1,0.5l0,0.1c0.3,0.8,0.3,1.3,0.4,2.1v0.1l0,0.1
		c0,0.9,0.4,1.7,0.6,2.5l0,0.2l0,0.2l0,0.2l0,0.4v0.4c0.1,2.9-0.7,3.2-1.8,5.8l-0.1,0.2l-0.1,0.3c-0.3,0.5-0.6,0.9-1,1.4l-0.1,0.1
		l-0.1,0.1c-0.3,0.3-0.2,0.5-0.2,0.9v0.2l0,0.2v0.1l0,0.3v0.2c0,0.9,0,1.8,0,2.7v0.2l0,0.2c0,0.4,0,1.1,0.5,1.1l0.1,0l0.1,0h0.5
		c0.7,0,0.6-0.2,1.2,0.2l0.1,0.1c0.2,0.2,0.1,0.6,0,0.8l-0.1,0.2l0,0.1l0,0.1l0,0.1l-0.1,0.1c-0.4,0.5-0.4,0.6-0.6,1.3l-0.1,0.2
		l-0.1,0.2c-0.3,1.1-0.6,2.3-1,3.4l0,0.2l0,0.2l-0.1,0.3l-0.1,0.3c-0.4,1.3-0.9,2.7-1.4,3.9l-0.1,0.3l-0.1,0.3
		c-0.5,1.1-0.9,2.2-1.3,3.3l0,0.2l0,0.2l0,0.2v0.1l0,0.1v0l0,0v0.2l0,0.2c0,1.5-0.2,2.7-1.8,3.2l-0.2,0.1l-0.4,0.1
		c-1.7,0.4-3.5,0.7-5.2,1.2l-0.3,0.1l-0.3,0.1c-1.3,0.2-2.7,0.7-3.9,0.2l-0.2-0.1l-0.2-0.1l-0.2-0.1l0-0.1l0-0.1l0-0.1
		c0.4-1.3-0.2-2.2-1.5-2.6l-0.1,0l-0.1,0c-1.9-0.6-3.8-1.2-5.6-2l-0.2-0.1l-0.2-0.1l-0.2-0.1l-0.2-0.1l-0.2-0.1
		c-1-0.4-1.5-0.7-2.4-1.3l-0.4-0.3c-0.7-0.5-1.5-0.9-2.2-1.4l-0.2-0.2l-0.2-0.2l-0.2-0.2l-0.2-0.2c-0.9-1.1-1.7-2.3-2.6-3.3
		l-0.1-0.1l-0.1-0.1C18.1,158.5,17.9,157.9,17.6,157.4L17.6,157.4L17.6,157.4l-0.1-0.2"/>
	<path class="st2" d="M40.7,100.5L40.7,100.5L40.7,100.5l-0.2,0.1l-0.1,0l-0.1,0.1l-0.1,0l-0.2,0.1c-1.6,0.6-3,1.4-4.3,2.5l-0.1,0.1
		l-0.1,0.1c-0.5,0.6-0.8,1.3-0.3,2l0.1,0.1l0.1,0.1l0.2,0.2c0.4,0.5,1.3,0.9,1.9,0.4l0.1-0.1l0.2-0.2c0.9-0.7,2.2-1.5,3.3-1.8
		l0.3-0.1l0.2,0l0.2,0l0.2,0H42c0.7-0.1,1.1,0.2,1.5,0.7l0.1,0.2c0.5,1.2,0.7,2.3,1,3.5l0,0.2l0,0.2l0,0.2l0,0.2l0,0.2
		c0.1,0.4,0.1,0.9,0.1,1.3v0.3c0,0.3,0,0.3,0.2,0.6l0,0.1l0.1,0.1l0.1,0.1c1.1,1.1,1.8,2.1,2.7,3.3l0.1,0.2l0.2,0.2l0.5,0.9L49,117
		c1.4,2.4,1.4,5.2,1.6,7.8l0,0.2l0,0.2c0.2,1.3,0.1,2.6,0.2,3.9l0,0.2l0,0.1l0,0.1c0.1,0.5,0.2,0.9,0.3,1.4l0.1,0.2l0,0.1
		c0.1,0.3,0.3,0.5,0.5,0.8l0,0.1l0,0.1l0,0.1l0,0.1l0,0.1l0,0.2v0.2l0,0.3c0,0.4,0,0.6,0.2,1l0.1,0.1l0.1,0.2c0.2,0.3,0.3,0.7,0.4,1
		l0,0.2l0,0.1v0.1c0,0.9-0.1,2-0.4,2.8l0,0.1l0,0.1l0,0.1l0,0.1c-0.5,0.7-0.8,1.3-1.2,2l-0.2,0.3l-0.2,0.3l-0.2,0.3
		c-0.5,0.6-1.2,1.2-1.7,1.7l-0.2,0.2l-0.2,0.2c-0.4,0.3-0.8,0.6-1.3,0.9l-0.2,0.1l-0.2,0.1l-0.5,0.4l-0.2,0.1l-0.2,0.1l-0.2,0.1
		l-0.1,0.1l-0.3,0.2l-0.3,0.2c-0.7,0.4-1.5,0.9-2.4,1l-0.1,0l-0.3,0c-1.3,0.1-2.8-0.1-4.1-0.3l-0.3,0l-0.3-0.1l-0.3-0.1l-0.3-0.1
		c-1.6-0.5-2.9-1-4.5-1.7l-0.1,0l-0.1,0c-0.7-0.3-1.3,0.4-1.3,1.1l0,0.2v0.1l0,0.1l0,0.1l0,0l0,0c0.1,0.1,0.2,0.2,0.4,0.2l0.1,0
		l0.2,0.1c0.5,0.2,0.9,0.4,1.4,0.6l0.2,0l0.3,0.1l0.3,0.1c1.8,0.6,3,0.7,4.8,1l0.2,0l0.2,0l0.2,0l0.2,0c1.4,0.1,2.8,0.1,4.1-0.3
		l0.1,0l0.1,0c1.4-0.4,2.5-1.4,3.8-2.2l0.2-0.1l0.2-0.1l0.1-0.1l0.1-0.1l0.1-0.1l0.1-0.1l0.1-0.1c0.3-0.3,0.8-0.4,1,0l0,0.1l0,0.1
		c0.1,0.7,0,1.5,0.1,2.2v0.5l0,0.2c-0.1,0.8,0,1.6,0,2.3v0.1l0,0.1c0,0.8,0,1.9-0.1,2.6l0,0.1l0,0.1l0,0.1l-0.2,0.6l-0.1,0.1
		c-0.5,1.4-1.1,2.4-1.3,3.9l0,0.2l0,0.2c-0.4,1.2-0.8,2.2-1.2,3.5l-0.1,0.3l-0.1,0.2l-0.1,0.1c-0.8,1.7-1.5,3.4-2.2,5.2l-0.1,0.3
		c-0.1,0.7-0.9,0.5-1.4,0.6l-0.2,0l-0.2,0l-0.2,0l-0.1,0l-0.1,0l-0.1,0l-0.2,0.1l-0.3,0.1l-0.1,0l-0.1,0l-0.3,0.1l-0.3,0.1l-0.1,0
		c-0.3,0.1-0.6,0.2-0.9,0.2l-0.4,0.1l-0.2,0c-0.2,0-0.3,0.1-0.5,0.1l-0.1,0l-0.1,0l0,0c-0.8-0.9-0.9-1.2-2.1-1.8l-0.2-0.1l-0.2-0.1
		l-0.3-0.1l-0.3-0.1c-1.2-0.6-2.1-0.9-3.3-1.3l-0.6-0.2l-0.3-0.1l-0.3-0.1c-0.7-0.2-1.3-0.6-1.9-0.9l-0.1,0l-0.1,0
		c-0.5-0.2-0.9-0.4-1.4-0.6l-0.2-0.1l-0.2-0.2l-0.2-0.2l-0.2-0.2l-0.2-0.2l-0.2-0.2l-0.2-0.2c-1-0.8-1.8-2.2-2.5-3.1l-0.1-0.2
		l-0.1-0.1c-1-1.4-1.8-2.7-2.5-4.3l-0.1-0.3l-0.2-0.3l-0.1-0.3l-0.1-0.3c-0.9-1.5-1.3-3.2-1.7-4.9l-0.1-0.4l-0.1-0.4
		c-0.6-1.8-1.8-3.4-2.4-5.2l-0.1-0.3l-0.1-0.3l-0.1-0.2l-0.1-0.2l-0.1-0.2l-0.1-0.2l-0.1-0.2l-0.1-0.2c-0.1-0.4-0.3-1,0.2-1.2
		l0.1-0.1l0.1,0c0.8-0.3,1.5,0.2,1.3-1l0-0.1l0-0.1l0-0.2c-0.2-0.7-0.2-0.6-0.9-0.7h-0.3c-1,0-1.7,0.2-2.7-0.1l-0.1,0l-0.1,0
		l-0.2-0.1l-0.1,0l-0.1-0.1c-0.9-0.5-1.5-1.4-2.2-2.2l0-0.1l0-0.1c-0.3-0.8-0.5-1.6-0.2-2.4l0-0.2l0-0.1v-0.1l0-0.1l0-0.1
		c-0.1-0.2-0.4-0.3-0.5-0.5l-0.1-0.1l-0.1-0.1c-0.3-0.2-0.7-0.4-0.9-0.6l0,0l0,0l-0.1-0.1c-0.6-0.7-0.8-1.4-0.8-2.3l0-0.1l0-0.2
		v-0.3l0-0.1l0-0.1l0-0.1l0.1-0.2l0-0.1c0.3-0.8,1.3-0.9,2-0.9H9l0.1,0h0.1c0.5,0,0.8,0,1.3,0.1l0.1,0h0.1c0.2,0,0.3,0,0.5,0l0,0
		l0,0l0,0l0.1-0.1c0.4-0.5,0.6-1,0.5-1.7l-0.1-0.2l0-0.1c-0.2-0.3-0.5-0.6-0.6-0.9l0-0.1l0-0.1c-0.1-0.2-0.1-0.5-0.1-0.7l-0.1-0.2
		l0-0.1l0-0.1l0-0.1l0-0.2c-0.3-1.4-0.2-2.1-0.1-3.4v-0.3c0-0.6,0-1.1,0-1.7v-0.4c0-0.5-0.1-1.1,0-1.6l0.1-0.3l0-0.3l0-0.2l0-0.2
		l0-0.2l0.1-0.2c0.2-0.4,0.5-0.8,0.8-1.2l0.1-0.1l0.1-0.1c0.1-0.2,0.2-0.4,0.4-0.7l0.1-0.1l0.2-0.3l0.2-0.3c0.5-0.9,1.2-1.8,1.7-2.6
		l0.1-0.1l0.1-0.1l0.1-0.1l0.1-0.1l0.1-0.1l0.1-0.2l0.3-0.5l0.2-0.2c0.7-1.1,1.6-2.4,2.6-3.2l0.3-0.2l0.2-0.1
		c0.5-0.3,0.9-0.5,1.4-0.8l0.2-0.1l0.2-0.1c0.5-0.3,1.1-0.4,1.7-0.6l0.2-0.1l0.4-0.1l0.2-0.1l0.2-0.1l0.2,0c0.9-0.2,1.6-0.1,2.5-0.2
		l0.2,0l0.5,0c1.5-0.1,3.1-0.2,4.5-0.6l0.5-0.1l0.2,0l0.2,0l0.2,0l0.2,0c1.4-0.2,2.6-0.5,4-0.8l0.2-0.1l0.2-0.1l0.2-0.1
		c0.4-0.2,0.7-0.6,1.1-0.8l0.1-0.1l0.2-0.1c0.3-0.1,0.7-0.3,1.1-0.3l0.1,0l0.1,0l0.1,0l0.1,0l0.2,0.1c0.2,0.1,0.4,0.3,0.4,0.5l0,0.1
		l0,0.1l0,0.2l0,0.1v0.2l0,0.1l0.1,0.1l0,0l0.1,0.1c0.1,0.1,0.4,0.1,0.4,0.3v0.2l0,0l0,0v0l0,0l0,0l0,0l0,0h0l0,0l0,0L40.7,100.5
		L40.7,100.5L40.7,100.5"/>
	<path class="st1" d="M22.5,116.2L22.5,116.2l0,0.1c0.3,0.8,1.3,0.6,2,0.6l0.1,0l0.1,0c0.8-0.1,1.1-0.9,1.1-1.6v-0.3l0-0.1
		c-0.1-0.6-0.6-1.1-1.2-0.9l-0.1,0l-0.1,0c-1,0.3-1.4,1-1.9,1.8L22.5,116.2L22.5,116.2L22.5,116.2"/>
	<path class="st3" d="M23.6,115.7L23.6,115.7c0.8,0.5,1.5,0.2,1.4-0.8l0-0.1l0-0.1l0-0.1c-0.2-0.3-0.9-0.4-1.1-0.2l-0.1,0.1
		l-0.1,0.1l0,0.1c-0.1,0.1-0.1,0.3-0.1,0.4l0,0.1v0.1c0,0.1,0,0.2,0,0.3L23.6,115.7L23.6,115.7L23.6,115.7"/>
	<path class="st1" d="M17.7,113L17.7,113L17.7,113L17.7,113l0.1-0.1c0.9-1,1.5-1.9,2.7-2.5l0.2-0.1l0.4-0.2c1.1-0.7,1.8-1,3-1.3
		l0.2-0.1l0.2-0.1l0.1,0l0.1,0l0.1,0c0.4-0.1,0.7-0.2,1.1-0.2h0.3c0.3,0,0.9,0,1.1-0.1l0,0l0.1-0.1c0.2-0.7,0.2-1.5,0-2.2l-0.1-0.1
		l-0.1-0.1l-0.1-0.1l-0.1-0.1l-0.1-0.1l-0.1,0c-0.2-0.1-0.6-0.1-0.8-0.1l-0.1,0h-0.1c-0.4,0-0.8,0-1.3,0l-0.1,0h-0.3
		c-1.3,0-2.3,0.8-3.3,1.5l-0.2,0.2l-0.2,0.2l-0.2,0.2c-0.9,0.8-1.7,1.8-2.3,2.9l-0.1,0.1l-0.1,0.1l0,0.1c-0.2,0.4-0.3,1-0.3,1.5
		l0,0.1v0.1c0,0.2-0.1,0.6,0,0.8L17.7,113L17.7,113L17.7,113L17.7,113"/>
	<path class="st4" d="M25.7,107.6L25.7,107.6l-0.2,0h-0.2c-0.9-0.1-1.7,0.3-2.4,0.7l-0.2,0.1l-0.2,0.1l-0.2,0.1
		c-0.3,0.2-0.6,0.5-0.9,0.6l-0.1,0.1l-0.1,0.1l-0.1,0.1l-0.1,0l-0.1,0l-0.1,0h-0.1l-0.1,0l-0.1,0l-0.1,0l-0.1,0l-0.2-0.1l-0.1,0l0,0
		l0,0l0,0l0-0.1l0-0.1c0-0.2,0-0.5,0-0.7v-0.1l0-0.1l0-0.1v0l0,0v0l0,0l0,0l0-0.1l0-0.1c0.1-0.1,0.1-0.2,0.2-0.2l0.1-0.1l0.1-0.1
		l0.1-0.1l0.1,0l0.1-0.1c0.8-0.6,1.2-0.8,2.1-1.2l0.2-0.1l0.1,0c0.6-0.2,1.3-0.1,2-0.2l0.1,0h0.2l0.2,0l0.1,0c0.5,0,0.5,0.4,0.5,0.8
		l0,0.1l0,0.2c-0.1,0.3-0.1,0.7-0.4,0.8l0,0L25.7,107.6L25.7,107.6"/>
	<path class="st4" d="M42,103.3L42,103.3l0.2-0.1l0.2-0.1l0.1-0.1c0.2-0.2,0.2-0.5,0-0.8l-0.1-0.2c-0.3-0.3-0.6-0.5-1-0.5l-0.1,0
		l-0.1,0l-0.1,0c-1.3,0-3.6,1.2-4.2,2.4l0,0.2l0,0.1l0,0.1c0.5,1.2,1.9,0.4,2.7,0l0.2-0.1c0.9-0.4,1.2-0.6,2.2-0.7l0.1,0L42,103.3
		L42,103.3"/>
	<path class="st1" d="M38.4,110.3v-0.2c0.3-1.4,0.7-1.6,2.1-2.1l0.2,0l0.2,0l0.2,0c0.5-0.1,1.1-0.1,1.6,0l0.1,0l0.1,0l0.1,0l0.1,0
		l0,0l0,0l0,0v0l0,0l0,0l0,0l-0.1,0l-0.1,0h-0.1l-0.1,0c-0.9-0.1-2.5,0.5-3.1,1.1l-0.2,0.2c-0.2,0.3-0.3,0.5-0.5,0.7l0,0l0,0l0,0
		l-0.1,0l0,0l0,0h0l0,0l-0.1,0l0,0l0,0l0,0L38.4,110.3L38.4,110.3L38.4,110.3"/>
	<path class="st1" d="M39.1,110.1l0.1,0.1l0,0.1c0.3,0.4,0.7,1,1.3,0.9l0.1,0l0.1,0l0.1,0c0.3-0.1,0.4-0.2,0.5-0.5l0-0.1l0-0.1
		c0.1-0.3,0.2-0.6,0.1-0.9l0-0.1l0-0.2l0-0.1l0-0.1l0-0.1l0-0.1l0-0.1l0,0l0,0l-0.1-0.1l0,0l0,0l0,0h0c-0.1,0-0.4,0.2-0.5,0.2
		l-0.2,0.1l-0.1,0C39.8,109.2,39.3,109.7,39.1,110.1L39.1,110.1L39.1,110.1L39.1,110.1"/>
	<path class="st3" d="M39.7,109.5L39.7,109.5L39.7,109.5c0.1,0.8,1,1.1,1.1,0.2v-0.2l0-0.1c0-0.3-0.2-0.6-0.5-0.5l-0.2,0.1
		c-0.1,0-0.2,0.1-0.3,0.2l0,0l0,0c-0.1,0.1,0,0-0.1,0.1L39.7,109.5L39.7,109.5L39.7,109.5"/>
	<path class="st1" d="M45.7,134.5L45.7,134.5l-0.1,0.1l-0.1,0c-1.7,1.2-3.2,2.5-5.3,2.9l-0.2,0l-0.4,0.1l-0.2,0
		c-0.5,0.1-1,0.2-1.5,0.3l0,0l0,0c-0.3,0.3-0.2,0.7,0.2,1l0.1,0l0,0l0.1,0l0.1,0l0.1,0l0.1,0c1,0.1,1.9,0.1,2.9,0l0.2,0l0.2,0
		c0.9-0.2,1-0.3,1.7-0.9l0.1-0.1l0.1-0.1l0.1-0.1c0.1-0.2,2.8-3.2,2-3.2L45.7,134.5L45.7,134.5L45.7,134.5"/>
	<path class="st1" d="M26.6,129.6l0.1,0.1l0.1,0.1l0.1,0.1l0.1,0.1l0.2,0.2l0.2,0.2c0.5,0.6,1.1,1.1,1.6,1.7l0.1,0.1l0.1,0.1
		c0.4,0.5,1,0.8,1.6,1.2l0.3,0.2l0.3,0.1l0.3,0.1l0.3,0.1c0.8,0.3,1.7,0.7,2.6,1l0.1,0l0.1,0c0.8,0.1,1.7,0.3,2.5,0.4h0.5l0.3,0
		l0.3,0l0.2,0l0.2,0c0.7-0.1,1.4-0.2,2.2-0.4l0.2-0.1l0.2-0.1c0.6-0.2,1.3-0.6,1.9-0.9l0.2-0.1l0.2-0.1l0.2-0.1l0.2-0.1
		c0.6-0.4,1.1-0.7,1.5-1.3l0.2-0.2c0.6-0.8,1.2-1.8,1.6-2.6l0.2-0.4l0.1-0.1l0.2-0.6l0.1-0.3l0-0.1c0.3-0.8,0.6-1.7,0.8-2.5l0.1-0.2
		l0-0.2c0.1-0.7,0.1-1.4,0.1-2.1v-0.9c0.1-1.7-0.5-1.4-1.8-2.2l-0.2-0.1l-0.2-0.1l-0.1,0l-0.1,0c-1.9-0.2-1.7-0.7-2.8-2.3l-0.2-0.4
		l-0.1-0.2l-0.1-0.2c-0.6-0.8-1.4-1.6-2-2.4l-0.2-0.2l-0.2-0.2c-0.5-0.4-0.9-0.9-1.4-1.3l-0.2-0.2l-0.2-0.2l-0.1-0.1l-0.1-0.1
		l-0.1-0.1l-0.1-0.1l-0.1-0.1l-0.1-0.1c-0.7-0.6-1.7-0.8-1.9,0.3v0.1l0,0c0.1,0.3,0.4,0.4,0.7,0.6l0.1,0.1l0.1,0.1
		c0.4,0.3,0.7,0.8,1.1,1.1l0.2,0.1l0.1,0.1l0.1,0.1l0.1,0.1l0.1,0.1c1,0.8,2.1,2.2,2.8,3.3l0.1,0.2l0.1,0.2c0.6,0.7,1.1,2,0.2,2.7
		l-0.1,0.1l-0.2,0.2l-0.2,0.2l-0.2,0.1l-0.2,0.1l-0.1,0.1l-0.1,0.1c-0.5,0.2-0.7,0.2-1.2,0.2l-0.4,0c-0.9-0.1-1.8,0-2.7,0l-0.2,0
		l-0.2,0l-0.2,0l-0.2,0c-0.7,0.1-1.3,0.4-2,0.6l-0.2,0.1l-0.2,0.1c-0.7,0.3-1.2,0.4-1.9,0.7l-0.1,0l-0.1,0l-0.1,0l-0.1,0l-0.2,0.1
		l-0.2,0.1c-0.5,0.3-1,0.5-1.6,0.6l-0.4,0.1l-0.2,0c-0.7,0.2-0.8,0.1-1.4,0.6l-0.2,0.1l-0.3,0.2c-1.1,0.9-1.1,2.2-0.7,3.5l0,0.1
		l0,0.1l0,0.1L26.6,129.6"/>
	<path class="st5" d="M29.8,130.3l0,0.1l0.1,0.1l0.1,0.2l0.1,0.1c0.5,0.4,0.6,0.7,1.1,1.1l0.1,0.1l0.1,0.1c0.5,0.3,1,0.6,1.5,0.9
		l0.2,0.1l0.3,0.1c1.4,0.6,3,0.9,4.5,0.7l0.3,0l0.1,0l0.1,0l0.1,0l0.1,0c0.5-0.1,1-0.1,1.5-0.2l0.2,0l0.2,0c0.6-0.1,1.3-0.6,1.9-0.8
		l0.1-0.1l0.1-0.1l0.1-0.1c1.3-1.1,2.1-2.3,2.6-3.9l0-0.1l0-0.2l0-0.1l0-0.1l0-0.2l0-0.1v-0.1l0-0.1l0-0.1l0-0.1l0,0l0,0l0,0h-0.1
		l-0.1,0l-0.1,0l-0.2,0.1c-0.4,0.2-0.8,0.5-1.2,0.6l-0.1,0.1l-0.2,0.1l-0.2,0.1c-1.2,0.6-2.4,1.1-3.8,1.1l-0.3,0l-0.3,0l-0.3,0
		c-1.8,0.1-3.4,0.1-5.2,0.1h-0.2l-0.4,0h-0.2c-0.7,0-1.4-0.1-2.2-0.1l-0.1,0h-0.1c-0.3,0-0.5,0-0.5,0.4l0,0.1l0,0.2l0,0.1
		L29.8,130.3"/>
	<path class="st4" d="M28.9,127.7L28.9,127.7l0-0.1l0-0.1l0-0.1c0.1-0.4,0.4-0.6,0.7-0.8l0.2-0.1l0.2-0.1c0.7-0.3,1.4-0.4,2.1-0.8
		l0.5-0.2l0.2-0.1l0.1,0l0.1,0c0.7-0.2,1.3-0.4,1.9-0.6l0.2-0.1l0.2-0.1c0.6-0.3,1.7-0.6,2.4-0.6h0.2l0.6,0.1l0.2,0h0.2l0.2,0
		c0.6,0,1.5-0.4,2-0.6l0.2-0.1l0.2-0.1c0.6-0.4,1.1-0.8,1.7-1.2l0.2-0.1l0.1,0c0.9-0.4,2.6-0.1,3.2,0.6l0.2,0.2l0.1,0.1l0.1,0.1
		l0.1,0.1l0.2,0.2l0.1,0.1c0.1,0.2,0.3,0.4,0.2,0.6l0,0.1c-0.3,0.4-0.8,0.7-1.2,0.9l-0.2,0.1l-0.2,0.1l-0.2,0.1
		c-2,1.3-3.9,1.8-6.1,2.6l-0.4,0.1l-0.2,0l-0.2,0l-0.4,0.1c-0.9,0.1-1.8,0.2-2.7,0.3l-0.2,0l-0.2,0c-1.1,0.1-2.3-0.1-3.5,0H32
		l-0.2,0h-0.2l-0.2,0c-0.6,0-1.2,0-1.7-0.1l-0.1,0l-0.1,0c-0.1-0.1-0.4-0.1-0.4-0.3l0-0.1L28.9,127.7L28.9,127.7L28.9,127.7"/>
	<path class="st4" d="M5.7,124.3l0-0.1l0-0.1l0-0.2l0-0.2l0-0.3l0-0.2c-0.2-1.2-0.2-1.3-0.9-2.3l-0.1-0.2l0-0.1
		c-0.3-0.7-0.5-1.8-0.6-2.5l0-0.2l0-0.5l0-0.5v-0.2c0-1.2,0.1-2.4,0.1-3.6v-0.5c0-1.3-0.1-2.7,0.1-4l0-0.2l0.1-0.6l0-0.2l0-0.2
		l0-0.2l0-0.2c0.1-1,0.2-2.4,0.7-3.3l0.1-0.1l0.1-0.2c1-1.4,1.8-2.8,2.9-4.1L8,99.1L8.2,99l0.1-0.2c0.9-1,1.9-1.8,2.9-2.8l0.3-0.3
		l0.3-0.3c1.2-1.2,2.2-2,3.5-2.9l0.3-0.2l0.5-0.4l0.3-0.2l0.1-0.1l0.1-0.1l0.2-0.2c1.2-1,2.4-1.9,3.6-2.9l0.4-0.4l0.1-0.1
		c0.4-0.3,0.8-0.6,1.3-0.8l0.3-0.2l0.3-0.2c0.6-0.3,1.1-0.6,1.7-0.8l0.3-0.1l0.2-0.1l1.5-0.6l0.5-0.2c0.4-0.2,0.8-0.3,1.2-0.4l0.1,0
		l0.1,0c0.4-0.1,0.9,0,1.3-0.1l0.3,0l0.3,0l0.3,0c1.4-0.3,2.8-0.4,4.2,0l0.2,0.1l0.2,0.1l0.4,0.2l0.1,0.1l0.2,0.1
		c0.4,0.2,0.7,0.3,1.1,0.4l0.1,0.1l0.1,0.1c0.4,0.3,0.9,0.7,1.3,1l0.1,0.1l0.1,0.1l0.1,0.1c0.6,0.9,0.8,2,1.1,3l0,0.1l0,0.1l0.1,0.2
		l0.1,0.2l0.1,0.2c0.2,0.3,0.4,0.5,0.6,0.8l0.2,0.3l0.1,0.1c0.1,0.2,0.3,0.3,0.3,0.5l0,0.1l0,0.1l0,0.1c0.2,1.1,0.2,1.6,0.1,2.8
		l0,0.2l0,0.2v0.6l0,0.1l0,0.3l0,0.5c0,0.3,0.2,1.3-0.4,1.3h-0.1l-0.1,0c-0.5-0.1-1.1-1.1-1.5-1.4l-0.1-0.1l-0.1-0.1L39,96.7
		c-0.6-0.1-1.2,0.2-1.6,0.5l-0.1,0.1l-0.1,0.1c-0.6,0.7-0.5,0.9-1.5,1.1l-0.2,0l-0.2,0l-0.2,0l-0.2,0l-0.4,0
		c-0.9,0.2-1.8,0.2-2.6,0.5l-0.1,0l-0.1,0c-1.1,0.4-2.3,0.4-3.5,0.6l-0.1,0l-0.1,0l-0.1,0l-0.2,0c-1.4,0.3-2.4,0.2-3.7,0.3l-0.2,0
		l-0.2,0c-1.3,0.1-2.4,0.6-3.6,1.1l-0.2,0.1l-0.2,0.1l-0.3,0.1l-0.3,0.1l-0.3,0.2l-0.1,0.1l-0.1,0.1l-0.1,0.1c-0.9,0.6-1.4,1.1-2,2
		l-0.1,0.1l-0.1,0.1c-1,1.5-2.1,2.6-3.2,4l-0.1,0.2l-0.1,0.1l-0.2,0.3c-1,1.1-1.4,2.2-2.1,3.5l-0.2,0.4c-0.4,0.8-0.6,2.2-0.7,3.1
		l0,0.1l0,0.1l0,0.3l0,0.5v0.3c0,0.3,0,0.6,0.1,0.9l0.1,0.6l0.1,0.6c0.1,0.7,0.1,1.4,0.2,2.1l0,0.1l0,0.2l0,0.1c0,0.2,0,0.5,0.1,0.7
		l0,0.1l0,0.1c0.1,0.3,0.2,0.5,0.3,0.8l0,0.1v0.2l0,0.1l0,0.1c-0.3,0.9-1,0.8-1.8,1l-0.2,0l-0.2,0c-0.4,0-1.8,0.2-2-0.4l0,0l0-0.1
		l0-0.1l0-0.1L5.7,124.3"/>
	<path class="st1" d="M20.8,116.9L20.8,116.9l-0.1-0.2l0-0.1c-0.3-1.6,2.2-3.5,3.4-4.2l0.2-0.1l0.2-0.1c0.4-0.3,3.3-0.9,3.1,0.2
		l0,0.1v0.1l0,0.1l0,0.1c-0.5,1.1-3.3,1.1-4.1,2l-0.1,0.1l-0.1,0.2l-0.1,0.2c-0.4,0.5-0.6,0.9-0.9,1.4l-0.1,0.1l-0.1,0.1l-0.1,0.1
		l0,0l-0.1,0h-0.1l-0.1,0h-0.2l-0.2,0l-0.1,0l-0.1,0L20.8,116.9L20.8,116.9"/>
</g>
<polyline class="st6" points="81,123.6 55.5,116.9 81,93.3 "/>
<g>
	<rect x="89.9" y="17.8" class="st7" width="289.1" height="168.3"/>
	<path d="M90.8,18.3c0.5-0.1,1.3-0.2,2-0.2c1.1,0,1.8,0.2,2.3,0.7c0.4,0.4,0.6,0.9,0.6,1.5c0,1.1-0.7,1.8-1.5,2.1v0
		c0.6,0.2,1,0.8,1.2,1.6c0.3,1.1,0.5,1.9,0.6,2.2H95c-0.1-0.2-0.3-0.9-0.5-1.9c-0.2-1.1-0.7-1.5-1.6-1.6h-1v3.5h-1V18.3z M91.9,22
		H93c1.1,0,1.8-0.6,1.8-1.5c0-1-0.8-1.5-1.9-1.5c-0.5,0-0.9,0-1,0.1V22z"/>
	<path d="M97.9,23.6c0,1.4,0.9,2,2,2c0.8,0,1.2-0.1,1.6-0.3l0.2,0.8c-0.4,0.2-1,0.4-1.9,0.4c-1.8,0-2.9-1.2-2.9-2.9s1-3.1,2.7-3.1
		c1.9,0,2.4,1.7,2.4,2.7c0,0.2,0,0.4,0,0.5H97.9z M101,22.8c0-0.7-0.3-1.7-1.5-1.7c-1.1,0-1.5,1-1.6,1.7H101z"/>
	<path d="M103.3,22.1c0-0.6,0-1.1,0-1.6h0.9l0.1,1h0c0.3-0.6,1-1.1,1.9-1.1c0.8,0,2.1,0.5,2.1,2.5v3.5h-1.1V23
		c0-0.9-0.3-1.7-1.3-1.7c-0.7,0-1.2,0.5-1.4,1.1c0,0.1-0.1,0.3-0.1,0.5v3.5h-1.1V22.1z"/>
	<path d="M111.2,18.8v1.7h1.5v0.8h-1.5v3.1c0,0.7,0.2,1.1,0.8,1.1c0.3,0,0.5,0,0.6-0.1l0,0.8c-0.2,0.1-0.5,0.1-0.9,0.1
		c-0.5,0-0.9-0.2-1.1-0.4c-0.3-0.3-0.4-0.8-0.4-1.5v-3.2h-0.9v-0.8h0.9v-1.4L111.2,18.8z"/>
	<path d="M119.7,26.3l-0.1-0.7h0c-0.3,0.5-0.9,0.9-1.8,0.9c-1.2,0-1.8-0.8-1.8-1.7c0-1.4,1.2-2.2,3.5-2.2v-0.1
		c0-0.5-0.1-1.3-1.3-1.3c-0.5,0-1.1,0.2-1.5,0.4l-0.2-0.7c0.5-0.3,1.2-0.5,1.9-0.5c1.8,0,2.2,1.2,2.2,2.4v2.2c0,0.5,0,1,0.1,1.4
		H119.7z M119.5,23.3c-1.2,0-2.5,0.2-2.5,1.3c0,0.7,0.5,1,1,1c0.8,0,1.2-0.5,1.4-1c0-0.1,0.1-0.2,0.1-0.3V23.3z"/>
	<path d="M124.8,18.3c0.5-0.1,1.2-0.2,1.9-0.2c1,0,1.7,0.2,2.2,0.6c0.4,0.3,0.7,0.8,0.7,1.4c0,0.8-0.5,1.5-1.4,1.8v0
		c0.8,0.2,1.7,0.8,1.7,2c0,0.7-0.3,1.2-0.7,1.6c-0.6,0.5-1.5,0.8-2.8,0.8c-0.7,0-1.3,0-1.6-0.1V18.3z M125.9,21.6h0.9
		c1.1,0,1.8-0.6,1.8-1.4c0-0.9-0.7-1.3-1.8-1.3c-0.5,0-0.8,0-0.9,0.1V21.6z M125.9,25.5c0.2,0,0.5,0,0.9,0c1.1,0,2.1-0.4,2.1-1.6
		c0-1.1-0.9-1.6-2.1-1.6h-0.9V25.5z"/>
	<path d="M132.5,18.9c0,0.4-0.3,0.6-0.7,0.6c-0.4,0-0.6-0.3-0.6-0.6c0-0.4,0.3-0.7,0.7-0.7C132.2,18.2,132.5,18.5,132.5,18.9z
		 M131.3,26.3v-5.8h1.1v5.8H131.3z"/>
	<path d="M135.1,23.2L135.1,23.2c0.2-0.2,0.4-0.5,0.5-0.7l1.7-2h1.3l-2.2,2.4l2.6,3.4h-1.3l-2-2.8l-0.5,0.6v2.2h-1v-8.5h1V23.2z"/>
	<path d="M140.3,23.6c0,1.4,0.9,2,2,2c0.8,0,1.2-0.1,1.6-0.3l0.2,0.8c-0.4,0.2-1,0.4-1.9,0.4c-1.8,0-2.9-1.2-2.9-2.9s1-3.1,2.7-3.1
		c1.9,0,2.4,1.7,2.4,2.7c0,0.2,0,0.4,0,0.5H140.3z M143.4,22.8c0-0.7-0.3-1.7-1.5-1.7c-1.1,0-1.5,1-1.6,1.7H143.4z"/>
	<path d="M148.3,18.3c0.6-0.1,1.4-0.2,2.2-0.2c1.5,0,2.6,0.3,3.3,1c0.7,0.7,1.1,1.6,1.1,2.9c0,1.3-0.4,2.4-1.2,3.1
		c-0.8,0.8-2,1.2-3.6,1.2c-0.7,0-1.4,0-1.9-0.1V18.3z M149.4,25.5c0.3,0,0.6,0.1,1.1,0.1c2.2,0,3.4-1.2,3.4-3.4
		c0-1.9-1.1-3.1-3.3-3.1c-0.5,0-0.9,0-1.2,0.1V25.5z"/>
	<path d="M159.5,26.3l-0.1-0.7h0c-0.3,0.5-0.9,0.9-1.8,0.9c-1.2,0-1.8-0.8-1.8-1.7c0-1.4,1.2-2.2,3.5-2.2v-0.1
		c0-0.5-0.1-1.3-1.3-1.3c-0.5,0-1.1,0.2-1.5,0.4l-0.2-0.7c0.5-0.3,1.2-0.5,1.9-0.5c1.8,0,2.2,1.2,2.2,2.4v2.2c0,0.5,0,1,0.1,1.4
		H159.5z M159.3,23.3c-1.2,0-2.5,0.2-2.5,1.3c0,0.7,0.5,1,1,1c0.8,0,1.2-0.5,1.4-1c0-0.1,0.1-0.2,0.1-0.3V23.3z"/>
	<path d="M162.1,22.1c0-0.6,0-1.1,0-1.6h0.9l0,0.9h0c0.3-0.6,0.9-1.1,1.8-1.1c0.8,0,1.4,0.5,1.6,1.2h0c0.2-0.3,0.4-0.6,0.6-0.8
		c0.3-0.3,0.7-0.4,1.3-0.4c0.8,0,1.9,0.5,1.9,2.5v3.4h-1V23c0-1.1-0.4-1.8-1.3-1.8c-0.6,0-1.1,0.4-1.2,1c0,0.1-0.1,0.3-0.1,0.5v3.6
		h-1v-3.5c0-0.9-0.4-1.6-1.2-1.6c-0.7,0-1.1,0.5-1.3,1.1c-0.1,0.2-0.1,0.3-0.1,0.5v3.5h-1V22.1z"/>
	<path d="M171.9,25.2c0.3,0.2,0.9,0.4,1.4,0.4c0.8,0,1.1-0.4,1.1-0.9c0-0.5-0.3-0.8-1.1-1.1c-1-0.4-1.5-0.9-1.5-1.6
		c0-0.9,0.8-1.7,2-1.7c0.6,0,1.1,0.2,1.4,0.4l-0.3,0.8c-0.2-0.1-0.6-0.3-1.2-0.3c-0.6,0-1,0.4-1,0.8c0,0.5,0.3,0.7,1.1,1
		c1,0.4,1.5,0.9,1.5,1.8c0,1-0.8,1.7-2.2,1.7c-0.6,0-1.2-0.2-1.6-0.4L171.9,25.2z"/>
	<path d="M178.1,18.8v1.7h1.5v0.8h-1.5v3.1c0,0.7,0.2,1.1,0.8,1.1c0.3,0,0.5,0,0.6-0.1l0,0.8c-0.2,0.1-0.5,0.1-0.9,0.1
		c-0.5,0-0.9-0.2-1.1-0.4c-0.3-0.3-0.4-0.8-0.4-1.5v-3.2h-0.9v-0.8h0.9v-1.4L178.1,18.8z"/>
	<path d="M180.8,22.3c0-0.7,0-1.3,0-1.8h0.9l0,1.1h0c0.3-0.8,0.9-1.3,1.6-1.3c0.1,0,0.2,0,0.3,0v1c-0.1,0-0.2,0-0.4,0
		c-0.7,0-1.3,0.6-1.4,1.4c0,0.1,0,0.3,0,0.5v3.1h-1V22.3z"/>
	<path d="M187.9,26.3l-0.1-0.7h0c-0.3,0.5-0.9,0.9-1.8,0.9c-1.2,0-1.8-0.8-1.8-1.7c0-1.4,1.2-2.2,3.5-2.2v-0.1
		c0-0.5-0.1-1.3-1.3-1.3c-0.5,0-1.1,0.2-1.5,0.4l-0.2-0.7c0.5-0.3,1.2-0.5,1.9-0.5c1.8,0,2.2,1.2,2.2,2.4v2.2c0,0.5,0,1,0.1,1.4
		H187.9z M187.7,23.3c-1.2,0-2.5,0.2-2.5,1.3c0,0.7,0.5,1,1,1c0.8,0,1.2-0.5,1.4-1c0-0.1,0.1-0.2,0.1-0.3V23.3z"/>
	<path d="M193.7,26.3l-0.1-0.7h0c-0.3,0.5-0.9,0.9-1.8,0.9c-1.2,0-1.8-0.8-1.8-1.7c0-1.4,1.2-2.2,3.5-2.2v-0.1
		c0-0.5-0.1-1.3-1.3-1.3c-0.5,0-1.1,0.2-1.5,0.4l-0.2-0.7c0.5-0.3,1.2-0.5,1.9-0.5c1.8,0,2.2,1.2,2.2,2.4v2.2c0,0.5,0,1,0.1,1.4
		H193.7z M193.5,23.3c-1.2,0-2.5,0.2-2.5,1.3c0,0.7,0.5,1,1,1c0.8,0,1.2-0.5,1.4-1c0-0.1,0.1-0.2,0.1-0.3V23.3z"/>
	<path d="M197.4,18.8v1.7h1.5v0.8h-1.5v3.1c0,0.7,0.2,1.1,0.8,1.1c0.3,0,0.5,0,0.6-0.1l0,0.8c-0.2,0.1-0.5,0.1-0.9,0.1
		c-0.5,0-0.9-0.2-1.1-0.4c-0.3-0.3-0.4-0.8-0.4-1.5v-3.2h-0.9v-0.8h0.9v-1.4L197.4,18.8z"/>
	<path d="M202.7,22.4c0-0.7,0-1.3,0-1.9h0.9l0,1h0c0.4-0.7,1.1-1.1,2.1-1.1c1.4,0,2.5,1.2,2.5,3c0,2.1-1.3,3.1-2.6,3.1
		c-0.8,0-1.4-0.3-1.8-0.9h0v3.2h-1V22.4z M203.7,23.9c0,0.2,0,0.3,0,0.4c0.2,0.7,0.8,1.2,1.6,1.2c1.1,0,1.8-0.9,1.8-2.2
		c0-1.2-0.6-2.2-1.7-2.2c-0.7,0-1.4,0.5-1.6,1.3c0,0.1-0.1,0.3-0.1,0.4V23.9z"/>
	<path d="M209.5,22.3c0-0.7,0-1.3,0-1.8h0.9l0,1.1h0c0.3-0.8,0.9-1.3,1.6-1.3c0.1,0,0.2,0,0.3,0v1c-0.1,0-0.2,0-0.4,0
		c-0.7,0-1.3,0.6-1.4,1.4c0,0.1,0,0.3,0,0.5v3.1h-1V22.3z"/>
	<path d="M218.6,23.4c0,2.1-1.5,3.1-2.9,3.1c-1.6,0-2.8-1.2-2.8-3c0-1.9,1.3-3.1,2.9-3.1C217.4,20.4,218.6,21.6,218.6,23.4z
		 M214,23.4c0,1.3,0.7,2.2,1.8,2.2c1,0,1.8-0.9,1.8-2.3c0-1-0.5-2.2-1.7-2.2S214,22.3,214,23.4z"/>
	<path d="M220.2,20.5l1.1,3.3c0.2,0.5,0.3,1,0.5,1.5h0c0.1-0.5,0.3-1,0.5-1.5l1.1-3.3h1.1l-2.3,5.8h-1l-2.2-5.8H220.2z"/>
	<path d="M226.8,18.9c0,0.4-0.3,0.6-0.7,0.6c-0.4,0-0.6-0.3-0.6-0.6c0-0.4,0.3-0.7,0.7-0.7C226.5,18.2,226.8,18.5,226.8,18.9z
		 M225.6,26.3v-5.8h1.1v5.8H225.6z"/>
	<path d="M233.4,17.8v7c0,0.5,0,1.1,0,1.5h-0.9l0-1h0c-0.3,0.6-1,1.1-2,1.1c-1.4,0-2.5-1.2-2.5-3c0-1.9,1.2-3.1,2.6-3.1
		c0.9,0,1.5,0.4,1.8,0.9h0v-3.5H233.4z M232.4,22.9c0-0.1,0-0.3,0-0.4c-0.2-0.7-0.7-1.2-1.5-1.2c-1.1,0-1.7,1-1.7,2.2
		c0,1.2,0.6,2.1,1.7,2.1c0.7,0,1.4-0.5,1.5-1.3c0-0.1,0-0.3,0-0.5V22.9z"/>
	<path d="M235.8,23.6c0,1.4,0.9,2,2,2c0.8,0,1.2-0.1,1.6-0.3l0.2,0.8c-0.4,0.2-1,0.4-1.9,0.4c-1.8,0-2.9-1.2-2.9-2.9s1-3.1,2.7-3.1
		c1.9,0,2.4,1.7,2.4,2.7c0,0.2,0,0.4,0,0.5H235.8z M238.9,22.8c0-0.7-0.3-1.7-1.5-1.7c-1.1,0-1.5,1-1.6,1.7H238.9z"/>
	<path d="M241,25.2c0.3,0.2,0.9,0.4,1.4,0.4c0.8,0,1.1-0.4,1.1-0.9c0-0.5-0.3-0.8-1.1-1.1c-1-0.4-1.5-0.9-1.5-1.6
		c0-0.9,0.8-1.7,2-1.7c0.6,0,1.1,0.2,1.4,0.4l-0.3,0.8c-0.2-0.1-0.6-0.3-1.2-0.3c-0.6,0-1,0.4-1,0.8c0,0.5,0.3,0.7,1.1,1
		c1,0.4,1.5,0.9,1.5,1.8c0,1-0.8,1.7-2.2,1.7c-0.6,0-1.2-0.2-1.6-0.4L241,25.2z"/>
	<path d="M253.7,23.4c0,2.1-1.5,3.1-2.9,3.1c-1.6,0-2.8-1.2-2.8-3c0-1.9,1.3-3.1,2.9-3.1C252.6,20.4,253.7,21.6,253.7,23.4z
		 M249.1,23.4c0,1.3,0.7,2.2,1.8,2.2c1,0,1.8-0.9,1.8-2.3c0-1-0.5-2.2-1.7-2.2S249.1,22.3,249.1,23.4z"/>
	<path d="M255.1,22.1c0-0.6,0-1.1,0-1.6h0.9l0.1,1h0c0.3-0.6,1-1.1,1.9-1.1c0.8,0,2.1,0.5,2.1,2.5v3.5H259V23c0-0.9-0.3-1.7-1.3-1.7
		c-0.7,0-1.2,0.5-1.4,1.1c0,0.1-0.1,0.3-0.1,0.5v3.5h-1.1V22.1z"/>
	<path d="M264.1,25.2c0.3,0.2,0.9,0.4,1.4,0.4c0.8,0,1.1-0.4,1.1-0.9c0-0.5-0.3-0.8-1.1-1.1c-1-0.4-1.5-0.9-1.5-1.6
		c0-0.9,0.8-1.7,2-1.7c0.6,0,1.1,0.2,1.4,0.4l-0.3,0.8c-0.2-0.1-0.6-0.3-1.2-0.3c-0.6,0-1,0.4-1,0.8c0,0.5,0.3,0.7,1.1,1
		c1,0.4,1.5,0.9,1.5,1.8c0,1-0.8,1.7-2.2,1.7c-0.6,0-1.2-0.2-1.6-0.4L264.1,25.2z"/>
	<path d="M270.2,18.9c0,0.4-0.3,0.6-0.7,0.6c-0.4,0-0.6-0.3-0.6-0.6c0-0.4,0.3-0.7,0.7-0.7C269.9,18.2,270.2,18.5,270.2,18.9z
		 M269,26.3v-5.8h1.1v5.8H269z"/>
	<path d="M273.1,18.8v1.7h1.5v0.8h-1.5v3.1c0,0.7,0.2,1.1,0.8,1.1c0.3,0,0.5,0,0.6-0.1l0,0.8c-0.2,0.1-0.5,0.1-0.9,0.1
		c-0.5,0-0.9-0.2-1.1-0.4c-0.3-0.3-0.4-0.8-0.4-1.5v-3.2h-0.9v-0.8h0.9v-1.4L273.1,18.8z"/>
	<path d="M276.3,23.6c0,1.4,0.9,2,2,2c0.8,0,1.2-0.1,1.6-0.3l0.2,0.8c-0.4,0.2-1,0.4-1.9,0.4c-1.8,0-2.9-1.2-2.9-2.9s1-3.1,2.7-3.1
		c1.9,0,2.4,1.7,2.4,2.7c0,0.2,0,0.4,0,0.5H276.3z M279.4,22.8c0-0.7-0.3-1.7-1.5-1.7c-1.1,0-1.5,1-1.6,1.7H279.4z"/>
	<path d="M289.3,17.8v7c0,0.5,0,1.1,0,1.5h-0.9l0-1h0c-0.3,0.6-1,1.1-2,1.1c-1.4,0-2.5-1.2-2.5-3c0-1.9,1.2-3.1,2.6-3.1
		c0.9,0,1.5,0.4,1.8,0.9h0v-3.5H289.3z M288.2,22.9c0-0.1,0-0.3,0-0.4c-0.2-0.7-0.7-1.2-1.5-1.2c-1.1,0-1.7,1-1.7,2.2
		c0,1.2,0.6,2.1,1.7,2.1c0.7,0,1.4-0.5,1.5-1.3c0-0.1,0-0.3,0-0.5V22.9z"/>
	<path d="M291.6,23.6c0,1.4,0.9,2,2,2c0.8,0,1.2-0.1,1.6-0.3l0.2,0.8c-0.4,0.2-1,0.4-1.9,0.4c-1.8,0-2.9-1.2-2.9-2.9s1-3.1,2.7-3.1
		c1.9,0,2.4,1.7,2.4,2.7c0,0.2,0,0.4,0,0.5H291.6z M294.7,22.8c0-0.7-0.3-1.7-1.5-1.7c-1.1,0-1.5,1-1.6,1.7H294.7z"/>
	<path d="M297.1,17.8h1.1v8.5h-1.1V17.8z"/>
	<path d="M301.1,18.9c0,0.4-0.3,0.6-0.7,0.6c-0.4,0-0.6-0.3-0.6-0.6c0-0.4,0.3-0.7,0.7-0.7C300.8,18.2,301.1,18.5,301.1,18.9z
		 M299.9,26.3v-5.8h1.1v5.8H299.9z"/>
	<path d="M303.1,20.5l1.1,3.3c0.2,0.5,0.3,1,0.5,1.5h0c0.1-0.5,0.3-1,0.5-1.5l1.1-3.3h1.1l-2.3,5.8h-1l-2.2-5.8H303.1z"/>
	<path d="M308.9,23.6c0,1.4,0.9,2,2,2c0.8,0,1.2-0.1,1.6-0.3l0.2,0.8c-0.4,0.2-1,0.4-1.9,0.4c-1.8,0-2.9-1.2-2.9-2.9s1-3.1,2.7-3.1
		c1.9,0,2.4,1.7,2.4,2.7c0,0.2,0,0.4,0,0.5H308.9z M312,22.8c0-0.7-0.3-1.7-1.5-1.7c-1.1,0-1.5,1-1.6,1.7H312z"/>
	<path d="M314.4,22.3c0-0.7,0-1.3,0-1.8h0.9l0,1.1h0c0.3-0.8,0.9-1.3,1.6-1.3c0.1,0,0.2,0,0.3,0v1c-0.1,0-0.2,0-0.4,0
		c-0.7,0-1.3,0.6-1.4,1.4c0,0.1,0,0.3,0,0.5v3.1h-1V22.3z"/>
	<path d="M319.5,18.9c0,0.4-0.3,0.6-0.7,0.6c-0.4,0-0.6-0.3-0.6-0.6c0-0.4,0.3-0.7,0.7-0.7C319.3,18.2,319.5,18.5,319.5,18.9z
		 M318.3,26.3v-5.8h1.1v5.8H318.3z"/>
	<path d="M321.7,23.6c0,1.4,0.9,2,2,2c0.8,0,1.2-0.1,1.6-0.3l0.2,0.8c-0.4,0.2-1,0.4-1.9,0.4c-1.8,0-2.9-1.2-2.9-2.9s1-3.1,2.7-3.1
		c1.9,0,2.4,1.7,2.4,2.7c0,0.2,0,0.4,0,0.5H321.7z M324.8,22.8c0-0.7-0.3-1.7-1.5-1.7c-1.1,0-1.5,1-1.6,1.7H324.8z"/>
	<path d="M327,25.2c0.3,0.2,0.9,0.4,1.4,0.4c0.8,0,1.1-0.4,1.1-0.9c0-0.5-0.3-0.8-1.1-1.1c-1-0.4-1.5-0.9-1.5-1.6
		c0-0.9,0.8-1.7,2-1.7c0.6,0,1.1,0.2,1.4,0.4l-0.3,0.8c-0.2-0.1-0.6-0.3-1.2-0.3c-0.6,0-1,0.4-1,0.8c0,0.5,0.3,0.7,1.1,1
		c1,0.4,1.5,0.9,1.5,1.8c0,1-0.8,1.7-2.2,1.7c-0.6,0-1.2-0.2-1.6-0.4L327,25.2z"/>
	<path d="M334.6,26.3v-5h-0.8v-0.8h0.8v-0.3c0-0.8,0.2-1.6,0.7-2c0.4-0.4,0.9-0.5,1.4-0.5c0.4,0,0.7,0.1,0.9,0.2l-0.1,0.8
		c-0.2-0.1-0.4-0.1-0.7-0.1c-0.9,0-1.1,0.8-1.1,1.7v0.3h1.4v0.8h-1.4v5H334.6z"/>
	<path d="M343.1,23.4c0,2.1-1.5,3.1-2.9,3.1c-1.6,0-2.8-1.2-2.8-3c0-1.9,1.3-3.1,2.9-3.1C341.9,20.4,343.1,21.6,343.1,23.4z
		 M338.5,23.4c0,1.3,0.7,2.2,1.8,2.2c1,0,1.8-0.9,1.8-2.3c0-1-0.5-2.2-1.7-2.2S338.5,22.3,338.5,23.4z"/>
	<path d="M344.4,22.3c0-0.7,0-1.3,0-1.8h0.9l0,1.1h0c0.3-0.8,0.9-1.3,1.6-1.3c0.1,0,0.2,0,0.3,0v1c-0.1,0-0.2,0-0.4,0
		c-0.7,0-1.3,0.6-1.4,1.4c0,0.1,0,0.3,0,0.5v3.1h-1V22.3z"/>
	<path d="M95.8,34.9c0,0.4,0,0.9,0,1.6v3.4c0,1.3-0.3,2.1-0.8,2.7c-0.6,0.5-1.4,0.7-2.1,0.7c-0.7,0-1.5-0.2-1.9-0.5l0.3-0.8
		c0.4,0.2,1,0.5,1.7,0.5c1.1,0,1.9-0.6,1.9-2v-0.6h0c-0.3,0.5-0.9,1-1.8,1c-1.4,0-2.5-1.2-2.5-2.8c0-2,1.3-3.1,2.6-3.1
		c1,0,1.6,0.5,1.8,1h0l0-0.9H95.8z M94.7,37.2c0-0.2,0-0.3-0.1-0.5c-0.2-0.6-0.7-1.1-1.5-1.1c-1,0-1.7,0.9-1.7,2.2
		c0,1.1,0.6,2.1,1.7,2.1c0.6,0,1.2-0.4,1.5-1.1c0.1-0.2,0.1-0.4,0.1-0.6V37.2z"/>
	<path d="M97.5,36.7c0-0.7,0-1.3,0-1.8h0.9l0,1.1h0c0.3-0.8,0.9-1.3,1.6-1.3c0.1,0,0.2,0,0.3,0v1c-0.1,0-0.2,0-0.4,0
		c-0.7,0-1.3,0.6-1.4,1.4c0,0.1,0,0.3,0,0.5v3.1h-1V36.7z"/>
	<path d="M106.5,37.8c0,2.1-1.5,3.1-2.9,3.1c-1.6,0-2.8-1.2-2.8-3c0-1.9,1.3-3.1,2.9-3.1C105.4,34.8,106.5,36,106.5,37.8z
		 M101.9,37.8c0,1.3,0.7,2.2,1.8,2.2c1,0,1.8-0.9,1.8-2.3c0-1-0.5-2.2-1.7-2.2S101.9,36.7,101.9,37.8z"/>
	<path d="M112.7,39.1c0,0.6,0,1.1,0,1.6h-0.9l-0.1-0.9h0c-0.3,0.5-0.9,1.1-1.9,1.1c-0.9,0-2-0.5-2-2.5v-3.4h1.1v3.2
		c0,1.1,0.3,1.8,1.3,1.8c0.7,0,1.2-0.5,1.4-1c0.1-0.2,0.1-0.3,0.1-0.5v-3.6h1.1V39.1z"/>
	<path d="M114.5,36.8c0-0.7,0-1.3,0-1.9h0.9l0,1h0c0.4-0.7,1.1-1.1,2.1-1.1c1.4,0,2.5,1.2,2.5,3c0,2.1-1.3,3.1-2.6,3.1
		c-0.8,0-1.4-0.3-1.8-0.9h0v3.2h-1V36.8z M115.5,38.3c0,0.2,0,0.3,0,0.4c0.2,0.7,0.8,1.2,1.6,1.2c1.1,0,1.8-0.9,1.8-2.2
		c0-1.2-0.6-2.2-1.7-2.2c-0.7,0-1.4,0.5-1.6,1.3c0,0.1-0.1,0.3-0.1,0.4V38.3z"/>
	<path d="M121.1,39.6c0.3,0.2,0.9,0.4,1.4,0.4c0.8,0,1.1-0.4,1.1-0.9c0-0.5-0.3-0.8-1.1-1.1c-1-0.4-1.5-0.9-1.5-1.6
		c0-0.9,0.8-1.7,2-1.7c0.6,0,1.1,0.2,1.4,0.4l-0.3,0.8c-0.2-0.1-0.6-0.3-1.2-0.3c-0.6,0-1,0.4-1,0.8c0,0.5,0.3,0.7,1.1,1
		c1,0.4,1.5,0.9,1.5,1.8c0,1-0.8,1.7-2.2,1.7c-0.6,0-1.2-0.2-1.6-0.4L121.1,39.6z"/>
	<path d="M125.2,42.2c0.3-0.7,0.6-2,0.7-2.9l1.2-0.1c-0.3,1-0.8,2.4-1.1,2.9L125.2,42.2z"/>
	<path d="M131.5,38c0,1.4,0.9,2,2,2c0.8,0,1.2-0.1,1.6-0.3l0.2,0.8c-0.4,0.2-1,0.4-1.9,0.4c-1.8,0-2.9-1.2-2.9-2.9s1-3.1,2.7-3.1
		c1.9,0,2.4,1.7,2.4,2.7c0,0.2,0,0.4,0,0.5H131.5z M134.6,37.2c0-0.7-0.3-1.7-1.5-1.7c-1.1,0-1.5,1-1.6,1.7H134.6z"/>
	<path d="M137.4,34.9l0.8,1.2c0.2,0.3,0.4,0.6,0.6,0.9h0c0.2-0.3,0.4-0.6,0.6-1l0.8-1.2h1.1l-2,2.8l2,3h-1.2l-0.9-1.3
		c-0.2-0.3-0.4-0.7-0.6-1h0c-0.2,0.3-0.4,0.7-0.6,1l-0.8,1.3h-1.2l2.1-3l-2-2.8H137.4z"/>
	<path d="M146.4,40.5c-0.3,0.1-0.9,0.3-1.7,0.3c-1.8,0-2.9-1.2-2.9-3c0-1.8,1.2-3.1,3.1-3.1c0.6,0,1.2,0.2,1.5,0.3l-0.2,0.8
		c-0.3-0.1-0.6-0.3-1.2-0.3c-1.3,0-2.1,1-2.1,2.2c0,1.3,0.9,2.2,2,2.2c0.6,0,1-0.2,1.3-0.3L146.4,40.5z"/>
	<path d="M152.5,39.1c0,0.6,0,1.1,0,1.6h-0.9l-0.1-0.9h0c-0.3,0.5-0.9,1.1-1.9,1.1c-0.9,0-2-0.5-2-2.5v-3.4h1.1v3.2
		c0,1.1,0.3,1.8,1.3,1.8c0.7,0,1.2-0.5,1.4-1c0.1-0.2,0.1-0.3,0.1-0.5v-3.6h1.1V39.1z"/>
	<path d="M154.3,36.7c0-0.7,0-1.3,0-1.8h0.9l0,1.1h0c0.3-0.8,0.9-1.3,1.6-1.3c0.1,0,0.2,0,0.3,0v1c-0.1,0-0.2,0-0.4,0
		c-0.7,0-1.3,0.6-1.4,1.4c0,0.1,0,0.3,0,0.5v3.1h-1V36.7z"/>
	<path d="M158,39.6c0.3,0.2,0.9,0.4,1.4,0.4c0.8,0,1.1-0.4,1.1-0.9c0-0.5-0.3-0.8-1.1-1.1c-1-0.4-1.5-0.9-1.5-1.6
		c0-0.9,0.8-1.7,2-1.7c0.6,0,1.1,0.2,1.4,0.4l-0.3,0.8c-0.2-0.1-0.6-0.3-1.2-0.3c-0.6,0-1,0.4-1,0.8c0,0.5,0.3,0.7,1.1,1
		c1,0.4,1.5,0.9,1.5,1.8c0,1-0.8,1.7-2.2,1.7c-0.6,0-1.2-0.2-1.6-0.4L158,39.6z"/>
	<path d="M164.1,33.3c0,0.4-0.3,0.6-0.7,0.6c-0.4,0-0.6-0.3-0.6-0.6c0-0.4,0.3-0.7,0.7-0.7C163.9,32.6,164.1,32.9,164.1,33.3z
		 M162.9,40.7v-5.8h1.1v5.8H162.9z"/>
	<path d="M171,37.8c0,2.1-1.5,3.1-2.9,3.1c-1.6,0-2.8-1.2-2.8-3c0-1.9,1.3-3.1,2.9-3.1C169.9,34.8,171,36,171,37.8z M166.4,37.8
		c0,1.3,0.7,2.2,1.8,2.2c1,0,1.8-0.9,1.8-2.3c0-1-0.5-2.2-1.7-2.2S166.4,36.7,166.4,37.8z"/>
	<path d="M172.3,36.5c0-0.6,0-1.1,0-1.6h0.9l0.1,1h0c0.3-0.6,1-1.1,1.9-1.1c0.8,0,2.1,0.5,2.1,2.5v3.5h-1.1v-3.3
		c0-0.9-0.3-1.7-1.3-1.7c-0.7,0-1.2,0.5-1.4,1.1c0,0.1-0.1,0.3-0.1,0.5v3.5h-1.1V36.5z"/>
	<path d="M178.9,39.6c0.3,0.2,0.9,0.4,1.4,0.4c0.8,0,1.1-0.4,1.1-0.9c0-0.5-0.3-0.8-1.1-1.1c-1-0.4-1.5-0.9-1.5-1.6
		c0-0.9,0.8-1.7,2-1.7c0.6,0,1.1,0.2,1.4,0.4l-0.3,0.8c-0.2-0.1-0.6-0.3-1.2-0.3c-0.6,0-1,0.4-1,0.8c0,0.5,0.3,0.7,1.1,1
		c1,0.4,1.5,0.9,1.5,1.8c0,1-0.8,1.7-2.2,1.7c-0.6,0-1.2-0.2-1.6-0.4L178.9,39.6z"/>
	<path d="M189.5,40.7l-0.1-0.7h0c-0.3,0.5-0.9,0.9-1.8,0.9c-1.2,0-1.8-0.8-1.8-1.7c0-1.4,1.2-2.2,3.5-2.2v-0.1
		c0-0.5-0.1-1.3-1.3-1.3c-0.5,0-1.1,0.2-1.5,0.4l-0.2-0.7c0.5-0.3,1.2-0.5,1.9-0.5c1.8,0,2.2,1.2,2.2,2.4v2.2c0,0.5,0,1,0.1,1.4
		H189.5z M189.4,37.7c-1.2,0-2.5,0.2-2.5,1.3c0,0.7,0.5,1,1,1c0.8,0,1.2-0.5,1.4-1c0-0.1,0.1-0.2,0.1-0.3V37.7z"/>
	<path d="M192.1,36.5c0-0.6,0-1.1,0-1.6h0.9l0.1,1h0c0.3-0.6,1-1.1,1.9-1.1c0.8,0,2.1,0.5,2.1,2.5v3.5H196v-3.3
		c0-0.9-0.3-1.7-1.3-1.7c-0.7,0-1.2,0.5-1.4,1.1c0,0.1-0.1,0.3-0.1,0.5v3.5h-1.1V36.5z"/>
	<path d="M203.8,32.2v7c0,0.5,0,1.1,0,1.5h-0.9l0-1h0c-0.3,0.6-1,1.1-2,1.1c-1.4,0-2.5-1.2-2.5-3c0-1.9,1.2-3.1,2.6-3.1
		c0.9,0,1.5,0.4,1.8,0.9h0v-3.5H203.8z M202.7,37.3c0-0.1,0-0.3,0-0.4c-0.2-0.7-0.7-1.2-1.5-1.2c-1.1,0-1.7,1-1.7,2.2
		c0,1.2,0.6,2.1,1.7,2.1c0.7,0,1.4-0.5,1.5-1.3c0-0.1,0-0.3,0-0.5V37.3z"/>
	<path d="M212.2,40.5c-0.3,0.1-0.9,0.3-1.7,0.3c-1.8,0-2.9-1.2-2.9-3c0-1.8,1.2-3.1,3.1-3.1c0.6,0,1.2,0.2,1.5,0.3l-0.2,0.8
		c-0.3-0.1-0.6-0.3-1.2-0.3c-1.3,0-2.1,1-2.1,2.2c0,1.3,0.9,2.2,2,2.2c0.6,0,1-0.2,1.3-0.3L212.2,40.5z"/>
	<path d="M218.6,37.8c0,2.1-1.5,3.1-2.9,3.1c-1.6,0-2.8-1.2-2.8-3c0-1.9,1.3-3.1,2.9-3.1C217.5,34.8,218.6,36,218.6,37.8z M214,37.8
		c0,1.3,0.7,2.2,1.8,2.2c1,0,1.8-0.9,1.8-2.3c0-1-0.5-2.2-1.7-2.2S214,36.7,214,37.8z"/>
	<path d="M219.9,36.5c0-0.6,0-1.1,0-1.6h0.9l0,0.9h0c0.3-0.6,0.9-1.1,1.8-1.1c0.8,0,1.4,0.5,1.6,1.2h0c0.2-0.3,0.4-0.6,0.6-0.8
		c0.3-0.3,0.7-0.4,1.3-0.4c0.8,0,1.9,0.5,1.9,2.5v3.4h-1v-3.3c0-1.1-0.4-1.8-1.3-1.8c-0.6,0-1.1,0.4-1.2,1c0,0.1-0.1,0.3-0.1,0.5
		v3.6h-1v-3.5c0-0.9-0.4-1.6-1.2-1.6c-0.7,0-1.1,0.5-1.3,1.1c-0.1,0.2-0.1,0.3-0.1,0.5v3.5h-1V36.5z"/>
	<path d="M230,36.8c0-0.7,0-1.3,0-1.9h0.9l0,1h0c0.4-0.7,1.1-1.1,2.1-1.1c1.4,0,2.5,1.2,2.5,3c0,2.1-1.3,3.1-2.6,3.1
		c-0.8,0-1.4-0.3-1.8-0.9h0v3.2h-1V36.8z M231,38.3c0,0.2,0,0.3,0,0.4c0.2,0.7,0.8,1.2,1.6,1.2c1.1,0,1.8-0.9,1.8-2.2
		c0-1.2-0.6-2.2-1.7-2.2c-0.7,0-1.4,0.5-1.6,1.3c0,0.1-0.1,0.3-0.1,0.4V38.3z"/>
	<path d="M240,40.7l-0.1-0.7h0c-0.3,0.5-0.9,0.9-1.8,0.9c-1.2,0-1.8-0.8-1.8-1.7c0-1.4,1.2-2.2,3.5-2.2v-0.1c0-0.5-0.1-1.3-1.3-1.3
		c-0.5,0-1.1,0.2-1.5,0.4l-0.2-0.7c0.5-0.3,1.2-0.5,1.9-0.5c1.8,0,2.2,1.2,2.2,2.4v2.2c0,0.5,0,1,0.1,1.4H240z M239.8,37.7
		c-1.2,0-2.5,0.2-2.5,1.3c0,0.7,0.5,1,1,1c0.8,0,1.2-0.5,1.4-1c0-0.1,0.1-0.2,0.1-0.3V37.7z"/>
	<path d="M242.6,36.5c0-0.6,0-1.1,0-1.6h0.9l0.1,1h0c0.3-0.6,1-1.1,1.9-1.1c0.8,0,2.1,0.5,2.1,2.5v3.5h-1.1v-3.3
		c0-0.9-0.3-1.7-1.3-1.7c-0.7,0-1.2,0.5-1.4,1.1c0,0.1-0.1,0.3-0.1,0.5v3.5h-1.1V36.5z"/>
	<path d="M249.5,34.9l1.3,3.4c0.1,0.4,0.3,0.8,0.4,1.2h0c0.1-0.3,0.2-0.8,0.4-1.2l1.2-3.4h1.1l-1.6,4.1c-0.8,2-1.3,3-2,3.6
		c-0.5,0.5-1,0.6-1.3,0.7l-0.3-0.9c0.3-0.1,0.6-0.3,0.9-0.5c0.3-0.2,0.6-0.6,0.9-1.2c0-0.1,0.1-0.2,0.1-0.3c0-0.1,0-0.1-0.1-0.3
		l-2.1-5.3H249.5z"/>
	<path d="M262.5,37.8c0,2.1-1.5,3.1-2.9,3.1c-1.6,0-2.8-1.2-2.8-3c0-1.9,1.3-3.1,2.9-3.1C261.4,34.8,262.5,36,262.5,37.8z
		 M257.9,37.8c0,1.3,0.7,2.2,1.8,2.2c1,0,1.8-0.9,1.8-2.3c0-1-0.5-2.2-1.7-2.2C258.5,35.6,257.9,36.7,257.9,37.8z"/>
	<path d="M268.7,39.1c0,0.6,0,1.1,0,1.6h-0.9l-0.1-0.9h0c-0.3,0.5-0.9,1.1-1.9,1.1c-0.9,0-2-0.5-2-2.5v-3.4h1.1v3.2
		c0,1.1,0.3,1.8,1.3,1.8c0.7,0,1.2-0.5,1.4-1c0.1-0.2,0.1-0.3,0.1-0.5v-3.6h1.1V39.1z"/>
	<path d="M271.7,33.2v1.7h1.5v0.8h-1.5v3.1c0,0.7,0.2,1.1,0.8,1.1c0.3,0,0.5,0,0.6-0.1l0,0.8c-0.2,0.1-0.5,0.1-0.9,0.1
		c-0.5,0-0.9-0.2-1.1-0.4c-0.3-0.3-0.4-0.8-0.4-1.5v-3.2h-0.9v-0.8h0.9v-1.4L271.7,33.2z"/>
	<path d="M275.6,33.3c0,0.4-0.3,0.6-0.7,0.6c-0.4,0-0.6-0.3-0.6-0.6c0-0.4,0.3-0.7,0.7-0.7C275.4,32.6,275.6,32.9,275.6,33.3z
		 M274.4,40.7v-5.8h1.1v5.8H274.4z"/>
	<path d="M277.2,36.5c0-0.6,0-1.1,0-1.6h0.9l0.1,1h0c0.3-0.6,1-1.1,1.9-1.1c0.8,0,2.1,0.5,2.1,2.5v3.5h-1.1v-3.3
		c0-0.9-0.3-1.7-1.3-1.7c-0.7,0-1.2,0.5-1.4,1.1c0,0.1-0.1,0.3-0.1,0.5v3.5h-1.1V36.5z"/>
	<path d="M288.9,34.9c0,0.4,0,0.9,0,1.6v3.4c0,1.3-0.3,2.1-0.8,2.7c-0.6,0.5-1.4,0.7-2.1,0.7c-0.7,0-1.5-0.2-1.9-0.5l0.3-0.8
		c0.4,0.2,1,0.5,1.7,0.5c1.1,0,1.9-0.6,1.9-2v-0.6h0c-0.3,0.5-0.9,1-1.8,1c-1.4,0-2.5-1.2-2.5-2.8c0-2,1.3-3.1,2.6-3.1
		c1,0,1.6,0.5,1.8,1h0l0-0.9H288.9z M287.8,37.2c0-0.2,0-0.3-0.1-0.5c-0.2-0.6-0.7-1.1-1.5-1.1c-1,0-1.7,0.9-1.7,2.2
		c0,1.1,0.6,2.1,1.7,2.1c0.6,0,1.2-0.4,1.5-1.1c0.1-0.2,0.1-0.4,0.1-0.6V37.2z"/>
	<path d="M290.5,39.6c0.3,0.2,0.9,0.4,1.4,0.4c0.8,0,1.1-0.4,1.1-0.9c0-0.5-0.3-0.8-1.1-1.1c-1-0.4-1.5-0.9-1.5-1.6
		c0-0.9,0.8-1.7,2-1.7c0.6,0,1.1,0.2,1.4,0.4l-0.3,0.8c-0.2-0.1-0.6-0.3-1.2-0.3c-0.6,0-1,0.4-1,0.8c0,0.5,0.3,0.7,1.1,1
		c1,0.4,1.5,0.9,1.5,1.8c0,1-0.8,1.7-2.2,1.7c-0.6,0-1.2-0.2-1.6-0.4L290.5,39.6z"/>
	<path d="M299.2,33.2v1.7h1.5v0.8h-1.5v3.1c0,0.7,0.2,1.1,0.8,1.1c0.3,0,0.5,0,0.6-0.1l0,0.8c-0.2,0.1-0.5,0.1-0.9,0.1
		c-0.5,0-0.9-0.2-1.1-0.4c-0.3-0.3-0.4-0.8-0.4-1.5v-3.2h-0.9v-0.8h0.9v-1.4L299.2,33.2z"/>
	<path d="M301.9,32.2h1.1v3.6h0c0.2-0.3,0.4-0.6,0.8-0.7c0.3-0.2,0.7-0.3,1.1-0.3c0.8,0,2,0.5,2,2.5v3.5h-1.1v-3.3
		c0-0.9-0.3-1.7-1.3-1.7c-0.7,0-1.2,0.5-1.4,1.1c-0.1,0.1-0.1,0.3-0.1,0.5v3.5h-1.1V32.2z"/>
	<path d="M308.5,36.7c0-0.7,0-1.3,0-1.8h0.9l0,1.1h0c0.3-0.8,0.9-1.3,1.6-1.3c0.1,0,0.2,0,0.3,0v1c-0.1,0-0.2,0-0.4,0
		c-0.7,0-1.3,0.6-1.4,1.4c0,0.1,0,0.3,0,0.5v3.1h-1V36.7z"/>
	<path d="M317.6,37.8c0,2.1-1.5,3.1-2.9,3.1c-1.6,0-2.8-1.2-2.8-3c0-1.9,1.3-3.1,2.9-3.1C316.5,34.8,317.6,36,317.6,37.8z M313,37.8
		c0,1.3,0.7,2.2,1.8,2.2c1,0,1.8-0.9,1.8-2.3c0-1-0.5-2.2-1.7-2.2C313.5,35.6,313,36.7,313,37.8z"/>
	<path d="M323.8,39.1c0,0.6,0,1.1,0,1.6h-0.9l-0.1-0.9h0c-0.3,0.5-0.9,1.1-1.9,1.1c-0.9,0-2-0.5-2-2.5v-3.4h1.1v3.2
		c0,1.1,0.3,1.8,1.3,1.8c0.7,0,1.2-0.5,1.4-1c0.1-0.2,0.1-0.3,0.1-0.5v-3.6h1.1V39.1z"/>
	<path d="M330.5,34.9c0,0.4,0,0.9,0,1.6v3.4c0,1.3-0.3,2.1-0.8,2.7c-0.6,0.5-1.4,0.7-2.1,0.7c-0.7,0-1.5-0.2-1.9-0.5l0.3-0.8
		c0.4,0.2,1,0.5,1.7,0.5c1.1,0,1.9-0.6,1.9-2v-0.6h0c-0.3,0.5-0.9,1-1.8,1c-1.4,0-2.5-1.2-2.5-2.8c0-2,1.3-3.1,2.6-3.1
		c1,0,1.6,0.5,1.8,1h0l0-0.9H330.5z M329.5,37.2c0-0.2,0-0.3-0.1-0.5c-0.2-0.6-0.7-1.1-1.5-1.1c-1,0-1.7,0.9-1.7,2.2
		c0,1.1,0.6,2.1,1.7,2.1c0.6,0,1.2-0.4,1.5-1.1c0.1-0.2,0.1-0.4,0.1-0.6V37.2z"/>
	<path d="M332.3,32.2h1.1v3.6h0c0.2-0.3,0.4-0.6,0.8-0.7c0.3-0.2,0.7-0.3,1.1-0.3c0.8,0,2,0.5,2,2.5v3.5h-1.1v-3.3
		c0-0.9-0.3-1.7-1.3-1.7c-0.7,0-1.2,0.5-1.4,1.1c-0.1,0.1-0.1,0.3-0.1,0.5v3.5h-1.1V32.2z"/>
	<path d="M344.2,37.8c0,2.1-1.5,3.1-2.9,3.1c-1.6,0-2.8-1.2-2.8-3c0-1.9,1.3-3.1,2.9-3.1C343,34.8,344.2,36,344.2,37.8z M339.6,37.8
		c0,1.3,0.7,2.2,1.8,2.2c1,0,1.8-0.9,1.8-2.3c0-1-0.5-2.2-1.7-2.2C340.1,35.6,339.6,36.7,339.6,37.8z"/>
	<path d="M350.4,39.1c0,0.6,0,1.1,0,1.6h-0.9l-0.1-0.9h0c-0.3,0.5-0.9,1.1-1.9,1.1c-0.9,0-2-0.5-2-2.5v-3.4h1.1v3.2
		c0,1.1,0.3,1.8,1.3,1.8c0.7,0,1.2-0.5,1.4-1c0.1-0.2,0.1-0.3,0.1-0.5v-3.6h1.1V39.1z"/>
	<path d="M353.4,33.2v1.7h1.5v0.8h-1.5v3.1c0,0.7,0.2,1.1,0.8,1.1c0.3,0,0.5,0,0.6-0.1l0,0.8c-0.2,0.1-0.5,0.1-0.9,0.1
		c-0.5,0-0.9-0.2-1.1-0.4c-0.3-0.3-0.4-0.8-0.4-1.5v-3.2h-0.9v-0.8h0.9v-1.4L353.4,33.2z"/>
	<path d="M359.9,33.2v1.7h1.5v0.8h-1.5v3.1c0,0.7,0.2,1.1,0.8,1.1c0.3,0,0.5,0,0.6-0.1l0,0.8c-0.2,0.1-0.5,0.1-0.9,0.1
		c-0.5,0-0.9-0.2-1.1-0.4c-0.3-0.3-0.4-0.8-0.4-1.5v-3.2H358v-0.8h0.9v-1.4L359.9,33.2z"/>
	<path d="M362.6,32.2h1.1v3.6h0c0.2-0.3,0.4-0.6,0.8-0.7c0.3-0.2,0.7-0.3,1.1-0.3c0.8,0,2,0.5,2,2.5v3.5h-1.1v-3.3
		c0-0.9-0.3-1.7-1.3-1.7c-0.7,0-1.2,0.5-1.4,1.1c-0.1,0.1-0.1,0.3-0.1,0.5v3.5h-1.1V32.2z"/>
	<path d="M369.8,38c0,1.4,0.9,2,2,2c0.8,0,1.2-0.1,1.6-0.3l0.2,0.8c-0.4,0.2-1,0.4-1.9,0.4c-1.8,0-2.9-1.2-2.9-2.9s1-3.1,2.7-3.1
		c1.9,0,2.4,1.7,2.4,2.7c0,0.2,0,0.4,0,0.5H369.8z M372.9,37.2c0-0.7-0.3-1.7-1.5-1.7c-1.1,0-1.5,1-1.6,1.7H372.9z"/>
	<path d="M90.8,55.1V47H92l2.6,4.1c0.6,0.9,1.1,1.8,1.5,2.6l0,0c-0.1-1.1-0.1-2.1-0.1-3.3V47h1v8.1h-1.1L93.3,51
		c-0.6-0.9-1.1-1.8-1.5-2.7l0,0c0.1,1,0.1,2,0.1,3.3v3.5H90.8z"/>
	<path d="M99.3,52.4c0,1.4,0.9,2,2,2c0.8,0,1.2-0.1,1.6-0.3l0.2,0.8c-0.4,0.2-1,0.4-1.9,0.4c-1.8,0-2.9-1.2-2.9-2.9s1-3.1,2.7-3.1
		c1.9,0,2.4,1.7,2.4,2.7c0,0.2,0,0.4,0,0.5H99.3z M102.4,51.6c0-0.7-0.3-1.7-1.5-1.7c-1.1,0-1.5,1-1.6,1.7H102.4z"/>
	<path d="M106,47.6v1.7h1.5v0.8H106v3.1c0,0.7,0.2,1.1,0.8,1.1c0.3,0,0.5,0,0.6-0.1l0,0.8c-0.2,0.1-0.5,0.1-0.9,0.1
		c-0.5,0-0.9-0.2-1.1-0.4c-0.3-0.3-0.4-0.8-0.4-1.5v-3.2h-0.9v-0.8h0.9v-1.4L106,47.6z"/>
	<path d="M108.7,46.6h1.1v3.6h0c0.2-0.3,0.4-0.6,0.8-0.7c0.3-0.2,0.7-0.3,1.1-0.3c0.8,0,2,0.5,2,2.5v3.5h-1.1v-3.3
		c0-0.9-0.3-1.7-1.3-1.7c-0.7,0-1.2,0.5-1.4,1.1c-0.1,0.1-0.1,0.3-0.1,0.5v3.5h-1.1V46.6z"/>
	<path d="M115.9,52.4c0,1.4,0.9,2,2,2c0.8,0,1.2-0.1,1.6-0.3l0.2,0.8c-0.4,0.2-1,0.4-1.9,0.4c-1.8,0-2.9-1.2-2.9-2.9s1-3.1,2.7-3.1
		c1.9,0,2.4,1.7,2.4,2.7c0,0.2,0,0.4,0,0.5H115.9z M119,51.6c0-0.7-0.3-1.7-1.5-1.7c-1.1,0-1.5,1-1.6,1.7H119z"/>
	<path d="M121.4,51.1c0-0.7,0-1.3,0-1.8h0.9l0,1.1h0c0.3-0.8,0.9-1.3,1.6-1.3c0.1,0,0.2,0,0.3,0v1c-0.1,0-0.2,0-0.4,0
		c-0.7,0-1.3,0.6-1.4,1.4c0,0.1,0,0.3,0,0.5v3.1h-1V51.1z"/>
	<path d="M125.3,46.6h1.1v8.5h-1.1V46.6z"/>
	<path d="M131.4,55.1l-0.1-0.7h0c-0.3,0.5-0.9,0.9-1.8,0.9c-1.2,0-1.8-0.8-1.8-1.7c0-1.4,1.2-2.2,3.5-2.2v-0.1
		c0-0.5-0.1-1.3-1.3-1.3c-0.5,0-1.1,0.2-1.5,0.4l-0.2-0.7c0.5-0.3,1.2-0.5,1.9-0.5c1.8,0,2.2,1.2,2.2,2.4v2.2c0,0.5,0,1,0.1,1.4
		H131.4z M131.2,52.1c-1.2,0-2.5,0.2-2.5,1.3c0,0.7,0.5,1,1,1c0.8,0,1.2-0.5,1.4-1c0-0.1,0.1-0.2,0.1-0.3V52.1z"/>
	<path d="M134,50.9c0-0.6,0-1.1,0-1.6h0.9l0.1,1h0c0.3-0.6,1-1.1,1.9-1.1c0.8,0,2.1,0.5,2.1,2.5v3.5h-1.1v-3.3
		c0-0.9-0.3-1.7-1.3-1.7c-0.7,0-1.2,0.5-1.4,1.1c0,0.1-0.1,0.3-0.1,0.5v3.5H134V50.9z"/>
	<path d="M145.6,46.6v7c0,0.5,0,1.1,0,1.5h-0.9l0-1h0c-0.3,0.6-1,1.1-2,1.1c-1.4,0-2.5-1.2-2.5-3c0-1.9,1.2-3.1,2.6-3.1
		c0.9,0,1.5,0.4,1.8,0.9h0v-3.5H145.6z M144.6,51.7c0-0.1,0-0.3,0-0.4c-0.2-0.7-0.7-1.2-1.5-1.2c-1.1,0-1.7,1-1.7,2.2
		c0,1.2,0.6,2.1,1.7,2.1c0.7,0,1.4-0.5,1.5-1.3c0-0.1,0-0.3,0-0.5V51.7z"/>
	<path d="M147.2,54c0.3,0.2,0.9,0.4,1.4,0.4c0.8,0,1.1-0.4,1.1-0.9c0-0.5-0.3-0.8-1.1-1.1c-1-0.4-1.5-0.9-1.5-1.6
		c0-0.9,0.8-1.7,2-1.7c0.6,0,1.1,0.2,1.4,0.4l-0.3,0.8c-0.2-0.1-0.6-0.3-1.2-0.3c-0.6,0-1,0.4-1,0.8c0,0.5,0.3,0.7,1.1,1
		c1,0.4,1.5,0.9,1.5,1.8c0,1-0.8,1.7-2.2,1.7c-0.6,0-1.2-0.2-1.6-0.4L147.2,54z"/>
	<path d="M151.7,54.5c0-0.4,0.3-0.8,0.7-0.8s0.7,0.3,0.7,0.8c0,0.4-0.3,0.8-0.7,0.8C152,55.2,151.7,54.9,151.7,54.5z"/>
	<path d="M158.4,52.6l-0.8,2.5h-1.1l2.7-8.1h1.3l2.8,8.1h-1.1l-0.9-2.5H158.4z M161,51.8l-0.8-2.3c-0.2-0.5-0.3-1-0.4-1.5h0
		c-0.1,0.5-0.3,1-0.4,1.5l-0.8,2.3H161z"/>
	<path d="M164.3,46.6h1.1v8.5h-1.1V46.6z"/>
	<path d="M167.2,46.6h1.1v8.5h-1.1V46.6z"/>
	<path d="M177.8,52.2c0,2.1-1.5,3.1-2.9,3.1c-1.6,0-2.8-1.2-2.8-3c0-1.9,1.3-3.1,2.9-3.1C176.7,49.2,177.8,50.4,177.8,52.2z
		 M173.2,52.2c0,1.3,0.7,2.2,1.8,2.2c1,0,1.8-0.9,1.8-2.3c0-1-0.5-2.2-1.7-2.2C173.7,50,173.2,51.1,173.2,52.2z"/>
	<path d="M184,53.5c0,0.6,0,1.1,0,1.6h-0.9l-0.1-0.9h0c-0.3,0.5-0.9,1.1-1.9,1.1c-0.9,0-2-0.5-2-2.5v-3.4h1.1v3.2
		c0,1.1,0.3,1.8,1.3,1.8c0.7,0,1.2-0.5,1.4-1c0.1-0.2,0.1-0.3,0.1-0.5v-3.6h1.1V53.5z"/>
	<path d="M185.7,51.1c0-0.7,0-1.3,0-1.8h0.9l0,1.1h0c0.3-0.8,0.9-1.3,1.6-1.3c0.1,0,0.2,0,0.3,0v1c-0.1,0-0.2,0-0.4,0
		c-0.7,0-1.3,0.6-1.4,1.4c0,0.1,0,0.3,0,0.5v3.1h-1V51.1z"/>
	<path d="M192.2,55.1c0-0.4,0-1,0-1.5v-7h1v3.6h0c0.4-0.6,1-1.1,2-1.1c1.4,0,2.5,1.2,2.4,3c0,2.1-1.3,3.1-2.6,3.1
		c-0.8,0-1.5-0.3-1.9-1.1h0l0,1H192.2z M193.3,52.8c0,0.1,0,0.3,0,0.4c0.2,0.7,0.8,1.2,1.6,1.2c1.1,0,1.8-0.9,1.8-2.2
		c0-1.2-0.6-2.2-1.7-2.2c-0.7,0-1.4,0.5-1.6,1.3c0,0.1-0.1,0.3-0.1,0.4V52.8z"/>
	<path d="M200.2,47.7c0,0.4-0.3,0.6-0.7,0.6c-0.4,0-0.6-0.3-0.6-0.6c0-0.4,0.3-0.7,0.7-0.7C200,47,200.2,47.3,200.2,47.7z M199,55.1
		v-5.8h1.1v5.8H199z"/>
	<path d="M202.9,52L202.9,52c0.2-0.2,0.4-0.5,0.5-0.7l1.7-2h1.3l-2.2,2.4l2.6,3.4h-1.3l-2-2.8l-0.5,0.6v2.2h-1v-8.5h1V52z"/>
	<path d="M208.1,52.4c0,1.4,0.9,2,2,2c0.8,0,1.2-0.1,1.6-0.3l0.2,0.8c-0.4,0.2-1,0.4-1.9,0.4c-1.8,0-2.9-1.2-2.9-2.9s1-3.1,2.7-3.1
		c1.9,0,2.4,1.7,2.4,2.7c0,0.2,0,0.4,0,0.5H208.1z M211.2,51.6c0-0.7-0.3-1.7-1.5-1.7c-1.1,0-1.5,1-1.6,1.7H211.2z"/>
	<path d="M213.3,54c0.3,0.2,0.9,0.4,1.4,0.4c0.8,0,1.1-0.4,1.1-0.9c0-0.5-0.3-0.8-1.1-1.1c-1-0.4-1.5-0.9-1.5-1.6
		c0-0.9,0.8-1.7,2-1.7c0.6,0,1.1,0.2,1.4,0.4l-0.3,0.8c-0.2-0.1-0.6-0.3-1.2-0.3c-0.6,0-1,0.4-1,0.8c0,0.5,0.3,0.7,1.1,1
		c1,0.4,1.5,0.9,1.5,1.8c0,1-0.8,1.7-2.2,1.7c-0.6,0-1.2-0.2-1.6-0.4L213.3,54z"/>
	<path d="M220.8,46.6h1.1v3.6h0c0.2-0.3,0.4-0.6,0.8-0.7c0.3-0.2,0.7-0.3,1.1-0.3c0.8,0,2,0.5,2,2.5v3.5h-1.1v-3.3
		c0-0.9-0.3-1.7-1.3-1.7c-0.7,0-1.2,0.5-1.4,1.1c-0.1,0.1-0.1,0.3-0.1,0.5v3.5h-1.1V46.6z"/>
	<path d="M230.7,55.1l-0.1-0.7h0c-0.3,0.5-0.9,0.9-1.8,0.9c-1.2,0-1.8-0.8-1.8-1.7c0-1.4,1.2-2.2,3.5-2.2v-0.1
		c0-0.5-0.1-1.3-1.3-1.3c-0.5,0-1.1,0.2-1.5,0.4l-0.2-0.7c0.5-0.3,1.2-0.5,1.9-0.5c1.8,0,2.2,1.2,2.2,2.4v2.2c0,0.5,0,1,0.1,1.4
		H230.7z M230.5,52.1c-1.2,0-2.5,0.2-2.5,1.3c0,0.7,0.5,1,1,1c0.8,0,1.2-0.5,1.4-1c0-0.1,0.1-0.2,0.1-0.3V52.1z"/>
	<path d="M233.5,49.3l1.1,3.3c0.2,0.5,0.3,1,0.5,1.5h0c0.1-0.5,0.3-1,0.5-1.5l1.1-3.3h1.1l-2.3,5.8h-1l-2.2-5.8H233.5z"/>
	<path d="M239.4,52.4c0,1.4,0.9,2,2,2c0.8,0,1.2-0.1,1.6-0.3l0.2,0.8c-0.4,0.2-1,0.4-1.9,0.4c-1.8,0-2.9-1.2-2.9-2.9s1-3.1,2.7-3.1
		c1.9,0,2.4,1.7,2.4,2.7c0,0.2,0,0.4,0,0.5H239.4z M242.5,51.6c0-0.7-0.3-1.7-1.5-1.7c-1.1,0-1.5,1-1.6,1.7H242.5z"/>
	<path d="M251.5,54.9c-0.3,0.1-0.9,0.3-1.7,0.3c-1.8,0-2.9-1.2-2.9-3c0-1.8,1.2-3.1,3.1-3.1c0.6,0,1.2,0.2,1.5,0.3l-0.2,0.8
		c-0.3-0.1-0.6-0.3-1.2-0.3c-1.3,0-2.1,1-2.1,2.2c0,1.3,0.9,2.2,2,2.2c0.6,0,1-0.2,1.3-0.3L251.5,54.9z"/>
	<path d="M257.9,52.2c0,2.1-1.5,3.1-2.9,3.1c-1.6,0-2.8-1.2-2.8-3c0-1.9,1.3-3.1,2.9-3.1C256.8,49.2,257.9,50.4,257.9,52.2z
		 M253.3,52.2c0,1.3,0.7,2.2,1.8,2.2c1,0,1.8-0.9,1.8-2.3c0-1-0.5-2.2-1.7-2.2S253.3,51.1,253.3,52.2z"/>
	<path d="M259.2,50.9c0-0.6,0-1.1,0-1.6h0.9l0.1,1h0c0.3-0.6,1-1.1,1.9-1.1c0.8,0,2.1,0.5,2.1,2.5v3.5h-1.1v-3.3
		c0-0.9-0.3-1.7-1.3-1.7c-0.7,0-1.2,0.5-1.4,1.1c0,0.1-0.1,0.3-0.1,0.5v3.5h-1.1V50.9z"/>
	<path d="M266.1,49.3l1.1,3.3c0.2,0.5,0.3,1,0.5,1.5h0c0.1-0.5,0.3-1,0.5-1.5l1.1-3.3h1.1l-2.3,5.8h-1l-2.2-5.8H266.1z"/>
	<path d="M272,52.4c0,1.4,0.9,2,2,2c0.8,0,1.2-0.1,1.6-0.3l0.2,0.8c-0.4,0.2-1,0.4-1.9,0.4c-1.8,0-2.9-1.2-2.9-2.9s1-3.1,2.7-3.1
		c1.9,0,2.4,1.7,2.4,2.7c0,0.2,0,0.4,0,0.5H272z M275.1,51.6c0-0.7-0.3-1.7-1.5-1.7c-1.1,0-1.5,1-1.6,1.7H275.1z"/>
	<path d="M277.4,50.9c0-0.6,0-1.1,0-1.6h0.9l0.1,1h0c0.3-0.6,1-1.1,1.9-1.1c0.8,0,2.1,0.5,2.1,2.5v3.5h-1.1v-3.3
		c0-0.9-0.3-1.7-1.3-1.7c-0.7,0-1.2,0.5-1.4,1.1c0,0.1-0.1,0.3-0.1,0.5v3.5h-1.1V50.9z"/>
	<path d="M285.2,47.7c0,0.4-0.3,0.6-0.7,0.6c-0.4,0-0.6-0.3-0.6-0.6c0-0.4,0.3-0.7,0.7-0.7C285,47,285.2,47.3,285.2,47.7z
		 M284.1,55.1v-5.8h1.1v5.8H284.1z"/>
	<path d="M287.5,52.4c0,1.4,0.9,2,2,2c0.8,0,1.2-0.1,1.6-0.3l0.2,0.8c-0.4,0.2-1,0.4-1.9,0.4c-1.8,0-2.9-1.2-2.9-2.9s1-3.1,2.7-3.1
		c1.9,0,2.4,1.7,2.4,2.7c0,0.2,0,0.4,0,0.5H287.5z M290.5,51.6c0-0.7-0.3-1.7-1.5-1.7c-1.1,0-1.5,1-1.6,1.7H290.5z"/>
	<path d="M292.9,50.9c0-0.6,0-1.1,0-1.6h0.9l0.1,1h0c0.3-0.6,1-1.1,1.9-1.1c0.8,0,2.1,0.5,2.1,2.5v3.5h-1.1v-3.3
		c0-0.9-0.3-1.7-1.3-1.7c-0.7,0-1.2,0.5-1.4,1.1c0,0.1-0.1,0.3-0.1,0.5v3.5h-1.1V50.9z"/>
	<path d="M300.8,47.6v1.7h1.5v0.8h-1.5v3.1c0,0.7,0.2,1.1,0.8,1.1c0.3,0,0.5,0,0.6-0.1l0,0.8c-0.2,0.1-0.5,0.1-0.9,0.1
		c-0.5,0-0.9-0.2-1.1-0.4c-0.3-0.3-0.4-0.8-0.4-1.5v-3.2h-0.9v-0.8h0.9v-1.4L300.8,47.6z"/>
	<path d="M306.1,55.1v-5h-0.8v-0.8h0.8V49c0-0.8,0.2-1.6,0.7-2c0.4-0.4,0.9-0.5,1.4-0.5c0.4,0,0.7,0.1,0.9,0.2l-0.1,0.8
		c-0.2-0.1-0.4-0.1-0.7-0.1c-0.9,0-1.1,0.8-1.1,1.7v0.3h1.4v0.8h-1.4v5H306.1z"/>
	<path d="M309.5,51.1c0-0.7,0-1.3,0-1.8h0.9l0,1.1h0c0.3-0.8,0.9-1.3,1.6-1.3c0.1,0,0.2,0,0.3,0v1c-0.1,0-0.2,0-0.4,0
		c-0.7,0-1.3,0.6-1.4,1.4c0,0.1,0,0.3,0,0.5v3.1h-1V51.1z"/>
	<path d="M318.6,52.2c0,2.1-1.5,3.1-2.9,3.1c-1.6,0-2.8-1.2-2.8-3c0-1.9,1.3-3.1,2.9-3.1C317.4,49.2,318.6,50.4,318.6,52.2z
		 M314,52.2c0,1.3,0.7,2.2,1.8,2.2c1,0,1.8-0.9,1.8-2.3c0-1-0.5-2.2-1.7-2.2C314.5,50,314,51.1,314,52.2z"/>
	<path d="M319.9,50.9c0-0.6,0-1.1,0-1.6h0.9l0.1,1h0c0.3-0.6,1-1.1,1.9-1.1c0.8,0,2.1,0.5,2.1,2.5v3.5h-1.1v-3.3
		c0-0.9-0.3-1.7-1.3-1.7c-0.7,0-1.2,0.5-1.4,1.1c0,0.1-0.1,0.3-0.1,0.5v3.5h-1.1V50.9z"/>
	<path d="M327.8,47.6v1.7h1.5v0.8h-1.5v3.1c0,0.7,0.2,1.1,0.8,1.1c0.3,0,0.5,0,0.6-0.1l0,0.8c-0.2,0.1-0.5,0.1-0.9,0.1
		c-0.5,0-0.9-0.2-1.1-0.4c-0.3-0.3-0.4-0.8-0.4-1.5v-3.2h-0.9v-0.8h0.9v-1.4L327.8,47.6z"/>
	<path d="M337.2,54.9c-0.3,0.1-0.9,0.3-1.7,0.3c-1.8,0-2.9-1.2-2.9-3c0-1.8,1.2-3.1,3.1-3.1c0.6,0,1.2,0.2,1.5,0.3l-0.2,0.8
		c-0.3-0.1-0.6-0.3-1.2-0.3c-1.3,0-2.1,1-2.1,2.2c0,1.3,0.9,2.2,2,2.2c0.6,0,1-0.2,1.3-0.3L337.2,54.9z"/>
	<path d="M341.6,55.1l-0.1-0.7h0c-0.3,0.5-0.9,0.9-1.8,0.9c-1.2,0-1.8-0.8-1.8-1.7c0-1.4,1.2-2.2,3.5-2.2v-0.1
		c0-0.5-0.1-1.3-1.3-1.3c-0.5,0-1.1,0.2-1.5,0.4l-0.2-0.7c0.5-0.3,1.2-0.5,1.9-0.5c1.8,0,2.2,1.2,2.2,2.4v2.2c0,0.5,0,1,0.1,1.4
		H341.6z M341.5,52.1c-1.2,0-2.5,0.2-2.5,1.3c0,0.7,0.5,1,1,1c0.8,0,1.2-0.5,1.4-1c0-0.1,0.1-0.2,0.1-0.3V52.1z"/>
	<path d="M344.2,51.1c0-0.7,0-1.3,0-1.8h0.9l0,1.1h0c0.3-0.8,0.9-1.3,1.6-1.3c0.1,0,0.2,0,0.3,0v1c-0.1,0-0.2,0-0.4,0
		c-0.7,0-1.3,0.6-1.4,1.4c0,0.1,0,0.3,0,0.5v3.1h-1V51.1z"/>
	<path d="M348.2,51.1c0-0.7,0-1.3,0-1.8h0.9l0,1.1h0c0.3-0.8,0.9-1.3,1.6-1.3c0.1,0,0.2,0,0.3,0v1c-0.1,0-0.2,0-0.4,0
		c-0.7,0-1.3,0.6-1.4,1.4c0,0.1,0,0.3,0,0.5v3.1h-1V51.1z"/>
	<path d="M353.3,47.7c0,0.4-0.3,0.6-0.7,0.6c-0.4,0-0.6-0.3-0.6-0.6c0-0.4,0.3-0.7,0.7-0.7C353.1,47,353.3,47.3,353.3,47.7z
		 M352.1,55.1v-5.8h1.1v5.8H352.1z"/>
	<path d="M355.5,52.4c0,1.4,0.9,2,2,2c0.8,0,1.2-0.1,1.6-0.3l0.2,0.8c-0.4,0.2-1,0.4-1.9,0.4c-1.8,0-2.9-1.2-2.9-2.9s1-3.1,2.7-3.1
		c1.9,0,2.4,1.7,2.4,2.7c0,0.2,0,0.4,0,0.5H355.5z M358.6,51.6c0-0.7-0.3-1.7-1.5-1.7c-1.1,0-1.5,1-1.6,1.7H358.6z"/>
	<path d="M361,51.1c0-0.7,0-1.3,0-1.8h0.9l0,1.1h0c0.3-0.8,0.9-1.3,1.6-1.3c0.1,0,0.2,0,0.3,0v1c-0.1,0-0.2,0-0.4,0
		c-0.7,0-1.3,0.6-1.4,1.4c0,0.1,0,0.3,0,0.5v3.1h-1V51.1z"/>
	<path d="M364.7,54c0.3,0.2,0.9,0.4,1.4,0.4c0.8,0,1.1-0.4,1.1-0.9c0-0.5-0.3-0.8-1.1-1.1c-1-0.4-1.5-0.9-1.5-1.6
		c0-0.9,0.8-1.7,2-1.7c0.6,0,1.1,0.2,1.4,0.4l-0.3,0.8c-0.2-0.1-0.6-0.3-1.2-0.3c-0.6,0-1,0.4-1,0.8c0,0.5,0.3,0.7,1.1,1
		c1,0.4,1.5,0.9,1.5,1.8c0,1-0.8,1.7-2.2,1.7c-0.6,0-1.2-0.2-1.6-0.4L364.7,54z"/>
	<path d="M90.9,69.5v-5h-0.8v-0.8h0.8v-0.3c0-0.8,0.2-1.6,0.7-2c0.4-0.4,0.9-0.5,1.4-0.5c0.4,0,0.7,0.1,0.9,0.2l-0.1,0.8
		c-0.2-0.1-0.4-0.1-0.7-0.1c-0.9,0-1.1,0.8-1.1,1.7v0.3h1.4v0.8H92v5H90.9z"/>
	<path d="M99.4,66.6c0,2.1-1.5,3.1-2.9,3.1c-1.6,0-2.8-1.2-2.8-3c0-1.9,1.3-3.1,2.9-3.1C98.3,63.6,99.4,64.8,99.4,66.6z M94.8,66.6
		c0,1.3,0.7,2.2,1.8,2.2c1,0,1.8-0.9,1.8-2.3c0-1-0.5-2.2-1.7-2.2S94.8,65.5,94.8,66.6z"/>
	<path d="M100.8,65.5c0-0.7,0-1.3,0-1.8h0.9l0,1.1h0c0.3-0.8,0.9-1.3,1.6-1.3c0.1,0,0.2,0,0.3,0v1c-0.1,0-0.2,0-0.4,0
		c-0.7,0-1.3,0.6-1.4,1.4c0,0.1,0,0.3,0,0.5v3.1h-1V65.5z"/>
	<path d="M107.6,63.7l1.3,3.4c0.1,0.4,0.3,0.8,0.4,1.2h0c0.1-0.3,0.2-0.8,0.4-1.2l1.2-3.4h1.1l-1.6,4.1c-0.8,2-1.3,3-2,3.6
		c-0.5,0.5-1,0.6-1.3,0.7l-0.3-0.9c0.3-0.1,0.6-0.3,0.9-0.5c0.3-0.2,0.6-0.6,0.9-1.2c0-0.1,0.1-0.2,0.1-0.3c0-0.1,0-0.1-0.1-0.3
		l-2.1-5.3H107.6z"/>
	<path d="M118,66.6c0,2.1-1.5,3.1-2.9,3.1c-1.6,0-2.8-1.2-2.8-3c0-1.9,1.3-3.1,2.9-3.1C116.9,63.6,118,64.8,118,66.6z M113.4,66.6
		c0,1.3,0.7,2.2,1.8,2.2c1,0,1.8-0.9,1.8-2.3c0-1-0.5-2.2-1.7-2.2C113.9,64.4,113.4,65.5,113.4,66.6z"/>
	<path d="M124.2,67.9c0,0.6,0,1.1,0,1.6h-0.9l-0.1-0.9h0c-0.3,0.5-0.9,1.1-1.9,1.1c-0.9,0-2-0.5-2-2.5v-3.4h1.1v3.2
		c0,1.1,0.3,1.8,1.3,1.8c0.7,0,1.2-0.5,1.4-1c0.1-0.2,0.1-0.3,0.1-0.5v-3.6h1.1V67.9z"/>
	<path d="M125.9,65.5c0-0.7,0-1.3,0-1.8h0.9l0,1.1h0c0.3-0.8,0.9-1.3,1.6-1.3c0.1,0,0.2,0,0.3,0v1c-0.1,0-0.2,0-0.4,0
		c-0.7,0-1.3,0.6-1.4,1.4c0,0.1,0,0.3,0,0.5v3.1h-1V65.5z"/>
	<path d="M132.4,69.5c0-0.4,0-1,0-1.5v-7h1v3.6h0c0.4-0.6,1-1.1,2-1.1c1.4,0,2.5,1.2,2.4,3c0,2.1-1.3,3.1-2.6,3.1
		c-0.8,0-1.5-0.3-1.9-1.1h0l0,1H132.4z M133.5,67.2c0,0.1,0,0.3,0,0.4c0.2,0.7,0.8,1.2,1.6,1.2c1.1,0,1.8-0.9,1.8-2.2
		c0-1.2-0.6-2.2-1.7-2.2c-0.7,0-1.4,0.5-1.6,1.3c0,0.1-0.1,0.3-0.1,0.4V67.2z"/>
	<path d="M142.5,69.5l-0.1-0.7h0c-0.3,0.5-0.9,0.9-1.8,0.9c-1.2,0-1.8-0.8-1.8-1.7c0-1.4,1.2-2.2,3.5-2.2v-0.1
		c0-0.5-0.1-1.3-1.3-1.3c-0.5,0-1.1,0.2-1.5,0.4l-0.2-0.7c0.5-0.3,1.2-0.5,1.9-0.5c1.8,0,2.2,1.2,2.2,2.4v2.2c0,0.5,0,1,0.1,1.4
		H142.5z M142.3,66.5c-1.2,0-2.5,0.2-2.5,1.3c0,0.7,0.5,1,1,1c0.8,0,1.2-0.5,1.4-1c0-0.1,0.1-0.2,0.1-0.3V66.5z"/>
	<path d="M150,63.7c0,0.4,0,0.9,0,1.6v3.4c0,1.3-0.3,2.1-0.8,2.7c-0.6,0.5-1.4,0.7-2.1,0.7c-0.7,0-1.5-0.2-1.9-0.5l0.3-0.8
		c0.4,0.2,1,0.5,1.7,0.5c1.1,0,1.9-0.6,1.9-2v-0.6h0c-0.3,0.5-0.9,1-1.8,1c-1.4,0-2.5-1.2-2.5-2.8c0-2,1.3-3.1,2.6-3.1
		c1,0,1.6,0.5,1.8,1h0l0-0.9H150z M148.9,66c0-0.2,0-0.3-0.1-0.5c-0.2-0.6-0.7-1.1-1.5-1.1c-1,0-1.7,0.9-1.7,2.2
		c0,1.1,0.6,2.1,1.7,2.1c0.6,0,1.2-0.4,1.5-1.1c0.1-0.2,0.1-0.4,0.1-0.6V66z"/>
	<path d="M159.5,66.6c0,2.1-1.5,3.1-2.9,3.1c-1.6,0-2.8-1.2-2.8-3c0-1.9,1.3-3.1,2.9-3.1C158.4,63.6,159.5,64.8,159.5,66.6z
		 M154.9,66.6c0,1.3,0.7,2.2,1.8,2.2c1,0,1.8-0.9,1.8-2.3c0-1-0.5-2.2-1.7-2.2C155.5,64.4,154.9,65.5,154.9,66.6z"/>
	<path d="M160.9,65.5c0-0.7,0-1.3,0-1.8h0.9l0,1.1h0c0.3-0.8,0.9-1.3,1.6-1.3c0.1,0,0.2,0,0.3,0v1c-0.1,0-0.2,0-0.4,0
		c-0.7,0-1.3,0.6-1.4,1.4c0,0.1,0,0.3,0,0.5v3.1h-1V65.5z"/>
	<path d="M171.5,69.3c-0.3,0.1-0.9,0.3-1.7,0.3c-1.8,0-2.9-1.2-2.9-3c0-1.8,1.2-3.1,3.1-3.1c0.6,0,1.2,0.2,1.5,0.3l-0.2,0.8
		c-0.3-0.1-0.6-0.3-1.2-0.3c-1.3,0-2.1,1-2.1,2.2c0,1.3,0.9,2.2,2,2.2c0.6,0,1-0.2,1.3-0.3L171.5,69.3z"/>
	<path d="M177.9,66.6c0,2.1-1.5,3.1-2.9,3.1c-1.6,0-2.8-1.2-2.8-3c0-1.9,1.3-3.1,2.9-3.1C176.8,63.6,177.9,64.8,177.9,66.6z
		 M173.3,66.6c0,1.3,0.7,2.2,1.8,2.2c1,0,1.8-0.9,1.8-2.3c0-1-0.5-2.2-1.7-2.2S173.3,65.5,173.3,66.6z"/>
	<path d="M182.4,69.5l-0.1-0.7h0c-0.3,0.5-0.9,0.9-1.8,0.9c-1.2,0-1.8-0.8-1.8-1.7c0-1.4,1.2-2.2,3.5-2.2v-0.1
		c0-0.5-0.1-1.3-1.3-1.3c-0.5,0-1.1,0.2-1.5,0.4l-0.2-0.7c0.5-0.3,1.2-0.5,1.9-0.5c1.8,0,2.2,1.2,2.2,2.4v2.2c0,0.5,0,1,0.1,1.4
		H182.4z M182.3,66.5c-1.2,0-2.5,0.2-2.5,1.3c0,0.7,0.5,1,1,1c0.8,0,1.2-0.5,1.4-1c0-0.1,0.1-0.2,0.1-0.3V66.5z"/>
	<path d="M186.2,62v1.7h1.5v0.8h-1.5v3.1c0,0.7,0.2,1.1,0.8,1.1c0.3,0,0.5,0,0.6-0.1l0,0.8c-0.2,0.1-0.5,0.1-0.9,0.1
		c-0.5,0-0.9-0.2-1.1-0.4c-0.3-0.3-0.4-0.8-0.4-1.5v-3.2h-0.9v-0.8h0.9v-1.4L186.2,62z"/>
	<path d="M188.6,68.9c0-0.4,0.3-0.8,0.7-0.8s0.7,0.3,0.7,0.8c0,0.4-0.3,0.8-0.7,0.8C188.9,69.6,188.6,69.3,188.6,68.9z"/>
	<path d="M194.9,69.5l-2.1-8.1h1.1l1,4.1c0.2,1,0.5,2,0.6,2.8h0c0.1-0.8,0.4-1.8,0.7-2.8l1.1-4.1h1.1l1,4.1c0.2,1,0.4,1.9,0.6,2.8h0
		c0.2-0.9,0.4-1.8,0.6-2.8l1.1-4.1h1.1l-2.3,8.1h-1.1l-1-4.2c-0.3-1-0.4-1.8-0.5-2.6h0c-0.1,0.8-0.3,1.6-0.6,2.6l-1.2,4.2H194.9z"/>
	<path d="M203.8,66.8c0,1.4,0.9,2,2,2c0.8,0,1.2-0.1,1.6-0.3l0.2,0.8c-0.4,0.2-1,0.4-1.9,0.4c-1.8,0-2.9-1.2-2.9-2.9s1-3.1,2.7-3.1
		c1.9,0,2.4,1.7,2.4,2.7c0,0.2,0,0.4,0,0.5H203.8z M206.9,66c0-0.7-0.3-1.7-1.5-1.7c-1.1,0-1.5,1-1.6,1.7H206.9z"/>
	<path d="M215,69.5l-0.1-0.7h0c-0.3,0.5-0.9,0.9-1.8,0.9c-1.2,0-1.8-0.8-1.8-1.7c0-1.4,1.2-2.2,3.5-2.2v-0.1c0-0.5-0.1-1.3-1.3-1.3
		c-0.5,0-1.1,0.2-1.5,0.4l-0.2-0.7c0.5-0.3,1.2-0.5,1.9-0.5c1.8,0,2.2,1.2,2.2,2.4v2.2c0,0.5,0,1,0.1,1.4H215z M214.9,66.5
		c-1.2,0-2.5,0.2-2.5,1.3c0,0.7,0.5,1,1,1c0.8,0,1.2-0.5,1.4-1c0-0.1,0.1-0.2,0.1-0.3V66.5z"/>
	<path d="M217.6,61h1.1v8.5h-1.1V61z"/>
	<path d="M220.3,68.4c0.3,0.2,0.9,0.4,1.4,0.4c0.8,0,1.1-0.4,1.1-0.9c0-0.5-0.3-0.8-1.1-1.1c-1-0.4-1.5-0.9-1.5-1.6
		c0-0.9,0.8-1.7,2-1.7c0.6,0,1.1,0.2,1.4,0.4l-0.3,0.8c-0.2-0.1-0.6-0.3-1.2-0.3c-0.6,0-1,0.4-1,0.8c0,0.5,0.3,0.7,1.1,1
		c1,0.4,1.5,0.9,1.5,1.8c0,1-0.8,1.7-2.2,1.7c-0.6,0-1.2-0.2-1.6-0.4L220.3,68.4z"/>
	<path d="M230.4,66.6c0,2.1-1.5,3.1-2.9,3.1c-1.6,0-2.8-1.2-2.8-3c0-1.9,1.3-3.1,2.9-3.1C229.3,63.6,230.4,64.8,230.4,66.6z
		 M225.8,66.6c0,1.3,0.7,2.2,1.8,2.2c1,0,1.8-0.9,1.8-2.3c0-1-0.5-2.2-1.7-2.2C226.4,64.4,225.8,65.5,225.8,66.6z"/>
	<path d="M234.3,61h1.1v3.6h0c0.2-0.3,0.4-0.6,0.8-0.7c0.3-0.2,0.7-0.3,1.1-0.3c0.8,0,2,0.5,2,2.5v3.5h-1.1v-3.3
		c0-0.9-0.3-1.7-1.3-1.7c-0.7,0-1.2,0.5-1.4,1.1c-0.1,0.1-0.1,0.3-0.1,0.5v3.5h-1.1V61z"/>
	<path d="M244.2,69.5l-0.1-0.7h0c-0.3,0.5-0.9,0.9-1.8,0.9c-1.2,0-1.8-0.8-1.8-1.7c0-1.4,1.2-2.2,3.5-2.2v-0.1
		c0-0.5-0.1-1.3-1.3-1.3c-0.5,0-1.1,0.2-1.5,0.4l-0.2-0.7c0.5-0.3,1.2-0.5,1.9-0.5c1.8,0,2.2,1.2,2.2,2.4v2.2c0,0.5,0,1,0.1,1.4
		H244.2z M244,66.5c-1.2,0-2.5,0.2-2.5,1.3c0,0.7,0.5,1,1,1c0.8,0,1.2-0.5,1.4-1c0-0.1,0.1-0.2,0.1-0.3V66.5z"/>
	<path d="M247.1,63.7l1.1,3.3c0.2,0.5,0.3,1,0.5,1.5h0c0.1-0.5,0.3-1,0.5-1.5l1.1-3.3h1.1l-2.3,5.8h-1l-2.2-5.8H247.1z"/>
	<path d="M252.9,66.8c0,1.4,0.9,2,2,2c0.8,0,1.2-0.1,1.6-0.3l0.2,0.8c-0.4,0.2-1,0.4-1.9,0.4c-1.8,0-2.9-1.2-2.9-2.9s1-3.1,2.7-3.1
		c1.9,0,2.4,1.7,2.4,2.7c0,0.2,0,0.4,0,0.5H252.9z M256,66c0-0.7-0.3-1.7-1.5-1.7c-1.1,0-1.5,1-1.6,1.7H256z"/>
	<path d="M261.3,63.7l0.8,3c0.2,0.6,0.3,1.2,0.4,1.8h0c0.1-0.6,0.3-1.2,0.5-1.8l0.9-3h0.9l0.9,2.9c0.2,0.7,0.4,1.3,0.5,1.9h0
		c0.1-0.6,0.3-1.2,0.4-1.9l0.8-2.9h1l-1.9,5.8h-1l-0.9-2.8c-0.2-0.6-0.4-1.2-0.5-1.9h0c-0.1,0.7-0.3,1.3-0.5,1.9l-0.9,2.8h-1
		l-1.8-5.8H261.3z"/>
	<path d="M272.9,69.5l-0.1-0.7h0c-0.3,0.5-0.9,0.9-1.8,0.9c-1.2,0-1.8-0.8-1.8-1.7c0-1.4,1.2-2.2,3.5-2.2v-0.1
		c0-0.5-0.1-1.3-1.3-1.3c-0.5,0-1.1,0.2-1.5,0.4l-0.2-0.7c0.5-0.3,1.2-0.5,1.9-0.5c1.8,0,2.2,1.2,2.2,2.4v2.2c0,0.5,0,1,0.1,1.4
		H272.9z M272.7,66.5c-1.2,0-2.5,0.2-2.5,1.3c0,0.7,0.5,1,1,1c0.8,0,1.2-0.5,1.4-1c0-0.1,0.1-0.2,0.1-0.3V66.5z"/>
	<path d="M276.7,62v1.7h1.5v0.8h-1.5v3.1c0,0.7,0.2,1.1,0.8,1.1c0.3,0,0.5,0,0.6-0.1l0,0.8c-0.2,0.1-0.5,0.1-0.9,0.1
		c-0.5,0-0.9-0.2-1.1-0.4c-0.3-0.3-0.4-0.8-0.4-1.5v-3.2h-0.9v-0.8h0.9v-1.4L276.7,62z"/>
	<path d="M279.9,66.8c0,1.4,0.9,2,2,2c0.8,0,1.2-0.1,1.6-0.3l0.2,0.8c-0.4,0.2-1,0.4-1.9,0.4c-1.8,0-2.9-1.2-2.9-2.9s1-3.1,2.7-3.1
		c1.9,0,2.4,1.7,2.4,2.7c0,0.2,0,0.4,0,0.5H279.9z M283,66c0-0.7-0.3-1.7-1.5-1.7c-1.1,0-1.5,1-1.6,1.7H283z"/>
	<path d="M285.3,65.5c0-0.7,0-1.3,0-1.8h0.9l0,1.1h0c0.3-0.8,0.9-1.3,1.6-1.3c0.1,0,0.2,0,0.3,0v1c-0.1,0-0.2,0-0.4,0
		c-0.7,0-1.3,0.6-1.4,1.4c0,0.1,0,0.3,0,0.5v3.1h-1V65.5z"/>
	<path d="M289.3,65.6c0-0.7,0-1.3,0-1.9h0.9l0,1h0c0.4-0.7,1.1-1.1,2.1-1.1c1.4,0,2.5,1.2,2.5,3c0,2.1-1.3,3.1-2.6,3.1
		c-0.8,0-1.4-0.3-1.8-0.9h0v3.2h-1V65.6z M290.3,67.1c0,0.2,0,0.3,0,0.4c0.2,0.7,0.8,1.2,1.6,1.2c1.1,0,1.8-0.9,1.8-2.2
		c0-1.2-0.6-2.2-1.7-2.2c-0.7,0-1.4,0.5-1.6,1.3c0,0.1-0.1,0.3-0.1,0.4V67.1z"/>
	<path d="M296.1,65.5c0-0.7,0-1.3,0-1.8h0.9l0,1.1h0c0.3-0.8,0.9-1.3,1.6-1.3c0.1,0,0.2,0,0.3,0v1c-0.1,0-0.2,0-0.4,0
		c-0.7,0-1.3,0.6-1.4,1.4c0,0.1,0,0.3,0,0.5v3.1h-1V65.5z"/>
	<path d="M305.2,66.6c0,2.1-1.5,3.1-2.9,3.1c-1.6,0-2.8-1.2-2.8-3c0-1.9,1.3-3.1,2.9-3.1C304,63.6,305.2,64.8,305.2,66.6z
		 M300.5,66.6c0,1.3,0.7,2.2,1.8,2.2c1,0,1.8-0.9,1.8-2.3c0-1-0.5-2.2-1.7-2.2S300.5,65.5,300.5,66.6z"/>
	<path d="M311.7,66.6c0,2.1-1.5,3.1-2.9,3.1c-1.6,0-2.8-1.2-2.8-3c0-1.9,1.3-3.1,2.9-3.1C310.6,63.6,311.7,64.8,311.7,66.6z
		 M307.1,66.6c0,1.3,0.7,2.2,1.8,2.2c1,0,1.8-0.9,1.8-2.3c0-1-0.5-2.2-1.7-2.2S307.1,65.5,307.1,66.6z"/>
	<path d="M313.2,69.5v-5h-0.8v-0.8h0.8v-0.3c0-0.8,0.2-1.6,0.7-2c0.4-0.4,0.9-0.5,1.4-0.5c0.4,0,0.7,0.1,0.9,0.2l-0.1,0.8
		c-0.2-0.1-0.4-0.1-0.7-0.1c-0.9,0-1.1,0.8-1.1,1.7v0.3h1.4v0.8h-1.4v5H313.2z"/>
	<path d="M319.1,69.5c0-0.4,0-1,0-1.5v-7h1v3.6h0c0.4-0.6,1-1.1,2-1.1c1.4,0,2.5,1.2,2.4,3c0,2.1-1.3,3.1-2.6,3.1
		c-0.8,0-1.5-0.3-1.9-1.1h0l0,1H319.1z M320.2,67.2c0,0.1,0,0.3,0,0.4c0.2,0.7,0.8,1.2,1.6,1.2c1.1,0,1.8-0.9,1.8-2.2
		c0-1.2-0.6-2.2-1.7-2.2c-0.7,0-1.4,0.5-1.6,1.3c0,0.1-0.1,0.3-0.1,0.4V67.2z"/>
	<path d="M327.1,62.1c0,0.4-0.3,0.6-0.7,0.6c-0.4,0-0.6-0.3-0.6-0.6c0-0.4,0.3-0.7,0.7-0.7C326.9,61.4,327.1,61.7,327.1,62.1z
		 M325.9,69.5v-5.8h1.1v5.8H325.9z"/>
	<path d="M329.8,66.4L329.8,66.4c0.2-0.2,0.4-0.5,0.5-0.7l1.7-2h1.3l-2.2,2.4l2.6,3.4h-1.3l-2-2.8l-0.5,0.6v2.2h-1V61h1V66.4z"/>
	<path d="M335,66.8c0,1.4,0.9,2,2,2c0.8,0,1.2-0.1,1.6-0.3l0.2,0.8c-0.4,0.2-1,0.4-1.9,0.4c-1.8,0-2.9-1.2-2.9-2.9s1-3.1,2.7-3.1
		c1.9,0,2.4,1.7,2.4,2.7c0,0.2,0,0.4,0,0.5H335z M338.1,66c0-0.7-0.3-1.7-1.5-1.7c-1.1,0-1.5,1-1.6,1.7H338.1z"/>
	<path d="M342.9,69.5c0-0.4,0-1,0-1.5v-7h1v3.6h0c0.4-0.6,1-1.1,2-1.1c1.4,0,2.5,1.2,2.4,3c0,2.1-1.3,3.1-2.6,3.1
		c-0.8,0-1.5-0.3-1.9-1.1h0l0,1H342.9z M344,67.2c0,0.1,0,0.3,0,0.4c0.2,0.7,0.8,1.2,1.6,1.2c1.1,0,1.8-0.9,1.8-2.2
		c0-1.2-0.6-2.2-1.7-2.2c-0.7,0-1.4,0.5-1.6,1.3c0,0.1-0.1,0.3-0.1,0.4V67.2z"/>
	<path d="M353,69.5l-0.1-0.7h0c-0.3,0.5-0.9,0.9-1.8,0.9c-1.2,0-1.8-0.8-1.8-1.7c0-1.4,1.2-2.2,3.5-2.2v-0.1c0-0.5-0.1-1.3-1.3-1.3
		c-0.5,0-1.1,0.2-1.5,0.4l-0.2-0.7c0.5-0.3,1.2-0.5,1.9-0.5c1.8,0,2.2,1.2,2.2,2.4v2.2c0,0.5,0,1,0.1,1.4H353z M352.8,66.5
		c-1.2,0-2.5,0.2-2.5,1.3c0,0.7,0.5,1,1,1c0.8,0,1.2-0.5,1.4-1c0-0.1,0.1-0.2,0.1-0.3V66.5z"/>
	<path d="M360.6,63.7c0,0.4,0,0.9,0,1.6v3.4c0,1.3-0.3,2.1-0.8,2.7c-0.6,0.5-1.4,0.7-2.1,0.7c-0.7,0-1.5-0.2-1.9-0.5l0.3-0.8
		c0.4,0.2,1,0.5,1.7,0.5c1.1,0,1.9-0.6,1.9-2v-0.6h0c-0.3,0.5-0.9,1-1.8,1c-1.4,0-2.5-1.2-2.5-2.8c0-2,1.3-3.1,2.6-3.1
		c1,0,1.6,0.5,1.8,1h0l0-0.9H360.6z M359.5,66c0-0.2,0-0.3-0.1-0.5c-0.2-0.6-0.7-1.1-1.5-1.1c-1,0-1.7,0.9-1.7,2.2
		c0,1.1,0.6,2.1,1.7,2.1c0.6,0,1.2-0.4,1.5-1.1c0.1-0.2,0.1-0.4,0.1-0.6V66z"/>
	<path d="M362.1,68.4c0.3,0.2,0.9,0.4,1.4,0.4c0.8,0,1.1-0.4,1.1-0.9c0-0.5-0.3-0.8-1.1-1.1c-1-0.4-1.5-0.9-1.5-1.6
		c0-0.9,0.8-1.7,2-1.7c0.6,0,1.1,0.2,1.4,0.4l-0.3,0.8c-0.2-0.1-0.6-0.3-1.2-0.3c-0.6,0-1,0.4-1,0.8c0,0.5,0.3,0.7,1.1,1
		c1,0.4,1.5,0.9,1.5,1.8c0,1-0.8,1.7-2.2,1.7c-0.6,0-1.2-0.2-1.6-0.4L362.1,68.4z"/>
	<path d="M366.2,71c0.3-0.7,0.6-2,0.7-2.9l1.2-0.1c-0.3,1-0.8,2.4-1.1,2.9L366.2,71z"/>
	<path d="M95,83.7c-0.3,0.1-0.9,0.3-1.7,0.3c-1.8,0-2.9-1.2-2.9-3c0-1.8,1.2-3.1,3.1-3.1c0.6,0,1.2,0.2,1.5,0.3l-0.2,0.8
		c-0.3-0.1-0.6-0.3-1.2-0.3c-1.3,0-2.1,1-2.1,2.2c0,1.3,0.9,2.2,2,2.2c0.6,0,1-0.2,1.3-0.3L95,83.7z"/>
	<path d="M96.2,75.4h1.1V79h0c0.2-0.3,0.4-0.6,0.8-0.7c0.3-0.2,0.7-0.3,1.1-0.3c0.8,0,2,0.5,2,2.5v3.5h-1.1v-3.3
		c0-0.9-0.3-1.7-1.3-1.7c-0.7,0-1.2,0.5-1.4,1.1c-0.1,0.1-0.1,0.3-0.1,0.5v3.5h-1.1V75.4z"/>
	<path d="M104,76.5c0,0.4-0.3,0.6-0.7,0.6c-0.4,0-0.6-0.3-0.6-0.6c0-0.4,0.3-0.7,0.7-0.7C103.8,75.8,104,76.1,104,76.5z M102.8,83.9
		v-5.8h1.1v5.8H102.8z"/>
	<path d="M105.7,75.4h1.1v8.5h-1.1V75.4z"/>
	<path d="M113.5,75.4v7c0,0.5,0,1.1,0,1.5h-0.9l0-1h0c-0.3,0.6-1,1.1-2,1.1c-1.4,0-2.5-1.2-2.5-3c0-1.9,1.2-3.1,2.6-3.1
		c0.9,0,1.5,0.4,1.8,0.9h0v-3.5H113.5z M112.4,80.5c0-0.1,0-0.3,0-0.4c-0.2-0.7-0.7-1.2-1.5-1.2c-1.1,0-1.7,1-1.7,2.2
		c0,1.2,0.6,2.1,1.7,2.1c0.7,0,1.4-0.5,1.5-1.3c0-0.1,0-0.3,0-0.5V80.5z"/>
	<path d="M117.7,82.8c0.3,0.2,0.9,0.4,1.4,0.4c0.8,0,1.1-0.4,1.1-0.9c0-0.5-0.3-0.8-1.1-1.1c-1-0.4-1.5-0.9-1.5-1.6
		c0-0.9,0.8-1.7,2-1.7c0.6,0,1.1,0.2,1.4,0.4l-0.3,0.8c-0.2-0.1-0.6-0.3-1.2-0.3c-0.6,0-1,0.4-1,0.8c0,0.5,0.3,0.7,1.1,1
		c1,0.4,1.5,0.9,1.5,1.8c0,1-0.8,1.7-2.2,1.7c-0.6,0-1.2-0.2-1.6-0.4L117.7,82.8z"/>
	<path d="M123.1,81.2c0,1.4,0.9,2,2,2c0.8,0,1.2-0.1,1.6-0.3l0.2,0.8c-0.4,0.2-1,0.4-1.9,0.4c-1.8,0-2.9-1.2-2.9-2.9s1-3.1,2.7-3.1
		c1.9,0,2.4,1.7,2.4,2.7c0,0.2,0,0.4,0,0.5H123.1z M126.2,80.4c0-0.7-0.3-1.7-1.5-1.7c-1.1,0-1.5,1-1.6,1.7H126.2z"/>
	<path d="M131.8,83.9l-0.1-0.7h0c-0.3,0.5-0.9,0.9-1.8,0.9c-1.2,0-1.8-0.8-1.8-1.7c0-1.4,1.2-2.2,3.5-2.2v-0.1
		c0-0.5-0.1-1.3-1.3-1.3c-0.5,0-1.1,0.2-1.5,0.4l-0.2-0.7c0.5-0.3,1.2-0.5,1.9-0.5c1.8,0,2.2,1.2,2.2,2.4v2.2c0,0.5,0,1,0.1,1.4
		H131.8z M131.6,80.9c-1.2,0-2.5,0.2-2.5,1.3c0,0.7,0.5,1,1,1c0.8,0,1.2-0.5,1.4-1c0-0.1,0.1-0.2,0.1-0.3V80.9z"/>
	<path d="M135.6,76.4v1.7h1.5v0.8h-1.5V82c0,0.7,0.2,1.1,0.8,1.1c0.3,0,0.5,0,0.6-0.1l0,0.8c-0.2,0.1-0.5,0.1-0.9,0.1
		c-0.5,0-0.9-0.2-1.1-0.4c-0.3-0.3-0.4-0.8-0.4-1.5v-3.2h-0.9v-0.8h0.9v-1.4L135.6,76.4z"/>
	<path d="M138.1,82.8c0.3,0.2,0.9,0.4,1.4,0.4c0.8,0,1.1-0.4,1.1-0.9c0-0.5-0.3-0.8-1.1-1.1c-1-0.4-1.5-0.9-1.5-1.6
		c0-0.9,0.8-1.7,2-1.7c0.6,0,1.1,0.2,1.4,0.4l-0.3,0.8c-0.2-0.1-0.6-0.3-1.2-0.3c-0.6,0-1,0.4-1,0.8c0,0.5,0.3,0.7,1.1,1
		c1,0.4,1.5,0.9,1.5,1.8c0,1-0.8,1.7-2.2,1.7c-0.6,0-1.2-0.2-1.6-0.4L138.1,82.8z"/>
	<path d="M142.2,85.4c0.3-0.7,0.6-2,0.7-2.9l1.2-0.1c-0.3,1-0.8,2.4-1.1,2.9L142.2,85.4z"/>
	<path d="M147.9,75.4h1.1V79h0c0.2-0.3,0.4-0.6,0.8-0.7c0.3-0.2,0.7-0.3,1.1-0.3c0.8,0,2,0.5,2,2.5v3.5h-1.1v-3.3
		c0-0.9-0.3-1.7-1.3-1.7c-0.7,0-1.2,0.5-1.4,1.1c-0.1,0.1-0.1,0.3-0.1,0.5v3.5h-1.1V75.4z"/>
	<path d="M155.2,81.2c0,1.4,0.9,2,2,2c0.8,0,1.2-0.1,1.6-0.3l0.2,0.8c-0.4,0.2-1,0.4-1.9,0.4c-1.8,0-2.9-1.2-2.9-2.9s1-3.1,2.7-3.1
		c1.9,0,2.4,1.7,2.4,2.7c0,0.2,0,0.4,0,0.5H155.2z M158.3,80.4c0-0.7-0.3-1.7-1.5-1.7c-1.1,0-1.5,1-1.6,1.7H158.3z"/>
	<path d="M160.6,75.4h1.1v8.5h-1.1V75.4z"/>
	<path d="M163.4,79.7c0-0.6,0-1.1,0-1.6h0.9l0,0.9h0c0.3-0.6,0.9-1.1,1.8-1.1c0.8,0,1.4,0.5,1.6,1.2h0c0.2-0.3,0.4-0.6,0.6-0.8
		c0.3-0.3,0.7-0.4,1.3-0.4c0.8,0,1.9,0.5,1.9,2.5v3.4h-1v-3.3c0-1.1-0.4-1.8-1.3-1.8c-0.6,0-1.1,0.4-1.2,1c0,0.1-0.1,0.3-0.1,0.5
		v3.6h-1v-3.5c0-0.9-0.4-1.6-1.2-1.6c-0.7,0-1.1,0.5-1.3,1.1c-0.1,0.2-0.1,0.3-0.1,0.5v3.5h-1V79.7z"/>
	<path d="M174,81.2c0,1.4,0.9,2,2,2c0.8,0,1.2-0.1,1.6-0.3l0.2,0.8c-0.4,0.2-1,0.4-1.9,0.4c-1.8,0-2.9-1.2-2.9-2.9s1-3.1,2.7-3.1
		c1.9,0,2.4,1.7,2.4,2.7c0,0.2,0,0.4,0,0.5H174z M177.1,80.4c0-0.7-0.3-1.7-1.5-1.7c-1.1,0-1.5,1-1.6,1.7H177.1z"/>
	<path d="M180.7,76.4v1.7h1.5v0.8h-1.5V82c0,0.7,0.2,1.1,0.8,1.1c0.3,0,0.5,0,0.6-0.1l0,0.8c-0.2,0.1-0.5,0.1-0.9,0.1
		c-0.5,0-0.9-0.2-1.1-0.4c-0.3-0.3-0.4-0.8-0.4-1.5v-3.2h-0.9v-0.8h0.9v-1.4L180.7,76.4z"/>
	<path d="M183.3,82.8c0.3,0.2,0.9,0.4,1.4,0.4c0.8,0,1.1-0.4,1.1-0.9c0-0.5-0.3-0.8-1.1-1.1c-1-0.4-1.5-0.9-1.5-1.6
		c0-0.9,0.8-1.7,2-1.7c0.6,0,1.1,0.2,1.4,0.4l-0.3,0.8c-0.2-0.1-0.6-0.3-1.2-0.3c-0.6,0-1,0.4-1,0.8c0,0.5,0.3,0.7,1.1,1
		c1,0.4,1.5,0.9,1.5,1.8c0,1-0.8,1.7-2.2,1.7c-0.6,0-1.2-0.2-1.6-0.4L183.3,82.8z"/>
	<path d="M193.9,83.9l-0.1-0.7h0c-0.3,0.5-0.9,0.9-1.8,0.9c-1.2,0-1.8-0.8-1.8-1.7c0-1.4,1.2-2.2,3.5-2.2v-0.1
		c0-0.5-0.1-1.3-1.3-1.3c-0.5,0-1.1,0.2-1.5,0.4l-0.2-0.7c0.5-0.3,1.2-0.5,1.9-0.5c1.8,0,2.2,1.2,2.2,2.4v2.2c0,0.5,0,1,0.1,1.4
		H193.9z M193.8,80.9c-1.2,0-2.5,0.2-2.5,1.3c0,0.7,0.5,1,1,1c0.8,0,1.2-0.5,1.4-1c0-0.1,0.1-0.2,0.1-0.3V80.9z"/>
	<path d="M196.5,79.7c0-0.6,0-1.1,0-1.6h0.9l0.1,1h0c0.3-0.6,1-1.1,1.9-1.1c0.8,0,2.1,0.5,2.1,2.5v3.5h-1.1v-3.3
		c0-0.9-0.3-1.7-1.3-1.7c-0.7,0-1.2,0.5-1.4,1.1c0,0.1-0.1,0.3-0.1,0.5v3.5h-1.1V79.7z"/>
	<path d="M208.2,75.4v7c0,0.5,0,1.1,0,1.5h-0.9l0-1h0c-0.3,0.6-1,1.1-2,1.1c-1.4,0-2.5-1.2-2.5-3c0-1.9,1.2-3.1,2.6-3.1
		c0.9,0,1.5,0.4,1.8,0.9h0v-3.5H208.2z M207.1,80.5c0-0.1,0-0.3,0-0.4c-0.2-0.7-0.7-1.2-1.5-1.2c-1.1,0-1.7,1-1.7,2.2
		c0,1.2,0.6,2.1,1.7,2.1c0.7,0,1.4-0.5,1.5-1.3c0-0.1,0-0.3,0-0.5V80.5z"/>
	<path d="M212.5,80c0-0.7,0-1.3,0-1.9h0.9l0,1h0c0.4-0.7,1.1-1.1,2.1-1.1c1.4,0,2.5,1.2,2.5,3c0,2.1-1.3,3.1-2.6,3.1
		c-0.8,0-1.4-0.3-1.8-0.9h0v3.2h-1V80z M213.5,81.5c0,0.2,0,0.3,0,0.4c0.2,0.7,0.8,1.2,1.6,1.2c1.1,0,1.8-0.9,1.8-2.2
		c0-1.2-0.6-2.2-1.7-2.2c-0.7,0-1.4,0.5-1.6,1.3c0,0.1-0.1,0.3-0.1,0.4V81.5z"/>
	<path d="M224.5,81c0,2.1-1.5,3.1-2.9,3.1c-1.6,0-2.8-1.2-2.8-3c0-1.9,1.3-3.1,2.9-3.1C223.4,78,224.5,79.2,224.5,81z M219.9,81
		c0,1.3,0.7,2.2,1.8,2.2c1,0,1.8-0.9,1.8-2.3c0-1-0.5-2.2-1.7-2.2S219.9,79.9,219.9,81z"/>
	<path d="M225.9,79.7c0-0.6,0-1.1,0-1.6h0.9l0.1,1h0c0.3-0.6,1-1.1,1.9-1.1c0.8,0,2.1,0.5,2.1,2.5v3.5h-1.1v-3.3
		c0-0.9-0.3-1.7-1.3-1.7c-0.7,0-1.2,0.5-1.4,1.1c0,0.1-0.1,0.3-0.1,0.5v3.5h-1.1V79.7z"/>
	<path d="M236.7,83.7c-0.3,0.1-0.9,0.3-1.7,0.3c-1.8,0-2.9-1.2-2.9-3c0-1.8,1.2-3.1,3.1-3.1c0.6,0,1.2,0.2,1.5,0.3l-0.2,0.8
		c-0.3-0.1-0.6-0.3-1.2-0.3c-1.3,0-2.1,1-2.1,2.2c0,1.3,0.9,2.2,2,2.2c0.6,0,1-0.2,1.3-0.3L236.7,83.7z"/>
	<path d="M237.9,75.4h1.1V79h0c0.2-0.3,0.4-0.6,0.8-0.7c0.3-0.2,0.7-0.3,1.1-0.3c0.8,0,2,0.5,2,2.5v3.5h-1.1v-3.3
		c0-0.9-0.3-1.7-1.3-1.7c-0.7,0-1.2,0.5-1.4,1.1c-0.1,0.1-0.1,0.3-0.1,0.5v3.5h-1.1V75.4z"/>
	<path d="M249.8,81c0,2.1-1.5,3.1-2.9,3.1c-1.6,0-2.8-1.2-2.8-3c0-1.9,1.3-3.1,2.9-3.1C248.7,78,249.8,79.2,249.8,81z M245.2,81
		c0,1.3,0.7,2.2,1.8,2.2c1,0,1.8-0.9,1.8-2.3c0-1-0.5-2.2-1.7-2.2S245.2,79.9,245.2,81z"/>
	<path d="M251,82.8c0.3,0.2,0.9,0.4,1.4,0.4c0.8,0,1.1-0.4,1.1-0.9c0-0.5-0.3-0.8-1.1-1.1c-1-0.4-1.5-0.9-1.5-1.6
		c0-0.9,0.8-1.7,2-1.7c0.6,0,1.1,0.2,1.4,0.4l-0.3,0.8c-0.2-0.1-0.6-0.3-1.2-0.3c-0.6,0-1,0.4-1,0.8c0,0.5,0.3,0.7,1.1,1
		c1,0.4,1.5,0.9,1.5,1.8c0,1-0.8,1.7-2.2,1.7c-0.6,0-1.2-0.2-1.6-0.4L251,82.8z"/>
	<path d="M261.7,83.9l-0.1-0.7h0c-0.3,0.5-0.9,0.9-1.8,0.9c-1.2,0-1.8-0.8-1.8-1.7c0-1.4,1.2-2.2,3.5-2.2v-0.1
		c0-0.5-0.1-1.3-1.3-1.3c-0.5,0-1.1,0.2-1.5,0.4l-0.2-0.7c0.5-0.3,1.2-0.5,1.9-0.5c1.8,0,2.2,1.2,2.2,2.4v2.2c0,0.5,0,1,0.1,1.4
		H261.7z M261.5,80.9c-1.2,0-2.5,0.2-2.5,1.3c0,0.7,0.5,1,1,1c0.8,0,1.2-0.5,1.4-1c0-0.1,0.1-0.2,0.1-0.3V80.9z"/>
	<path d="M264.6,78.1l1.1,3.3c0.2,0.5,0.3,1,0.5,1.5h0c0.1-0.5,0.3-1,0.5-1.5l1.1-3.3h1.1l-2.3,5.8h-1l-2.2-5.8H264.6z"/>
	<path d="M273.1,83.9l-0.1-0.7h0c-0.3,0.5-0.9,0.9-1.8,0.9c-1.2,0-1.8-0.8-1.8-1.7c0-1.4,1.2-2.2,3.5-2.2v-0.1
		c0-0.5-0.1-1.3-1.3-1.3c-0.5,0-1.1,0.2-1.5,0.4l-0.2-0.7c0.5-0.3,1.2-0.5,1.9-0.5c1.8,0,2.2,1.2,2.2,2.4v2.2c0,0.5,0,1,0.1,1.4
		H273.1z M272.9,80.9c-1.2,0-2.5,0.2-2.5,1.3c0,0.7,0.5,1,1,1c0.8,0,1.2-0.5,1.4-1c0-0.1,0.1-0.2,0.1-0.3V80.9z"/>
	<path d="M276.8,76.5c0,0.4-0.3,0.6-0.7,0.6c-0.4,0-0.6-0.3-0.6-0.6c0-0.4,0.3-0.7,0.7-0.7C276.6,75.8,276.8,76.1,276.8,76.5z
		 M275.7,83.9v-5.8h1.1v5.8H275.7z"/>
	<path d="M278.5,75.4h1.1v8.5h-1.1V75.4z"/>
	<path d="M284.5,83.9l-0.1-0.7h0c-0.3,0.5-0.9,0.9-1.8,0.9c-1.2,0-1.8-0.8-1.8-1.7c0-1.4,1.2-2.2,3.5-2.2v-0.1
		c0-0.5-0.1-1.3-1.3-1.3c-0.5,0-1.1,0.2-1.5,0.4l-0.2-0.7c0.5-0.3,1.2-0.5,1.9-0.5c1.8,0,2.2,1.2,2.2,2.4v2.2c0,0.5,0,1,0.1,1.4
		H284.5z M284.4,80.9c-1.2,0-2.5,0.2-2.5,1.3c0,0.7,0.5,1,1,1c0.8,0,1.2-0.5,1.4-1c0-0.1,0.1-0.2,0.1-0.3V80.9z"/>
	<path d="M287,83.9c0-0.4,0-1,0-1.5v-7h1V79h0c0.4-0.6,1-1.1,2-1.1c1.4,0,2.5,1.2,2.4,3c0,2.1-1.3,3.1-2.6,3.1
		c-0.8,0-1.5-0.3-1.9-1.1h0l0,1H287z M288.1,81.6c0,0.1,0,0.3,0,0.4c0.2,0.7,0.8,1.2,1.6,1.2c1.1,0,1.8-0.9,1.8-2.2
		c0-1.2-0.6-2.2-1.7-2.2c-0.7,0-1.4,0.5-1.6,1.3c0,0.1-0.1,0.3-0.1,0.4V81.6z"/>
	<path d="M293.9,75.4h1.1v8.5h-1.1V75.4z"/>
	<path d="M297.3,81.2c0,1.4,0.9,2,2,2c0.8,0,1.2-0.1,1.6-0.3l0.2,0.8c-0.4,0.2-1,0.4-1.9,0.4c-1.8,0-2.9-1.2-2.9-2.9s1-3.1,2.7-3.1
		c1.9,0,2.4,1.7,2.4,2.7c0,0.2,0,0.4,0,0.5H297.3z M300.4,80.4c0-0.7-0.3-1.7-1.5-1.7c-1.1,0-1.5,1-1.6,1.7H300.4z"/>
	<path d="M302.4,83.3c0-0.4,0.3-0.8,0.7-0.8s0.7,0.3,0.7,0.8c0,0.4-0.3,0.8-0.7,0.8C302.6,84,302.4,83.7,302.4,83.3z"/>
	<path d="M90.8,104.6h4.4v0.9h-3.3v2.7H95v0.9h-3.1v3.7h-1V104.6z"/>
	<path d="M101.5,109.8c0,2.1-1.5,3.1-2.9,3.1c-1.6,0-2.8-1.2-2.8-3c0-1.9,1.3-3.1,2.9-3.1C100.4,106.8,101.5,108,101.5,109.8z
		 M96.9,109.8c0,1.3,0.7,2.2,1.8,2.2c1,0,1.8-0.9,1.8-2.3c0-1-0.5-2.2-1.7-2.2S96.9,108.7,96.9,109.8z"/>
	<path d="M102.9,108.7c0-0.7,0-1.3,0-1.8h0.9l0,1.1h0c0.3-0.8,0.9-1.3,1.6-1.3c0.1,0,0.2,0,0.3,0v1c-0.1,0-0.2,0-0.4,0
		c-0.7,0-1.3,0.6-1.4,1.4c0,0.1,0,0.3,0,0.5v3.1h-1V108.7z"/>
	<path d="M110.5,105.3c0,0.4-0.3,0.6-0.7,0.6c-0.4,0-0.6-0.3-0.6-0.6c0-0.4,0.3-0.7,0.7-0.7C110.3,104.6,110.5,104.9,110.5,105.3z
		 M109.3,112.7v-5.8h1.1v5.8H109.3z"/>
	<path d="M112.1,108.5c0-0.6,0-1.1,0-1.6h0.9l0.1,1h0c0.3-0.6,1-1.1,1.9-1.1c0.8,0,2.1,0.5,2.1,2.5v3.5H116v-3.3
		c0-0.9-0.3-1.7-1.3-1.7c-0.7,0-1.2,0.5-1.4,1.1c0,0.1-0.1,0.3-0.1,0.5v3.5h-1.1V108.5z"/>
	<path d="M122.8,111.8L122.8,111.8c-0.3,0.6-1,1-1.9,1c-1.4,0-2.5-1.2-2.5-2.9c0-2.2,1.4-3.1,2.6-3.1c0.9,0,1.5,0.4,1.8,1h0l0-0.9h1
		c0,0.5,0,1,0,1.6v6.6h-1.1V111.8z M122.8,109.3c0-0.1,0-0.3,0-0.4c-0.2-0.6-0.7-1.2-1.5-1.2c-1.1,0-1.8,0.9-1.8,2.2
		c0,1.2,0.6,2.2,1.7,2.2c0.7,0,1.3-0.4,1.5-1.2c0-0.1,0.1-0.3,0.1-0.5V109.3z"/>
	<path d="M130.4,111.1c0,0.6,0,1.1,0,1.6h-0.9l-0.1-0.9h0c-0.3,0.5-0.9,1.1-1.9,1.1c-0.9,0-2-0.5-2-2.5v-3.4h1.1v3.2
		c0,1.1,0.3,1.8,1.3,1.8c0.7,0,1.2-0.5,1.4-1c0.1-0.2,0.1-0.3,0.1-0.5v-3.6h1.1V111.1z"/>
	<path d="M133.4,105.3c0,0.4-0.3,0.6-0.7,0.6c-0.4,0-0.6-0.3-0.6-0.6c0-0.4,0.3-0.7,0.7-0.7C133.1,104.6,133.4,104.9,133.4,105.3z
		 M132.2,112.7v-5.8h1.1v5.8H132.2z"/>
	<path d="M135,108.7c0-0.7,0-1.3,0-1.8h0.9l0,1.1h0c0.3-0.8,0.9-1.3,1.6-1.3c0.1,0,0.2,0,0.3,0v1c-0.1,0-0.2,0-0.4,0
		c-0.7,0-1.3,0.6-1.4,1.4c0,0.1,0,0.3,0,0.5v3.1h-1V108.7z"/>
	<path d="M140.1,105.3c0,0.4-0.3,0.6-0.7,0.6c-0.4,0-0.6-0.3-0.6-0.6c0-0.4,0.3-0.7,0.7-0.7C139.9,104.6,140.1,104.9,140.1,105.3z
		 M139,112.7v-5.8h1.1v5.8H139z"/>
	<path d="M142.4,110c0,1.4,0.9,2,2,2c0.8,0,1.2-0.1,1.6-0.3l0.2,0.8c-0.4,0.2-1,0.4-1.9,0.4c-1.8,0-2.9-1.2-2.9-2.9s1-3.1,2.7-3.1
		c1.9,0,2.4,1.7,2.4,2.7c0,0.2,0,0.4,0,0.5H142.4z M145.4,109.2c0-0.7-0.3-1.7-1.5-1.7c-1.1,0-1.5,1-1.6,1.7H145.4z"/>
	<path d="M147.6,111.6c0.3,0.2,0.9,0.4,1.4,0.4c0.8,0,1.1-0.4,1.1-0.9c0-0.5-0.3-0.8-1.1-1.1c-1-0.4-1.5-0.9-1.5-1.6
		c0-0.9,0.8-1.7,2-1.7c0.6,0,1.1,0.2,1.4,0.4l-0.3,0.8c-0.2-0.1-0.6-0.3-1.2-0.3c-0.6,0-1,0.4-1,0.8c0,0.5,0.3,0.7,1.1,1
		c1,0.4,1.5,0.9,1.5,1.8c0,1-0.8,1.7-2.2,1.7c-0.6,0-1.2-0.2-1.6-0.4L147.6,111.6z"/>
	<path d="M151.7,114.2c0.3-0.7,0.6-2,0.7-2.9l1.2-0.1c-0.3,1-0.8,2.4-1.1,2.9L151.7,114.2z"/>
	<path d="M157.3,111.6c0.3,0.2,0.9,0.4,1.4,0.4c0.8,0,1.1-0.4,1.1-0.9c0-0.5-0.3-0.8-1.1-1.1c-1-0.4-1.5-0.9-1.5-1.6
		c0-0.9,0.8-1.7,2-1.7c0.6,0,1.1,0.2,1.4,0.4l-0.3,0.8c-0.2-0.1-0.6-0.3-1.2-0.3c-0.6,0-1,0.4-1,0.8c0,0.5,0.3,0.7,1.1,1
		c1,0.4,1.5,0.9,1.5,1.8c0,1-0.8,1.7-2.2,1.7c-0.6,0-1.2-0.2-1.6-0.4L157.3,111.6z"/>
	<path d="M162.8,110c0,1.4,0.9,2,2,2c0.8,0,1.2-0.1,1.6-0.3l0.2,0.8c-0.4,0.2-1,0.4-1.9,0.4c-1.8,0-2.9-1.2-2.9-2.9s1-3.1,2.7-3.1
		c1.9,0,2.4,1.7,2.4,2.7c0,0.2,0,0.4,0,0.5H162.8z M165.9,109.2c0-0.7-0.3-1.7-1.5-1.7c-1.1,0-1.5,1-1.6,1.7H165.9z"/>
	<path d="M168.2,108.5c0-0.6,0-1.1,0-1.6h0.9l0.1,1h0c0.3-0.6,1-1.1,1.9-1.1c0.8,0,2.1,0.5,2.1,2.5v3.5h-1.1v-3.3
		c0-0.9-0.3-1.7-1.3-1.7c-0.7,0-1.2,0.5-1.4,1.1c0,0.1-0.1,0.3-0.1,0.5v3.5h-1.1V108.5z"/>
	<path d="M179.9,104.2v7c0,0.5,0,1.1,0,1.5H179l0-1h0c-0.3,0.6-1,1.1-2,1.1c-1.4,0-2.5-1.2-2.5-3c0-1.9,1.2-3.1,2.6-3.1
		c0.9,0,1.5,0.4,1.8,0.9h0v-3.5H179.9z M178.8,109.3c0-0.1,0-0.3,0-0.4c-0.2-0.7-0.7-1.2-1.5-1.2c-1.1,0-1.7,1-1.7,2.2
		c0,1.2,0.6,2.1,1.7,2.1c0.7,0,1.4-0.5,1.5-1.3c0-0.1,0-0.3,0-0.5V109.3z"/>
	<path d="M187.4,112.7l-0.1-0.7h0c-0.3,0.5-0.9,0.9-1.8,0.9c-1.2,0-1.8-0.8-1.8-1.7c0-1.4,1.2-2.2,3.5-2.2v-0.1
		c0-0.5-0.1-1.3-1.3-1.3c-0.5,0-1.1,0.2-1.5,0.4l-0.2-0.7c0.5-0.3,1.2-0.5,1.9-0.5c1.8,0,2.2,1.2,2.2,2.4v2.2c0,0.5,0,1,0.1,1.4
		H187.4z M187.2,109.7c-1.2,0-2.5,0.2-2.5,1.3c0,0.7,0.5,1,1,1c0.8,0,1.2-0.5,1.4-1c0-0.1,0.1-0.2,0.1-0.3V109.7z"/>
	<path d="M189.9,108.5c0-0.6,0-1.1,0-1.6h0.9l0.1,1h0c0.3-0.6,1-1.1,1.9-1.1c0.8,0,2.1,0.5,2.1,2.5v3.5h-1.1v-3.3
		c0-0.9-0.3-1.7-1.3-1.7c-0.7,0-1.2,0.5-1.4,1.1c0,0.1-0.1,0.3-0.1,0.5v3.5h-1.1V108.5z"/>
	<path d="M199.7,110c0,1.4,0.9,2,2,2c0.8,0,1.2-0.1,1.6-0.3l0.2,0.8c-0.4,0.2-1,0.4-1.9,0.4c-1.8,0-2.9-1.2-2.9-2.9s1-3.1,2.7-3.1
		c1.9,0,2.4,1.7,2.4,2.7c0,0.2,0,0.4,0,0.5H199.7z M202.8,109.2c0-0.7-0.3-1.7-1.5-1.7c-1.1,0-1.5,1-1.6,1.7H202.8z"/>
	<path d="M205.2,108.5c0-0.6,0-1.1,0-1.6h0.9l0,0.9h0c0.3-0.6,0.9-1.1,1.8-1.1c0.8,0,1.4,0.5,1.6,1.2h0c0.2-0.3,0.4-0.6,0.6-0.8
		c0.3-0.3,0.7-0.4,1.3-0.4c0.8,0,1.9,0.5,1.9,2.5v3.4h-1v-3.3c0-1.1-0.4-1.8-1.3-1.8c-0.6,0-1.1,0.4-1.2,1c0,0.1-0.1,0.3-0.1,0.5
		v3.6h-1v-3.5c0-0.9-0.4-1.6-1.2-1.6c-0.7,0-1.1,0.5-1.3,1.1c-0.1,0.2-0.1,0.3-0.1,0.5v3.5h-1V108.5z"/>
	<path d="M218.4,112.7l-0.1-0.7h0c-0.3,0.5-0.9,0.9-1.8,0.9c-1.2,0-1.8-0.8-1.8-1.7c0-1.4,1.2-2.2,3.5-2.2v-0.1
		c0-0.5-0.1-1.3-1.3-1.3c-0.5,0-1.1,0.2-1.5,0.4l-0.2-0.7c0.5-0.3,1.2-0.5,1.9-0.5c1.8,0,2.2,1.2,2.2,2.4v2.2c0,0.5,0,1,0.1,1.4
		H218.4z M218.2,109.7c-1.2,0-2.5,0.2-2.5,1.3c0,0.7,0.5,1,1,1c0.8,0,1.2-0.5,1.4-1c0-0.1,0.1-0.2,0.1-0.3V109.7z"/>
	<path d="M222.1,105.3c0,0.4-0.3,0.6-0.7,0.6c-0.4,0-0.6-0.3-0.6-0.6c0-0.4,0.3-0.7,0.7-0.7C221.9,104.6,222.1,104.9,222.1,105.3z
		 M221,112.7v-5.8h1.1v5.8H221z"/>
	<path d="M223.8,104.2h1.1v8.5h-1.1V104.2z"/>
	<path d="M230.4,105.2v1.7h1.5v0.8h-1.5v3.1c0,0.7,0.2,1.1,0.8,1.1c0.3,0,0.5,0,0.6-0.1l0,0.8c-0.2,0.1-0.5,0.1-0.9,0.1
		c-0.5,0-0.9-0.2-1.1-0.4c-0.3-0.3-0.4-0.8-0.4-1.5v-3.2h-0.9v-0.8h0.9v-1.4L230.4,105.2z"/>
	<path d="M238.3,109.8c0,2.1-1.5,3.1-2.9,3.1c-1.6,0-2.8-1.2-2.8-3c0-1.9,1.3-3.1,2.9-3.1C237.2,106.8,238.3,108,238.3,109.8z
		 M233.7,109.8c0,1.3,0.7,2.2,1.8,2.2c1,0,1.8-0.9,1.8-2.3c0-1-0.5-2.2-1.7-2.2C234.2,107.6,233.7,108.7,233.7,109.8z"/>
	<path d="M239.4,107.9c0-0.4,0.3-0.8,0.7-0.8s0.7,0.3,0.7,0.8c0,0.4-0.3,0.7-0.7,0.7C239.7,108.6,239.4,108.3,239.4,107.9z
		 M239.4,112.1c0-0.4,0.3-0.8,0.7-0.8s0.7,0.3,0.7,0.8c0,0.4-0.3,0.7-0.7,0.7C239.7,112.8,239.4,112.5,239.4,112.1z"/>
	<path d="M245.8,105.3c0,0.4-0.3,0.6-0.7,0.6c-0.4,0-0.6-0.3-0.6-0.6c0-0.4,0.3-0.7,0.7-0.7C245.6,104.6,245.8,104.9,245.8,105.3z
		 M244.7,112.7v-5.8h1.1v5.8H244.7z"/>
	<path d="M247.5,108.5c0-0.6,0-1.1,0-1.6h0.9l0.1,1h0c0.3-0.6,1-1.1,1.9-1.1c0.8,0,2.1,0.5,2.1,2.5v3.5h-1.1v-3.3
		c0-0.9-0.3-1.7-1.3-1.7c-0.7,0-1.2,0.5-1.4,1.1c0,0.1-0.1,0.3-0.1,0.5v3.5h-1.1V108.5z"/>
	<path d="M254.2,112.7v-5h-0.8v-0.8h0.8v-0.3c0-0.8,0.2-1.6,0.7-2c0.4-0.4,0.9-0.5,1.4-0.5c0.4,0,0.7,0.1,0.9,0.2l-0.1,0.8
		c-0.2-0.1-0.4-0.1-0.7-0.1c-0.9,0-1.1,0.8-1.1,1.7v0.3h1.4v0.8h-1.4v5H254.2z"/>
	<path d="M262.7,109.8c0,2.1-1.5,3.1-2.9,3.1c-1.6,0-2.8-1.2-2.8-3c0-1.9,1.3-3.1,2.9-3.1C261.6,106.8,262.7,108,262.7,109.8z
		 M258.1,109.8c0,1.3,0.7,2.2,1.8,2.2c1,0,1.8-0.9,1.8-2.3c0-1-0.5-2.2-1.7-2.2S258.1,108.7,258.1,109.8z"/>
	<path d="M269.5,113.5c-0.7,0.3-1.3,0.5-2.1,0.5c-2,0-3.6-1.4-3.6-3.7c0-2.5,1.7-4.6,4.4-4.6c2.1,0,3.5,1.5,3.5,3.5
		c0,1.8-1,2.9-2.1,2.9c-0.5,0-0.9-0.3-0.9-1.1h0c-0.4,0.7-1,1.1-1.7,1.1c-0.7,0-1.3-0.6-1.3-1.5c0-1.5,1.2-2.8,2.8-2.8
		c0.5,0,1,0.1,1.3,0.3l-0.4,2.2c-0.2,0.9,0,1.3,0.4,1.3c0.6,0,1.3-0.8,1.3-2.2c0-1.7-1-3-2.9-3c-2,0-3.6,1.5-3.6,4
		c0,2,1.3,3.2,3.1,3.2c0.7,0,1.3-0.1,1.8-0.4L269.5,113.5z M268.8,108.3c-0.1,0-0.3-0.1-0.6-0.1c-1.1,0-1.9,1-1.9,2.2
		c0,0.5,0.3,0.9,0.8,0.9c0.7,0,1.3-0.9,1.5-1.6L268.8,108.3z"/>
	<path d="M272.9,108.7c0-0.7,0-1.3,0-1.8h0.9l0,1.1h0c0.3-0.8,0.9-1.3,1.6-1.3c0.1,0,0.2,0,0.3,0v1c-0.1,0-0.2,0-0.4,0
		c-0.7,0-1.3,0.6-1.4,1.4c0,0.1,0,0.3,0,0.5v3.1h-1V108.7z"/>
	<path d="M277.3,110c0,1.4,0.9,2,2,2c0.8,0,1.2-0.1,1.6-0.3l0.2,0.8c-0.4,0.2-1,0.4-1.9,0.4c-1.8,0-2.9-1.2-2.9-2.9s1-3.1,2.7-3.1
		c1.9,0,2.4,1.7,2.4,2.7c0,0.2,0,0.4,0,0.5H277.3z M280.4,109.2c0-0.7-0.3-1.7-1.5-1.7c-1.1,0-1.5,1-1.6,1.7H280.4z"/>
	<path d="M282.7,108.5c0-0.6,0-1.1,0-1.6h0.9l0.1,1h0c0.3-0.6,1-1.1,1.9-1.1c0.8,0,2.1,0.5,2.1,2.5v3.5h-1.1v-3.3
		c0-0.9-0.3-1.7-1.3-1.7c-0.7,0-1.2,0.5-1.4,1.1c0,0.1-0.1,0.3-0.1,0.5v3.5h-1.1V108.5z"/>
	<path d="M290.6,105.2v1.7h1.5v0.8h-1.5v3.1c0,0.7,0.2,1.1,0.8,1.1c0.3,0,0.5,0,0.6-0.1l0,0.8c-0.2,0.1-0.5,0.1-0.9,0.1
		c-0.5,0-0.9-0.2-1.1-0.4c-0.3-0.3-0.4-0.8-0.4-1.5v-3.2h-0.9v-0.8h0.9v-1.4L290.6,105.2z"/>
	<path d="M296.5,112.7l-0.1-0.7h0c-0.3,0.5-0.9,0.9-1.8,0.9c-1.2,0-1.8-0.8-1.8-1.7c0-1.4,1.2-2.2,3.5-2.2v-0.1
		c0-0.5-0.1-1.3-1.3-1.3c-0.5,0-1.1,0.2-1.5,0.4l-0.2-0.7c0.5-0.3,1.2-0.5,1.9-0.5c1.8,0,2.2,1.2,2.2,2.4v2.2c0,0.5,0,1,0.1,1.4
		H296.5z M296.4,109.7c-1.2,0-2.5,0.2-2.5,1.3c0,0.7,0.5,1,1,1c0.8,0,1.2-0.5,1.4-1c0-0.1,0.1-0.2,0.1-0.3V109.7z"/>
	<path d="M299,112.7c0-0.4,0-1,0-1.5v-7h1v3.6h0c0.4-0.6,1-1.1,2-1.1c1.4,0,2.5,1.2,2.4,3c0,2.1-1.3,3.1-2.6,3.1
		c-0.8,0-1.5-0.3-1.9-1.1h0l0,1H299z M300.1,110.4c0,0.1,0,0.3,0,0.4c0.2,0.7,0.8,1.2,1.6,1.2c1.1,0,1.8-0.9,1.8-2.2
		c0-1.2-0.6-2.2-1.7-2.2c-0.7,0-1.4,0.5-1.6,1.3c0,0.1-0.1,0.3-0.1,0.4V110.4z"/>
	<path d="M307.1,105.3c0,0.4-0.3,0.6-0.7,0.6c-0.4,0-0.6-0.3-0.6-0.6c0-0.4,0.3-0.7,0.7-0.7C306.8,104.6,307.1,104.9,307.1,105.3z
		 M305.9,112.7v-5.8h1.1v5.8H305.9z"/>
	<path d="M309.8,109.6L309.8,109.6c0.2-0.2,0.4-0.5,0.5-0.7l1.7-2h1.3l-2.2,2.4l2.6,3.4h-1.3l-2-2.8l-0.5,0.6v2.2h-1v-8.5h1V109.6z"
		/>
	<path d="M314.9,110c0,1.4,0.9,2,2,2c0.8,0,1.2-0.1,1.6-0.3l0.2,0.8c-0.4,0.2-1,0.4-1.9,0.4c-1.8,0-2.9-1.2-2.9-2.9s1-3.1,2.7-3.1
		c1.9,0,2.4,1.7,2.4,2.7c0,0.2,0,0.4,0,0.5H314.9z M318,109.2c0-0.7-0.3-1.7-1.5-1.7c-1.1,0-1.5,1-1.6,1.7H318z"/>
	<path d="M320,112.1c0-0.4,0.3-0.8,0.7-0.8s0.7,0.3,0.7,0.8c0,0.4-0.3,0.8-0.7,0.8C320.3,112.8,320,112.5,320,112.1z"/>
	<path d="M322.7,108.5c0-0.6,0-1.1,0-1.6h0.9l0.1,1h0c0.3-0.6,1-1.1,1.9-1.1c0.8,0,2.1,0.5,2.1,2.5v3.5h-1.1v-3.3
		c0-0.9-0.3-1.7-1.3-1.7c-0.7,0-1.2,0.5-1.4,1.1c0,0.1-0.1,0.3-0.1,0.5v3.5h-1.1V108.5z"/>
	<path d="M329.4,104.2h1.1v8.5h-1.1V104.2z"/>
	<path d="M96.1,124.2c0,2.1-1.5,3.1-2.9,3.1c-1.6,0-2.8-1.2-2.8-3c0-1.9,1.3-3.1,2.9-3.1C94.9,121.2,96.1,122.4,96.1,124.2z
		 M91.5,124.2c0,1.3,0.7,2.2,1.8,2.2c1,0,1.8-0.9,1.8-2.3c0-1-0.5-2.2-1.7-2.2C92,122,91.5,123.1,91.5,124.2z"/>
	<path d="M97.4,123.1c0-0.7,0-1.3,0-1.8h0.9l0,1.1h0c0.3-0.8,0.9-1.3,1.6-1.3c0.1,0,0.2,0,0.3,0v1c-0.1,0-0.2,0-0.4,0
		c-0.7,0-1.3,0.6-1.4,1.4c0,0.1,0,0.3,0,0.5v3.1h-1V123.1z"/>
	<path d="M108,126.9c-0.3,0.1-0.9,0.3-1.7,0.3c-1.8,0-2.9-1.2-2.9-3c0-1.8,1.2-3.1,3.1-3.1c0.6,0,1.2,0.2,1.5,0.3l-0.2,0.8
		c-0.3-0.1-0.6-0.3-1.2-0.3c-1.3,0-2.1,1-2.1,2.2c0,1.3,0.9,2.2,2,2.2c0.6,0,1-0.2,1.3-0.3L108,126.9z"/>
	<path d="M112.5,127.1l-0.1-0.7h0c-0.3,0.5-0.9,0.9-1.8,0.9c-1.2,0-1.8-0.8-1.8-1.7c0-1.4,1.2-2.2,3.5-2.2v-0.1
		c0-0.5-0.1-1.3-1.3-1.3c-0.5,0-1.1,0.2-1.5,0.4l-0.2-0.7c0.5-0.3,1.2-0.5,1.9-0.5c1.8,0,2.2,1.2,2.2,2.4v2.2c0,0.5,0,1,0.1,1.4
		H112.5z M112.3,124.1c-1.2,0-2.5,0.2-2.5,1.3c0,0.7,0.5,1,1,1c0.8,0,1.2-0.5,1.4-1c0-0.1,0.1-0.2,0.1-0.3V124.1z"/>
	<path d="M115,118.6h1.1v8.5H115V118.6z"/>
	<path d="M117.9,118.6h1.1v8.5h-1.1V118.6z"/>
	<path d="M128.1,125.5c0,0.6,0,1.1,0,1.6h-0.9l-0.1-0.9h0c-0.3,0.5-0.9,1.1-1.9,1.1c-0.9,0-2-0.5-2-2.5v-3.4h1.1v3.2
		c0,1.1,0.3,1.8,1.3,1.8c0.7,0,1.2-0.5,1.4-1c0.1-0.2,0.1-0.3,0.1-0.5v-3.6h1.1V125.5z"/>
	<path d="M129.7,126c0.3,0.2,0.9,0.4,1.4,0.4c0.8,0,1.1-0.4,1.1-0.9c0-0.5-0.3-0.8-1.1-1.1c-1-0.4-1.5-0.9-1.5-1.6
		c0-0.9,0.8-1.7,2-1.7c0.6,0,1.1,0.2,1.4,0.4l-0.3,0.8c-0.2-0.1-0.6-0.3-1.2-0.3c-0.6,0-1,0.4-1,0.8c0,0.5,0.3,0.7,1.1,1
		c1,0.4,1.5,0.9,1.5,1.8c0,1-0.8,1.7-2.2,1.7c-0.6,0-1.2-0.2-1.6-0.4L129.7,126z"/>
	<path d="M140.4,127.1l-0.1-0.7h0c-0.3,0.5-0.9,0.9-1.8,0.9c-1.2,0-1.8-0.8-1.8-1.7c0-1.4,1.2-2.2,3.5-2.2v-0.1
		c0-0.5-0.1-1.3-1.3-1.3c-0.5,0-1.1,0.2-1.5,0.4l-0.2-0.7c0.5-0.3,1.2-0.5,1.9-0.5c1.8,0,2.2,1.2,2.2,2.4v2.2c0,0.5,0,1,0.1,1.4
		H140.4z M140.2,124.1c-1.2,0-2.5,0.2-2.5,1.3c0,0.7,0.5,1,1,1c0.8,0,1.2-0.5,1.4-1c0-0.1,0.1-0.2,0.1-0.3V124.1z"/>
	<path d="M144.2,119.6v1.7h1.5v0.8h-1.5v3.1c0,0.7,0.2,1.1,0.8,1.1c0.3,0,0.5,0,0.6-0.1l0,0.8c-0.2,0.1-0.5,0.1-0.9,0.1
		c-0.5,0-0.9-0.2-1.1-0.4c-0.3-0.3-0.4-0.8-0.4-1.5v-3.2h-0.9v-0.8h0.9v-1.4L144.2,119.6z"/>
	<path d="M152.5,120.7v2.8h2.7v0.7h-2.7v2.8h-0.8v-2.8H149v-0.7h2.7v-2.8H152.5z"/>
	<path d="M156.5,125.9c0.3,0.2,1,0.5,1.7,0.5c1.4,0,1.8-0.9,1.8-1.5c0-1.1-1-1.6-2-1.6h-0.6v-0.8h0.6c0.8,0,1.7-0.4,1.7-1.3
		c0-0.6-0.4-1.2-1.4-1.2c-0.6,0-1.2,0.3-1.6,0.5l-0.3-0.8c0.4-0.3,1.2-0.6,2-0.6c1.5,0,2.2,0.9,2.2,1.9c0,0.8-0.5,1.5-1.4,1.8v0
		c1,0.2,1.7,0.9,1.7,2c0,1.2-1,2.3-2.8,2.3c-0.9,0-1.6-0.3-2-0.5L156.5,125.9z"/>
	<path d="M164.7,120.3L164.7,120.3l-1.4,0.7l-0.2-0.8l1.7-0.9h0.9v7.8h-1V120.3z"/>
	<path d="M173.7,118.8c-0.9,1.2-1.5,2.7-1.5,4.9c0,2.1,0.7,3.7,1.5,4.9h-0.8c-0.8-1-1.6-2.5-1.6-4.9c0-2.4,0.8-3.9,1.6-4.9H173.7z"
		/>
	<path d="M179.7,123.1c0,2.7-1,4.1-2.7,4.1c-1.5,0-2.6-1.4-2.6-4c0-2.6,1.1-4.1,2.7-4.1C178.7,119.2,179.7,120.6,179.7,123.1z
		 M175.4,123.2c0,2,0.6,3.2,1.6,3.2c1.1,0,1.6-1.3,1.6-3.3c0-1.9-0.5-3.2-1.6-3.2C176.1,120,175.4,121.1,175.4,123.2z"/>
	<path d="M180.3,128.6c0.9-1.2,1.5-2.7,1.5-4.9c0-2.1-0.6-3.7-1.5-4.9h0.8c0.8,1,1.6,2.5,1.6,4.9c0,2.4-0.8,3.9-1.6,4.9H180.3z"/>
	<path d="M184,127.1v-0.6l0.8-0.8c2-1.9,2.9-2.9,2.9-4.1c0-0.8-0.4-1.5-1.5-1.5c-0.7,0-1.3,0.4-1.7,0.7l-0.3-0.7
		c0.5-0.5,1.3-0.8,2.2-0.8c1.7,0,2.4,1.2,2.4,2.3c0,1.4-1,2.6-2.7,4.2l-0.6,0.6v0h3.5v0.9H184z"/>
	<path d="M195.4,123.1c0,2.7-1,4.1-2.7,4.1c-1.5,0-2.6-1.4-2.6-4c0-2.6,1.1-4.1,2.7-4.1C194.4,119.2,195.4,120.6,195.4,123.1z
		 M191.1,123.2c0,2,0.6,3.2,1.6,3.2c1.1,0,1.6-1.3,1.6-3.3c0-1.9-0.5-3.2-1.6-3.2C191.8,120,191.1,121.1,191.1,123.2z"/>
	<path d="M203.3,120.1c-0.2,0-0.5,0-0.8,0c-1.7,0.3-2.5,1.5-2.7,2.8h0c0.4-0.5,1-0.9,1.9-0.9c1.4,0,2.4,1,2.4,2.5
		c0,1.4-1,2.7-2.6,2.7c-1.7,0-2.8-1.3-2.8-3.3c0-1.5,0.6-2.7,1.3-3.5c0.6-0.6,1.5-1,2.5-1.2c0.3,0,0.6-0.1,0.8-0.1V120.1z
		 M203,124.6c0-1.1-0.6-1.8-1.6-1.8c-0.6,0-1.2,0.4-1.5,1c-0.1,0.1-0.1,0.3-0.1,0.5c0,1.3,0.6,2.2,1.7,2.2
		C202.4,126.4,203,125.7,203,124.6z"/>
	<path d="M205.1,127.1v-0.6l0.8-0.8c2-1.9,2.9-2.9,2.9-4.1c0-0.8-0.4-1.5-1.5-1.5c-0.7,0-1.3,0.4-1.7,0.7l-0.3-0.7
		c0.5-0.5,1.3-0.8,2.2-0.8c1.7,0,2.4,1.2,2.4,2.3c0,1.4-1,2.6-2.7,4.2l-0.6,0.6v0h3.5v0.9H205.1z"/>
	<path d="M215.9,120.2h-3l-0.3,2c0.2,0,0.3,0,0.6,0c0.6,0,1.2,0.1,1.7,0.4c0.6,0.3,1.1,1,1.1,2c0,1.5-1.2,2.7-2.9,2.7
		c-0.9,0-1.6-0.2-1.9-0.5l0.3-0.8c0.3,0.2,1,0.4,1.7,0.4c1,0,1.8-0.6,1.8-1.7c0-1-0.7-1.7-2.2-1.7c-0.4,0-0.8,0-1.1,0.1l0.5-3.7h3.7
		V120.2z"/>
	<path d="M222,120.2h-3l-0.3,2c0.2,0,0.3,0,0.6,0c0.6,0,1.2,0.1,1.7,0.4c0.6,0.3,1.1,1,1.1,2c0,1.5-1.2,2.7-2.9,2.7
		c-0.9,0-1.6-0.2-1.9-0.5l0.3-0.8c0.3,0.2,1,0.4,1.7,0.4c1,0,1.8-0.6,1.8-1.7c0-1-0.7-1.7-2.2-1.7c-0.4,0-0.8,0-1.1,0.1l0.5-3.7h3.7
		V120.2z"/>
	<path d="M231.2,123.1c0,2.7-1,4.1-2.7,4.1c-1.5,0-2.6-1.4-2.6-4c0-2.6,1.1-4.1,2.7-4.1C230.3,119.2,231.2,120.6,231.2,123.1z
		 M227,123.2c0,2,0.6,3.2,1.6,3.2c1.1,0,1.6-1.3,1.6-3.3c0-1.9-0.5-3.2-1.6-3.2C227.7,120,227,121.1,227,123.2z"/>
	<path d="M232.2,127.1v-0.6l0.8-0.8c2-1.9,2.9-2.9,2.9-4.1c0-0.8-0.4-1.5-1.5-1.5c-0.7,0-1.3,0.4-1.7,0.7l-0.3-0.7
		c0.5-0.5,1.3-0.8,2.2-0.8c1.7,0,2.4,1.2,2.4,2.3c0,1.4-1,2.6-2.7,4.2l-0.6,0.6v0h3.5v0.9H232.2z"/>
	<path d="M239,126.4c0.2,0,0.5,0,0.9,0c0.6-0.1,1.2-0.3,1.6-0.8c0.5-0.5,0.9-1.2,1-2.1h0c-0.4,0.5-1.1,0.8-1.8,0.8
		c-1.4,0-2.3-1.1-2.3-2.4c0-1.5,1.1-2.8,2.7-2.8c1.6,0,2.6,1.3,2.6,3.3c0,1.7-0.6,2.9-1.3,3.7c-0.6,0.6-1.4,0.9-2.3,1
		c-0.4,0.1-0.7,0.1-1,0.1V126.4z M239.4,121.9c0,1,0.6,1.7,1.5,1.7c0.7,0,1.3-0.3,1.5-0.8c0.1-0.1,0.1-0.2,0.1-0.4
		c0-1.3-0.5-2.4-1.6-2.4C240,120,239.4,120.8,239.4,121.9z"/>
</g>
<g>
</g>
<g>
</g>
<g>
</g>
<g>
</g>
<g>
</g>
<g>
</g>
</svg>
