<?xml version="1.0" encoding="utf-8"?>
<!-- Generator: Adobe Illustrator 19.2.1, SVG Export Plug-In . SVG Version: 6.00 Build 0)  -->
<svg version="1.1" id="Layer_1" xmlns="http://www.w3.org/2000/svg" xmlns:xlink="http://www.w3.org/1999/xlink" x="0px" y="0px"
	 viewBox="0 0 35.7 35.5" style="enable-background:new 0 0 35.7 35.5;" xml:space="preserve">
<style type="text/css">
	.st0{fill:#FFFFFF;}
	.st1{fill:#1B689A;}
</style>
<rect x="1.7" y="1.8" class="st0" width="32" height="32"/>
<path class="st1" d="M19.3,14.2h3.4c-0.1,1.2-0.2,2.4-0.4,3.6h-3v11h-4.5v-11h-2.2v-3.6h2.2c0-0.4,0-0.8,0-1.1
	c0.1-1.1,0.1-2.1,0.2-3.1c0.3-1.5,1.5-2.6,3-2.8C18.4,7,18.7,7,19,7c1.2,0,2.4,0,3.6,0v3.6c-0.6,0-1.2,0-1.8,0
	c-1.3,0-1.6,0.3-1.6,1.6C19.3,12.8,19.3,13.5,19.3,14.2"/>
</svg>
