<?xml version="1.0" encoding="utf-8"?>
<!-- Generator: Adobe Illustrator 19.2.1, SVG Export Plug-In . SVG Version: 6.00 Build 0)  -->
<svg version="1.1" id="Layer_1" xmlns="http://www.w3.org/2000/svg" xmlns:xlink="http://www.w3.org/1999/xlink" x="0px" y="0px"
	 viewBox="0 0 134.2 19.5" style="enable-background:new 0 0 134.2 19.5;" xml:space="preserve">
<style type="text/css">
	.st0{fill:#E22429;}
	.st1{fill:#FFFFFF;}
</style>
<g>
	<path class="st0" d="M37,17.5c-1.1,0-2.2,0-3.3,0c0-0.1,0-0.2,0-0.3c0-1.9,0-3.8,0-5.7c0-0.4-0.1-0.7-0.2-1.1
		c-0.2-0.6-0.6-0.9-1.3-0.9c-1,0-1.7,0.5-1.9,1.6c-0.1,0.3-0.1,0.7-0.1,1.1c0,1.7,0,3.4,0,5.1c0,0.1,0,0.2,0,0.3c-2.6,0-5.1,0-7.7,0
		c0-0.4,0-0.9,0-1.3c-0.1,0-0.1,0.1-0.1,0.1c-0.6,0.8-1.4,1.3-2.4,1.4c-1,0.2-2.1,0.1-3-0.4c-1.3-0.7-1.8-1.9-1.6-3.3
		c0.2-1.5,1.2-2.3,2.5-2.8c1.1-0.4,2.2-0.5,3.3-0.5c0.4,0,0.9,0,1.3,0c0.1-0.6-0.3-1.3-0.9-1.7c-0.8-0.4-1.7-0.4-2.5,0
		c-0.5,0.2-0.9,0.6-1.3,0.9c-0.6-0.5-1.2-1.1-1.8-1.7c0.3-0.2,0.6-0.4,0.8-0.6c1.2-0.8,2.6-1.1,4.1-1.1c0.6,0,1.3,0.1,1.9,0.3
		c1.4,0.4,2.2,1.4,2.5,2.7c0.1,0.7,0.2,1.4,0.2,2.1c0,1.2,0,2.4,0,3.7c0,0.1,0,0.2,0,0.3c0.5,0,0.9,0,1.4,0c0-2.9,0-5.8,0-8.8
		c1.1,0,2.1,0,3.2,0c0,0.5,0,0.9,0,1.4c1.3-2.3,5.4-2.2,6.4,0.2c0-0.1,0.1-0.1,0.1-0.2c0.6-1.1,1.6-1.6,2.8-1.7c0.6,0,1.2,0,1.7,0.2
		c1.2,0.4,1.9,1.2,2.2,2.5c0.1,0.6,0.2,1.3,0.2,1.9c0,2.1,0,4.1,0,6.2c0,0,0,0.1,0,0.2c-1.1,0-2.2,0-3.3,0c0-0.1,0-0.2,0-0.3
		c0-2,0-4,0-6c0-0.2,0-0.5-0.1-0.7c-0.2-0.6-0.6-1-1.3-1c-1.1,0-1.8,0.6-2,1.7c0,0.3,0,0.5,0,0.8c0,1.7,0,3.5,0,5.2
		C37,17.3,37,17.4,37,17.5z M22.6,12.8c-0.3,0-0.7,0-1,0c-0.4,0-0.8,0-1.1,0.1c-0.5,0.1-0.9,0.2-1.3,0.4c-0.4,0.3-0.6,0.6-0.5,1.1
		c0,0.4,0.3,0.7,0.7,0.9c0.4,0.2,0.9,0.2,1.3,0.1C22.1,15.2,22.8,14.4,22.6,12.8z"/>
	<path class="st0" d="M6.4,15.7c0.4,0,0.8,0,1.2,0c0,0.6,0,1.2,0,1.8c-1.9,0-3.8,0-5.8,0c0-0.6,0-1.2,0-1.8c0.4,0,0.7,0,1.1,0
		c0-4,0-8,0-11.9c-0.4,0-0.8,0-1.2,0c0-0.3,0-0.6,0-0.9c0-0.3,0-0.6,0-0.9c1.9,0,3.9,0,5.8,0c0,0.6,0,1.2,0,1.8c-0.4,0-0.8,0-1.2,0
		C6.4,7.7,6.4,11.7,6.4,15.7z"/>
	<g>
		<path class="st1" d="M120.9,17.5c-1.1,0-2.2,0-3.3,0c0-0.1,0-0.2,0-0.3c0-1.8,0-3.6,0-5.4c0-0.4,0-0.7-0.1-1.1
			c-0.2-1.2-0.9-1.4-1.8-1.2c-0.8,0.1-1.3,0.7-1.4,1.5c-0.1,0.4-0.1,0.8-0.1,1.2c0,1.7,0,3.3,0,5c0,0.1,0,0.2,0,0.3
			c-1.1,0-2.2,0-3.3,0c0-3.5,0-7.1,0-10.6c1,0,2.1,0,3.1,0c0,0.5,0,0.9,0,1.4c1.3-2.4,5.4-2.2,6.4,0.1c0.2-0.2,0.3-0.4,0.5-0.6
			c0.6-0.8,1.4-1.1,2.4-1.2c0.7,0,1.3,0,2,0.2c1.2,0.4,1.8,1.3,2.1,2.5c0.1,0.6,0.2,1.2,0.2,1.8c0,2.1,0,4.1,0,6.2
			c0,0.2,0,0.3-0.3,0.3c-0.9,0-1.9,0-2.8,0c-0.2,0-0.2-0.1-0.2-0.2c0-2,0-3.9,0-5.9c0-0.3-0.1-0.7-0.1-1c-0.2-0.5-0.6-0.8-1.2-0.9
			c-1.2-0.1-1.9,0.5-2,1.7c0,0.2,0,0.4,0,0.6c0,1.8,0,3.6,0,5.3C120.9,17.3,120.9,17.4,120.9,17.5z"/>
		<path class="st1" d="M93.5,8c0-2.3,0-4.7,0-7c1.1,0,2.2,0,3.3,0c0,5.5,0,11,0,16.5c-0.1,0-0.2,0-0.3,0c-0.8,0-1.7,0-2.5,0
			c-0.3,0-0.3,0-0.3-0.3c0-0.3,0-0.7,0-1.1c-0.3,0.2-0.5,0.5-0.7,0.7c-1.4,1.1-3,1.2-4.7,0.5c-1.6-0.6-2.5-1.8-2.9-3.5
			c-0.4-1.9-0.2-3.7,0.9-5.3c0.9-1.4,2.3-2.1,4-2c0.9,0,1.7,0.2,2.4,0.7C93,7.5,93.2,7.7,93.5,8z M93.7,12.1c0-1.5-0.9-2.5-2.4-2.6
			c-0.8,0-1.6,0.2-2.2,0.8c-0.5,0.5-0.6,1.2-0.6,1.9c0,1.6,1.1,2.6,2.7,2.6c0.8,0,1.4-0.2,1.9-0.8C93.6,13.5,93.7,12.9,93.7,12.1z"
			/>
		<path class="st1" d="M72.6,14c0.8,0.6,1.5,1.1,2.3,1.7c-0.3,0.4-0.6,0.7-1,1c-1.3,0.9-2.7,1.3-4.3,1.1c-1.5-0.2-2.8-0.8-3.8-1.9
			c-0.8-0.9-1.2-2-1.3-3.2c-0.1-1.3,0.2-2.5,0.9-3.6c0.9-1.3,2.2-2,3.7-2.3c1-0.2,2.1-0.2,3.1,0.2c1.5,0.5,2.3,1.6,2.8,3.1
			c0.2,0.7,0.3,1.5,0.3,2.3c0,0.3,0,0.6,0,1c-1.3,0-2.5,0-3.8,0c-1.3,0-2.5,0-3.8,0c0.2,0.9,0.6,1.5,1.4,1.8
			C70.6,15.6,71.7,15.1,72.6,14z M72.1,10.9c0-0.7-0.3-1.2-0.8-1.6c-0.8-0.5-1.6-0.5-2.4-0.1c-0.7,0.3-1,0.9-1.1,1.7
			C69.2,10.9,70.6,10.9,72.1,10.9z"/>
		<path class="st1" d="M101.3,10.1c-0.6-0.6-1.2-1.2-1.8-1.8c0.2-0.2,0.4-0.3,0.5-0.4c1-0.7,2.1-1.1,3.3-1.2
			c0.9-0.1,1.8-0.1,2.7,0.1c1.5,0.3,2.4,1.3,2.8,2.8c0.2,0.7,0.3,1.5,0.3,2.2c0,1.8,0,3.7,0,5.5c0,0.2-0.1,0.3-0.3,0.3
			c-0.8,0-1.7,0-2.5,0c-0.1,0-0.2,0-0.3,0c0-0.4,0-0.9,0-1.3c-0.1,0.2-0.3,0.3-0.4,0.5c-0.7,0.7-1.5,1-2.4,1.1c-1.1,0.1-2.1,0-3-0.6
			c-1.1-0.7-1.5-1.8-1.4-3.1c0.2-1.5,1.2-2.3,2.5-2.8c1-0.3,2-0.4,3-0.5c0.5,0,1.1,0,1.6,0c0-0.5-0.1-0.9-0.4-1.2
			c-0.5-0.5-1.1-0.7-1.8-0.7C102.8,8.9,102,9.4,101.3,10.1z M106,12.8c-0.7,0-1.3,0-2,0.1c-0.5,0-1.1,0.2-1.5,0.5
			c-0.7,0.5-0.6,1.5,0.1,1.9c0.4,0.2,0.9,0.2,1.3,0.2c0.7-0.1,1.3-0.3,1.7-0.9C106.1,14.1,106,13.5,106,12.8z"/>
		<path class="st1" d="M57,9.5c-0.7,0-1.4,0-2.1,0c0-0.9,0-1.7,0-2.6c0.7,0,1.4,0,2.1,0c0-0.1,0-0.2,0-0.3c0-0.9,0-1.8,0-2.7
			c0-0.1,0-0.2,0.2-0.2c1,0,2,0,3,0c0,0,0.1,0,0.1,0c0,1,0,2.1,0,3.1c1,0,1.9,0,2.9,0c0,0.9,0,1.8,0,2.7c-0.9,0-1.9,0-2.9,0
			c0,0.1,0,0.2,0,0.2c0,1.2,0,2.4,0,3.6c0,0.2,0,0.4,0.1,0.6c0.1,0.6,0.5,1,1.1,1c0.6,0,1.1,0,1.7-0.3c0,0.1,0,0.2,0,0.2
			c0,0.8,0,1.5,0,2.3c0,0.2-0.1,0.2-0.2,0.3c-0.9,0.3-1.8,0.3-2.8,0.2c-0.6,0-1.2-0.2-1.7-0.5c-0.9-0.5-1.5-1.3-1.5-2.3
			c-0.1-1.7,0-3.4,0-5.1C57,9.7,57,9.6,57,9.5z"/>
		<path class="st1" d="M53.8,8c-0.7,0.7-1.3,1.4-2,2c-0.1-0.1-0.2-0.2-0.3-0.3c-0.6-0.5-1.3-0.7-2.2-0.5c-0.1,0-0.3,0.1-0.4,0.2
			c-0.4,0.4-0.4,0.9,0.1,1.1c0.4,0.2,0.8,0.3,1.2,0.4c0.8,0.2,1.7,0.3,2.4,0.7c0.9,0.5,1.4,1.2,1.5,2.2c0.2,2-1,3.1-2.4,3.5
			c-1.8,0.6-3.6,0.6-5.4-0.2c-0.4-0.2-0.8-0.5-1.2-0.8c-0.1-0.1-0.1-0.1,0-0.2c0.6-0.7,1.3-1.4,1.9-2.1c0.2,0.2,0.3,0.3,0.5,0.5
			c0.8,0.7,1.7,0.9,2.7,0.6c0.3-0.1,0.5-0.2,0.6-0.6c0-0.4-0.2-0.6-0.5-0.7c-0.5-0.2-1-0.3-1.5-0.4c-0.7-0.2-1.5-0.3-2.2-0.7
			c-0.9-0.5-1.3-1.3-1.4-2.3c-0.1-1.8,0.9-3,2.5-3.5c1.6-0.5,3.2-0.4,4.7,0.3C53.1,7.4,53.5,7.6,53.8,8z"/>
		<path class="st1" d="M77.3,6.9c1.1,0,2.2,0,3.3,0c0,0.6,0,1.1,0,1.6c0,0,0,0,0,0c0.9-1.7,2.3-2.2,4.1-1.9c0,1,0,2,0,3
			c-0.4-0.1-0.8-0.1-1.2-0.2c-0.4,0-0.8,0-1.1,0.1c-1,0.2-1.6,0.8-1.7,1.8c-0.1,0.5-0.1,1.1-0.1,1.6c0,1.4,0,2.8,0,4.2
			c0,0.1,0,0.2,0,0.3c-1.1,0-2.2,0-3.3,0C77.3,13.9,77.3,10.4,77.3,6.9z"/>
		<path class="st1" d="M128.8,15.5c0-1.1,0.9-2,2.1-2c1.2,0,2.1,1,2,2.1c0,1.1-0.9,2-2,2C129.7,17.6,128.7,16.7,128.8,15.5z
			 M129.3,15.5c0,0.8,0.6,1.5,1.5,1.6c0.8,0,1.5-0.7,1.5-1.5c0-0.8-0.6-1.6-1.4-1.6C130,14,129.3,14.7,129.3,15.5z"/>
		<path class="st1" d="M130.6,15.8c0,0.3,0,0.5,0,0.8c-0.2,0-0.4,0-0.6,0c0-0.7,0-1.4,0-2.2c0.4,0,0.8,0,1.2,0.1
			c0.3,0,0.5,0.3,0.5,0.5c0,0.4-0.1,0.5-0.5,0.7c0.2,0.3,0.3,0.5,0.5,0.8c0,0,0,0,0,0c-0.4,0.1-0.6,0-0.8-0.4
			C130.8,16,130.7,15.9,130.6,15.8C130.6,15.8,130.6,15.8,130.6,15.8z M130.6,15.4c0.2-0.1,0.3-0.1,0.5-0.2c0,0,0-0.2,0-0.2
			c-0.1-0.1-0.3-0.1-0.5-0.2C130.6,15.1,130.6,15.2,130.6,15.4z"/>
	</g>
</g>
<g>
</g>
<g>
</g>
<g>
</g>
<g>
</g>
<g>
</g>
<g>
</g>
</svg>
