<?xml version="1.0" encoding="utf-8"?>
<!-- Generator: Adobe Illustrator 19.2.1, SVG Export Plug-In . SVG Version: 6.00 Build 0)  -->
<svg version="1.1" id="Layer_1" xmlns="http://www.w3.org/2000/svg" xmlns:xlink="http://www.w3.org/1999/xlink" x="0px" y="0px"
	 viewBox="0 0 200 200" style="enable-background:new 0 0 200 200;" xml:space="preserve">
<style type="text/css">
	.st0{fill:#EF7F22;stroke:#231F20;stroke-width:3.5432;stroke-miterlimit:10;}
	.st1{opacity:0.75;}
	.st2{fill:#CE2328;}
	.st3{fill:#FFFFFF;}
</style>
<polygon class="st0" points="38.9,153.8 78.3,127.7 91.5,166.7 129.3,121.7 159.2,149.7 161.5,127.7 189.1,125.1 173.2,103.5 
	194,83.5 176.6,79.3 183.8,55.7 156.9,70.8 156.9,34.3 115.7,60.8 111.9,45.3 102.8,66.1 93.8,39.6 78.3,75.5 58.2,41.5 46.9,75.5 
	24.9,66.1 35.5,95.7 7.1,118.3 46.9,127.7 "/>
<g>
	<g class="st1">
		<path class="st2" d="M68.2,115.9c-1.1,0.1-2.3,0.2-3.5,0.4c-1.2,0.2-2.5,0.4-3.8,0.6c-0.9-2.9-1.8-6-2.7-9.4l-0.5,0.8
			c-0.1,0.7-0.1,1.6-0.2,2.7c0,1.1-0.1,2.1-0.2,3.2c-0.1,1.1-0.1,2.2-0.2,3.4l-5.6,1.7c0.9-11.8,1.1-20.5,0.8-26.3
			c0.6,0,1.2,0,1.9-0.1c0.7-0.1,1.3-0.1,2-0.2c0.6,0,1.3-0.1,2-0.2c0,0.1,0,0.3,0,0.5c0,0.3,0,0.6,0,0.9c0,0.4,0,0.8-0.1,1.2
			c0,0.5,0,1.1-0.1,1.8c0,0.8-0.1,1.8-0.1,3.1l0.2-0.1c0.5-1.1,1-2.2,1.5-3.4c1.1-2.4,1.8-4,2.2-4.9c2.6-0.6,4.9-1.2,6.9-1.8
			c-3.2,6-5.4,10.2-6.5,12.8c0.8,2.3,1.8,4.5,2.8,6.6S67.1,113.7,68.2,115.9z"/>
		<path class="st2" d="M73.4,110.1l-0.7,5.2c-0.5,0.1-1.1,0.3-1.8,0.5c-0.7,0.2-1.4,0.4-2,0.5c-0.7,0.2-1.4,0.4-2.1,0.6
			c0.5-3.2,0.9-6,1.3-8.2c0.3-2.2,0.6-4.1,0.8-5.5c0.2-1.4,0.4-2.9,0.6-4.3c0.2-1.4,0.4-2.8,0.6-4.1c0.2-1.3,0.4-2.5,0.5-3.6
			c4.2-0.9,7.4-1.7,9.5-2.5c0.1,2.3,0.3,5,0.6,8.1c0.6,6.2,1.1,11.9,1.6,17.1c-0.7,0.2-1.3,0.4-2,0.6c-0.6,0.2-1.3,0.4-2,0.6
			c-0.7,0.2-1.3,0.4-1.9,0.6c-0.1-2.2-0.1-4.2-0.2-6L73.4,110.1z M73.7,106.5l2.5-0.5c0-0.1,0-0.4,0-0.7c0-0.3,0-0.7,0-1.2
			c-0.2-2.5-0.3-4.8-0.4-6.9l-0.2-3.1L75,94.2L73.7,106.5z"/>
		<path class="st2" d="M82.6,114.9c0.9-11,1.4-19.5,1.4-25.5c2.4-1.1,4.2-1.7,5.5-1.9c1.3-0.2,2.3-0.1,3,0.1c0.8,0.3,1.4,0.6,2,1.2
			c1,1,1.6,2.5,1.9,4.5c0.2,1.3,0.1,2.6-0.2,3.9s-0.8,2.5-1.5,3.5s-1.5,1.9-2.5,2.7c-1,0.7-2,1.1-3.1,1.3l-0.4,0.1
			c-0.2,2-0.3,4.7-0.3,8.2L82.6,114.9z M89.4,91.9c-0.1,3.4-0.3,6.4-0.4,9c0.8-0.3,1.5-1.1,2-2.3c0.6-1.3,0.8-2.8,0.6-4.3
			c-0.1-0.9-0.4-1.5-0.9-1.9C90.3,92,89.8,91.8,89.4,91.9z"/>
		<path class="st2" d="M96.3,113.1c0.8-12.4,1-21.1,0.8-26.3c2.2-0.1,4.1-0.3,5.7-0.5c-0.5,4.9-0.7,8.3-0.8,10.3l3.4-0.9
			c0.1-1.7,0.2-3.3,0.2-4.9c0-1.6,0.2-3.3,0.3-5c0.9-0.3,1.8-0.5,2.9-0.8s1.7-0.4,2.1-0.5l0.6-0.2c-0.6,3.8-1,9.1-1.1,15.8
			c-0.1,3-0.2,6.1-0.2,9.3l-5.4,1.4c0.1-1.4,0.2-2.8,0.3-4.1c0.1-1.3,0.1-2.5,0.2-3.8c0.1-1.2,0.1-2.3,0.2-3.2l-3.4,0.8
			c-0.1,3-0.3,6.5-0.5,10.5L96.3,113.1z"/>
		<path class="st2" d="M128.6,89.9c0.2,1.4,0.2,3,0.1,4.7c-0.2,1.7-0.5,3.4-1,4.9c-0.5,1.5-1.1,2.9-1.8,4.1
			c-0.7,1.2-1.6,2.3-2.4,3.2c-1.8,1.9-3.6,3-5.5,3.2c-1.6,0.2-2.9-0.2-4-1.2c-1.2-1.1-1.9-2.9-2.3-5.3c-0.4-2.6-0.2-5.5,0.6-8.7
			c0.8-3.2,2-5.9,3.7-8.2c1.8-2.4,3.9-3.8,6.2-4.2c1.9-0.3,3.4,0.3,4.5,1.7C127.6,85.5,128.2,87.3,128.6,89.9z M124,92.7
			c-0.3-1.9-0.9-2.8-2-2.6c-1.4,0.2-2.6,1.1-3.5,2.6c-0.7,1.2-1.3,2.8-1.7,4.8c-0.3,1.6-0.3,3.1-0.1,4.5c0.1,0.9,0.6,1.5,1.5,1.9
			c0.3,0.1,0.5,0.2,0.8,0.1c1.1-0.1,1.9-0.6,2.6-1.5c0.7-0.8,1.3-1.8,1.7-2.9c0.4-1.1,0.7-2.3,0.8-3.6S124.2,93.7,124,92.7z"/>
		<path class="st2" d="M135.3,81.5c0,0-0.1,5.3-0.3,15.8l0.5-0.1c0.3-2.5,0.6-4.9,1-7c0.3-2.2,0.5-3.7,0.7-4.5
			c0.2-1.8,0.4-3.2,0.5-4.1l0.3,0c1.1-0.2,2.4-0.5,3.6-1c0,0.2,0,0.6,0,1.3c0,0.7,0.1,1.5,0.1,2.4c0,0.9,0.1,2,0.2,3.1
			s0.1,2.2,0.2,3.3c0.1,2,0.2,3.8,0.3,5.6l0.7-0.1l1.2-15.5c0.8-0.2,1.5-0.4,2.3-0.6c1.9-0.5,3.2-0.9,4-1.2c-0.5,2.8-1,5.8-1.3,8.9
			c-0.8,7.5-1.4,12.9-1.6,16.3l-7.7,2.4l-0.4-13.8l-0.4,0.1l-1.7,13.2l-7.1,2.3l-0.8-25.3c1.1-0.2,2.1-0.5,3.1-0.8
			C133.5,82,134.4,81.7,135.3,81.5z"/>
		<path class="st2" d="M152.7,105.9c-0.6,0.1-1.1,0.1-1.5-0.1c-0.4-0.1-0.8-0.3-1.1-0.6c-0.6-0.6-1-1.3-1.1-2.2
			c-0.2-1.5,0.3-2.6,1.5-3.4c0.4-0.3,0.9-0.4,1.5-0.5c1.4-0.2,2.4,0,3.2,0.5c0.8,0.5,1.2,1.2,1.3,2.1c0.1,1-0.1,1.9-0.8,2.7
			C155,105.2,154,105.7,152.7,105.9z M159.4,77.4c-0.8,3.1-1.6,6.2-2.2,9.4c-0.6,3.1-1.2,6.3-1.8,9.4c-0.7,0.1-1.4,0.2-2,0.4
			c-0.7,0.1-1.3,0.3-2,0.4c0.3-3,0.6-5.9,0.9-8.9c0.3-3,0.6-5.9,0.9-8.9c0.4-0.1,0.9-0.3,1.5-0.4c0.6-0.2,1.1-0.3,1.7-0.5
			s1.1-0.3,1.7-0.5S159.1,77.5,159.4,77.4z"/>
	</g>
	<g>
		<g>
			<path class="st3" d="M66.3,114c-1.1,0.1-2.3,0.2-3.5,0.4c-1.2,0.2-2.5,0.4-3.8,0.6c-0.9-2.9-1.8-6-2.7-9.4l-0.5,0.8
				c-0.1,0.7-0.1,1.6-0.2,2.7c0,1.1-0.1,2.1-0.2,3.2c-0.1,1.1-0.1,2.2-0.2,3.4l-5.6,1.7c0.9-11.8,1.1-20.5,0.8-26.3
				c0.6,0,1.2,0,1.9-0.1c0.7-0.1,1.3-0.1,2-0.2c0.6,0,1.3-0.1,2-0.2c0,0.1,0,0.3,0,0.5c0,0.3,0,0.6,0,0.9c0,0.4,0,0.8-0.1,1.2
				c0,0.5,0,1.1-0.1,1.8c0,0.8-0.1,1.8-0.1,3.1l0.2-0.1c0.5-1.1,1-2.2,1.5-3.4c1.1-2.4,1.8-4,2.2-4.9c2.6-0.6,4.9-1.2,6.9-1.8
				c-3.2,6-5.4,10.2-6.5,12.8c0.8,2.3,1.8,4.5,2.8,6.6S65.2,111.8,66.3,114z"/>
			<path class="st3" d="M71.5,108.2l-0.7,5.2c-0.5,0.1-1.1,0.3-1.8,0.5c-0.7,0.2-1.4,0.4-2,0.5c-0.7,0.2-1.4,0.4-2.1,0.6
				c0.5-3.2,0.9-6,1.3-8.2c0.3-2.2,0.6-4.1,0.8-5.5c0.2-1.4,0.4-2.9,0.6-4.3c0.2-1.4,0.4-2.8,0.6-4.1c0.2-1.3,0.4-2.5,0.5-3.6
				c4.2-0.9,7.4-1.7,9.5-2.5c0.1,2.3,0.3,5,0.6,8.1c0.6,6.2,1.1,11.9,1.6,17.1c-0.7,0.2-1.3,0.4-2,0.6c-0.6,0.2-1.3,0.4-2,0.6
				c-0.7,0.2-1.3,0.4-1.9,0.6c-0.1-2.2-0.1-4.2-0.2-6L71.5,108.2z M71.8,104.6l2.5-0.5c0-0.1,0-0.4,0-0.7c0-0.3,0-0.7,0-1.2
				c-0.2-2.5-0.3-4.8-0.4-6.9l-0.2-3.1l-0.5,0.1L71.8,104.6z"/>
			<path class="st3" d="M80.8,113.1c0.9-11,1.4-19.5,1.4-25.5c2.4-1.1,4.2-1.7,5.5-1.9c1.3-0.2,2.3-0.1,3,0.1c0.8,0.3,1.4,0.6,2,1.2
				c1,1,1.6,2.5,1.9,4.5c0.2,1.3,0.1,2.6-0.2,3.9s-0.8,2.5-1.5,3.5s-1.5,1.9-2.5,2.7c-1,0.7-2,1.1-3.1,1.3l-0.4,0.1
				c-0.2,2-0.3,4.7-0.3,8.2L80.8,113.1z M87.5,90c-0.1,3.4-0.3,6.4-0.4,9c0.8-0.3,1.5-1.1,2-2.3c0.6-1.3,0.8-2.8,0.6-4.3
				c-0.1-0.9-0.4-1.5-0.9-1.9C88.4,90.1,88,89.9,87.5,90z"/>
			<path class="st3" d="M94.4,111.2c0.8-12.4,1-21.1,0.8-26.3c2.2-0.1,4.1-0.3,5.7-0.5c-0.5,4.9-0.7,8.3-0.8,10.3l3.4-0.9
				c0.1-1.7,0.2-3.3,0.2-4.9c0-1.6,0.2-3.3,0.3-5c0.9-0.3,1.8-0.5,2.9-0.8s1.7-0.4,2.1-0.5l0.6-0.2c-0.6,3.8-1,9.1-1.1,15.8
				c-0.1,3-0.2,6.1-0.2,9.3L103,109c0.1-1.4,0.2-2.8,0.3-4.1c0.1-1.3,0.1-2.5,0.2-3.8c0.1-1.2,0.1-2.3,0.2-3.2l-3.4,0.8
				c-0.1,3-0.3,6.5-0.5,10.5L94.4,111.2z"/>
			<path class="st3" d="M126.7,88c0.2,1.4,0.2,3,0.1,4.7c-0.2,1.7-0.5,3.4-1,4.9c-0.5,1.5-1.1,2.9-1.8,4.1c-0.7,1.2-1.6,2.3-2.4,3.2
				c-1.8,1.9-3.6,3-5.5,3.2c-1.6,0.2-2.9-0.2-4-1.2c-1.2-1.1-1.9-2.9-2.3-5.3c-0.4-2.6-0.2-5.5,0.6-8.7c0.8-3.2,2-5.9,3.7-8.2
				c1.8-2.4,3.9-3.8,6.2-4.2c1.9-0.3,3.4,0.3,4.5,1.7C125.7,83.6,126.4,85.5,126.7,88z M122.2,90.9c-0.3-1.9-0.9-2.8-2-2.6
				c-1.4,0.2-2.6,1.1-3.5,2.6c-0.7,1.2-1.3,2.8-1.7,4.8c-0.3,1.6-0.3,3.1-0.1,4.5c0.1,0.9,0.6,1.5,1.5,1.9c0.3,0.1,0.5,0.2,0.8,0.1
				c1.1-0.1,1.9-0.6,2.6-1.5c0.7-0.8,1.3-1.8,1.7-2.9c0.4-1.1,0.7-2.3,0.8-3.6S122.3,91.8,122.2,90.9z"/>
			<path class="st3" d="M133.5,79.7c0,0-0.1,5.3-0.3,15.8l0.5-0.1c0.3-2.5,0.6-4.9,1-7c0.3-2.2,0.5-3.7,0.7-4.5
				c0.2-1.8,0.4-3.2,0.5-4.1l0.3,0c1.1-0.2,2.4-0.5,3.6-1c0,0.2,0,0.6,0,1.3c0,0.7,0.1,1.5,0.1,2.4c0,0.9,0.1,2,0.2,3.1
				s0.1,2.2,0.2,3.3c0.1,2,0.2,3.8,0.3,5.6l0.7-0.1l1.2-15.5c0.8-0.2,1.5-0.4,2.3-0.6c1.9-0.5,3.2-0.9,4-1.2c-0.5,2.8-1,5.8-1.3,8.9
				c-0.8,7.5-1.4,12.9-1.6,16.3l-7.7,2.4l-0.4-13.8l-0.4,0.1l-1.7,13.2l-7.1,2.3l-0.8-25.3c1.1-0.2,2.1-0.5,3.1-0.8
				C131.6,80.1,132.5,79.9,133.5,79.7z"/>
			<path class="st3" d="M150.8,104c-0.6,0.1-1.1,0.1-1.5-0.1c-0.4-0.1-0.8-0.3-1.1-0.6c-0.6-0.6-1-1.3-1.1-2.2
				c-0.2-1.5,0.3-2.6,1.5-3.4c0.4-0.3,0.9-0.4,1.5-0.5c1.4-0.2,2.4,0,3.2,0.5c0.8,0.5,1.2,1.2,1.3,2.1c0.1,1-0.1,1.9-0.8,2.7
				C153.1,103.3,152.1,103.8,150.8,104z M157.6,75.5c-0.8,3.1-1.6,6.2-2.2,9.4c-0.6,3.1-1.2,6.3-1.8,9.4c-0.7,0.1-1.4,0.2-2,0.4
				c-0.7,0.1-1.3,0.3-2,0.4c0.3-3,0.6-5.9,0.9-8.9c0.3-3,0.6-5.9,0.9-8.9c0.4-0.1,0.9-0.3,1.5-0.4c0.6-0.2,1.1-0.3,1.7-0.5
				s1.1-0.3,1.7-0.5S157.2,75.6,157.6,75.5z"/>
		</g>
	</g>
</g>
<g>
</g>
<g>
</g>
<g>
</g>
<g>
</g>
<g>
</g>
<g>
</g>
</svg>
