<?xml version="1.0" encoding="utf-8"?>
<!-- Generator: Adobe Illustrator 19.2.1, SVG Export Plug-In . SVG Version: 6.00 Build 0)  -->
<svg version="1.1" id="Layer_1" xmlns="http://www.w3.org/2000/svg" xmlns:xlink="http://www.w3.org/1999/xlink" x="0px" y="0px"
	 viewBox="0 0 100 100" style="enable-background:new 0 0 100 100;" xml:space="preserve">
<style type="text/css">
	.st0{fill:#010101;}
	.st1{fill:#F1BB7B;}
	.st2{fill:#196795;}
	.st3{fill:#E02528;}
	.st4{fill:#FAEA09;}
	.st5{fill:none;stroke:#000000;stroke-width:1.169028e-002;stroke-linecap:round;stroke-linejoin:round;stroke-miterlimit:10;}
	.st6{fill:#EAE7CA;}
	.st7{fill:none;stroke:#3A54A3;stroke-width:1.169028e-002;stroke-linecap:round;stroke-linejoin:round;stroke-miterlimit:10;}
	.st8{fill:none;stroke:#6BBE46;stroke-width:1.169028e-002;stroke-linecap:round;stroke-linejoin:round;stroke-miterlimit:10;}
	.st9{fill:#A85C28;}
	.st10{fill:none;stroke:#EB2627;stroke-width:1.169028e-002;stroke-linecap:round;stroke-linejoin:round;stroke-miterlimit:10;}
	.st11{fill:#FFFFFF;}
	.st12{fill:#7B5F40;}
	.st13{fill:#FFFFFF;stroke:#2B559C;stroke-width:0.1948;stroke-miterlimit:10;}
	.st14{fill:#204286;}
</style>
<g>
	<path class="st0" d="M27.5,46.5v0.1c0,0.4-0.1,0.6-0.5,0.7l-0.1,0l-0.1,0c-0.6,0.1-1.6,0.4-2.1,0.3l-0.1,0l-0.1,0l0,0l0-0.1
		c0-0.3-0.1-0.4-0.3-0.5l0,0l0,0c-0.4-0.1-0.8-0.3-1.2-0.4l-0.2-0.1l-0.1,0l-0.1-0.1c-0.3-0.2-0.7-0.4-1-0.6l-0.1-0.1
		c-0.2-0.3-0.7-0.8-0.8-1.1l0-0.1l0,0v0h0l0,0l0,0h0v0l0,0l0,0.1l0,0.1l0,0.1c0.1,0.2,0.3,0.4,0.5,0.6l0.1,0.1l0.1,0.1
		c0.2,0.2,0.3,0.3,0.6,0.5l0.3,0.2l0.1,0.1c0.6,0.3,1.3,0.6,1.9,0.8l0,0l0.1,0l0.1,0l0,0c0.1,0.1,0.2,0.2,0.2,0.3v0l0,0
		c-0.1,0.1-0.2,0.1-0.4,0.2l-0.1,0l-0.1,0l-0.1,0c-1.3,0.2-2.7,0.4-4,0.1l-0.3-0.1l-0.3-0.1l-0.6-0.2l-0.1-0.1l-0.1-0.1
		c-1-0.5-1.8-1.2-2.9-1.3l-0.1,0l-0.1,0l-0.2,0c-0.5-0.1-1-0.1-1.5-0.2l-0.1,0l-0.1,0c-0.2,0-0.2,0-0.3-0.2l0,0l0,0l0,0v-0.1l0-0.1
		l0-0.1c0.2-0.3,0.4-0.3,0.7-0.4l0.1-0.1l0.2,0c0.5-0.1,1-0.4,1.5-0.5l0.3-0.1l0.2,0l0.2,0c1.4-0.3,2.1,0.3,3.6,0.2h0.1l0.1,0l0.1,0
		l0.2,0l0,0l0,0l0,0.1l0,0c-0.1-0.1-0.2-0.2-0.2-0.2l0,0l0,0v0l0,0l0,0l0.1,0l0,0l0,0l0,0l0,0l0,0l0,0v0l0,0l0-0.1l0-0.1l0-0.1
		l-0.1-0.1c-0.2-0.4-0.2-0.5-0.3-0.9l0-0.1l0-0.1l0-0.1c-0.1-0.4-0.1-0.4-0.3-0.8l0,0l0,0l0,0l0-0.1l0-0.1l0-0.1l0-0.1v0l0,0v-0.1
		l0-0.1l0,0l0,0l0,0l-0.1-0.1c-0.9-0.3-0.7-1-1.2-1.4l0,0l0,0c-0.4-0.4-0.3-1-0.2-1.6v-0.1l0,0l0,0l0-0.1l0-0.1L17.6,37l0-0.1
		c-0.2-0.3-0.1-0.7-0.4-0.9l0-0.1l0-0.1v-0.1l0-0.1l0-0.1l0,0l0-0.1v0l0,0l0-0.1l0-0.1l0,0l0-0.1l0,0V35c0-0.7,0-2,0.3-2.6l0.1-0.1
		l0.1-0.2l0.1-0.2c0.4-1,1.2-1.8,2-2.5l0.1-0.1l0.1-0.1l0.2-0.1c0.4-0.3,0.7-0.5,1.1-0.8l0.1,0l0.1-0.1c0.4-0.3,0.9-0.6,1.4-0.7
		l0.1,0l0.1,0l0.1,0l0.1,0l0.1,0l0.1,0l0.1,0l0.1,0l0.1,0l0.1,0c0.3-0.1,0.6,0.1,1,0.1l0.1,0l0.1,0c0.3,0.2,0.5,0.3,0.8,0.5l0,0
		l0.1,0l0,0.1c0.6,0.5,0.9,1.8,0.9,2.6v0.2l0,0.1l0,0v0l0,0.1l0,0.1l0,0l0,0.1l0,0l0,0.1l0,0.1v0l0,0l0,0.1c0.3,0.3,0.4,0.7,0.5,1.1
		l0,0.1l0,0.1l0,0.1l0,0.1l0,0.1l0,0.1l0,0.1l0,0.1v0.1l0,0.1v0.1c0,0.1,0,0.2,0.1,0.2l0,0l0.1,0.1c0.4,0.3,0.6,0.9,0.8,1.3l0,0.1
		l0,0.1l0,0.1l0,0.1l0,0.1l0,0.3l0,0.1c0.1,0.5,0.1,1,0.1,1.5l0,0.1l0,0.1l0,0.1l0,0.1l0,0.1l0,0.1l0,0.1l0,0.1l0,0.2v0.2l0.1,0.3
		l0,0.1l0,0.1l0,0.1l0,0.1c0,0.5,0,0.7-0.2,1.1l-0.1,0.2l0,0.1c-0.1,0.3-0.3,0.4-0.4,0.6v0.2l0,0.1v0.1c0,0.3,0,0.7,0,1l0,0h0l0.1,0
		h0.1l0,0h0l0,0l0.1,0l0,0l0,0l0,0V43l0,0l0,0l0,0l0,0l0,0l0,0l0,0l0,0l0,0l0,0.1c0,0.2-0.1,0.4-0.2,0.6l0,0.1l0,0.1l0,0.1
		c-0.2,0.6-0.4,1.2-0.7,1.8l0,0.1l0,0.1L27.5,46.5L27.5,46.5"/>
	<path class="st1" d="M25.9,31.4L25.9,31.4l-0.1,0c-0.4,0.1-0.8,0.4-1.1,0.7l0,0l0,0c-0.2,0.2,0.1,0.6,0.3,0.6h0l0,0l0,0l0,0l0,0
		l0.1,0l0,0l0.1,0c0.2-0.2,0.8-0.5,1.1-0.2l0,0l0,0c0.2,0.5,0.3,1,0.3,1.5l0,0l0,0l0,0c1.2,1.3,1.2,2,1.3,3.7v0.2l0,0.1V38l0,0.1
		l0,0.1l0,0.1l0,0.1l0,0.1l0.1,0.1l0,0.1l0,0l0,0l0,0.1c0,0.2,0,0.3,0.1,0.4l0,0.1l0,0.1c0,0.4,0,0.8-0.2,1.1l0,0l0,0.1l-0.1,0.1
		l-0.1,0.1c-0.3,0.4-1,0.9-1.5,1.2l-0.1,0l-0.1,0c-0.4,0.2-1.5,0-1.9-0.2l-0.1,0l-0.1,0l-0.1,0l-0.1,0l-0.1,0l-0.1,0l-0.1,0l-0.1,0
		l-0.1,0c-0.2-0.1-0.2-0.1-0.3,0.1l0,0l0,0c0,0.1-0.1,0.2,0,0.2l0,0l0,0l0.1,0c0.5,0.2,1.1,0.3,1.7,0.4l0.1,0h0.1l0.1,0h0.1
		c0.8,0,1-0.2,1.6-0.6l0.1-0.1l0.1-0.1l0.1,0l0,0l0,0l0,0l0,0h0.1l0,0l0,0l0,0c0,0.1,0,0.2,0,0.3v0.1l0,0.1v0.1l0,0.1v0.1
		c0,0.4,0,0.7,0,1.1l0,0.1l0,0.1c-0.3,0.7-0.3,1-0.5,1.6l-0.1,0.2l0,0.1l0,0.2l0,0.1c-0.1,0.3-0.2,0.6-0.4,0.8l0,0.1l0,0.1l0,0.1
		l0,0.1l0,0.1l0,0.1v0l0,0h0l0,0l-0.1,0c-0.2,0-0.5,0.1-0.7,0.2l-0.1,0l-0.1,0l-0.1,0l-0.1,0h0l0,0l0,0h0l0,0l0,0l0,0l0,0l-0.1-0.1
		l-0.1-0.1L24.9,47l-0.1,0l-0.2-0.1c-0.6-0.3-1.3-0.4-1.9-0.8l-0.1-0.1l-0.1-0.1c-0.4-0.4-0.8-1-1.1-1.5l-0.1-0.1l-0.1-0.1L21.2,44
		l-0.1-0.1l0-0.1c-0.2-0.3-0.3-0.7-0.3-1l-0.1-0.2l-0.1-0.2c-0.1-0.3-0.3-0.6-0.5-1l0-0.1l0-0.1l0-0.1L20,40.9l0-0.1l0-0.1l0,0v0
		l0,0l0,0l0,0l0.1,0l0.1,0l0.1,0l0,0l0,0l0,0v0l0-0.1v0l0,0l0,0l0,0c-0.1-0.1-0.7,0-0.9-0.1l0,0l-0.1,0c-0.3-0.2-0.6-0.6-0.5-0.9v0
		l0-0.1l0,0c0-0.2-0.5-0.2-0.6-0.7l0-0.1c0-0.4,0-0.5,0.4-0.6h0.3l0,0H19c0.1,0,0.1,0,0.2,0l0,0l0,0l0,0l0,0l0,0l0,0l0,0v0l0,0v0
		l0,0v0c0-0.1-0.1-0.2-0.2-0.3l0,0l0,0c0-0.1-0.1-0.2-0.1-0.3l0,0l0-0.1l0-0.2V36c0-0.2,0-0.3,0-0.5v-0.2c0-0.2,0-0.4,0-0.5l0-0.1
		l0-0.1l0-0.1l0-0.1c0.1-0.2,0.2-0.2,0.3-0.4l0,0l0-0.1c0.1-0.2,0.3-0.4,0.4-0.6l0.1-0.1l0,0l0,0l0,0l0,0l0.1-0.1
		c0.4-0.6,0.6-0.8,1.3-1.2l0.1,0l0.1,0c0.5-0.2,1.1-0.1,1.7-0.2l0.1,0l0.1,0l0.1,0l0.1,0l0.1,0c0.2-0.1,0.5-0.1,0.7-0.1l0.2,0
		c0.2,0,0.4-0.1,0.6-0.2l0.1-0.1l0.1-0.1c0.1-0.1,0.3-0.1,0.4,0.1l0,0l0,0l0,0v0.1l0,0v0l0,0l0,0l0,0l0,0L25.9,31.4L25.9,31.4
		L25.9,31.4L25.9,31.4L25.9,31.4L25.9,31.4L25.9,31.4"/>
	<path class="st0" d="M25.5,33.6L25.5,33.6L25.5,33.6c0.3,0.5,0.7,0,0.5-0.3v0l0,0h0l0,0l-0.1,0l0,0l0,0l0,0l0,0l0,0h0l0,0l0,0l0,0
		l0,0l0,0l0,0l0,0l0,0L25.5,33.6L25.5,33.6L25.5,33.6L25.5,33.6L25.5,33.6"/>
	<path class="st0" d="M21.7,35L21.7,35L21.7,35L21.7,35l0.1,0.1l0,0l0,0l0,0h0.3l0.1,0l0,0l0,0c0.1-0.1,0.2-0.3,0.1-0.4l0,0l0,0l0,0
		l0,0l0,0l0,0h-0.1l-0.1,0l0,0l0,0l0,0l0,0l0,0C21.9,34.7,21.8,34.8,21.7,35L21.7,35L21.7,35L21.7,35"/>
	<path class="st0" d="M22.7,38.1L22.7,38.1l0.1,0.1l0.1,0.1c1.2,1.6,4,1.6,4.7-0.5l0-0.1l0.1-0.2l0-0.1c0.1-0.3,0.1-0.6,0.1-1v-0.1
		l0-0.1l0-0.1l0,0l0,0l0,0l0,0l-0.1,0l-0.1,0l-0.1-0.1l-0.1,0l-0.1,0l-0.1,0c-0.2,0-0.3-0.2-0.4-0.4l-0.1-0.1l0-0.1
		c-0.2-0.3-0.5-0.6-0.7-0.8l-0.1-0.1l-0.1-0.1l-0.1-0.1L25.4,34L25.3,34l0,0l-0.1,0l0,0c-0.2-0.1-0.3,0.1-0.3,0.2l0,0l0,0
		c0.2,0.2,0.2,0.2,0.4,0.4l0.1,0.1l0.1,0.1l0.1,0.1c0.2,0.2,0.4,0.4,0.5,0.6l0,0.1l0,0.1c0.1,0.2,0.2,0.3,0.1,0.5l0,0l0,0l-0.1,0.1
		L26,36.3l0,0l0,0c-0.2,0.1-0.6,0-0.8,0l-0.1,0h-0.1c-0.3,0-0.6,0.2-0.9,0.3l-0.1,0l-0.1,0l0,0c-0.6,0.3-1.4,0.2-1.3,1.1l0,0.1
		L22.7,38.1L22.7,38.1"/>
	<path class="st2" d="M19.8,59.7l0.1,0.1c0.3,0.3,0.6,0.7,0.8,1.1l18.2,4.5l0.2-0.3l0.2-0.3l0.4-0.6l0.2-0.3l0.2-0.3
		c0.6-0.8,1.2-1.5,2-2.2l0.3-0.2l0.3-0.2v0l0,0l-0.1,0l-0.1-0.1l-0.1,0l0,0l-0.1,0l-0.1-0.1L42,60.3l-0.2-0.1
		c-1-0.7-1.6-1.5-2.4-2.5l-0.1-0.2l-0.1-0.2L39,57.2l-0.1-0.2L38.8,57c-0.2-0.3-0.4-0.4-0.6-0.6l0-0.1l0-0.1
		c-0.1-0.2-0.2-0.3-0.2-0.5l0-0.1l0-0.2l0-0.1c-0.1-0.4-0.2-0.3-0.3-0.6l0-0.1l0-0.1c-0.1-0.3-0.3-0.5-0.4-0.9l0-0.1l0-0.1l0-0.1
		l0-0.1l0-0.1l0-0.1l0-0.1c-0.4-1-0.7-1.9-1.1-2.9l-0.1-0.2l-0.1-0.2c-0.5-1.2-1.3-2.3-2.2-3.2l-0.1-0.1l-0.1-0.1l-0.1-0.1l-0.1-0.1
		c-0.6-0.6-0.5-0.6-1.2-0.1L31.7,46l-0.1,0.1c-0.7,0.5-1.6,0.5-2.4,0.7l-0.2,0.1l-0.3,0.1l-0.1,0l-0.1,0l-0.1,0l-0.1,0l-0.1,0
		c-0.3,0.1-0.5,0.2-0.8,0.2h-0.1l-0.1,0h0l0,0l0,0l-0.1,0l-0.1,0l-0.1,0l-0.1,0l-0.2,0l-0.1,0l-0.1,0l-0.1,0l-0.2,0
		c-0.4,0.1-0.7,0.2-1.1,0.2l0,0c-0.2,0.1-0.5,0.3-0.7,0.3l-0.1,0l-0.1,0l-0.1,0l-0.1,0l-0.2,0c-1.1,0.2-2.5,0.3-3.6,0.2l-0.2,0
		l-0.1,0l-0.1,0c-0.4-0.1-0.8-0.3-1.2-0.5l-0.1-0.1l-0.1,0l-0.1,0l-0.1,0l-0.1,0l0,0h0l0,0l0,0l0,0v0l0,0v0l0,0v0.2
		c0.1,1,0.2,2.1,0.2,3.1v0.2c0,0.8-0.5,1.8-1.2,2.3l-0.1,0.1l-0.1,0.1l-0.1,0.1l-0.2,0.1c-0.6,0.4-0.9,0.3-0.4,1l0.1,0.1l0.1,0.1
		c0.3,0.4,0.5,0.8,0.8,1.2l0.3,0.3l0.1,0.2c0.5,0.7,0.9,1.4,1.6,2l0.5,0.5l0.2,0.2l0.1,0.1L19.8,59.7"/>
	<path class="st0" d="M20.6,53.9L20.6,53.9L20.6,53.9l0.1-0.2c0.3-0.8,0.7-1.6,0.9-2.5l0,0l0,0c0.8-0.6,2-0.6,2.9-1l0.4-0.1l0.8-0.2
		l0.2-0.1l0.2-0.1c1.5-0.4,3-0.8,4.4-1.3l0.3-0.1c0.8-0.2,0.6-0.2,1.3,0l0.1,0l0.1,0l0.1,0l0.1,0l0.3,0.1l0.3,0.1
		c0.4,0.2,1.2,0.3,1.5,0.6l0,0l0,0c0,0.2-0.1,0.2-0.2,0.4l0,0.1l0,0.1c-0.1,0.2-0.2,0.4-0.3,0.6l-0.1,0.2l-0.1,0.1L34,51
		c-1.1,2.4-2.4,4.7-3.4,7.1l0,0l0,0l0,0l0,0c-1.9-0.8-3.8-1.5-5.7-2.2l-0.2-0.1l-0.1-0.1l-0.1,0c-1-0.4-2-0.9-3-1.4l-0.1,0l-0.1,0
		l-0.1,0c-0.1-0.1-0.2-0.1-0.4-0.2l0,0l0,0l0,0l0,0h0l0,0L20.6,53.9L20.6,53.9L20.6,53.9L20.6,53.9"/>
	<path class="st3" d="M33.2,51.5l0.1-0.2l0.1-0.1c0.2-0.4,0.4-0.9,0.5-1.3l0-0.1l0-0.1l0,0l0-0.1l0,0l0,0l0,0l0-0.1l0,0l0,0v0l0,0v0
		h0l0,0l0,0h0l-0.1,0l0,0l-0.1,0l-0.1,0l-0.1,0l-0.1,0l-0.3-0.1l-0.4-0.1c-0.4-0.1-0.8-0.3-1.2-0.4h0l0,0h0c-0.1,0-0.3,0.1-0.4,0.1
		l-0.1,0l-0.1,0c-1.2,0.3-2.4,0.7-3.5,1l-0.3,0.1L26.7,50l-0.3,0.1l-3.8,1.1l-0.1,0l-0.1,0c-0.4,0.2-0.4,0.5-0.6,0.9l0,0.1l0,0.1
		l0,0.1c-0.1,0.3-0.2,0.6-0.3,0.8l0,0.1l0,0.1l0,0.1l0,0.1v0l0,0v0l0,0h0l0,0l0,0l0.1,0l0,0l0.1,0c0.1,0.1,0.3,0.1,0.4,0.2l0.1,0.1
		l0.1,0l0.1,0c0.5,0.2,1,0.5,1.5,0.7l0.2,0.1l0.3,0.1l0.3,0.2l3.1,1.3l0.2,0.1l0.2,0.1c0.5,0.2,1.1,0.4,1.6,0.5l0.1,0l0.1,0
		c0.1,0,0.2,0.1,0.3,0.1h0l0,0l0,0h0l0,0v0c0.1-0.1,0.1-0.3,0.2-0.5l0.1-0.1c0.2-0.4,0.4-0.8,0.6-1.1l0.1-0.1l0.2-0.3L33.2,51.5z"/>
	<path class="st4" d="M33.2,51.5L33.2,51.5L33,51.3L33,51.3l-0.1-0.1l-0.1,0c-0.3-0.2-0.7-0.1-1,0.1l0,0h0v0c0.4-0.5,0.6-1.6-0.1-2
		l-0.2-0.1L31.3,49l-0.1,0c-0.1-0.1-0.3-0.1-0.5-0.1l-0.1,0l-4.2,1.2l-0.4,0.1L25,50.5l-0.4,0.1l-0.2,0.1l-0.3,0.1
		c-0.4,0.1-0.8,0.3-1.3,0.4l-0.1,0l-0.1,0l-0.1,0l-0.1,2.1l1.8-0.7l0.2,2.4l1,0.4c0.7,0.3,1.3,0.6,2,0.8l0.1,0.1l3.7-1.4l0.2-0.4
		l0.2-0.4L32,54c0.3-0.6,0.6-1.2,0.9-1.7l0.2-0.5L33.2,51.5L33.2,51.5z M27.2,51.9l1.6-0.6l0.1,0l0.1,0c0.2,0,0.5-0.1,0.7,0l0,0l0,0
		c0.1,0.2-0.3,0.6-0.5,0.6l-0.1,0l-1.8,0.7L27.2,51.9z M30,53.3l-2.5,1.1l-0.1-0.7l2.2-1l0.1,0C30.6,52.4,31,53,30,53.3z"/>
	<path class="st0" d="M38.5,47.2l0.2,0.2l0.2,0.2l0.2,0.2l0.2,0.2c0.8,1.1,1.4,2.2,2.1,3.4l0,0l0,0l0,0.1c0.1,0.2,0.2,0.2,0.4,0.3
		l0.1,0l0.1,0c0.4,0.1,0.8,0.2,1.2,0.4l0.1,0l0.1,0l0,0l0.1,0l0,0c0.2,0.1,0.3,0.3,0.3,0.5l0,0l0,0c0.1,0.1,0.4,0.2,0.6,0.2l0.2,0.1
		l0.4,0.1l0.2,0.1c1.2,0.3,2,0.9,3.3,1.1l0.4,0.1l0.2,0l0.2,0l0.2,0l0.2,0h0.2c0.6,0,1.3-0.3,1.9-0.5l0.3-0.2L52,54
		c0.4-0.2,0.8-0.4,1.2-0.6l0.1-0.1l0.2-0.1l0.2-0.1l0.1-0.1c0.3-0.3,0.3-0.4,0.3-0.9V52c0-0.3,0.1-0.2-0.1-0.4l-0.1-0.1l-0.2-0.1
		l-0.1-0.1L53.3,51l-0.1-0.2c-0.3-0.3-0.3-0.8-0.3-1.2l0-0.1l0-0.1c0-0.4-0.1-0.6,0-1l0,0v0l0,0c0.5-0.8,1.2-1.2,1.8-1.8l0,0h0v0
		l0,0v0l0,0l0,0v0l0,0.1l0,0.2l0,0.1c0,0.1,0,0.2,0,0.4v0h-0.1c-0.8,0.1-0.9,0.6-1.3,1.2l0,0.1l0,0c-0.3,0.7-0.4,0.8-0.3,1.6l0,0.1
		l0,0.1l0,0.1l0,0l0,0c0.2,0.2,0.3,0.4,0.5,0.6l0.1,0.1l0.1,0.1c0.1,0.2,0.2,0.1,0.2,0.4l0,0.1V52c0,0.6-0.1,0.8-0.2,1.4v0.1l0,0.1
		l0,0.1l0,0.1l0,0.1l0,0.1c-0.1,0.6-0.2,1.3-0.3,1.8v0.1l0,0.1c0.1,0.3,0.5,0.9,0.7,0.9l0.1,0l0.1,0h0.2c0.7,0,0.8-0.4,0.9-1l0-0.1
		l0-0.1c0.3-0.8,0.3-1.8,0.5-2.6l0-0.1l0-0.1l0-0.1v-0.1l0-0.3v-0.1c0.1-1.3,2-0.3,2-2.3v-0.4c-0.1-0.6,0-1.5-0.5-1.8l-0.1-0.1
		l-0.1-0.1l0,0l0,0l-0.1,0l0,0l0,0l-0.1,0l0,0l0,0l0,0l0,0.1v0.1l0,0v0.1l0,0.1V48l0,0.1v0.1l0,0.1l0,0.1l0,0.1l0,0.1l0,0.2
		c-0.1,0.2-0.1,0.4-0.2,0.7l0,0.2l0,0.1l0,0.1l0,0l0,0l0,0l0,0l0,0l-0.1,0l-0.1,0c-0.2,0.1-0.6,0.2-0.8,0.3l0,0h0
		c0,0-0.2-0.1-0.2-0.1l0,0l0,0l-0.1,0L55.4,50l-0.1-0.1l-0.1-0.1c-0.1-0.1-0.2-0.2-0.4-0.3l0,0l0,0c-0.1,0,0,0,0-0.1v-0.1
		c0-0.6,0.1-1.1,0.2-1.7l0-0.1l0,0l0,0l0,0l0,0l0,0v0l0,0.1v0c0.1,0.5,0,1-0.1,1.5v0.2l0,0l0,0c0.1,0.1,0.3,0.1,0.4,0.2l0.2,0.1
		l0.1,0l0,0l0,0l0,0c0.1,0,0.1,0,0.3,0h0.2l0.1,0l0,0l0,0l0,0l0,0l0.1-0.1c0.3-0.6,0.4-1.3,0.5-2l0-0.2l0-0.2l0-0.2l0-0.1l0-0.1l0,0
		l0,0l0,0h0l0,0c0.1,0,0.1,0.1,0.2,0.1l0.1,0.1l0.1,0.1l0.1,0.1l0.2,0.1c0.2,0.2,0.3,0.4,0.4,0.6l0.1,0.1l0,0.1
		c0.1,0.1,0.1,0.2,0.1,0.3l0,0.1l0,0.1l0,0.1l0,0.1l0,0.1c0.1,0.6,0.1,1.1,0.1,1.6l0,0.1l0,0.1c-0.3,0.9-0.7,0.7-1.4,1.1L57,51.8
		l-0.1,0l-0.1,0l0,0l0,0.1l0,0.1l0,0l0,0c-0.1,0.3-0.1,0.9-0.2,1.3l0,0.3c0,0.5-0.3,1.1-0.2,1.5l0,0l0.1,0.1l0.1,0.1
		c0.3,0.4,0.8,1.1,0.8,1.6v0.1l0,0.1l0,0c0,0.2-0.1,0.2-0.3,0.3l-0.1,0l0,0l0,0v0.2l0,0.1v0.3l0,0.1l0,0.1l0,0l0,0.1l0,0l0,0l0,0
		l0,0l0.1,0h0.1l0.1,0l0,0v0l0,0l0,0c-0.3,0.4-0.7,0.5-1.2,0.2L55.9,59V59l0,0l0.1-0.1l0.1-0.1l0.1,0l0,0c0.1-0.1,0.1-0.1,0.2-0.3
		v-0.1l0-0.1c-0.1-0.3-0.6-0.1-0.9-0.1h-0.1l0,0l0,0l0,0l0,0l0,0l0,0l0.1,0l0.1,0c0.5-0.2,0.6,0.2,1-0.4l0-0.1
		c0.3-0.6,0.1-1-0.4-1.3l-0.1,0L56,56L56,56h0l0,0c-0.1,0.2-0.1,0.2-0.1,0.4l0,0.1l0,0.1c-0.1,0.2-0.2,0.3-0.3,0.4l-0.1,0l0,0l0,0
		c-0.2,0-0.4,0-0.7,0l-0.1,0l-0.1,0c-0.2-0.1-0.4-0.3-0.5-0.5l0-0.1l0-0.1l-0.1-0.1l0-0.1l0-0.1l0-0.1l0-0.1c0-0.5,0.1-1.1,0.2-1.6
		l0-0.1l0-0.1c0-0.1,0-0.2-0.1-0.2h0l0,0c-0.2,0.1-0.3,0.2-0.5,0.3l-0.2,0.1l-0.1,0.1l-0.1,0c-0.6,0.3-1.2,0.5-1.8,0.7l-0.1,0
		l-0.1,0c-1.3,0.5-1.7,0.2-3.1-0.1l-0.3-0.1l-0.2,0l-0.2,0l-0.1,0l-0.2,0l-0.5-0.2l-0.3-0.1c-0.8-0.2-1.3-0.7-2.1-0.9l-0.1,0l-0.1,0
		c-0.9-0.1-1.7,0.3-2.2,1.1l-0.1,0.1l-0.1,0.2L41.1,55l0,0.2c-0.1,0.7,0,1.4,0.1,2.1l0,0.1l0,0.1c0.1,0.5,0.4,1.2,0.9,1.4l0.1,0.1
		l0.2,0.1l0.2,0.1l0.2,0.1l0.2,0.1l0.2,0.1l0.2,0.1c0.2,0.1,0.3,0.1,0.4,0.2l0,0l0,0v0l0,0v0l0,0l0,0l0,0.1l-0.1,0.1l-0.1,0.1
		l-0.1,0c-0.1,0.1-0.3-0.1-0.4-0.1l-0.1,0l-0.1,0l-0.1,0l-0.1,0L43,60l-0.1,0l-0.1,0h-0.1l-0.1,0l0,0l0,0v0l0,0
		c0.1,0.1,0.2,0.2,0.2,0.3l0,0l0,0l0.1,0l0,0l0,0.1v0l0,0v0l0,0.1L43,60.8l0,0l0,0l-0.1,0l0,0h-0.1l0,0l0,0
		c-0.1-0.1-0.2-0.2-0.4-0.3l0,0l-0.1,0l-0.1-0.1L42,60.3l-0.2-0.1l-0.1-0.1l-0.1-0.1L41.6,60l-0.1,0l-0.1-0.1l-0.1-0.1
		c-0.8-0.7-1.5-1.6-2.2-2.4L39,57.2l-0.1-0.2c-0.4-0.4-0.7-0.7-0.9-1.2l0-0.2l0-0.2l0-0.1c-0.1-0.2-0.1-0.2-0.2-0.4l0-0.1l0-0.1
		c-0.1-0.2-0.2-0.4-0.3-0.7l0-0.1l0-0.1l0-0.1c-0.3-0.7-0.5-1.5-0.8-2.2l0-0.1l0-0.1l0-0.1l-0.1-0.2L36.1,51c-0.3-1-1-2.4-1.6-3.2
		l-0.1-0.2l-0.1-0.2c-0.5-0.5-1-1.2-1.5-1.7l0,0l0,0l-0.1,0l-0.1,0h-0.1l0,0l0,0l-0.1,0l-0.1,0.1L32,45.8l-0.1,0.1
		c-0.3,0.2-0.5,0.3-0.8,0.4l-0.3,0.1l-0.2,0c-0.3,0.1-0.6,0.2-0.9,0.2l-0.1,0h-0.1c-0.3,0-0.5,0.2-0.8,0.2l-0.1,0l-0.1,0l-0.1,0
		l-0.1,0l-0.1,0l-0.2,0l-0.1,0l-0.1,0c-0.2,0-0.3,0.1-0.6,0.1l0,0l0,0l0,0l0,0v0l0-0.1l0-0.1l0,0l0,0l0,0l0,0l0,0
		c0.1-0.1,0.2-0.1,0.3-0.1h0.1c0.4,0,0.8-0.1,1.1-0.2l0.5-0.1l0.2-0.1l0.2-0.1l0.2-0.1c0.7-0.3,1.5-0.6,2.2-1.1l0.1-0.1l0.1-0.1
		c0.3-0.2,0.6-0.7,0.2-1l0,0l-0.1-0.1l-0.1,0l-0.1-0.1l-0.1,0l-0.1,0c-0.8-0.3-1.6-0.5-2.4-0.5h-0.3l-0.1,0c-0.2,0-0.5,0-0.7,0h-0.1
		c-0.1,0-0.1-0.1-0.1-0.2l0,0l0-0.1l0,0l0,0c2.9-0.7,6.9,1.8,9,3.5l0.2,0.2l0.2,0.2l0.2,0.2l0.2,0.2L38.5,47.2"/>
	<path class="st1" d="M55.9,58.9l-0.4-0.1l-0.4-0.1l-0.4-0.1l-0.7-0.2c-1.8-0.4-3.6-0.5-5.4-0.2l-0.4,0.1l-0.4,0.1l-0.4,0.1
		c-0.6,0.2-1.2,0.4-1.8,0.6l-0.4,0.2L45,59.2l-0.3,0.2l-0.3,0.2L44,59.8h0l0,0l-0.1,0l-0.1,0l-0.1,0l-0.1,0l-0.2-0.1
		c-0.8-0.5-1.4-0.4-1.9-1.3l0-0.1l0-0.1c-0.3-0.5-0.3-1.2-0.4-1.8l0-0.2v-0.2l0-0.1c-0.1-1.7,1.6-2.8,3.1-2.2l0.2,0.1l0.1,0l0.1,0
		l0.2,0.1c0.2,0.1,0.4,0.2,0.6,0.3l0.1,0l0.1,0c0.4,0.2,0.9,0.3,1.3,0.5l0.1,0l0.2,0l0.2,0c0.8,0.1,1.9,0.6,2.7,0.4l0.1,0l0.1,0
		l0.1,0l0.3-0.1l0.1,0l0.1,0l0.2-0.1c0.5-0.2,1-0.4,1.5-0.6l0.1,0l0.1,0l0.1,0c0.1-0.1,0.3-0.1,0.4-0.2l0.1,0l0.1,0l0.1,0l0.1,0
		l0.1,0h0l0,0l0,0l0,0V54c0,0.1-0.1,0.2-0.1,0.3l0,0.1l0,0.1c0,0.2,0,0.4,0,0.6l0,0.1l0,0.1l0,0.1c-0.2,0.6,0.2,1.1,0.6,1.5l0.1,0
		l0.1,0.1l0.1,0l0.1,0l0.1,0c0.4,0,0.8,0.1,1.1-0.3l0-0.1l0-0.1l0-0.1c0.1-0.2,0.1-0.2,0.1-0.4l0,0l0,0c0.1-0.1,0.2,0.1,0.3,0.1
		l0.1,0.1l0.1,0.1l0.1,0.1l0.1,0.1l0.1,0.1c0.2,0.3,0.2,0.8-0.1,1.1l0,0l0,0c-0.4,0.5-0.5,0.1-1,0.3l-0.1,0l-0.1,0l0,0l0,0l0,0l0,0
		l0,0c0.3,0.1,0.6-0.1,0.9,0l0,0l0,0C56.5,58.3,56.2,58.7,55.9,58.9L55.9,58.9"/>
	<path class="st3" d="M36.1,79.1l3.8-0.7l0.2,0.3c5.3,7.4,16.2,7.4,21.5,0l0.2-0.3l15.1,2.7l0,0.1l0,0l0,0l0,0
		c-0.5,0.4-1.2,0.6-1.8,0.9l-0.3,0.2l-0.3,0.2c-1.6,0.7-3.1,1.6-4.8,2l-0.2,0.1l-0.5,0.1l-0.5,0.1c-1.7,0.5-3.4,0.9-5.1,1.3
		l-0.5,0.1l-0.3,0c-1.9,0.3-3.9,0.3-5.9,0.4h-0.2l-0.2,0l-0.3,0h-0.3l-0.3,0l-0.3,0c-1.7-0.1-2.9-0.1-4.6-0.6L50.1,86l-0.3-0.1
		c-1.7-0.5-3.4-1-5.1-1.6l-0.4-0.2L43.9,84l-0.7-0.3c-1.7-0.7-3.8-1.7-5.4-2.7l-0.3-0.2c-0.5-0.3-0.9-0.9-1.3-1.3l0,0l0-0.1l0-0.1
		L36.1,79.1"/>
	<polyline class="st5" points="43.5,60.1 43,60.4 43,60.4 43,60.4 42.9,60.3 42.9,60.2 42.8,60.2 42.8,60.1 42.7,60.1 42.7,60.1 
		42.7,60 42.7,60 42.7,60 42.8,60 42.8,59.9 42.9,59.9 42.9,60 43,60 43.1,60 43.2,60 43.2,60 43.3,60 43.4,60.1 43.4,60.1 
		43.5,60.1 	"/>
	<path class="st0" d="M19.9,25.7L19.9,25.7l0-0.2l0-0.2l0-0.1c-0.1-0.5-0.7-0.5-1-0.7l0,0l0,0l0,0c-0.1-0.2-0.1-0.6,0-0.7l0-0.1
		l0.1-0.1c0.1-0.1,0.5-0.5,0.6-0.5l0.1,0l0.1,0l0.1,0l0.1,0l0.2,0c0.5,0,1.3-0.1,1.4,0.5l0,0v0.1c0,0.2,0,0.4-0.2,0.5l-0.1,0.2
		C21,24.4,21,24.5,21,24.7v0.1l0,0l0,0.1l0,0.1l0,0.1l0,0.1l0.1,0.1c0.3,0.5,1,0.2,1.2,0.7l0,0l0,0.1c0.1,0.5-0.3,0.8-0.6,1l-0.1,0
		l-0.1,0.1l-0.1,0l-0.1,0.1c-0.6,0.3-1.3,0.4-1.8-0.2L19.7,27l0-0.1c-0.3-0.9,0.3-0.5,0.3-1l0,0l0-0.1L19.9,25.7L19.9,25.7"/>
	<path class="st6" d="M54.9,47.3L54.9,47.3c-0.8,0.1-1,0.6-1.3,1.2l0,0.1l0,0c-0.3,0.7-0.4,0.8-0.3,1.6l0,0.1l0,0.1l0,0.1l0,0l0,0
		c0.2,0.2,0.3,0.4,0.5,0.6l0.1,0.1l0.1,0.1c0.1,0.2,0.2,0.1,0.2,0.4l0,0.1V52c0,0.6-0.1,0.8-0.2,1.4v0.1l0,0.1l0,0.1l0,0.1l0,0.1
		l0,0.1c-0.1,0.6-0.2,1.3-0.3,1.8v0.1l0,0.1c0.1,0.3,0.5,0.9,0.7,0.9l0.1,0l0.1,0h0.2c0.7,0,0.8-0.4,0.9-1l0-0.1l0-0.1
		c0.3-0.8,0.3-1.8,0.5-2.6l0-0.1l0-0.1l0-0.1v-0.1l0-0.3v-0.1c0.1-1.3,2-0.3,2-2.3v-0.4c-0.1-0.6,0-1.5-0.5-1.8l-0.1-0.1l-0.1-0.1
		l0,0l0,0l-0.1,0l0,0l0,0l-0.1,0l0,0l0,0l0,0l0,0.1v0.1l0,0v0.1l0,0.1V48l0,0.1v0.1l0,0.1l0,0.1l0,0.1l0,0.1l0,0.2
		c-0.1,0.2-0.1,0.4-0.2,0.7l0,0.2l0,0.1l0,0.1l0,0l0,0l0,0l0,0l0,0l-0.1,0l-0.1,0c-0.2,0.1-0.6,0.2-0.8,0.3l0,0h0
		c-0.1,0-0.2-0.1-0.3-0.1l0,0l-0.1,0L55.4,50l-0.1-0.1l-0.1-0.1l0,0c-0.1-0.1-0.2-0.2-0.4-0.3l0,0l0,0l0,0v-0.3
		c0-0.6,0.1-1.1,0.2-1.7l0,0l0,0l0,0v0l0,0L54.9,47.3"/>
	<polyline class="st7" points="20.1,60 20,60 20,59.9 19.8,59.7 	"/>
	<path class="st0" d="M60.4,61.1h-0.2l-0.2,0H60l-0.2,0l-0.2,0h-0.1c-0.1,0-0.2,0-0.3,0.1l0,0l0,0c0,0-0.1,0.1,0,0.1v0l0,0.1l0,0.1
		c0.3,0.6,1.1,0.2,1.6,0.1l0.2,0l0.2,0l0.2,0c2.8-0.1,5.5-1.1,8.3-1.9l0.2-0.1l0.1,0l0.2-0.1c2.3-1.3,4.4-3.2,6.5-4.9l0.1-0.1
		l0.2-0.1l0.1-0.1c0.4-0.5,1.2-1.2,1.5-1.7l0,0l0-0.1c0.4-0.5,1.3-1,1.9-1.3L81,51l0.2-0.1l0.1,0l0.1,0l0.1,0l0,0l0,0l0,0l0,0l0,0v0
		l0,0h0l0,0h0c-0.1,0-0.1,0-0.2,0.1l0,0l0,0l-0.1,0c-0.8,0.2-1.1,0.6-1.8,0.8l-0.1,0h0l-0.1,0l0,0c-0.3-0.1-0.2-0.4,0-0.6l0.1-0.1
		l0.1-0.1c0.5-0.4,1.4-1.1,2-1.3l0.1,0l0.1,0l0.2-0.1l0.2,0l0.3-0.1l0.3,0c0.9-0.1,2.4-0.2,3.2,0.1l0.2,0.1l0.2,0.1
		c0.8,0.4,1.2,0.5,1.5,1.3l0.1,0.2l0,0.1l0,0.1c0.4,1.4,0,2.2-1.2,3.1l0,0l0,0h0l0,0l0,0v0l0,0c0.1-0.6-0.2-0.9-0.3-0.2l0,0.2l0,0.1
		v0.1c0,0.3-0.1,0.3-0.3,0.5l-0.2,0.2c-0.4,0.3-0.7,0.7-1.1,1l-0.1,0.1l-0.1,0.1l-0.1,0.1c-0.3,0.7-0.4,0.1-0.9,0.7l-0.2,0.2
		c-1.2,1.3-2.6,2.5-3.8,3.9l-0.1,0.1l-0.1,0.1l0,0l0,0v0c0.1,0.1,0.3,0,0.5,0l0.2,0l0.1-0.1c0.3-0.1,0.6-0.7,0.9-0.9l0.2-0.2
		l0.1-0.1c0.8-0.8,1.9-0.6,2.9-0.4l0.2,0.1l0.1,0l0.1,0L85,60c0.2,0.1,0.4,0.1,0.7,0l0.1,0l0,0c0.1-0.1,0.1-0.1,0-0.2l0,0l-0.1,0
		l-0.1,0c-0.6-0.5-1.8-0.8-2.7-0.7l0,0h0l0,0l0,0v0l0,0l0,0l0.1,0c1.3-0.9,2.7-1.6,4.2-2l0.2,0l0.2,0c0.7-0.3,3-0.2,3.3,0.7l0,0.2
		v0.1l0,0.1l0,0.1l-0.1,0.3l-0.1,0.3l0,0.1l0,0.1l0,0.1l0,0l0,0l0,0l0,0l0,0l0,0c0.2,0,0.7,0.1,0.8-0.2l0,0l0-0.1
		c0.3-1.1,0-2.4-1.2-2.7L90,55.8l-0.2,0l-0.2,0l-0.2,0l-0.2,0l-0.2,0c-0.9,0-1.6,0-2.5,0.3l-0.1,0l-0.1,0.1l-0.1,0l-0.2,0.1L86,56.3
		l-0.1,0l-0.1,0l0,0l-0.1,0h0l0,0l0,0v-0.1l0-0.1c0.2-0.3,0.6-0.5,0.8-0.8l0.4-0.4c0.4-0.5,0.9-0.9,1.3-1.4l0.1-0.2l0.1-0.2l0.1-0.2
		l0.1-0.2l0-0.1l0-0.1l0-0.1l0-0.1l0,0l0,0l0,0l0,0l0,0l0.1,0l0.1,0l0.1,0l0.1,0l0.1,0l0.1,0c0.6-0.2,1.1-0.4,1.7-0.6l0.2-0.1
		l0.2-0.1c1.6-1.1,2.5-2.3,2.8-4.3l0-0.1v-0.1l0-0.1l0-0.2l-0.1-0.2l-0.1-0.2l-0.1-0.2c-0.4-1.1-2.8-1.1-3.7-1.1l-0.2,0l-0.2,0
		l-0.2,0c-0.7,0.1-1.6,0.2-2.3,0.5l-0.1,0l-0.1,0c-0.3,0.1-0.6,0.5-0.9,0.5h-0.1l-0.1,0l-0.1,0l-0.2-0.1l-0.1,0
		c-0.2-0.3-0.5,0-0.7,0l-0.2,0.1l-0.2,0.1c-1,0.3-1.8,1-2.7,1.5l-0.2,0.1L81,48.5c-0.6,0.6-0.6,0.4-1,1.1l-0.1,0.1l0,0.1
		c-0.4,0.4-0.9,0.8-1.2,1.3l-0.1,0.1l-0.1,0.2l-0.1,0.2l-0.1,0.1l-0.1,0.1l0,0.1L78.1,52c-0.1,0.5-0.2,0.6-0.5,1l-0.1,0.1
		c-0.4,0.4-0.7,0.8-1.1,1.1l-0.4,0.3l-0.2,0.2l-0.2,0.2c-0.7,0.6-1.4,1.2-2.2,1.7l-0.1,0.1l-0.1,0.1c-0.5,0.4-1,0.8-1.6,1.2
		l-0.3,0.2l-0.3,0.2l-0.2,0.1l-0.1,0.1l-0.1,0.1c-1.5,0.6-3.1,1-4.7,1.5l-0.4,0.1l-0.2,0c-0.7,0.2-1.4,0.3-2,0.4L63,60.8
		c-0.6,0.2-1.2,0.2-1.8,0.3h-0.1l-0.1,0H60.4"/>
	<polyline class="st0" points="22.7,23.3 23.2,23.7 31.2,19.5 30.9,19 22.7,23.3 	"/>
	<path class="st0" d="M19.8,59.7l-0.1-0.2l-0.1-0.1l-0.2-0.2L19,58.7c-0.6-0.6-0.9-1.2-1.4-1.8l-0.1-0.2l-0.1-0.2
		c-0.4-0.5-0.7-0.9-1-1.5L16.2,55l-0.1-0.1c-0.6-0.8-0.5-0.7,0.3-1.1l0.2-0.1l0.1-0.1l0.1-0.1l0.1-0.1C17.5,53,18,52,18,51.3v-0.2
		c0-1.1,0-2.1-0.2-3.2v-0.2l0,0v0l0,0v0l0,0l0,0l0,0h0l0,0l0.1,0l0.1,0l0.1,0l0.1,0c0.4,0.2,0.8,0.5,1.2,0.6l0.1,0l0.1,0l0.1,0
		c1.2,0.1,2.6,0,3.7-0.2l0.2,0l0.1,0l0.1,0l0.1,0l0.1,0c0.2,0,0.5-0.2,0.7-0.3l0,0l0,0l0,0l0,0v0l0,0l-0.1-0.1l-0.1,0l0,0l0,0l0,0h0
		l0,0l0,0l0,0l0,0l-0.1,0c-0.3,0.1-0.5,0.1-0.8,0.2l-0.1,0l-0.1,0l-0.5,0.1l-0.3,0l-0.3,0l-0.3,0l-0.3,0c-1.4,0.1-2.9-0.3-4.1-1.1
		l-0.2-0.1l-0.2-0.1c-1.2-0.7-2.2-0.7-3.6-0.9l-0.1,0l-0.1,0l-0.1,0l-0.1,0C12.8,45.6,13.5,45,14,45l0.1-0.1l0.2,0
		c1.5-0.5,2.6-1.1,4.2-0.6l0.2,0l0.2,0l0.2,0l0.2,0l0.3,0l0.2,0c0.3,0,1.4,0.1,1-0.5l0,0l0,0c-1.1,0.3-1.9-0.1-3.1,0h-0.2l-0.2,0H17
		l-0.2,0c-1.2,0.2-2.5,0.4-3.6,1l-0.1,0.1l-0.1,0.1c-0.4,0.5-1,0.8-1.4,1.4l0,0.1l0,0l0,0l0,0h0.1l0,0l0,0l0.1,0
		c0.7-0.3,1.8,0.1,2.5,0.2l0.2,0c0.4,0.1,1.4,0.4,1.7,0.7l0.1,0.1l0.2,0.2l0.1,0.1c1.6,1.2,0.7,4.8-0.8,5.7l-0.2,0.1l-0.2,0.2
		l-0.1,0l-0.1,0c-0.6,0.4-1.2,0.7-1.8,1l-0.1,0.1L13.4,55c-0.4,0.2-0.7,0.2-1.1,0.2l-0.1,0h-0.1c-0.3,0-0.7,0-1,0l0,0l-0.1,0l-0.1,0
		l-0.1,0l-0.1,0l-0.1,0c-0.1,0-0.1-0.1-0.1-0.2l0,0l0.1-0.1c0.2-0.4,0.3-0.8,0.5-1.1l0.1-0.2l0-0.1l0-0.1c0.1-0.4,0-1,0-1.4v-0.3
		c0-0.4-0.1-0.5-0.2-0.9l0-0.1v-0.1l0-0.1v-0.2l0-0.4l0-0.2C11,49.4,11,49.1,11,48.6v-0.1l0-0.1c0-0.3,0.2-0.3,0.4-0.5l0.1,0l0.1,0
		l0-0.1l0-0.1c0-0.4,0-0.7,0-1.1v-0.1l0-0.1c0-0.2-0.1-0.7-0.2-0.9l0-0.2l0-0.1L11.3,45c-0.4-1.5-0.7-1.3-0.4-2.8l0,0l0-0.1l0-0.1
		c0.1-0.7,0.2-1.4,0.3-2l0-0.2l0-0.2c0.1-0.2,0.1-0.3,0.1-0.5l0.1-0.1l0.1,0l0.3-0.2l0.2-0.1c1-0.6,0.4-0.9,1.6-0.9h0.1l0.1,0
		c1.2,0,2.5,0.1,3.7,0h0l0,0h0l0.1,0c0.1-0.1,0.2-0.4,0.2-0.6l0-0.1c-0.1-0.3-0.2-0.7-0.4-0.9l0-0.1l-0.1-0.1
		c-0.1-0.1-0.1-0.3-0.3-0.2h-0.1c-0.5,0-1,0-1.6,0h-0.2l-0.4,0h-0.2l-0.2,0h-0.1l-0.1,0l-0.1,0l-0.1,0l-0.1,0l-0.1,0l-0.1,0l-0.1,0
		c-0.2,0-0.4,0-0.4-0.2v-0.2c0-0.3,0-0.7,0-1V34l0,0l0,0l0,0h0.1l0.1,0l0.1,0h0.2c0.6,0,1.2,0.1,1.8,0H16l0.1,0h0.2
		c0.2,0,0.6,0,0.9,0h0l0,0l0,0h0l0,0l0,0l0,0l0,0l0,0l0,0l0,0l0,0l-0.1,0c-1,0-1.9,0-3,0h-0.4l0,0h0c-0.6,0,0.1-0.5-0.9-0.8l-0.1,0
		l-0.2,0l-0.2,0h-0.3l-0.1,0l-0.1,0h0l0,0l0,0l0,0l0,0c-0.1-0.2-0.3-0.4-0.4-0.6l0,0l0,0l0,0l0,0L11,32h-0.1c-0.4,0.1-0.2,0.2-0.5,0
		l-0.1,0l-0.1,0c-0.3-0.1-0.5-0.1-0.8,0l-0.1,0l-0.1,0l0,0H9.2l0,0l-0.1,0l0,0l0,0l0,0l0,0l0,0l0,0l-0.1,0c-0.1-0.1-0.5,0-0.7,0.1
		l0,0l0,0l0,0h0l0,0l0,0l0,0l0,0c-0.3-0.2-0.7-0.5-0.9-0.7L6.8,31l-0.1-0.1c-0.4-0.4-0.8-0.7-1-1.2l-0.1-0.1l-0.1-0.3
		c-0.4-1.4,0-3,0.8-4.2l0.1-0.2l0.3-0.4l0.1-0.2l0.1-0.2c1.3-1.6,3.4-3,5.2-3.9l0.2-0.1l0.2-0.1c2.6-1.4,4.8-2.2,7.6-2.8l0.3-0.1
		l0.3-0.1l0.3-0.1l0.3-0.1l0.3,0l0.3,0c1.8-0.3,4.1-0.6,5.9-0.3l0.2,0l0.3,0c1.8,0.3,3.8,0.9,5.4,1.8l0.1,0.1l0.1,0l0.1,0.1l0.1,0.1
		c0.2,0.2,0.4,0.5,0.5,0.8l0.1,0.1l0.1,0.1c0.4,0.7,0.6,1.6,0.6,2.4v0.3l0,0.1c-0.1,1.2-0.8,2.2-1.4,3.2l-0.1,0.1l-0.1,0.2l-0.2,0.2
		l-0.3,0.4l-0.3,0.4l-0.1,0.2l-0.1,0.2l-0.1,0.2l-0.1,0.1l-0.1,0.1c-1,0.8-2.4,1.5-3.5,2.1l-0.3,0.2l-0.2,0.1
		c-0.3,0.2-0.7,0.3-1,0.5l-0.1,0l-0.1,0c-0.3,0.2-0.5,0-0.6,0.2l0,0.1l0,0.1l0,0.1l0,0.1l0,0l0,0l0,0l0,0h0l0,0h0l0.1,0l0,0l0.1,0
		l0.1,0l0.1-0.1c0.3-0.2,0.6-0.3,0.9-0.5l0.1-0.1l0.2-0.1l0.3-0.1c1.4-0.7,2.8-1.2,3.9-2.5l0.1-0.1l0.1-0.1l0-0.1l0.1-0.1l0.1-0.1
		l0.1-0.1c0.4-0.5,0.8-1,1.2-1.5l0.1-0.1l0.1-0.1c0.4-0.5,0.7-0.8,1-1.4l0.1-0.2l0.2-0.3l0.1-0.2c0.5-0.9,0-1.8,0.1-2.8l0,0l0,0l0,0
		h0c0.1,0,0.2,0.2,0.2,0.2l0,0.1l0,0.1c0.3,0.7,0.4,1.1,0.3,1.8v0.6l0,0.2l0,0.2c-0.1,0.6-0.4,1.2-0.7,1.7l-0.4,0.7
		c-0.4,0.7-0.5,1.1-1,1.7l-0.1,0.1l-0.1,0.1L34,28.4l-0.2,0.2l-0.2,0.2L33.6,29l-0.1,0.1l-0.1,0.1l-0.1,0.1c-1.1,1-2.4,1.8-3.8,2.5
		l-0.1,0.1L29.2,32l-0.3,0.2c-0.4,0.2-0.8,0.5-1.3,0.6l-0.1,0l-0.1,0l-0.1,0l-0.2,0l-0.1,0l-0.1,0l0,0l0,0l0,0v0.1l0,0.1l0,0.2
		l0,0.1l0,0.1c0,0.3,0.2,0.5,0.4,0.8l0.1,0.1l0.1,0.1c0.1,0.1,0.3,0.4,0.5,0.5h0.1l0,0c0.8-0.4,1.6-0.6,2.4-1.1l0.2-0.1l0.4-0.2
		l0.2-0.1l0.1-0.1l0.1-0.1c0.9-0.5,1.4-0.8,2.1-1.5l0.2-0.2l0.4-0.4c1.1-1,2-2.1,3-3.2l0.1-0.2l0.1-0.2l0.1-0.2l0.1-0.2
		c0.9-1.5,1.3-3.2,1.2-5l0-0.1l0-0.1c-0.1-1.6-0.8-2.5-1.5-3.9L37.2,18l-0.2-0.2l-0.2-0.2l-0.2-0.2L36.4,17l-0.2-0.2L36,16.7
		l-0.2-0.2l-0.2-0.2c-1.7-1-3.7-1.9-5.6-2.3l-0.2,0l-0.4,0c-2-0.3-3.6-0.5-5.6-0.3l-0.6,0l-0.3,0l-0.3,0l-0.3,0
		c-1.4,0.2-2.8,0.5-4.1,0.8l-0.3,0.1l-0.3,0.1c-0.7,0.2-1.4,0.4-2,0.7l-0.4,0.2l-0.4,0.2l-0.4,0.2c-2,0.9-3.9,2-5.8,3.2l-0.8,0.5
		l-0.2,0.2L7.3,20l-0.2,0.2c-3.1,2.7-5.5,4.5-5.1,9l0,0.3l0,0.2L2,30c0.2,1.1,1,3.1,1.8,4L3.9,34L4,34.1l0.1,0.1
		c0.5,0.4,0.9,0.7,1.3,1.1l0.1,0.1l0.1,0.1c0.1,0.1,0.4,0.3,0.5,0.5l0,0l0,0v0l0,0v0.2l0,0.1l0,0.2v0.2c0,0.5,0.1,0.6,0.2,1l0,0.1
		c0.1,0.5,0,0.9-0.1,1.4l0,0.2l0,0.2l0,0.2C6.1,41.1,5.6,42,5.5,43l0,0.1v0.1l0,0.1l0,0.1c-0.6,0.9-0.9,0.4-1.1,1.3l-0.1,0.3l0,0.1
		c-0.3,0.8-0.8,2-0.8,2.8l0,0.1v0l0,0.1l0,0.1l0,0l0.1,0.1c0.4,0.4,0.5,0.6,0.9,0.9l0.1,0.1l0,0.1c0.1,0.2,0.1,0.4,0.1,0.7l0,0.1
		v0.2c0.1,2.2-0.1,2.2,1.1,4.2l0.1,0.1l0,0.1l0.1,0.1l0,0.1c0.5,0.9,1.7,1,2.6,1.1l0.2,0l0.2,0c1.4,0.2,2.9-0.1,4.3-0.3l0.1,0l0.1,0
		h0.1l0,0h0v0l0,0v0c0.1,0.1,0.1,0.3,0.2,0.4l0,0.1l0.1,0.1c0.2,0.4,0.4,0.8,0.5,1.1l0.1,0.2l0.1,0.2l0.2,0.4
		c0.4,0.7,0.9,1.8,1.7,2.1l0.2,0.1l0.1,0l0.1,0.1c0.9,0.3,2.4,0.7,3.4,0.7h0.1l0.1,0c0.2,0,0.2-0.1,0.2-0.3l0-0.1l-0.1-0.1
		c-0.1-0.2-0.3-0.4-0.4-0.6L20.1,60l-0.2-0.2L19.8,59.7"/>
	<polyline class="st7" points="15.2,58.9 15.3,59 15.4,59.1 	"/>
	<polyline class="st0" points="23.4,25.3 23.6,25.8 33.4,25.8 33.4,25.1 23.4,25.3 	"/>
	<polyline class="st0" points="17.7,27.2 9.9,31.2 10,31.6 17.8,27.8 17.7,27.2 	"/>
	<polyline class="st0" points="21.4,22.4 20.8,22.5 21,17.9 21.6,17.9 21.4,22.4 	"/>
	<polyline class="st0" points="17.3,25.9 7.3,25.5 7.6,25 17.5,25.3 17.3,25.9 	"/>
	<path class="st0" d="M57.1,58.7l0.1,0h0.2l0.1,0c2.5,0.3,5-0.5,7.5-1l0.3-0.1l0.3-0.1l0.3-0.1c1.4-0.4,3-1.1,4.4-1.7l0.3-0.2
		l0.3-0.2c1-0.5,1.8-1,2.8-1.6l0.3-0.2l0.3-0.2l0.6-0.4l0.3-0.2l0.3-0.2c2.6-2,4.8-4.7,6-7.8l0.1-0.4l0.1-0.4l0-0.2
		c0.1-0.6,0.1-1.5,0.1-2.2l0-0.3v-0.3c0-0.5-0.1-1-0.2-1.6l0-0.2l-0.1-0.2L81.5,39c-0.4-1.3-1-2.7-1.6-3.9l-0.1-0.2l-0.1-0.1
		l-0.2-0.3l-0.2-0.3L79.3,34l-0.2-0.3l-0.2-0.3l-0.2-0.3c-0.8-1-1.6-2.2-2.7-3L75.9,30l-0.2-0.1c-1.1-0.8-2.2-1.6-3.4-2.2l-0.1-0.1
		l-0.1-0.1L72,27.5l-0.2-0.1c-1.1-0.5-2.2-1-3.4-1.3l-0.3-0.1L67.9,26c-1-0.2-1.9-0.5-2.9-0.7l-0.3-0.1l-0.3,0l-0.2,0l-0.2,0l-0.2,0
		c-3-0.3-5.8-0.6-8.7-1.2l-0.5-0.1l-0.3,0c-1.5-0.3-2.9-0.5-4.4-0.8L50,23l-0.1,0l-0.1,0c-0.2,0-0.3-0.1-0.5-0.1l-0.1,0l-0.1,0
		c-0.1,0-0.3,0-0.4-0.1l0,0l0,0v0l0,0l0,0l0,0h0c3.5-0.4,7-0.7,10.6-1.1l0.5-0.1l0.5,0c1.9-0.2,3.9-0.3,5.8-0.4l0.2,0l0.1,0
		c2.5,0,5.2,0.1,7.7,0.6l0.4,0.1l0.4,0.1l0.4,0.1l0.4,0.1l0.4,0.1l0.4,0.1c2.9,0.8,5.6,2.2,8.2,3.7l0.4,0.2c2,1.3,4.2,3.2,5.8,4.9
		l0.7,0.8l0.3,0.4l0.3,0.4c1.8,2.4,3.3,5,4.6,7.6l0.1,0.3l0.1,0.2c0.8,1.9,1.4,4,1.8,6l0,0.2l0,0.2l0,0.2l0.1,0.5l0.1,0.3l0.1,0.6
		c0.3,1.7,0.4,4.2-0.1,5.9L99.1,55L99,55.3c-0.4,1.1-0.9,2.8-1.5,3.8l0,0.1l0,0.1l-0.1,0.1l0,0l-0.1,0l0,0l0,0l0,0l-0.1,0l-0.1,0
		l-0.1-0.1l0,0l0-0.1c-0.1-0.2,0.2-0.3,0.2-0.5l0-0.1l0.1-0.1l0.1-0.1c0.7-1.4,1.3-2.9,1.6-4.5l0-0.3l0-0.2l0-0.2v-0.2l0-0.1v-0.1
		c0.1-2-0.1-4.4-0.6-6.3L98.1,46c-0.6-2.2-1.3-3.7-2.2-5.7l-0.1-0.1L95.8,40l-0.1-0.3l-0.1-0.3c-1.1-2.6-2.4-4.6-4.1-6.7l-0.2-0.2
		L90.8,32c-1.6-1.8-3.5-3.3-5.5-4.7L84.8,27l-0.5-0.3l-0.5-0.3l-0.5-0.3l-0.9-0.5L82,25.4l-0.9-0.5l-0.5-0.2c-3-1.4-5.9-2.3-9.2-2.6
		l-0.3,0l-0.4,0c-2.3-0.2-5.1-0.4-7.4-0.2l-0.2,0l-0.3,0l-0.3,0l-0.3,0c-2.3,0.2-4.7,0.5-7,0.6h-0.1l-0.3,0l-0.3,0
		c-0.5,0-1.1,0.1-1.6,0.1l-0.1,0h-0.1l-0.1,0h-0.1l0,0h-0.1l0,0h0l0,0v0l0,0l0,0h0l0,0c3.3,0.3,6.6,0.7,9.8,1.4l0.5,0.1l0.3,0.1
		l0.3,0.1c2.1,0.5,4.3,0.6,6.4,1.3l0.4,0.1l0.4,0.1c1.9,0.7,3.7,1.7,5.2,3l0.6,0.5L77,30l0.2,0.2l0.2,0.2l0.2,0.2
		c1.4,1.8,2.7,3.6,3.6,5.7l0.1,0.3l0.1,0.3l0.1,0.3c0.2,0.7,0.5,1.5,0.7,2.3l0,0.3l0,0.3c0.1,0.8,0.1,1.7,0.1,2.6v0.7l0,0.2l0,0.2
		l0,0.2c-0.3,1.4-1.2,2.8-2,4l-0.1,0.2L80,48.4c-1,1.7-2.5,3.4-4,4.5L75.9,53l-0.1,0.1l-0.1,0.1l-0.1,0.1l-0.1,0.1l-0.1,0
		c-1.5,1.1-3.1,2.1-4.9,2.9l-0.2,0.1l-0.2,0.1c-2,0.9-3.7,1.5-5.9,2l-0.1,0l-0.1,0l-0.1,0l-0.2,0.1c-1.9,0.4-3.8,0.8-5.8,0.8h-0.1
		l-0.1,0h-0.1c-0.2,0-0.5,0.1-0.7,0.1l-0.1,0c-0.1,0-0.3-0.2-0.2-0.3l0,0l0-0.1l0.1-0.1l0.1-0.1l0.1,0l0.1,0L57.1,58.7"/>
	<path class="st6" d="M6.6,33l-0.2-0.2c-0.8-0.7-1.1-1.2-1.5-2.2l0-0.1l0-0.1l0-0.1l0-0.1l0-0.1v0l0,0l0,0h0l0,0l0,0
		c0.2,0.1,0.3,0.3,0.5,0.4l0.1,0.1l0.1,0.1L5.8,31l0.1,0.1L6,31.2l0.1,0.1c0.2,0.2,0.4,0.4,0.7,0.6L6.8,32l0.1,0
		c0.1,0.1,0.3,0.1,0.4,0.2l0.1,0.1l0,0v0.1l0,0.1l0,0l-0.1,0.1l-0.1,0.1L7,32.7l-0.1,0.2L6.8,33l0,0l0,0l0,0h0L6.6,33L6.6,33L6.6,33
		"/>
	<polyline class="st8" points="29,67.8 29,70.2 29.6,70.2 29.6,74.9 	"/>
	<polyline class="st8" points="31.5,68.1 31.5,65.5 29.6,65.1 29.6,67.8 	"/>
	<path class="st6" d="M26.5,31.3L26.5,31.3c-0.2,0.3,0,0.4,0.1,0.6l0.1,0.1l0,0.1c0.2,0.2,0.2,0.5,0.3,0.8l0,0.1l0,0.1h0l0.1,0
		l0.1,0c1-0.3,1.9-0.9,2.8-1.4l0.1-0.1l0.1-0.1c1.3-0.8,2.5-1.5,3.6-2.7l0.2-0.2l0.2-0.2l0.1-0.1l0.1-0.1l0.1-0.1
		c0.5-0.5,0.6-1,1-1.6l0.4-0.7c0.3-0.5,0.5-1,0.6-1.5l0.1-0.2l0-0.2l0-0.2v-0.2c0-0.7,0-1.2-0.2-1.9l-0.1-0.2l0-0.1
		c0-0.1-0.1-0.3-0.2-0.4l0,0h0l0,0l0,0l0,0c-0.1,0.8,0.4,1.5,0,2.4l-0.1,0.2l-0.1,0.2l-0.1,0.2c-0.2,0.5-0.5,1-0.8,1.4l-0.2,0.2
		l-0.1,0.1c-0.4,0.6-0.8,1.1-1.3,1.6l-0.2,0.2L33,27.4L33,27.5l-0.1,0.1l-0.1,0.1c-0.7,0.9-1.6,1.5-2.7,2l-0.2,0.1l-0.2,0.1L29.4,30
		c-0.5,0.3-1.1,0.5-1.6,0.7l-0.1,0l-0.1,0c-0.3,0.2-0.6,0.4-0.9,0.4l0,0l-0.1,0H26.5L26.5,31.3L26.5,31.3"/>
	<path class="st6" d="M17.1,35.8L17.1,35.8c0-0.3,0.1-0.4-0.1-0.6l0,0l0,0c-0.1-0.2,0-0.8,0-1l0-0.1l0-0.1l-0.1,0h-0.1l-0.1,0
		c-0.8,0-1.5,0.1-2.3,0l-0.2,0H14l-0.1,0c-0.2,0-0.3,0-0.5,0l0,0l0,0l0,0v0.8c0.1,0.9-0.3,0.9,0.7,1l0.1,0l0.1,0
		c0.9,0.1,1.9,0.1,2.8,0.1H17.1"/>
	<path class="st6" d="M33.5,45L33.5,45L33.5,45l0.1,0.2l0.1,0.1l0.1,0.1c0.9,1.1,1.6,2.4,2.3,3.7l0.1,0.3l0.1,0.2l0.1,0.2
		c0.3,0.7,0.6,1.3,0.9,2l0.1,0.4c0.2,0.6,0.3,1.2,0.5,1.8l0,0.1l0,0.1l0,0.1l0,0.1l0,0.1l0,0l0,0h0l0,0l0,0l0,0l0-0.1l0-0.1
		c0-0.2,0.4-0.7,0.5-0.9l0.1-0.1l0.2-0.2c0.4-0.3,0.3-0.3,0.8-0.4l0.1,0l0.1,0h0l0,0l0.1,0l0.1,0l0.1,0l0,0l0,0l0,0v0l0,0l-0.1,0
		c-0.5,0.3-1.2,1.3-1.5,1.8l0,0.1l-0.1,0.2l0,0.2c-0.1,0.1,0,0.3-0.1,0.3l0,0l0,0c-0.1,0.1-0.1,0.2,0,0.3l0,0l0,0l0,0l0,0l0,0
		c0.5,0.3,1.1,1,1.4,1.5l0.1,0.1l0.1,0.1l0.1,0.1c0.2,0.2,0.4,0.5,0.6,0.7l0,0l0,0c0.1,0.1,0.2,0,0.3,0l0.1,0l0,0l0,0l0,0v-0.1l0,0
		l0,0c-0.2-0.4-0.4-1.4-0.5-1.9l0-0.1l0-0.1c-0.1-0.6,0.2-1.6,0.6-2.1l0.1-0.1l0.1-0.1l0.1-0.1l0.2-0.1l0.2-0.1
		c0.2-0.1,0.4-0.2,0.7-0.3l0.1,0l0,0c0.1,0,0.3-0.1,0.3-0.2v0l0,0l0-0.1l0,0c-0.1-0.1-0.3-0.3-0.4-0.3l-0.1-0.1l-0.1,0
		c-0.3-0.1-0.5-0.2-0.8-0.2l-0.1,0l-0.1,0h0l0,0l0,0l0,0l0,0l0,0l0,0l0,0l0,0l0,0l0,0l-0.1-0.1c-0.2-0.3-0.3-0.5-0.5-0.8l-0.1-0.1
		L40.4,51l-0.1-0.1c-0.6-0.9-1.4-1.8-2-2.7l-0.1-0.1L38.1,48l-0.2-0.2l-0.2-0.1c-0.9-1-1.7-1.9-2.8-2.6L34.8,45l-0.1,0
		c-0.1,0-1.6-0.8-1.4-0.1l0,0l0,0L33.5,45L33.5,45L33.5,45"/>
	<path class="st0" d="M52.5,58L52.5,58l-0.1-0.2l-0.1-0.2c-0.3-0.5,0-0.7,0.4-0.4l0.1,0.1l0.1,0.1l0.1,0.1c0.1,0.1,0.4,0.2,0.5,0.3
		l0.1,0l0.1,0c0.1,0,0.2,0,0.3,0l0,0v0l0,0l0,0l0,0c-0.1,0-0.2,0-0.2-0.1l0,0l0,0c-0.1-0.1-0.3-0.3-0.4-0.4l0-0.1l0-0.1l0-0.1l0-0.1
		c-0.1-0.1-0.1-0.3-0.1-0.4v-0.1l0,0c0.1-0.1,0.1-0.3,0.3-0.4l0.1-0.1v0l0,0v0l0,0l0,0c-0.1-0.1-0.2,0-0.3,0l-0.1,0l-0.1,0.1
		c-0.1,0.1-0.2,0.2-0.3,0.4l0,0.1l0,0.1l0,0.1l0,0.1v0.2l0,0l0,0l0,0c-0.1,0-0.3,0-0.3,0.2l0,0l0,0l0,0v0.1l0,0c0,0.2,0,0.4,0,0.5
		l0,0.1l-0.1,0.1L51.6,58l0,0.1l0,0v0l0,0l0,0l0,0c0.2,0,0.3,0,0.5,0.1h0.3l0,0l0,0l0,0L52.5,58L52.5,58L52.5,58"/>
	<path class="st0" d="M54.6,55L54.6,55l0-0.1c0.1-0.6,0.2-1.2,0.2-1.8l0-0.1l0-0.1c0-0.2,0.5-0.7,0.6-0.4l0,0.1l0,0l0,0l0,0
		c-0.2,0.1-0.2,0.3-0.2,0.5v0.1l0,0.1c0,0.4,0,0.7-0.1,1.1l0,0.1l0,0.1l0,0.1c-0.1,0.6-0.1,1.4-0.4,1.9l0,0v0h0v0l0,0
		c0-0.2,0-0.5,0-0.7l0-0.1l0-0.1C54.6,55.5,54.6,55.2,54.6,55L54.6,55"/>
	<path class="st9" d="M82,48.6L82,48.6l0.2-0.2l0.1-0.1c0.3-0.3,2.4-2,2.9-1.3l0.1,0.1l0,0l0,0c0.3,0.2,0.9-0.3,1.1-0.4l0.2-0.1
		l0.1-0.1c0.4-0.2,0.7-0.3,1.1-0.4l0.1,0l0.1,0l0.3,0l0.5-0.1c1-0.2,2.4,0,3.4,0.2l0.1,0l0.1,0c0.9,0.6,0.8,2.1,0.3,2.9l-0.1,0.1
		l-0.3,0.3l-0.1,0.1c-0.5,0.4-1.1,1.1-1.7,1.3l-0.3,0.1l-0.5,0.2l-0.3,0.1L89,51.6l-0.1,0l-0.1,0l0,0l0,0h0l0,0l0,0l0,0l0,0l0,0l0,0
		c-0.1-0.5-0.3-1-0.6-1.4L87.9,50l-0.1-0.1c-0.3-0.3-0.8-0.6-1.2-0.8L86.4,49L86.3,49l-0.2-0.1l-0.4-0.1c-0.5-0.2-1.6-0.2-2.2,0
		l-0.1,0l-0.1,0l-0.1,0c-0.5,0.1-0.8,0.3-1.2,0.4h-0.1l0,0l0,0l0,0l0,0l0,0l0-0.1v-0.1l0-0.1l0,0l0,0l0,0L82,48.6"/>
	<path class="st2" d="M59.7,61.8L59.7,61.8l0.1,0l0.1,0l0.1,0c1-0.2,1.9-0.3,2.9-0.4l0.3,0l0.3-0.1c1.7-0.2,3.1-0.8,4.7-1.2l0.2-0.1
		l0.1,0l0.1,0l0.1,0c0.5-0.2,1.1-0.3,1.6-0.5l0.1-0.1l0.1-0.1c1.1-0.7,2.1-1.4,3.1-2.2l0.2-0.1l0.4-0.3l0.2-0.1l0.2-0.1
		c1.5-1.2,3-2.3,4.2-3.9l0.1-0.1l0,0l0-0.1c0.4-0.5,1.1-0.9,1.7-1.2l0.1-0.1l0.1,0L81,51l0.2-0.1l0.1,0l0.1,0l0.1,0l0,0l0,0l0,0l0,0
		l0,0v0l0,0h0l0,0h0l0,0l0,0l-0.1,0l0,0l0,0c-0.5,0.2-1,0.4-1.5,0.7l-0.1,0.1l-0.1,0.1c-0.2,0.1-0.5,0.1-0.6-0.2l0,0v0l0,0l0,0
		c0.3-0.5,1.1-0.9,1.6-1.2l0.1-0.1l0.1-0.1c0.5-0.3,1.4-0.4,2-0.5l0.2,0l0.2,0l0.2,0l0.2,0l0.2,0h0.3c1.1,0,1.6,0.2,2.6,0.8l0.2,0.1
		l0.1,0.1c0.4,0.3,0.7,1,0.8,1.4l0,0.1l0,0.1l0,0.2c0.2,1.2-0.4,1.9-1.3,2.6l0,0l0,0h0l0,0l0,0v0l0,0c0-0.1,0.1-0.5-0.1-0.6l0,0h0
		l0,0l0,0l0,0l0,0l0,0l0,0l0,0.1l0,0.1v0.1l0,0.2l0,0.1v0.1l0,0.1c0,0.3-0.2,0.5-0.4,0.6l-0.1,0.1l-0.1,0.1c-0.3,0.3-0.7,0.7-1,0.9
		l-0.1,0l-0.1,0.1l0,0.1l0,0.1l0,0c-0.1,0.2-0.2,0.2-0.5,0.2l0,0l0,0c-0.2,0.1-0.4,0.3-0.5,0.5l-0.2,0.2l-0.2,0.2L82.8,58l-0.2,0.2
		c-0.7,0.7-1.4,1.3-2.1,2l-0.1,0.2l-0.1,0.2c-0.2,0.2-0.6,0.7-0.8,0.9l0,0v0l-0.3,1l-3.1,1.9L74,65.2l-11.2,2l-0.4-0.5l-0.6-1.4
		l-0.5-0.9L59.7,61.8"/>
	<path class="st2" d="M80.5,61.3L80.5,61.3l0.2-0.2c0.4-0.6,1.1-1.4,1.9-1.4l0.1,0h0.1c0.8,0,1.7,0.1,2.4,0.5h0.1L85,60.6l-2.2,0.5
		L80.5,61.3"/>
	<path class="st9" d="M85.8,59.9L85.8,59.9L85.8,59.9L85.8,59.9l-0.1-0.1l0,0l-0.1,0l-0.1,0l-0.1,0l-0.2-0.1
		c-0.3-0.2-0.6-0.3-0.9-0.4l-0.2,0l-0.1,0L84,59l-0.1,0l-0.1,0l-0.2,0l-0.2,0l-0.2,0h-0.3l-0.1,0H83l0,0l0,0h0l0,0l0,0v0l0,0
		c0.6-0.4,1.2-0.7,1.8-1.1l0.2-0.1l0.2-0.1c1-0.4,2.2-1,3.2-1.1l0.2,0h0.4l0.2,0c0.5,0,1.6,0.2,1.8,0.7l0,0.1l0,0.1l0,0.1
		c0.1,0.2,0,0.5-0.1,0.7l-0.1,0.3l0,0.1l0,0.1l0,0.1l0,0v0l0,0l0,0l0,0l0.1,0L90,59.3l-1.1,0.1L85.8,59.9"/>
	<path class="st6" d="M20.2,26L20.2,26c-0.3,0.3-0.6,0.5-0.4,0.8l0,0l0,0h0c0.1,0,0.1-0.1,0.2-0.1l0.1,0l0.1-0.1
		c0.1,0,0.1-0.1,0.2-0.1h0v0l0,0l0,0l0,0l0,0c-0.2,0.1-0.4,0.3-0.3,0.5l0,0.1l0,0c0.2,0.1,0.5,0.1,0.7,0.1l0.1,0l0.1,0l0.1,0l0.1,0
		c0.2-0.1,0.6-0.2,0.8-0.4l0.1-0.1c0.1-0.1,0.2-0.3,0.1-0.5l0,0l0,0l0,0l-0.1,0h-0.1l0,0l0,0l0,0l0,0l0,0h0l0,0l0,0v0l0,0v0l0,0l0,0
		l0,0l0,0l0,0l0,0l0,0h-0.1l-0.1,0l-0.1,0l-0.1,0c-0.3,0-0.2-0.2-0.2-0.4l0-0.1l0-0.1c-0.1-0.2-0.3-0.4-0.4-0.5v-0.1l0,0l0,0l0-0.1
		l0.1-0.1l0-0.1l0,0c0.1-0.2,0.3-0.3,0.4-0.5l0,0v0c0-0.2-0.1-0.4-0.2-0.5l-0.1,0l0,0l-0.1,0c-0.8-0.1-1.4-0.1-1.9,0.6l0,0l0,0l0,0
		l0,0v0l0,0.1v0.2l0,0l0,0l0,0l0,0l0,0h0l0,0l0,0l0,0l0,0l0,0l0-0.1l0,0l0-0.1l0.1-0.1l0-0.1c0.3-0.5,0.8-0.3,1.3-0.4l0.1,0l0,0l0,0
		l0,0l0,0l0,0c-0.3,0-0.6,0-0.9,0l0,0l0,0l0,0c-0.1,0.1-0.2,0.2-0.2,0.3l-0.1,0.1l-0.1,0.1c-0.1,0.1-0.1,0.1-0.1,0.3v0l0,0l0,0l0,0
		l0,0c0.4,0.1,0.4,0,0.6,0.4l0,0.1l0.1,0.1l0,0.1c0,0.1,0.1,0.2,0.1,0.3v0.1C20.1,25.9,20.1,25.9,20.2,26L20.2,26L20.2,26L20.2,26
		L20.2,26L20.2,26L20.2,26"/>
	<path class="st0" d="M34.8,79.1L34.8,79.1l0,0.1l0,0.1l0,0.1l0,0.1c0.7,1,1.9,1.5,2.9,2.2l0.2,0.1l0.2,0.1c1.2,0.8,2.8,1.5,4.2,2.1
		l0.2,0.1l0.3,0.1l0.2,0.1c2.2,0.9,4.2,1.7,6.6,2.3l0.3,0.1l0.3,0.1c2.9,0.9,6,0.8,9,0.7l0.5,0l0.5,0l0.4,0l0.4,0l0.4,0l0.4,0
		c1.8-0.2,3.7-0.5,5.4-1.1l0.4-0.1c2.1-0.6,3.9-1.3,5.9-2.3l0.2-0.1l0.2-0.1l0.2-0.1l0.2-0.1c1.4-0.6,3-0.8,4.1-1.9l0.1-0.1l0-0.1
		c0.2-0.4-0.5,0.3-1.2-0.2l-0.1,0l0,0l-0.1,0l0,0L77,81h0l0,0c-0.1,0.1,0,0.2-0.2,0.3l0,0l-0.1,0c-0.3,0.2-0.6,0.3-1,0.5L75.5,82
		l-0.1,0l-0.1,0.1l-0.1,0.1c-0.7,0.4-1.4,0.7-2.1,1l-0.2,0.1l-0.4,0.2c-0.8,0.4-1.6,0.7-2.4,1l-0.2,0.1l-0.2,0.1l-0.2,0.1l-0.5,0.1
		c-2.2,0.7-4.4,1.2-6.7,1.6l-0.3,0l-0.3,0c-2.4,0.2-4.8,0.3-7.2,0.2l-0.6,0l-0.5,0l-0.3,0l-0.3,0l-0.3,0l-0.2,0
		c-1.5-0.3-3-0.7-4.5-1.2l-0.2-0.1l-0.2-0.1c-3.2-1-5.9-2-8.8-3.7l-0.2-0.1l-0.2-0.1l-0.2-0.1L38,81.1c-0.7-0.5-1.2-1-1.7-1.6l0,0
		l0,0c-0.2-0.5-0.8-1-1.3-0.5l0,0l0,0l0,0.1V79.1L34.8,79.1"/>
	<path class="st3" d="M57,59.4L57,59.4l0.2,0l0.2,0h0l0.1,0c2.3,0,4.3-0.4,6.5-0.9l0.1,0l0.1,0c2.5-0.5,5-1.5,7.3-2.6l0.3-0.2
		l0.6-0.3l0.3-0.2l0.3-0.2c1.7-1.1,3.7-2.5,5.1-4l0.3-0.3l0.3-0.3c0.8-0.8,1.3-1.8,1.9-2.7l0.2-0.3l0.2-0.4c0.3-0.6,0.7-1.2,0.9-1.8
		l0-0.1l0.1-0.2l0.1-0.2l0.1-0.2l0.1-0.2l0.1-0.2l0-0.2l0-0.2c0.1-1.1,0-2.5-0.1-3.6l0-0.3l0-0.3c-0.3-1.1-0.7-2.5-1.2-3.5l-0.2-0.3
		l-0.2-0.3L80.4,35l-0.2-0.3c-0.6-1-1.2-1.9-1.9-2.9l-0.2-0.2L78,31.4c-0.8-1.2-1.5-1.8-2.6-2.7l-0.2-0.1l-0.2-0.1l-0.4-0.3L74.5,28
		l-0.2-0.1c-2.8-1.8-5.7-2.5-8.9-3l-0.1,0l-0.1,0l-0.1,0c-1.1-0.2-2.2-0.5-3.3-0.7l-0.2,0l-0.2,0c-0.9-0.2-1.8-0.3-2.7-0.5l-0.3-0.1
		l-0.1,0l-0.2,0l-0.2,0l-0.2,0l-0.2,0l-0.2,0l-0.4,0l-0.4-0.1l-0.4,0c-1.1-0.1-2.2-0.2-3.3-0.3l-0.1,0h-0.1l-0.1,0l-0.1,0h-0.1l0,0
		h0l0,0h0l0,0l0,0v0l0,0h0l0,0h0c2.2-0.2,4.3-0.2,6.5-0.5l0.2,0l0.2,0l0.2,0l0.2,0l0.3,0c1.3-0.1,2.5-0.3,3.7-0.4l0.2,0l0.4,0
		c1.4,0,2.8,0,4.2,0.1l0.4,0l0.7,0.1l0.4,0c4.4,0.3,8.7,1.7,12.6,3.9l0.5,0.3l0.5,0.3l0.5,0.3l0.5,0.3l0.5,0.3l0.2,0.2
		c2.8,1.9,5,3.9,7,6.7l0.3,0.4l0.5,0.8c0.8,1.2,1.5,2.5,2.1,3.8l0.1,0.3l0.1,0.3c0.5,1.1,1,2.1,1.4,3.1l0.1,0.2l0.1,0.2l0.1,0.2
		l0.2,0.5c1,2.9,1.4,5.8,1.4,8.8l0,0.1V53l0,0.1c0,0.8-0.2,1.5-0.4,2.3l0,0.1l0,0.1c-0.3,0.9-0.8,2.1-1.3,3L97,58.7l0,0.1l0,0v0
		l-0.1,0c-0.7-0.7-1.6-1.1-2.7-1.1l-2.6,0.6l0-0.2l0-0.2l0-0.2l0-0.3c-0.2-1.1-0.8-1.4-1.8-1.7l-0.2,0l-0.2,0
		c-1.4-0.1-2.5,0-3.7,0.7l-0.1,0h0l0,0l0,0c0-0.1,0.1-0.2,0.2-0.3l0,0l0,0c0.5-0.4,1-0.9,1.4-1.4l0.2-0.2l0.1-0.1l0.2-0.2
		c0.3-0.3,0.5-0.8,0.7-1.2l0-0.1l0-0.1c0-0.2,0-0.2,0.3-0.3l0.1,0l0.1,0l0.1,0l0.1,0l0.2-0.1l0.1,0c1.6-0.5,1.9-0.7,3.2-1.9l0.1-0.2
		l0.1-0.2c0.6-0.7,1.4-2.7,0.9-3.6l-0.2-0.3l-0.1-0.1l-0.1-0.1c-0.5-0.7-2.3-0.8-3.1-0.8l-0.2,0h-0.2l-0.2,0c-0.7,0-1.3,0.2-2,0.3
		l-0.2,0l-0.2,0c-0.3,0.1-0.7,0.2-0.9,0.4l-0.1,0.1l-0.1,0.1l-0.1,0l-0.1,0.1l-0.1,0l-0.1,0l-0.1,0h-0.1l-0.1,0l-0.1,0
		c-0.3-0.1-0.2-0.3-0.4-0.3h0l-0.1,0c-0.5,0.1-1.1,0.4-1.6,0.6l-0.2,0.1L83.2,47l-0.3,0.2c-0.8,0.5-1.4,0.8-2,1.4l-0.1,0.1l-0.1,0.1
		c-0.4,0.3-0.4,0.6-0.6,0.9l0,0.1l-0.2,0.2L79.5,50l-0.2,0.1l-0.2,0.2c-0.2,0.2-0.5,0.5-0.7,0.8l-0.1,0.2l-0.1,0.2
		c-0.2,0.4-0.2,0.6-0.4,1l0,0.1l-0.1,0.1c-0.8,0.9-1.7,1.7-2.6,2.5L75,55.4l-0.2,0.2l-0.2,0.2l-0.2,0.2L74.2,56L74,56.2
		c-1.1,0.8-2,1.7-3.3,2.3l-0.1,0.1l-0.1,0.1c-1.3,0.6-2.7,0.9-4.1,1.4l-0.1,0L66,60.1l-0.2,0c-1.2,0.3-2.4,0.5-3.6,0.8L62,61L62,61
		l-0.1,0c-0.4,0.1-0.8,0.1-1.3,0.1h-0.3l-0.2,0H60l-0.2,0l-0.1,0l-0.1,0l-0.1,0h-0.1l-0.3-0.2l-0.3-0.2l-0.6-0.4L58,60l-0.3-0.2
		l-0.3-0.2L57,59.4"/>
	<path class="st6" d="M11.6,46.4L11.6,46.4L11.6,46.4L11.6,46.4c0.4-0.1,0.7-0.2,1.1-0.2h0.1l0.1,0c0.5,0.1,1.1,0.2,1.6,0.3l0.2,0
		l0.1,0l0.1,0c0.3,0.1,0.6,0.2,0.9,0.3l0.1,0c0.3,0.1,0.9,0.6,1,0.8l0.1,0.1L17,48l0.1,0.2l0.1,0.1c0.6,1.1,0.3,2.6-0.2,3.7
		l-0.1,0.2l-0.1,0.1l-0.1,0.1c-0.3,0.7-0.6,0.7-1.1,1.2l-0.1,0.1l-0.1,0c-0.3,0.2-0.6,0.4-0.9,0.5l-0.1,0.1l-0.1,0l-0.1,0.1
		l-0.2,0.1l-0.1,0l-0.1,0.1c-0.5,0.2-0.7,0.5-1.3,0.5h-0.3c-0.4,0-0.8-0.1-1.2,0l0,0l-0.1,0l-0.1,0l-0.1,0c-0.3,0.1-0.4,0-0.2-0.2
		l0.1-0.1l0.1-0.1c0.2-0.4,0.6-1.2,0.6-1.5l0-0.2l0-0.2v-0.5l0-0.2c0-0.4,0-0.9-0.1-1.3l0-0.1l0-0.1c-0.1-0.4,0-0.7-0.1-1.2l0-0.2
		l0-0.2l0-0.2l0-0.2c0-0.3-0.1-0.6,0.2-0.8l0.2-0.1l0.1,0l0-0.1l0-0.1l0-0.1v-0.1l0-0.1v-0.4l0-0.1v-0.1l0-0.1v-0.1L11.6,46.4
		L11.6,46.4"/>
	<path class="st6" d="M6.5,54.7L6.5,54.7l0.2,0.1l0.1,0.1l0.1,0.1c0.4,0.3,1.2,0.3,1.7,0.4h0.1l0.1,0c0.6,0.1,1-0.5,1.4-1l0.1-0.1
		l0.1-0.1l0.1-0.1l0-0.1c0.3-0.7,0.5-1.8,0.5-2.6l0-0.2V51c-0.1-0.8-0.3-1.2-0.2-2v-0.3c0-0.5-0.6-0.4-0.9-0.6l0,0l0,0v0l0,0l0,0
		l0,0l0.1,0l0.1,0l0.1,0l0.1,0l0.1,0c0.1-0.1,0.2-0.1,0.3-0.2l0-0.1l0.1-0.1l0.1-0.1l0.1-0.1l0.1,0l0.1-0.1l0-0.1l0,0l0-0.1v-0.1
		c0-0.2-0.1-0.3-0.1-0.5l0-0.1l0-0.1l0-0.1V46c-0.1-0.3,0-0.2-0.1-0.5l-0.1-0.1c-0.1-0.2,0-0.3-0.2-0.4l0-0.1l0,0l0,0h0l0,0l0,0l0,0
		l0,0c-0.1,0.3-0.8,0.9-1.1,1.1l-0.1,0.1L9,46.2c-1,0.5-1.1,0.4-2.2,0.2l-0.1,0l-0.1,0l-0.1,0l-0.1,0l-0.1,0C6.1,46.1,6,46,5.8,45.8
		l-0.2-0.2l-0.1-0.1l0,0l-0.1-0.1l0,0l0,0l0,0l-0.1,0l0,0l0,0l0-0.1v-0.1l0-0.1l0,0l0,0l0,0l0,0l0,0l0,0l0,0v0l0,0v0l0-0.1l0-0.1
		l0-0.1l0,0l0,0l0,0H5.1c-0.5,0-0.4,0.1-0.5,0.6l0,0.1l0,0.1c-0.2,0.6-0.4,1.2-0.5,1.8l0,0.1l0,0.2v0.2c0,0.2,0,0.2,0.1,0.3l0.2,0.3
		c0.1,0.2,0.3,0.4,0.5,0.5l0.1,0.1l0.1,0.1L5,48.9c0.4,0.5,0.6,0.2,0.5,0.9v0.1l0,0v0l0,0l0,0l0,0c-0.2,0-0.2,0.1-0.2,0.3v0l0,0.1
		c0,0.5,0,0.8,0.1,1.3l0,0.1l0,0.2l0,0.1l0,0.1c0.2,0.5,0.3,0.8,0.5,1.4l0,0.1l0,0.1c0.1,0.2,0.3,0.7,0.4,0.8l0,0L6.5,54.7L6.5,54.7
		"/>
	<path class="st1" d="M6.1,43.5L6.1,43.5l0,0.1l0,0.3c0,0.4-0.1,0.7-0.2,1.1l0,0.1v0.1c-0.1,0.3,0.1,0.5,0.4,0.6l0.1,0.1l0.1,0
		l0.1,0.1l0.1,0C7,46.2,7.6,46,8,46l0.1,0l0.1,0c0.4-0.2,0.9-0.4,1.3-0.6l0.1-0.1l0.1-0.1l0.1-0.1L9.7,45l0.1-0.1l0.1-0.1
		c0.2-0.4,0.3-0.2,0.3-0.7l0-0.2l0-0.2c0-0.7-0.1-0.7,0.1-1.5l0-0.1l0-0.1c0.3-1,0.3-1.7,0.5-2.7v-0.1h0l0,0h-0.2l-0.1,0h-0.1
		l-0.2,0h-0.1l-0.1,0H9.9l0,0h0l0,0l0,0H10c0.2,0,0.3,0,0.4,0h0.2l0,0h0l0,0h0l0,0l0,0l0,0l0,0l0,0c0.1-0.1,0.2,0,0.3-0.1l0.1,0
		l0.1,0c0.2-0.1,0.5-0.4,0.7-0.6l0.1-0.1l0.1-0.1l0.1-0.1l0.1-0.1c0.5-0.5,0.4-0.8,0.5-1.5l0.1-0.6l0-0.1c0-0.3,0-0.6,0-1v-0.2
		c0-0.2,0-0.1-0.1-0.3l-0.1-0.1l-0.1,0l0,0l0,0l0,0c-0.5-0.1-0.6,0-0.8,0.5l0,0.2l0,0.1l0,0.1c0,0.2,0,0.4,0,0.6l0,0.1v0l0,0.1
		l0,0.1v0.1l0,0l0,0l0,0l-0.1,0l-0.1,0l-0.1,0c-0.6,0-0.8,0.1-1.3,0.4l-0.1,0l-0.1,0c-0.4,0.1-1,0.2-1.2,0.7l0,0l0,0l0,0l0,0h0l0,0
		v0l0,0l0-0.1v-0.3l0,0v-0.1l0,0l0,0l0,0l-0.1,0l-0.1,0l0,0c-0.2-0.1-0.7-0.3-0.9-0.5l0,0l0,0l0,0l0,0c-0.4-0.2-0.5-0.1-0.6,0.3
		l0,0.1l0,0.1c0,0.5,0,0.8,0.2,1.3l0,0.1l0.1,0.1l0,0l0,0l0.1,0l0.1,0l0,0v0.1c0,0.1-0.1,0.1-0.2,0.1l0,0l0,0h0l0,0v0l0,0v0l0,0v0
		c0,0.1,0,0.3,0,0.5l0,0.3l0,0.3l0,0.3l0,0.2c-0.2,1.2-0.8,2.2-0.7,3.4L6.1,43.5L6.1,43.5L6.1,43.5"/>
	<path class="st1" d="M7.2,33.4L7.2,33.4l0.1,0.2c0.1,0.2,0.3,0.4,0.5,0.1l0-0.1l0-0.1c0.2-0.3,0.5-0.8,0.7-1.1l0,0v-0.1
		c0-0.2-0.3-0.3-0.5-0.2L8,32.3l0,0c-0.3,0.3-0.7,0.5-0.7,1l0,0.1V33.4L7.2,33.4"/>
	<path class="st1" d="M7.9,34.2L7.9,34.2L7.9,34.2L8,34c0.2-0.4,0.4-0.8,0.6-1.1l0.1-0.1l0.1-0.1c0.1-0.2,0.3-0.4,0.6-0.4h0.1l0.1,0
		l0.1,0c0.2,0.1,0.1,0.3,0.1,0.5l-0.1,0.1c-0.2,0.3-0.4,0.5-0.5,0.9l0,0v0h0.1c0.2-0.1,0.3-0.4,0.5-0.6l0.1-0.1L10,33
		c0.3-0.3,0.3-0.3,0.7-0.3l0.1,0l0.1,0l0.1,0l0,0l0,0l0,0l0,0.1l0,0.1l0,0.1v0.1l0,0.1l0,0.1l0,0.1l0,0l0,0
		c-0.2,0.2-0.3,0.4-0.4,0.6v0l0,0l0.1,0l0.1-0.1c0.1-0.1,0.3-0.3,0.4-0.4l0.1,0l0.1,0c0.1-0.1,0.2-0.2,0.3-0.3l0,0l0.1,0l0,0
		c0.4-0.1,0.9,0,1.1,0.4l0,0l0,0.1v0c0,0.1-0.1,0-0.2,0h-0.1c-0.2,0-0.4-0.1-0.5,0l-0.1,0l-0.1,0.1L11.8,34
		c-0.6,0.5-0.5,0.4-0.6,1.2l0,0.1l-0.1,0.1l-0.1,0.1l-0.1,0l0,0l-0.1,0l0,0l-0.1,0.1l0,0l-0.1,0l0,0c-0.1-0.1-0.2-0.1-0.4-0.3l0,0
		l0-0.1l0,0l0,0l0,0l0,0l0,0h0l0,0l0,0l0,0c-0.1,0.1-0.3,0.2-0.4,0.2h0l0,0H9.3l-0.1,0H9.1l-0.1,0l-0.1,0l0,0l0,0l0,0L8.7,35
		c-0.1-0.1-0.1-0.2-0.2-0.3l0,0v0l0,0h0c-0.2,0-0.1,0.1-0.3,0l-0.1,0l-0.1,0c-0.2-0.1-0.1-0.2-0.2-0.3v0L7.9,34.2L7.9,34.2L7.9,34.2
		L7.9,34.2"/>
	<path class="st3" d="M14,55.4L14,55.4L14,55.4l0.2-0.2l0.1-0.1l0.1-0.1l0.1-0.1l0,0l0,0l0,0l0.1,0c0,0,0.1,0,0.1,0l0,0l0,0l0,0.1
		c0.2,0.3,0.4,0.6,0.6,0.9l0.1,0.1l0.2,0.2l0.2,0.3c0.4,0.6,0.9,1.2,1.3,1.8l0,0.1l0,0c0.3,0.4,0.8,0.8,1.1,1.2l0.1,0.1l0,0l0,0l0,0
		v0l0,0h-0.1l-0.1,0l-0.1,0l-0.1,0c-0.2,0-0.4-0.1-0.5-0.1l-0.5-0.1l-0.3,0c-0.6-0.1-1,0.1-1.3-0.5l0-0.1l-0.1-0.1l0-0.1
		c-0.3-0.5-0.6-1.1-0.8-1.7l0-0.1l0-0.1c-0.2-0.5-0.5-1-0.6-1.5L14,55.4L14,55.4L14,55.4"/>
	<polyline class="st10" points="25.2,32 25.2,32 25.2,32 	"/>
	<line class="st10" x1="21.2" y1="33.1" x2="21.2" y2="33.1"/>
	<path class="st9" d="M17.9,36.9l-0.1-0.4v0l0-0.1l0-0.1l0-0.1l-0.1-0.1l0-0.1l0,0l0,0l0-0.1c0-0.1-0.1-0.3-0.1-0.4l0-0.2v-0.1
		c0-0.6,0-1.3,0-1.9l0-0.1V33l0-0.1l0-0.2c0-0.6,0.5-1.1,0.8-1.5l0.1-0.2c0.4-0.4,1-1,1.5-1.4l0.1-0.1l0.1-0.1l0.1-0.1l0.1-0.1
		l0.1-0.1l0.1-0.1c0.6-0.5,0.8-0.8,1.6-1.1l0.1-0.1l0.1,0c0.5-0.3,1.1-0.3,1.7-0.4l0.1,0l0.2,0l0.1,0c0.4,0.1,0.9,0.4,0.9,0.8l0,0.1
		l0,0.1c0,0.4,0.5,0.5,0.5,1v0.1l0,0.1l0,0.1v0.1l0,0.2v0.1c0,0.3,0.1,0.8-0.3,0.4l0-0.1l-0.1-0.1c-0.1-0.1-0.2-0.1-0.3-0.1l0,0
		l-0.1,0c-0.2,0.1-0.2,0.2-0.3,0.3l-0.1,0l0,0l0,0l-0.1,0l-0.1,0c-0.5,0-0.9,0.2-1.4,0.2l-0.1,0l-0.1,0c-0.5,0.1-1,0-1.6,0.2
		l-0.2,0.1l-0.2,0.1L21,31.6l-0.1,0.1l-0.1,0.1l-0.1,0.1c-0.4,0.4-0.7,0.9-1.1,1.3l-0.1,0.1l0,0.1c-0.4,0.6-0.6,1-0.7,1.7V35l0,0.2
		v0.2l0,0.1c0,0.4,0.1,0.9,0.2,1.2v0.1l0,0.1l0,0.1l0,0l0,0l-0.1,0l-0.1,0l-0.1,0l-0.1,0l-0.2,0h-0.2l-0.1,0H18L18,37l0,0l0,0
		L17.9,36.9L17.9,36.9L17.9,36.9"/>
	<path class="st11" d="M23.4,38.2L23.4,38.2l0.1,0.1c0.8,1,3,1,3.5-0.4l0-0.1l0-0.1l0-0.1l0-0.1v-0.1l0,0h0l0,0l0,0
		c-0.1,0-0.2,0.1-0.2,0.1l-0.1,0l-0.1,0l0,0c-0.2,0.1-0.4,0.2-0.6,0.2l-0.1,0l-0.1,0l-0.1,0l-0.1,0c-0.4,0-0.8,0-1.3,0h-0.4l-0.1,0
		h-0.4l0,0l0,0l0,0L23.4,38.2L23.4,38.2"/>
	<path class="st0" d="M27,39.2L27,39.2l-0.1,0.1c-0.3,0.2-0.5,0.4-0.8,0.5l-0.1,0l-0.1,0l-0.1,0c-0.1,0-0.3,0.1-0.4,0.1l0,0h0l0,0h0
		l0,0l0,0v0.1l0,0l0,0l0,0l0,0c0.2,0,0.8,0,1-0.1l0.1,0l0.1,0C26.6,39.9,27,39.4,27,39.2L27,39.2L27,39.2L27,39.2L27,39.2L27,39.2"
		/>
	<path class="st0" d="M25.4,33.7L25.4,33.7l0-0.1c0-0.2,0.1-0.3,0.3-0.4l0.1,0l0.1,0c0.2,0,0.4-0.1,0.6,0l0,0l0,0l0,0l0,0
		c-0.2,0-0.4,0.1-0.6,0.1l-0.1,0l-0.1,0.1l0,0l0,0l0,0l0,0l0,0l0,0L25.4,33.7L25.4,33.7L25.4,33.7L25.4,33.7L25.4,33.7"/>
	<path class="st0" d="M20.6,34.3L20.6,34.3L20.6,34.3L20.6,34.3c0.4-0.5,1-0.9,1.5-1l0.1,0l0,0c0.5-0.1,0.6,0.2,0.6-0.5l0-0.1l0,0
		l0,0l-0.1,0c-0.7-0.1-0.8-0.1-1.4,0.4L21.2,33L21.1,33C20.8,33.4,20.6,33.7,20.6,34.3L20.6,34.3L20.6,34.3L20.6,34.3L20.6,34.3"/>
	<path class="st0" d="M21.3,35.2L21.3,35.2L21.3,35.2l0-0.1c0.1-0.3,0.4-0.6,0.6-0.8l0.1,0l0.1,0l0.1,0l0.1,0l0.1,0l0.1,0l0.1,0h0.1
		l0.1,0l0,0l0,0l0,0v0l0,0l0,0.1l0,0l-0.1,0l-0.1,0l-0.1,0l-0.1,0l-0.1,0l-0.1,0l-0.1,0l-0.1,0l-0.1,0l-0.1,0.1l-0.1,0.1L21.7,35
		l-0.1,0.1l0,0l0,0l0,0l0,0h0l0,0h0L21.3,35.2L21.3,35.2L21.3,35.2"/>
	<path class="st9" d="M21.2,33.1L21.2,33.1L21.2,33.1L21.2,33.1c0.3-0.2,0.6-0.4,1-0.4l0.1,0h0l0,0c0.1,0,0.2,0,0.2,0.1v0.1
		c0,0.1,0,0.2-0.1,0.2l0,0h-0.2l-0.1,0c-0.3,0.1-0.4,0.1-0.6,0.3l-0.1,0l0,0l-0.1,0l-0.1,0.1l0,0l0,0l0,0l0,0l-0.1,0l0,0h-0.1l0,0
		l0,0v0l0,0v0l0,0l0,0c0-0.1,0.1-0.3,0.2-0.3l0,0L21.2,33.1L21.2,33.1"/>
	<path class="st9" d="M25.4,32.4L25.4,32.4L25.4,32.4l0.1-0.1c0.2-0.1,0.4-0.2,0.6-0.2l0,0l0,0c0.4-0.2,0-0.5-0.3-0.4l-0.1,0l-0.1,0
		l-0.1,0l-0.1,0c-0.2,0.1-0.6,0.3-0.7,0.5l0,0l0,0c-0.1,0.2,0.2,0.4,0.4,0.2L25.4,32.4L25.4,32.4"/>
	<path class="st3" d="M27.5,46.6L27.5,46.6L27.5,46.6L27.5,46.6c1,0,2.2-0.3,2.9-0.7l0.1,0l0.2-0.1c0.6-0.3,1.5-0.7,1.9-1.2l0,0
		l0-0.1l0.1-0.1l0-0.1l0-0.1c0-0.1,0-0.3-0.1-0.4l-0.1-0.1c-0.3-0.2-0.5-0.3-0.9-0.4l-0.1,0l-0.1,0l-0.1,0c-0.9-0.3-1.6-0.3-2.5-0.2
		h-0.1l0,0h0l-0.1,0.1c-0.2,0.2-0.3,1-0.4,1.3l0,0.1l-0.1,0.2L28.1,45c-0.1,0.2-0.2,0.5-0.3,0.7l-0.1,0.1l0,0.1
		c-0.1,0.2-0.1,0.4-0.2,0.5V46.6"/>
	<path class="st3" d="M20.5,44.3L20.5,44.3L20.5,44.3l0.1,0.1h0v0l0,0l0,0.1l0,0.1l0,0.1c0.1,0.2,0.3,0.4,0.5,0.6l0.1,0.1l0.1,0.1
		c0.2,0.2,0.3,0.3,0.6,0.5l0.3,0.2l0.1,0.1c0.6,0.3,1.3,0.6,1.9,0.8l0,0l0.1,0l0.1,0l0,0c0.1,0.1,0.2,0.2,0.2,0.3v0l0,0
		c-0.1,0.1-0.2,0.1-0.4,0.2l-0.1,0l-0.1,0l-0.1,0c-1.3,0.2-2.7,0.4-4,0.1l-0.3-0.1l-0.3-0.1l-0.6-0.2l-0.1-0.1l-0.1-0.1
		c-1-0.5-1.8-1.2-2.9-1.3l-0.1,0l-0.1,0l-0.2,0c-0.5-0.1-1-0.1-1.5-0.2l-0.1,0l-0.1,0c-0.2,0-0.2,0-0.3-0.2l0,0l0,0l0,0v-0.1l0-0.1
		l0-0.1c0.2-0.3,0.4-0.3,0.7-0.4l0.1-0.1l0.2,0c0.5-0.1,1-0.4,1.5-0.5l0.3-0.1l0.2,0l0.2,0c1.4-0.3,2.1,0.3,3.6,0.2h0.1l0.1,0l0.1,0
		L20.5,44.3"/>
	<path class="st9" d="M23.2,37.6L23.2,37.6L23.2,37.6l0-0.1l0,0c0.2-0.2,0.5-0.2,0.8-0.4l0.1,0l0.1,0c0.3,0,0.6-0.2,0.9-0.3h0.2
		l0.1,0c0.9,0,0.9-0.8,1.7-0.5l0,0l0,0l0,0l0.1,0.1l0,0l0,0.1l0,0l0,0.1v0.1l0,0l0,0l-0.1,0.1L27.2,37c-0.3,0.2-0.6,0.4-1,0.5
		l-0.2,0l-0.2,0.1l-0.2,0l-0.2,0c-0.5,0.1-0.9,0.1-1.4,0.1h-0.3C23.7,37.8,23.3,37.8,23.2,37.6L23.2,37.6L23.2,37.6"/>
	<path class="st12" d="M25.6,33.5L25.6,33.5l0.1,0.2l0,0l0,0l0,0h0l0,0h0l0,0h0l0,0l0,0l0,0l0-0.1v0c0-0.1,0-0.1,0-0.2l0,0l0,0l0,0
		h0l0,0h0l0,0h0l0,0h0l0,0l0,0l0,0L25.6,33.5L25.6,33.5L25.6,33.5L25.6,33.5L25.6,33.5L25.6,33.5L25.6,33.5L25.6,33.5L25.6,33.5
		L25.6,33.5"/>
	<path class="st12" d="M21.9,35L21.9,35L21.9,35L21.9,35c0.2,0.1,0.3,0.1,0.3,0l0,0l0,0c0-0.1,0.1-0.1,0-0.2l0,0l0,0l0,0
		c-0.1,0-0.1,0-0.2,0.1l0,0C21.9,34.8,21.9,34.9,21.9,35L21.9,35L21.9,35L21.9,35"/>
	<path class="st13" d="M91,83.6l0.2,0l0.2,0c2.7,0.3,6.6-0.3,7-3.7l0-0.1l0-0.1l0-0.3l0-0.3V62.4l0-0.2l0-0.2l0-0.2l0-0.2l0-0.2
		l-0.1-0.4l-0.1-0.3L98,60.6c-0.2-0.4-0.4-0.8-0.7-1.3l-0.1-0.2L97.1,59l-0.1-0.2c-0.7-0.7-1.5-1.2-2.5-1.2l-0.2,0h-0.1l-31.4,7.7
		L62.5,65c-5-9.4-18.4-9.4-23.4,0l-0.2,0.4L7.5,57.6H7.3l-0.2,0c-0.9,0-1.8,0.5-2.5,1.2L4.6,59l-0.1,0.2l-0.1,0.2
		c-0.2,0.4-0.5,0.8-0.7,1.3l-0.2,0.6l-0.1,0.4l0,0.2l0,0.2l0,0.4l0,0.2v16.7l0,0.3l0,0.3l0,0.1l0,0.1c0.4,3.4,4.5,4,7.2,3.7l0.2,0
		l29.2-5.2l0.2,0.3c5.3,7.4,16.2,7.4,21.5,0l0.2-0.3L91,83.6"/>
	<path class="st14" d="M63.2,66.4l-1.1,0.4L62,66.4c-4.3-9.8-17.8-9.9-22.2-0.1l-0.2,0.4l-1.1-0.3L7.3,58.8H7.3
		c-0.8,0-1.8,0.7-2.2,1.4l0,0.1l0,0.1l0,0.1c-0.2,0.3-0.3,0.6-0.4,0.9l0,0.1l0,0.2l0,0.1l0,0.2l0,0.3l0,0.2v16.8l0,0.1l0,0.1v0.1
		l0,0.1l0,0.1c0.2,1.2,0.9,2,2.1,2.4l0.3,0.1L7,82.4c1.1,0.2,2.2,0.4,3.3,0.2l0.2,0l28.7-5.1l1.2-0.2l0.2,0.3
		c4.8,7.6,15.7,7.6,20.5,0l0.2-0.3l1.2,0.2l28.7,5.1l0.2,0c1.1,0.2,2.1,0.1,3.2-0.2l0.1,0l0.2-0.1c1.2-0.3,2.1-1,2.3-2.3l0-0.2
		l0-0.1l0-0.2v-0.1l0-0.1V62.6l0-0.2l0-0.2l0-0.2l0-0.2l0-0.2l0-0.1l0-0.2c-0.1-0.3-0.3-0.7-0.4-1l0-0.1l0-0.1l0-0.1
		c-0.4-0.8-1.3-1.4-2.1-1.5h-0.1L63.2,66.4"/>
	<path class="st11" d="M12.4,72l0.1-0.1l0.1-0.1l0.1-0.1c0.5-0.8,0.9-1.6,1-2.6l0-0.2c0.2-1.5,0.2-3.3-0.3-4.7l-0.1-0.2l-0.1-0.2
		l-0.1-0.2l-0.1-0.2c-0.3-0.8-0.9-1.9-1.7-2.2l-0.1-0.1l-0.1,0c-0.9-0.3-2-0.5-2.9-0.7l-0.3-0.1l-0.2,0l-0.2,0v19.9l2.2-0.3v-7h0.6
		l1.4,6.8l2.5-0.3L12.4,72z M11.6,67.1l0,0.5c-0.2,1.4-0.5,1.2-1.7,1.3H9.7v-3.6l0.1,0h0.2c0.4,0,0.6,0.1,1,0.2l0.1,0l0.1,0
		c0.3,0.2,0.5,1,0.5,1.4L11.6,67.1z"/>
	<path class="st11" d="M20.6,73c-0.1-2.2,0.1-6.9-2.7-7.7l-0.1,0l-0.1,0c-2.2,0.2-2.6,4.3-2.6,5.8l0,0.3v0.3l0,0.3l0,0.2
		c0,1.9-0.1,5.8,1.9,6.8L17,79l0.1,0c1.6,0.4,2.6-0.8,3.1-2.1l0.1-0.1l0-0.1l0.1-0.1l-1.1-1.7l-0.1-0.1l-0.1,0.1l-0.1,0.1
		c-0.4,0.5-0.7,0.7-1.3,0.5l-0.1,0l-0.1,0c-0.6-0.3-0.7-1-0.8-1.5l0-0.2l0-0.1h3.7V73z M16.9,70.7l0-0.1l0-0.1
		c0.1-0.5,0.1-1.5,0.7-1.6l0,0h0.1c0.7,0,0.8,1,0.9,1.6v0.2l0,0.2H16.9z"/>
	<path class="st11" d="M76.1,66.8L76.1,66.8l-0.2,0c-1.9-0.2-3.1,1.7-3.5,3.3l-0.1,0.3l0,0.3l0,0.3l0,0.3c-0.1,1.9-0.1,4.7,1.3,6.1
		l0.2,0.2l0.2,0.1c1.5,0.9,3,0.7,4-0.7l0.1-0.1l0.1-0.1l0.1-0.1l-1.4-1.8l-0.1,0.1l0,0.1c-0.3,0.4-0.9,0.4-1.4,0.3L75.2,75L75,75
		c-0.5-0.3-0.6-0.7-0.7-1.3v-0.2h4v-0.4C78.5,71.3,78.3,67.4,76.1,66.8z M76.2,71.3l-1.8,0v-0.1C74.5,69.2,76.2,69.1,76.2,71.3
		L76.2,71.3z"/>
	<path class="st11" d="M86,66.1L86,66.1l0.1-0.2c0.4-0.8,1-1.6,2.1-1.3l0.1,0.1l0.1,0c0.3,0.2,0.7,1.1,0.8,1.4l0.1,0.4
		c0.1,0.5,0.3,1.1,0.3,1.6l0,0.2v11.5l-2-0.3v-9.3c0-2-1.5-1.9-1.6,0l0,9.1l-2.1-0.3V65.5l2.1-0.4V66.1"/>
	<path class="st11" d="M23.9,70.8L23.9,70.8c0.1-1.5,1.3-1.4,1.4,0v7.1l2-0.2l0-7.5c0.1-1.7-1.3-4.8-3.3-3l-0.1,0.1v-0.7l-1.9-0.2
		v12l2-0.2V70.8"/>
	<path class="st11" d="M28.9,74.9V75l0,0.1c0.1,0.7,0.2,1.2,0.7,1.7l0.1,0.1l0.1,0.1c0.5,0.3,1.1,0.2,1.7,0.1l0.1,0l0.1,0v-2.4h-0.5
		c-0.4,0-0.5-0.2-0.5-0.6v-3.7l1.1,0.1v-2.3l-1-0.2v-2.6l-2-0.5v2.8l-0.6-0.1v2.5l0.6,0V74.9"/>
	<path class="st11" d="M93.5,75.5L93.5,75.5c0,0.6,0.7,0.5,1.1,0.5h0.1v4.3h-0.3c-0.9-0.1-1.7-0.1-2.2-0.9l-0.1-0.2
		c-0.5-1-0.8-2.3-0.7-3.4V60.8l2.2-0.5V75.5"/>
	<polyline class="st11" points="61.2,69.5 61.3,68.1 63.3,67.5 63.3,69.3 61.2,69.5 	"/>
	<polyline class="st11" points="79.8,78.5 79.8,74.4 82.1,74.4 82.1,78.8 79.8,78.5 	"/>
	<polyline class="st11" points="65.2,76.5 67.2,76.8 67.2,74.3 67.6,73.7 69,77 71.6,77.4 69,71.8 71.7,67.9 69,68.2 67.2,71.1 
		67.2,66.7 65.2,67.2 65.2,76.5 	"/>
	<polyline class="st11" points="61.2,75.9 61.3,70.1 63.3,69.7 63.3,76.2 61.2,75.9 	"/>
	<path class="st11" d="M58.6,74.3l0-0.4c-0.2-1.2-1.1-2.1-2.1-2.7l-0.1-0.1l-0.1,0l-0.1,0l0.2-0.1l0.1-0.1c0.8-0.5,1.7-1.6,1.7-2.5
		l0-0.3c0.1-1.6,0-2.6-1-4l-0.1-0.1l-0.1-0.1l-0.1-0.1L57,63.6c-0.9-1-2.2-1.6-3.5-1.7l-0.1,0l-0.1,0l-0.1,0c-1.1-0.1-2,0-3,0.1
		l-0.8,0.1L48.5,62c-0.7,0.1-1.4,0.2-2.1,0.4l-0.1,0l-0.2,0L46,62.6l-0.2,0.1V80l0.2,0.1l0.2,0.1l0.2,0c1.3,0.3,2.6,0.4,3.9,0.5
		l0.3,0l0.3,0c1.9,0.1,3.3,0.2,5.1-0.8l0.2-0.1l0.2-0.2l0.2-0.2l0.2-0.2C58.3,77.9,58.8,76.4,58.6,74.3z M49.3,65.2h3.5l0.2,0l0.1,0
		c1,0.2,1.7,1,1.7,2.1v0.3l0,0.1c-0.1,0.5-0.3,1-0.7,1.3l-0.2,0.1l-0.1,0.1c-0.2,0.2-0.5,0.2-0.8,0.2l-0.1,0h-3.6V65.2z M55.1,75.4
		l0,0.4l0,0.2c-0.1,0.4-0.3,0.7-0.6,0.9L54.2,77l-0.1,0.1c-0.3,0.2-0.4,0.2-0.8,0.2h-4v-4.5h3.8h0.1l0.1,0h0.1
		c0.5,0.1,0.4,0.1,0.9,0.5l0.2,0.2c0.5,0.4,0.6,1,0.6,1.7L55.1,75.4z"/>
	<path class="st11" d="M41.2,71.5c-0.1-1.1-1-1.9-2-2.3l-0.1,0l-0.1,0c-0.9-0.3-1.9-0.3-2.6,0.5l-0.1,0.2l1.3,1.7l0-0.1l0.1-0.1
		c0.3-0.4,0.7-0.4,1.2-0.3l0.1,0l0.1,0c0.3,0.2,0.3,0.5,0.3,0.8V72l-0.1,0L38.7,72c-0.6-0.1-1.3-0.2-1.9,0.2l-0.1,0.1
		c-0.4,0.4-0.7,0.9-0.8,1.5l0,0.2l0,0.2v0.2l0,0.2c0,0.9,0.5,1.7,1.4,2l0.2,0l0.2,0c0.6,0.1,1.1-0.1,1.5-0.6l0.1-0.1l0.1-0.1v0.5
		l1.9-0.2v-4.4L41.2,71.5z M39.2,74l-0.1,0.1L39,74.2c-0.3,0.2-0.5,0.4-0.9,0.1L38,74.3l0,0c-0.2-0.3-0.1-0.5,0.2-0.7l0.1,0l0.1,0
		h0.9V74z"/>
</g>
</svg>
