<?xml version="1.0" encoding="utf-8"?>
<!-- Generator: Adobe Illustrator 19.2.1, SVG Export Plug-In . SVG Version: 6.00 Build 0)  -->
<svg version="1.1" id="Layer_1" xmlns="http://www.w3.org/2000/svg" xmlns:xlink="http://www.w3.org/1999/xlink" x="0px" y="0px"
	 viewBox="0 0 197.5 142.3" style="enable-background:new 0 0 197.5 142.3;" xml:space="preserve">
<style type="text/css">
	.st0{fill:#EF7F22;stroke:#231F20;stroke-width:3.5432;stroke-miterlimit:10;}
	.st1{opacity:0.75;}
	.st2{fill:#CE2328;}
	.st3{fill:#FFFFFF;}
</style>
<polygon class="st0" points="37.5,124.5 76.8,98.4 90.1,137.3 127.9,92.3 157.8,120.3 160.1,98.4 187.7,95.7 171.8,74.1 192.6,54.1 
	175.2,49.9 182.4,26.3 155.5,41.4 155.5,4.9 114.3,31.4 110.5,15.9 101.4,36.7 92.4,10.2 76.8,46.2 56.8,12.1 45.5,46.2 23.5,36.7 
	34.1,66.3 5.7,88.9 45.5,98.4 "/>
<g>
	<g class="st1">
		<path class="st2" d="M88.9,71.9c1.6-7.4,2.8-12.1,3.3-14c1.1-0.3,2.1-0.6,2.8-0.8c0.7-0.2,1.3-0.4,1.9-0.6
			c0.5-0.2,1.1-0.3,1.7-0.5c-0.2,6.8,0,15.3,0.7,25.4l-6,2c-0.1-0.8-0.2-2.2-0.3-4L93,75.3c-0.1-2.1-0.1-3.8,0-4.9l-0.3,0
			c-0.2,1-0.4,2.1-0.6,3.3c-0.2,1.1-0.5,2.3-0.8,3.5c-0.3,1.2-0.5,2.3-0.8,3.5c-0.2,1.1-0.5,2.2-0.6,3.2c-0.8,0.1-1.5,0.3-2.1,0.4
			l-2,0.4l-0.7-13.2l-0.5,0.1c0,0.3-0.1,0.8-0.1,1.6c-0.1,0.7-0.2,1.6-0.3,2.6c-0.1,1-0.2,2-0.4,3c-0.1,1-0.3,2-0.4,2.9
			c-0.2,1.5-0.4,2.6-0.5,3.2l-5.7,1.2c2.1-11.8,3.5-20.3,4.1-25.7c1.3-0.2,2.5-0.4,3.6-0.7c1.1-0.3,2.3-0.6,3.6-0.9
			c0,0.5,0,1.1,0,1.7c0,0.6,0,1.3,0,2.1c0,0.7,0,1.5,0,2.2c0,0.8,0,1.7,0,2.9c0,1.2,0,2.7,0,4.5L88.9,71.9z"/>
		<path class="st2" d="M105.8,76l-0.7,5.2c-0.5,0.1-1.1,0.3-1.8,0.5c-0.7,0.2-1.4,0.4-2,0.5c-0.7,0.2-1.4,0.4-2.1,0.6
			c0.5-3.2,0.9-6,1.3-8.2s0.6-4.1,0.8-5.5c0.2-1.4,0.4-2.9,0.6-4.3c0.2-1.4,0.4-2.8,0.6-4.1c0.2-1.3,0.4-2.5,0.5-3.6
			c4.2-0.9,7.4-1.7,9.5-2.5c0.1,2.3,0.3,5,0.6,8.1c0.6,6.2,1.1,11.9,1.6,17.1c-0.7,0.2-1.3,0.4-2,0.6c-0.6,0.2-1.3,0.4-2,0.6
			c-0.7,0.2-1.3,0.4-1.9,0.6c-0.1-2.2-0.1-4.2-0.2-6L105.8,76z M106.1,72.4l2.5-0.5c0-0.1,0-0.4,0-0.7c0-0.3,0-0.7,0-1.2
			c-0.2-2.5-0.3-4.8-0.4-6.9L108,60l-0.5,0.1L106.1,72.4z"/>
		<path class="st2" d="M115,80.8c0.9-11,1.4-19.5,1.4-25.5c2.4-1.1,4.2-1.7,5.5-1.9c1.3-0.2,2.3-0.1,3,0.1c0.8,0.3,1.4,0.6,2,1.2
			c1,1,1.6,2.5,1.9,4.5c0.2,1.3,0.1,2.6-0.2,3.9c-0.3,1.3-0.8,2.5-1.5,3.5c-0.7,1.1-1.5,1.9-2.5,2.7c-1,0.7-2,1.1-3.1,1.3l-0.4,0.1
			c-0.2,2-0.3,4.7-0.3,8.2L115,80.8z M121.8,57.7c-0.1,3.4-0.3,6.4-0.4,9c0.8-0.3,1.5-1.1,2-2.3c0.6-1.3,0.8-2.8,0.6-4.3
			c-0.1-0.9-0.4-1.5-0.9-1.9C122.7,57.8,122.2,57.7,121.8,57.7z"/>
		<path class="st2" d="M130.8,79.4c-0.6,0.1-1.1,0.1-1.5-0.1c-0.4-0.1-0.8-0.3-1.1-0.6c-0.6-0.6-1-1.3-1.1-2.2
			c-0.2-1.5,0.3-2.6,1.5-3.4c0.4-0.3,0.9-0.4,1.5-0.5c1.4-0.2,2.4,0,3.2,0.5c0.8,0.5,1.2,1.2,1.3,2.1c0.1,1-0.1,1.9-0.8,2.7
			C133.1,78.7,132.1,79.2,130.8,79.4z M137.5,50.9c-0.8,3.1-1.6,6.2-2.2,9.4c-0.6,3.1-1.2,6.3-1.8,9.4c-0.7,0.1-1.4,0.2-2,0.4
			s-1.3,0.3-2,0.4c0.3-3,0.6-5.9,0.9-8.9c0.3-3,0.6-5.9,0.9-8.9c0.4-0.1,0.9-0.3,1.5-0.4c0.6-0.2,1.1-0.3,1.7-0.5
			c0.6-0.2,1.1-0.3,1.7-0.5C136.7,51.1,137.2,51,137.5,50.9z"/>
	</g>
	<g>
		<g>
			<path class="st3" d="M87.1,70.1c1.6-7.4,2.8-12.1,3.3-14c1.1-0.3,2.1-0.6,2.8-0.8c0.7-0.2,1.3-0.4,1.9-0.6
				c0.5-0.2,1.1-0.3,1.7-0.5c-0.2,6.8,0,15.3,0.7,25.4l-6,2c-0.1-0.8-0.2-2.2-0.3-4l-0.1-4.2c-0.1-2.1-0.1-3.8,0-4.9l-0.3,0
				c-0.2,1-0.4,2.1-0.6,3.3c-0.2,1.1-0.5,2.3-0.8,3.5c-0.3,1.2-0.5,2.3-0.8,3.5C88.4,79.9,88.2,81,88,82c-0.8,0.1-1.5,0.3-2.1,0.4
				l-2,0.4l-0.7-13.2l-0.5,0.1c0,0.3-0.1,0.8-0.1,1.6c-0.1,0.7-0.2,1.6-0.3,2.6c-0.1,1-0.2,2-0.4,3c-0.1,1-0.3,2-0.4,2.9
				c-0.2,1.5-0.4,2.6-0.5,3.2L75.3,84c2.1-11.8,3.5-20.3,4.1-25.7c1.3-0.2,2.5-0.4,3.6-0.7c1.1-0.3,2.3-0.6,3.6-0.9
				c0,0.5,0,1.1,0,1.7c0,0.6,0,1.3,0,2.1c0,0.7,0,1.5,0,2.2c0,0.8,0,1.7,0,2.9c0,1.2,0,2.7,0,4.5L87.1,70.1z"/>
			<path class="st3" d="M103.9,74.1l-0.7,5.2c-0.5,0.1-1.1,0.3-1.8,0.5c-0.7,0.2-1.4,0.4-2,0.5c-0.7,0.2-1.4,0.4-2.1,0.6
				c0.5-3.2,0.9-6,1.3-8.2s0.6-4.1,0.8-5.5c0.2-1.4,0.4-2.9,0.6-4.3s0.4-2.8,0.6-4.1c0.2-1.3,0.4-2.5,0.5-3.6
				c4.2-0.9,7.4-1.7,9.5-2.5c0.1,2.3,0.3,5,0.6,8.1c0.6,6.2,1.1,11.9,1.6,17.1c-0.7,0.2-1.3,0.4-2,0.6c-0.6,0.2-1.3,0.4-2,0.6
				c-0.7,0.2-1.3,0.4-1.9,0.6c-0.1-2.2-0.1-4.2-0.2-6L103.9,74.1z M104.2,70.5l2.5-0.5c0-0.1,0-0.4,0-0.7c0-0.3,0-0.7,0-1.2
				c-0.2-2.5-0.3-4.8-0.4-6.9l-0.2-3.1l-0.5,0.1L104.2,70.5z"/>
			<path class="st3" d="M113.2,78.9c0.9-11,1.4-19.5,1.4-25.5c2.4-1.1,4.2-1.7,5.5-1.9c1.3-0.2,2.3-0.1,3,0.1c0.8,0.3,1.4,0.6,2,1.2
				c1,1,1.6,2.5,1.9,4.5c0.2,1.3,0.1,2.6-0.2,3.9c-0.3,1.3-0.8,2.5-1.5,3.5c-0.7,1.1-1.5,1.9-2.5,2.7c-1,0.7-2,1.1-3.1,1.3l-0.4,0.1
				c-0.2,2-0.3,4.7-0.3,8.2L113.2,78.9z M119.9,55.9c-0.1,3.4-0.3,6.4-0.4,9c0.8-0.3,1.5-1.1,2-2.3c0.6-1.3,0.8-2.8,0.6-4.3
				c-0.1-0.9-0.4-1.5-0.9-1.9C120.8,56,120.4,55.8,119.9,55.9z"/>
			<path class="st3" d="M128.9,77.5c-0.6,0.1-1.1,0.1-1.5-0.1c-0.4-0.1-0.8-0.3-1.1-0.6c-0.6-0.6-1-1.3-1.1-2.2
				c-0.2-1.5,0.3-2.6,1.5-3.4c0.4-0.3,0.9-0.4,1.5-0.5c1.4-0.2,2.4,0,3.2,0.5c0.8,0.5,1.2,1.2,1.3,2.1c0.1,1-0.1,1.9-0.8,2.7
				C131.2,76.8,130.2,77.3,128.9,77.5z M135.6,49c-0.8,3.1-1.6,6.2-2.2,9.4c-0.6,3.1-1.2,6.3-1.8,9.4c-0.7,0.1-1.4,0.2-2,0.4
				s-1.3,0.3-2,0.4c0.3-3,0.6-5.9,0.9-8.9c0.3-3,0.6-5.9,0.9-8.9c0.4-0.1,0.9-0.3,1.5-0.4c0.6-0.2,1.1-0.3,1.7-0.5
				c0.6-0.2,1.1-0.3,1.7-0.5C134.8,49.3,135.3,49.1,135.6,49z"/>
		</g>
	</g>
</g>
<g>
</g>
<g>
</g>
<g>
</g>
<g>
</g>
<g>
</g>
<g>
</g>
</svg>
