<?xml version="1.0" encoding="utf-8"?>
<!-- Generator: Adobe Illustrator 19.2.1, SVG Export Plug-In . SVG Version: 6.00 Build 0)  -->
<svg version="1.1" id="Layer_1" xmlns="http://www.w3.org/2000/svg" xmlns:xlink="http://www.w3.org/1999/xlink" x="0px" y="0px"
	 viewBox="0 0 703.9 71.7" style="enable-background:new 0 0 703.9 71.7;" xml:space="preserve">
<style type="text/css">
	.st0{fill:none;}
	.st1{fill:#010101;}
	.st2{fill:#1B6B9D;stroke:#000000;stroke-width:3;stroke-miterlimit:10;}
	.st3{fill:#E02528;stroke:#231F20;stroke-width:3;stroke-miterlimit:10;}
	.st4{fill:#F6E102;stroke:#231F20;stroke-width:3;stroke-miterlimit:10;}
	.st5{fill:#FFFFFF;stroke:#000000;stroke-width:3;stroke-miterlimit:10;}
	.st6{fill:#FFFFFF;}
</style>
<g>
	<rect x="-147.3" y="50.4" class="st0" width="208.6" height="24.8"/>
	<path class="st1" d="M-77.1,61.7c0.3,0,0.7-0.2,1-0.6c0.4-0.4,0.6-0.8,0.7-1.3l2.3,0.9c-0.6,1.4-1.3,2.5-2.3,3.3
		c-0.8,0.7-1.7,1.1-2.6,1.1c-0.8,0-1.5-0.4-2-1.1c-0.5-0.8-0.8-1.9-0.8-3.2s0.2-2.6,0.5-3.8s0.8-2.3,1.4-3.3c0.6-1,1.4-1.8,2.2-2.4
		s1.8-0.9,2.8-0.9c0.7,0,1.2,0.3,1.7,0.8c0.5,0.5,0.7,1.2,0.7,2.1v0.3c0,0.1,0,0.2,0,0.3l-2.6,0.7c-0.2-0.3-0.3-0.5-0.6-0.5
		s-0.4,0.1-0.7,0.4s-0.5,0.6-0.7,1c-0.2,0.4-0.4,0.8-0.7,1.3c-0.2,0.5-0.4,1-0.5,1.5c-0.4,1.1-0.5,2-0.5,2.6S-77.5,61.7-77.1,61.7z"
		/>
	<path class="st1" d="M-69.7,61.6l-0.8,2.9c-0.3,0-0.6,0.1-1,0.1c-0.4,0.1-0.8,0.1-1.2,0.1s-0.8,0.1-1.2,0.1c0.5-1.8,1-3.3,1.4-4.5
		c0.4-1.2,0.7-2.2,0.9-3c0.2-0.8,0.5-1.6,0.7-2.3c0.2-0.8,0.4-1.5,0.7-2.2s0.4-1.4,0.6-2c2.4-0.2,4.2-0.4,5.5-0.6
		c-0.1,1.3-0.2,2.8-0.3,4.6c-0.2,3.5-0.3,6.7-0.4,9.7c-0.4,0.1-0.8,0.1-1.1,0.2c-0.4,0.1-0.8,0.1-1.1,0.2c-0.4,0.1-0.8,0.1-1.1,0.2
		c0.1-1.2,0.3-2.4,0.4-3.4H-69.7z M-69.2,59.6l1.4-0.1c0-0.1,0-0.2,0-0.4s0-0.4,0.1-0.7c0.1-1.4,0.2-2.7,0.3-3.9l0.1-1.7l-0.3,0
		L-69.2,59.6z"/>
	<path class="st1" d="M-58.8,64.7c-1-3.5-1.5-5.6-1.6-6l-0.3,0.1c-0.4,2.4-0.7,4.2-1,5.4l-3.2,0.8c1.3-6.5,2.2-11.2,2.5-13.9
		c1.5-0.5,3.2-0.7,5.1-0.7c1.4,0,2.2,0.5,2.5,1.5c0.1,0.3,0.1,0.7,0.1,1.1s-0.1,0.9-0.3,1.4c-0.2,0.5-0.4,1-0.7,1.5
		c-0.6,1-1.4,1.7-2.4,2.2c0.5,1.1,1,2.1,1.4,3.1c0.4,1,0.7,1.8,1,2.5L-58.8,64.7z M-58.6,53.2l-0.9,0l-0.6,3.2c0.5-0.1,1.2-0.4,2-1
		c0.8-0.6,1.2-1.1,1.2-1.5c0-0.4-0.4-0.6-1.1-0.6C-58.2,53.2-58.4,53.2-58.6,53.2z"/>
	<path class="st1" d="M-47.9,54.1c-0.2-1-0.6-1.5-1.1-1.5c-0.3,0-0.7,0.2-1.1,0.7c-0.4,0.5-0.8,1.1-1.1,1.8
		c-0.8,1.7-1.2,3.4-1.3,5.1c0,0.8,0.1,1.4,0.4,1.8s0.5,0.5,0.9,0.5s0.6-0.1,0.9-0.2s0.5-0.3,0.8-0.6c0.5-0.5,0.8-1.2,0.8-1.9
		l-2.1,0.3l0.4-2c1.8-0.2,3.5-0.5,4.9-0.7c-0.1,1.4-0.4,2.5-0.8,3.5c-0.4,1-1,1.9-1.6,2.5c-0.6,0.7-1.3,1.2-2,1.5
		c-0.7,0.3-1.4,0.5-1.9,0.5c-0.6,0-1.1-0.1-1.5-0.3c-0.4-0.2-0.8-0.5-1.1-1c-0.7-0.9-1-2.3-1-4s0.2-3.2,0.7-4.5
		c0.5-1.3,1.1-2.3,1.9-3.2c0.7-0.9,1.5-1.5,2.4-1.9c0.9-0.4,1.6-0.6,2.2-0.6s1.1,0.1,1.5,0.3s0.7,0.4,1,0.8c0.5,0.6,0.7,1.4,0.7,2.4
		L-47.9,54.1z"/>
	<path class="st1" d="M-35.4,54.7c0,0.8-0.1,1.7-0.3,2.6s-0.5,1.8-0.9,2.7c-0.4,0.8-0.8,1.5-1.4,2.2c-0.5,0.6-1,1.2-1.6,1.6
		c-1.2,0.9-2.3,1.4-3.3,1.4c-0.9,0-1.6-0.3-2.1-1c-0.6-0.7-0.9-1.8-0.9-3.1c0-1.5,0.3-3.1,1-4.8c0.7-1.7,1.6-3.2,2.7-4.3
		c1.2-1.2,2.5-1.8,3.8-1.8c1.1,0,1.9,0.4,2.4,1.3C-35.6,52.1-35.4,53.2-35.4,54.7z M-38.2,55.9c0-1.1-0.3-1.6-0.9-1.6
		c-0.8,0-1.5,0.4-2.1,1.2c-0.5,0.6-0.9,1.5-1.3,2.6c-0.3,0.9-0.4,1.7-0.4,2.5c0,0.5,0.2,0.9,0.7,1.2c0.1,0.1,0.3,0.1,0.4,0.1
		c0.6,0,1.1-0.2,1.6-0.6s0.8-0.9,1.2-1.5s0.5-1.2,0.7-1.9C-38.3,57.1-38.2,56.4-38.2,55.9z"/>
	<path class="st1" d="M-23.9,60.1c0,0.5-0.1,1-0.3,1.4c-0.2,0.5-0.5,0.9-0.9,1.3c-0.4,0.4-0.8,0.7-1.3,1c-0.5,0.3-1.1,0.5-1.6,0.7
		c-1.1,0.4-2.3,0.6-3.4,0.6c-0.5,0-1,0-1.4-0.1c0.6-2.3,1.1-4.7,1.5-7.1c0.4-2.4,0.7-4.8,1.1-7.1c1.8-0.4,3.3-0.6,4.5-0.6
		c1.4,0,2.3,0.5,2.8,1.4c0.2,0.4,0.3,0.8,0.3,1.3s-0.1,1-0.2,1.4c-0.2,0.4-0.4,0.8-0.6,1.2c-0.5,0.7-1.2,1.2-1.9,1.5
		C-24.4,57.7-23.9,58.7-23.9,60.1z M-29,61.1c1.2-0.1,2-0.5,2.5-1c0.2-0.2,0.3-0.5,0.3-0.8s-0.1-0.5-0.2-0.7s-0.3-0.3-0.5-0.4
		c-0.4-0.2-0.8-0.3-1.3-0.3h-0.2c-0.1,0-0.1,0-0.2,0c-0.1,0.3-0.1,0.6-0.1,0.9s-0.1,0.5-0.1,0.7c0,0.2-0.1,0.5-0.1,0.7
		C-28.9,60.5-28.9,60.7-29,61.1z M-28,55.5c1.6-0.4,2.4-0.8,2.4-1.3c0-0.5-0.4-0.8-1.2-1c-0.2,0-0.4-0.1-0.5-0.1h-0.2
		c0,0.1-0.1,0.3-0.1,0.5c0,0.2-0.1,0.4-0.1,0.6c0,0.2-0.1,0.4-0.1,0.6S-27.9,55.3-28,55.5z"/>
	<path class="st1" d="M-18.5,50.5c-1.5,7.6-2.4,12.3-2.7,14.1c-0.4,0-1,0.1-1.9,0.2s-1.4,0.2-1.4,0.2c0.4-1.5,0.8-3.2,1.1-4.9
		c0.8-4.1,1.4-7.1,1.7-9L-18.5,50.5z"/>
	<path class="st1" d="M-10.7,64.4c-0.6,0-1.3,0-2,0c-0.7,0-1.4,0-2.1,0c-0.3-1.7-0.5-3.5-0.8-5.4l-0.4,0.4c-0.1,0.4-0.2,0.9-0.3,1.5
		c-0.1,0.6-0.2,1.2-0.3,1.8s-0.2,1.2-0.4,1.9l-3.2,0.5c1.4-6.5,2.2-11.4,2.5-14.6c0.3,0,0.7,0.1,1,0.1s0.8,0,1.1,0.1s0.7,0,1.1,0
		c0,0.1,0,0.1-0.1,0.3s-0.1,0.3-0.1,0.5c0,0.2-0.1,0.4-0.1,0.7s-0.1,0.6-0.2,1s-0.2,1-0.3,1.7l0.1,0c0.4-0.6,0.7-1.2,1.1-1.8
		c0.8-1.2,1.3-2.1,1.6-2.6c1.5-0.1,2.8-0.3,4-0.4c-2.3,3.1-3.8,5.3-4.6,6.6c0.3,1.3,0.6,2.6,1,3.9C-11.6,61.9-11.1,63.1-10.7,64.4z"
		/>
	<path class="st1" d="M-11,65l2.6-14.2l6.3-0.5c-0.1,0.3-0.2,0.6-0.2,0.9c-0.1,0.3-0.1,0.6-0.2,0.8c-0.1,0.3-0.1,0.5-0.2,0.7
		c-0.4,0-0.9,0.1-1.6,0.1h-1.3l-0.7,3.6c0.7,0,1.3-0.1,1.8-0.1c0.5,0,0.8,0,0.9,0c-0.1,0.4-0.1,0.7-0.1,1.1s-0.1,0.7-0.2,1.1
		c-0.1,0-0.4,0-0.7,0c-0.3,0-0.6,0-0.9,0c-0.3,0-0.7,0-1.1,0l-0.7,3.7l2.9-0.5l-0.2,2.3L-11,65z"/>
</g>
<rect x="88.4" y="5.8" class="st2" width="87.1" height="24.5"/>
<rect x="175.5" y="5.8" class="st2" width="87.1" height="24.5"/>
<rect x="262.7" y="5.8" class="st2" width="87.1" height="24.5"/>
<rect x="349.8" y="5.8" class="st2" width="87.1" height="24.5"/>
<rect x="436.9" y="5.8" class="st2" width="87.2" height="24.5"/>
<rect x="524.1" y="5.8" class="st2" width="87.1" height="24.5"/>
<rect x="611.2" y="5.8" class="st2" width="87.1" height="24.5"/>
<rect x="1.3" y="30.3" class="st3" width="43.6" height="19"/>
<rect x="44.8" y="30.3" class="st4" width="43.6" height="19"/>
<rect x="88.5" y="30.3" class="st3" width="43.6" height="19"/>
<rect x="132" y="30.3" class="st4" width="43.6" height="19"/>
<rect x="175.6" y="30.3" class="st3" width="43.6" height="19"/>
<rect x="219.1" y="30.3" class="st4" width="43.6" height="19"/>
<rect x="262.7" y="30.3" class="st3" width="43.6" height="19"/>
<rect x="306.2" y="30.3" class="st4" width="43.6" height="19"/>
<rect x="654.8" y="30.3" class="st4" width="43.6" height="19"/>
<rect x="611.1" y="30.3" class="st3" width="43.6" height="19"/>
<rect x="567.7" y="30.3" class="st4" width="43.6" height="19"/>
<rect x="524.1" y="30.3" class="st3" width="43.6" height="19"/>
<rect x="480.5" y="30.3" class="st4" width="43.6" height="19"/>
<rect x="437" y="30.3" class="st3" width="43.6" height="19"/>
<rect x="393.4" y="30.3" class="st4" width="43.6" height="19"/>
<rect x="349.8" y="30.3" class="st3" width="43.6" height="19"/>
<rect x="349.8" y="49.3" class="st5" width="43.6" height="19"/>
<rect x="393.4" y="49.3" class="st5" width="43.6" height="19"/>
<rect x="436.9" y="49.3" class="st5" width="43.6" height="19"/>
<rect x="480.5" y="49.3" class="st5" width="43.6" height="19"/>
<rect x="524.1" y="49.3" class="st5" width="43.6" height="19"/>
<rect x="567.7" y="49.3" class="st5" width="43.6" height="19"/>
<rect x="611.2" y="49.3" class="st5" width="43.6" height="19"/>
<rect x="654.8" y="49.3" class="st5" width="43.6" height="19"/>
<rect x="306.2" y="49.3" class="st5" width="43.6" height="19"/>
<rect x="262.7" y="49.3" class="st5" width="43.6" height="19"/>
<rect x="219.1" y="49.3" class="st5" width="43.6" height="19"/>
<rect x="175.5" y="49.3" class="st5" width="43.6" height="19"/>
<rect x="132" y="49.3" class="st5" width="43.6" height="19"/>
<rect x="88.4" y="49.3" class="st5" width="43.6" height="19"/>
<rect x="44.8" y="49.3" class="st5" width="43.6" height="19"/>
<rect x="1.2" y="49.3" class="st5" width="43.6" height="19"/>
<rect x="1.2" y="5.8" class="st2" width="87.2" height="24.5"/>
<g>
	<g>
		<path class="st6" d="M113.2,25.5c1.4-7.1,2.3-11.9,2.6-14.2c0.6-0.1,1.2-0.2,1.7-0.3s1.2-0.1,1.9-0.1c0.7,0,1.3,0.1,1.8,0.3
			c0.5,0.2,0.9,0.5,1.2,0.9c0.6,0.8,0.9,1.8,0.9,3.1c0,1.4-0.4,2.9-1.1,4.5c-0.8,1.7-1.8,3-3.1,4c-1.5,1.2-3,1.7-4.7,1.7
			C114,25.6,113.7,25.5,113.2,25.5z M116.7,23.1c0.9-0.6,1.8-1.8,2.5-3.7c0.4-1,0.7-1.9,0.9-2.6c0.1-0.7,0.2-1.3,0.2-1.7
			c0-0.4-0.1-0.7-0.4-1c-0.3-0.3-0.7-0.4-1.3-0.4c-0.2,1.1-0.5,2.3-0.8,3.6C117.4,19.5,117,21.4,116.7,23.1z"/>
		<path class="st6" d="M125.6,22.1l-0.8,2.9c-0.3,0-0.6,0.1-1,0.1c-0.4,0.1-0.8,0.1-1.2,0.1c-0.4,0-0.8,0.1-1.2,0.1
			c0.5-1.8,1-3.3,1.4-4.5c0.4-1.2,0.7-2.2,0.9-3c0.2-0.8,0.5-1.6,0.7-2.3c0.2-0.8,0.4-1.5,0.7-2.2s0.4-1.4,0.6-2
			c2.4-0.2,4.2-0.4,5.5-0.6c-0.1,1.3-0.2,2.8-0.3,4.6c-0.2,3.5-0.3,6.7-0.4,9.7c-0.4,0.1-0.8,0.1-1.1,0.2c-0.4,0.1-0.8,0.1-1.2,0.2
			c-0.4,0.1-0.8,0.1-1.1,0.2c0.1-1.3,0.3-2.4,0.4-3.4H125.6z M126.1,20.1l1.4-0.1c0-0.1,0-0.2,0-0.4c0-0.2,0-0.4,0.1-0.7
			c0.1-1.4,0.2-2.7,0.3-3.9l0.1-1.7l-0.3,0L126.1,20.1z"/>
		<path class="st6" d="M135.1,16.9c0.4-1.1,1.1-3,2.1-5.9l3.1,0.7c-0.7,1.5-1.4,2.8-1.9,4l-1.3,2.6c-0.2,0.5-0.5,1-0.7,1.5
			c-0.2,0.5-0.5,1-0.7,1.4c-0.2,1-0.5,2.2-0.9,3.6l-3.4,0.4l0.9-4c0-1.6-0.1-3.4-0.2-5.4c-0.1-2-0.2-3.1-0.2-3.4l0-0.4l3.3-1.3v3.5
			l0,2V16.9z"/>
		<path class="st6" d="M143.2,16.5c0-0.2,0-0.4,0-0.6c0-1.5,0.5-2.7,1.6-3.7c1-0.9,2.2-1.3,3.5-1.3c1.1,0,2,0.3,2.7,1
			c0.8,0.7,1.2,1.7,1.2,3c0,2.4-2.3,4.8-6.9,7.2c0.8,0,1.6,0,2.6-0.1c1-0.1,1.8-0.1,2.5-0.2l-0.3,2.9c-0.5,0-1.1,0.1-1.9,0.1
			c-1.4,0.1-2.6,0.2-3.5,0.2c-0.9,0.1-2,0.1-3.2,0.2l0.3-2.5c0.1-1,1.3-2.3,3.6-4c1.4-1.1,2.3-1.8,2.7-2.2s0.6-0.8,0.6-1.1
			s-0.1-0.6-0.2-0.8s-0.3-0.3-0.6-0.3c-0.2,0-0.4,0-0.6,0.1c-0.2,0.1-0.3,0.2-0.4,0.4c-0.2,0.3-0.3,0.6-0.3,1.1v0.2c0,0,0,0.1,0,0.1
			C146.7,16.2,145.5,16.3,143.2,16.5z"/>
	</g>
</g>
<g>
	<g>
		<path class="st6" d="M200.4,25.5c1.4-7.1,2.3-11.9,2.6-14.2c0.6-0.1,1.2-0.2,1.7-0.3s1.2-0.1,1.9-0.1c0.7,0,1.3,0.1,1.8,0.3
			c0.5,0.2,0.9,0.5,1.2,0.9c0.6,0.8,0.9,1.8,0.9,3.1c0,1.4-0.4,2.9-1.1,4.5c-0.8,1.7-1.8,3-3.1,4c-1.5,1.2-3,1.7-4.7,1.7
			C201.3,25.6,200.9,25.5,200.4,25.5z M203.9,23.1c0.9-0.6,1.8-1.8,2.5-3.7c0.4-1,0.7-1.9,0.9-2.6c0.1-0.7,0.2-1.3,0.2-1.7
			c0-0.4-0.1-0.7-0.4-1c-0.3-0.3-0.7-0.4-1.3-0.4c-0.2,1.1-0.5,2.3-0.8,3.6C204.6,19.5,204.2,21.4,203.9,23.1z"/>
		<path class="st6" d="M212.8,22.1l-0.8,2.9c-0.3,0-0.6,0.1-1,0.1c-0.4,0.1-0.8,0.1-1.2,0.1c-0.4,0-0.8,0.1-1.2,0.1
			c0.5-1.8,1-3.3,1.4-4.5c0.4-1.2,0.7-2.2,0.9-3c0.2-0.8,0.5-1.6,0.7-2.3c0.2-0.8,0.4-1.5,0.7-2.2s0.4-1.4,0.6-2
			c2.4-0.2,4.2-0.4,5.5-0.6c-0.1,1.3-0.2,2.8-0.3,4.6c-0.2,3.5-0.3,6.7-0.4,9.7c-0.4,0.1-0.8,0.1-1.1,0.2c-0.4,0.1-0.8,0.1-1.2,0.2
			c-0.4,0.1-0.8,0.1-1.1,0.2c0.1-1.3,0.3-2.4,0.4-3.4H212.8z M213.3,20.1l1.4-0.1c0-0.1,0-0.2,0-0.4c0-0.2,0-0.4,0.1-0.7
			c0.1-1.4,0.2-2.7,0.3-3.9l0.1-1.7l-0.3,0L213.3,20.1z"/>
		<path class="st6" d="M222.3,16.9c0.4-1.1,1.1-3,2.1-5.9l3.1,0.7c-0.7,1.5-1.4,2.8-1.9,4l-1.3,2.6c-0.2,0.5-0.5,1-0.7,1.5
			c-0.2,0.5-0.5,1-0.7,1.4c-0.2,1-0.5,2.2-0.9,3.6l-3.4,0.4l0.9-4c0-1.6-0.1-3.4-0.2-5.4c-0.1-2-0.2-3.1-0.2-3.4l0-0.4l3.3-1.3v3.5
			l0,2V16.9z"/>
		<path class="st6" d="M232.5,21.8c0,0.3,0.1,0.4,0.2,0.6c0.1,0.1,0.3,0.2,0.5,0.2c0.2,0,0.4,0,0.6-0.1c0.2-0.1,0.4-0.2,0.6-0.3
			c0.4-0.3,0.6-0.7,0.6-1.1c0-0.4-0.2-0.7-0.5-0.9c-0.3-0.3-0.8-0.4-1.4-0.4c-0.6,0-1.2,0-1.7,0.1c-0.5,0.1-0.9,0.1-1.3,0.1l0.4-2.9
			c1.4-0.9,2.6-1.7,3.6-2.5l-3.2,0.1l0.2-3.4c1.2-0.1,2.2-0.1,2.9-0.1c0.7,0,1.3-0.1,1.8-0.1c0.5,0,0.9,0,1.3-0.1c0.7,0,1.3,0,1.9,0
			l-0.5,4.3l-4,2.1c1.9,0.3,3.1,1.1,3.5,2.2c0.1,0.3,0.2,0.8,0.2,1.2s-0.2,1.1-0.5,1.7c-0.3,0.6-0.8,1.2-1.4,1.7
			c-0.6,0.5-1.2,0.9-2,1.3c-0.7,0.3-1.4,0.5-2,0.5s-1.1-0.1-1.5-0.2c-0.4-0.1-0.7-0.3-1-0.5c-0.7-0.5-1-1.2-1-2.1
			c0-0.3,0.1-0.6,0.2-1L232.5,21.8z"/>
	</g>
</g>
<g>
	<g>
		<path class="st6" d="M287.6,25.5c1.4-7.1,2.3-11.9,2.6-14.2c0.6-0.1,1.2-0.2,1.7-0.3s1.2-0.1,1.9-0.1c0.7,0,1.3,0.1,1.8,0.3
			c0.5,0.2,0.9,0.5,1.2,0.9c0.6,0.8,0.9,1.8,0.9,3.1c0,1.4-0.4,2.9-1.1,4.5c-0.8,1.7-1.8,3-3.1,4c-1.5,1.2-3,1.7-4.7,1.7
			C288.4,25.6,288,25.5,287.6,25.5z M291.1,23.1c0.9-0.6,1.8-1.8,2.5-3.7c0.4-1,0.7-1.9,0.9-2.6c0.1-0.7,0.2-1.3,0.2-1.7
			c0-0.4-0.1-0.7-0.4-1c-0.3-0.3-0.7-0.4-1.3-0.4c-0.2,1.1-0.5,2.3-0.8,3.6C291.7,19.5,291.3,21.4,291.1,23.1z"/>
		<path class="st6" d="M299.9,22.1l-0.8,2.9c-0.3,0-0.6,0.1-1,0.1c-0.4,0.1-0.8,0.1-1.2,0.1c-0.4,0-0.8,0.1-1.2,0.1
			c0.5-1.8,1-3.3,1.4-4.5c0.4-1.2,0.7-2.2,0.9-3c0.2-0.8,0.5-1.6,0.7-2.3c0.2-0.8,0.4-1.5,0.7-2.2s0.4-1.4,0.6-2
			c2.4-0.2,4.2-0.4,5.5-0.6c-0.1,1.3-0.2,2.8-0.3,4.6c-0.2,3.5-0.3,6.7-0.4,9.7c-0.4,0.1-0.8,0.1-1.1,0.2c-0.4,0.1-0.8,0.1-1.2,0.2
			c-0.4,0.1-0.8,0.1-1.1,0.2c0.1-1.3,0.3-2.4,0.4-3.4H299.9z M300.4,20.1l1.4-0.1c0-0.1,0-0.2,0-0.4c0-0.2,0-0.4,0.1-0.7
			c0.1-1.4,0.2-2.7,0.3-3.9l0.1-1.7l-0.3,0L300.4,20.1z"/>
		<path class="st6" d="M309.4,16.9c0.4-1.1,1.1-3,2.1-5.9l3.1,0.7c-0.7,1.5-1.4,2.8-1.9,4l-1.3,2.6c-0.2,0.5-0.5,1-0.7,1.5
			c-0.2,0.5-0.5,1-0.7,1.4c-0.2,1-0.5,2.2-0.9,3.6l-3.4,0.4l0.9-4c0-1.6-0.1-3.4-0.2-5.4c-0.1-2-0.2-3.1-0.2-3.4l0-0.4l3.3-1.3v3.5
			l0,2V16.9z"/>
		<path class="st6" d="M316.2,20.8c1.7-5.3,2.8-8.5,3.1-9.5c1.1,0,2.1-0.1,3.2-0.2c-0.8,1.9-1.6,4.4-2.6,7.6c0,0.2-0.1,0.3-0.1,0.5
			h1.4c0-0.1,0-0.2,0.1-0.4c0-0.2,0.1-0.5,0.1-0.7c0.1-0.3,0.1-0.6,0.2-0.9c0.2-0.9,0.4-2.1,0.7-3.6c1.1-0.2,2.2-0.3,3.4-0.4
			c0,0.1,0,0.4-0.1,0.7c-0.1,0.3-0.1,0.7-0.2,1.1c-0.1,0.4-0.1,0.8-0.2,1.3c-0.1,0.4-0.2,0.9-0.2,1.3c-0.1,0.4-0.1,0.8-0.2,1.1
			c-0.1,0.3-0.1,0.5-0.1,0.7h1.1l-0.8,3.2h-1l-0.2,2.6l-3.7,0.6l0.4-3.2l-3.4,0.3L316.2,20.8z"/>
	</g>
</g>
<g>
	<g>
		<path class="st6" d="M374.8,25.5c1.4-7.1,2.3-11.9,2.6-14.2c0.6-0.1,1.2-0.2,1.7-0.3s1.2-0.1,1.9-0.1c0.7,0,1.3,0.1,1.8,0.3
			c0.5,0.2,0.9,0.5,1.2,0.9c0.6,0.8,0.9,1.8,0.9,3.1c0,1.4-0.4,2.9-1.1,4.5c-0.8,1.7-1.8,3-3.1,4c-1.5,1.2-3,1.7-4.7,1.7
			C375.6,25.6,375.2,25.5,374.8,25.5z M378.3,23.1c0.9-0.6,1.8-1.8,2.5-3.7c0.4-1,0.7-1.9,0.9-2.6c0.1-0.7,0.2-1.3,0.2-1.7
			c0-0.4-0.1-0.7-0.4-1c-0.3-0.3-0.7-0.4-1.3-0.4c-0.2,1.1-0.5,2.3-0.8,3.6C378.9,19.5,378.6,21.4,378.3,23.1z"/>
		<path class="st6" d="M387.2,22.1l-0.8,2.9c-0.3,0-0.6,0.1-1,0.1c-0.4,0.1-0.8,0.1-1.2,0.1c-0.4,0-0.8,0.1-1.2,0.1
			c0.5-1.8,1-3.3,1.4-4.5c0.4-1.2,0.7-2.2,0.9-3c0.2-0.8,0.5-1.6,0.7-2.3c0.2-0.8,0.4-1.5,0.7-2.2s0.4-1.4,0.6-2
			c2.4-0.2,4.2-0.4,5.5-0.6c-0.1,1.3-0.2,2.8-0.3,4.6c-0.2,3.5-0.3,6.7-0.4,9.7c-0.4,0.1-0.8,0.1-1.1,0.2c-0.4,0.1-0.8,0.1-1.2,0.2
			c-0.4,0.1-0.8,0.1-1.1,0.2c0.1-1.3,0.3-2.4,0.4-3.4H387.2z M387.6,20.1l1.4-0.1c0-0.1,0-0.2,0-0.4c0-0.2,0-0.4,0.1-0.7
			c0.1-1.4,0.2-2.7,0.3-3.9l0.1-1.7l-0.3,0L387.6,20.1z"/>
		<path class="st6" d="M396.7,16.9c0.4-1.1,1.1-3,2.1-5.9l3.1,0.7c-0.7,1.5-1.4,2.8-1.9,4l-1.3,2.6c-0.2,0.5-0.5,1-0.7,1.5
			c-0.2,0.5-0.5,1-0.7,1.4c-0.2,1-0.5,2.2-0.9,3.6l-3.4,0.4l0.9-4c0-1.6-0.1-3.4-0.2-5.4c-0.1-2-0.2-3.1-0.2-3.4l0-0.4l3.3-1.3v3.5
			l0,2V16.9z"/>
		<path class="st6" d="M403.9,22.1c0-0.5,0-1.1,0.1-1.8l3.1,0.2c-0.1,0.2-0.1,0.4-0.1,0.6s0.1,0.4,0.2,0.5c0.2,0.1,0.3,0.2,0.5,0.2
			s0.4,0,0.6-0.1c0.2-0.1,0.3-0.2,0.5-0.4c0.4-0.4,0.5-0.8,0.5-1.4c0-0.4-0.1-0.6-0.3-0.8c-0.4-0.3-1-0.4-1.8-0.4
			c-0.5,0-1.4,0.1-2.8,0.4c0.3-2.1,0.7-4.7,1.3-7.9l7.6-0.3l-0.4,3.3c-1.4,0.1-3,0.1-4.6,0.2c0,0.2-0.1,0.4-0.1,0.7l-0.1,1
			c2.4,0,3.9,0.6,4.5,1.9c0.2,0.4,0.3,0.8,0.3,1.3c0,0.5-0.1,0.9-0.2,1.4c-0.2,0.5-0.4,1-0.7,1.5c-0.3,0.5-0.6,0.9-1,1.3
			c-0.4,0.4-0.8,0.8-1.2,1.1c-0.9,0.7-1.8,1-2.6,1c-1,0-1.8-0.3-2.4-1C404.2,23.9,403.9,23.1,403.9,22.1z"/>
	</g>
</g>
<g>
	<g>
		<path class="st6" d="M461.7,25.5c1.4-7.1,2.3-11.9,2.6-14.2c0.6-0.1,1.2-0.2,1.7-0.3s1.2-0.1,1.9-0.1s1.3,0.1,1.8,0.3
			c0.5,0.2,0.9,0.5,1.2,0.9c0.6,0.8,0.9,1.8,0.9,3.1c0,1.4-0.4,2.9-1.1,4.5c-0.8,1.7-1.8,3-3.1,4c-1.5,1.2-3,1.7-4.7,1.7
			C462.5,25.6,462.1,25.5,461.7,25.5z M465.2,23.1c0.9-0.6,1.8-1.8,2.5-3.7c0.4-1,0.7-1.9,0.9-2.6s0.2-1.3,0.2-1.7
			c0-0.4-0.1-0.7-0.4-1c-0.3-0.3-0.7-0.4-1.3-0.4c-0.2,1.1-0.5,2.3-0.8,3.6C465.8,19.5,465.4,21.4,465.2,23.1z"/>
		<path class="st6" d="M474,22.1l-0.8,2.9c-0.3,0-0.6,0.1-1,0.1c-0.4,0.1-0.8,0.1-1.2,0.1c-0.4,0-0.8,0.1-1.2,0.1
			c0.5-1.8,1-3.3,1.4-4.5c0.4-1.2,0.7-2.2,0.9-3c0.2-0.8,0.5-1.6,0.7-2.3c0.2-0.8,0.4-1.5,0.7-2.2s0.4-1.4,0.6-2
			c2.4-0.2,4.2-0.4,5.5-0.6c-0.1,1.3-0.2,2.8-0.3,4.6c-0.2,3.5-0.3,6.7-0.4,9.7c-0.4,0.1-0.8,0.1-1.1,0.2c-0.4,0.1-0.8,0.1-1.2,0.2
			c-0.4,0.1-0.8,0.1-1.1,0.2c0.1-1.3,0.3-2.4,0.4-3.4H474z M474.5,20.1L476,20c0-0.1,0-0.2,0-0.4c0-0.2,0-0.4,0.1-0.7
			c0.1-1.4,0.2-2.7,0.3-3.9l0.1-1.7l-0.3,0L474.5,20.1z"/>
		<path class="st6" d="M483.5,16.9c0.4-1.1,1.1-3,2.1-5.9l3.1,0.7c-0.7,1.5-1.4,2.8-1.9,4l-1.3,2.6c-0.2,0.5-0.5,1-0.7,1.5
			c-0.2,0.5-0.5,1-0.7,1.4c-0.2,1-0.5,2.2-0.9,3.6l-3.4,0.4l0.9-4c0-1.6-0.1-3.4-0.2-5.4s-0.2-3.1-0.2-3.4l0-0.4l3.3-1.3v3.5l0,2
			V16.9z"/>
		<path class="st6" d="M497.8,15.5c0-1-0.2-1.4-0.7-1.4c-0.3,0-0.7,0.4-1.1,1.1c-0.4,0.7-0.8,1.6-1,2.7c0.6-0.2,1.1-0.3,1.7-0.3
			s1,0.1,1.4,0.3c0.4,0.2,0.8,0.4,1.1,0.8c0.6,0.7,0.9,1.5,0.9,2.4c0,1.2-0.4,2.2-1.2,3c-0.9,0.9-2.1,1.4-3.7,1.4
			c-1.2,0-2.2-0.4-2.9-1.2c-0.8-0.9-1.3-2.2-1.3-3.8s0.2-3,0.7-4.2c0.4-1.2,1-2.2,1.6-3c0.7-0.8,1.4-1.4,2.1-1.8
			c0.8-0.4,1.5-0.6,2-0.6s1.1,0.1,1.4,0.3c0.4,0.2,0.7,0.4,0.9,0.8c0.5,0.6,0.8,1.4,0.8,2.4L497.8,15.5z M497,20.2
			c-0.2-0.2-0.5-0.2-0.9-0.2c-0.6,0-1.1,0.1-1.6,0.2c0,0.1,0,0.2,0,0.2s0,0.2,0,0.2c0,0.6,0.1,1.1,0.3,1.3c0.2,0.3,0.4,0.4,0.7,0.4
			c0.5,0,1-0.2,1.3-0.5c0.4-0.3,0.5-0.7,0.5-1.1C497.3,20.6,497.2,20.4,497,20.2z"/>
	</g>
</g>
<g>
	<g>
		<path class="st6" d="M550.2,25.5c1.4-7.1,2.3-11.9,2.6-14.2c0.6-0.1,1.2-0.2,1.7-0.3s1.2-0.1,1.9-0.1c0.7,0,1.3,0.1,1.8,0.3
			c0.5,0.2,0.9,0.5,1.2,0.9c0.6,0.8,0.9,1.8,0.9,3.1c0,1.4-0.4,2.9-1.1,4.5c-0.8,1.7-1.8,3-3.1,4c-1.5,1.2-3,1.7-4.7,1.7
			C551,25.6,550.7,25.5,550.2,25.5z M553.7,23.1c0.9-0.6,1.8-1.8,2.5-3.7c0.4-1,0.7-1.9,0.9-2.6c0.1-0.7,0.2-1.3,0.2-1.7
			c0-0.4-0.1-0.7-0.4-1c-0.3-0.3-0.7-0.4-1.3-0.4c-0.2,1.1-0.5,2.3-0.8,3.6C554.4,19.5,554,21.4,553.7,23.1z"/>
		<path class="st6" d="M562.6,22.1l-0.8,2.9c-0.3,0-0.6,0.1-1,0.1c-0.4,0.1-0.8,0.1-1.2,0.1c-0.4,0-0.8,0.1-1.2,0.1
			c0.5-1.8,1-3.3,1.4-4.5c0.4-1.2,0.7-2.2,0.9-3c0.2-0.8,0.5-1.6,0.7-2.3c0.2-0.8,0.4-1.5,0.7-2.2s0.4-1.4,0.6-2
			c2.4-0.2,4.2-0.4,5.5-0.6c-0.1,1.3-0.2,2.8-0.3,4.6c-0.2,3.5-0.3,6.7-0.4,9.7c-0.4,0.1-0.8,0.1-1.1,0.2c-0.4,0.1-0.8,0.1-1.2,0.2
			c-0.4,0.1-0.8,0.1-1.1,0.2c0.1-1.3,0.3-2.4,0.4-3.4H562.6z M563.1,20.1l1.4-0.1c0-0.1,0-0.2,0-0.4c0-0.2,0-0.4,0.1-0.7
			c0.1-1.4,0.2-2.7,0.3-3.9l0.1-1.7l-0.3,0L563.1,20.1z"/>
		<path class="st6" d="M572.1,16.9c0.4-1.1,1.1-3,2.1-5.9l3.1,0.7c-0.7,1.5-1.4,2.8-1.9,4l-1.3,2.6c-0.2,0.5-0.5,1-0.7,1.5
			c-0.2,0.5-0.5,1-0.7,1.4c-0.2,1-0.5,2.2-0.9,3.6l-3.4,0.4l0.9-4c0-1.6-0.1-3.4-0.2-5.4c-0.1-2-0.2-3.1-0.2-3.4l0-0.4l3.3-1.3v3.5
			l0,2V16.9z"/>
		<path class="st6" d="M587.7,10.7L582.6,25l-3.6,0.3l4-10.9l-2.9,0.4l0.6-3.5L587.7,10.7z"/>
	</g>
</g>
<g>
	<rect x="610.1" y="10.9" class="st0" width="89.3" height="17.4"/>
	<path class="st6" d="M635.6,25.5c1.4-7.1,2.3-11.9,2.6-14.2c0.6-0.1,1.2-0.2,1.7-0.3s1.2-0.1,1.9-0.1c0.7,0,1.3,0.1,1.8,0.3
		c0.5,0.2,0.9,0.5,1.2,0.9c0.6,0.8,0.9,1.8,0.9,3.1c0,1.4-0.4,2.9-1.1,4.5c-0.8,1.7-1.8,3-3.1,4c-1.5,1.2-3,1.7-4.7,1.7
		C636.4,25.6,636,25.5,635.6,25.5z M639.1,23.1c0.9-0.6,1.8-1.8,2.5-3.7c0.4-1,0.7-1.9,0.9-2.6c0.1-0.7,0.2-1.3,0.2-1.7
		c0-0.4-0.1-0.7-0.4-1c-0.3-0.3-0.7-0.4-1.3-0.4c-0.2,1.1-0.5,2.3-0.8,3.6C639.7,19.5,639.3,21.4,639.1,23.1z"/>
	<path class="st6" d="M647.9,22.1l-0.8,2.9c-0.3,0-0.6,0.1-1,0.1c-0.4,0.1-0.8,0.1-1.2,0.1c-0.4,0-0.8,0.1-1.2,0.1
		c0.5-1.8,1-3.3,1.4-4.5c0.4-1.2,0.7-2.2,0.9-3c0.2-0.8,0.5-1.6,0.7-2.3c0.2-0.8,0.4-1.5,0.7-2.2s0.4-1.4,0.6-2
		c2.4-0.2,4.2-0.4,5.5-0.6c-0.1,1.3-0.2,2.8-0.3,4.6c-0.2,3.5-0.3,6.7-0.4,9.7c-0.4,0.1-0.8,0.1-1.1,0.2c-0.4,0.1-0.8,0.1-1.2,0.2
		c-0.4,0.1-0.8,0.1-1.1,0.2c0.1-1.3,0.3-2.4,0.4-3.4H647.9z M648.4,20.1l1.4-0.1c0-0.1,0-0.2,0-0.4c0-0.2,0-0.4,0.1-0.7
		c0.1-1.4,0.2-2.7,0.3-3.9l0.1-1.7l-0.3,0L648.4,20.1z"/>
	<path class="st6" d="M657.4,16.9c0.4-1.1,1.1-3,2.1-5.9l3.1,0.7c-0.7,1.5-1.4,2.8-1.9,4l-1.3,2.6c-0.2,0.5-0.5,1-0.7,1.5
		c-0.2,0.5-0.5,1-0.7,1.4c-0.2,1-0.5,2.2-0.9,3.6l-3.4,0.4l0.9-4c0-1.6-0.1-3.4-0.2-5.4c-0.1-2-0.2-3.1-0.2-3.4l0-0.4l3.3-1.3v3.5
		l0,2V16.9z"/>
	<path class="st6" d="M667.4,17.5c-0.8-0.7-1.2-1.4-1.2-2.3c0-0.6,0.2-1.2,0.5-1.7c0.4-0.6,0.8-1,1.4-1.5s1.2-0.8,1.9-1
		c0.7-0.3,1.4-0.4,2.1-0.4c0.7,0,1.2,0.1,1.6,0.3c0.4,0.2,0.8,0.4,1.1,0.7c0.5,0.5,0.8,1.3,0.8,2.1c0,1.1-0.5,2.1-1.4,3
		c-0.3,0.3-0.6,0.5-1,0.6c0.9,0.9,1.3,2,1.3,3.2c0,0.7-0.2,1.4-0.5,2c-0.3,0.6-0.8,1.2-1.3,1.7c-1.2,1.1-2.7,1.6-4.3,1.6
		c-2,0-3.2-0.6-3.8-1.8c-0.2-0.4-0.3-0.9-0.3-1.4c0-0.5,0.1-1,0.2-1.5s0.3-1,0.6-1.4C665.5,18.6,666.3,17.9,667.4,17.5z M671.4,20.7
		c0-0.6-0.1-1-0.4-1.3c-0.3-0.3-0.6-0.4-1-0.4s-0.7,0.1-1,0.2c-0.3,0.1-0.7,0.3-0.9,0.6c-0.7,0.5-1,1.1-1,1.7c0,0.3,0.1,0.6,0.4,0.9
		c0.3,0.3,0.7,0.4,1.3,0.4s1-0.1,1.3-0.2c0.3-0.1,0.6-0.3,0.8-0.4C671.3,21.7,671.4,21.3,671.4,20.7z M671.7,16
		c0.2-0.2,0.4-0.4,0.5-0.6c0.1-0.2,0.2-0.4,0.2-0.6c0-0.2,0-0.3-0.1-0.5c-0.1-0.1-0.2-0.2-0.3-0.3c-0.3-0.1-0.6-0.2-0.9-0.2
		s-0.6,0-0.8,0.1s-0.4,0.2-0.5,0.4c-0.3,0.3-0.4,0.6-0.4,1c0,0.4,0.1,0.7,0.3,0.9c0.2,0.2,0.4,0.3,0.7,0.3c0.3,0,0.5-0.1,0.8-0.2
		C671.3,16.4,671.5,16.2,671.7,16z"/>
</g>
<g>
	<g>
		<path class="st6" d="M27.5,25.5c1.4-7.1,2.3-11.9,2.6-14.2c0.6-0.1,1.2-0.2,1.7-0.3c0.6-0.1,1.2-0.1,1.9-0.1
			c0.7,0,1.3,0.1,1.8,0.3c0.5,0.2,0.9,0.5,1.2,0.9c0.6,0.8,0.9,1.8,0.9,3.1c0,1.4-0.4,2.9-1.1,4.5c-0.8,1.7-1.8,3-3.1,4
			c-1.5,1.2-3,1.7-4.7,1.7C28.4,25.6,28,25.5,27.5,25.5z M31,23.1c0.9-0.6,1.8-1.8,2.5-3.7c0.4-1,0.7-1.9,0.9-2.6
			c0.1-0.7,0.2-1.3,0.2-1.7c0-0.4-0.1-0.7-0.4-1c-0.3-0.3-0.7-0.4-1.3-0.4c-0.2,1.1-0.5,2.3-0.8,3.6C31.7,19.5,31.3,21.4,31,23.1z"
			/>
		<path class="st6" d="M39.9,22.1l-0.8,2.9c-0.3,0-0.6,0.1-1,0.1c-0.4,0.1-0.8,0.1-1.2,0.1c-0.4,0-0.8,0.1-1.2,0.1
			c0.5-1.8,1-3.3,1.4-4.5c0.4-1.2,0.7-2.2,0.9-3c0.2-0.8,0.5-1.6,0.7-2.3c0.2-0.8,0.4-1.5,0.7-2.2s0.4-1.4,0.6-2
			c2.4-0.2,4.2-0.4,5.5-0.6c-0.1,1.3-0.2,2.8-0.3,4.6c-0.2,3.5-0.3,6.7-0.4,9.7c-0.4,0.1-0.8,0.1-1.1,0.2c-0.4,0.1-0.8,0.1-1.2,0.2
			c-0.4,0.1-0.8,0.1-1.1,0.2c0.1-1.3,0.3-2.4,0.4-3.4H39.9z M40.4,20.1l1.4-0.1c0-0.1,0-0.2,0-0.4c0-0.2,0-0.4,0.1-0.7
			c0.1-1.4,0.2-2.7,0.3-3.9l0.1-1.7l-0.3,0L40.4,20.1z"/>
		<path class="st6" d="M49.4,16.9c0.4-1.1,1.1-3,2.1-5.9l3.1,0.7c-0.7,1.5-1.4,2.8-1.9,4l-1.3,2.6c-0.2,0.5-0.5,1-0.7,1.5
			c-0.2,0.5-0.5,1-0.7,1.4c-0.2,1-0.5,2.2-0.9,3.6l-3.4,0.4l0.9-4c0-1.6-0.1-3.4-0.2-5.4c-0.1-2-0.2-3.1-0.2-3.4l0-0.4l3.3-1.3v3.5
			l0,2V16.9z"/>
		<path class="st6" d="M57.2,15.6l0.5-3.5c1-0.2,2-0.4,2.9-0.5c0.9-0.1,1.9-0.3,3.1-0.5c-0.7,3-1.4,6.4-2.1,10.1
			c-0.2,1.1-0.4,2.3-0.6,3.5c-0.9,0.3-2,0.5-3.6,0.8c0.3-1.2,0.5-2.2,0.7-3.1c0.2-0.9,0.3-1.6,0.4-2.1s0.2-1.1,0.4-1.7
			c0.1-0.7,0.3-1.8,0.6-3.3c-0.4,0-0.8,0.1-1.3,0.2C57.8,15.5,57.4,15.5,57.2,15.6z"/>
	</g>
</g>
<g>
	<g>
		<path d="M53.3,56.1c-1,0-1.7,0.7-1.9,2h2.5v0.6h-2.6l0,0.3v0.3l0,0.2h2.3v0.6h-2.2c0.1,0.6,0.3,1,0.7,1.4c0.3,0.3,0.8,0.5,1.3,0.5
			c0.5,0,1-0.1,1.5-0.3v0.7c-0.5,0.2-1,0.3-1.5,0.3c-0.8,0-1.4-0.2-1.9-0.7c-0.5-0.4-0.8-1.1-0.9-1.9h-0.8v-0.6h0.7l0-0.2v-0.2
			l0-0.4h-0.7V58h0.8c0.1-0.8,0.4-1.5,0.9-2c0.5-0.5,1.1-0.7,1.9-0.7c0.7,0,1.3,0.2,1.8,0.5l-0.3,0.7C54.2,56.2,53.7,56.1,53.3,56.1
			z"/>
		<path d="M63.1,62.6h-4.7v-0.7l1.9-1.9c0.6-0.6,1-1,1.1-1.2c0.2-0.2,0.3-0.5,0.4-0.7s0.1-0.5,0.1-0.8c0-0.4-0.1-0.7-0.3-0.9
			c-0.2-0.2-0.6-0.3-1-0.3c-0.3,0-0.6,0-0.8,0.1s-0.6,0.3-0.9,0.5l-0.4-0.6c0.7-0.5,1.4-0.8,2.1-0.8c0.7,0,1.2,0.2,1.6,0.5
			c0.4,0.3,0.6,0.8,0.6,1.4c0,0.5-0.1,0.9-0.4,1.3c-0.3,0.4-0.7,1-1.4,1.7l-1.6,1.5v0h3.7V62.6z"/>
		<path d="M66.4,58.2c0.8,0,1.3,0.2,1.8,0.6c0.4,0.4,0.6,0.9,0.6,1.5c0,0.7-0.2,1.3-0.7,1.7s-1.1,0.6-1.9,0.6
			c-0.8,0-1.4-0.1-1.8-0.4v-0.8c0.2,0.1,0.5,0.3,0.8,0.3s0.7,0.1,1,0.1c0.6,0,1-0.1,1.3-0.4c0.3-0.3,0.5-0.7,0.5-1.2
			c0-1-0.6-1.5-1.8-1.5c-0.3,0-0.7,0-1.2,0.1l-0.4-0.3l0.3-3.3h3.5v0.7h-2.9l-0.2,2.1C65.6,58.3,66,58.2,66.4,58.2z"/>
		<path d="M70.1,62.1c0-0.2,0-0.4,0.1-0.5s0.2-0.2,0.4-0.2c0.2,0,0.3,0.1,0.4,0.2s0.2,0.3,0.2,0.5c0,0.2-0.1,0.4-0.2,0.5
			c-0.1,0.1-0.3,0.2-0.4,0.2c-0.2,0-0.3-0.1-0.4-0.2S70.1,62.3,70.1,62.1z"/>
		<path d="M77.2,59c0,1.2-0.2,2.2-0.6,2.8c-0.4,0.6-1,0.9-1.8,0.9c-0.8,0-1.4-0.3-1.8-0.9c-0.4-0.6-0.6-1.5-0.6-2.7
			c0-1.2,0.2-2.2,0.6-2.8c0.4-0.6,1-0.9,1.8-0.9c0.8,0,1.4,0.3,1.8,0.9C77,56.9,77.2,57.8,77.2,59z M73.3,59c0,1,0.1,1.8,0.4,2.3
			s0.6,0.7,1.2,0.7c0.5,0,0.9-0.2,1.2-0.7c0.2-0.5,0.4-1.2,0.4-2.3s-0.1-1.8-0.4-2.3c-0.2-0.5-0.6-0.7-1.2-0.7
			c-0.5,0-0.9,0.2-1.2,0.7C73.5,57.2,73.3,58,73.3,59z"/>
		<path d="M83,59c0,1.2-0.2,2.2-0.6,2.8c-0.4,0.6-1,0.9-1.8,0.9c-0.8,0-1.4-0.3-1.8-0.9c-0.4-0.6-0.6-1.5-0.6-2.7
			c0-1.2,0.2-2.2,0.6-2.8c0.4-0.6,1-0.9,1.8-0.9c0.8,0,1.4,0.3,1.8,0.9C82.8,56.9,83,57.8,83,59z M79.1,59c0,1,0.1,1.8,0.4,2.3
			s0.6,0.7,1.2,0.7c0.5,0,0.9-0.2,1.2-0.7c0.2-0.5,0.4-1.2,0.4-2.3s-0.1-1.8-0.4-2.3c-0.2-0.5-0.6-0.7-1.2-0.7
			c-0.5,0-0.9,0.2-1.2,0.7C79.2,57.2,79.1,58,79.1,59z"/>
	</g>
</g>
<g>
	<g>
		<path d="M9.9,56c-1,0-1.7,0.7-1.9,2h2.5v0.6H7.9l0,0.3v0.3l0,0.2h2.3v0.6H8c0.1,0.6,0.3,1,0.7,1.4c0.3,0.3,0.8,0.5,1.3,0.5
			c0.5,0,1-0.1,1.5-0.3v0.7c-0.5,0.2-1,0.3-1.5,0.3c-0.8,0-1.4-0.2-1.9-0.7c-0.5-0.4-0.8-1.1-0.9-1.9H6.3v-0.6h0.7l0-0.2V59l0-0.4
			H6.3V58h0.8c0.1-0.8,0.4-1.5,0.9-2c0.5-0.5,1.1-0.7,1.9-0.7c0.7,0,1.3,0.2,1.8,0.5l-0.3,0.7C10.8,56.2,10.3,56,9.9,56z"/>
		<path d="M18,62.5h-0.8v-5.1c0-0.4,0-0.8,0-1.2c-0.1,0.1-0.1,0.1-0.2,0.2c-0.1,0.1-0.5,0.4-1.2,1l-0.4-0.6l1.9-1.5H18V62.5z"/>
		<path d="M21.6,62.5l3-6.4h-3.9v-0.7h4.8V56l-2.9,6.5H21.6z"/>
		<path d="M26.7,62c0-0.2,0-0.4,0.1-0.5s0.2-0.2,0.4-0.2c0.2,0,0.3,0.1,0.4,0.2s0.2,0.3,0.2,0.5c0,0.2-0.1,0.4-0.2,0.5
			c-0.1,0.1-0.3,0.2-0.4,0.2c-0.2,0-0.3-0.1-0.4-0.2S26.7,62.2,26.7,62z"/>
		<path d="M31.3,58.2c0.8,0,1.3,0.2,1.8,0.6c0.4,0.4,0.6,0.9,0.6,1.5c0,0.7-0.2,1.3-0.7,1.7s-1.1,0.6-1.9,0.6
			c-0.8,0-1.4-0.1-1.8-0.4v-0.8c0.2,0.1,0.5,0.3,0.8,0.3s0.7,0.1,1,0.1c0.6,0,1-0.1,1.3-0.4c0.3-0.3,0.5-0.7,0.5-1.2
			c0-1-0.6-1.5-1.8-1.5c-0.3,0-0.7,0-1.2,0.1l-0.4-0.3l0.3-3.3h3.5v0.7h-2.9l-0.2,2.1C30.6,58.2,30.9,58.2,31.3,58.2z"/>
		<path d="M39.5,58.9c0,1.2-0.2,2.2-0.6,2.8c-0.4,0.6-1,0.9-1.8,0.9c-0.8,0-1.4-0.3-1.8-0.9c-0.4-0.6-0.6-1.5-0.6-2.7
			c0-1.2,0.2-2.2,0.6-2.8c0.4-0.6,1-0.9,1.8-0.9c0.8,0,1.4,0.3,1.8,0.9C39.3,56.8,39.5,57.8,39.5,58.9z M35.6,58.9
			c0,1,0.1,1.8,0.4,2.3s0.6,0.7,1.2,0.7c0.5,0,0.9-0.2,1.2-0.7c0.2-0.5,0.4-1.2,0.4-2.3s-0.1-1.8-0.4-2.3c-0.2-0.5-0.6-0.7-1.2-0.7
			c-0.5,0-0.9,0.2-1.2,0.7C35.8,57.2,35.6,57.9,35.6,58.9z"/>
	</g>
</g>
<g>
	<g>
		<path d="M97,57c-1,0-1.7,0.7-1.9,2h2.5v0.6H95l0,0.3v0.3l0,0.2h2.3v0.6h-2.2c0.1,0.6,0.3,1,0.7,1.4c0.3,0.3,0.8,0.5,1.3,0.5
			c0.5,0,1-0.1,1.5-0.3v0.7c-0.5,0.2-1,0.3-1.5,0.3c-0.8,0-1.4-0.2-1.9-0.7c-0.5-0.4-0.8-1.1-0.9-1.9h-0.8v-0.6h0.7l0-0.2V60l0-0.4
			h-0.7V59h0.8c0.1-0.8,0.4-1.5,0.9-2c0.5-0.5,1.1-0.7,1.9-0.7c0.7,0,1.3,0.2,1.8,0.5l-0.3,0.7C97.9,57.2,97.5,57,97,57z"/>
		<path d="M106.8,63.5h-4.7v-0.7l1.9-1.9c0.6-0.6,1-1,1.1-1.2c0.2-0.2,0.3-0.5,0.4-0.7c0.1-0.2,0.1-0.5,0.1-0.8
			c0-0.4-0.1-0.7-0.3-0.9c-0.2-0.2-0.6-0.3-1-0.3c-0.3,0-0.6,0-0.8,0.1c-0.3,0.1-0.6,0.3-0.9,0.5l-0.4-0.6c0.7-0.5,1.4-0.8,2.1-0.8
			c0.7,0,1.2,0.2,1.6,0.5c0.4,0.3,0.6,0.8,0.6,1.4c0,0.5-0.1,0.9-0.4,1.3c-0.3,0.4-0.7,1-1.4,1.7l-1.6,1.5v0h3.7V63.5z"/>
		<path d="M110.1,59.2c0.8,0,1.3,0.2,1.8,0.6c0.4,0.4,0.6,0.9,0.6,1.5c0,0.7-0.2,1.3-0.7,1.7c-0.5,0.4-1.1,0.6-1.9,0.6
			c-0.8,0-1.4-0.1-1.8-0.4v-0.8c0.2,0.1,0.5,0.3,0.8,0.3c0.3,0.1,0.7,0.1,1,0.1c0.6,0,1-0.1,1.3-0.4c0.3-0.3,0.5-0.7,0.5-1.2
			c0-1-0.6-1.5-1.8-1.5c-0.3,0-0.7,0-1.2,0.1l-0.4-0.3l0.3-3.3h3.5v0.7h-2.9l-0.2,2.1C109.4,59.2,109.7,59.2,110.1,59.2z"/>
		<path d="M113.8,63c0-0.2,0-0.4,0.1-0.5c0.1-0.1,0.2-0.2,0.4-0.2c0.2,0,0.3,0.1,0.4,0.2c0.1,0.1,0.2,0.3,0.2,0.5
			c0,0.2-0.1,0.4-0.2,0.5c-0.1,0.1-0.3,0.2-0.4,0.2c-0.2,0-0.3-0.1-0.4-0.2C113.9,63.4,113.8,63.2,113.8,63z"/>
		<path d="M121,59.9c0,1.2-0.2,2.2-0.6,2.8c-0.4,0.6-1,0.9-1.8,0.9c-0.8,0-1.4-0.3-1.8-0.9c-0.4-0.6-0.6-1.5-0.6-2.7
			c0-1.2,0.2-2.2,0.6-2.8c0.4-0.6,1-0.9,1.8-0.9c0.8,0,1.4,0.3,1.8,0.9C120.8,57.8,121,58.8,121,59.9z M117.1,59.9
			c0,1,0.1,1.8,0.4,2.3s0.6,0.7,1.2,0.7c0.5,0,0.9-0.2,1.2-0.7c0.2-0.5,0.4-1.2,0.4-2.3s-0.1-1.8-0.4-2.3c-0.2-0.5-0.6-0.7-1.2-0.7
			c-0.5,0-0.9,0.2-1.2,0.7C117.2,58.2,117.1,58.9,117.1,59.9z"/>
		<path d="M126.7,59.9c0,1.2-0.2,2.2-0.6,2.8c-0.4,0.6-1,0.9-1.8,0.9c-0.8,0-1.4-0.3-1.8-0.9c-0.4-0.6-0.6-1.5-0.6-2.7
			c0-1.2,0.2-2.2,0.6-2.8c0.4-0.6,1-0.9,1.8-0.9c0.8,0,1.4,0.3,1.8,0.9C126.5,57.8,126.7,58.8,126.7,59.9z M122.8,59.9
			c0,1,0.1,1.8,0.4,2.3s0.6,0.7,1.2,0.7c0.5,0,0.9-0.2,1.2-0.7c0.2-0.5,0.4-1.2,0.4-2.3s-0.1-1.8-0.4-2.3c-0.2-0.5-0.6-0.7-1.2-0.7
			c-0.5,0-0.9,0.2-1.2,0.7C122.9,58.2,122.8,58.9,122.8,59.9z"/>
	</g>
</g>
<g>
	<rect x="130.7" y="54.9" class="st0" width="46" height="15.8"/>
	<path d="M140.6,56c-1,0-1.7,0.7-1.9,2h2.5v0.6h-2.6l0,0.3v0.3l0,0.2h2.3v0.6h-2.2c0.1,0.6,0.3,1,0.7,1.4c0.3,0.3,0.8,0.5,1.3,0.5
		c0.5,0,1-0.1,1.5-0.3v0.7c-0.5,0.2-1,0.3-1.5,0.3c-0.8,0-1.4-0.2-1.9-0.7c-0.5-0.4-0.8-1.1-0.9-1.9H137v-0.6h0.7l0-0.2V59l0-0.4
		H137V58h0.8c0.1-0.8,0.4-1.5,0.9-2c0.5-0.5,1.1-0.7,1.9-0.7c0.7,0,1.3,0.2,1.8,0.5l-0.3,0.7C141.5,56.2,141,56,140.6,56z"/>
	<path d="M150.1,57.1c0,0.5-0.1,0.8-0.4,1.1c-0.3,0.3-0.6,0.5-1.1,0.6v0c0.6,0.1,1,0.3,1.3,0.5s0.4,0.7,0.4,1.2
		c0,0.7-0.2,1.2-0.7,1.6s-1.1,0.5-2,0.5c-0.4,0-0.7,0-1-0.1c-0.3-0.1-0.6-0.2-0.9-0.3v-0.8c0.3,0.2,0.6,0.3,1,0.3
		c0.4,0.1,0.7,0.1,1,0.1c1.2,0,1.9-0.5,1.9-1.5c0-0.9-0.7-1.3-2-1.3h-0.7v-0.7h0.7c0.6,0,1-0.1,1.3-0.4c0.3-0.2,0.5-0.6,0.5-1
		c0-0.3-0.1-0.6-0.4-0.8c-0.2-0.2-0.6-0.3-1-0.3c-0.3,0-0.6,0-0.9,0.1c-0.3,0.1-0.6,0.2-0.9,0.5l-0.4-0.5c0.3-0.2,0.6-0.4,1-0.5
		s0.8-0.2,1.2-0.2c0.7,0,1.2,0.2,1.6,0.5S150.1,56.5,150.1,57.1z"/>
	<path d="M152.3,62.5l3-6.4h-3.9v-0.7h4.8V56l-2.9,6.5H152.3z"/>
	<path d="M157.4,62c0-0.2,0-0.4,0.1-0.5s0.2-0.2,0.4-0.2c0.2,0,0.3,0.1,0.4,0.2s0.2,0.3,0.2,0.5c0,0.2-0.1,0.4-0.2,0.5
		c-0.1,0.1-0.3,0.2-0.4,0.2c-0.2,0-0.3-0.1-0.4-0.2S157.4,62.2,157.4,62z"/>
	<path d="M162,58.2c0.8,0,1.3,0.2,1.8,0.6c0.4,0.4,0.6,0.9,0.6,1.5c0,0.7-0.2,1.3-0.7,1.7s-1.1,0.6-1.9,0.6c-0.8,0-1.4-0.1-1.8-0.4
		v-0.8c0.2,0.1,0.5,0.3,0.8,0.3s0.7,0.1,1,0.1c0.6,0,1-0.1,1.3-0.4c0.3-0.3,0.5-0.7,0.5-1.2c0-1-0.6-1.5-1.8-1.5
		c-0.3,0-0.7,0-1.2,0.1l-0.4-0.3l0.3-3.3h3.5v0.7h-2.9l-0.2,2.1C161.3,58.2,161.7,58.2,162,58.2z"/>
	<path d="M170.3,58.9c0,1.2-0.2,2.2-0.6,2.8c-0.4,0.6-1,0.9-1.8,0.9c-0.8,0-1.4-0.3-1.8-0.9c-0.4-0.6-0.6-1.5-0.6-2.7
		c0-1.2,0.2-2.2,0.6-2.8c0.4-0.6,1-0.9,1.8-0.9c0.8,0,1.4,0.3,1.8,0.9C170.1,56.8,170.3,57.8,170.3,58.9z M166.4,58.9
		c0,1,0.1,1.8,0.4,2.3s0.6,0.7,1.2,0.7c0.5,0,0.9-0.2,1.2-0.7c0.2-0.5,0.4-1.2,0.4-2.3s-0.1-1.8-0.4-2.3c-0.2-0.5-0.6-0.7-1.2-0.7
		c-0.5,0-0.9,0.2-1.2,0.7C166.5,57.2,166.4,57.9,166.4,58.9z"/>
</g>
<g>
	<g>
		<path d="M184.2,56.1c-1,0-1.7,0.7-1.9,2h2.5v0.6h-2.6l0,0.3v0.3l0,0.2h2.3v0.6h-2.2c0.1,0.6,0.3,1,0.7,1.4
			c0.3,0.3,0.8,0.5,1.3,0.5c0.5,0,1-0.1,1.5-0.3v0.7c-0.5,0.2-1,0.3-1.5,0.3c-0.8,0-1.4-0.2-1.9-0.7c-0.5-0.4-0.8-1.1-0.9-1.9h-0.8
			v-0.6h0.7l0-0.2v-0.2l0-0.4h-0.7V58h0.8c0.1-0.8,0.4-1.5,0.9-2c0.5-0.5,1.1-0.7,1.9-0.7c0.7,0,1.3,0.2,1.8,0.5l-0.3,0.7
			C185.1,56.2,184.6,56.1,184.2,56.1z"/>
		<path d="M191.5,58.2c0.8,0,1.3,0.2,1.8,0.6c0.4,0.4,0.6,0.9,0.6,1.5c0,0.7-0.2,1.3-0.7,1.7s-1.1,0.6-1.9,0.6
			c-0.8,0-1.4-0.1-1.8-0.4v-0.8c0.2,0.1,0.5,0.3,0.8,0.3s0.7,0.1,1,0.1c0.6,0,1-0.1,1.3-0.4c0.3-0.3,0.5-0.7,0.5-1.2
			c0-1-0.6-1.5-1.8-1.5c-0.3,0-0.7,0-1.2,0.1l-0.4-0.3l0.3-3.3h3.5v0.7h-2.9l-0.2,2.1C190.8,58.3,191.1,58.2,191.5,58.2z"/>
		<path d="M199.7,59c0,1.2-0.2,2.2-0.6,2.8c-0.4,0.6-1,0.9-1.8,0.9c-0.8,0-1.4-0.3-1.8-0.9c-0.4-0.6-0.6-1.5-0.6-2.7
			c0-1.2,0.2-2.2,0.6-2.8c0.4-0.6,1-0.9,1.8-0.9c0.8,0,1.4,0.3,1.8,0.9C199.5,56.9,199.7,57.8,199.7,59z M195.8,59
			c0,1,0.1,1.8,0.4,2.3s0.6,0.7,1.2,0.7c0.5,0,0.9-0.2,1.2-0.7c0.2-0.5,0.4-1.2,0.4-2.3s-0.1-1.8-0.4-2.3c-0.2-0.5-0.6-0.7-1.2-0.7
			c-0.5,0-0.9,0.2-1.2,0.7C195.9,57.2,195.8,58,195.8,59z"/>
		<path d="M201,62.1c0-0.2,0-0.4,0.1-0.5s0.2-0.2,0.4-0.2c0.2,0,0.3,0.1,0.4,0.2s0.2,0.3,0.2,0.5c0,0.2-0.1,0.4-0.2,0.5
			c-0.1,0.1-0.3,0.2-0.4,0.2c-0.2,0-0.3-0.1-0.4-0.2S201,62.3,201,62.1z"/>
		<path d="M208.1,59c0,1.2-0.2,2.2-0.6,2.8c-0.4,0.6-1,0.9-1.8,0.9c-0.8,0-1.4-0.3-1.8-0.9c-0.4-0.6-0.6-1.5-0.6-2.7
			c0-1.2,0.2-2.2,0.6-2.8c0.4-0.6,1-0.9,1.8-0.9c0.8,0,1.4,0.3,1.8,0.9C207.9,56.9,208.1,57.8,208.1,59z M204.2,59
			c0,1,0.1,1.8,0.4,2.3s0.6,0.7,1.2,0.7c0.5,0,0.9-0.2,1.2-0.7c0.2-0.5,0.4-1.2,0.4-2.3s-0.1-1.8-0.4-2.3c-0.2-0.5-0.6-0.7-1.2-0.7
			c-0.5,0-0.9,0.2-1.2,0.7C204.3,57.2,204.2,58,204.2,59z"/>
		<path d="M213.8,59c0,1.2-0.2,2.2-0.6,2.8c-0.4,0.6-1,0.9-1.8,0.9c-0.8,0-1.4-0.3-1.8-0.9c-0.4-0.6-0.6-1.5-0.6-2.7
			c0-1.2,0.2-2.2,0.6-2.8c0.4-0.6,1-0.9,1.8-0.9c0.8,0,1.4,0.3,1.8,0.9C213.6,56.9,213.8,57.8,213.8,59z M209.9,59
			c0,1,0.1,1.8,0.4,2.3s0.6,0.7,1.2,0.7c0.5,0,0.9-0.2,1.2-0.7c0.2-0.5,0.4-1.2,0.4-2.3s-0.1-1.8-0.4-2.3c-0.2-0.5-0.6-0.7-1.2-0.7
			c-0.5,0-0.9,0.2-1.2,0.7C210,57.2,209.9,58,209.9,59z"/>
	</g>
</g>
<g>
	<g>
		<path d="M227.7,56.1c-1,0-1.7,0.7-1.9,2h2.5v0.6h-2.6l0,0.3v0.3l0,0.2h2.3v0.6h-2.2c0.1,0.6,0.3,1,0.7,1.4
			c0.3,0.3,0.8,0.5,1.3,0.5c0.5,0,1-0.1,1.5-0.3v0.7c-0.5,0.2-1,0.3-1.5,0.3c-0.8,0-1.4-0.2-1.9-0.7c-0.5-0.4-0.8-1.1-0.9-1.9h-0.8
			v-0.6h0.7l0-0.2v-0.2l0-0.4h-0.7V58h0.8c0.1-0.8,0.4-1.5,0.9-2c0.5-0.5,1.1-0.7,1.9-0.7c0.7,0,1.3,0.2,1.8,0.5l-0.3,0.7
			C228.6,56.2,228.2,56.1,227.7,56.1z"/>
		<path d="M232.9,59.5c0-1.4,0.3-2.5,0.8-3.1c0.5-0.7,1.4-1,2.4-1c0.4,0,0.7,0,0.9,0.1v0.7c-0.3-0.1-0.5-0.1-0.9-0.1
			c-0.8,0-1.3,0.2-1.8,0.7c-0.4,0.5-0.6,1.2-0.7,2.2h0.1c0.4-0.6,0.9-0.8,1.7-0.8c0.6,0,1.1,0.2,1.5,0.6c0.4,0.4,0.6,0.9,0.6,1.6
			c0,0.7-0.2,1.3-0.6,1.8s-1,0.6-1.6,0.6c-0.7,0-1.3-0.3-1.8-0.8C233.1,61.3,232.9,60.5,232.9,59.5z M235.3,62
			c0.5,0,0.8-0.1,1.1-0.4c0.3-0.3,0.4-0.7,0.4-1.3c0-0.5-0.1-0.8-0.4-1.1c-0.2-0.3-0.6-0.4-1.1-0.4c-0.3,0-0.6,0.1-0.8,0.2
			c-0.2,0.1-0.4,0.3-0.6,0.5c-0.1,0.2-0.2,0.4-0.2,0.7c0,0.3,0.1,0.6,0.2,0.9c0.1,0.3,0.3,0.5,0.6,0.7C234.7,61.9,235,62,235.3,62z"
			/>
		<path d="M243.3,62.6h-4.7v-0.7l1.9-1.9c0.6-0.6,1-1,1.1-1.2c0.2-0.2,0.3-0.5,0.4-0.7s0.1-0.5,0.1-0.8c0-0.4-0.1-0.7-0.3-0.9
			c-0.2-0.2-0.6-0.3-1-0.3c-0.3,0-0.6,0-0.8,0.1s-0.6,0.3-0.9,0.5l-0.4-0.6c0.7-0.5,1.4-0.8,2.1-0.8c0.7,0,1.2,0.2,1.6,0.5
			c0.4,0.3,0.6,0.8,0.6,1.4c0,0.5-0.1,0.9-0.4,1.3c-0.3,0.4-0.7,1-1.4,1.7l-1.6,1.5v0h3.7V62.6z"/>
		<path d="M244.5,62.1c0-0.2,0-0.4,0.1-0.5s0.2-0.2,0.4-0.2c0.2,0,0.3,0.1,0.4,0.2s0.2,0.3,0.2,0.5c0,0.2-0.1,0.4-0.2,0.5
			c-0.1,0.1-0.3,0.2-0.4,0.2c-0.2,0-0.3-0.1-0.4-0.2S244.5,62.3,244.5,62.1z"/>
		<path d="M249.2,58.2c0.8,0,1.3,0.2,1.8,0.6c0.4,0.4,0.6,0.9,0.6,1.5c0,0.7-0.2,1.3-0.7,1.7s-1.1,0.6-1.9,0.6
			c-0.8,0-1.4-0.1-1.8-0.4v-0.8c0.2,0.1,0.5,0.3,0.8,0.3s0.7,0.1,1,0.1c0.6,0,1-0.1,1.3-0.4c0.3-0.3,0.5-0.7,0.5-1.2
			c0-1-0.6-1.5-1.8-1.5c-0.3,0-0.7,0-1.2,0.1l-0.4-0.3l0.3-3.3h3.5v0.7h-2.9l-0.2,2.1C248.4,58.3,248.8,58.2,249.2,58.2z"/>
		<path d="M257.4,59c0,1.2-0.2,2.2-0.6,2.8c-0.4,0.6-1,0.9-1.8,0.9c-0.8,0-1.4-0.3-1.8-0.9c-0.4-0.6-0.6-1.5-0.6-2.7
			c0-1.2,0.2-2.2,0.6-2.8c0.4-0.6,1-0.9,1.8-0.9c0.8,0,1.4,0.3,1.8,0.9C257.2,56.9,257.4,57.8,257.4,59z M253.5,59
			c0,1,0.1,1.8,0.4,2.3s0.6,0.7,1.2,0.7c0.5,0,0.9-0.2,1.2-0.7c0.2-0.5,0.4-1.2,0.4-2.3s-0.1-1.8-0.4-2.3c-0.2-0.5-0.6-0.7-1.2-0.7
			c-0.5,0-0.9,0.2-1.2,0.7C253.6,57.2,253.5,58,253.5,59z"/>
	</g>
</g>
<g>
	<g>
		<path d="M271.3,56.1c-1,0-1.7,0.7-1.9,2h2.5v0.6h-2.6l0,0.3v0.3l0,0.2h2.3v0.6h-2.2c0.1,0.6,0.3,1,0.7,1.4
			c0.3,0.3,0.8,0.5,1.3,0.5c0.5,0,1-0.1,1.5-0.3v0.7c-0.5,0.2-1,0.3-1.5,0.3c-0.8,0-1.4-0.2-1.9-0.7c-0.5-0.4-0.8-1.1-0.9-1.9h-0.8
			v-0.6h0.7l0-0.2v-0.2l0-0.4h-0.7V58h0.8c0.1-0.8,0.4-1.5,0.9-2c0.5-0.5,1.1-0.7,1.9-0.7c0.7,0,1.3,0.2,1.8,0.5l-0.3,0.7
			C272.2,56.2,271.7,56.1,271.3,56.1z"/>
		<path d="M277.3,62.6l3-6.4h-3.9v-0.7h4.8v0.6l-2.9,6.5H277.3z"/>
		<path d="M284.4,58.2c0.8,0,1.3,0.2,1.8,0.6c0.4,0.4,0.6,0.9,0.6,1.5c0,0.7-0.2,1.3-0.7,1.7c-0.5,0.4-1.1,0.6-1.9,0.6
			c-0.8,0-1.4-0.1-1.8-0.4v-0.8c0.2,0.1,0.5,0.3,0.8,0.3c0.3,0.1,0.7,0.1,1,0.1c0.6,0,1-0.1,1.3-0.4c0.3-0.3,0.5-0.7,0.5-1.2
			c0-1-0.6-1.5-1.8-1.5c-0.3,0-0.7,0-1.2,0.1l-0.4-0.3l0.3-3.3h3.5v0.7h-2.9l-0.2,2.1C283.6,58.3,284,58.2,284.4,58.2z"/>
		<path d="M288.1,62.1c0-0.2,0-0.4,0.1-0.5c0.1-0.1,0.2-0.2,0.4-0.2c0.2,0,0.3,0.1,0.4,0.2c0.1,0.1,0.2,0.3,0.2,0.5
			c0,0.2-0.1,0.4-0.2,0.5c-0.1,0.1-0.3,0.2-0.4,0.2c-0.2,0-0.3-0.1-0.4-0.2C288.2,62.5,288.1,62.3,288.1,62.1z"/>
		<path d="M295.2,59c0,1.2-0.2,2.2-0.6,2.8c-0.4,0.6-1,0.9-1.8,0.9c-0.8,0-1.4-0.3-1.8-0.9c-0.4-0.6-0.6-1.5-0.6-2.7
			c0-1.2,0.2-2.2,0.6-2.8c0.4-0.6,1-0.9,1.8-0.9c0.8,0,1.4,0.3,1.8,0.9C295,56.9,295.2,57.8,295.2,59z M291.3,59
			c0,1,0.1,1.8,0.4,2.3s0.6,0.7,1.2,0.7c0.5,0,0.9-0.2,1.2-0.7c0.2-0.5,0.4-1.2,0.4-2.3s-0.1-1.8-0.4-2.3c-0.2-0.5-0.6-0.7-1.2-0.7
			c-0.5,0-0.9,0.2-1.2,0.7C291.5,57.2,291.3,58,291.3,59z"/>
		<path d="M301,59c0,1.2-0.2,2.2-0.6,2.8c-0.4,0.6-1,0.9-1.8,0.9c-0.8,0-1.4-0.3-1.8-0.9c-0.4-0.6-0.6-1.5-0.6-2.7
			c0-1.2,0.2-2.2,0.6-2.8c0.4-0.6,1-0.9,1.8-0.9c0.8,0,1.4,0.3,1.8,0.9C300.8,56.9,301,57.8,301,59z M297.1,59c0,1,0.1,1.8,0.4,2.3
			s0.6,0.7,1.2,0.7c0.5,0,0.9-0.2,1.2-0.7c0.2-0.5,0.4-1.2,0.4-2.3s-0.1-1.8-0.4-2.3c-0.2-0.5-0.6-0.7-1.2-0.7
			c-0.5,0-0.9,0.2-1.2,0.7C297.2,57.2,297.1,58,297.1,59z"/>
	</g>
</g>
<g>
	<g>
		<path d="M314.9,56.1c-1,0-1.7,0.7-1.9,2h2.5v0.6h-2.6l0,0.3v0.3l0,0.2h2.3v0.6h-2.2c0.1,0.6,0.3,1,0.7,1.4
			c0.3,0.3,0.8,0.5,1.3,0.5c0.5,0,1-0.1,1.5-0.3v0.7c-0.5,0.2-1,0.3-1.5,0.3c-0.8,0-1.4-0.2-1.9-0.7c-0.5-0.4-0.8-1.1-0.9-1.9h-0.8
			v-0.6h0.7l0-0.2v-0.2l0-0.4h-0.7V58h0.8c0.1-0.8,0.4-1.5,0.9-2c0.5-0.5,1.1-0.7,1.9-0.7c0.7,0,1.3,0.2,1.8,0.5l-0.3,0.7
			C315.8,56.2,315.3,56.1,314.9,56.1z"/>
		<path d="M322.3,55.3c0.7,0,1.2,0.2,1.5,0.5s0.6,0.7,0.6,1.3c0,0.4-0.1,0.7-0.3,1c-0.2,0.3-0.6,0.6-1,0.8c0.6,0.3,1,0.6,1.2,0.9
			c0.2,0.3,0.4,0.7,0.4,1.1c0,0.6-0.2,1.1-0.6,1.4c-0.4,0.4-1,0.5-1.7,0.5c-0.8,0-1.3-0.2-1.8-0.5c-0.4-0.3-0.6-0.8-0.6-1.4
			c0-0.8,0.5-1.5,1.5-1.9c-0.4-0.3-0.8-0.5-1-0.8c-0.2-0.3-0.3-0.6-0.3-1c0-0.5,0.2-0.9,0.6-1.2S321.7,55.3,322.3,55.3z M320.8,60.8
			c0,0.4,0.1,0.7,0.4,0.9c0.3,0.2,0.7,0.3,1.1,0.3c0.5,0,0.9-0.1,1.1-0.3c0.3-0.2,0.4-0.5,0.4-0.9c0-0.3-0.1-0.6-0.4-0.8
			c-0.3-0.2-0.7-0.5-1.3-0.7c-0.5,0.2-0.8,0.4-1.1,0.7C320.9,60.1,320.8,60.4,320.8,60.8z M322.3,56c-0.4,0-0.7,0.1-1,0.3
			c-0.2,0.2-0.3,0.5-0.3,0.8c0,0.3,0.1,0.6,0.3,0.8c0.2,0.2,0.5,0.4,1.1,0.6c0.5-0.2,0.8-0.4,1-0.6s0.3-0.5,0.3-0.8
			c0-0.3-0.1-0.6-0.4-0.8C323.1,56.1,322.7,56,322.3,56z"/>
		<path d="M326.6,62.6l3-6.4h-3.9v-0.7h4.8v0.6l-2.9,6.5H326.6z"/>
		<path d="M331.7,62.1c0-0.2,0-0.4,0.1-0.5s0.2-0.2,0.4-0.2c0.2,0,0.3,0.1,0.4,0.2s0.2,0.3,0.2,0.5c0,0.2-0.1,0.4-0.2,0.5
			c-0.1,0.1-0.3,0.2-0.4,0.2c-0.2,0-0.3-0.1-0.4-0.2S331.7,62.3,331.7,62.1z"/>
		<path d="M336.3,58.2c0.8,0,1.3,0.2,1.8,0.6c0.4,0.4,0.6,0.9,0.6,1.5c0,0.7-0.2,1.3-0.7,1.7s-1.1,0.6-1.9,0.6
			c-0.8,0-1.4-0.1-1.8-0.4v-0.8c0.2,0.1,0.5,0.3,0.8,0.3c0.3,0.1,0.7,0.1,1,0.1c0.6,0,1-0.1,1.3-0.4c0.3-0.3,0.5-0.7,0.5-1.2
			c0-1-0.6-1.5-1.8-1.5c-0.3,0-0.7,0-1.2,0.1l-0.4-0.3l0.3-3.3h3.5v0.7h-2.9l-0.2,2.1C335.6,58.3,335.9,58.2,336.3,58.2z"/>
		<path d="M344.5,59c0,1.2-0.2,2.2-0.6,2.8c-0.4,0.6-1,0.9-1.8,0.9c-0.8,0-1.4-0.3-1.8-0.9c-0.4-0.6-0.6-1.5-0.6-2.7
			c0-1.2,0.2-2.2,0.6-2.8c0.4-0.6,1-0.9,1.8-0.9c0.8,0,1.4,0.3,1.8,0.9C344.3,56.9,344.5,57.8,344.5,59z M340.6,59
			c0,1,0.1,1.8,0.4,2.3s0.6,0.7,1.2,0.7c0.5,0,0.9-0.2,1.2-0.7c0.2-0.5,0.4-1.2,0.4-2.3s-0.1-1.8-0.4-2.3c-0.2-0.5-0.6-0.7-1.2-0.7
			c-0.5,0-0.9,0.2-1.2,0.7C340.7,57.2,340.6,58,340.6,59z"/>
	</g>
</g>
<g>
	<g>
		<path d="M355.6,56.1c-1,0-1.7,0.7-1.9,2h2.5v0.6h-2.6l0,0.3v0.3l0,0.2h2.3v0.6h-2.2c0.1,0.6,0.3,1,0.7,1.4
			c0.3,0.3,0.8,0.5,1.3,0.5c0.5,0,1-0.1,1.5-0.3v0.7c-0.5,0.2-1,0.3-1.5,0.3c-0.8,0-1.4-0.2-1.9-0.7c-0.5-0.4-0.8-1.1-0.9-1.9H352
			v-0.6h0.7l0-0.2v-0.2l0-0.4H352V58h0.8c0.1-0.8,0.4-1.5,0.9-2c0.5-0.5,1.1-0.7,1.9-0.7c0.7,0,1.3,0.2,1.8,0.5l-0.3,0.7
			C356.5,56.2,356,56.1,355.6,56.1z"/>
		<path d="M363.7,62.6h-0.8v-5.1c0-0.4,0-0.8,0-1.2c-0.1,0.1-0.1,0.1-0.2,0.2c-0.1,0.1-0.5,0.4-1.2,1l-0.4-0.6l1.9-1.5h0.7V62.6z"/>
		<path d="M371.1,59c0,1.2-0.2,2.2-0.6,2.8c-0.4,0.6-1,0.9-1.8,0.9c-0.8,0-1.4-0.3-1.8-0.9c-0.4-0.6-0.6-1.5-0.6-2.7
			c0-1.2,0.2-2.2,0.6-2.8c0.4-0.6,1-0.9,1.8-0.9c0.8,0,1.4,0.3,1.8,0.9C370.9,56.9,371.1,57.8,371.1,59z M367.2,59
			c0,1,0.1,1.8,0.4,2.3s0.6,0.7,1.2,0.7c0.5,0,0.9-0.2,1.2-0.7c0.2-0.5,0.4-1.2,0.4-2.3s-0.1-1.8-0.4-2.3c-0.2-0.5-0.6-0.7-1.2-0.7
			c-0.5,0-0.9,0.2-1.2,0.7C367.4,57.2,367.2,58,367.2,59z"/>
		<path d="M376.9,59c0,1.2-0.2,2.2-0.6,2.8c-0.4,0.6-1,0.9-1.8,0.9c-0.8,0-1.4-0.3-1.8-0.9c-0.4-0.6-0.6-1.5-0.6-2.7
			c0-1.2,0.2-2.2,0.6-2.8c0.4-0.6,1-0.9,1.8-0.9c0.8,0,1.4,0.3,1.8,0.9C376.7,56.9,376.9,57.8,376.9,59z M372.9,59
			c0,1,0.1,1.8,0.4,2.3s0.6,0.7,1.2,0.7c0.5,0,0.9-0.2,1.2-0.7c0.2-0.5,0.4-1.2,0.4-2.3s-0.1-1.8-0.4-2.3c-0.2-0.5-0.6-0.7-1.2-0.7
			c-0.5,0-0.9,0.2-1.2,0.7C373.1,57.2,372.9,58,372.9,59z"/>
		<path d="M378.1,62.1c0-0.2,0-0.4,0.1-0.5c0.1-0.1,0.2-0.2,0.4-0.2c0.2,0,0.3,0.1,0.4,0.2c0.1,0.1,0.2,0.3,0.2,0.5
			c0,0.2-0.1,0.4-0.2,0.5c-0.1,0.1-0.3,0.2-0.4,0.2c-0.2,0-0.3-0.1-0.4-0.2C378.1,62.5,378.1,62.3,378.1,62.1z"/>
		<path d="M385.2,59c0,1.2-0.2,2.2-0.6,2.8c-0.4,0.6-1,0.9-1.8,0.9c-0.8,0-1.4-0.3-1.8-0.9c-0.4-0.6-0.6-1.5-0.6-2.7
			c0-1.2,0.2-2.2,0.6-2.8c0.4-0.6,1-0.9,1.8-0.9c0.8,0,1.4,0.3,1.8,0.9C385,56.9,385.2,57.8,385.2,59z M381.3,59
			c0,1,0.1,1.8,0.4,2.3s0.6,0.7,1.2,0.7c0.5,0,0.9-0.2,1.2-0.7c0.2-0.5,0.4-1.2,0.4-2.3s-0.1-1.8-0.4-2.3c-0.2-0.5-0.6-0.7-1.2-0.7
			c-0.5,0-0.9,0.2-1.2,0.7C381.5,57.2,381.3,58,381.3,59z"/>
		<path d="M390.9,59c0,1.2-0.2,2.2-0.6,2.8c-0.4,0.6-1,0.9-1.8,0.9c-0.8,0-1.4-0.3-1.8-0.9c-0.4-0.6-0.6-1.5-0.6-2.7
			c0-1.2,0.2-2.2,0.6-2.8c0.4-0.6,1-0.9,1.8-0.9c0.8,0,1.4,0.3,1.8,0.9C390.7,56.9,390.9,57.8,390.9,59z M387,59
			c0,1,0.1,1.8,0.4,2.3s0.6,0.7,1.2,0.7c0.5,0,0.9-0.2,1.2-0.7c0.2-0.5,0.4-1.2,0.4-2.3s-0.1-1.8-0.4-2.3c-0.2-0.5-0.6-0.7-1.2-0.7
			c-0.5,0-0.9,0.2-1.2,0.7C387.2,57.2,387,58,387,59z"/>
	</g>
</g>
<g>
	<g>
		<path d="M399.1,56.1c-1,0-1.7,0.7-1.9,2h2.5v0.6h-2.6l0,0.3v0.3l0,0.2h2.3v0.6h-2.2c0.1,0.6,0.3,1,0.7,1.4
			c0.3,0.3,0.8,0.5,1.3,0.5c0.5,0,1-0.1,1.5-0.3v0.7c-0.5,0.2-1,0.3-1.5,0.3c-0.8,0-1.4-0.2-1.9-0.7c-0.5-0.4-0.8-1.1-0.9-1.9h-0.8
			v-0.6h0.7l0-0.2v-0.2l0-0.4h-0.7V58h0.8c0.1-0.8,0.4-1.5,0.9-2c0.5-0.5,1.1-0.7,1.9-0.7c0.7,0,1.3,0.2,1.8,0.5l-0.3,0.7
			C400,56.2,399.6,56.1,399.1,56.1z"/>
		<path d="M407.3,62.6h-0.8v-5.1c0-0.4,0-0.8,0-1.2c-0.1,0.1-0.1,0.1-0.2,0.2c-0.1,0.1-0.5,0.4-1.2,1l-0.4-0.6l1.9-1.5h0.7V62.6z"/>
		<path d="M413,62.6h-0.8v-5.1c0-0.4,0-0.8,0-1.2c-0.1,0.1-0.1,0.1-0.2,0.2c-0.1,0.1-0.5,0.4-1.2,1l-0.4-0.6l1.9-1.5h0.7V62.6z"/>
		<path d="M420.4,62.6h-4.7v-0.7l1.9-1.9c0.6-0.6,1-1,1.1-1.2c0.2-0.2,0.3-0.5,0.4-0.7c0.1-0.2,0.1-0.5,0.1-0.8
			c0-0.4-0.1-0.7-0.3-0.9c-0.2-0.2-0.6-0.3-1-0.3c-0.3,0-0.6,0-0.8,0.1c-0.3,0.1-0.6,0.3-0.9,0.5l-0.4-0.6c0.7-0.5,1.4-0.8,2.1-0.8
			c0.7,0,1.2,0.2,1.6,0.5c0.4,0.3,0.6,0.8,0.6,1.4c0,0.5-0.1,0.9-0.4,1.3c-0.3,0.4-0.7,1-1.4,1.7l-1.6,1.5v0h3.7V62.6z"/>
		<path d="M421.7,62.1c0-0.2,0-0.4,0.1-0.5c0.1-0.1,0.2-0.2,0.4-0.2c0.2,0,0.3,0.1,0.4,0.2c0.1,0.1,0.2,0.3,0.2,0.5
			c0,0.2-0.1,0.4-0.2,0.5c-0.1,0.1-0.3,0.2-0.4,0.2c-0.2,0-0.3-0.1-0.4-0.2C421.7,62.5,421.7,62.3,421.7,62.1z"/>
		<path d="M426.3,58.2c0.8,0,1.3,0.2,1.8,0.6c0.4,0.4,0.6,0.9,0.6,1.5c0,0.7-0.2,1.3-0.7,1.7c-0.5,0.4-1.1,0.6-1.9,0.6
			c-0.8,0-1.4-0.1-1.8-0.4v-0.8c0.2,0.1,0.5,0.3,0.8,0.3c0.3,0.1,0.7,0.1,1,0.1c0.6,0,1-0.1,1.3-0.4c0.3-0.3,0.5-0.7,0.5-1.2
			c0-1-0.6-1.5-1.8-1.5c-0.3,0-0.7,0-1.2,0.1l-0.4-0.3l0.3-3.3h3.5v0.7h-2.9l-0.2,2.1C425.6,58.3,425.9,58.2,426.3,58.2z"/>
		<path d="M434.5,59c0,1.2-0.2,2.2-0.6,2.8c-0.4,0.6-1,0.9-1.8,0.9c-0.8,0-1.4-0.3-1.8-0.9c-0.4-0.6-0.6-1.5-0.6-2.7
			c0-1.2,0.2-2.2,0.6-2.8c0.4-0.6,1-0.9,1.8-0.9c0.8,0,1.4,0.3,1.8,0.9C434.3,56.9,434.5,57.8,434.5,59z M430.6,59
			c0,1,0.1,1.8,0.4,2.3s0.6,0.7,1.2,0.7c0.5,0,0.9-0.2,1.2-0.7c0.2-0.5,0.4-1.2,0.4-2.3s-0.1-1.8-0.4-2.3c-0.2-0.5-0.6-0.7-1.2-0.7
			c-0.5,0-0.9,0.2-1.2,0.7C430.7,57.2,430.6,58,430.6,59z"/>
	</g>
</g>
<g>
	<g>
		<path d="M442.7,56.1c-1,0-1.7,0.7-1.9,2h2.5v0.6h-2.6l0,0.3v0.3l0,0.2h2.3v0.6h-2.2c0.1,0.6,0.3,1,0.7,1.4
			c0.3,0.3,0.8,0.5,1.3,0.5c0.5,0,1-0.1,1.5-0.3v0.7c-0.5,0.2-1,0.3-1.5,0.3c-0.8,0-1.4-0.2-1.9-0.7c-0.5-0.4-0.8-1.1-0.9-1.9h-0.8
			v-0.6h0.7l0-0.2v-0.2l0-0.4h-0.7V58h0.8c0.1-0.8,0.4-1.5,0.9-2c0.5-0.5,1.1-0.7,1.9-0.7c0.7,0,1.3,0.2,1.8,0.5l-0.3,0.7
			C443.6,56.2,443.2,56.1,442.7,56.1z"/>
		<path d="M450.8,62.6h-0.8v-5.1c0-0.4,0-0.8,0-1.2c-0.1,0.1-0.1,0.1-0.2,0.2c-0.1,0.1-0.5,0.4-1.2,1l-0.4-0.6l1.9-1.5h0.7V62.6z"/>
		<path d="M458.3,62.6h-4.7v-0.7l1.9-1.9c0.6-0.6,1-1,1.1-1.2c0.2-0.2,0.3-0.5,0.4-0.7c0.1-0.2,0.1-0.5,0.1-0.8
			c0-0.4-0.1-0.7-0.3-0.9c-0.2-0.2-0.6-0.3-1-0.3c-0.3,0-0.6,0-0.8,0.1s-0.6,0.3-0.9,0.5l-0.4-0.6c0.7-0.5,1.4-0.8,2.1-0.8
			c0.7,0,1.2,0.2,1.6,0.5c0.4,0.3,0.6,0.8,0.6,1.4c0,0.5-0.1,0.9-0.4,1.3c-0.3,0.4-0.7,1-1.4,1.7l-1.6,1.5v0h3.7V62.6z"/>
		<path d="M461.5,58.2c0.8,0,1.3,0.2,1.8,0.6c0.4,0.4,0.6,0.9,0.6,1.5c0,0.7-0.2,1.3-0.7,1.7s-1.1,0.6-1.9,0.6
			c-0.8,0-1.4-0.1-1.8-0.4v-0.8c0.2,0.1,0.5,0.3,0.8,0.3c0.3,0.1,0.7,0.1,1,0.1c0.6,0,1-0.1,1.3-0.4c0.3-0.3,0.5-0.7,0.5-1.2
			c0-1-0.6-1.5-1.8-1.5c-0.3,0-0.7,0-1.2,0.1l-0.4-0.3l0.3-3.3h3.5v0.7h-2.9l-0.2,2.1C460.8,58.3,461.1,58.2,461.5,58.2z"/>
		<path d="M465.2,62.1c0-0.2,0-0.4,0.1-0.5s0.2-0.2,0.4-0.2c0.2,0,0.3,0.1,0.4,0.2s0.2,0.3,0.2,0.5c0,0.2-0.1,0.4-0.2,0.5
			c-0.1,0.1-0.3,0.2-0.4,0.2c-0.2,0-0.3-0.1-0.4-0.2S465.2,62.3,465.2,62.1z"/>
		<path d="M472.4,59c0,1.2-0.2,2.2-0.6,2.8c-0.4,0.6-1,0.9-1.8,0.9c-0.8,0-1.4-0.3-1.8-0.9c-0.4-0.6-0.6-1.5-0.6-2.7
			c0-1.2,0.2-2.2,0.6-2.8c0.4-0.6,1-0.9,1.8-0.9c0.8,0,1.4,0.3,1.8,0.9C472.2,56.9,472.4,57.8,472.4,59z M468.5,59
			c0,1,0.1,1.8,0.4,2.3s0.6,0.7,1.2,0.7c0.5,0,0.9-0.2,1.2-0.7c0.2-0.5,0.4-1.2,0.4-2.3s-0.1-1.8-0.4-2.3c-0.2-0.5-0.6-0.7-1.2-0.7
			c-0.5,0-0.9,0.2-1.2,0.7C468.6,57.2,468.5,58,468.5,59z"/>
		<path d="M478.1,59c0,1.2-0.2,2.2-0.6,2.8c-0.4,0.6-1,0.9-1.8,0.9c-0.8,0-1.4-0.3-1.8-0.9c-0.4-0.6-0.6-1.5-0.6-2.7
			c0-1.2,0.2-2.2,0.6-2.8c0.4-0.6,1-0.9,1.8-0.9c0.8,0,1.4,0.3,1.8,0.9C477.9,56.9,478.1,57.8,478.1,59z M474.2,59
			c0,1,0.1,1.8,0.4,2.3s0.6,0.7,1.2,0.7c0.5,0,0.9-0.2,1.2-0.7c0.2-0.5,0.4-1.2,0.4-2.3s-0.1-1.8-0.4-2.3c-0.2-0.5-0.6-0.7-1.2-0.7
			c-0.5,0-0.9,0.2-1.2,0.7C474.3,57.2,474.2,58,474.2,59z"/>
	</g>
</g>
<g>
	<g>
		<path d="M486.3,56.1c-1,0-1.7,0.7-1.9,2h2.5v0.6h-2.6l0,0.3v0.3l0,0.2h2.3v0.6h-2.2c0.1,0.6,0.3,1,0.7,1.4
			c0.3,0.3,0.8,0.5,1.3,0.5c0.5,0,1-0.1,1.5-0.3v0.7c-0.5,0.2-1,0.3-1.5,0.3c-0.8,0-1.4-0.2-1.9-0.7c-0.5-0.4-0.8-1.1-0.9-1.9h-0.8
			v-0.6h0.7l0-0.2v-0.2l0-0.4h-0.7V58h0.8c0.1-0.8,0.4-1.5,0.9-2c0.5-0.5,1.1-0.7,1.9-0.7c0.7,0,1.3,0.2,1.8,0.5l-0.3,0.7
			C487.2,56.2,486.7,56.1,486.3,56.1z"/>
		<path d="M494.4,62.6h-0.8v-5.1c0-0.4,0-0.8,0-1.2c-0.1,0.1-0.1,0.1-0.2,0.2c-0.1,0.1-0.5,0.4-1.2,1l-0.4-0.6l1.9-1.5h0.7V62.6z"/>
		<path d="M501.6,57.1c0,0.5-0.1,0.8-0.4,1.1c-0.3,0.3-0.6,0.5-1.1,0.6v0c0.6,0.1,1,0.3,1.3,0.5c0.3,0.3,0.4,0.7,0.4,1.2
			c0,0.7-0.2,1.2-0.7,1.6c-0.5,0.4-1.1,0.5-2,0.5c-0.4,0-0.7,0-1-0.1c-0.3-0.1-0.6-0.2-0.9-0.3v-0.8c0.3,0.2,0.6,0.3,1,0.3
			c0.4,0.1,0.7,0.1,1,0.1c1.2,0,1.9-0.5,1.9-1.5c0-0.9-0.7-1.3-2-1.3h-0.7v-0.7h0.7c0.6,0,1-0.1,1.3-0.4c0.3-0.2,0.5-0.6,0.5-1
			c0-0.3-0.1-0.6-0.4-0.8c-0.2-0.2-0.6-0.3-1-0.3c-0.3,0-0.6,0-0.9,0.1c-0.3,0.1-0.6,0.2-0.9,0.5l-0.4-0.5c0.3-0.2,0.6-0.4,1-0.5
			c0.4-0.1,0.8-0.2,1.2-0.2c0.7,0,1.2,0.2,1.6,0.5C501.4,56.1,501.6,56.6,501.6,57.1z"/>
		<path d="M503.8,62.6l3-6.4h-3.9v-0.7h4.8v0.6l-2.9,6.5H503.8z"/>
		<path d="M508.8,62.1c0-0.2,0-0.4,0.1-0.5c0.1-0.1,0.2-0.2,0.4-0.2c0.2,0,0.3,0.1,0.4,0.2c0.1,0.1,0.2,0.3,0.2,0.5
			c0,0.2-0.1,0.4-0.2,0.5c-0.1,0.1-0.3,0.2-0.4,0.2c-0.2,0-0.3-0.1-0.4-0.2C508.9,62.5,508.8,62.3,508.8,62.1z"/>
		<path d="M513.5,58.2c0.8,0,1.3,0.2,1.8,0.6c0.4,0.4,0.6,0.9,0.6,1.5c0,0.7-0.2,1.3-0.7,1.7c-0.5,0.4-1.1,0.6-1.9,0.6
			c-0.8,0-1.4-0.1-1.8-0.4v-0.8c0.2,0.1,0.5,0.3,0.8,0.3c0.3,0.1,0.7,0.1,1,0.1c0.6,0,1-0.1,1.3-0.4c0.3-0.3,0.5-0.7,0.5-1.2
			c0-1-0.6-1.5-1.8-1.5c-0.3,0-0.7,0-1.2,0.1l-0.4-0.3l0.3-3.3h3.5v0.7h-2.9l-0.2,2.1C512.7,58.3,513.1,58.2,513.5,58.2z"/>
		<path d="M521.7,59c0,1.2-0.2,2.2-0.6,2.8c-0.4,0.6-1,0.9-1.8,0.9c-0.8,0-1.4-0.3-1.8-0.9c-0.4-0.6-0.6-1.5-0.6-2.7
			c0-1.2,0.2-2.2,0.6-2.8c0.4-0.6,1-0.9,1.8-0.9c0.8,0,1.4,0.3,1.8,0.9C521.5,56.9,521.7,57.8,521.7,59z M517.8,59
			c0,1,0.1,1.8,0.4,2.3s0.6,0.7,1.2,0.7c0.5,0,0.9-0.2,1.2-0.7c0.2-0.5,0.4-1.2,0.4-2.3s-0.1-1.8-0.4-2.3c-0.2-0.5-0.6-0.7-1.2-0.7
			c-0.5,0-0.9,0.2-1.2,0.7C517.9,57.2,517.8,58,517.8,59z"/>
	</g>
</g>
<g>
	<g>
		<path d="M529.9,56.1c-1,0-1.7,0.7-1.9,2h2.5v0.6h-2.6l0,0.3v0.3l0,0.2h2.3v0.6H528c0.1,0.6,0.3,1,0.7,1.4c0.3,0.3,0.8,0.5,1.3,0.5
			c0.5,0,1-0.1,1.5-0.3v0.7c-0.5,0.2-1,0.3-1.5,0.3c-0.8,0-1.4-0.2-1.9-0.7c-0.5-0.4-0.8-1.1-0.9-1.9h-0.8v-0.6h0.7l0-0.2v-0.2
			l0-0.4h-0.7V58h0.8c0.1-0.8,0.4-1.5,0.9-2c0.5-0.5,1.1-0.7,1.9-0.7c0.7,0,1.3,0.2,1.8,0.5l-0.3,0.7
			C530.8,56.2,530.3,56.1,529.9,56.1z"/>
		<path d="M538,62.6h-0.8v-5.1c0-0.4,0-0.8,0-1.2c-0.1,0.1-0.1,0.1-0.2,0.2c-0.1,0.1-0.5,0.4-1.2,1l-0.4-0.6l1.9-1.5h0.7V62.6z"/>
		<path d="M542.9,58.2c0.8,0,1.3,0.2,1.8,0.6c0.4,0.4,0.6,0.9,0.6,1.5c0,0.7-0.2,1.3-0.7,1.7c-0.5,0.4-1.1,0.6-1.9,0.6
			c-0.8,0-1.4-0.1-1.8-0.4v-0.8c0.2,0.1,0.5,0.3,0.8,0.3c0.3,0.1,0.7,0.1,1,0.1c0.6,0,1-0.1,1.3-0.4c0.3-0.3,0.5-0.7,0.5-1.2
			c0-1-0.6-1.5-1.8-1.5c-0.3,0-0.7,0-1.2,0.1l-0.4-0.3l0.3-3.3h3.5v0.7H542l-0.2,2.1C542.2,58.3,542.6,58.2,542.9,58.2z"/>
		<path d="M551.2,59c0,1.2-0.2,2.2-0.6,2.8c-0.4,0.6-1,0.9-1.8,0.9c-0.8,0-1.4-0.3-1.8-0.9c-0.4-0.6-0.6-1.5-0.6-2.7
			c0-1.2,0.2-2.2,0.6-2.8c0.4-0.6,1-0.9,1.8-0.9c0.8,0,1.4,0.3,1.8,0.9C551,56.9,551.2,57.8,551.2,59z M547.3,59
			c0,1,0.1,1.8,0.4,2.3s0.6,0.7,1.2,0.7c0.5,0,0.9-0.2,1.2-0.7c0.2-0.5,0.4-1.2,0.4-2.3s-0.1-1.8-0.4-2.3c-0.2-0.5-0.6-0.7-1.2-0.7
			c-0.5,0-0.9,0.2-1.2,0.7C547.4,57.2,547.3,58,547.3,59z"/>
		<path d="M552.4,62.1c0-0.2,0-0.4,0.1-0.5c0.1-0.1,0.2-0.2,0.4-0.2c0.2,0,0.3,0.1,0.4,0.2c0.1,0.1,0.2,0.3,0.2,0.5
			c0,0.2-0.1,0.4-0.2,0.5c-0.1,0.1-0.3,0.2-0.4,0.2c-0.2,0-0.3-0.1-0.4-0.2C552.5,62.5,552.4,62.3,552.4,62.1z"/>
		<path d="M559.5,59c0,1.2-0.2,2.2-0.6,2.8c-0.4,0.6-1,0.9-1.8,0.9c-0.8,0-1.4-0.3-1.8-0.9c-0.4-0.6-0.6-1.5-0.6-2.7
			c0-1.2,0.2-2.2,0.6-2.8c0.4-0.6,1-0.9,1.8-0.9c0.8,0,1.4,0.3,1.8,0.9C559.3,56.9,559.5,57.8,559.5,59z M555.6,59
			c0,1,0.1,1.8,0.4,2.3s0.6,0.7,1.2,0.7c0.5,0,0.9-0.2,1.2-0.7c0.2-0.5,0.4-1.2,0.4-2.3s-0.1-1.8-0.4-2.3c-0.2-0.5-0.6-0.7-1.2-0.7
			c-0.5,0-0.9,0.2-1.2,0.7C555.8,57.2,555.6,58,555.6,59z"/>
		<path d="M565.3,59c0,1.2-0.2,2.2-0.6,2.8c-0.4,0.6-1,0.9-1.8,0.9c-0.8,0-1.4-0.3-1.8-0.9c-0.4-0.6-0.6-1.5-0.6-2.7
			c0-1.2,0.2-2.2,0.6-2.8c0.4-0.6,1-0.9,1.8-0.9c0.8,0,1.4,0.3,1.8,0.9C565.1,56.9,565.3,57.8,565.3,59z M561.4,59
			c0,1,0.1,1.8,0.4,2.3s0.6,0.7,1.2,0.7c0.5,0,0.9-0.2,1.2-0.7c0.2-0.5,0.4-1.2,0.4-2.3s-0.1-1.8-0.4-2.3c-0.2-0.5-0.6-0.7-1.2-0.7
			c-0.5,0-0.9,0.2-1.2,0.7C561.5,57.2,561.4,58,561.4,59z"/>
	</g>
</g>
<g>
	<g>
		<path d="M573.5,56.1c-1,0-1.7,0.7-1.9,2h2.5v0.6h-2.6l0,0.3v0.3l0,0.2h2.3v0.6h-2.2c0.1,0.6,0.3,1,0.7,1.4
			c0.3,0.3,0.8,0.5,1.3,0.5c0.5,0,1-0.1,1.5-0.3v0.7c-0.5,0.2-1,0.3-1.5,0.3c-0.8,0-1.4-0.2-1.9-0.7c-0.5-0.4-0.8-1.1-0.9-1.9h-0.8
			v-0.6h0.7l0-0.2v-0.2l0-0.4h-0.7V58h0.8c0.1-0.8,0.4-1.5,0.9-2c0.5-0.5,1.1-0.7,1.9-0.7c0.7,0,1.3,0.2,1.8,0.5l-0.3,0.7
			C574.4,56.2,573.9,56.1,573.5,56.1z"/>
		<path d="M581.6,62.6h-0.8v-5.1c0-0.4,0-0.8,0-1.2c-0.1,0.1-0.1,0.1-0.2,0.2c-0.1,0.1-0.5,0.4-1.2,1l-0.4-0.6l1.9-1.5h0.7V62.6z"/>
		<path d="M586.5,58.2c0.8,0,1.3,0.2,1.8,0.6c0.4,0.4,0.6,0.9,0.6,1.5c0,0.7-0.2,1.3-0.7,1.7c-0.5,0.4-1.1,0.6-1.9,0.6
			c-0.8,0-1.4-0.1-1.8-0.4v-0.8c0.2,0.1,0.5,0.3,0.8,0.3c0.3,0.1,0.7,0.1,1,0.1c0.6,0,1-0.1,1.3-0.4c0.3-0.3,0.5-0.7,0.5-1.2
			c0-1-0.6-1.5-1.8-1.5c-0.3,0-0.7,0-1.2,0.1l-0.4-0.3l0.3-3.3h3.5v0.7h-2.9l-0.2,2.1C585.8,58.3,586.1,58.2,586.5,58.2z"/>
		<path d="M594.7,59c0,1.2-0.2,2.2-0.6,2.8c-0.4,0.6-1,0.9-1.8,0.9c-0.8,0-1.4-0.3-1.8-0.9c-0.4-0.6-0.6-1.5-0.6-2.7
			c0-1.2,0.2-2.2,0.6-2.8c0.4-0.6,1-0.9,1.8-0.9c0.8,0,1.4,0.3,1.8,0.9C594.5,56.9,594.7,57.8,594.7,59z M590.8,59
			c0,1,0.1,1.8,0.4,2.3s0.6,0.7,1.2,0.7c0.5,0,0.9-0.2,1.2-0.7c0.2-0.5,0.4-1.2,0.4-2.3s-0.1-1.8-0.4-2.3c-0.2-0.5-0.6-0.7-1.2-0.7
			c-0.5,0-0.9,0.2-1.2,0.7C591,57.2,590.8,58,590.8,59z"/>
		<path d="M596,62.1c0-0.2,0-0.4,0.1-0.5c0.1-0.1,0.2-0.2,0.4-0.2c0.2,0,0.3,0.1,0.4,0.2c0.1,0.1,0.2,0.3,0.2,0.5
			c0,0.2-0.1,0.4-0.2,0.5c-0.1,0.1-0.3,0.2-0.4,0.2c-0.2,0-0.3-0.1-0.4-0.2C596,62.5,596,62.3,596,62.1z"/>
		<path d="M603.1,59c0,1.2-0.2,2.2-0.6,2.8c-0.4,0.6-1,0.9-1.8,0.9c-0.8,0-1.4-0.3-1.8-0.9c-0.4-0.6-0.6-1.5-0.6-2.7
			c0-1.2,0.2-2.2,0.6-2.8c0.4-0.6,1-0.9,1.8-0.9c0.8,0,1.4,0.3,1.8,0.9C602.9,56.9,603.1,57.8,603.1,59z M599.2,59
			c0,1,0.1,1.8,0.4,2.3s0.6,0.7,1.2,0.7c0.5,0,0.9-0.2,1.2-0.7c0.2-0.5,0.4-1.2,0.4-2.3s-0.1-1.8-0.4-2.3c-0.2-0.5-0.6-0.7-1.2-0.7
			c-0.5,0-0.9,0.2-1.2,0.7C599.3,57.2,599.2,58,599.2,59z"/>
		<path d="M608.8,59c0,1.2-0.2,2.2-0.6,2.8c-0.4,0.6-1,0.9-1.8,0.9c-0.8,0-1.4-0.3-1.8-0.9c-0.4-0.6-0.6-1.5-0.6-2.7
			c0-1.2,0.2-2.2,0.6-2.8c0.4-0.6,1-0.9,1.8-0.9c0.8,0,1.4,0.3,1.8,0.9C608.6,56.9,608.8,57.8,608.8,59z M604.9,59
			c0,1,0.1,1.8,0.4,2.3s0.6,0.7,1.2,0.7c0.5,0,0.9-0.2,1.2-0.7c0.2-0.5,0.4-1.2,0.4-2.3s-0.1-1.8-0.4-2.3c-0.2-0.5-0.6-0.7-1.2-0.7
			c-0.5,0-0.9,0.2-1.2,0.7C605,57.2,604.9,58,604.9,59z"/>
	</g>
</g>
<g>
	<g>
		<path d="M617,56.1c-1,0-1.7,0.7-1.9,2h2.5v0.6H615l0,0.3v0.3l0,0.2h2.3v0.6h-2.2c0.1,0.6,0.3,1,0.7,1.4c0.3,0.3,0.8,0.5,1.3,0.5
			c0.5,0,1-0.1,1.5-0.3v0.7c-0.5,0.2-1,0.3-1.5,0.3c-0.8,0-1.4-0.2-1.9-0.7c-0.5-0.4-0.8-1.1-0.9-1.9h-0.8v-0.6h0.7l0-0.2v-0.2
			l0-0.4h-0.7V58h0.8c0.1-0.8,0.4-1.5,0.9-2c0.5-0.5,1.1-0.7,1.9-0.7c0.7,0,1.3,0.2,1.8,0.5l-0.3,0.7
			C617.9,56.2,617.4,56.1,617,56.1z"/>
		<path d="M625.1,62.6h-0.8v-5.1c0-0.4,0-0.8,0-1.2c-0.1,0.1-0.1,0.1-0.2,0.2c-0.1,0.1-0.5,0.4-1.2,1l-0.4-0.6l1.9-1.5h0.7V62.6z"/>
		<path d="M630.1,58.2c0.8,0,1.3,0.2,1.8,0.6c0.4,0.4,0.6,0.9,0.6,1.5c0,0.7-0.2,1.3-0.7,1.7c-0.5,0.4-1.1,0.6-1.9,0.6
			c-0.8,0-1.4-0.1-1.8-0.4v-0.8c0.2,0.1,0.5,0.3,0.8,0.3c0.3,0.1,0.7,0.1,1,0.1c0.6,0,1-0.1,1.3-0.4c0.3-0.3,0.5-0.7,0.5-1.2
			c0-1-0.6-1.5-1.8-1.5c-0.3,0-0.7,0-1.2,0.1l-0.4-0.3l0.3-3.3h3.5v0.7h-2.9l-0.2,2.1C629.3,58.3,629.7,58.2,630.1,58.2z"/>
		<path d="M638.3,59c0,1.2-0.2,2.2-0.6,2.8c-0.4,0.6-1,0.9-1.8,0.9c-0.8,0-1.4-0.3-1.8-0.9c-0.4-0.6-0.6-1.5-0.6-2.7
			c0-1.2,0.2-2.2,0.6-2.8c0.4-0.6,1-0.9,1.8-0.9c0.8,0,1.4,0.3,1.8,0.9C638.1,56.9,638.3,57.8,638.3,59z M634.4,59
			c0,1,0.1,1.8,0.4,2.3s0.6,0.7,1.2,0.7c0.5,0,0.9-0.2,1.2-0.7c0.2-0.5,0.4-1.2,0.4-2.3s-0.1-1.8-0.4-2.3c-0.2-0.5-0.6-0.7-1.2-0.7
			c-0.5,0-0.9,0.2-1.2,0.7C634.5,57.2,634.4,58,634.4,59z"/>
		<path d="M639.5,62.1c0-0.2,0-0.4,0.1-0.5c0.1-0.1,0.2-0.2,0.4-0.2c0.2,0,0.3,0.1,0.4,0.2c0.1,0.1,0.2,0.3,0.2,0.5
			c0,0.2-0.1,0.4-0.2,0.5c-0.1,0.1-0.3,0.2-0.4,0.2c-0.2,0-0.3-0.1-0.4-0.2C639.6,62.5,639.5,62.3,639.5,62.1z"/>
		<path d="M646.7,59c0,1.2-0.2,2.2-0.6,2.8c-0.4,0.6-1,0.9-1.8,0.9c-0.8,0-1.4-0.3-1.8-0.9c-0.4-0.6-0.6-1.5-0.6-2.7
			c0-1.2,0.2-2.2,0.6-2.8c0.4-0.6,1-0.9,1.8-0.9c0.8,0,1.4,0.3,1.8,0.9C646.5,56.9,646.7,57.8,646.7,59z M642.8,59
			c0,1,0.1,1.8,0.4,2.3s0.6,0.7,1.2,0.7c0.5,0,0.9-0.2,1.2-0.7c0.2-0.5,0.4-1.2,0.4-2.3s-0.1-1.8-0.4-2.3c-0.2-0.5-0.6-0.7-1.2-0.7
			c-0.5,0-0.9,0.2-1.2,0.7C642.9,57.2,642.8,58,642.8,59z"/>
		<path d="M652.4,59c0,1.2-0.2,2.2-0.6,2.8c-0.4,0.6-1,0.9-1.8,0.9c-0.8,0-1.4-0.3-1.8-0.9c-0.4-0.6-0.6-1.5-0.6-2.7
			c0-1.2,0.2-2.2,0.6-2.8c0.4-0.6,1-0.9,1.8-0.9c0.8,0,1.4,0.3,1.8,0.9C652.2,56.9,652.4,57.8,652.4,59z M648.5,59
			c0,1,0.1,1.8,0.4,2.3s0.6,0.7,1.2,0.7c0.5,0,0.9-0.2,1.2-0.7c0.2-0.5,0.4-1.2,0.4-2.3s-0.1-1.8-0.4-2.3c-0.2-0.5-0.6-0.7-1.2-0.7
			c-0.5,0-0.9,0.2-1.2,0.7C648.6,57.2,648.5,58,648.5,59z"/>
	</g>
</g>
<g>
	<g>
		<path d="M663.5,56.1c-1,0-1.7,0.7-1.9,2h2.5v0.6h-2.6l0,0.3v0.3l0,0.2h2.3v0.6h-2.2c0.1,0.6,0.3,1,0.7,1.4
			c0.3,0.3,0.8,0.5,1.3,0.5c0.5,0,1-0.1,1.5-0.3v0.7c-0.5,0.2-1,0.3-1.5,0.3c-0.8,0-1.4-0.2-1.9-0.7c-0.5-0.4-0.8-1.1-0.9-1.9h-0.8
			v-0.6h0.7l0-0.2v-0.2l0-0.4h-0.7V58h0.8c0.1-0.8,0.4-1.5,0.9-2c0.5-0.5,1.1-0.7,1.9-0.7c0.7,0,1.3,0.2,1.8,0.5l-0.3,0.7
			C664.4,56.2,663.9,56.1,663.5,56.1z"/>
		<path d="M671.6,62.6h-0.8v-5.1c0-0.4,0-0.8,0-1.2c-0.1,0.1-0.1,0.1-0.2,0.2c-0.1,0.1-0.5,0.4-1.2,1l-0.4-0.6l1.9-1.5h0.7V62.6z"/>
		<path d="M675.2,62.6l3-6.4h-3.9v-0.7h4.8v0.6l-2.9,6.5H675.2z"/>
		<path d="M680.2,62.1c0-0.2,0.1-0.4,0.1-0.5s0.2-0.2,0.4-0.2c0.2,0,0.3,0.1,0.4,0.2s0.2,0.3,0.2,0.5c0,0.2-0.1,0.4-0.2,0.5
			c-0.1,0.1-0.3,0.2-0.4,0.2c-0.2,0-0.3-0.1-0.4-0.2S680.2,62.3,680.2,62.1z"/>
		<path d="M684.9,58.2c0.8,0,1.3,0.2,1.8,0.6c0.4,0.4,0.6,0.9,0.6,1.5c0,0.7-0.2,1.3-0.7,1.7s-1.1,0.6-1.9,0.6
			c-0.8,0-1.4-0.1-1.8-0.4v-0.8c0.2,0.1,0.5,0.3,0.8,0.3c0.3,0.1,0.7,0.1,1,0.1c0.6,0,1-0.1,1.3-0.4c0.3-0.3,0.5-0.7,0.5-1.2
			c0-1-0.6-1.5-1.8-1.5c-0.3,0-0.7,0-1.2,0.1l-0.4-0.3l0.3-3.3h3.6v0.7h-2.9l-0.2,2.1C684.1,58.3,684.5,58.2,684.9,58.2z"/>
		<path d="M693.1,59c0,1.2-0.2,2.2-0.6,2.8c-0.4,0.6-1,0.9-1.8,0.9c-0.8,0-1.4-0.3-1.8-0.9c-0.4-0.6-0.6-1.5-0.6-2.7
			c0-1.2,0.2-2.2,0.6-2.8c0.4-0.6,1-0.9,1.8-0.9c0.8,0,1.4,0.3,1.8,0.9C692.9,56.9,693.1,57.8,693.1,59z M689.2,59
			c0,1,0.1,1.8,0.4,2.3s0.6,0.7,1.2,0.7c0.5,0,0.9-0.2,1.2-0.7c0.2-0.5,0.4-1.2,0.4-2.3s-0.1-1.8-0.4-2.3c-0.2-0.5-0.6-0.7-1.2-0.7
			c-0.5,0-0.9,0.2-1.2,0.7C689.3,57.2,689.2,58,689.2,59z"/>
	</g>
</g>
<g>
	<rect x="43.4" y="35.2" class="st0" width="46" height="15.8"/>
	<path d="M51.6,42.2c0.1,0,0.3,0,0.4,0c0.1,0,0.2,0,0.3-0.1v0.6c-0.1,0-0.2,0.1-0.4,0.1c-0.2,0-0.3,0-0.5,0c-1,0-1.6-0.5-1.6-1.6
		v-3.2h-0.8v-0.4l0.8-0.3l0.3-1.1h0.5v1.2h1.6v0.6h-1.6v3.1c0,0.3,0.1,0.6,0.2,0.7C51.1,42.1,51.3,42.2,51.6,42.2z"/>
	<path d="M53.3,36c0-0.2,0-0.3,0.1-0.4s0.2-0.1,0.3-0.1c0.1,0,0.2,0,0.3,0.1s0.1,0.2,0.1,0.4s0,0.3-0.1,0.4s-0.2,0.1-0.3,0.1
		c-0.1,0-0.3,0-0.3-0.1S53.3,36.2,53.3,36z M54.2,42.8h-0.8v-5.4h0.8V42.8z"/>
	<path d="M56.7,42.8h-0.8v-7.6h0.8V42.8z"/>
	<path d="M60.7,39.7c0-1.4,0.3-2.5,0.8-3.1s1.4-1,2.4-1c0.4,0,0.7,0,0.9,0.1v0.7c-0.3-0.1-0.5-0.1-0.9-0.1c-0.8,0-1.3,0.2-1.8,0.7
		s-0.6,1.2-0.7,2.2h0.1c0.4-0.6,0.9-0.8,1.7-0.8c0.6,0,1.1,0.2,1.5,0.6s0.6,0.9,0.6,1.6c0,0.7-0.2,1.3-0.6,1.8
		c-0.4,0.4-1,0.6-1.6,0.6c-0.7,0-1.3-0.3-1.8-0.8C61,41.5,60.7,40.7,60.7,39.7z M63.1,42.2c0.5,0,0.8-0.1,1.1-0.4
		c0.3-0.3,0.4-0.7,0.4-1.3c0-0.5-0.1-0.8-0.4-1.1S63.7,39,63.2,39c-0.3,0-0.6,0.1-0.8,0.2s-0.4,0.3-0.6,0.5s-0.2,0.4-0.2,0.7
		c0,0.3,0.1,0.6,0.2,0.9s0.3,0.5,0.6,0.7C62.6,42.1,62.8,42.2,63.1,42.2z"/>
	<path d="M71.8,42.9c-0.3,0-0.7-0.1-1-0.2c-0.3-0.1-0.5-0.3-0.7-0.6h-0.1c0,0.3,0.1,0.6,0.1,0.9v2.2h-0.8v-7.8H70l0.1,0.7h0
		c0.2-0.3,0.5-0.5,0.7-0.6s0.6-0.2,1-0.2c0.7,0,1.3,0.2,1.6,0.7s0.6,1.2,0.6,2c0,0.9-0.2,1.6-0.6,2C73.1,42.6,72.5,42.9,71.8,42.9z
		 M71.7,38c-0.5,0-0.9,0.2-1.2,0.5s-0.4,0.8-0.4,1.4v0.2c0,0.8,0.1,1.3,0.4,1.6s0.7,0.5,1.2,0.5c0.5,0,0.8-0.2,1.1-0.6
		c0.3-0.4,0.4-0.9,0.4-1.5c0-0.7-0.1-1.2-0.4-1.5S72.2,38,71.7,38z"/>
	<path d="M82.3,42.8v-3.5c0-0.4-0.1-0.7-0.3-1S81.6,38,81.2,38c-0.5,0-0.9,0.1-1.1,0.4s-0.4,0.7-0.4,1.3v3h-0.8v-3.5
		c0-0.4-0.1-0.7-0.3-1S78.1,38,77.8,38c-0.5,0-0.9,0.2-1.1,0.5s-0.4,0.8-0.4,1.5v2.8h-0.8v-5.4h0.7l0.1,0.7h0
		c0.2-0.3,0.4-0.5,0.6-0.6s0.6-0.2,0.9-0.2c0.8,0,1.4,0.3,1.6,0.9h0c0.2-0.3,0.4-0.5,0.7-0.7s0.6-0.2,1-0.2c0.6,0,1.1,0.2,1.4,0.5
		s0.5,0.8,0.5,1.5v3.5H82.3z"/>
</g>
<g>
	<g>
		<path class="st6" d="M17.6,38.8c0,0.4-0.1,0.7-0.3,0.9s-0.5,0.4-0.9,0.5v0c0.5,0.1,0.8,0.2,1,0.4s0.3,0.5,0.3,0.9
			c0,0.5-0.2,1-0.6,1.3s-0.9,0.4-1.6,0.4c-0.3,0-0.6,0-0.8-0.1c-0.3,0-0.5-0.1-0.7-0.2v-0.6c0.2,0.1,0.5,0.2,0.8,0.3
			c0.3,0.1,0.5,0.1,0.8,0.1c1,0,1.5-0.4,1.5-1.2c0-0.7-0.5-1-1.6-1h-0.6V40h0.6c0.4,0,0.8-0.1,1.1-0.3s0.4-0.5,0.4-0.8
			c0-0.3-0.1-0.5-0.3-0.7S16.2,38,15.9,38c-0.3,0-0.5,0-0.7,0.1s-0.5,0.2-0.8,0.4L14.1,38c0.2-0.2,0.5-0.3,0.8-0.4s0.6-0.2,1-0.2
			c0.6,0,1,0.1,1.3,0.4S17.6,38.4,17.6,38.8z"/>
		<path class="st6" d="M24,43.2v-2.8c0-0.3-0.1-0.6-0.2-0.8s-0.4-0.3-0.7-0.3c-0.5,0-0.8,0.1-1,0.4s-0.3,0.6-0.3,1.2v2.2H21v-6.1
			h0.6V39c0,0.2,0,0.4,0,0.6h0c0.1-0.2,0.3-0.4,0.5-0.5s0.5-0.2,0.8-0.2c0.5,0,0.9,0.1,1.2,0.4s0.4,0.6,0.4,1.2v2.8H24z"/>
		<path class="st6" d="M27.9,38.9c0.2,0,0.4,0,0.5,0l-0.1,0.6c-0.2,0-0.3-0.1-0.5-0.1c-0.3,0-0.6,0.1-0.9,0.4s-0.4,0.6-0.4,1.1v2.3
			h-0.6v-4.3h0.5l0.1,0.8h0c0.2-0.3,0.4-0.5,0.6-0.6S27.6,38.9,27.9,38.9z"/>
		<path class="st6" d="M32,42c0,0.4-0.1,0.7-0.4,0.9c-0.3,0.2-0.7,0.3-1.3,0.3c-0.6,0-1-0.1-1.3-0.3v-0.6c0.2,0.1,0.4,0.2,0.7,0.2
			c0.2,0.1,0.5,0.1,0.7,0.1c0.3,0,0.6-0.1,0.8-0.2c0.2-0.1,0.3-0.3,0.3-0.5c0-0.2-0.1-0.3-0.2-0.4s-0.4-0.3-0.8-0.4
			c-0.4-0.1-0.7-0.3-0.8-0.4s-0.3-0.2-0.4-0.4s-0.1-0.3-0.1-0.5c0-0.3,0.1-0.6,0.4-0.8s0.7-0.3,1.2-0.3c0.5,0,0.9,0.1,1.4,0.3
			l-0.2,0.5c-0.4-0.2-0.8-0.3-1.2-0.3c-0.3,0-0.5,0-0.7,0.1s-0.2,0.2-0.2,0.4c0,0.1,0,0.2,0.1,0.3s0.2,0.2,0.3,0.2s0.4,0.2,0.8,0.3
			c0.5,0.2,0.9,0.4,1,0.6S32,41.8,32,42z"/>
	</g>
</g>
<g>
	<g>
		<path class="st6" d="M95.9,42.3h-0.6v-4.1c0-0.3,0-0.7,0-1c-0.1,0.1-0.1,0.1-0.2,0.2c-0.1,0.1-0.4,0.3-0.9,0.8l-0.3-0.4l1.5-1.2
			h0.5V42.3z"/>
		<path class="st6" d="M99.4,40.1L97.9,38h0.7l1.1,1.6l1.1-1.6h0.7l-1.5,2.1l1.6,2.2H101l-1.2-1.7l-1.2,1.7h-0.7L99.4,40.1z"/>
		<path class="st6" d="M108.1,42.3h-3.8v-0.6l1.5-1.5c0.5-0.5,0.8-0.8,0.9-1c0.1-0.2,0.3-0.4,0.3-0.6c0.1-0.2,0.1-0.4,0.1-0.6
			c0-0.3-0.1-0.5-0.3-0.7c-0.2-0.2-0.4-0.3-0.8-0.3c-0.2,0-0.5,0-0.7,0.1c-0.2,0.1-0.4,0.2-0.7,0.4l-0.3-0.4
			c0.5-0.4,1.1-0.7,1.7-0.7c0.5,0,1,0.1,1.3,0.4s0.5,0.6,0.5,1.1c0,0.4-0.1,0.7-0.3,1.1s-0.6,0.8-1.1,1.3l-1.3,1.2v0h2.9V42.3z"/>
		<path class="st6" d="M113,41h-0.8v1.3h-0.6V41h-2.8v-0.6l2.7-3.9h0.7v3.8h0.8V41z M111.5,40.4v-1.9c0-0.4,0-0.8,0-1.3h0
			c-0.1,0.3-0.2,0.5-0.4,0.6l-1.8,2.5H111.5z"/>
		<path class="st6" d="M118.8,42.3v-2.8c0-0.3-0.1-0.6-0.2-0.8c-0.2-0.2-0.4-0.3-0.7-0.3c-0.5,0-0.8,0.1-1,0.4s-0.3,0.6-0.3,1.2v2.2
			h-0.6v-6.1h0.6V38c0,0.2,0,0.4,0,0.6h0c0.1-0.2,0.3-0.4,0.5-0.5c0.2-0.1,0.5-0.2,0.8-0.2c0.5,0,0.9,0.1,1.2,0.4s0.4,0.6,0.4,1.2
			v2.8H118.8z"/>
		<path class="st6" d="M122.8,37.9c0.2,0,0.4,0,0.5,0l-0.1,0.6c-0.2,0-0.3-0.1-0.5-0.1c-0.3,0-0.6,0.1-0.9,0.4s-0.4,0.6-0.4,1.1v2.3
			h-0.6V38h0.5l0.1,0.8h0c0.2-0.3,0.3-0.5,0.6-0.6C122.2,38,122.5,37.9,122.8,37.9z"/>
		<path class="st6" d="M126.8,41.1c0,0.4-0.1,0.7-0.4,0.9c-0.3,0.2-0.7,0.3-1.3,0.3c-0.6,0-1-0.1-1.3-0.3v-0.6
			c0.2,0.1,0.4,0.2,0.7,0.2c0.2,0.1,0.5,0.1,0.7,0.1c0.3,0,0.6-0.1,0.8-0.2c0.2-0.1,0.3-0.3,0.3-0.5c0-0.2-0.1-0.3-0.2-0.4
			s-0.4-0.3-0.8-0.4c-0.4-0.1-0.7-0.3-0.8-0.4s-0.3-0.2-0.4-0.4s-0.1-0.3-0.1-0.5c0-0.3,0.1-0.6,0.4-0.8c0.3-0.2,0.7-0.3,1.2-0.3
			c0.5,0,0.9,0.1,1.4,0.3l-0.2,0.5c-0.4-0.2-0.8-0.3-1.2-0.3c-0.3,0-0.5,0-0.7,0.1s-0.2,0.2-0.2,0.4c0,0.1,0,0.2,0.1,0.3
			s0.2,0.2,0.3,0.2c0.1,0.1,0.4,0.2,0.8,0.3c0.5,0.2,0.9,0.4,1,0.6C126.7,40.6,126.8,40.8,126.8,41.1z"/>
	</g>
</g>
<g>
	<g>
		<path d="M138.9,42.2c0.1,0,0.3,0,0.4,0c0.1,0,0.2,0,0.3-0.1v0.6c-0.1,0-0.2,0.1-0.4,0.1c-0.2,0-0.3,0-0.5,0c-1,0-1.6-0.5-1.6-1.6
			V38h-0.8v-0.4l0.8-0.3l0.3-1.1h0.5v1.2h1.6V38H138v3.1c0,0.3,0.1,0.6,0.2,0.7C138.4,42.1,138.6,42.2,138.9,42.2z"/>
		<path d="M140.6,35.9c0-0.2,0-0.3,0.1-0.4s0.2-0.1,0.3-0.1c0.1,0,0.2,0,0.3,0.1s0.1,0.2,0.1,0.4s0,0.3-0.1,0.4s-0.2,0.1-0.3,0.1
			c-0.1,0-0.3,0-0.3-0.1S140.6,36.1,140.6,35.9z M141.5,42.7h-0.8v-5.4h0.8V42.7z"/>
		<path d="M144,42.7h-0.8v-7.6h0.8V42.7z"/>
		<path d="M148,39.7c0-1.4,0.3-2.5,0.8-3.1s1.4-1,2.4-1c0.4,0,0.7,0,0.9,0.1v0.7c-0.3-0.1-0.5-0.1-0.9-0.1c-0.8,0-1.3,0.2-1.8,0.7
			s-0.6,1.2-0.7,2.2h0.1c0.4-0.6,0.9-0.8,1.7-0.8c0.6,0,1.1,0.2,1.5,0.6s0.6,0.9,0.6,1.6c0,0.7-0.2,1.3-0.6,1.8s-1,0.6-1.6,0.6
			c-0.7,0-1.3-0.3-1.8-0.8C148.2,41.4,148,40.7,148,39.7z M150.4,42.1c0.5,0,0.8-0.1,1.1-0.4c0.3-0.3,0.4-0.7,0.4-1.3
			c0-0.5-0.1-0.8-0.4-1.1s-0.6-0.4-1.1-0.4c-0.3,0-0.6,0.1-0.8,0.2s-0.4,0.3-0.6,0.5s-0.2,0.4-0.2,0.7c0,0.3,0.1,0.6,0.2,0.9
			s0.3,0.5,0.6,0.7C149.9,42.1,150.1,42.1,150.4,42.1z"/>
		<path d="M159.1,42.8c-0.3,0-0.7-0.1-1-0.2c-0.3-0.1-0.5-0.3-0.7-0.6h-0.1c0,0.3,0.1,0.6,0.1,0.9v2.2h-0.8v-7.8h0.7l0.1,0.7h0
			c0.2-0.3,0.5-0.5,0.7-0.6s0.6-0.2,1-0.2c0.7,0,1.3,0.2,1.6,0.7s0.6,1.2,0.6,2c0,0.9-0.2,1.6-0.6,2
			C160.4,42.6,159.8,42.8,159.1,42.8z M159,38c-0.5,0-0.9,0.2-1.2,0.5s-0.4,0.8-0.4,1.4V40c0,0.8,0.1,1.3,0.4,1.6
			c0.3,0.3,0.7,0.5,1.2,0.5c0.5,0,0.8-0.2,1.1-0.6s0.4-0.9,0.4-1.5c0-0.7-0.1-1.2-0.4-1.5S159.5,38,159,38z"/>
		<path d="M169.6,42.7v-3.5c0-0.4-0.1-0.7-0.3-1s-0.5-0.3-0.8-0.3c-0.5,0-0.9,0.1-1.1,0.4s-0.4,0.7-0.4,1.3v3h-0.8v-3.5
			c0-0.4-0.1-0.7-0.3-1S165.4,38,165,38c-0.5,0-0.9,0.2-1.1,0.5s-0.4,0.8-0.4,1.5v2.8h-0.8v-5.4h0.7l0.1,0.7h0
			c0.2-0.3,0.4-0.5,0.6-0.6s0.6-0.2,0.9-0.2c0.8,0,1.4,0.3,1.6,0.9h0c0.2-0.3,0.4-0.5,0.7-0.7s0.6-0.2,1-0.2c0.6,0,1.1,0.2,1.4,0.5
			s0.5,0.8,0.5,1.5v3.5H169.6z"/>
	</g>
</g>
<g>
	<g>
		<path class="st6" d="M184.4,43.3h-3.8v-0.6l1.5-1.5c0.5-0.5,0.8-0.8,0.9-1s0.3-0.4,0.3-0.6s0.1-0.4,0.1-0.6c0-0.3-0.1-0.5-0.3-0.7
			s-0.4-0.3-0.8-0.3c-0.2,0-0.5,0-0.7,0.1s-0.4,0.2-0.7,0.4l-0.3-0.4c0.5-0.4,1.1-0.7,1.7-0.7c0.5,0,1,0.1,1.3,0.4s0.5,0.6,0.5,1.1
			c0,0.4-0.1,0.7-0.3,1.1s-0.6,0.8-1.1,1.3l-1.3,1.2v0h2.9V43.3z"/>
		<path class="st6" d="M186.6,41.1l-1.5-2.1h0.7l1.1,1.6l1.1-1.6h0.7l-1.5,2.1l1.6,2.2h-0.7l-1.2-1.7l-1.2,1.7H185L186.6,41.1z"/>
		<path class="st6" d="M195.3,43.3h-3.8v-0.6l1.5-1.5c0.5-0.5,0.8-0.8,0.9-1s0.3-0.4,0.3-0.6s0.1-0.4,0.1-0.6c0-0.3-0.1-0.5-0.3-0.7
			s-0.4-0.3-0.8-0.3c-0.2,0-0.5,0-0.7,0.1s-0.4,0.2-0.7,0.4l-0.3-0.4c0.5-0.4,1.1-0.7,1.7-0.7c0.5,0,1,0.1,1.3,0.4s0.5,0.6,0.5,1.1
			c0,0.4-0.1,0.7-0.3,1.1s-0.6,0.8-1.1,1.3l-1.3,1.2v0h2.9V43.3z"/>
		<path class="st6" d="M200.1,42h-0.8v1.3h-0.6V42h-2.8v-0.6l2.7-3.9h0.7v3.8h0.8V42z M198.6,41.4v-1.9c0-0.4,0-0.8,0-1.3h0
			c-0.1,0.3-0.2,0.5-0.4,0.6l-1.8,2.5H198.6z"/>
		<path class="st6" d="M206,43.3v-2.8c0-0.3-0.1-0.6-0.2-0.8s-0.4-0.3-0.7-0.3c-0.5,0-0.8,0.1-1,0.4s-0.3,0.6-0.3,1.2v2.2H203v-6.1
			h0.6V39c0,0.2,0,0.4,0,0.6h0c0.1-0.2,0.3-0.4,0.5-0.5s0.5-0.2,0.8-0.2c0.5,0,0.9,0.1,1.2,0.4s0.4,0.6,0.4,1.2v2.8H206z"/>
		<path class="st6" d="M209.9,38.9c0.2,0,0.4,0,0.5,0l-0.1,0.6c-0.2,0-0.3-0.1-0.5-0.1c-0.3,0-0.6,0.1-0.9,0.4s-0.4,0.6-0.4,1.1v2.3
			h-0.6V39h0.5l0.1,0.8h0c0.2-0.3,0.4-0.5,0.6-0.6S209.6,38.9,209.9,38.9z"/>
		<path class="st6" d="M214,42.1c0,0.4-0.1,0.7-0.4,0.9c-0.3,0.2-0.7,0.3-1.3,0.3c-0.6,0-1-0.1-1.3-0.3v-0.6
			c0.2,0.1,0.4,0.2,0.7,0.2c0.2,0.1,0.5,0.1,0.7,0.1c0.3,0,0.6-0.1,0.8-0.2c0.2-0.1,0.3-0.3,0.3-0.5c0-0.2-0.1-0.3-0.2-0.4
			s-0.4-0.3-0.8-0.4c-0.4-0.1-0.7-0.3-0.8-0.4s-0.3-0.2-0.4-0.4s-0.1-0.3-0.1-0.5c0-0.3,0.1-0.6,0.4-0.8s0.7-0.3,1.2-0.3
			c0.5,0,0.9,0.1,1.4,0.3l-0.2,0.5c-0.4-0.2-0.8-0.3-1.2-0.3c-0.3,0-0.5,0-0.7,0.1s-0.2,0.2-0.2,0.4c0,0.1,0,0.2,0.1,0.3
			s0.2,0.2,0.3,0.2s0.4,0.2,0.8,0.3c0.5,0.2,0.9,0.4,1,0.6S214,41.8,214,42.1z"/>
	</g>
</g>
<g>
	<g>
		<path d="M226,42.2c0.1,0,0.3,0,0.4,0c0.1,0,0.2,0,0.3-0.1v0.6c-0.1,0-0.2,0.1-0.4,0.1c-0.2,0-0.3,0-0.5,0c-1,0-1.6-0.5-1.6-1.6
			v-3.2h-0.8v-0.4l0.8-0.3l0.3-1.1h0.5v1.2h1.6v0.6h-1.6v3.1c0,0.3,0.1,0.6,0.2,0.7C225.5,42.1,225.7,42.2,226,42.2z"/>
		<path d="M227.7,36c0-0.2,0-0.3,0.1-0.4s0.2-0.1,0.3-0.1c0.1,0,0.2,0,0.3,0.1s0.1,0.2,0.1,0.4s0,0.3-0.1,0.4s-0.2,0.1-0.3,0.1
			c-0.1,0-0.3,0-0.3-0.1S227.7,36.2,227.7,36z M228.6,42.8h-0.8v-5.4h0.8V42.8z"/>
		<path d="M231.1,42.8h-0.8v-7.6h0.8V42.8z"/>
		<path d="M235.2,39.7c0-1.4,0.3-2.5,0.8-3.1s1.4-1,2.4-1c0.4,0,0.7,0,0.9,0.1v0.7c-0.3-0.1-0.5-0.1-0.9-0.1c-0.8,0-1.3,0.2-1.8,0.7
			s-0.6,1.2-0.7,2.2h0.1c0.4-0.6,0.9-0.8,1.7-0.8c0.6,0,1.1,0.2,1.5,0.6s0.6,0.9,0.6,1.6c0,0.7-0.2,1.3-0.6,1.8
			c-0.4,0.4-1,0.6-1.6,0.6c-0.7,0-1.3-0.3-1.8-0.8C235.4,41.5,235.2,40.7,235.2,39.7z M237.6,42.2c0.5,0,0.8-0.1,1.1-0.4
			s0.4-0.7,0.4-1.3c0-0.5-0.1-0.8-0.4-1.1s-0.6-0.4-1.1-0.4c-0.3,0-0.6,0.1-0.8,0.2s-0.4,0.3-0.6,0.5s-0.2,0.4-0.2,0.7
			c0,0.3,0.1,0.6,0.2,0.9s0.3,0.5,0.6,0.7C237,42.1,237.3,42.2,237.6,42.2z"/>
		<path d="M246.3,42.9c-0.3,0-0.7-0.1-1-0.2c-0.3-0.1-0.5-0.3-0.7-0.6h-0.1c0,0.3,0.1,0.6,0.1,0.9v2.2h-0.8v-7.8h0.7l0.1,0.7h0
			c0.2-0.3,0.5-0.5,0.7-0.6s0.6-0.2,1-0.2c0.7,0,1.3,0.2,1.6,0.7s0.6,1.2,0.6,2c0,0.9-0.2,1.6-0.6,2C247.5,42.6,247,42.9,246.3,42.9
			z M246.1,38c-0.5,0-0.9,0.2-1.2,0.5s-0.4,0.8-0.4,1.4v0.2c0,0.8,0.1,1.3,0.4,1.6s0.7,0.5,1.2,0.5c0.5,0,0.8-0.2,1.1-0.6
			c0.3-0.4,0.4-0.9,0.4-1.5c0-0.7-0.1-1.2-0.4-1.5S246.6,38,246.1,38z"/>
		<path d="M256.7,42.8v-3.5c0-0.4-0.1-0.7-0.3-1S256,38,255.6,38c-0.5,0-0.9,0.1-1.1,0.4s-0.4,0.7-0.4,1.3v3h-0.8v-3.5
			c0-0.4-0.1-0.7-0.3-1s-0.5-0.3-0.9-0.3c-0.5,0-0.9,0.2-1.1,0.5s-0.4,0.8-0.4,1.5v2.8h-0.8v-5.4h0.7l0.1,0.7h0
			c0.2-0.3,0.4-0.5,0.6-0.6s0.6-0.2,0.9-0.2c0.8,0,1.4,0.3,1.6,0.9h0c0.2-0.3,0.4-0.5,0.7-0.7s0.6-0.2,1-0.2c0.6,0,1.1,0.2,1.4,0.5
			s0.5,0.8,0.5,1.5v3.5H256.7z"/>
	</g>
</g>
<g>
	<g>
		<path class="st6" d="M271.3,38.9c0,0.4-0.1,0.7-0.3,0.9c-0.2,0.2-0.5,0.4-0.9,0.5v0c0.5,0.1,0.8,0.2,1,0.4
			c0.2,0.2,0.3,0.5,0.3,0.9c0,0.5-0.2,1-0.6,1.3c-0.4,0.3-0.9,0.4-1.6,0.4c-0.3,0-0.6,0-0.8-0.1c-0.3,0-0.5-0.1-0.7-0.2v-0.6
			c0.2,0.1,0.5,0.2,0.8,0.3c0.3,0.1,0.5,0.1,0.8,0.1c1,0,1.5-0.4,1.5-1.2c0-0.7-0.5-1-1.6-1h-0.6V40h0.6c0.4,0,0.8-0.1,1.1-0.3
			c0.3-0.2,0.4-0.5,0.4-0.8c0-0.3-0.1-0.5-0.3-0.7s-0.5-0.2-0.8-0.2c-0.3,0-0.5,0-0.7,0.1c-0.2,0.1-0.5,0.2-0.8,0.4l-0.3-0.4
			c0.2-0.2,0.5-0.3,0.8-0.4c0.3-0.1,0.6-0.2,1-0.2c0.6,0,1,0.1,1.3,0.4C271.2,38.1,271.3,38.5,271.3,38.9z"/>
		<path class="st6" d="M273.7,41.1l-1.5-2.1h0.7l1.1,1.6l1.1-1.6h0.7l-1.5,2.1l1.6,2.2h-0.7l-1.2-1.7l-1.2,1.7h-0.7L273.7,41.1z"/>
		<path class="st6" d="M282.4,43.3h-3.8v-0.6l1.5-1.5c0.5-0.5,0.8-0.8,0.9-1c0.1-0.2,0.3-0.4,0.3-0.6c0.1-0.2,0.1-0.4,0.1-0.6
			c0-0.3-0.1-0.5-0.3-0.7c-0.2-0.2-0.4-0.3-0.8-0.3c-0.2,0-0.5,0-0.7,0.1c-0.2,0.1-0.4,0.2-0.7,0.4l-0.3-0.4
			c0.5-0.4,1.1-0.7,1.7-0.7c0.5,0,1,0.1,1.3,0.4s0.5,0.6,0.5,1.1c0,0.4-0.1,0.7-0.3,1.1s-0.6,0.8-1.1,1.3l-1.3,1.2v0h2.9V43.3z"/>
		<path class="st6" d="M287.2,42h-0.8v1.3h-0.6V42H283v-0.6l2.7-3.9h0.7v3.8h0.8V42z M285.8,41.4v-1.9c0-0.4,0-0.8,0-1.3h0
			c-0.1,0.3-0.2,0.5-0.4,0.6l-1.8,2.5H285.8z"/>
		<path class="st6" d="M293.1,43.3v-2.8c0-0.3-0.1-0.6-0.2-0.8c-0.2-0.2-0.4-0.3-0.7-0.3c-0.5,0-0.8,0.1-1,0.4s-0.3,0.6-0.3,1.2v2.2
			h-0.6v-6.1h0.6V39c0,0.2,0,0.4,0,0.6h0c0.1-0.2,0.3-0.4,0.5-0.5c0.2-0.1,0.5-0.2,0.8-0.2c0.5,0,0.9,0.1,1.2,0.4s0.4,0.6,0.4,1.2
			v2.8H293.1z"/>
		<path class="st6" d="M297,38.9c0.2,0,0.4,0,0.5,0l-0.1,0.6c-0.2,0-0.3-0.1-0.5-0.1c-0.3,0-0.6,0.1-0.9,0.4s-0.4,0.6-0.4,1.1v2.3
			h-0.6V39h0.5l0.1,0.8h0c0.2-0.3,0.4-0.5,0.6-0.6C296.5,39,296.8,38.9,297,38.9z"/>
		<path class="st6" d="M301.1,42.1c0,0.4-0.1,0.7-0.4,0.9c-0.3,0.2-0.7,0.3-1.3,0.3c-0.6,0-1-0.1-1.3-0.3v-0.6
			c0.2,0.1,0.4,0.2,0.7,0.2c0.2,0.1,0.5,0.1,0.7,0.1c0.3,0,0.6-0.1,0.8-0.2c0.2-0.1,0.3-0.3,0.3-0.5c0-0.2-0.1-0.3-0.2-0.4
			s-0.4-0.3-0.8-0.4c-0.4-0.1-0.7-0.3-0.8-0.4s-0.3-0.2-0.4-0.4s-0.1-0.3-0.1-0.5c0-0.3,0.1-0.6,0.4-0.8c0.3-0.2,0.7-0.3,1.2-0.3
			c0.5,0,0.9,0.1,1.4,0.3l-0.2,0.5c-0.4-0.2-0.8-0.3-1.2-0.3c-0.3,0-0.5,0-0.7,0.1s-0.2,0.2-0.2,0.4c0,0.1,0,0.2,0.1,0.3
			s0.2,0.2,0.3,0.2c0.1,0.1,0.4,0.2,0.8,0.3c0.5,0.2,0.9,0.4,1,0.6C301,41.6,301.1,41.8,301.1,42.1z"/>
	</g>
</g>
<g>
	<g>
		<path d="M313.1,42.2c0.1,0,0.3,0,0.4,0c0.1,0,0.2,0,0.3-0.1v0.6c-0.1,0-0.2,0.1-0.4,0.1c-0.2,0-0.3,0-0.5,0c-1,0-1.6-0.5-1.6-1.6
			v-3.2h-0.8v-0.4l0.8-0.3l0.3-1.1h0.5v1.2h1.6v0.6h-1.6v3.1c0,0.3,0.1,0.6,0.2,0.7C312.7,42.1,312.9,42.2,313.1,42.2z"/>
		<path d="M314.9,36c0-0.2,0-0.3,0.1-0.4s0.2-0.1,0.3-0.1c0.1,0,0.2,0,0.3,0.1s0.1,0.2,0.1,0.4s0,0.3-0.1,0.4s-0.2,0.1-0.3,0.1
			c-0.1,0-0.3,0-0.3-0.1S314.9,36.2,314.9,36z M315.7,42.8h-0.8v-5.4h0.8V42.8z"/>
		<path d="M318.3,42.8h-0.8v-7.6h0.8V42.8z"/>
		<path d="M322.3,39.7c0-1.4,0.3-2.5,0.8-3.1c0.5-0.7,1.4-1,2.4-1c0.4,0,0.7,0,0.9,0.1v0.7c-0.3-0.1-0.5-0.1-0.9-0.1
			c-0.8,0-1.3,0.2-1.8,0.7s-0.6,1.2-0.7,2.2h0.1c0.4-0.6,0.9-0.8,1.7-0.8c0.6,0,1.1,0.2,1.5,0.6c0.4,0.4,0.6,0.9,0.6,1.6
			c0,0.7-0.2,1.3-0.6,1.8c-0.4,0.4-1,0.6-1.6,0.6c-0.7,0-1.3-0.3-1.8-0.8C322.5,41.5,322.3,40.7,322.3,39.7z M324.7,42.2
			c0.5,0,0.8-0.1,1.1-0.4c0.3-0.3,0.4-0.7,0.4-1.3c0-0.5-0.1-0.8-0.4-1.1s-0.6-0.4-1.1-0.4c-0.3,0-0.6,0.1-0.8,0.2s-0.4,0.3-0.6,0.5
			c-0.1,0.2-0.2,0.4-0.2,0.7c0,0.3,0.1,0.6,0.2,0.9s0.3,0.5,0.6,0.7C324.1,42.1,324.4,42.2,324.7,42.2z"/>
		<path d="M333.4,42.9c-0.3,0-0.7-0.1-1-0.2c-0.3-0.1-0.5-0.3-0.7-0.6h-0.1c0,0.3,0.1,0.6,0.1,0.9v2.2h-0.8v-7.8h0.7l0.1,0.7h0
			c0.2-0.3,0.5-0.5,0.7-0.6s0.6-0.2,1-0.2c0.7,0,1.3,0.2,1.6,0.7c0.4,0.5,0.6,1.2,0.6,2c0,0.9-0.2,1.6-0.6,2
			C334.6,42.6,334.1,42.9,333.4,42.9z M333.3,38c-0.5,0-0.9,0.2-1.2,0.5s-0.4,0.8-0.4,1.4v0.2c0,0.8,0.1,1.3,0.4,1.6
			s0.7,0.5,1.2,0.5c0.5,0,0.8-0.2,1.1-0.6c0.3-0.4,0.4-0.9,0.4-1.5c0-0.7-0.1-1.2-0.4-1.5C334.1,38.2,333.8,38,333.3,38z"/>
		<path d="M343.9,42.8v-3.5c0-0.4-0.1-0.7-0.3-1s-0.5-0.3-0.8-0.3c-0.5,0-0.9,0.1-1.1,0.4s-0.4,0.7-0.4,1.3v3h-0.8v-3.5
			c0-0.4-0.1-0.7-0.3-1s-0.5-0.3-0.9-0.3c-0.5,0-0.9,0.2-1.1,0.5c-0.2,0.3-0.4,0.8-0.4,1.5v2.8H337v-5.4h0.7l0.1,0.7h0
			c0.2-0.3,0.4-0.5,0.6-0.6c0.3-0.1,0.6-0.2,0.9-0.2c0.8,0,1.4,0.3,1.6,0.9h0c0.2-0.3,0.4-0.5,0.7-0.7s0.6-0.2,1-0.2
			c0.6,0,1.1,0.2,1.4,0.5c0.3,0.3,0.5,0.8,0.5,1.5v3.5H343.9z"/>
	</g>
</g>
<g>
	<g>
		<path class="st6" d="M359,42h-0.8v1.3h-0.6V42h-2.8v-0.6l2.7-3.9h0.7v3.8h0.8V42z M357.5,41.4v-1.9c0-0.4,0-0.8,0-1.3h0
			c-0.1,0.3-0.2,0.5-0.4,0.6l-1.8,2.5H357.5z"/>
		<path class="st6" d="M360.8,41.1l-1.5-2.1h0.7l1.1,1.6l1.1-1.6h0.7l-1.5,2.1l1.6,2.2h-0.7l-1.2-1.7l-1.2,1.7h-0.7L360.8,41.1z"/>
		<path class="st6" d="M369.5,43.3h-3.8v-0.6l1.5-1.5c0.5-0.5,0.8-0.8,0.9-1s0.3-0.4,0.3-0.6s0.1-0.4,0.1-0.6c0-0.3-0.1-0.5-0.3-0.7
			s-0.4-0.3-0.8-0.3c-0.2,0-0.5,0-0.7,0.1s-0.4,0.2-0.7,0.4l-0.3-0.4c0.5-0.4,1.1-0.7,1.7-0.7c0.5,0,1,0.1,1.3,0.4s0.5,0.6,0.5,1.1
			c0,0.4-0.1,0.7-0.3,1.1s-0.6,0.8-1.1,1.3l-1.3,1.2v0h2.9V43.3z"/>
		<path class="st6" d="M374.4,42h-0.8v1.3h-0.6V42h-2.8v-0.6l2.7-3.9h0.7v3.8h0.8V42z M372.9,41.4v-1.9c0-0.4,0-0.8,0-1.3h0
			c-0.1,0.3-0.2,0.5-0.4,0.6l-1.8,2.5H372.9z"/>
		<path class="st6" d="M380.2,43.3v-2.8c0-0.3-0.1-0.6-0.2-0.8s-0.4-0.3-0.7-0.3c-0.5,0-0.8,0.1-1,0.4s-0.3,0.6-0.3,1.2v2.2h-0.6
			v-6.1h0.6V39c0,0.2,0,0.4,0,0.6h0c0.1-0.2,0.3-0.4,0.5-0.5s0.5-0.2,0.8-0.2c0.5,0,0.9,0.1,1.2,0.4s0.4,0.6,0.4,1.2v2.8H380.2z"/>
		<path class="st6" d="M384.2,38.9c0.2,0,0.4,0,0.5,0l-0.1,0.6c-0.2,0-0.3-0.1-0.5-0.1c-0.3,0-0.6,0.1-0.9,0.4s-0.4,0.6-0.4,1.1v2.3
			h-0.6V39h0.5l0.1,0.8h0c0.2-0.3,0.3-0.5,0.6-0.6S383.9,38.9,384.2,38.9z"/>
		<path class="st6" d="M388.2,42.1c0,0.4-0.1,0.7-0.4,0.9c-0.3,0.2-0.7,0.3-1.3,0.3c-0.6,0-1-0.1-1.3-0.3v-0.6
			c0.2,0.1,0.4,0.2,0.7,0.2c0.2,0.1,0.5,0.1,0.7,0.1c0.3,0,0.6-0.1,0.8-0.2c0.2-0.1,0.3-0.3,0.3-0.5c0-0.2-0.1-0.3-0.2-0.4
			s-0.4-0.3-0.8-0.4c-0.4-0.1-0.7-0.3-0.8-0.4s-0.3-0.2-0.4-0.4s-0.1-0.3-0.1-0.5c0-0.3,0.1-0.6,0.4-0.8s0.7-0.3,1.2-0.3
			c0.5,0,0.9,0.1,1.4,0.3l-0.2,0.5c-0.4-0.2-0.8-0.3-1.2-0.3c-0.3,0-0.5,0-0.7,0.1s-0.2,0.2-0.2,0.4c0,0.1,0,0.2,0.1,0.3
			s0.2,0.2,0.3,0.2s0.4,0.2,0.8,0.3c0.5,0.2,0.9,0.4,1,0.6S388.2,41.8,388.2,42.1z"/>
	</g>
</g>
<g>
	<g>
		<path d="M400.3,42.2c0.1,0,0.3,0,0.4,0c0.1,0,0.2,0,0.3-0.1v0.6c-0.1,0-0.2,0.1-0.4,0.1c-0.2,0-0.3,0-0.5,0c-1,0-1.6-0.5-1.6-1.6
			v-3.2h-0.8v-0.4l0.8-0.3l0.3-1.1h0.5v1.2h1.6v0.6h-1.6v3.1c0,0.3,0.1,0.6,0.2,0.7C399.8,42.1,400,42.2,400.3,42.2z"/>
		<path d="M402,36c0-0.2,0-0.3,0.1-0.4c0.1-0.1,0.2-0.1,0.3-0.1c0.1,0,0.2,0,0.3,0.1c0.1,0.1,0.1,0.2,0.1,0.4s0,0.3-0.1,0.4
			c-0.1,0.1-0.2,0.1-0.3,0.1c-0.1,0-0.3,0-0.3-0.1C402,36.3,402,36.2,402,36z M402.9,42.8h-0.8v-5.4h0.8V42.8z"/>
		<path d="M405.4,42.8h-0.8v-7.6h0.8V42.8z"/>
		<path d="M409.4,39.7c0-1.4,0.3-2.5,0.8-3.1c0.5-0.7,1.4-1,2.4-1c0.4,0,0.7,0,0.9,0.1v0.7c-0.3-0.1-0.5-0.1-0.9-0.1
			c-0.8,0-1.3,0.2-1.8,0.7c-0.4,0.5-0.6,1.2-0.7,2.2h0.1c0.4-0.6,0.9-0.8,1.7-0.8c0.6,0,1.1,0.2,1.5,0.6c0.4,0.4,0.6,0.9,0.6,1.6
			c0,0.7-0.2,1.3-0.6,1.8c-0.4,0.4-1,0.6-1.6,0.6c-0.7,0-1.3-0.3-1.8-0.8C409.6,41.5,409.4,40.7,409.4,39.7z M411.8,42.2
			c0.5,0,0.8-0.1,1.1-0.4c0.3-0.3,0.4-0.7,0.4-1.3c0-0.5-0.1-0.8-0.4-1.1c-0.2-0.3-0.6-0.4-1.1-0.4c-0.3,0-0.6,0.1-0.8,0.2
			s-0.4,0.3-0.6,0.5c-0.1,0.2-0.2,0.4-0.2,0.7c0,0.3,0.1,0.6,0.2,0.9c0.1,0.3,0.3,0.5,0.6,0.7C411.3,42.1,411.5,42.2,411.8,42.2z"/>
		<path d="M420.5,42.9c-0.3,0-0.7-0.1-1-0.2c-0.3-0.1-0.5-0.3-0.7-0.6h-0.1c0,0.3,0.1,0.6,0.1,0.9v2.2H418v-7.8h0.7l0.1,0.7h0
			c0.2-0.3,0.5-0.5,0.7-0.6c0.3-0.1,0.6-0.2,1-0.2c0.7,0,1.3,0.2,1.6,0.7s0.6,1.2,0.6,2c0,0.9-0.2,1.6-0.6,2
			C421.8,42.6,421.2,42.9,420.5,42.9z M420.4,38c-0.5,0-0.9,0.2-1.2,0.5s-0.4,0.8-0.4,1.4v0.2c0,0.8,0.1,1.3,0.4,1.6
			c0.3,0.3,0.7,0.5,1.2,0.5c0.5,0,0.8-0.2,1.1-0.6c0.3-0.4,0.4-0.9,0.4-1.5c0-0.7-0.1-1.2-0.4-1.5C421.3,38.2,420.9,38,420.4,38z"/>
		<path d="M431,42.8v-3.5c0-0.4-0.1-0.7-0.3-1c-0.2-0.2-0.5-0.3-0.8-0.3c-0.5,0-0.9,0.1-1.1,0.4c-0.2,0.3-0.4,0.7-0.4,1.3v3h-0.8
			v-3.5c0-0.4-0.1-0.7-0.3-1c-0.2-0.2-0.5-0.3-0.9-0.3c-0.5,0-0.9,0.2-1.1,0.5c-0.2,0.3-0.4,0.8-0.4,1.5v2.8h-0.8v-5.4h0.7l0.1,0.7
			h0c0.2-0.3,0.4-0.5,0.6-0.6s0.6-0.2,0.9-0.2c0.8,0,1.4,0.3,1.6,0.9h0c0.2-0.3,0.4-0.5,0.7-0.7s0.6-0.2,1-0.2
			c0.6,0,1.1,0.2,1.4,0.5c0.3,0.3,0.5,0.8,0.5,1.5v3.5H431z"/>
	</g>
</g>
<g>
	<g>
		<path class="st6" d="M443.9,39.8c0.6,0,1.1,0.1,1.4,0.4c0.3,0.3,0.5,0.7,0.5,1.2c0,0.6-0.2,1.1-0.6,1.4c-0.4,0.3-0.9,0.5-1.6,0.5
			c-0.6,0-1.1-0.1-1.5-0.3v-0.6c0.2,0.1,0.4,0.2,0.7,0.3c0.3,0.1,0.5,0.1,0.8,0.1c0.5,0,0.8-0.1,1.1-0.3c0.3-0.2,0.4-0.5,0.4-0.9
			c0-0.8-0.5-1.2-1.5-1.2c-0.2,0-0.6,0-1,0.1l-0.3-0.2l0.2-2.7h2.8v0.6h-2.3l-0.1,1.7C443.3,39.8,443.6,39.8,443.9,39.8z"/>
		<path class="st6" d="M448,41.1l-1.5-2.1h0.7l1.1,1.6l1.1-1.6h0.7l-1.5,2.1l1.6,2.2h-0.7l-1.2-1.7l-1.2,1.7h-0.7L448,41.1z"/>
		<path class="st6" d="M456.7,43.3h-3.8v-0.6l1.5-1.5c0.5-0.5,0.8-0.8,0.9-1c0.1-0.2,0.3-0.4,0.3-0.6c0.1-0.2,0.1-0.4,0.1-0.6
			c0-0.3-0.1-0.5-0.3-0.7c-0.2-0.2-0.4-0.3-0.8-0.3c-0.2,0-0.5,0-0.7,0.1c-0.2,0.1-0.4,0.2-0.7,0.4l-0.3-0.4
			c0.5-0.4,1.1-0.7,1.7-0.7c0.5,0,1,0.1,1.3,0.4s0.5,0.6,0.5,1.1c0,0.4-0.1,0.7-0.3,1.1s-0.6,0.8-1.1,1.3l-1.3,1.2v0h2.9V43.3z"/>
		<path class="st6" d="M461.5,42h-0.8v1.3h-0.6V42h-2.8v-0.6l2.7-3.9h0.7v3.8h0.8V42z M460.1,41.4v-1.9c0-0.4,0-0.8,0-1.3h0
			c-0.1,0.3-0.2,0.5-0.4,0.6l-1.8,2.5H460.1z"/>
		<path class="st6" d="M467.4,43.3v-2.8c0-0.3-0.1-0.6-0.2-0.8c-0.2-0.2-0.4-0.3-0.7-0.3c-0.5,0-0.8,0.1-1,0.4s-0.3,0.6-0.3,1.2v2.2
			h-0.6v-6.1h0.6V39c0,0.2,0,0.4,0,0.6h0c0.1-0.2,0.3-0.4,0.5-0.5c0.2-0.1,0.5-0.2,0.8-0.2c0.5,0,0.9,0.1,1.2,0.4s0.4,0.6,0.4,1.2
			v2.8H467.4z"/>
		<path class="st6" d="M471.3,38.9c0.2,0,0.4,0,0.5,0l-0.1,0.6c-0.2,0-0.3-0.1-0.5-0.1c-0.3,0-0.6,0.1-0.9,0.4S470,40.6,470,41v2.3
			h-0.6V39h0.5l0.1,0.8h0c0.2-0.3,0.4-0.5,0.6-0.6C470.8,39,471.1,38.9,471.3,38.9z"/>
		<path class="st6" d="M475.4,42.1c0,0.4-0.1,0.7-0.4,0.9c-0.3,0.2-0.7,0.3-1.3,0.3c-0.6,0-1-0.1-1.3-0.3v-0.6
			c0.2,0.1,0.4,0.2,0.7,0.2c0.2,0.1,0.5,0.1,0.7,0.1c0.3,0,0.6-0.1,0.8-0.2c0.2-0.1,0.3-0.3,0.3-0.5c0-0.2-0.1-0.3-0.2-0.4
			s-0.4-0.3-0.8-0.4c-0.4-0.1-0.7-0.3-0.8-0.4s-0.3-0.2-0.4-0.4s-0.1-0.3-0.1-0.5c0-0.3,0.1-0.6,0.4-0.8c0.3-0.2,0.7-0.3,1.2-0.3
			c0.5,0,0.9,0.1,1.4,0.3l-0.2,0.5c-0.4-0.2-0.8-0.3-1.2-0.3c-0.3,0-0.5,0-0.7,0.1S473,39.8,473,40c0,0.1,0,0.2,0.1,0.3
			s0.2,0.2,0.3,0.2c0.1,0.1,0.4,0.2,0.8,0.3c0.5,0.2,0.9,0.4,1,0.6C475.3,41.6,475.4,41.8,475.4,42.1z"/>
	</g>
</g>
<g>
	<g>
		<path d="M487.4,42.2c0.1,0,0.3,0,0.4,0c0.1,0,0.2,0,0.3-0.1v0.6c-0.1,0-0.2,0.1-0.4,0.1c-0.2,0-0.3,0-0.5,0c-1,0-1.6-0.5-1.6-1.6
			v-3.2H485v-0.4l0.8-0.3l0.3-1.1h0.5v1.2h1.6v0.6h-1.6v3.1c0,0.3,0.1,0.6,0.2,0.7C487,42.1,487.2,42.2,487.4,42.2z"/>
		<path d="M489.2,36c0-0.2,0-0.3,0.1-0.4c0.1-0.1,0.2-0.1,0.3-0.1c0.1,0,0.2,0,0.3,0.1c0.1,0.1,0.1,0.2,0.1,0.4s0,0.3-0.1,0.4
			c-0.1,0.1-0.2,0.1-0.3,0.1c-0.1,0-0.3,0-0.3-0.1C489.2,36.3,489.2,36.2,489.2,36z M490.1,42.8h-0.8v-5.4h0.8V42.8z"/>
		<path d="M492.6,42.8h-0.8v-7.6h0.8V42.8z"/>
		<path d="M496.6,39.7c0-1.4,0.3-2.5,0.8-3.1c0.5-0.7,1.4-1,2.4-1c0.4,0,0.7,0,0.9,0.1v0.7c-0.3-0.1-0.5-0.1-0.9-0.1
			c-0.8,0-1.3,0.2-1.8,0.7c-0.4,0.5-0.6,1.2-0.7,2.2h0.1c0.4-0.6,0.9-0.8,1.7-0.8c0.6,0,1.1,0.2,1.5,0.6c0.4,0.4,0.6,0.9,0.6,1.6
			c0,0.7-0.2,1.3-0.6,1.8c-0.4,0.4-1,0.6-1.6,0.6c-0.7,0-1.3-0.3-1.8-0.8C496.8,41.5,496.6,40.7,496.6,39.7z M499,42.2
			c0.5,0,0.8-0.1,1.1-0.4c0.3-0.3,0.4-0.7,0.4-1.3c0-0.5-0.1-0.8-0.4-1.1c-0.2-0.3-0.6-0.4-1.1-0.4c-0.3,0-0.6,0.1-0.8,0.2
			s-0.4,0.3-0.6,0.5c-0.1,0.2-0.2,0.4-0.2,0.7c0,0.3,0.1,0.6,0.2,0.9c0.1,0.3,0.3,0.5,0.6,0.7C498.4,42.1,498.7,42.2,499,42.2z"/>
		<path d="M507.7,42.9c-0.3,0-0.7-0.1-1-0.2c-0.3-0.1-0.5-0.3-0.7-0.6H506c0,0.3,0.1,0.6,0.1,0.9v2.2h-0.8v-7.8h0.7l0.1,0.7h0
			c0.2-0.3,0.5-0.5,0.7-0.6c0.3-0.1,0.6-0.2,1-0.2c0.7,0,1.3,0.2,1.6,0.7s0.6,1.2,0.6,2c0,0.9-0.2,1.6-0.6,2
			C508.9,42.6,508.4,42.9,507.7,42.9z M507.6,38c-0.5,0-0.9,0.2-1.2,0.5s-0.4,0.8-0.4,1.4v0.2c0,0.8,0.1,1.3,0.4,1.6
			c0.3,0.3,0.7,0.5,1.2,0.5c0.5,0,0.8-0.2,1.1-0.6c0.3-0.4,0.4-0.9,0.4-1.5c0-0.7-0.1-1.2-0.4-1.5C508.4,38.2,508.1,38,507.6,38z"/>
		<path d="M518.2,42.8v-3.5c0-0.4-0.1-0.7-0.3-1c-0.2-0.2-0.5-0.3-0.8-0.3c-0.5,0-0.9,0.1-1.1,0.4c-0.2,0.3-0.4,0.7-0.4,1.3v3h-0.8
			v-3.5c0-0.4-0.1-0.7-0.3-1c-0.2-0.2-0.5-0.3-0.9-0.3c-0.5,0-0.9,0.2-1.1,0.5c-0.2,0.3-0.4,0.8-0.4,1.5v2.8h-0.8v-5.4h0.7l0.1,0.7
			h0c0.2-0.3,0.4-0.5,0.6-0.6s0.6-0.2,0.9-0.2c0.8,0,1.4,0.3,1.6,0.9h0c0.2-0.3,0.4-0.5,0.7-0.7s0.6-0.2,1-0.2
			c0.6,0,1.1,0.2,1.4,0.5c0.3,0.3,0.5,0.8,0.5,1.5v3.5H518.2z"/>
	</g>
</g>
<g>
	<g>
		<path class="st6" d="M529.3,40.8c0-1.1,0.2-2,0.7-2.5c0.4-0.6,1.1-0.8,1.9-0.8c0.3,0,0.5,0,0.7,0.1v0.6c-0.2-0.1-0.4-0.1-0.7-0.1
			c-0.6,0-1.1,0.2-1.4,0.6c-0.3,0.4-0.5,1-0.5,1.8h0c0.3-0.4,0.7-0.7,1.4-0.7c0.5,0,0.9,0.2,1.2,0.5c0.3,0.3,0.4,0.7,0.4,1.3
			c0,0.6-0.2,1.1-0.5,1.4s-0.8,0.5-1.3,0.5c-0.6,0-1.1-0.2-1.4-0.7C529.5,42.2,529.3,41.6,529.3,40.8z M531.2,42.8
			c0.4,0,0.7-0.1,0.9-0.3c0.2-0.2,0.3-0.6,0.3-1c0-0.4-0.1-0.7-0.3-0.9c-0.2-0.2-0.5-0.3-0.9-0.3c-0.2,0-0.4,0-0.6,0.1
			s-0.4,0.2-0.5,0.4c-0.1,0.2-0.2,0.3-0.2,0.5c0,0.3,0.1,0.5,0.2,0.7c0.1,0.2,0.3,0.4,0.4,0.6C530.8,42.7,531,42.8,531.2,42.8z"/>
		<path class="st6" d="M535.1,41.1l-1.5-2.1h0.7l1.1,1.6l1.1-1.6h0.7l-1.5,2.1l1.6,2.2h-0.7l-1.2-1.7l-1.2,1.7h-0.7L535.1,41.1z"/>
		<path class="st6" d="M543.8,43.3h-3.8v-0.6l1.5-1.5c0.5-0.5,0.8-0.8,0.9-1c0.1-0.2,0.3-0.4,0.3-0.6c0.1-0.2,0.1-0.4,0.1-0.6
			c0-0.3-0.1-0.5-0.3-0.7c-0.2-0.2-0.4-0.3-0.8-0.3c-0.2,0-0.5,0-0.7,0.1c-0.2,0.1-0.4,0.2-0.7,0.4l-0.3-0.4
			c0.5-0.4,1.1-0.7,1.7-0.7c0.5,0,1,0.1,1.3,0.4s0.5,0.6,0.5,1.1c0,0.4-0.1,0.7-0.3,1.1s-0.6,0.8-1.1,1.3l-1.3,1.2v0h2.9V43.3z"/>
		<path class="st6" d="M548.7,42h-0.8v1.3h-0.6V42h-2.8v-0.6l2.7-3.9h0.7v3.8h0.8V42z M547.2,41.4v-1.9c0-0.4,0-0.8,0-1.3h0
			c-0.1,0.3-0.2,0.5-0.4,0.6l-1.8,2.5H547.2z"/>
		<path class="st6" d="M554.5,43.3v-2.8c0-0.3-0.1-0.6-0.2-0.8c-0.2-0.2-0.4-0.3-0.7-0.3c-0.5,0-0.8,0.1-1,0.4s-0.3,0.6-0.3,1.2v2.2
			h-0.6v-6.1h0.6V39c0,0.2,0,0.4,0,0.6h0c0.1-0.2,0.3-0.4,0.5-0.5c0.2-0.1,0.5-0.2,0.8-0.2c0.5,0,0.9,0.1,1.2,0.4s0.4,0.6,0.4,1.2
			v2.8H554.5z"/>
		<path class="st6" d="M558.5,38.9c0.2,0,0.4,0,0.5,0l-0.1,0.6c-0.2,0-0.3-0.1-0.5-0.1c-0.3,0-0.6,0.1-0.9,0.4s-0.4,0.6-0.4,1.1v2.3
			h-0.6V39h0.5l0.1,0.8h0c0.2-0.3,0.3-0.5,0.6-0.6C558,39,558.2,38.9,558.5,38.9z"/>
		<path class="st6" d="M562.6,42.1c0,0.4-0.1,0.7-0.4,0.9c-0.3,0.2-0.7,0.3-1.3,0.3c-0.6,0-1-0.1-1.3-0.3v-0.6
			c0.2,0.1,0.4,0.2,0.7,0.2c0.2,0.1,0.5,0.1,0.7,0.1c0.3,0,0.6-0.1,0.8-0.2c0.2-0.1,0.3-0.3,0.3-0.5c0-0.2-0.1-0.3-0.2-0.4
			s-0.4-0.3-0.8-0.4c-0.4-0.1-0.7-0.3-0.8-0.4s-0.3-0.2-0.4-0.4s-0.1-0.3-0.1-0.5c0-0.3,0.1-0.6,0.4-0.8c0.3-0.2,0.7-0.3,1.2-0.3
			c0.5,0,0.9,0.1,1.4,0.3l-0.2,0.5c-0.4-0.2-0.8-0.3-1.2-0.3c-0.3,0-0.5,0-0.7,0.1s-0.2,0.2-0.2,0.4c0,0.1,0,0.2,0.1,0.3
			s0.2,0.2,0.3,0.2c0.1,0.1,0.4,0.2,0.8,0.3c0.5,0.2,0.9,0.4,1,0.6C562.5,41.6,562.6,41.8,562.6,42.1z"/>
	</g>
</g>
<g>
	<g>
		<path d="M574.6,42.2c0.1,0,0.3,0,0.4,0c0.1,0,0.2,0,0.3-0.1v0.6c-0.1,0-0.2,0.1-0.4,0.1c-0.2,0-0.3,0-0.5,0c-1,0-1.6-0.5-1.6-1.6
			v-3.2h-0.8v-0.4l0.8-0.3l0.3-1.1h0.5v1.2h1.6v0.6h-1.6v3.1c0,0.3,0.1,0.6,0.2,0.7C574.1,42.1,574.3,42.2,574.6,42.2z"/>
		<path d="M576.3,36c0-0.2,0-0.3,0.1-0.4c0.1-0.1,0.2-0.1,0.3-0.1c0.1,0,0.2,0,0.3,0.1c0.1,0.1,0.1,0.2,0.1,0.4s0,0.3-0.1,0.4
			c-0.1,0.1-0.2,0.1-0.3,0.1c-0.1,0-0.3,0-0.3-0.1C576.4,36.3,576.3,36.2,576.3,36z M577.2,42.8h-0.8v-5.4h0.8V42.8z"/>
		<path d="M579.7,42.8h-0.8v-7.6h0.8V42.8z"/>
		<path d="M583.7,39.7c0-1.4,0.3-2.5,0.8-3.1c0.5-0.7,1.4-1,2.4-1c0.4,0,0.7,0,0.9,0.1v0.7c-0.3-0.1-0.5-0.1-0.9-0.1
			c-0.8,0-1.3,0.2-1.8,0.7c-0.4,0.5-0.6,1.2-0.7,2.2h0.1c0.4-0.6,0.9-0.8,1.7-0.8c0.6,0,1.1,0.2,1.5,0.6c0.4,0.4,0.6,0.9,0.6,1.6
			c0,0.7-0.2,1.3-0.6,1.8c-0.4,0.4-1,0.6-1.6,0.6c-0.7,0-1.3-0.3-1.8-0.8C584,41.5,583.7,40.7,583.7,39.7z M586.1,42.2
			c0.5,0,0.8-0.1,1.1-0.4c0.3-0.3,0.4-0.7,0.4-1.3c0-0.5-0.1-0.8-0.4-1.1c-0.2-0.3-0.6-0.4-1.1-0.4c-0.3,0-0.6,0.1-0.8,0.2
			s-0.4,0.3-0.6,0.5c-0.1,0.2-0.2,0.4-0.2,0.7c0,0.3,0.1,0.6,0.2,0.9c0.1,0.3,0.3,0.5,0.6,0.7C585.6,42.1,585.8,42.2,586.1,42.2z"/>
		<path d="M594.8,42.9c-0.3,0-0.7-0.1-1-0.2c-0.3-0.1-0.5-0.3-0.7-0.6h-0.1c0,0.3,0.1,0.6,0.1,0.9v2.2h-0.8v-7.8h0.7l0.1,0.7h0
			c0.2-0.3,0.5-0.5,0.7-0.6c0.3-0.1,0.6-0.2,1-0.2c0.7,0,1.3,0.2,1.6,0.7s0.6,1.2,0.6,2c0,0.9-0.2,1.6-0.6,2
			C596.1,42.6,595.5,42.9,594.8,42.9z M594.7,38c-0.5,0-0.9,0.2-1.2,0.5s-0.4,0.8-0.4,1.4v0.2c0,0.8,0.1,1.3,0.4,1.6
			c0.3,0.3,0.7,0.5,1.2,0.5c0.5,0,0.8-0.2,1.1-0.6c0.3-0.4,0.4-0.9,0.4-1.5c0-0.7-0.1-1.2-0.4-1.5C595.6,38.2,595.2,38,594.7,38z"/>
		<path d="M605.3,42.8v-3.5c0-0.4-0.1-0.7-0.3-1c-0.2-0.2-0.5-0.3-0.8-0.3c-0.5,0-0.9,0.1-1.1,0.4c-0.2,0.3-0.4,0.7-0.4,1.3v3h-0.8
			v-3.5c0-0.4-0.1-0.7-0.3-1c-0.2-0.2-0.5-0.3-0.9-0.3c-0.5,0-0.9,0.2-1.1,0.5c-0.2,0.3-0.4,0.8-0.4,1.5v2.8h-0.8v-5.4h0.7l0.1,0.7
			h0c0.2-0.3,0.4-0.5,0.6-0.6s0.6-0.2,0.9-0.2c0.8,0,1.4,0.3,1.6,0.9h0c0.2-0.3,0.4-0.5,0.7-0.7s0.6-0.2,1-0.2
			c0.6,0,1.1,0.2,1.4,0.5c0.3,0.3,0.5,0.8,0.5,1.5v3.5H605.3z"/>
	</g>
</g>
<g>
	<g>
		<path class="st6" d="M617.1,43.3l2.4-5.1h-3.1v-0.6h3.8v0.5l-2.3,5.2H617.1z"/>
		<path class="st6" d="M622.3,41.1l-1.5-2.1h0.7l1.1,1.6l1.1-1.6h0.7l-1.5,2.1l1.6,2.2h-0.7l-1.2-1.7l-1.2,1.7h-0.7L622.3,41.1z"/>
		<path class="st6" d="M631,43.3h-3.8v-0.6l1.5-1.5c0.5-0.5,0.8-0.8,0.9-1c0.1-0.2,0.3-0.4,0.3-0.6c0.1-0.2,0.1-0.4,0.1-0.6
			c0-0.3-0.1-0.5-0.3-0.7c-0.2-0.2-0.4-0.3-0.8-0.3c-0.2,0-0.5,0-0.7,0.1c-0.2,0.1-0.4,0.2-0.7,0.4l-0.3-0.4
			c0.5-0.4,1.1-0.7,1.7-0.7c0.5,0,1,0.1,1.3,0.4s0.5,0.6,0.5,1.1c0,0.4-0.1,0.7-0.3,1.1s-0.6,0.8-1.1,1.3l-1.3,1.2v0h2.9V43.3z"/>
		<path class="st6" d="M635.8,42H635v1.3h-0.6V42h-2.8v-0.6l2.7-3.9h0.7v3.8h0.8V42z M634.4,41.4v-1.9c0-0.4,0-0.8,0-1.3h0
			c-0.1,0.3-0.2,0.5-0.4,0.6l-1.8,2.5H634.4z"/>
		<path class="st6" d="M641.7,43.3v-2.8c0-0.3-0.1-0.6-0.2-0.8c-0.2-0.2-0.4-0.3-0.7-0.3c-0.5,0-0.8,0.1-1,0.4s-0.3,0.6-0.3,1.2v2.2
			h-0.6v-6.1h0.6V39c0,0.2,0,0.4,0,0.6h0c0.1-0.2,0.3-0.4,0.5-0.5c0.2-0.1,0.5-0.2,0.8-0.2c0.5,0,0.9,0.1,1.2,0.4s0.4,0.6,0.4,1.2
			v2.8H641.7z"/>
		<path class="st6" d="M645.6,38.9c0.2,0,0.4,0,0.5,0l-0.1,0.6c-0.2,0-0.3-0.1-0.5-0.1c-0.3,0-0.6,0.1-0.9,0.4s-0.4,0.6-0.4,1.1v2.3
			h-0.6V39h0.5l0.1,0.8h0c0.2-0.3,0.3-0.5,0.6-0.6C645.1,39,645.3,38.9,645.6,38.9z"/>
		<path class="st6" d="M649.7,42.1c0,0.4-0.1,0.7-0.4,0.9c-0.3,0.2-0.7,0.3-1.3,0.3c-0.6,0-1-0.1-1.3-0.3v-0.6
			c0.2,0.1,0.4,0.2,0.7,0.2c0.2,0.1,0.5,0.1,0.7,0.1c0.3,0,0.6-0.1,0.8-0.2c0.2-0.1,0.3-0.3,0.3-0.5c0-0.2-0.1-0.3-0.2-0.4
			s-0.4-0.3-0.8-0.4c-0.4-0.1-0.7-0.3-0.8-0.4s-0.3-0.2-0.4-0.4s-0.1-0.3-0.1-0.5c0-0.3,0.1-0.6,0.4-0.8c0.3-0.2,0.7-0.3,1.2-0.3
			c0.5,0,0.9,0.1,1.4,0.3l-0.2,0.5c-0.4-0.2-0.8-0.3-1.2-0.3c-0.3,0-0.5,0-0.7,0.1s-0.2,0.2-0.2,0.4c0,0.1,0,0.2,0.1,0.3
			s0.2,0.2,0.3,0.2c0.1,0.1,0.4,0.2,0.8,0.3c0.5,0.2,0.9,0.4,1,0.6C649.6,41.6,649.7,41.8,649.7,42.1z"/>
	</g>
</g>
<g>
	<g>
		<path d="M661.7,42.3c-0.6,0-1.1-0.2-1.5-0.6s-0.5-0.9-0.5-1.6c0-0.7,0.2-1.2,0.5-1.6s0.8-0.6,1.4-0.6c0.5,0,1,0.2,1.3,0.5
			s0.5,0.8,0.5,1.4v0.4h-2.9c0,0.5,0.1,0.9,0.4,1.1s0.6,0.4,1,0.4c0.5,0,0.9-0.1,1.4-0.3v0.6c-0.2,0.1-0.4,0.2-0.7,0.2
			S662,42.3,661.7,42.3z M661.6,38.5c-0.3,0-0.6,0.1-0.8,0.3s-0.3,0.5-0.4,0.9h2.2c0-0.4-0.1-0.7-0.3-0.9S661.9,38.5,661.6,38.5z"/>
		<path d="M665.5,40.1L664,38h0.7l1.1,1.6L667,38h0.7l-1.5,2.1l1.6,2.2H667l-1.2-1.7l-1.2,1.7h-0.7L665.5,40.1z"/>
		<path d="M670,41.8c0.1,0,0.2,0,0.3,0s0.2,0,0.3-0.1v0.5c-0.1,0-0.2,0.1-0.3,0.1c-0.1,0-0.3,0-0.4,0c-0.8,0-1.2-0.4-1.2-1.3v-2.5
			H668v-0.3l0.6-0.3l0.3-0.9h0.4v1h1.2v0.5h-1.2V41c0,0.3,0.1,0.5,0.2,0.6S669.8,41.8,670,41.8z"/>
		<path d="M673.4,37.9c0.2,0,0.4,0,0.5,0l-0.1,0.6c-0.2,0-0.3-0.1-0.5-0.1c-0.3,0-0.6,0.1-0.9,0.4s-0.4,0.6-0.4,1.1v2.3h-0.6V38h0.5
			l0.1,0.8h0c0.2-0.3,0.4-0.5,0.6-0.6S673.1,37.9,673.4,37.9z"/>
		<path d="M677.3,42.3l-0.1-0.6h0c-0.2,0.3-0.4,0.4-0.6,0.5c-0.2,0.1-0.5,0.1-0.8,0.1c-0.4,0-0.8-0.1-1-0.3
			c-0.2-0.2-0.4-0.5-0.4-0.9c0-0.9,0.7-1.3,2.1-1.4l0.7,0v-0.3c0-0.3-0.1-0.6-0.2-0.7s-0.4-0.2-0.7-0.2c-0.4,0-0.8,0.1-1.2,0.3
			l-0.2-0.5c0.2-0.1,0.4-0.2,0.7-0.3s0.5-0.1,0.8-0.1c0.5,0,0.9,0.1,1.1,0.3s0.4,0.6,0.4,1.1v2.9H677.3z M675.9,41.8
			c0.4,0,0.7-0.1,1-0.3s0.3-0.5,0.3-0.9v-0.4l-0.6,0c-0.5,0-0.9,0.1-1.1,0.2s-0.3,0.4-0.3,0.7c0,0.2,0.1,0.4,0.2,0.5
			S675.6,41.8,675.9,41.8z"/>
		<path d="M684.1,41.7L684.1,41.7c-0.3,0.4-0.8,0.7-1.4,0.7c-0.6,0-1-0.2-1.3-0.6c-0.3-0.4-0.5-0.9-0.5-1.6s0.2-1.3,0.5-1.6
			s0.7-0.6,1.3-0.6c0.6,0,1,0.2,1.3,0.6h0.1l0-0.3l0-0.3v-1.7h0.6v6.1h-0.5L684.1,41.7z M682.8,41.8c0.4,0,0.8-0.1,1-0.4
			s0.3-0.6,0.3-1.2v-0.1c0-0.6-0.1-1-0.3-1.3s-0.5-0.4-1-0.4c-0.4,0-0.7,0.1-0.9,0.4s-0.3,0.7-0.3,1.3c0,0.5,0.1,1,0.3,1.2
			S682.5,41.8,682.8,41.8z"/>
		<path d="M688.8,42.3l-0.1-0.6h0c-0.2,0.3-0.4,0.4-0.6,0.5c-0.2,0.1-0.5,0.1-0.8,0.1c-0.4,0-0.8-0.1-1-0.3
			c-0.2-0.2-0.4-0.5-0.4-0.9c0-0.9,0.7-1.3,2.1-1.4l0.7,0v-0.3c0-0.3-0.1-0.6-0.2-0.7s-0.4-0.2-0.7-0.2c-0.4,0-0.8,0.1-1.2,0.3
			l-0.2-0.5c0.2-0.1,0.4-0.2,0.7-0.3s0.5-0.1,0.8-0.1c0.5,0,0.9,0.1,1.1,0.3s0.4,0.6,0.4,1.1v2.9H688.8z M687.3,41.8
			c0.4,0,0.7-0.1,1-0.3s0.3-0.5,0.3-0.9v-0.4l-0.6,0c-0.5,0-0.9,0.1-1.1,0.2s-0.3,0.4-0.3,0.7c0,0.2,0.1,0.4,0.2,0.5
			S687,41.8,687.3,41.8z"/>
		<path d="M689.9,38h0.7l0.9,2.4c0.2,0.6,0.3,1,0.4,1.2h0c0-0.1,0.1-0.4,0.2-0.7s0.5-1.3,1.1-3h0.7l-1.8,4.9c-0.2,0.5-0.4,0.8-0.6,1
			c-0.2,0.2-0.5,0.3-0.9,0.3c-0.2,0-0.4,0-0.6-0.1v-0.5c0.1,0,0.3,0,0.5,0c0.4,0,0.8-0.3,1-0.8l0.2-0.6L689.9,38z"/>
	</g>
</g>
<g>
</g>
<g>
</g>
<g>
</g>
<g>
</g>
<g>
</g>
<g>
</g>
<g>
</g>
</svg>
