<?xml version="1.0" encoding="utf-8"?>
<!-- Generator: Adobe Illustrator 19.2.1, SVG Export Plug-In . SVG Version: 6.00 Build 0)  -->
<svg version="1.1" id="Layer_1" xmlns="http://www.w3.org/2000/svg" xmlns:xlink="http://www.w3.org/1999/xlink" x="0px" y="0px"
	 viewBox="0 0 105.1 31.4" style="enable-background:new 0 0 105.1 31.4;" xml:space="preserve">
<style type="text/css">
	.st0{fill:none;stroke:#6ABD45;stroke-width:1.216138e-002;stroke-linecap:round;stroke-linejoin:round;stroke-miterlimit:10;}
	.st1{fill:#FFFFFF;stroke:#2A549C;stroke-width:0.2027;stroke-miterlimit:10;}
	.st2{fill:#224188;}
	.st3{fill:#FFFFFF;}
</style>
<g>
	<polyline class="st0" points="29.8,12.5 29.8,15.1 30.4,15.1 30.4,19.9 	"/>
	<polyline class="st0" points="32.5,12.9 32.5,10.2 30.4,9.7 30.4,12.5 	"/>
	<path class="st1" d="M94.3,29l0.2,0l0.2,0c2.9,0.3,6.8-0.4,7.3-3.9l0-0.1l0-0.1l0-0.3l0-0.3V7l0-0.2l0-0.2l0-0.2l0-0.2l0-0.2
		l-0.1-0.4l-0.1-0.3L101.6,5c-0.2-0.5-0.4-0.9-0.7-1.3l-0.1-0.2l-0.1-0.2l-0.1-0.2C99.8,2.5,98.9,2,97.9,2l-0.2,0h-0.1l-32.7,8
		l-0.2-0.4c-5.2-9.8-19.1-9.8-24.3,0L40.2,10L7.4,2H7.3L7.1,2c-1,0-1.9,0.5-2.6,1.2L4.4,3.4L4.3,3.5L4.1,3.7C3.9,4.2,3.6,4.6,3.4,5
		L3.2,5.6L3.1,6l0,0.2l0,0.2l0,0.4L3,7v17.4l0,0.3L3,25l0,0.1l0,0.1c0.4,3.5,4.6,4.2,7.5,3.8l0.2,0l30.3-5.4l0.2,0.3
		c5.5,7.7,16.9,7.7,22.4,0l0.2-0.3L94.3,29"/>
	<path class="st2" d="M65.4,11.1l-1.1,0.4l-0.2-0.4C59.6,0.9,45.6,0.9,41,11l-0.2,0.4l-1.2-0.3l-32.4-8H7.2C6.4,3.1,5.3,3.9,5,4.6
		l0,0.1l0,0.1l0,0.1c-0.2,0.3-0.4,0.6-0.5,1l0,0.1l0,0.2l0,0.1l0,0.2l0,0.3l0,0.2v17.5l0,0.1l0,0.1v0.1l0,0.1l0,0.1
		c0.2,1.3,1,2.1,2.2,2.5l0.3,0.1l0.3,0.1c1.1,0.3,2.2,0.4,3.4,0.2l0.2,0l29.9-5.3l1.2-0.2l0.2,0.3c5,7.9,16.3,7.9,21.3,0l0.2-0.3
		l1.2,0.2l29.9,5.3l0.2,0c1.1,0.2,2.2,0.1,3.3-0.2l0.1,0l0.2-0.1c1.3-0.3,2.2-1.1,2.4-2.4l0-0.2l0-0.1l0-0.2v-0.1l0-0.1V7.2l0-0.2
		l0-0.2l0-0.2l0-0.2l0-0.2l0-0.1l0-0.2c-0.1-0.4-0.3-0.7-0.5-1l0-0.1l0-0.1l0-0.1c-0.4-0.8-1.3-1.5-2.2-1.5h-0.1L65.4,11.1"/>
	<path class="st3" d="M12.6,16.9l0.1-0.1l0.1-0.1l0.1-0.1c0.6-0.8,0.9-1.7,1-2.7l0-0.2c0.2-1.5,0.2-3.4-0.3-4.9l-0.1-0.3l-0.1-0.2
		l-0.1-0.2l-0.1-0.2c-0.3-0.8-0.9-2-1.8-2.3l-0.1-0.1l-0.1,0C10.3,5.2,9.2,5,8.2,4.8L7.9,4.7l-0.2,0l-0.2,0v20.7L9.8,25v-7.3h0.7
		l1.5,7.1l2.6-0.3L12.6,16.9z M11.8,11.8l0,0.5c-0.2,1.5-0.6,1.2-1.8,1.3H9.8V9.8l0.1,0h0.2c0.4,0,0.7,0.1,1,0.2l0.1,0l0.1,0
		c0.3,0.2,0.5,1.1,0.5,1.4L11.8,11.8z"/>
	<path class="st3" d="M21.1,17.9c-0.1-2.3,0.1-7.2-2.8-8l-0.1,0l-0.1,0c-2.3,0.2-2.7,4.5-2.7,6.1l0,0.3v0.3l0,0.3l0,0.2
		c0,2-0.1,6,2,7.1l0.1,0.1l0.1,0c1.6,0.4,2.7-0.8,3.3-2.1l0.1-0.1l0-0.1l0.1-0.1l-1.1-1.8l-0.1-0.1l-0.1,0.1l-0.1,0.1
		c-0.4,0.5-0.7,0.7-1.4,0.6l-0.1,0l-0.1,0c-0.6-0.3-0.7-1-0.8-1.6l0-0.2l0-0.1h3.9V17.9z M17.2,15.5l0-0.1l0-0.1
		c0.1-0.5,0.1-1.6,0.7-1.7l0,0h0.1c0.8,0,0.9,1.1,0.9,1.6v0.2l0,0.2H17.2z"/>
	<path class="st3" d="M78.9,11.5L78.9,11.5l-0.2,0c-2-0.2-3.2,1.8-3.6,3.4L75,15.2l0,0.3l0,0.3l0,0.3c-0.1,2-0.1,4.9,1.4,6.4
		l0.2,0.2l0.2,0.1c1.5,0.9,3.1,0.8,4.1-0.7l0.1-0.1l0.1-0.1l0.1-0.1l-1.5-1.9l-0.1,0.1l0,0.1c-0.3,0.5-1,0.5-1.5,0.3l-0.1-0.1
		L77.7,20c-0.5-0.3-0.6-0.7-0.7-1.3v-0.2h4.2V18C81.3,16.2,81.1,12.2,78.9,11.5z M79,16.1l-1.9,0V16C77.2,14,79,13.9,79,16.1
		L79,16.1z"/>
	<path class="st3" d="M89.1,10.8L89.1,10.8l0.1-0.2c0.4-0.8,1.1-1.7,2.2-1.3l0.1,0.1l0.1,0c0.3,0.2,0.7,1.2,0.9,1.5l0.1,0.4
		c0.2,0.6,0.3,1.1,0.3,1.7l0,0.2v11.9l-2.1-0.3v-9.7c0-2.1-1.6-2-1.7,0l0,9.4l-2.2-0.3V10.2l2.2-0.4V10.8"/>
	<path class="st3" d="M24.5,15.7L24.5,15.7c0.1-1.6,1.3-1.5,1.4,0V23l2.1-0.3l0-7.8c0.1-1.8-1.4-5-3.5-3.1l-0.1,0.1v-0.8l-2-0.2
		v12.5l2.1-0.3V15.7"/>
	<path class="st3" d="M29.8,19.9V20l0,0.1c0.1,0.7,0.2,1.3,0.7,1.8l0.1,0.1l0.1,0.1c0.5,0.3,1.2,0.2,1.8,0.1l0.1,0l0.1,0v-2.5h-0.5
		c-0.4,0-0.5-0.3-0.5-0.6v-3.9l1.1,0.1V13l-1.1-0.2v-2.7l-2-0.5v2.9l-0.6-0.1v2.6l0.6,0V19.9"/>
	<path class="st3" d="M97,20.5L97,20.5c0,0.7,0.7,0.6,1.1,0.6h0.1v4.4h-0.4c-0.9-0.1-1.7-0.1-2.2-1l-0.1-0.2c-0.5-1-0.8-2.4-0.8-3.6
		V5.3L97,4.8V20.5"/>
	<polyline class="st3" points="63.4,14.3 63.4,12.8 65.5,12.2 65.5,14.1 63.4,14.3 	"/>
	<polyline class="st3" points="82.6,23.7 82.6,19.4 85.1,19.4 85.1,24 82.6,23.7 	"/>
	<polyline class="st3" points="67.5,21.6 69.5,21.9 69.6,19.3 70,18.7 71.4,22.1 74.1,22.5 71.4,16.6 74.3,12.6 71.5,12.9 69.6,16 
		69.5,11.4 67.5,11.9 67.5,21.6 	"/>
	<polyline class="st3" points="63.3,21 63.4,14.9 65.5,14.5 65.5,21.3 63.3,21 	"/>
	<path class="st3" d="M60.7,19.3l0-0.4c-0.2-1.2-1.1-2.2-2.2-2.8L58.3,16l-0.1,0l-0.1,0l0.2-0.1l0.1-0.1c0.8-0.5,1.7-1.7,1.8-2.7
		l0-0.3c0.1-1.7,0-2.7-1-4.1l-0.1-0.1l-0.1-0.1L59,8.2l-0.1-0.1c-0.9-1-2.3-1.6-3.7-1.8l-0.1,0l-0.1,0l-0.1,0c-1.1-0.1-2,0-3.1,0.1
		l-0.8,0.1l-0.8,0.1c-0.7,0.1-1.5,0.2-2.2,0.4l-0.1,0l-0.2,0l-0.1,0.1l-0.2,0.1v18.1l0.2,0.1l0.2,0.1l0.2,0c1.3,0.3,2.7,0.4,4,0.5
		l0.3,0l0.3,0c1.9,0.1,3.5,0.2,5.3-0.8l0.2-0.1l0.2-0.2l0.2-0.2l0.2-0.2C60.3,23,60.8,21.5,60.7,19.3z M51,9.9h3.7l0.2,0l0.1,0
		c1.1,0.2,1.8,1,1.7,2.2v0.3l0,0.1c-0.1,0.5-0.3,1-0.8,1.3l-0.2,0.1L55.6,14c-0.2,0.2-0.5,0.2-0.8,0.2l-0.1,0H51V9.9z M57,20.4
		l0,0.4l0,0.2c-0.1,0.4-0.3,0.7-0.6,1l-0.1,0.1L56,22.2c-0.3,0.2-0.5,0.2-0.8,0.2H51v-4.6h4H55l0.1,0h0.1c0.5,0.1,0.5,0.1,0.9,0.5
		l0.2,0.2c0.5,0.5,0.7,1,0.7,1.7L57,20.4z"/>
	<path class="st3" d="M42.5,16.4c-0.1-1.2-1-2-2.1-2.4l-0.1,0l-0.1,0c-1-0.3-1.9-0.3-2.7,0.5l-0.1,0.2l1.3,1.7l0-0.1l0.1-0.1
		c0.3-0.4,0.8-0.4,1.2-0.3l0.1,0l0.1,0c0.3,0.2,0.3,0.5,0.3,0.8v0.2l-0.1,0l-0.4-0.1c-0.6-0.1-1.4-0.2-2,0.2l-0.1,0.1
		c-0.5,0.4-0.7,0.9-0.8,1.5l0,0.2l0,0.2v0.2l0,0.2c0,0.9,0.5,1.8,1.4,2.1l0.2,0l0.2,0c0.6,0.1,1.1-0.1,1.6-0.6l0.1-0.1l0.1-0.1v0.5
		l2-0.2v-4.5L42.5,16.4z M40.5,19l-0.1,0.1l-0.1,0.1c-0.3,0.2-0.6,0.4-1,0.1l-0.1-0.1l0,0c-0.2-0.3-0.1-0.5,0.2-0.7l0.1,0l0.1,0h1
		V19z"/>
</g>
<g>
</g>
<g>
</g>
<g>
</g>
<g>
</g>
<g>
</g>
<g>
</g>
</svg>
