<?xml version="1.0" encoding="utf-8"?>
<!-- Generator: Adobe Illustrator 19.2.1, SVG Export Plug-In . SVG Version: 6.00 Build 0)  -->
<svg version="1.1" id="Layer_1" xmlns="http://www.w3.org/2000/svg" xmlns:xlink="http://www.w3.org/1999/xlink" x="0px" y="0px"
	 viewBox="0 0 439.5 150.5" style="enable-background:new 0 0 439.5 150.5;" xml:space="preserve">
<style type="text/css">
	.st0{fill:#FFFFFF;stroke:#010101;stroke-width:2.2927;stroke-miterlimit:10;}
	.st1{fill:none;}
	.st2{fill:#010101;}
</style>
<rect x="3.2" y="3.2" class="st0" width="432.8" height="87.3"/>
<g>
	<rect x="-27.7" y="12.6" class="st1" width="501.3" height="84.6"/>
	<path class="st2" d="M87.4,46.9C85,39,83.8,34.5,83.7,33.4l-0.6,0.2c-0.3,1.4-0.6,3.4-1.1,6c-0.5,2.6-0.9,4.6-1.2,6.1l-7.8,2
		c3.3-15.7,5.2-26.9,6-33.5c3.6-1.1,7.7-1.7,12.2-1.7c3.4,0,5.4,1.2,6,3.5c0.2,0.7,0.3,1.6,0.3,2.7c0,1.1-0.2,2.2-0.7,3.4
		c-0.4,1.2-1,2.4-1.8,3.5c-1.6,2.3-3.5,4-5.8,5.3c1.2,2.6,2.3,5.1,3.3,7.4c1,2.3,1.8,4.3,2.4,5.9L87.4,46.9z M87.9,19.2l-2.1,0
		l-1.5,7.6c1.3-0.1,2.8-0.9,4.7-2.4c2-1.5,3-2.7,3-3.7c0-0.9-0.9-1.4-2.6-1.5C88.9,19.2,88.4,19.2,87.9,19.2z"/>
	<path class="st2" d="M94.5,47.7l6.3-34.1l15.2-1.3c-0.2,0.7-0.4,1.4-0.6,2.1c-0.2,0.7-0.3,1.3-0.5,2s-0.3,1.2-0.4,1.7
		c-0.9,0.1-2.2,0.1-3.8,0.1h-3.2l-1.7,8.6c1.7-0.1,3.2-0.2,4.3-0.2c1.2,0,1.9-0.1,2.3-0.1c-0.1,0.9-0.2,1.8-0.4,2.6
		c-0.1,0.9-0.2,1.7-0.4,2.6c-0.3,0-0.9,0.1-1.6,0.1c-0.7,0-1.5,0-2.3,0.1c-0.8,0-1.7,0.1-2.6,0.1l-1.6,8.9l7-1.1l-0.5,5.5L94.5,47.7
		z"/>
	<path class="st2" d="M128,23.1c0.2-0.6,0.2-1.3,0.2-2c0-0.7-0.2-1.2-0.5-1.7s-0.7-0.6-1.1-0.6s-0.8,0.1-1.1,0.3s-0.8,0.4-1.1,0.8
		c-0.9,0.7-1.3,1.5-1.3,2.3c0,0.8,0.2,1.5,0.7,2s1,1,1.6,1.4c0.6,0.4,1.3,0.9,2.1,1.4s1.5,1.1,2.1,1.8c1.5,1.8,2.3,4.1,2.3,7
		c0,3.5-1.3,6.4-3.8,8.7c-2.4,2.2-5.5,3.3-9.2,3.3c-2.8,0-5.3-1.4-7.5-4.3l3.6-7c0.4,0.9,1.3,1.7,2.5,2.4c1.3,0.8,2.2,1.1,2.8,1.1
		s1.1-0.1,1.6-0.2c0.4-0.1,0.8-0.3,1.1-0.6c0.8-0.6,1.2-1.2,1.2-2s-0.3-1.5-0.8-2.2s-1.1-1.3-1.9-1.9c-0.7-0.6-1.5-1.2-2.4-1.8
		s-1.6-1.3-2.4-1.9c-1.8-1.6-2.6-3.2-2.6-4.9c0-1.7,0.5-3.3,1.5-4.7c1-1.4,2.2-2.7,3.7-3.7c1.5-1,3.1-1.9,4.9-2.5s3.3-0.9,4.5-0.9
		s2.2,0.1,3,0.3c0.8,0.2,1.4,0.5,2,1c1.2,1,1.8,2.5,1.8,4.4c0,0.5,0,0.9-0.1,1.4c-0.1,0.4-0.1,0.9-0.2,1.5L128,23.1z"/>
	<path class="st2" d="M131.5,47.7l6.3-34.1l15.2-1.3c-0.2,0.7-0.4,1.4-0.6,2.1c-0.2,0.7-0.3,1.3-0.5,2s-0.3,1.2-0.4,1.7
		c-0.9,0.1-2.2,0.1-3.8,0.1h-3.2l-1.7,8.6c1.7-0.1,3.2-0.2,4.3-0.2c1.2,0,1.9-0.1,2.3-0.1c-0.1,0.9-0.2,1.8-0.4,2.6
		c-0.1,0.9-0.2,1.7-0.4,2.6c-0.3,0-0.9,0.1-1.6,0.1c-0.7,0-1.5,0-2.3,0.1c-0.8,0-1.7,0.1-2.6,0.1l-1.6,8.9l7-1.1l-0.5,5.5
		L131.5,47.7z"/>
	<path class="st2" d="M162.1,46.9c-2.4-7.9-3.7-12.4-3.8-13.5l-0.6,0.2c-0.3,1.4-0.6,3.4-1.1,6c-0.5,2.6-0.9,4.6-1.2,6.1l-7.8,2
		c3.3-15.7,5.2-26.9,6-33.5c3.6-1.1,7.7-1.7,12.2-1.7c3.4,0,5.4,1.2,6,3.5c0.2,0.7,0.3,1.6,0.3,2.7c0,1.1-0.2,2.2-0.7,3.4
		c-0.4,1.2-1,2.4-1.8,3.5c-1.6,2.3-3.5,4-5.8,5.3c1.2,2.6,2.3,5.1,3.3,7.4c1,2.3,1.8,4.3,2.4,5.9L162.1,46.9z M162.6,19.2l-2.1,0
		l-1.5,7.6c1.3-0.1,2.8-0.9,4.7-2.4c2-1.5,3-2.7,3-3.7c0-0.9-0.9-1.4-2.6-1.5C163.6,19.2,163.1,19.2,162.6,19.2z"/>
	<path class="st2" d="M171.3,48.1c1.4-14.7,2.3-26.5,2.4-35.3c2.3,0,4.5-0.1,6.7-0.3l0.8-0.1c-0.3,3.7-0.6,6.8-0.9,9.2
		s-0.4,4.3-0.6,5.8c-0.1,1.5-0.3,2.9-0.4,4.3c-0.2,2.3-0.5,4.6-0.7,6.8h0.9l5.3-25.5c0.9,0,1.7-0.1,2.6-0.1c0.8-0.1,1.7-0.1,2.6-0.2
		s1.7-0.1,2.4-0.2c-1.3,4.3-2.5,8.5-3.5,12.4c-1,4-1.8,7.4-2.6,10.3c-0.7,2.9-1.6,6.6-2.6,10.9L171.3,48.1z"/>
	<path class="st2" d="M187,47.7l6.3-34.1l15.2-1.3c-0.2,0.7-0.4,1.4-0.6,2.1c-0.2,0.7-0.3,1.3-0.5,2s-0.3,1.2-0.4,1.7
		c-0.9,0.1-2.2,0.1-3.8,0.1H200l-1.7,8.6c1.7-0.1,3.2-0.2,4.3-0.2c1.2,0,1.9-0.1,2.3-0.1c-0.1,0.9-0.2,1.8-0.4,2.6
		c-0.1,0.9-0.2,1.7-0.4,2.6c-0.3,0-0.9,0.1-1.6,0.1c-0.7,0-1.5,0-2.3,0.1c-0.8,0-1.7,0.1-2.6,0.1L196,41l7-1.1l-0.5,5.5L187,47.7z"
		/>
	<path class="st2" d="M225,27.1c1-2.6,2.7-7.3,5.1-14.3l7.5,1.6c-1.7,3.5-3.3,6.7-4.6,9.5l-3,6.2c-0.6,1.3-1.2,2.5-1.8,3.7
		c-0.6,1.2-1.1,2.3-1.6,3.3c-0.5,2.4-1.2,5.3-2.2,8.7l-8.2,1l2.2-9.7c0-3.9-0.2-8.2-0.5-12.8s-0.5-7.4-0.6-8.1l-0.1-1l7.8-3v8.3
		l0,4.7V27.1z"/>
	<path class="st2" d="M256.7,22.8c0,1.9-0.3,4-0.8,6.3c-0.5,2.3-1.3,4.4-2.2,6.4c-0.9,1.9-2,3.7-3.3,5.2c-1.2,1.5-2.5,2.8-3.9,3.9
		c-2.8,2.2-5.5,3.3-8,3.3c-2.2,0-3.9-0.8-5.1-2.3c-1.4-1.7-2.1-4.2-2.1-7.5c0-3.6,0.8-7.4,2.5-11.5s3.8-7.6,6.5-10.3
		c2.9-2.9,6-4.4,9.1-4.4c2.6,0,4.5,1.1,5.8,3.2C256.2,16.7,256.7,19.3,256.7,22.8z M250,25.7c0-2.6-0.8-3.9-2.3-3.9
		c-1.9,0-3.6,0.9-5.2,2.8c-1.2,1.5-2.3,3.5-3.1,6.1c-0.7,2.1-1,4.1-1,6c0,1.3,0.5,2.2,1.6,2.8c0.3,0.2,0.7,0.3,1.1,0.3
		c1.4,0,2.7-0.5,3.8-1.5s2-2.2,2.8-3.6c0.8-1.4,1.3-3,1.7-4.6S250,27.1,250,25.7z"/>
	<path class="st2" d="M259.9,13.5c0.7-0.1,1.5-0.1,2.4-0.2s1.8-0.2,2.7-0.3c0.9-0.1,1.8-0.2,2.8-0.3c-0.8,3.8-1.5,6.9-1.9,9.1
		s-0.8,4-1.1,5.4c-0.3,1.3-0.5,2.6-0.8,3.7c-0.5,2.4-0.8,3.9-1,4.6c-0.5,2.2-0.7,3.5-0.7,4.2c0,0.6,0.1,1.1,0.4,1.4s0.6,0.5,1.1,0.5
		s0.9-0.2,1.2-0.7c0.4-0.4,0.7-1,0.9-1.5c0.2-0.6,0.4-1.2,0.5-1.8c0.1-0.6,0.3-1.3,0.4-1.9c0.1-0.6,0.3-1.5,0.6-2.7
		c0.2-1.1,0.5-2.3,0.7-3.6c0.2-1.2,0.5-2.5,0.7-3.8c0.7-3.3,1.4-7.4,2.3-12.5l7.3-0.5l-0.2,1.2c-0.4,2-0.8,4.2-1.2,6.8
		s-0.9,4.8-1.2,6.7c-1,4.9-1.7,8.3-2.2,10.4c-0.5,2-1.1,3.7-1.9,5c-0.8,1.3-1.8,2.3-2.9,3.2c-2.1,1.6-4.5,2.3-7.3,2.3
		c-1.7,0-3.1-0.5-4.4-1.4c-1.4-1.1-2.1-2.6-2.1-4.5c0-0.1,0-0.3,0-0.4c0-0.1,0-0.5,0.1-1.3c0.1-0.7,0.3-2,0.5-3.9
		c0.3-1.9,0.6-3.8,0.9-5.8s0.7-4,1.1-6.1c0.4-2,0.7-3.9,1-5.5C259.3,16.2,259.7,14.1,259.9,13.5z"/>
	<path class="st2" d="M288.2,46.9c-2.4-7.9-3.7-12.4-3.8-13.5l-0.6,0.2c-0.3,1.4-0.6,3.4-1.1,6c-0.5,2.6-0.9,4.6-1.2,6.1l-7.8,2
		c3.3-15.7,5.2-26.9,6-33.5c3.6-1.1,7.7-1.7,12.2-1.7c3.4,0,5.4,1.2,6,3.5c0.2,0.7,0.3,1.6,0.3,2.7c0,1.1-0.2,2.2-0.7,3.4
		c-0.4,1.2-1,2.4-1.8,3.5c-1.6,2.3-3.5,4-5.8,5.3c1.2,2.6,2.3,5.1,3.3,7.4c1,2.3,1.8,4.3,2.4,5.9L288.2,46.9z M288.7,19.2l-2.1,0
		l-1.5,7.6c1.3-0.1,2.8-0.9,4.7-2.4c2-1.5,3-2.7,3-3.7c0-0.9-0.9-1.4-2.6-1.5C289.7,19.2,289.2,19.2,288.7,19.2z"/>
	<path class="st2" d="M326,35.8c0,1.2-0.3,2.3-0.8,3.4s-1.3,2.1-2.2,3c-0.9,0.9-2,1.7-3.2,2.4c-1.2,0.7-2.5,1.3-3.9,1.7
		c-2.7,0.9-5.4,1.4-8.3,1.4c-1.2,0-2.3-0.1-3.3-0.3c1.5-5.6,2.8-11.2,3.7-16.9c0.9-5.7,1.8-11.4,2.6-17.2c4.4-0.9,8-1.4,10.7-1.4
		c3.3,0,5.6,1.1,6.8,3.4c0.5,0.8,0.8,1.9,0.8,3.1c0,1.2-0.2,2.4-0.6,3.4c-0.4,1.1-0.9,2-1.5,2.9c-1.3,1.8-2.8,3-4.6,3.6
		C324.7,30.1,326,32.6,326,35.8z M313.7,38.1c2.8-0.3,4.8-1.1,6-2.4c0.5-0.6,0.8-1.2,0.8-1.9c0-0.7-0.1-1.2-0.4-1.6
		c-0.3-0.4-0.7-0.7-1.1-1c-0.9-0.5-2-0.8-3-0.8h-0.4c-0.1,0-0.3,0-0.4,0c-0.1,0.8-0.2,1.5-0.4,2.1c-0.1,0.6-0.2,1.2-0.3,1.7
		c-0.1,0.5-0.2,1.1-0.3,1.7C313.9,36.7,313.8,37.4,313.7,38.1z M316.1,24.7c3.9-0.9,5.9-2,5.9-3.2c0-1.2-1-2-3-2.3
		c-0.5-0.1-0.9-0.1-1.3-0.1h-0.5c-0.1,0.3-0.1,0.8-0.2,1.2c-0.1,0.5-0.2,1-0.3,1.5s-0.2,1-0.3,1.5S316.2,24.3,316.1,24.7z"/>
	<path class="st2" d="M339,12.9c-3.6,18.1-5.7,29.4-6.5,33.8c-0.9,0-2.4,0.1-4.5,0.4s-3.3,0.4-3.3,0.5c1-3.6,1.9-7.6,2.8-11.9
		c1.9-9.8,3.3-17,4.1-21.7L339,12.9z"/>
	<path class="st2" d="M357.7,46.3c-1.5-0.1-3.1-0.1-4.7-0.1s-3.4,0-5.2,0.1c-0.6-4-1.3-8.4-1.9-13.1l-0.9,1c-0.2,1-0.5,2.2-0.7,3.6
		s-0.5,2.8-0.8,4.2c-0.3,1.4-0.6,2.9-0.9,4.6l-7.8,1.2c3.4-15.6,5.4-27.3,6-35.1c0.8,0.1,1.6,0.2,2.5,0.2s1.8,0.1,2.7,0.2
		c0.9,0.1,1.8,0.1,2.8,0.1c0,0.1-0.1,0.4-0.1,0.7c-0.1,0.3-0.1,0.8-0.2,1.3c-0.1,0.5-0.2,1.1-0.3,1.7s-0.3,1.4-0.5,2.4
		c-0.2,1-0.5,2.4-0.8,4.1l0.3,0c0.9-1.3,1.8-2.8,2.7-4.3c1.9-3,3.2-5,3.9-6.1c3.6-0.3,6.8-0.6,9.6-1.1c-5.4,7.4-9.2,12.7-11.2,15.9
		c0.7,3.2,1.5,6.3,2.5,9.4C355.7,40.1,356.7,43.1,357.7,46.3z"/>
	<path class="st2" d="M357,47.7l6.3-34.1l15.2-1.3c-0.2,0.7-0.4,1.4-0.6,2.1c-0.2,0.7-0.3,1.3-0.5,2s-0.3,1.2-0.4,1.7
		c-0.9,0.1-2.2,0.1-3.8,0.1H370l-1.7,8.6c1.7-0.1,3.2-0.2,4.3-0.2c1.2,0,1.9-0.1,2.3-0.1c-0.1,0.9-0.2,1.8-0.4,2.6
		c-0.1,0.9-0.2,1.7-0.4,2.6c-0.3,0-0.9,0.1-1.6,0.1c-0.7,0-1.5,0-2.3,0.1c-0.8,0-1.7,0.1-2.6,0.1L366,41l7-1.1l-0.5,5.5L357,47.7z"
		/>
</g>
<g>
	<rect x="-27.7" y="54.8" class="st1" width="501.3" height="29"/>
	<path class="st2" d="M45,73.4l-1,3.4c-0.4,0-0.8,0.1-1.3,0.2c-0.5,0.1-0.9,0.1-1.4,0.2s-1,0.1-1.5,0.2c0.6-2.1,1.2-3.9,1.6-5.4
		s0.8-2.7,1.1-3.6s0.6-1.9,0.8-2.8s0.5-1.8,0.8-2.7s0.5-1.7,0.7-2.4c2.9-0.2,5.1-0.5,6.6-0.8c-0.1,1.5-0.3,3.4-0.4,5.5
		c-0.2,4.2-0.4,8.1-0.5,11.6c-0.5,0.1-0.9,0.1-1.4,0.2c-0.4,0.1-0.9,0.1-1.4,0.2s-0.9,0.1-1.3,0.2c0.2-1.5,0.3-2.9,0.4-4.1H45z
		 M45.6,71l1.7-0.1c0-0.1,0-0.3,0-0.5s0.1-0.5,0.1-0.8c0.1-1.7,0.3-3.2,0.4-4.7l0.2-2.1l-0.4,0L45.6,71z"/>
	<path class="st2" d="M54.6,59.9h0.7c0.3,0,1.2,0,2.6-0.1c0.2,1.1,0.4,2.2,0.6,3.1c0.5,2.8,0.8,4.6,1,5.4c0.1-0.3,0.1-0.7,0.2-1.1
		s0.2-0.9,0.3-1.3s0.2-0.9,0.3-1.4c0.2-0.8,0.5-2.3,1-4.6l2.9-0.4c-1.7,7.9-2.8,13.6-3.2,17c-0.2,0-0.8,0.1-1.9,0.4
		c-1.1,0.3-1.8,0.4-2,0.5c-0.3-4.3-0.7-7.3-1-9.1c0,0.3-0.1,0.6-0.2,1s-0.2,0.8-0.2,1.3c-0.3,1.7-0.7,3.8-1.2,6.2l-3.5,0.8
		c1.8-8.5,2.8-14.4,3.1-17.7C54.3,59.9,54.5,59.9,54.6,59.9z"/>
	<path class="st2" d="M61.8,77.5c1.7-8.6,2.7-14.2,3.1-17c0.7-0.1,1.4-0.2,2.1-0.4s1.5-0.2,2.3-0.2s1.5,0.1,2.1,0.4s1.1,0.7,1.5,1.1
		c0.7,0.9,1.1,2.2,1.1,3.7c0,1.7-0.5,3.5-1.4,5.4c-1,2-2.2,3.6-3.8,4.9c-1.8,1.4-3.7,2.1-5.7,2.1C62.8,77.6,62.3,77.5,61.8,77.5z
		 M66,74.6c1.1-0.7,2.1-2.2,3-4.4c0.5-1.2,0.9-2.3,1-3.1s0.3-1.5,0.3-2s-0.2-0.9-0.5-1.2s-0.8-0.5-1.5-0.5c-0.3,1.3-0.6,2.8-0.9,4.3
		C66.7,70.3,66.3,72.6,66,74.6z"/>
	<path class="st2" d="M83.9,60c0,0-0.6,3.6-1.7,10.6h0.4c0.5-1.7,0.9-3.2,1.3-4.6s0.7-2.4,0.9-2.9c0.3-1.2,0.6-2.1,0.8-2.7h0.2
		c0.8,0,1.6-0.1,2.5-0.3c0,0.1-0.1,0.4-0.1,0.9s-0.1,1-0.2,1.6s-0.1,1.3-0.2,2.1s-0.1,1.5-0.2,2.2c-0.1,1.3-0.2,2.6-0.4,3.8h0.4
		L90,60.3c0.5-0.1,1.1-0.1,1.6-0.2c1.3-0.2,2.2-0.3,2.8-0.4c-0.6,1.8-1.2,3.8-1.7,5.9c-1.3,4.9-2.1,8.5-2.6,10.8l-5.4,0.9l1.1-9.3
		h-0.3l-2.4,8.7l-5,0.9l1.8-17c0.8,0,1.5-0.1,2.1-0.2S83.2,60.1,83.9,60z"/>
	<path class="st2" d="M91.6,77.5l3.1-17.1l7.6-0.7c-0.1,0.4-0.2,0.7-0.3,1s-0.2,0.7-0.2,1s-0.1,0.6-0.2,0.9c-0.5,0-1.1,0.1-1.9,0.1
		H98l-0.8,4.3c0.9,0,1.6-0.1,2.2-0.1s1,0,1.1,0c-0.1,0.5-0.1,0.9-0.2,1.3s-0.1,0.9-0.2,1.3c-0.2,0-0.4,0-0.8,0s-0.7,0-1.1,0
		s-0.8,0-1.3,0l-0.8,4.4l3.5-0.6l-0.2,2.7L91.6,77.5z"/>
	<path class="st2" d="M111.2,60c0,0-0.6,3.6-1.7,10.6h0.4c0.5-1.7,0.9-3.2,1.3-4.6s0.7-2.4,0.9-2.9c0.3-1.2,0.6-2.1,0.8-2.7h0.2
		c0.8,0,1.6-0.1,2.5-0.3c0,0.1-0.1,0.4-0.1,0.9s-0.1,1-0.2,1.6s-0.1,1.3-0.2,2.1s-0.1,1.5-0.2,2.2c-0.1,1.3-0.2,2.6-0.4,3.8h0.4
		l2.3-10.3c0.5-0.1,1.1-0.1,1.6-0.2c1.3-0.2,2.2-0.3,2.8-0.4c-0.6,1.8-1.2,3.8-1.7,5.9c-1.3,4.9-2.1,8.5-2.6,10.8l-5.4,0.9l1.1-9.3
		h-0.3l-2.4,8.7l-5,0.9l1.8-17c0.8,0,1.5-0.1,2.1-0.2S110.5,60.1,111.2,60z"/>
	<path class="st2" d="M125.7,60.1c-1.8,9.1-2.9,14.7-3.3,16.9c-0.4,0-1.2,0.1-2.3,0.2s-1.6,0.2-1.7,0.2c0.5-1.8,1-3.8,1.4-5.9
		c1-4.9,1.7-8.5,2.1-10.9L125.7,60.1z"/>
	<path class="st2" d="M128,74.1c0.6,0,1.4-0.1,2.5-0.1c0,0.6,0.1,1.1,0.1,1.5s0.1,0.7,0.1,0.8s0,0.3,0.1,0.4l-0.7,0
		c-1.6,0-3.3,0.1-4.9,0.4c-0.5,0.1-1,0.2-1.5,0.4c0.4-2.9,0.9-5.9,1.5-9.1s1.1-5.9,1.6-8l4.2-0.6c-1.5,6.2-2.3,9.9-2.5,11.3
		S128.1,73.5,128,74.1z"/>
	<path class="st2" d="M135.1,74.1c0.6,0,1.4-0.1,2.5-0.1c0,0.6,0.1,1.1,0.1,1.5s0.1,0.7,0.1,0.8s0,0.3,0.1,0.4l-0.7,0
		c-1.6,0-3.3,0.1-4.9,0.4c-0.5,0.1-1,0.2-1.5,0.4c0.4-2.9,0.9-5.9,1.5-9.1s1.1-5.9,1.6-8l4.2-0.6c-1.5,6.2-2.3,9.9-2.5,11.3
		S135.2,73.5,135.1,74.1z"/>
	<path class="st2" d="M142.7,77.5c1.7-8.2,2.7-14.1,3-17.6c1.5,0.1,2.8,0.2,3.9,0.2c-0.8,3.3-1.3,5.5-1.5,6.8l2.4-0.3
		c0.2-1.1,0.4-2.2,0.6-3.3s0.4-2.2,0.7-3.3c0.6-0.1,1.3-0.2,2-0.2s1.2-0.1,1.5-0.1l0.4,0c-0.8,2.5-1.5,6-2.3,10.5
		c-0.4,2-0.7,4.1-1,6.2l-3.8,0.4c0.2-1,0.4-1.9,0.6-2.7s0.3-1.7,0.5-2.5s0.3-1.5,0.4-2.1l-2.3,0.2c-0.4,2-0.8,4.3-1.3,7L142.7,77.5z
		"/>
	<path class="st2" d="M157.7,73.4l-1,3.4c-0.4,0-0.8,0.1-1.3,0.2c-0.5,0.1-0.9,0.1-1.4,0.2s-1,0.1-1.5,0.2c0.6-2.1,1.2-3.9,1.6-5.4
		s0.8-2.7,1.1-3.6s0.6-1.9,0.8-2.8s0.5-1.8,0.8-2.7s0.5-1.7,0.7-2.4c2.9-0.2,5.1-0.5,6.6-0.8c-0.1,1.5-0.3,3.4-0.4,5.5
		c-0.2,4.2-0.4,8.1-0.5,11.6c-0.5,0.1-0.9,0.1-1.4,0.2c-0.4,0.1-0.9,0.1-1.4,0.2s-0.9,0.1-1.3,0.2c0.2-1.5,0.3-2.9,0.4-4.1H157.7z
		 M158.2,71l1.7-0.1c0-0.1,0-0.3,0-0.5s0.1-0.5,0.1-0.8c0.1-1.7,0.3-3.2,0.4-4.7l0.2-2.1l-0.4,0L158.2,71z"/>
	<path class="st2" d="M164.5,77.7c0.7-7.4,1.1-13.2,1.2-17.6c1.2,0,2.3,0,3.4-0.1l0.4,0c-0.2,1.9-0.3,3.4-0.4,4.6s-0.2,2.2-0.3,2.9
		s-0.1,1.5-0.2,2.1c-0.1,1.2-0.2,2.3-0.4,3.4h0.4l2.7-12.8c0.4,0,0.9,0,1.3-0.1s0.9-0.1,1.3-0.1s0.8-0.1,1.2-0.1
		c-0.7,2.2-1.3,4.2-1.7,6.2s-0.9,3.7-1.3,5.2s-0.8,3.3-1.3,5.5L164.5,77.7z"/>
	<path class="st2" d="M172.4,77.5l3.1-17.1l7.6-0.7c-0.1,0.4-0.2,0.7-0.3,1s-0.2,0.7-0.2,1s-0.1,0.6-0.2,0.9c-0.5,0-1.1,0.1-1.9,0.1
		h-1.6l-0.8,4.3c0.9,0,1.6-0.1,2.2-0.1s1,0,1.1,0c-0.1,0.5-0.1,0.9-0.2,1.3s-0.1,0.9-0.2,1.3c-0.2,0-0.4,0-0.8,0s-0.7,0-1.1,0
		s-0.8,0-1.3,0l-0.8,4.4l3.5-0.6l-0.2,2.7L172.4,77.5z"/>
	<path class="st2" d="M192.1,60.1c-1.8,9.1-2.9,14.7-3.3,16.9c-0.4,0-1.2,0.1-2.3,0.2s-1.6,0.2-1.7,0.2c0.5-1.8,1-3.8,1.4-5.9
		c1-4.9,1.7-8.5,2.1-10.9L192.1,60.1z"/>
	<path class="st2" d="M192.2,63.4l0.1-3.1c0.8,0.1,1.6,0.1,2.5,0.1c2.2,0,4.3-0.1,6.4-0.4l-0.3,1.3c-0.1,0.4-0.2,0.7-0.2,1.1
		s-0.1,0.7-0.2,1c-0.4,0.1-0.7,0.2-1.1,0.2s-0.7,0.1-1.1,0.2c-0.3,1.2-0.6,2.7-0.8,4.5c-0.6,3.9-1.1,6.8-1.3,8.6l-4.3,0.7
		c1.3-5.9,2.1-10.6,2.6-13.9c-0.4,0-0.8-0.1-1.1,0S192.6,63.5,192.2,63.4z"/>
	<path class="st2" d="M210.5,77.1c-1.2-4-1.8-6.2-1.9-6.8l-0.3,0.1c-0.1,0.7-0.3,1.7-0.6,3s-0.4,2.3-0.6,3.1l-3.9,1
		c1.6-7.9,2.6-13.4,3-16.7c1.8-0.6,3.8-0.8,6.1-0.8c1.7,0,2.7,0.6,3,1.8c0.1,0.4,0.1,0.8,0.1,1.3s-0.1,1.1-0.3,1.7s-0.5,1.2-0.9,1.8
		c-0.8,1.1-1.7,2-2.9,2.6c0.6,1.3,1.2,2.6,1.6,3.7s0.9,2.1,1.2,2.9L210.5,77.1z M210.7,63.2l-1,0l-0.8,3.8c0.6-0.1,1.4-0.5,2.4-1.2
		c1-0.8,1.5-1.4,1.5-1.9c0-0.5-0.4-0.7-1.3-0.8C211.2,63.2,210.9,63.2,210.7,63.2z"/>
	<path class="st2" d="M214,77.5l3.1-17.1l7.6-0.7c-0.1,0.4-0.2,0.7-0.3,1s-0.2,0.7-0.2,1s-0.1,0.6-0.2,0.9c-0.5,0-1.1,0.1-1.9,0.1
		h-1.6l-0.8,4.3c0.9,0,1.6-0.1,2.2-0.1s1,0,1.1,0c-0.1,0.5-0.1,0.9-0.2,1.3s-0.1,0.9-0.2,1.3c-0.2,0-0.4,0-0.8,0s-0.7,0-1.1,0
		s-0.8,0-1.3,0l-0.8,4.4l3.5-0.6l-0.2,2.7L214,77.5z"/>
	<path class="st2" d="M226.6,73.4l-1,3.4c-0.4,0-0.8,0.1-1.3,0.2c-0.5,0.1-0.9,0.1-1.4,0.2s-1,0.1-1.5,0.2c0.6-2.1,1.2-3.9,1.6-5.4
		s0.8-2.7,1.1-3.6s0.6-1.9,0.8-2.8s0.5-1.8,0.8-2.7s0.5-1.7,0.7-2.4c2.9-0.2,5.1-0.5,6.6-0.8c-0.1,1.5-0.3,3.4-0.4,5.5
		c-0.2,4.2-0.4,8.1-0.5,11.6c-0.5,0.1-0.9,0.1-1.4,0.2c-0.4,0.1-0.9,0.1-1.4,0.2s-0.9,0.1-1.3,0.2c0.2-1.5,0.3-2.9,0.4-4.1H226.6z
		 M227.1,71l1.7-0.1c0-0.1,0-0.3,0-0.5s0.1-0.5,0.1-0.8c0.1-1.7,0.3-3.2,0.4-4.7l0.2-2.1l-0.4,0L227.1,71z"/>
	<path class="st2" d="M232.5,77.5c1.7-8.6,2.7-14.2,3.1-17c0.7-0.1,1.4-0.2,2.1-0.4s1.5-0.2,2.3-0.2s1.5,0.1,2.1,0.4
		s1.1,0.7,1.5,1.1c0.7,0.9,1.1,2.2,1.1,3.7c0,1.7-0.5,3.5-1.4,5.4c-1,2-2.2,3.6-3.8,4.9c-1.8,1.4-3.7,2.1-5.7,2.1
		C233.5,77.6,233,77.5,232.5,77.5z M236.7,74.6c1.1-0.7,2.1-2.2,3-4.4c0.5-1.2,0.9-2.3,1-3.1s0.3-1.5,0.3-2s-0.2-0.9-0.5-1.2
		s-0.8-0.5-1.5-0.5c-0.3,1.3-0.6,2.8-0.9,4.3C237.4,70.3,237,72.6,236.7,74.6z"/>
	<path class="st2" d="M248.9,67.2c0.5-1.3,1.4-3.7,2.5-7.1l3.7,0.8c-0.9,1.8-1.6,3.3-2.3,4.8l-1.5,3.1c-0.3,0.6-0.6,1.2-0.9,1.8
		s-0.6,1.1-0.8,1.7c-0.2,1.2-0.6,2.6-1.1,4.4l-4.1,0.5l1.1-4.8c0-1.9-0.1-4.1-0.2-6.4s-0.3-3.7-0.3-4.1l0-0.5l3.9-1.5V64l0,2.3V67.2
		z"/>
	<path class="st2" d="M263.4,60c0,0-0.6,3.6-1.7,10.6h0.4c0.5-1.7,0.9-3.2,1.3-4.6s0.7-2.4,0.9-2.9c0.3-1.2,0.6-2.1,0.8-2.7h0.2
		c0.8,0,1.6-0.1,2.5-0.3c0,0.1-0.1,0.4-0.1,0.9s-0.1,1-0.2,1.6s-0.1,1.3-0.2,2.1s-0.1,1.5-0.2,2.2c-0.1,1.3-0.2,2.6-0.4,3.8h0.4
		l2.3-10.3c0.5-0.1,1.1-0.1,1.6-0.2c1.3-0.2,2.2-0.3,2.8-0.4c-0.6,1.8-1.2,3.8-1.7,5.9c-1.3,4.9-2.1,8.5-2.6,10.8l-5.4,0.9l1.1-9.3
		h-0.3l-2.4,8.7l-5,0.9l1.8-17c0.8,0,1.5-0.1,2.1-0.2S262.8,60.1,263.4,60z"/>
	<path class="st2" d="M271.1,77.5c1.7-8.2,2.7-14.1,3-17.6c1.5,0.1,2.8,0.2,3.9,0.2c-0.8,3.3-1.3,5.5-1.5,6.8l2.4-0.3
		c0.2-1.1,0.4-2.2,0.6-3.3s0.4-2.2,0.7-3.3c0.6-0.1,1.3-0.2,2-0.2s1.2-0.1,1.5-0.1l0.4,0c-0.8,2.5-1.5,6-2.3,10.5
		c-0.4,2-0.7,4.1-1,6.2l-3.8,0.4c0.2-1,0.4-1.9,0.6-2.7s0.3-1.7,0.5-2.5s0.3-1.5,0.4-2.1l-2.3,0.2c-0.4,2-0.8,4.3-1.3,7L271.1,77.5z
		"/>
	<path class="st2" d="M281.7,77.5l3.1-17.1l7.6-0.7c-0.1,0.4-0.2,0.7-0.3,1s-0.2,0.7-0.2,1s-0.1,0.6-0.2,0.9c-0.5,0-1.1,0.1-1.9,0.1
		h-1.6l-0.8,4.3c0.9,0,1.6-0.1,2.2-0.1s1,0,1.1,0c-0.1,0.5-0.1,0.9-0.2,1.3s-0.1,0.9-0.2,1.3c-0.2,0-0.4,0-0.8,0s-0.7,0-1.1,0
		s-0.8,0-1.3,0l-0.8,4.4l3.5-0.6l-0.2,2.7L281.7,77.5z"/>
	<path class="st2" d="M293.5,59.9h0.7c0.3,0,1.2,0,2.6-0.1c0.2,1.1,0.4,2.2,0.6,3.1c0.5,2.8,0.8,4.6,1,5.4c0.1-0.3,0.1-0.7,0.2-1.1
		s0.2-0.9,0.3-1.3s0.2-0.9,0.3-1.4c0.2-0.8,0.5-2.3,1-4.6l2.9-0.4c-1.7,7.9-2.8,13.6-3.2,17c-0.2,0-0.8,0.1-1.9,0.4
		c-1.1,0.3-1.8,0.4-2,0.5c-0.3-4.3-0.7-7.3-1-9.1c0,0.3-0.1,0.6-0.2,1s-0.2,0.8-0.2,1.3c-0.3,1.7-0.7,3.8-1.2,6.2l-3.5,0.8
		c1.8-8.5,2.8-14.4,3.1-17.7C293.2,59.9,293.4,59.9,293.5,59.9z"/>
	<path class="st2" d="M311.5,67.2c0.5-1.3,1.4-3.7,2.5-7.1l3.7,0.8c-0.9,1.8-1.6,3.3-2.3,4.8l-1.5,3.1c-0.3,0.6-0.6,1.2-0.9,1.8
		s-0.6,1.1-0.8,1.7c-0.2,1.2-0.6,2.6-1.1,4.4l-4.1,0.5l1.1-4.8c0-1.9-0.1-4.1-0.2-6.4s-0.3-3.7-0.3-4.1l0-0.5l3.9-1.5V64l0,2.3V67.2
		z"/>
	<path class="st2" d="M327.4,65c0,1-0.1,2-0.4,3.2s-0.6,2.2-1.1,3.2s-1,1.8-1.6,2.6s-1.3,1.4-1.9,1.9c-1.4,1.1-2.7,1.6-4,1.6
		c-1.1,0-1.9-0.4-2.6-1.2c-0.7-0.9-1-2.1-1-3.8c0-1.8,0.4-3.7,1.2-5.8s1.9-3.8,3.3-5.2c1.5-1.5,3-2.2,4.6-2.2c1.3,0,2.3,0.5,2.9,1.6
		C327.2,62,327.4,63.3,327.4,65z M324.1,66.5c0-1.3-0.4-1.9-1.1-1.9c-1,0-1.8,0.5-2.6,1.4c-0.6,0.8-1.1,1.8-1.6,3.1
		c-0.3,1.1-0.5,2.1-0.5,3c0,0.6,0.3,1.1,0.8,1.4c0.2,0.1,0.3,0.2,0.5,0.2c0.7,0,1.4-0.2,1.9-0.7s1-1.1,1.4-1.8s0.7-1.5,0.9-2.3
		S324.1,67.2,324.1,66.5z"/>
	<path class="st2" d="M329,60.4c0.3,0,0.7-0.1,1.2-0.1s0.9-0.1,1.4-0.1s0.9-0.1,1.4-0.1c-0.4,1.9-0.7,3.4-1,4.6s-0.4,2-0.6,2.7
		s-0.3,1.3-0.4,1.9c-0.3,1.2-0.4,2-0.5,2.3c-0.2,1.1-0.4,1.8-0.4,2.1s0.1,0.6,0.2,0.7s0.3,0.2,0.5,0.2s0.4-0.1,0.6-0.3
		s0.3-0.5,0.4-0.8s0.2-0.6,0.3-0.9s0.1-0.6,0.2-0.9s0.2-0.8,0.3-1.3s0.2-1.2,0.4-1.8s0.2-1.2,0.4-1.9c0.3-1.6,0.7-3.7,1.1-6.2
		l3.6-0.2l-0.1,0.6c-0.2,1-0.4,2.1-0.6,3.4s-0.4,2.4-0.6,3.3c-0.5,2.4-0.8,4.2-1.1,5.2s-0.6,1.9-1,2.5s-0.9,1.2-1.4,1.6
		c-1,0.8-2.3,1.2-3.6,1.2c-0.8,0-1.6-0.2-2.2-0.7c-0.7-0.6-1-1.3-1-2.2c0-0.1,0-0.1,0-0.2s0-0.3,0.1-0.6s0.1-1,0.3-1.9
		s0.3-1.9,0.5-2.9s0.3-2,0.5-3s0.4-1.9,0.5-2.8C328.7,61.7,328.9,60.7,329,60.4z"/>
	<path class="st2" d="M345.1,73.4l-1,3.4c-0.4,0-0.8,0.1-1.3,0.2c-0.5,0.1-0.9,0.1-1.4,0.2s-1,0.1-1.5,0.2c0.6-2.1,1.2-3.9,1.6-5.4
		s0.8-2.7,1.1-3.6s0.6-1.9,0.8-2.8s0.5-1.8,0.8-2.7s0.5-1.7,0.7-2.4c2.9-0.2,5.1-0.5,6.6-0.8c-0.1,1.5-0.3,3.4-0.4,5.5
		c-0.2,4.2-0.4,8.1-0.5,11.6c-0.5,0.1-0.9,0.1-1.4,0.2c-0.4,0.1-0.9,0.1-1.4,0.2s-0.9,0.1-1.3,0.2c0.2-1.5,0.3-2.9,0.4-4.1H345.1z
		 M345.7,71l1.7-0.1c0-0.1,0-0.3,0-0.5s0.1-0.5,0.1-0.8c0.1-1.7,0.3-3.2,0.4-4.7l0.2-2.1l-0.4,0L345.7,71z"/>
	<path class="st2" d="M358.3,77.1c-1.2-4.2-1.8-6.7-1.9-7.2l-0.3,0.1c-0.5,2.9-0.9,5.1-1.1,6.5l-3.9,1c1.6-7.9,2.6-13.4,3-16.7
		c1.8-0.6,3.8-0.8,6.1-0.8c1.7,0,2.7,0.6,3,1.8c0.1,0.4,0.1,0.8,0.1,1.3s-0.1,1.1-0.3,1.7s-0.5,1.2-0.9,1.8c-0.8,1.1-1.7,2-2.9,2.6
		c0.6,1.3,1.2,2.6,1.6,3.7s0.9,2.1,1.2,2.9L358.3,77.1z M358.5,63.2l-1,0l-0.8,3.8c0.6-0.1,1.4-0.5,2.4-1.2c1-0.8,1.5-1.4,1.5-1.9
		c0-0.5-0.4-0.7-1.3-0.8C359,63.2,358.7,63.2,358.5,63.2z"/>
	<path class="st2" d="M368.9,77.1c-1.2-4-1.8-6.2-1.9-6.8l-0.3,0.1c-0.1,0.7-0.3,1.7-0.6,3s-0.4,2.3-0.6,3.1l-3.9,1
		c1.6-7.9,2.6-13.4,3-16.7c1.8-0.6,3.8-0.8,6.1-0.8c1.7,0,2.7,0.6,3,1.8c0.1,0.4,0.1,0.8,0.1,1.3s-0.1,1.1-0.3,1.7s-0.5,1.2-0.9,1.8
		c-0.8,1.1-1.7,2-2.9,2.6c0.6,1.3,1.2,2.6,1.6,3.7s0.9,2.1,1.2,2.9L368.9,77.1z M369.2,63.2l-1,0l-0.8,3.8c0.6-0.1,1.4-0.5,2.4-1.2
		c1-0.8,1.5-1.4,1.5-1.9c0-0.5-0.4-0.7-1.3-0.8C369.7,63.2,369.4,63.2,369.2,63.2z"/>
	<path class="st2" d="M379.3,60.1c-1.8,9.1-2.9,14.7-3.3,16.9c-0.4,0-1.2,0.1-2.3,0.2s-1.6,0.2-1.7,0.2c0.5-1.8,1-3.8,1.4-5.9
		c1-4.9,1.7-8.5,2.1-10.9L379.3,60.1z"/>
	<path class="st2" d="M378.5,77.7c0.7-7.4,1.1-13.2,1.2-17.6c1.2,0,2.3,0,3.4-0.1l0.4,0c-0.2,1.9-0.3,3.4-0.4,4.6s-0.2,2.2-0.3,2.9
		s-0.1,1.5-0.2,2.1c-0.1,1.2-0.2,2.3-0.4,3.4h0.4l2.7-12.8c0.4,0,0.9,0,1.3-0.1s0.9-0.1,1.3-0.1s0.8-0.1,1.2-0.1
		c-0.7,2.2-1.3,4.2-1.7,6.2s-0.9,3.7-1.3,5.2s-0.8,3.3-1.3,5.5L378.5,77.7z"/>
	<path class="st2" d="M386.4,77.5l3.1-17.1l7.6-0.7c-0.1,0.4-0.2,0.7-0.3,1s-0.2,0.7-0.2,1s-0.1,0.6-0.2,0.9c-0.5,0-1.1,0.1-1.9,0.1
		h-1.6l-0.8,4.3c0.9,0,1.6-0.1,2.2-0.1s1,0,1.1,0c-0.1,0.5-0.1,0.9-0.2,1.3s-0.1,0.9-0.2,1.3c-0.2,0-0.4,0-0.8,0s-0.7,0-1.1,0
		s-0.8,0-1.3,0l-0.8,4.4l3.5-0.6l-0.2,2.7L386.4,77.5z"/>
	<path class="st2" d="M401.2,78c-0.4,0-0.8-0.1-1-0.2s-0.5-0.3-0.7-0.5c-0.4-0.5-0.5-1-0.5-1.6c0-1,0.4-1.7,1.3-2.2
		c0.3-0.1,0.6-0.2,1.1-0.2c0.9,0,1.6,0.2,2.1,0.7s0.7,0.9,0.7,1.5c0,0.7-0.3,1.2-0.8,1.7C402.8,77.8,402,78,401.2,78z M408.4,59.5
		c-0.9,2-1.6,4-2.4,6.1s-1.4,4.1-2.1,6.2c-0.5,0-0.9,0-1.4,0s-0.9,0.1-1.4,0.1c0.5-2,1-3.9,1.5-5.9s1-3.9,1.5-5.9
		c0.3,0,0.6-0.1,1-0.2s0.8-0.1,1.2-0.2s0.8-0.1,1.2-0.2S408.1,59.6,408.4,59.5z"/>
</g>
<polyline class="st0" points="215,87.5 126.5,145 169.7,83.8 "/>
<g>
</g>
<g>
</g>
<g>
</g>
<g>
</g>
<g>
</g>
<g>
</g>
</svg>
