<?xml version="1.0" encoding="utf-8"?>
<!-- Generator: Adobe Illustrator 19.2.1, SVG Export Plug-In . SVG Version: 6.00 Build 0)  -->
<svg version="1.1" id="Layer_1" xmlns="http://www.w3.org/2000/svg" xmlns:xlink="http://www.w3.org/1999/xlink" x="0px" y="0px"
	 viewBox="0 0 298.5 135.3" style="enable-background:new 0 0 298.5 135.3;" xml:space="preserve">
<style type="text/css">
	.st0{fill:#FFFFFF;stroke:#010101;stroke-width:1.7374;stroke-miterlimit:10;}
	.st1{fill:none;}
	.st2{fill:#010101;}
	.st3{fill:#FFFFFF;stroke:#010101;stroke-width:2.2927;stroke-miterlimit:10;}
</style>
<rect x="2" y="2" class="st0" width="294.3" height="73.7"/>
<g>
	<rect x="-104" y="14.3" class="st1" width="501.3" height="87"/>
	<path class="st2" d="M21.4,27.8c0.4,0,0.8-0.2,1.2-0.7c0.4-0.5,0.7-1,0.8-1.5l2.7,1.1c-0.7,1.6-1.6,2.9-2.8,3.9
		c-1,0.9-2.1,1.3-3.1,1.3c-1,0-1.8-0.5-2.4-1.4c-0.7-1-1-2.2-1-3.8s0.2-3.1,0.6-4.6s1-2.8,1.7-3.9S21,16,22,15.3s2.2-1.1,3.4-1.1
		c0.8,0,1.5,0.3,2,0.9c0.5,0.6,0.8,1.4,0.8,2.5v0.3c0,0.1,0,0.2,0,0.3l-3.1,0.8c-0.2-0.4-0.4-0.6-0.7-0.6s-0.5,0.1-0.8,0.4
		s-0.6,0.7-0.8,1.1s-0.5,1-0.8,1.6s-0.5,1.2-0.7,1.8c-0.4,1.3-0.7,2.4-0.7,3.2S21,27.8,21.4,27.8z"/>
	<path class="st2" d="M26.1,31.9c1.7-8.2,2.7-14.1,3-17.6c1.5,0.1,2.8,0.2,3.9,0.2c-0.8,3.3-1.3,5.5-1.5,6.8l2.4-0.3
		c0.2-1.1,0.4-2.2,0.6-3.3s0.4-2.2,0.7-3.3c0.6-0.1,1.3-0.2,2-0.2s1.2-0.1,1.5-0.1l0.4,0c-0.8,2.5-1.5,6-2.3,10.5
		c-0.4,2-0.7,4.1-1,6.2l-3.8,0.4c0.2-1,0.4-1.9,0.6-2.7s0.3-1.7,0.5-2.5s0.3-1.5,0.4-2.1l-2.3,0.2c-0.4,2-0.8,4.3-1.3,7L26.1,31.9z"
		/>
	<path class="st2" d="M36.7,31.8l3.1-17.1l7.6-0.7c-0.1,0.4-0.2,0.7-0.3,1s-0.2,0.7-0.2,1s-0.1,0.6-0.2,0.9c-0.5,0-1.1,0.1-1.9,0.1
		h-1.6l-0.8,4.3c0.9,0,1.6-0.1,2.2-0.1s1,0,1.1,0c-0.1,0.5-0.1,0.9-0.2,1.3s-0.1,0.9-0.2,1.3c-0.2,0-0.4,0-0.8,0s-0.7,0-1.1,0
		s-0.8,0-1.3,0l-0.8,4.4l3.5-0.6l-0.2,2.7L36.7,31.8z"/>
	<path class="st2" d="M50,27.8c0.4,0,0.8-0.2,1.2-0.7c0.4-0.5,0.7-1,0.8-1.5l2.7,1.1c-0.7,1.6-1.6,2.9-2.8,3.9
		c-1,0.9-2.1,1.3-3.1,1.3c-1,0-1.8-0.5-2.4-1.4c-0.7-1-1-2.2-1-3.8s0.2-3.1,0.6-4.6s1-2.8,1.7-3.9s1.6-2.1,2.7-2.8s2.2-1.1,3.4-1.1
		c0.8,0,1.5,0.3,2,0.9c0.5,0.6,0.8,1.4,0.8,2.5v0.3c0,0.1,0,0.2,0,0.3l-3.1,0.8c-0.2-0.4-0.4-0.6-0.7-0.6s-0.5,0.1-0.8,0.4
		s-0.6,0.7-0.8,1.1s-0.5,1-0.8,1.6s-0.5,1.2-0.7,1.8c-0.4,1.3-0.7,2.4-0.7,3.2S49.5,27.8,50,27.8z"/>
	<path class="st2" d="M66.1,31.1c-0.8,0-1.5,0-2.4,0s-1.7,0-2.6,0c-0.3-2-0.6-4.2-0.9-6.5l-0.4,0.5c-0.1,0.5-0.2,1.1-0.4,1.8
		S59.2,28.2,59,29s-0.3,1.5-0.4,2.3l-3.9,0.6c1.7-7.8,2.7-13.7,3-17.5c0.4,0,0.8,0.1,1.3,0.1s0.9,0.1,1.3,0.1s0.9,0,1.4,0
		c0,0.1,0,0.2-0.1,0.4s-0.1,0.4-0.1,0.6s-0.1,0.5-0.2,0.8s-0.1,0.7-0.2,1.2s-0.2,1.2-0.4,2.1l0.1,0c0.4-0.7,0.9-1.4,1.4-2.1
		c0.9-1.5,1.6-2.5,2-3.1c1.8-0.1,3.4-0.3,4.8-0.5c-2.7,3.7-4.6,6.3-5.6,7.9c0.3,1.6,0.8,3.2,1.2,4.7S65.6,29.5,66.1,31.1z"/>
	<path class="st2" d="M83.7,19.4c0,1-0.1,2-0.4,3.2s-0.6,2.2-1.1,3.2s-1,1.8-1.6,2.6s-1.3,1.4-1.9,1.9c-1.4,1.1-2.7,1.6-4,1.6
		c-1.1,0-1.9-0.4-2.6-1.2c-0.7-0.9-1-2.1-1-3.8c0-1.8,0.4-3.7,1.2-5.8s1.9-3.8,3.3-5.2c1.5-1.5,3-2.2,4.6-2.2c1.3,0,2.3,0.5,2.9,1.6
		C83.5,16.3,83.7,17.6,83.7,19.4z M80.4,20.8c0-1.3-0.4-1.9-1.1-1.9c-1,0-1.8,0.5-2.6,1.4c-0.6,0.8-1.1,1.8-1.6,3.1
		c-0.3,1.1-0.5,2.1-0.5,3c0,0.6,0.3,1.1,0.8,1.4c0.2,0.1,0.3,0.2,0.5,0.2c0.7,0,1.4-0.2,1.9-0.7s1-1.1,1.4-1.8s0.7-1.5,0.9-2.3
		S80.4,21.5,80.4,20.8z"/>
	<path class="st2" d="M85.3,14.7c0.3,0,0.7-0.1,1.2-0.1s0.9-0.1,1.4-0.1s0.9-0.1,1.4-0.1c-0.4,1.9-0.7,3.4-1,4.6s-0.4,2-0.6,2.7
		s-0.3,1.3-0.4,1.9c-0.3,1.2-0.4,2-0.5,2.3c-0.2,1.1-0.4,1.8-0.4,2.1s0.1,0.6,0.2,0.7s0.3,0.2,0.5,0.2s0.4-0.1,0.6-0.3
		s0.3-0.5,0.4-0.8s0.2-0.6,0.3-0.9s0.1-0.6,0.2-0.9s0.2-0.8,0.3-1.3s0.2-1.2,0.4-1.8s0.2-1.2,0.4-1.9c0.3-1.6,0.7-3.7,1.1-6.2
		l3.6-0.2L94.5,15c-0.2,1-0.4,2.1-0.6,3.4s-0.4,2.4-0.6,3.3c-0.5,2.4-0.8,4.2-1.1,5.2s-0.6,1.9-1,2.5s-0.9,1.2-1.4,1.6
		c-1,0.8-2.3,1.2-3.6,1.2c-0.8,0-1.6-0.2-2.2-0.7c-0.7-0.6-1-1.3-1-2.2c0-0.1,0-0.1,0-0.2s0-0.3,0.1-0.6s0.1-1,0.3-1.9
		s0.3-1.9,0.5-2.9s0.3-2,0.5-3s0.4-1.9,0.5-2.8C85.1,16.1,85.3,15,85.3,14.7z"/>
	<path class="st2" d="M94.7,17.7l0.1-3.1c0.8,0.1,1.6,0.1,2.5,0.1c2.2,0,4.3-0.1,6.4-0.4l-0.3,1.3c-0.1,0.4-0.2,0.7-0.2,1.1
		s-0.1,0.7-0.2,1c-0.4,0.1-0.7,0.2-1.1,0.2s-0.7,0.1-1.1,0.2c-0.3,1.2-0.6,2.7-0.8,4.5c-0.6,3.9-1.1,6.8-1.3,8.6l-4.3,0.7
		c1.3-5.9,2.1-10.6,2.6-13.9c-0.4,0-0.8-0.1-1.1,0S95,17.8,94.7,17.7z"/>
	<path class="st2" d="M108,17.7l0.1-3.1c0.8,0.1,1.6,0.1,2.5,0.1c2.2,0,4.3-0.1,6.4-0.4l-0.3,1.3c-0.1,0.4-0.2,0.7-0.2,1.1
		s-0.1,0.7-0.2,1c-0.4,0.1-0.7,0.2-1.1,0.2s-0.7,0.1-1.1,0.2c-0.3,1.2-0.6,2.7-0.8,4.5c-0.6,3.9-1.1,6.8-1.3,8.6l-4.3,0.7
		c1.3-5.9,2.1-10.6,2.6-13.9c-0.4,0-0.8-0.1-1.1,0S108.4,17.8,108,17.7z"/>
	<path class="st2" d="M114.5,31.9c1.7-8.2,2.7-14.1,3-17.6c1.5,0.1,2.8,0.2,3.9,0.2c-0.8,3.3-1.3,5.5-1.5,6.8l2.4-0.3
		c0.2-1.1,0.4-2.2,0.6-3.3s0.4-2.2,0.7-3.3c0.6-0.1,1.3-0.2,2-0.2s1.2-0.1,1.5-0.1l0.4,0c-0.8,2.5-1.5,6-2.3,10.5
		c-0.4,2-0.7,4.1-1,6.2l-3.8,0.4c0.2-1,0.4-1.9,0.6-2.7s0.3-1.7,0.5-2.5s0.3-1.5,0.4-2.1l-2.3,0.2c-0.4,2-0.8,4.3-1.3,7L114.5,31.9z
		"/>
	<path class="st2" d="M125.1,31.8l3.1-17.1l7.6-0.7c-0.1,0.4-0.2,0.7-0.3,1s-0.2,0.7-0.2,1s-0.1,0.6-0.2,0.9c-0.5,0-1.1,0.1-1.9,0.1
		h-1.6l-0.8,4.3c0.9,0,1.6-0.1,2.2-0.1s1,0,1.1,0c-0.1,0.5-0.1,0.9-0.2,1.3s-0.1,0.9-0.2,1.3c-0.2,0-0.4,0-0.8,0s-0.7,0-1.1,0
		s-0.8,0-1.3,0l-0.8,4.4l3.5-0.6l-0.2,2.7L125.1,31.8z"/>
	<path class="st2" d="M148.6,25.9c0,0.6-0.1,1.1-0.4,1.7s-0.6,1.1-1.1,1.5c-0.5,0.5-1,0.9-1.6,1.2s-1.3,0.6-2,0.9
		c-1.3,0.5-2.7,0.7-4.1,0.7c-0.6,0-1.1,0-1.7-0.1c0.8-2.8,1.4-5.6,1.8-8.5s0.9-5.7,1.3-8.6c2.2-0.5,4-0.7,5.4-0.7
		c1.6,0,2.8,0.6,3.4,1.7c0.3,0.4,0.4,0.9,0.4,1.6s-0.1,1.2-0.3,1.7s-0.4,1-0.8,1.5c-0.6,0.9-1.4,1.5-2.3,1.8
		C147.9,23,148.6,24.3,148.6,25.9z M142.4,27c1.4-0.2,2.4-0.6,3-1.2c0.3-0.3,0.4-0.6,0.4-0.9s-0.1-0.6-0.2-0.8s-0.3-0.4-0.6-0.5
		c-0.5-0.3-1-0.4-1.5-0.4h-0.2c-0.1,0-0.1,0-0.2,0c-0.1,0.4-0.1,0.7-0.2,1s-0.1,0.6-0.2,0.9s-0.1,0.6-0.2,0.9S142.5,26.7,142.4,27z
		 M143.6,20.3c2-0.4,2.9-1,2.9-1.6c0-0.6-0.5-1-1.5-1.1c-0.3,0-0.5-0.1-0.7-0.1h-0.3c0,0.2-0.1,0.4-0.1,0.6s-0.1,0.5-0.1,0.8
		s-0.1,0.5-0.2,0.8S143.7,20.1,143.6,20.3z"/>
	<path class="st2" d="M148.2,31.8l3.1-17.1l7.6-0.7c-0.1,0.4-0.2,0.7-0.3,1s-0.2,0.7-0.2,1s-0.1,0.6-0.2,0.9c-0.5,0-1.1,0.1-1.9,0.1
		h-1.6l-0.8,4.3c0.9,0,1.6-0.1,2.2-0.1s1,0,1.1,0c-0.1,0.5-0.1,0.9-0.2,1.3s-0.1,0.9-0.2,1.3c-0.2,0-0.4,0-0.8,0s-0.7,0-1.1,0
		s-0.8,0-1.3,0l-0.8,4.4l3.5-0.6l-0.2,2.7L148.2,31.8z"/>
	<path class="st2" d="M160.7,27.7l-1,3.4c-0.4,0-0.8,0.1-1.3,0.2s-0.9,0.1-1.4,0.2s-1,0.1-1.5,0.2c0.6-2.1,1.2-3.9,1.6-5.4
		s0.8-2.7,1.1-3.6s0.6-1.9,0.8-2.8s0.5-1.8,0.8-2.7s0.5-1.7,0.7-2.4c2.9-0.2,5.1-0.5,6.6-0.8c-0.1,1.5-0.3,3.4-0.4,5.5
		c-0.2,4.2-0.4,8.1-0.5,11.6c-0.5,0.1-0.9,0.1-1.4,0.2s-0.9,0.1-1.4,0.2s-0.9,0.1-1.3,0.2c0.2-1.5,0.3-2.9,0.4-4.1H160.7z
		 M161.3,25.3l1.7-0.1c0-0.1,0-0.3,0-0.5s0.1-0.5,0.1-0.8c0.1-1.7,0.3-3.2,0.4-4.7l0.2-2.1l-0.4,0L161.3,25.3z"/>
	<path class="st2" d="M169.6,14.7c0.3,0,0.7-0.1,1.2-0.1s0.9-0.1,1.4-0.1s0.9-0.1,1.4-0.1c-0.4,1.9-0.7,3.4-1,4.6s-0.4,2-0.6,2.7
		s-0.3,1.3-0.4,1.9c-0.3,1.2-0.4,2-0.5,2.3c-0.2,1.1-0.4,1.8-0.4,2.1s0.1,0.6,0.2,0.7s0.3,0.2,0.5,0.2s0.4-0.1,0.6-0.3
		s0.3-0.5,0.4-0.8s0.2-0.6,0.3-0.9s0.1-0.6,0.2-0.9s0.2-0.8,0.3-1.3s0.2-1.2,0.4-1.8s0.2-1.2,0.4-1.9c0.3-1.6,0.7-3.7,1.1-6.2
		l3.6-0.2l-0.1,0.6c-0.2,1-0.4,2.1-0.6,3.4s-0.4,2.4-0.6,3.3c-0.5,2.4-0.8,4.2-1.1,5.2s-0.6,1.9-1,2.5s-0.9,1.2-1.4,1.6
		c-1,0.8-2.3,1.2-3.6,1.2c-0.8,0-1.6-0.2-2.2-0.7c-0.7-0.6-1-1.3-1-2.2c0-0.1,0-0.1,0-0.2s0-0.3,0.1-0.6s0.1-1,0.3-1.9
		s0.3-1.9,0.5-2.9s0.3-2,0.5-3s0.4-1.9,0.5-2.8C169.3,16.1,169.5,15,169.6,14.7z"/>
	<path class="st2" d="M178.9,17.7l0.1-3.1c0.8,0.1,1.6,0.1,2.5,0.1c2.2,0,4.3-0.1,6.4-0.4l-0.3,1.3c-0.1,0.4-0.2,0.7-0.2,1.1
		s-0.1,0.7-0.2,1c-0.4,0.1-0.7,0.2-1.1,0.2s-0.7,0.1-1.1,0.2c-0.3,1.2-0.6,2.7-0.8,4.5c-0.6,3.9-1.1,6.8-1.3,8.6l-4.3,0.7
		c1.3-5.9,2.1-10.6,2.6-13.9c-0.4,0-0.8-0.1-1.1,0S179.3,17.8,178.9,17.7z"/>
	<path class="st2" d="M192.1,14.4c-1.8,9.1-2.9,14.7-3.3,16.9c-0.4,0-1.2,0.1-2.3,0.2s-1.6,0.2-1.7,0.2c0.5-1.8,1-3.8,1.4-5.9
		c1-4.9,1.7-8.5,2.1-10.9L192.1,14.4z"/>
	<path class="st2" d="M199,23.9c-0.3,0-1.4,0-3.4-0.1l-1.1,7.1c-1.3,0.2-2.8,0.5-4.5,0.9c0.5-1.7,0.9-3.7,1.3-5.9
		c0.7-4.1,1.4-7.9,1.9-11.3l8-0.4l-0.7,3h-3.8l-0.8,4.3c0.5,0,1,0,1.4,0h1.2c0.4,0,0.7,0,0.9,0L199,23.9z"/>
	<path class="st2" d="M201.2,14.7c0.3,0,0.7-0.1,1.2-0.1s0.9-0.1,1.4-0.1s0.9-0.1,1.4-0.1c-0.4,1.9-0.7,3.4-1,4.6s-0.4,2-0.6,2.7
		s-0.3,1.3-0.4,1.9c-0.3,1.2-0.4,2-0.5,2.3c-0.2,1.1-0.4,1.8-0.4,2.1s0.1,0.6,0.2,0.7s0.3,0.2,0.5,0.2s0.4-0.1,0.6-0.3
		s0.3-0.5,0.4-0.8s0.2-0.6,0.3-0.9s0.1-0.6,0.2-0.9s0.2-0.8,0.3-1.3s0.2-1.2,0.4-1.8s0.2-1.2,0.4-1.9c0.3-1.6,0.7-3.7,1.1-6.2
		l3.6-0.2l-0.1,0.6c-0.2,1-0.4,2.1-0.6,3.4s-0.4,2.4-0.6,3.3c-0.5,2.4-0.8,4.2-1.1,5.2s-0.6,1.9-1,2.5s-0.9,1.2-1.4,1.6
		c-1,0.8-2.3,1.2-3.6,1.2c-0.8,0-1.6-0.2-2.2-0.7c-0.7-0.6-1-1.3-1-2.2c0-0.1,0-0.1,0-0.2s0-0.3,0.1-0.6s0.1-1,0.3-1.9
		s0.3-1.9,0.5-2.9s0.3-2,0.5-3s0.4-1.9,0.5-2.8C201,16.1,201.2,15,201.2,14.7z"/>
	<path class="st2" d="M212.6,28.4c0.6,0,1.4-0.1,2.5-0.1c0,0.6,0.1,1.1,0.1,1.5s0.1,0.7,0.1,0.8s0,0.3,0.1,0.4l-0.7,0
		c-1.6,0-3.3,0.1-4.9,0.4c-0.5,0.1-1,0.2-1.5,0.4c0.4-2.9,0.9-5.9,1.5-9.1s1.1-5.9,1.6-8l4.2-0.6c-1.5,6.2-2.3,9.9-2.5,11.3
		S212.7,27.9,212.6,28.4z"/>
	<path class="st2" d="M225.4,27.8c0.4,0,0.8-0.2,1.2-0.7c0.4-0.5,0.7-1,0.8-1.5l2.7,1.1c-0.7,1.6-1.6,2.9-2.8,3.9
		c-1,0.9-2.1,1.3-3.1,1.3c-1,0-1.8-0.5-2.4-1.4c-0.7-1-1-2.2-1-3.8s0.2-3.1,0.6-4.6s1-2.8,1.7-3.9s1.6-2.1,2.7-2.8s2.2-1.1,3.4-1.1
		c0.8,0,1.5,0.3,2,0.9c0.5,0.6,0.8,1.4,0.8,2.5v0.3c0,0.1,0,0.2,0,0.3l-3.1,0.8c-0.2-0.4-0.4-0.6-0.7-0.6s-0.5,0.1-0.8,0.4
		s-0.6,0.7-0.8,1.1s-0.5,1-0.8,1.6s-0.5,1.2-0.7,1.8c-0.4,1.3-0.7,2.4-0.7,3.2S225,27.8,225.4,27.8z"/>
	<path class="st2" d="M237,14.4c-1.8,9.1-2.9,14.7-3.3,16.9c-0.4,0-1.2,0.1-2.3,0.2s-1.6,0.2-1.7,0.2c0.5-1.8,1-3.8,1.4-5.9
		c1-4.9,1.7-8.5,2.1-10.9L237,14.4z"/>
	<path class="st2" d="M237.1,17.7l0.1-3.1c0.8,0.1,1.6,0.1,2.5,0.1c2.2,0,4.3-0.1,6.4-0.4l-0.3,1.3c-0.1,0.4-0.2,0.7-0.2,1.1
		s-0.1,0.7-0.2,1c-0.4,0.1-0.7,0.2-1.1,0.2s-0.7,0.1-1.1,0.2c-0.3,1.2-0.6,2.7-0.8,4.5c-0.6,3.9-1.1,6.8-1.3,8.6l-4.3,0.7
		c1.3-5.9,2.1-10.6,2.6-13.9c-0.4,0-0.8-0.1-1.1,0S237.5,17.8,237.1,17.7z"/>
	<path class="st2" d="M249.6,21.5c0.5-1.3,1.4-3.7,2.5-7.1l3.7,0.8c-0.9,1.8-1.6,3.3-2.3,4.8l-1.5,3.1c-0.3,0.6-0.6,1.2-0.9,1.8
		s-0.6,1.1-0.8,1.7c-0.2,1.2-0.6,2.6-1.1,4.4l-4.1,0.5l1.1-4.8c0-1.9-0.1-4.1-0.2-6.4s-0.3-3.7-0.3-4.1l0-0.5l3.9-1.5v4.2l0,2.3
		V21.5z"/>
	<path class="st2" d="M270.7,19.4c0,1-0.1,2-0.4,3.2s-0.6,2.2-1.1,3.2s-1,1.8-1.6,2.6s-1.3,1.4-1.9,1.9c-1.4,1.1-2.7,1.6-4,1.6
		c-1.1,0-1.9-0.4-2.6-1.2c-0.7-0.9-1-2.1-1-3.8c0-1.8,0.4-3.7,1.2-5.8s1.9-3.8,3.3-5.2c1.5-1.5,3-2.2,4.6-2.2c1.3,0,2.3,0.5,2.9,1.6
		C270.4,16.3,270.7,17.6,270.7,19.4z M267.3,20.8c0-1.3-0.4-1.9-1.1-1.9c-1,0-1.8,0.5-2.6,1.4c-0.6,0.8-1.1,1.8-1.6,3.1
		c-0.3,1.1-0.5,2.1-0.5,3c0,0.6,0.3,1.1,0.8,1.4c0.2,0.1,0.3,0.2,0.5,0.2c0.7,0,1.4-0.2,1.9-0.7s1-1.1,1.4-1.8s0.7-1.5,0.9-2.3
		S267.3,21.5,267.3,20.8z"/>
	<path class="st2" d="M278.2,23.9c-0.3,0-1.4,0-3.4-0.1l-1.1,7.1c-1.3,0.2-2.8,0.5-4.5,0.9c0.5-1.7,0.9-3.7,1.3-5.9
		c0.7-4.1,1.4-7.9,1.9-11.3l8-0.4l-0.7,3h-3.8l-0.8,4.3c0.5,0,1,0,1.4,0h1.2c0.4,0,0.7,0,0.9,0L278.2,23.9z"/>
	<path class="st2" d="M13,56.5l-1,3.4c-0.4,0-0.8,0.1-1.3,0.2s-0.9,0.1-1.4,0.2s-1,0.1-1.5,0.2c0.6-2.1,1.2-3.9,1.6-5.4
		s0.8-2.7,1.1-3.6s0.6-1.9,0.8-2.8s0.5-1.8,0.8-2.7s0.5-1.7,0.7-2.4c2.9-0.2,5.1-0.5,6.6-0.8c-0.1,1.5-0.3,3.4-0.4,5.5
		c-0.2,4.2-0.4,8.1-0.5,11.6c-0.5,0.1-0.9,0.1-1.4,0.2s-0.9,0.1-1.4,0.2s-0.9,0.1-1.3,0.2c0.2-1.5,0.3-2.9,0.4-4.1H13z M13.5,54.1
		l1.7-0.1c0-0.1,0-0.3,0-0.5s0.1-0.5,0.1-0.8c0.1-1.7,0.3-3.2,0.4-4.7L16,46l-0.4,0L13.5,54.1z"/>
	<path class="st2" d="M27.3,52.2c1.8-4.8,3-7.9,3.6-9.1c0.8-0.1,1.4-0.2,2-0.3s0.9-0.1,1.3-0.2s0.8-0.1,1.2-0.2
		c-0.8,4.5-1.4,10.2-1.9,17.1l-4.2,0.8c0-0.6,0.1-1.5,0.2-2.7l0.3-2.8c0.2-1.4,0.3-2.5,0.4-3.3H30c-0.2,0.7-0.5,1.4-0.7,2.1
		s-0.6,1.5-0.8,2.3s-0.6,1.5-0.8,2.3s-0.5,1.4-0.7,2.1c-0.6,0-1,0-1.4,0.1L24,60.4l0.8-8.9h-0.4c0,0.2-0.1,0.6-0.2,1
		s-0.3,1.1-0.4,1.7s-0.3,1.3-0.5,2s-0.4,1.3-0.6,1.9c-0.3,1-0.5,1.7-0.6,2.1l-4,0.3c2.5-7.7,4.3-13.3,5.2-16.9c0.9,0,1.7,0,2.5-0.1
		s1.6-0.2,2.5-0.3c0,0.3-0.1,0.7-0.2,1.2S28,45.3,28,45.7s-0.1,1-0.2,1.5s-0.2,1.2-0.3,2s-0.3,1.8-0.5,3H27.3z"/>
	<path class="st2" d="M42.4,48.3c0.1-0.3,0.1-0.6,0.1-1s-0.1-0.6-0.3-0.8s-0.4-0.3-0.6-0.3s-0.4,0-0.6,0.1s-0.4,0.2-0.6,0.4
		c-0.4,0.4-0.7,0.7-0.7,1.2s0.1,0.8,0.3,1s0.5,0.5,0.8,0.7s0.7,0.4,1,0.7s0.7,0.5,1.1,0.9c0.8,0.9,1.1,2,1.1,3.5
		c0,1.8-0.6,3.2-1.9,4.3c-1.2,1.1-2.8,1.6-4.6,1.6c-1.4,0-2.6-0.7-3.8-2.2l1.8-3.5c0.2,0.4,0.6,0.8,1.3,1.2c0.6,0.4,1.1,0.6,1.4,0.6
		s0.6,0,0.8-0.1s0.4-0.2,0.6-0.3c0.4-0.3,0.6-0.6,0.6-1s-0.1-0.8-0.4-1.1s-0.6-0.6-0.9-0.9s-0.8-0.6-1.2-0.9s-0.8-0.6-1.2-1
		c-0.9-0.8-1.3-1.6-1.3-2.5s0.2-1.6,0.7-2.4s1.1-1.3,1.9-1.9s1.6-0.9,2.4-1.2s1.6-0.5,2.2-0.5s1.1,0.1,1.5,0.2s0.7,0.3,1,0.5
		c0.6,0.5,0.9,1.2,0.9,2.2c0,0.2,0,0.5-0.1,0.7s-0.1,0.5-0.1,0.7L42.4,48.3z"/>
	<path class="st2" d="M46.4,46.5l0.1-3.1c0.8,0.1,1.6,0.1,2.5,0.1c2.2,0,4.3-0.1,6.4-0.4l-0.3,1.3c-0.1,0.4-0.2,0.7-0.2,1.1
		s-0.1,0.7-0.2,1c-0.4,0.1-0.7,0.2-1.1,0.2s-0.7,0.1-1.1,0.2c-0.3,1.2-0.6,2.7-0.8,4.5c-0.6,3.9-1.1,6.8-1.3,8.6l-4.3,0.7
		c1.3-5.9,2.1-10.6,2.6-13.9c-0.4,0-0.8-0.1-1.1,0S46.8,46.6,46.4,46.5z"/>
	<path class="st2" d="M52.9,60.6L56,43.6l7.6-0.7c-0.1,0.4-0.2,0.7-0.3,1s-0.2,0.7-0.2,1s-0.1,0.6-0.2,0.9c-0.5,0-1.1,0.1-1.9,0.1
		h-1.6l-0.8,4.3c0.9,0,1.6-0.1,2.2-0.1s1,0,1.1,0c-0.1,0.5-0.1,0.9-0.2,1.3s-0.1,0.9-0.2,1.3c-0.2,0-0.4,0-0.8,0s-0.7,0-1.1,0
		s-0.8,0-1.3,0l-0.8,4.4l3.5-0.6l-0.2,2.7L52.9,60.6z"/>
	<path class="st2" d="M68.2,60.2c-1.2-4-1.8-6.2-1.9-6.8L66,53.5c-0.1,0.7-0.3,1.7-0.6,3s-0.4,2.3-0.6,3.1l-3.9,1
		c1.6-7.9,2.6-13.4,3-16.7c1.8-0.6,3.8-0.8,6.1-0.8c1.7,0,2.7,0.6,3,1.8c0.1,0.4,0.1,0.8,0.1,1.3s-0.1,1.1-0.3,1.7s-0.5,1.2-0.9,1.8
		c-0.8,1.1-1.7,2-2.9,2.6c0.6,1.3,1.2,2.6,1.6,3.7s0.9,2.1,1.2,2.9L68.2,60.2z M68.4,46.4l-1,0l-0.8,3.8c0.6-0.1,1.4-0.5,2.4-1.2
		c1-0.8,1.5-1.4,1.5-1.9c0-0.5-0.4-0.7-1.3-0.8C68.9,46.4,68.6,46.4,68.4,46.4z"/>
	<path class="st2" d="M71.6,60.6c1.7-8.6,2.7-14.2,3.1-17c0.7-0.1,1.4-0.2,2.1-0.4s1.5-0.2,2.3-0.2s1.5,0.1,2.1,0.4s1.1,0.7,1.5,1.1
		c0.7,0.9,1.1,2.2,1.1,3.7c0,1.7-0.5,3.5-1.4,5.4c-1,2-2.2,3.6-3.8,4.9c-1.8,1.4-3.7,2.1-5.7,2.1C72.6,60.7,72.2,60.7,71.6,60.6z
		 M75.8,57.7c1.1-0.7,2.1-2.2,3-4.4c0.5-1.2,0.9-2.3,1-3.1s0.3-1.5,0.3-2s-0.2-0.9-0.5-1.2s-0.8-0.5-1.5-0.5
		c-0.3,1.3-0.6,2.8-0.9,4.3C76.6,53.4,76.1,55.7,75.8,57.7z"/>
	<path class="st2" d="M86.5,56.5l-1,3.4c-0.4,0-0.8,0.1-1.3,0.2s-0.9,0.1-1.4,0.2s-1,0.1-1.5,0.2c0.6-2.1,1.2-3.9,1.6-5.4
		s0.8-2.7,1.1-3.6s0.6-1.9,0.8-2.8s0.5-1.8,0.8-2.7s0.5-1.7,0.7-2.4c2.9-0.2,5.1-0.5,6.6-0.8c-0.1,1.5-0.3,3.4-0.4,5.5
		c-0.2,4.2-0.4,8.1-0.5,11.6c-0.5,0.1-0.9,0.1-1.4,0.2s-0.9,0.1-1.4,0.2s-0.9,0.1-1.3,0.2c0.2-1.5,0.3-2.9,0.4-4.1H86.5z M87,54.1
		l1.7-0.1c0-0.1,0-0.3,0-0.5s0.1-0.5,0.1-0.8c0.1-1.7,0.3-3.2,0.4-4.7l0.2-2.1l-0.4,0L87,54.1z"/>
	<path class="st2" d="M100.8,52.2c1.8-4.8,3-7.9,3.6-9.1c0.8-0.1,1.4-0.2,2-0.3s0.9-0.1,1.3-0.2s0.8-0.1,1.2-0.2
		c-0.8,4.5-1.4,10.2-1.9,17.1l-4.2,0.8c0-0.6,0.1-1.5,0.2-2.7l0.3-2.8c0.2-1.4,0.3-2.5,0.4-3.3h-0.2c-0.2,0.7-0.5,1.4-0.7,2.1
		s-0.6,1.5-0.8,2.3s-0.6,1.5-0.8,2.3s-0.5,1.4-0.7,2.1c-0.6,0-1,0-1.4,0.1l-1.4,0.1l0.8-8.9h-0.4c0,0.2-0.1,0.6-0.2,1
		s-0.3,1.1-0.4,1.7s-0.3,1.3-0.5,2s-0.4,1.3-0.6,1.9c-0.3,1-0.5,1.7-0.6,2.1l-4,0.3c2.5-7.7,4.3-13.3,5.2-16.9c0.9,0,1.7,0,2.5-0.1
		s1.6-0.2,2.5-0.3c0,0.3-0.1,0.7-0.2,1.2s-0.1,0.9-0.2,1.4s-0.1,1-0.2,1.5s-0.2,1.2-0.3,2s-0.3,1.8-0.5,3H100.8z"/>
	<path class="st2" d="M118.9,43.2c-1.8,9.1-2.9,14.7-3.3,16.9c-0.4,0-1.2,0.1-2.3,0.2s-1.6,0.2-1.7,0.2c0.5-1.8,1-3.8,1.4-5.9
		c1-4.9,1.7-8.5,2.1-10.9L118.9,43.2z"/>
	<path class="st2" d="M120.4,43h0.7c0.3,0,1.2,0,2.6-0.1c0.2,1.1,0.4,2.2,0.6,3.1c0.5,2.8,0.8,4.6,1,5.4c0.1-0.3,0.1-0.7,0.2-1.1
		s0.2-0.9,0.3-1.3s0.2-0.9,0.3-1.4c0.2-0.8,0.5-2.3,1-4.6l2.9-0.4c-1.7,7.9-2.8,13.6-3.2,17c-0.2,0-0.8,0.1-1.9,0.4s-1.8,0.4-2,0.5
		c-0.3-4.3-0.7-7.3-1-9.1c0,0.3-0.1,0.6-0.2,1s-0.2,0.8-0.2,1.3c-0.3,1.7-0.7,3.8-1.2,6.2l-3.5,0.8c1.8-8.5,2.8-14.4,3.1-17.7
		C120.1,43,120.3,43,120.4,43z"/>
	<path class="st2" d="M134.6,46.5l0.1-3.1c0.8,0.1,1.6,0.1,2.5,0.1c2.2,0,4.3-0.1,6.4-0.4l-0.3,1.3c-0.1,0.4-0.2,0.7-0.2,1.1
		s-0.1,0.7-0.2,1c-0.4,0.1-0.7,0.2-1.1,0.2s-0.7,0.1-1.1,0.2c-0.3,1.2-0.6,2.7-0.8,4.5c-0.6,3.9-1.1,6.8-1.3,8.6l-4.3,0.7
		c1.3-5.9,2.1-10.6,2.6-13.9c-0.4,0-0.8-0.1-1.1,0S135,46.6,134.6,46.5z"/>
	<path class="st2" d="M141,60.7c1.7-8.2,2.7-14.1,3-17.6c1.5,0.1,2.8,0.2,3.9,0.2c-0.8,3.3-1.3,5.5-1.5,6.8l2.4-0.3
		c0.2-1.1,0.4-2.2,0.6-3.3s0.4-2.2,0.7-3.3c0.6-0.1,1.3-0.2,2-0.2s1.2-0.1,1.5-0.1l0.4,0c-0.8,2.5-1.5,6-2.3,10.5
		c-0.4,2-0.7,4.1-1,6.2L147,60c0.2-1,0.4-1.9,0.6-2.7s0.3-1.7,0.5-2.5s0.3-1.5,0.4-2.1l-2.3,0.2c-0.4,2-0.8,4.3-1.3,7L141,60.7z"/>
	<path class="st2" d="M151.6,60.6l3.1-17.1l7.6-0.7c-0.1,0.4-0.2,0.7-0.3,1s-0.2,0.7-0.2,1s-0.1,0.6-0.2,0.9c-0.5,0-1.1,0.1-1.9,0.1
		h-1.6l-0.8,4.3c0.9,0,1.6-0.1,2.2-0.1s1,0,1.1,0c-0.1,0.5-0.1,0.9-0.2,1.3s-0.1,0.9-0.2,1.3c-0.2,0-0.4,0-0.8,0s-0.7,0-1.1,0
		s-0.8,0-1.3,0l-0.8,4.4l3.5-0.6l-0.2,2.7L151.6,60.6z"/>
	<path class="st2" d="M174.7,47.4c-0.3-1.2-0.7-1.8-1.4-1.8c-0.4,0-0.8,0.3-1.3,0.9s-0.9,1.3-1.3,2.2c-1,2.1-1.5,4.1-1.5,6.1
		c0,1,0.1,1.7,0.4,2.1s0.6,0.6,1,0.6s0.8-0.1,1.1-0.2s0.6-0.4,0.9-0.7c0.6-0.7,1-1.4,1-2.3l-2.6,0.4l0.4-2.4
		c2.2-0.3,4.2-0.6,5.9-0.9c-0.1,1.6-0.4,3-1,4.3s-1.2,2.2-1.9,3s-1.5,1.4-2.4,1.8s-1.6,0.6-2.3,0.6s-1.3-0.1-1.8-0.4s-1-0.7-1.4-1.2
		c-0.8-1.1-1.3-2.7-1.3-4.7s0.3-3.8,0.9-5.4s1.3-2.8,2.2-3.8s1.9-1.8,2.9-2.3s1.9-0.8,2.7-0.8s1.4,0.1,1.9,0.3s0.9,0.5,1.1,0.9
		c0.6,0.7,0.9,1.7,0.9,2.9L174.7,47.4z"/>
	<path class="st2" d="M180.9,56.5l-1,3.4c-0.4,0-0.8,0.1-1.3,0.2s-0.9,0.1-1.4,0.2s-1,0.1-1.5,0.2c0.6-2.1,1.2-3.9,1.6-5.4
		s0.8-2.7,1.1-3.6s0.6-1.9,0.8-2.8s0.5-1.8,0.8-2.7s0.5-1.7,0.7-2.4c2.9-0.2,5.1-0.5,6.6-0.8c-0.1,1.5-0.3,3.4-0.4,5.5
		c-0.2,4.2-0.4,8.1-0.5,11.6c-0.5,0.1-0.9,0.1-1.4,0.2s-0.9,0.1-1.4,0.2s-0.9,0.1-1.3,0.2c0.2-1.5,0.3-2.9,0.4-4.1H180.9z
		 M181.4,54.1l1.7-0.1c0-0.1,0-0.3,0-0.5s0.1-0.5,0.1-0.8c0.1-1.7,0.3-3.2,0.4-4.7l0.2-2.1l-0.4,0L181.4,54.1z"/>
	<path class="st2" d="M191.2,57.2c0.6,0,1.4-0.1,2.5-0.1c0,0.6,0.1,1.1,0.1,1.5s0.1,0.7,0.1,0.8s0,0.3,0.1,0.4l-0.7,0
		c-1.6,0-3.3,0.1-4.9,0.4c-0.5,0.1-1,0.2-1.5,0.4c0.4-2.9,0.9-5.9,1.5-9.1s1.1-5.9,1.6-8l4.2-0.6c-1.5,6.2-2.3,9.9-2.5,11.3
		S191.3,56.7,191.2,57.2z"/>
	<path class="st2" d="M198.3,57.2c0.6,0,1.4-0.1,2.5-0.1c0,0.6,0.1,1.1,0.1,1.5s0.1,0.7,0.1,0.8s0,0.3,0.1,0.4l-0.7,0
		c-1.6,0-3.3,0.1-4.9,0.4c-0.5,0.1-1,0.2-1.5,0.4c0.4-2.9,0.9-5.9,1.5-9.1s1.1-5.9,1.6-8l4.2-0.6c-1.5,6.2-2.3,9.9-2.5,11.3
		S198.4,56.7,198.3,57.2z"/>
	<path class="st2" d="M201.2,60.6l3.1-17.1l7.6-0.7c-0.1,0.4-0.2,0.7-0.3,1s-0.2,0.7-0.2,1s-0.1,0.6-0.2,0.9c-0.5,0-1.1,0.1-1.9,0.1
		h-1.6l-0.8,4.3c0.9,0,1.6-0.1,2.2-0.1s1,0,1.1,0c-0.1,0.5-0.1,0.9-0.2,1.3s-0.1,0.9-0.2,1.3c-0.2,0-0.4,0-0.8,0s-0.7,0-1.1,0
		s-0.8,0-1.3,0l-0.8,4.4l3.5-0.6l-0.2,2.7L201.2,60.6z"/>
	<path class="st2" d="M216.5,60.2c-1.2-4-1.8-6.2-1.9-6.8l-0.3,0.1c-0.1,0.7-0.3,1.7-0.6,3s-0.4,2.3-0.6,3.1l-3.9,1
		c1.6-7.9,2.6-13.4,3-16.7c1.8-0.6,3.8-0.8,6.1-0.8c1.7,0,2.7,0.6,3,1.8c0.1,0.4,0.1,0.8,0.1,1.3s-0.1,1.1-0.3,1.7s-0.5,1.2-0.9,1.8
		c-0.8,1.1-1.7,2-2.9,2.6c0.6,1.3,1.2,2.6,1.6,3.7s0.9,2.1,1.2,2.9L216.5,60.2z M216.8,46.4l-1,0l-0.8,3.8c0.6-0.1,1.4-0.5,2.4-1.2
		c1-0.8,1.5-1.4,1.5-1.9c0-0.5-0.4-0.7-1.3-0.8C217.3,46.4,217,46.4,216.8,46.4z"/>
	<path class="st2" d="M225.8,50.3c0.5-1.3,1.4-3.7,2.5-7.1l3.7,0.8c-0.9,1.8-1.6,3.3-2.3,4.8l-1.5,3.1c-0.3,0.6-0.6,1.2-0.9,1.8
		s-0.6,1.1-0.8,1.7c-0.2,1.2-0.6,2.6-1.1,4.4l-4.1,0.5l1.1-4.8c0-1.9-0.1-4.1-0.2-6.4s-0.3-3.7-0.3-4.1l0-0.5l3.9-1.5v4.2l0,2.3
		V50.3z"/>
	<path class="st2" d="M244.3,54.7c0,0.6-0.1,1.1-0.4,1.7s-0.6,1.1-1.1,1.5s-1,0.9-1.6,1.2s-1.3,0.6-2,0.9c-1.3,0.5-2.7,0.7-4.1,0.7
		c-0.6,0-1.1,0-1.7-0.1c0.8-2.8,1.4-5.6,1.8-8.5s0.9-5.7,1.3-8.6c2.2-0.5,4-0.7,5.4-0.7c1.6,0,2.8,0.6,3.4,1.7
		c0.3,0.4,0.4,0.9,0.4,1.6s-0.1,1.2-0.3,1.7s-0.4,1-0.8,1.5c-0.6,0.9-1.4,1.5-2.3,1.8C243.7,51.8,244.3,53.1,244.3,54.7z
		 M238.2,55.8c1.4-0.2,2.4-0.6,3-1.2c0.3-0.3,0.4-0.6,0.4-0.9s-0.1-0.6-0.2-0.8s-0.3-0.4-0.6-0.5c-0.5-0.3-1-0.4-1.5-0.4H239
		c-0.1,0-0.1,0-0.2,0c-0.1,0.4-0.1,0.7-0.2,1s-0.1,0.6-0.2,0.9s-0.1,0.6-0.2,0.9S238.2,55.5,238.2,55.8z M239.4,49.1
		c2-0.4,2.9-1,2.9-1.6c0-0.6-0.5-1-1.5-1.1c-0.3,0-0.5-0.1-0.7-0.1h-0.3c0,0.2-0.1,0.4-0.1,0.6s-0.1,0.5-0.1,0.8s-0.1,0.5-0.2,0.8
		S239.4,48.9,239.4,49.1z"/>
	<path class="st2" d="M243.9,60.6l3.1-17.1l7.6-0.7c-0.1,0.4-0.2,0.7-0.3,1s-0.2,0.7-0.2,1s-0.1,0.6-0.2,0.9c-0.5,0-1.1,0.1-1.9,0.1
		h-1.6l-0.8,4.3c0.9,0,1.6-0.1,2.2-0.1s1,0,1.1,0c-0.1,0.5-0.1,0.9-0.2,1.3s-0.1,0.9-0.2,1.3c-0.2,0-0.4,0-0.8,0s-0.7,0-1.1,0
		s-0.8,0-1.3,0l-0.8,4.4l3.5-0.6l-0.2,2.7L243.9,60.6z"/>
	<path class="st2" d="M256.5,57.2c0.6,0,1.4-0.1,2.5-0.1c0,0.6,0.1,1.1,0.1,1.5s0.1,0.7,0.1,0.8s0,0.3,0.1,0.4l-0.7,0
		c-1.6,0-3.3,0.1-4.9,0.4c-0.5,0.1-1,0.2-1.5,0.4c0.4-2.9,0.9-5.9,1.5-9.1s1.1-5.9,1.6-8l4.2-0.6c-1.5,6.2-2.3,9.9-2.5,11.3
		S256.5,56.7,256.5,57.2z"/>
	<path class="st2" d="M272,48.2c0,1-0.1,2-0.4,3.2s-0.6,2.2-1.1,3.2s-1,1.8-1.6,2.6s-1.3,1.4-1.9,1.9c-1.4,1.1-2.7,1.6-4,1.6
		c-1.1,0-1.9-0.4-2.6-1.2c-0.7-0.9-1-2.1-1-3.8c0-1.8,0.4-3.7,1.2-5.8s1.9-3.8,3.3-5.2c1.5-1.5,3-2.2,4.6-2.2c1.3,0,2.3,0.5,2.9,1.6
		C271.8,45.1,272,46.4,272,48.2z M268.7,49.6c0-1.3-0.4-1.9-1.1-1.9c-1,0-1.8,0.5-2.6,1.4c-0.6,0.8-1.1,1.8-1.6,3.1
		c-0.3,1.1-0.5,2.1-0.5,3c0,0.6,0.3,1.1,0.8,1.4c0.2,0.1,0.3,0.2,0.5,0.2c0.7,0,1.4-0.2,1.9-0.7s1-1.1,1.4-1.8s0.7-1.5,0.9-2.3
		S268.7,50.3,268.7,49.6z"/>
	<path class="st2" d="M277.4,43.2c0,0-0.6,3.6-1.7,10.6h0.4c0.5-1.7,0.9-3.2,1.3-4.6s0.7-2.4,0.9-2.9c0.3-1.2,0.6-2.1,0.8-2.7h0.2
		c0.8,0,1.6-0.1,2.5-0.3c0,0.1-0.1,0.4-0.1,0.9s-0.1,1-0.2,1.6s-0.1,1.3-0.2,2.1s-0.1,1.5-0.2,2.2c-0.1,1.3-0.2,2.6-0.4,3.8h0.4
		l2.3-10.3c0.5-0.1,1.1-0.1,1.6-0.2c1.3-0.2,2.2-0.3,2.8-0.4c-0.6,1.8-1.2,3.8-1.7,5.9c-1.3,4.9-2.1,8.5-2.6,10.8l-5.4,0.9l1.1-9.3
		h-0.3l-2.4,8.7l-5,0.9l1.8-17c0.8,0,1.5-0.1,2.1-0.2S276.7,43.2,277.4,43.2z"/>
</g>
<polyline class="st3" points="138.8,72.8 50.3,130.3 93.4,69 "/>
<g>
</g>
<g>
</g>
<g>
</g>
<g>
</g>
<g>
</g>
<g>
</g>
</svg>
