<?xml version="1.0" encoding="utf-8"?>
<!-- Generator: Adobe Illustrator 19.2.1, SVG Export Plug-In . SVG Version: 6.00 Build 0)  -->
<svg version="1.1" id="Layer_1" xmlns="http://www.w3.org/2000/svg" xmlns:xlink="http://www.w3.org/1999/xlink" x="0px" y="0px"
	 viewBox="0 0 440.5 150.8" style="enable-background:new 0 0 440.5 150.8;" xml:space="preserve">
<style type="text/css">
	.st0{fill:#FFFFFF;stroke:#010101;stroke-width:2.2927;stroke-miterlimit:10;}
	.st1{fill:none;}
	.st2{fill:#010101;}
</style>
<rect x="3.3" y="3.4" class="st0" width="432.8" height="87.3"/>
<g>
	<rect x="-27.6" y="12.8" class="st1" width="501.3" height="84.6"/>
	<path class="st2" d="M41.6,13.1c0,0.1-1.1,7.1-3.4,21.2h0.8c0.9-3.3,1.8-6.4,2.6-9.3s1.4-4.8,1.7-5.9c0.6-2.4,1.1-4.2,1.5-5.4h0.4
		c1.6,0,3.3-0.2,5.1-0.6c-0.1,0.3-0.1,0.9-0.2,1.8s-0.2,2-0.3,3.2s-0.3,2.7-0.4,4.2c-0.1,1.5-0.3,3-0.4,4.5
		c-0.2,2.7-0.5,5.2-0.7,7.5h0.9l4.5-20.6c1.1-0.2,2.1-0.3,3.1-0.4c2.6-0.3,4.5-0.6,5.6-0.8c-1.3,3.6-2.4,7.5-3.5,11.7
		c-2.5,9.9-4.3,17-5.3,21.5l-10.8,1.8L45,28.9h-0.6l-4.7,17.4l-10,1.8L33.3,14c1.5-0.1,2.9-0.2,4.2-0.4S40.2,13.2,41.6,13.1z"/>
	<path class="st2" d="M56.9,47.9l6.3-34.1l15.2-1.3c-0.2,0.7-0.4,1.4-0.6,2.1c-0.2,0.7-0.3,1.3-0.5,2s-0.3,1.2-0.4,1.7
		c-0.9,0.1-2.2,0.1-3.8,0.1h-3.2l-1.7,8.6c1.7-0.1,3.2-0.2,4.3-0.2c1.2,0,1.9-0.1,2.3-0.1c-0.1,0.9-0.2,1.8-0.4,2.6
		c-0.1,0.9-0.2,1.7-0.4,2.6c-0.3,0-0.9,0.1-1.6,0.1c-0.7,0-1.5,0-2.3,0.1c-0.8,0-1.7,0.1-2.6,0.1l-1.6,8.9l7-1.1l-0.5,5.5L56.9,47.9
		z"/>
	<path class="st2" d="M82,41.2c1.2-0.1,2.8-0.1,5-0.1c0.1,1.2,0.2,2.2,0.3,3c0.1,0.8,0.2,1.3,0.3,1.7c0,0.4,0.1,0.6,0.1,0.7l-1.5,0
		c-3.3,0-6.5,0.3-9.8,0.9c-1.1,0.2-2,0.5-2.9,0.8c0.8-5.8,1.7-11.9,3-18.2s2.3-11.7,3.2-16.1l8.4-1.1c-2.9,12.3-4.6,19.9-5.1,22.7
		S82.2,40,82,41.2z"/>
	<path class="st2" d="M96.7,39.9c0.8,0,1.6-0.5,2.5-1.5c0.9-1,1.4-2,1.7-3.1l5.5,2.2c-1.4,3.3-3.3,5.9-5.5,7.8
		c-2,1.7-4.1,2.6-6.2,2.6c-2,0-3.6-0.9-4.9-2.7c-1.3-1.9-2-4.5-2-7.6c0-3.2,0.4-6.2,1.2-9.1c0.8-2.9,2-5.6,3.5-7.9
		c1.5-2.3,3.3-4.2,5.4-5.6c2.1-1.4,4.4-2.2,6.8-2.2c1.6,0,3,0.6,4.1,1.8c1.1,1.3,1.6,2.9,1.6,4.9v0.6c0,0.2,0,0.4,0,0.6l-6.3,1.7
		c-0.4-0.8-0.8-1.2-1.3-1.2s-1.1,0.3-1.6,0.9c-0.6,0.6-1.1,1.4-1.7,2.3s-1.1,2-1.6,3.2S97,30,96.6,31.2c-0.9,2.6-1.3,4.7-1.3,6.4
		C95.3,39.1,95.8,39.9,96.7,39.9z"/>
	<path class="st2" d="M132.2,23c0,1.9-0.3,4-0.8,6.3c-0.5,2.3-1.3,4.4-2.2,6.4c-0.9,1.9-2,3.7-3.3,5.2c-1.2,1.5-2.5,2.8-3.9,3.9
		c-2.8,2.2-5.5,3.3-8,3.3c-2.2,0-3.9-0.8-5.1-2.3c-1.4-1.7-2.1-4.2-2.1-7.5c0-3.6,0.8-7.4,2.5-11.5s3.8-7.6,6.5-10.3
		c2.9-2.9,6-4.4,9.1-4.4c2.6,0,4.5,1.1,5.8,3.2C131.7,16.9,132.2,19.5,132.2,23z M125.5,26c0-2.6-0.8-3.9-2.3-3.9
		c-1.9,0-3.6,0.9-5.2,2.8c-1.2,1.5-2.3,3.5-3.1,6.1c-0.7,2.1-1,4.1-1,6c0,1.3,0.5,2.2,1.6,2.8c0.3,0.2,0.7,0.3,1.1,0.3
		c1.4,0,2.7-0.5,3.8-1.5s2-2.2,2.8-3.6c0.8-1.4,1.3-3,1.7-4.6S125.5,27.3,125.5,26z"/>
	<path class="st2" d="M145.7,31.1c3.6-9.7,6-15.7,7.1-18.1c1.6-0.2,2.9-0.4,3.9-0.5c1-0.2,1.9-0.3,2.6-0.4c0.7-0.1,1.5-0.2,2.3-0.4
		c-1.5,9.1-2.8,20.5-3.8,34.3l-8.4,1.5c0-1.1,0.1-2.9,0.4-5.4l0.7-5.6c0.3-2.8,0.6-5,0.9-6.6H151c-0.4,1.3-0.9,2.8-1.5,4.2
		c-0.5,1.5-1.1,3-1.7,4.5c-0.6,1.5-1.1,3-1.7,4.5c-0.5,1.5-1,2.9-1.4,4.2c-1.1,0-2.1,0.1-2.9,0.1l-2.8,0.1l1.5-17.8h-0.7
		c-0.1,0.4-0.2,1.1-0.5,2.1s-0.6,2.1-0.9,3.4s-0.7,2.6-1.1,3.9s-0.8,2.6-1.1,3.8c-0.6,2-1,3.4-1.2,4.2l-7.9,0.5
		c5.1-15.4,8.5-26.6,10.4-33.8c1.8,0,3.5-0.1,5-0.3s3.3-0.4,5.1-0.5c-0.1,0.7-0.2,1.5-0.3,2.3c-0.1,0.9-0.2,1.8-0.4,2.8
		c-0.1,1-0.3,2-0.4,3c-0.2,1-0.4,2.3-0.6,3.9c-0.2,1.6-0.5,3.6-0.9,6H145.7z"/>
	<path class="st2" d="M158.7,47.9l6.3-34.1l15.2-1.3c-0.2,0.7-0.4,1.4-0.6,2.1c-0.2,0.7-0.3,1.3-0.5,2s-0.3,1.2-0.4,1.7
		c-0.9,0.1-2.2,0.1-3.8,0.1h-3.2l-1.7,8.6c1.7-0.1,3.2-0.2,4.3-0.2c1.2,0,1.9-0.1,2.3-0.1c-0.1,0.9-0.2,1.8-0.4,2.6
		c-0.1,0.9-0.2,1.7-0.4,2.6c-0.3,0-0.9,0.1-1.6,0.1c-0.7,0-1.5,0-2.3,0.1c-0.8,0-1.7,0.1-2.6,0.1l-1.6,8.9l7-1.1l-0.5,5.5
		L158.7,47.9z"/>
	<path class="st2" d="M189,19.7l0.2-6.1c1.6,0.1,3.3,0.2,4.9,0.2c4.4,0,8.6-0.3,12.8-0.8l-0.5,2.6c-0.2,0.7-0.3,1.5-0.4,2.2
		c-0.1,0.8-0.3,1.4-0.4,2c-0.7,0.2-1.4,0.3-2.2,0.4c-0.7,0.1-1.4,0.2-2.1,0.3c-0.6,2.4-1.1,5.4-1.7,9c-1.3,7.9-2.1,13.6-2.6,17.2
		l-8.6,1.4c2.5-11.9,4.2-21.2,5.1-27.9c-0.8-0.1-1.5-0.1-2.3-0.1C190.5,20,189.8,19.9,189,19.7z"/>
	<path class="st2" d="M227.1,23c0,1.9-0.3,4-0.8,6.3c-0.5,2.3-1.3,4.4-2.2,6.4c-0.9,1.9-2,3.7-3.3,5.2c-1.2,1.5-2.5,2.8-3.9,3.9
		c-2.8,2.2-5.5,3.3-8,3.3c-2.2,0-3.9-0.8-5.1-2.3c-1.4-1.7-2.1-4.2-2.1-7.5c0-3.6,0.8-7.4,2.5-11.5s3.8-7.6,6.5-10.3
		c2.9-2.9,6-4.4,9.1-4.4c2.6,0,4.5,1.1,5.8,3.2C226.6,16.9,227.1,19.5,227.1,23z M220.4,26c0-2.6-0.8-3.9-2.3-3.9
		c-1.9,0-3.6,0.9-5.2,2.8c-1.2,1.5-2.3,3.5-3.1,6.1c-0.7,2.1-1,4.1-1,6c0,1.3,0.5,2.2,1.6,2.8c0.3,0.2,0.7,0.3,1.1,0.3
		c1.4,0,2.7-0.5,3.8-1.5s2-2.2,2.8-3.6c0.8-1.4,1.3-3,1.7-4.6S220.4,27.3,220.4,26z"/>
	<path class="st2" d="M247.9,47.2c-2.4-8.5-3.7-13.3-3.8-14.5l-0.6,0.2c-1,5.8-1.8,10.1-2.3,13.1l-7.8,2c3.3-15.7,5.2-26.9,6-33.5
		c3.6-1.1,7.7-1.7,12.2-1.7c3.4,0,5.4,1.2,6,3.5c0.2,0.7,0.3,1.6,0.3,2.7c0,1.1-0.2,2.2-0.7,3.4c-0.4,1.2-1,2.4-1.8,3.5
		c-1.6,2.3-3.5,4-5.8,5.3c1.2,2.6,2.3,5.1,3.3,7.4c1,2.3,1.8,4.3,2.4,5.9L247.9,47.2z M248.4,19.4l-2.1,0l-1.5,7.6
		c1.3-0.1,2.8-0.9,4.7-2.4c2-1.5,3-2.7,3-3.7c0-0.9-0.9-1.4-2.6-1.5C249.4,19.5,248.9,19.4,248.4,19.4z"/>
	<path class="st2" d="M255,47.9l6.3-34.1l15.2-1.3c-0.2,0.7-0.4,1.4-0.6,2.1c-0.2,0.7-0.3,1.3-0.5,2s-0.3,1.2-0.4,1.7
		c-0.9,0.1-2.2,0.1-3.8,0.1H268l-1.7,8.6c1.7-0.1,3.2-0.2,4.3-0.2c1.2,0,1.9-0.1,2.3-0.1c-0.1,0.9-0.2,1.8-0.4,2.6
		c-0.1,0.9-0.2,1.7-0.4,2.6c-0.3,0-0.9,0.1-1.6,0.1c-0.7,0-1.5,0-2.3,0.1c-0.8,0-1.7,0.1-2.6,0.1l-1.6,8.9l7-1.1l-0.5,5.5L255,47.9z
		"/>
	<path class="st2" d="M291.3,45.3c-0.4,0-1.7,0.3-3.9,0.8c-2.2,0.5-3.5,0.9-4,1c-0.3-4.2-0.6-7.2-0.9-9.2s-0.4-3.4-0.5-4.3
		c-0.1-1.3-0.3-3-0.7-4.9c-0.1,0.6-0.2,1.3-0.4,2.1c-0.2,0.8-0.3,1.7-0.5,2.7c-0.5,3-1.3,7.3-2.3,12.9l-7,1.6
		c3.5-17.3,5.5-29,6.2-35c1-0.1,1.9-0.1,2.8-0.2c0.9-0.1,1.8-0.1,2.6-0.2s1.6-0.1,2.3-0.2c0.4,2.5,0.7,4.5,1,6.1
		c0.3,1.6,0.5,2.9,0.6,4s0.3,2,0.5,3c0.3,1.9,0.6,3.6,1,5.1c0.1-0.7,0.3-1.4,0.4-2.3c0.2-0.9,0.3-1.8,0.5-2.8s0.4-2,0.6-3
		c0.2-1,0.5-2.3,0.8-3.9c0.3-1.6,0.7-3.6,1.2-6.1l5.9-0.7C294.3,27.5,292.2,38.6,291.3,45.3z"/>
	<path class="st2" d="M297.6,19.7l0.2-6.1c1.6,0.1,3.3,0.2,4.9,0.2c4.4,0,8.6-0.3,12.8-0.8l-0.5,2.6c-0.2,0.7-0.3,1.5-0.4,2.2
		c-0.1,0.8-0.3,1.4-0.4,2c-0.7,0.2-1.4,0.3-2.2,0.4c-0.7,0.1-1.4,0.2-2.1,0.3c-0.6,2.4-1.1,5.4-1.7,9c-1.3,7.9-2.1,13.6-2.6,17.2
		l-8.6,1.4c2.5-11.9,4.2-21.2,5.1-27.9c-0.8-0.1-1.5-0.1-2.3-0.1C299.1,20,298.4,19.9,297.6,19.7z"/>
	<path class="st2" d="M328.6,39.7l-1.9,6.9c-0.7,0.1-1.6,0.2-2.5,0.3c-1,0.1-1.9,0.2-2.8,0.4c-0.9,0.1-1.9,0.2-2.9,0.4
		c1.3-4.2,2.4-7.8,3.3-10.8c0.9-2.9,1.6-5.4,2.2-7.2c0.6-1.9,1.1-3.8,1.7-5.6c0.5-1.9,1.1-3.7,1.6-5.4s1-3.3,1.4-4.8
		c5.8-0.4,10.2-0.9,13.2-1.5c-0.3,3.1-0.5,6.8-0.7,11c-0.4,8.4-0.8,16.2-1,23.3c-0.9,0.2-1.9,0.3-2.7,0.4c-0.9,0.1-1.8,0.3-2.8,0.4
		c-1,0.2-1.8,0.3-2.6,0.4c0.3-3,0.6-5.7,0.9-8.1H328.6z M329.7,34.9l3.5-0.2c0-0.2,0-0.5,0.1-1c0-0.5,0.1-1,0.2-1.6
		c0.3-3.3,0.5-6.5,0.8-9.3l0.3-4.2l-0.8,0L329.7,34.9z"/>
	<path class="st2" d="M371.3,36.1c0,1.2-0.3,2.3-0.8,3.4s-1.3,2.1-2.2,3c-0.9,0.9-2,1.7-3.2,2.4c-1.2,0.7-2.5,1.3-3.9,1.7
		c-2.7,0.9-5.4,1.4-8.3,1.4c-1.2,0-2.3-0.1-3.3-0.3c1.5-5.6,2.8-11.2,3.7-16.9c0.9-5.7,1.8-11.4,2.6-17.2c4.4-0.9,8-1.4,10.7-1.4
		c3.3,0,5.6,1.1,6.8,3.4c0.5,0.8,0.8,1.9,0.8,3.1c0,1.2-0.2,2.4-0.6,3.4c-0.4,1.1-0.9,2-1.5,2.9c-1.3,1.8-2.8,3-4.6,3.6
		C370,30.4,371.3,32.8,371.3,36.1z M359,38.4c2.8-0.3,4.8-1.1,6-2.4c0.5-0.6,0.8-1.2,0.8-1.9c0-0.7-0.1-1.2-0.4-1.6
		c-0.3-0.4-0.7-0.7-1.1-1c-0.9-0.5-2-0.8-3-0.8h-0.4c-0.1,0-0.3,0-0.4,0c-0.1,0.8-0.2,1.5-0.4,2.1c-0.1,0.6-0.2,1.2-0.3,1.7
		c-0.1,0.5-0.2,1.1-0.3,1.7C359.2,36.9,359.1,37.6,359,38.4z M361.4,24.9c3.9-0.9,5.9-2,5.9-3.2c0-1.2-1-2-3-2.3
		c-0.5-0.1-0.9-0.1-1.3-0.1h-0.5c-0.1,0.3-0.1,0.8-0.2,1.2c-0.1,0.5-0.2,1-0.3,1.5s-0.2,1-0.3,1.5S361.5,24.5,361.4,24.9z"/>
	<path class="st2" d="M384.3,13.1c-3.6,18.1-5.7,29.4-6.5,33.8c-0.9,0-2.4,0.1-4.5,0.4s-3.3,0.4-3.3,0.5c1-3.6,1.9-7.6,2.8-11.9
		c1.9-9.8,3.3-17,4.1-21.7L384.3,13.1z"/>
	<path class="st2" d="M403,46.5c-1.5-0.1-3.1-0.1-4.7-0.1s-3.4,0-5.2,0.1c-0.6-4-1.3-8.4-1.9-13.1l-0.9,1c-0.2,1-0.5,2.2-0.7,3.6
		s-0.5,2.8-0.8,4.2c-0.3,1.4-0.6,2.9-0.9,4.6l-7.8,1.2c3.4-15.6,5.4-27.3,6-35.1c0.8,0.1,1.6,0.2,2.5,0.2s1.8,0.1,2.7,0.2
		c0.9,0.1,1.8,0.1,2.8,0.1c0,0.1-0.1,0.4-0.1,0.7c-0.1,0.3-0.1,0.8-0.2,1.3c-0.1,0.5-0.2,1.1-0.3,1.7s-0.3,1.4-0.5,2.4
		c-0.2,1-0.5,2.4-0.8,4.1l0.3,0c0.9-1.3,1.8-2.8,2.7-4.3c1.9-3,3.2-5,3.9-6.1c3.6-0.3,6.8-0.6,9.6-1.1c-5.4,7.4-9.2,12.7-11.2,15.9
		c0.7,3.2,1.5,6.3,2.5,9.4C401,40.3,402,43.4,403,46.5z"/>
	<path class="st2" d="M402.3,47.9l6.3-34.1l15.2-1.3c-0.2,0.7-0.4,1.4-0.6,2.1c-0.2,0.7-0.3,1.3-0.5,2s-0.3,1.2-0.4,1.7
		c-0.9,0.1-2.2,0.1-3.8,0.1h-3.2l-1.7,8.6c1.7-0.1,3.2-0.2,4.3-0.2c1.2,0,1.9-0.1,2.3-0.1c-0.1,0.9-0.2,1.8-0.4,2.6
		c-0.1,0.9-0.2,1.7-0.4,2.6c-0.3,0-0.9,0.1-1.6,0.1c-0.7,0-1.5,0-2.3,0.1c-0.8,0-1.7,0.1-2.6,0.1l-1.6,8.9l7-1.1l-0.5,5.5
		L402.3,47.9z"/>
</g>
<g>
	<rect x="-27.6" y="55.1" class="st1" width="501.3" height="29"/>
	<path class="st2" d="M57.3,60.3c0,0-0.6,3.6-1.7,10.6H56c0.5-1.7,0.9-3.2,1.3-4.6s0.7-2.4,0.9-2.9c0.3-1.2,0.6-2.1,0.8-2.7h0.2
		c0.8,0,1.6-0.1,2.5-0.3c0,0.1-0.1,0.4-0.1,0.9s-0.1,1-0.2,1.6s-0.1,1.3-0.2,2.1s-0.1,1.5-0.2,2.2c-0.1,1.3-0.2,2.6-0.4,3.8h0.4
		l2.3-10.3c0.5-0.1,1.1-0.1,1.6-0.2c1.3-0.2,2.2-0.3,2.8-0.4c-0.6,1.8-1.2,3.8-1.7,5.9c-1.3,4.9-2.1,8.5-2.6,10.8L58,77.5l1.1-9.3
		h-0.3l-2.4,8.7l-5,0.9l1.8-17c0.8,0,1.5-0.1,2.1-0.2S56.6,60.3,57.3,60.3z"/>
	<path class="st2" d="M65,77.7l3.1-17.1l7.6-0.7c-0.1,0.4-0.2,0.7-0.3,1s-0.2,0.7-0.2,1s-0.1,0.6-0.2,0.9c-0.5,0-1.1,0.1-1.9,0.1
		h-1.6l-0.8,4.3c0.9,0,1.6-0.1,2.2-0.1s1,0,1.1,0c-0.1,0.5-0.1,0.9-0.2,1.3s-0.1,0.9-0.2,1.3c-0.2,0-0.4,0-0.8,0s-0.7,0-1.1,0
		s-0.8,0-1.3,0l-0.8,4.4l3.5-0.6l-0.2,2.7L65,77.7z"/>
	<path class="st2" d="M82.2,73.6l-1,3.4c-0.4,0-0.8,0.1-1.3,0.2s-0.9,0.1-1.4,0.2s-1,0.1-1.5,0.2c0.6-2.1,1.2-3.9,1.6-5.4
		s0.8-2.7,1.1-3.6s0.6-1.9,0.8-2.8s0.5-1.8,0.8-2.7s0.5-1.7,0.7-2.4c2.9-0.2,5.1-0.5,6.6-0.8c-0.1,1.5-0.3,3.4-0.4,5.5
		c-0.2,4.2-0.4,8.1-0.5,11.6c-0.5,0.1-0.9,0.1-1.4,0.2s-0.9,0.1-1.4,0.2s-0.9,0.1-1.3,0.2c0.2-1.5,0.3-2.9,0.4-4.1H82.2z M82.8,71.2
		l1.7-0.1c0-0.1,0-0.3,0-0.5s0.1-0.5,0.1-0.8c0.1-1.7,0.3-3.2,0.4-4.7l0.2-2.1l-0.4,0L82.8,71.2z"/>
	<path class="st2" d="M95.4,77.3c-1.2-4.3-1.8-6.7-1.9-7.2l-0.3,0.1c-0.5,2.9-0.9,5.1-1.1,6.5l-3.9,1c1.6-7.9,2.6-13.4,3-16.7
		c1.8-0.6,3.8-0.8,6.1-0.8c1.7,0,2.7,0.6,3,1.8c0.1,0.4,0.1,0.8,0.1,1.3s-0.1,1.1-0.3,1.7s-0.5,1.2-0.9,1.8c-0.8,1.1-1.7,2-2.9,2.6
		c0.6,1.3,1.2,2.6,1.6,3.7s0.9,2.1,1.2,2.9L95.4,77.3z M95.6,63.5l-1,0l-0.8,3.8c0.6-0.1,1.4-0.5,2.4-1.2c1-0.8,1.5-1.4,1.5-1.9
		c0-0.5-0.4-0.7-1.3-0.8C96.1,63.5,95.8,63.5,95.6,63.5z"/>
	<path class="st2" d="M98.9,77.7l3.1-17.1l7.6-0.7c-0.1,0.4-0.2,0.7-0.3,1s-0.2,0.7-0.2,1s-0.1,0.6-0.2,0.9c-0.5,0-1.1,0.1-1.9,0.1
		h-1.6l-0.8,4.3c0.9,0,1.6-0.1,2.2-0.1s1,0,1.1,0c-0.1,0.5-0.1,0.9-0.2,1.3s-0.1,0.9-0.2,1.3c-0.2,0-0.4,0-0.8,0s-0.7,0-1.1,0
		s-0.8,0-1.3,0l-0.8,4.4l3.5-0.6l-0.2,2.7L98.9,77.7z"/>
	<path class="st2" d="M114,63.6l0.1-3.1c0.8,0.1,1.6,0.1,2.5,0.1c2.2,0,4.3-0.1,6.4-0.4l-0.3,1.3c-0.1,0.4-0.2,0.7-0.2,1.1
		s-0.1,0.7-0.2,1c-0.4,0.1-0.7,0.2-1.1,0.2s-0.7,0.1-1.1,0.2c-0.3,1.2-0.6,2.7-0.8,4.5c-0.6,3.9-1.1,6.8-1.3,8.6l-4.3,0.7
		c1.3-5.9,2.1-10.6,2.6-13.9c-0.4,0-0.8-0.1-1.1,0S114.4,63.7,114,63.6z"/>
	<path class="st2" d="M120.5,77.7c1.4-7.3,2.4-13,3-17.3l3.9-0.3c-0.6,2.6-1.1,5-1.5,7.1l2.4-0.3c0.2-1.1,0.4-2.2,0.6-3.3
		c0.2-1.1,0.4-2.2,0.7-3.3c0.6-0.1,1.3-0.2,2-0.2s1.2-0.1,1.5-0.1l0.4,0c-0.8,2.5-1.5,6-2.3,10.5c-0.4,2-0.7,4.1-1,6.2l-3.7,0.4
		c0.2-1,0.4-1.9,0.6-2.7s0.3-1.7,0.5-2.5s0.3-1.5,0.4-2.1l-2.3,0.2c-0.4,2-0.8,4.3-1.3,7L120.5,77.7z"/>
	<path class="st2" d="M131.1,77.7l3.1-17.1l7.6-0.7c-0.1,0.4-0.2,0.7-0.3,1s-0.2,0.7-0.2,1s-0.1,0.6-0.2,0.9c-0.5,0-1.1,0.1-1.9,0.1
		h-1.6l-0.8,4.3c0.9,0,1.6-0.1,2.2-0.1s1,0,1.1,0c-0.1,0.5-0.1,0.9-0.2,1.3s-0.1,0.9-0.2,1.3c-0.2,0-0.4,0-0.8,0s-0.7,0-1.1,0
		s-0.8,0-1.3,0l-0.8,4.4l3.5-0.6l-0.2,2.7L131.1,77.7z"/>
	<path class="st2" d="M157.2,65.3c0,1-0.1,2-0.4,3.2s-0.6,2.2-1.1,3.2s-1,1.8-1.6,2.6s-1.3,1.4-1.9,1.9c-1.4,1.1-2.7,1.6-4,1.6
		c-1.1,0-1.9-0.4-2.6-1.2c-0.7-0.9-1-2.1-1-3.8c0-1.8,0.4-3.7,1.2-5.8s1.9-3.8,3.3-5.2c1.5-1.5,3-2.2,4.6-2.2c1.3,0,2.3,0.5,2.9,1.6
		C156.9,62.2,157.2,63.5,157.2,65.3z M153.9,66.7c0-1.3-0.4-1.9-1.1-1.9c-1,0-1.8,0.5-2.6,1.4c-0.6,0.8-1.1,1.8-1.6,3.1
		c-0.3,1.1-0.5,2.1-0.5,3c0,0.6,0.3,1.1,0.8,1.4c0.2,0.1,0.3,0.2,0.5,0.2c0.7,0,1.4-0.2,1.9-0.7s1-1.1,1.4-1.8s0.7-1.5,0.9-2.3
		S153.9,67.4,153.9,66.7z"/>
	<path class="st2" d="M160.1,74.3c0.6,0,1.4-0.1,2.5-0.1c0,0.6,0.1,1.1,0.1,1.5s0.1,0.7,0.1,0.8s0,0.3,0.1,0.4l-0.7,0
		c-1.6,0-3.3,0.1-4.9,0.4c-0.5,0.1-1,0.2-1.5,0.4c0.4-2.9,0.9-5.9,1.5-9.1s1.1-5.9,1.6-8l4.2-0.6c-1.5,6.2-2.3,9.9-2.5,11.3
		S160.2,73.8,160.1,74.3z"/>
	<path class="st2" d="M162.9,77.7c1.7-8.6,2.7-14.2,3.1-17c0.7-0.1,1.4-0.2,2.1-0.4s1.5-0.2,2.3-0.2s1.5,0.1,2.1,0.4
		s1.1,0.7,1.5,1.1c0.7,0.9,1.1,2.2,1.1,3.7c0,1.7-0.5,3.5-1.4,5.4c-1,2-2.2,3.6-3.8,4.9c-1.8,1.4-3.7,2.1-5.7,2.1
		C163.9,77.8,163.5,77.8,162.9,77.7z M167.1,74.8c1.1-0.7,2.1-2.2,3-4.4c0.5-1.2,0.9-2.3,1-3.1s0.3-1.5,0.3-2s-0.2-0.9-0.5-1.2
		c-0.3-0.3-0.8-0.5-1.5-0.5c-0.3,1.3-0.6,2.8-0.9,4.3C167.9,70.5,167.5,72.8,167.1,74.8z"/>
	<path class="st2" d="M173.6,77.7l3.1-17.1l7.6-0.7c-0.1,0.4-0.2,0.7-0.3,1s-0.2,0.7-0.2,1s-0.1,0.6-0.2,0.9c-0.5,0-1.1,0.1-1.9,0.1
		h-1.6l-0.8,4.3c0.9,0,1.6-0.1,2.2-0.1s1,0,1.1,0c-0.1,0.5-0.1,0.9-0.2,1.3s-0.1,0.9-0.2,1.3c-0.2,0-0.4,0-0.8,0s-0.7,0-1.1,0
		s-0.8,0-1.3,0l-0.8,4.4l3.5-0.6l-0.2,2.7L173.6,77.7z"/>
	<path class="st2" d="M190.4,65.4c0.1-0.3,0.1-0.6,0.1-1s-0.1-0.6-0.3-0.8s-0.4-0.3-0.6-0.3s-0.4,0-0.6,0.1s-0.4,0.2-0.6,0.4
		c-0.4,0.4-0.7,0.7-0.7,1.2s0.1,0.8,0.3,1s0.5,0.5,0.8,0.7s0.7,0.4,1,0.7s0.7,0.5,1.1,0.9c0.8,0.9,1.1,2,1.1,3.5
		c0,1.8-0.6,3.2-1.9,4.3c-1.2,1.1-2.8,1.6-4.6,1.6c-1.4,0-2.6-0.7-3.8-2.2l1.8-3.5c0.2,0.4,0.6,0.8,1.3,1.2c0.6,0.4,1.1,0.6,1.4,0.6
		s0.6,0,0.8-0.1s0.4-0.2,0.6-0.3c0.4-0.3,0.6-0.6,0.6-1s-0.1-0.8-0.4-1.1s-0.6-0.6-0.9-0.9s-0.8-0.6-1.2-0.9s-0.8-0.6-1.2-1
		c-0.9-0.8-1.3-1.6-1.3-2.5s0.2-1.6,0.7-2.4c0.5-0.7,1.1-1.3,1.9-1.9s1.6-0.9,2.4-1.2s1.6-0.5,2.2-0.5s1.1,0.1,1.5,0.2
		s0.7,0.3,1,0.5c0.6,0.5,0.9,1.2,0.9,2.2c0,0.2,0,0.5-0.1,0.7s-0.1,0.5-0.1,0.7L190.4,65.4z"/>
	<path class="st2" d="M194.4,63.6l0.1-3.1c0.8,0.1,1.6,0.1,2.5,0.1c2.2,0,4.3-0.1,6.4-0.4l-0.3,1.3c-0.1,0.4-0.2,0.7-0.2,1.1
		s-0.1,0.7-0.2,1c-0.4,0.1-0.7,0.2-1.1,0.2s-0.7,0.1-1.1,0.2c-0.3,1.2-0.6,2.7-0.8,4.5c-0.6,3.9-1.1,6.8-1.3,8.6l-4.3,0.7
		c1.3-5.9,2.1-10.6,2.6-13.9c-0.4,0-0.8-0.1-1.1,0S194.8,63.7,194.4,63.6z"/>
	<path class="st2" d="M212.6,77.3c-1.2-4.3-1.8-6.7-1.9-7.2l-0.3,0.1c-0.5,2.9-0.9,5.1-1.1,6.5l-3.9,1c1.6-7.9,2.6-13.4,3-16.7
		c1.8-0.6,3.8-0.8,6.1-0.8c1.7,0,2.7,0.6,3,1.8c0.1,0.4,0.1,0.8,0.1,1.3s-0.1,1.1-0.3,1.7s-0.5,1.2-0.9,1.8c-0.8,1.1-1.7,2-2.9,2.6
		c0.6,1.3,1.2,2.6,1.6,3.7s0.9,2.1,1.2,2.9L212.6,77.3z M212.9,63.5l-1,0l-0.8,3.8c0.6-0.1,1.4-0.5,2.4-1.2c1-0.8,1.5-1.4,1.5-1.9
		c0-0.5-0.4-0.7-1.3-0.8C213.4,63.5,213.1,63.5,212.9,63.5z"/>
	<path class="st2" d="M216.2,77.7l3.1-17.1l7.6-0.7c-0.1,0.4-0.2,0.7-0.3,1s-0.2,0.7-0.2,1s-0.1,0.6-0.2,0.9c-0.5,0-1.1,0.1-1.9,0.1
		h-1.6l-0.8,4.3c0.9,0,1.6-0.1,2.2-0.1c0.6,0,1,0,1.1,0c-0.1,0.5-0.1,0.9-0.2,1.3s-0.1,0.9-0.2,1.3c-0.2,0-0.4,0-0.8,0s-0.7,0-1.1,0
		s-0.8,0-1.3,0l-0.8,4.4l3.5-0.6l-0.2,2.7L216.2,77.7z"/>
	<path class="st2" d="M234.3,76.4c-0.2,0-0.8,0.1-1.9,0.4s-1.8,0.4-2,0.5c-0.2-2.1-0.3-3.6-0.4-4.6s-0.2-1.7-0.3-2.2
		c-0.1-0.7-0.2-1.5-0.3-2.4c0,0.3-0.1,0.7-0.2,1.1s-0.2,0.9-0.2,1.3c-0.3,1.5-0.6,3.7-1.2,6.5l-3.5,0.8c1.7-8.6,2.8-14.5,3.1-17.5
		c0.5,0,1-0.1,1.4-0.1s0.9-0.1,1.3-0.1s0.8-0.1,1.1-0.1c0.2,1.2,0.4,2.3,0.5,3.1s0.2,1.5,0.3,2s0.2,1,0.2,1.5c0.2,1,0.3,1.8,0.5,2.5
		c0.1-0.3,0.1-0.7,0.2-1.1s0.2-0.9,0.3-1.4s0.2-1,0.3-1.5s0.2-1.2,0.4-2s0.4-1.8,0.6-3l2.9-0.4C235.8,67.5,234.8,73.1,234.3,76.4z"
		/>
	<path class="st2" d="M237.5,63.6l0.1-3.1c0.8,0.1,1.6,0.1,2.5,0.1c2.2,0,4.3-0.1,6.4-0.4l-0.3,1.3c-0.1,0.4-0.2,0.7-0.2,1.1
		s-0.1,0.7-0.2,1c-0.4,0.1-0.7,0.2-1.1,0.2s-0.7,0.1-1.1,0.2c-0.3,1.2-0.6,2.7-0.8,4.5c-0.6,3.9-1.1,6.8-1.3,8.6l-4.3,0.7
		c1.3-5.9,2.1-10.6,2.6-13.9c-0.4,0-0.8-0.1-1.1,0S237.9,63.7,237.5,63.6z"/>
	<path class="st2" d="M247.8,73.6l-1,3.4c-0.4,0-0.8,0.1-1.3,0.2s-0.9,0.1-1.4,0.2s-1,0.1-1.5,0.2c0.6-2.1,1.2-3.9,1.6-5.4
		s0.8-2.7,1.1-3.6s0.6-1.9,0.8-2.8s0.5-1.8,0.8-2.7s0.5-1.7,0.7-2.4c2.9-0.2,5.1-0.5,6.6-0.8c-0.1,1.5-0.3,3.4-0.4,5.5
		c-0.2,4.2-0.4,8.1-0.5,11.6c-0.5,0.1-0.9,0.1-1.4,0.2s-0.9,0.1-1.4,0.2s-0.9,0.1-1.3,0.2c0.2-1.5,0.3-2.9,0.4-4.1H247.8z
		 M248.4,71.2l1.7-0.1c0-0.1,0-0.3,0-0.5s0.1-0.5,0.1-0.8c0.1-1.7,0.3-3.2,0.4-4.7l0.2-2.1l-0.4,0L248.4,71.2z"/>
	<path class="st2" d="M258.2,74.3c0.6,0,1.4-0.1,2.5-0.1c0,0.6,0.1,1.1,0.1,1.5s0.1,0.7,0.1,0.8s0,0.3,0.1,0.4l-0.7,0
		c-1.6,0-3.3,0.1-4.9,0.4c-0.5,0.1-1,0.2-1.5,0.4c0.4-2.9,0.9-5.9,1.5-9.1s1.1-5.9,1.6-8l4.2-0.6c-1.5,6.2-2.3,9.9-2.5,11.3
		S258.2,73.8,258.2,74.3z"/>
	<path class="st2" d="M272.6,60.3c-1.8,9.1-2.9,14.7-3.3,16.9c-0.4,0-1.2,0.1-2.3,0.2s-1.6,0.2-1.7,0.2c0.5-1.8,1-3.8,1.4-5.9
		c1-4.9,1.7-8.5,2.1-10.9L272.6,60.3z"/>
	<path class="st2" d="M280.5,76.4c-0.2,0-0.8,0.1-1.9,0.4s-1.8,0.4-2,0.5c-0.2-2.1-0.3-3.6-0.4-4.6s-0.2-1.7-0.3-2.2
		c-0.1-0.7-0.2-1.5-0.3-2.4c0,0.3-0.1,0.7-0.2,1.1s-0.2,0.9-0.2,1.3c-0.3,1.5-0.6,3.7-1.2,6.5l-3.5,0.8c1.7-8.6,2.8-14.5,3.1-17.5
		c0.5,0,1-0.1,1.4-0.1s0.9-0.1,1.3-0.1s0.8-0.1,1.1-0.1c0.2,1.2,0.4,2.3,0.5,3.1s0.2,1.5,0.3,2s0.2,1,0.2,1.5c0.2,1,0.3,1.8,0.5,2.5
		c0.1-0.3,0.1-0.7,0.2-1.1s0.2-0.9,0.3-1.4s0.2-1,0.3-1.5s0.2-1.2,0.4-2s0.4-1.8,0.6-3l2.9-0.4C282,67.5,280.9,73.1,280.5,76.4z"/>
	<path class="st2" d="M290.5,73.6l-1,3.4c-0.4,0-0.8,0.1-1.3,0.2s-0.9,0.1-1.4,0.2s-1,0.1-1.5,0.2c0.6-2.1,1.2-3.9,1.6-5.4
		s0.8-2.7,1.1-3.6s0.6-1.9,0.8-2.8s0.5-1.8,0.8-2.7s0.5-1.7,0.7-2.4c2.9-0.2,5.1-0.5,6.6-0.8c-0.1,1.5-0.3,3.4-0.4,5.5
		c-0.2,4.2-0.4,8.1-0.5,11.6c-0.5,0.1-0.9,0.1-1.4,0.2s-0.9,0.1-1.4,0.2s-0.9,0.1-1.3,0.2c0.2-1.5,0.3-2.9,0.4-4.1H290.5z M291,71.2
		l1.7-0.1c0-0.1,0-0.3,0-0.5s0.1-0.5,0.1-0.8c0.1-1.7,0.3-3.2,0.4-4.7l0.2-2.1l-0.4,0L291,71.2z"/>
	<path class="st2" d="M304.8,69.3c1.8-4.8,3-7.9,3.6-9.1c0.8-0.1,1.4-0.2,2-0.3s0.9-0.1,1.3-0.2s0.8-0.1,1.2-0.2
		c-0.8,4.5-1.4,10.2-1.9,17.1l-4.2,0.8c0-0.6,0.1-1.5,0.2-2.7l0.3-2.8c0.2-1.4,0.3-2.5,0.4-3.3h-0.2c-0.2,0.7-0.5,1.4-0.7,2.1
		s-0.6,1.5-0.8,2.3s-0.6,1.5-0.8,2.3s-0.5,1.4-0.7,2.1c-0.6,0-1,0-1.4,0.1l-1.4,0.1l0.8-8.9h-0.4c0,0.2-0.1,0.6-0.2,1
		s-0.3,1.1-0.4,1.7s-0.3,1.3-0.5,2s-0.4,1.3-0.6,1.9c-0.3,1-0.5,1.7-0.6,2.1l-4,0.3c2.5-7.7,4.3-13.3,5.2-16.9c0.9,0,1.7,0,2.5-0.1
		s1.6-0.2,2.5-0.3c0,0.3-0.1,0.7-0.2,1.2s-0.1,0.9-0.2,1.4s-0.1,1-0.2,1.5c-0.1,0.5-0.2,1.2-0.3,2s-0.3,1.8-0.5,3H304.8z"/>
	<path class="st2" d="M319.9,65.4c0.1-0.3,0.1-0.6,0.1-1s-0.1-0.6-0.3-0.8s-0.4-0.3-0.6-0.3s-0.4,0-0.6,0.1s-0.4,0.2-0.6,0.4
		c-0.4,0.4-0.7,0.7-0.7,1.2s0.1,0.8,0.3,1s0.5,0.5,0.8,0.7s0.7,0.4,1,0.7s0.7,0.5,1.1,0.9c0.8,0.9,1.1,2,1.1,3.5
		c0,1.8-0.6,3.2-1.9,4.3c-1.2,1.1-2.8,1.6-4.6,1.6c-1.4,0-2.6-0.7-3.8-2.2l1.8-3.5c0.2,0.4,0.6,0.8,1.3,1.2c0.6,0.4,1.1,0.6,1.4,0.6
		s0.6,0,0.8-0.1s0.4-0.2,0.6-0.3c0.4-0.3,0.6-0.6,0.6-1s-0.1-0.8-0.4-1.1s-0.6-0.6-0.9-0.9s-0.8-0.6-1.2-0.9s-0.8-0.6-1.2-1
		c-0.9-0.8-1.3-1.6-1.3-2.5s0.2-1.6,0.7-2.4c0.5-0.7,1.1-1.3,1.9-1.9s1.6-0.9,2.4-1.2s1.6-0.5,2.2-0.5s1.1,0.1,1.5,0.2
		s0.7,0.3,1,0.5c0.6,0.5,0.9,1.2,0.9,2.2c0,0.2,0,0.5-0.1,0.7s-0.1,0.5-0.1,0.7L319.9,65.4z"/>
	<path class="st2" d="M323.9,63.6l0.1-3.1c0.8,0.1,1.6,0.1,2.5,0.1c2.2,0,4.3-0.1,6.4-0.4l-0.3,1.3c-0.1,0.4-0.2,0.7-0.2,1.1
		s-0.1,0.7-0.2,1c-0.4,0.1-0.7,0.2-1.1,0.2s-0.7,0.1-1.1,0.2c-0.3,1.2-0.6,2.7-0.8,4.5c-0.6,3.9-1.1,6.8-1.3,8.6l-4.3,0.7
		c1.3-5.9,2.1-10.6,2.6-13.9c-0.4,0-0.8-0.1-1.1,0S324.3,63.7,323.9,63.6z"/>
	<path class="st2" d="M330.3,77.7l3.1-17.1l7.6-0.7c-0.1,0.4-0.2,0.7-0.3,1s-0.2,0.7-0.2,1s-0.1,0.6-0.2,0.9c-0.5,0-1.1,0.1-1.9,0.1
		h-1.6l-0.8,4.3c0.9,0,1.6-0.1,2.2-0.1s1,0,1.1,0c-0.1,0.5-0.1,0.9-0.2,1.3s-0.1,0.9-0.2,1.3c-0.2,0-0.4,0-0.8,0s-0.7,0-1.1,0
		s-0.8,0-1.3,0l-0.8,4.4l3.5-0.6l-0.2,2.7L330.3,77.7z"/>
	<path class="st2" d="M345.7,77.3c-1.2-4.3-1.8-6.7-1.9-7.2l-0.3,0.1c-0.5,2.9-0.9,5.1-1.1,6.5l-3.9,1c1.6-7.9,2.6-13.4,3-16.7
		c1.8-0.6,3.8-0.8,6.1-0.8c1.7,0,2.7,0.6,3,1.8c0.1,0.4,0.1,0.8,0.1,1.3s-0.1,1.1-0.3,1.7s-0.5,1.2-0.9,1.8c-0.8,1.1-1.7,2-2.9,2.6
		c0.6,1.3,1.2,2.6,1.6,3.7s0.9,2.1,1.2,2.9L345.7,77.3z M345.9,63.5l-1,0l-0.8,3.8c0.6-0.1,1.4-0.5,2.4-1.2c1-0.8,1.5-1.4,1.5-1.9
		c0-0.5-0.4-0.7-1.3-0.8C346.4,63.5,346.1,63.5,345.9,63.5z"/>
	<path class="st2" d="M349.1,77.7c1.7-8.6,2.7-14.2,3.1-17c0.7-0.1,1.4-0.2,2.1-0.4s1.5-0.2,2.3-0.2s1.5,0.1,2.1,0.4
		s1.1,0.7,1.5,1.1c0.7,0.9,1.1,2.2,1.1,3.7c0,1.7-0.5,3.5-1.4,5.4c-1,2-2.2,3.6-3.8,4.9c-1.8,1.4-3.7,2.1-5.7,2.1
		C350.1,77.8,349.6,77.8,349.1,77.7z M353.3,74.8c1.1-0.7,2.1-2.2,3-4.4c0.5-1.2,0.9-2.3,1-3.1s0.3-1.5,0.3-2s-0.2-0.9-0.5-1.2
		c-0.3-0.3-0.8-0.5-1.5-0.5c-0.3,1.3-0.6,2.8-0.9,4.3C354.1,70.5,353.6,72.8,353.3,74.8z"/>
	<path class="st2" d="M364,73.6l-1,3.4c-0.4,0-0.8,0.1-1.3,0.2s-0.9,0.1-1.4,0.2s-1,0.1-1.5,0.2c0.6-2.1,1.2-3.9,1.6-5.4
		s0.8-2.7,1.1-3.6s0.6-1.9,0.8-2.8s0.5-1.8,0.8-2.7s0.5-1.7,0.7-2.4c2.9-0.2,5.1-0.5,6.6-0.8c-0.1,1.5-0.3,3.4-0.4,5.5
		c-0.2,4.2-0.4,8.1-0.5,11.6c-0.5,0.1-0.9,0.1-1.4,0.2s-0.9,0.1-1.4,0.2s-0.9,0.1-1.3,0.2c0.2-1.5,0.3-2.9,0.4-4.1H364z M364.5,71.2
		l1.7-0.1c0-0.1,0-0.3,0-0.5s0.1-0.5,0.1-0.8c0.1-1.7,0.3-3.2,0.4-4.7l0.2-2.1l-0.4,0L364.5,71.2z"/>
	<path class="st2" d="M378.3,69.3c1.8-4.8,3-7.9,3.6-9.1c0.8-0.1,1.4-0.2,2-0.3s0.9-0.1,1.3-0.2s0.8-0.1,1.2-0.2
		c-0.8,4.5-1.4,10.2-1.9,17.1l-4.2,0.8c0-0.6,0.1-1.5,0.2-2.7l0.3-2.8c0.2-1.4,0.3-2.5,0.4-3.3h-0.2c-0.2,0.7-0.5,1.4-0.7,2.1
		s-0.6,1.5-0.8,2.3s-0.6,1.5-0.8,2.3s-0.5,1.4-0.7,2.1c-0.6,0-1,0-1.4,0.1l-1.4,0.1l0.8-8.9h-0.4c0,0.2-0.1,0.6-0.2,1
		s-0.3,1.1-0.4,1.7s-0.3,1.3-0.5,2s-0.4,1.3-0.6,1.9c-0.3,1-0.5,1.7-0.6,2.1l-4,0.3c2.5-7.7,4.3-13.3,5.2-16.9c0.9,0,1.7,0,2.5-0.1
		s1.6-0.2,2.5-0.3c0,0.3-0.1,0.7-0.2,1.2s-0.1,0.9-0.2,1.4s-0.1,1-0.2,1.5c-0.1,0.5-0.2,1.2-0.3,2s-0.3,1.8-0.5,3H378.3z"/>
	<path class="st2" d="M391.4,78.3c-0.4,0-0.8-0.1-1-0.2s-0.5-0.3-0.7-0.5c-0.4-0.5-0.5-1-0.5-1.6c0-1,0.4-1.7,1.3-2.2
		c0.3-0.1,0.6-0.2,1.1-0.2c0.9,0,1.6,0.2,2.1,0.7s0.7,0.9,0.7,1.5c0,0.7-0.3,1.2-0.8,1.7C393.1,78,392.3,78.3,391.4,78.3z
		 M398.6,59.8c-0.9,2-1.6,4-2.4,6.1c-0.7,2-1.4,4.1-2.1,6.2c-0.5,0-0.9,0-1.4,0s-0.9,0.1-1.4,0.1c0.5-2,1-3.9,1.5-5.9s1-3.9,1.5-5.9
		c0.3,0,0.6-0.1,1-0.2s0.8-0.1,1.2-0.2s0.8-0.1,1.2-0.2S398.4,59.8,398.6,59.8z"/>
</g>
<polyline class="st0" points="215.1,87.7 126.6,145.2 169.8,84 "/>
<g>
</g>
<g>
</g>
<g>
</g>
<g>
</g>
<g>
</g>
<g>
</g>
</svg>
