<?xml version="1.0" encoding="utf-8"?>
<!-- Generator: Adobe Illustrator 19.2.1, SVG Export Plug-In . SVG Version: 6.00 Build 0)  -->
<svg version="1.1" id="Layer_1" xmlns="http://www.w3.org/2000/svg" xmlns:xlink="http://www.w3.org/1999/xlink" x="0px" y="0px"
	 viewBox="0 0 439 151" style="enable-background:new 0 0 439 151;" xml:space="preserve">
<style type="text/css">
	.st0{fill:#FFFFFF;stroke:#010101;stroke-width:2.2927;stroke-miterlimit:10;}
	.st1{fill:none;}
	.st2{fill:#010101;}
</style>
<rect x="3.4" y="3.5" class="st0" width="432.8" height="87.3"/>
<g>
	<rect x="-27.6" y="13.9" class="st1" width="501.3" height="84.6"/>
	<path class="st2" d="M71.9,20.8l0.2-6.1c1.6,0.1,3.3,0.2,4.9,0.2c4.4,0,8.6-0.3,12.8-0.8l-0.5,2.6c-0.2,0.7-0.3,1.5-0.4,2.2
		c-0.1,0.8-0.3,1.4-0.4,2c-0.7,0.2-1.4,0.3-2.2,0.4c-0.7,0.1-1.4,0.2-2.1,0.3c-0.6,2.4-1.1,5.4-1.7,9c-1.3,7.9-2.1,13.6-2.6,17.2
		L71.3,49c2.5-11.9,4.2-21.2,5.1-27.9c-0.8-0.1-1.5-0.1-2.3-0.1C73.4,21.1,72.7,21,71.9,20.8z"/>
	<path class="st2" d="M84.8,49.1c3.3-16.4,5.4-28.2,6.1-35.2c3,0.3,5.6,0.4,7.8,0.4c-1.5,6.5-2.5,11.1-3,13.7l4.7-0.6
		c0.4-2.3,0.8-4.4,1.2-6.6c0.4-2.1,0.8-4.3,1.4-6.6c1.3-0.2,2.6-0.4,4-0.5c1.4-0.1,2.4-0.2,2.9-0.2l0.8-0.1c-1.5,5-3,12-4.5,21
		c-0.7,4.1-1.4,8.2-2,12.5l-7.5,0.8c0.4-1.9,0.8-3.7,1.1-5.4s0.7-3.4,1-5c0.3-1.7,0.6-3.1,0.8-4.3l-4.7,0.4c-0.7,4-1.6,8.6-2.7,14
		L84.8,49.1z"/>
	<path class="st2" d="M105.9,49l6.3-34.1l15.2-1.3c-0.2,0.7-0.4,1.4-0.6,2.1c-0.2,0.7-0.3,1.3-0.5,2s-0.3,1.2-0.4,1.7
		c-0.9,0.1-2.2,0.1-3.8,0.1h-3.2l-1.7,8.6c1.7-0.1,3.2-0.2,4.3-0.2c1.2,0,1.9-0.1,2.3-0.1c-0.1,0.9-0.2,1.8-0.4,2.6
		c-0.1,0.9-0.2,1.7-0.4,2.6c-0.3,0-0.9,0.1-1.6,0.1c-0.7,0-1.5,0-2.3,0.1c-0.8,0-1.7,0.1-2.6,0.1l-1.6,8.9l7-1.1l-0.5,5.5L105.9,49z
		"/>
	<path class="st2" d="M148.3,32.2c3.6-9.7,6-15.7,7.1-18.1c1.6-0.2,2.9-0.4,3.9-0.5c1-0.2,1.9-0.3,2.6-0.4c0.7-0.1,1.5-0.2,2.3-0.4
		c-1.5,9.1-2.8,20.5-3.8,34.3l-8.4,1.5c0-1.1,0.1-2.9,0.4-5.4l0.7-5.6c0.3-2.8,0.6-5,0.9-6.6h-0.4c-0.4,1.3-0.9,2.8-1.5,4.2
		c-0.5,1.5-1.1,3-1.7,4.5c-0.6,1.5-1.1,3-1.7,4.5c-0.5,1.5-1,2.9-1.4,4.2c-1.1,0-2.1,0.1-2.9,0.1l-2.8,0.1l1.5-17.8h-0.7
		c-0.1,0.4-0.2,1.1-0.5,2.1c-0.3,1-0.6,2.1-0.9,3.4s-0.7,2.6-1.1,3.9s-0.8,2.6-1.1,3.8c-0.6,2-1,3.4-1.2,4.2l-7.9,0.5
		c5.1-15.4,8.5-26.6,10.4-33.8c1.8,0,3.5-0.1,5-0.3s3.3-0.4,5.1-0.5c-0.1,0.7-0.2,1.5-0.3,2.3c-0.1,0.9-0.2,1.8-0.4,2.8
		c-0.1,1-0.3,2-0.4,3c-0.2,1-0.4,2.3-0.6,3.9c-0.2,1.6-0.5,3.6-0.9,6H148.3z"/>
	<path class="st2" d="M187.9,24.1c0,1.9-0.3,4-0.8,6.3c-0.5,2.3-1.3,4.4-2.2,6.4c-0.9,1.9-2,3.7-3.3,5.2c-1.2,1.5-2.5,2.8-3.9,3.9
		c-2.8,2.2-5.5,3.3-8,3.3c-2.2,0-3.9-0.8-5.1-2.3c-1.4-1.7-2.1-4.2-2.1-7.5c0-3.6,0.8-7.4,2.5-11.5s3.8-7.6,6.5-10.3
		c2.9-2.9,6-4.4,9.1-4.4c2.6,0,4.5,1.1,5.8,3.2C187.4,18,187.9,20.6,187.9,24.1z M181.2,27.1c0-2.6-0.8-3.9-2.3-3.9
		c-1.9,0-3.6,0.9-5.2,2.8c-1.2,1.5-2.3,3.5-3.1,6.1c-0.7,2.1-1,4.1-1,6c0,1.3,0.5,2.2,1.6,2.8c0.3,0.2,0.7,0.3,1.1,0.3
		c1.4,0,2.7-0.5,3.8-1.5s2-2.2,2.8-3.6c0.8-1.4,1.3-3,1.7-4.6C181,29.9,181.2,28.4,181.2,27.1z"/>
	<path class="st2" d="M199.3,48.2c-2.4-7.9-3.7-12.4-3.8-13.5l-0.6,0.2c-0.3,1.4-0.6,3.4-1.1,6c-0.5,2.6-0.9,4.6-1.2,6.1l-7.8,2
		c3.3-15.7,5.2-26.9,6-33.5c3.6-1.1,7.7-1.7,12.2-1.7c3.4,0,5.4,1.2,6,3.5c0.2,0.7,0.3,1.6,0.3,2.7c0,1.1-0.2,2.2-0.7,3.4
		c-0.4,1.2-1,2.4-1.8,3.5c-1.6,2.3-3.5,4-5.8,5.2c1.2,2.6,2.3,5.1,3.3,7.4c1,2.3,1.8,4.3,2.4,5.9L199.3,48.2z M199.8,20.5l-2.1,0
		l-1.5,7.6c1.3-0.1,2.8-0.9,4.7-2.4c2-1.5,3-2.7,3-3.7c0-0.9-0.9-1.4-2.6-1.5C200.8,20.6,200.3,20.5,199.8,20.5z"/>
	<path class="st2" d="M206.4,49l6.3-34.1l15.2-1.3c-0.2,0.7-0.4,1.4-0.6,2.1c-0.2,0.7-0.3,1.3-0.5,2s-0.3,1.2-0.4,1.7
		c-0.9,0.1-2.2,0.1-3.8,0.1h-3.2l-1.7,8.6c1.7-0.1,3.2-0.2,4.3-0.2c1.2,0,1.9-0.1,2.3-0.1c-0.1,0.9-0.2,1.8-0.4,2.6
		c-0.1,0.9-0.2,1.7-0.4,2.6c-0.3,0-0.9,0.1-1.6,0.1c-0.7,0-1.5,0-2.3,0.1c-0.8,0-1.7,0.1-2.6,0.1l-1.6,8.9l7-1.1l-0.5,5.5L206.4,49z
		"/>
	<path class="st2" d="M244.3,28.5c1-2.6,2.7-7.3,5.1-14.3l7.5,1.6c-1.7,3.5-3.3,6.7-4.6,9.5l-3,6.2c-0.6,1.2-1.2,2.5-1.8,3.7
		c-0.6,1.2-1.1,2.3-1.6,3.3c-0.5,2.4-1.2,5.3-2.2,8.7l-8.2,1l2.2-9.7c0-3.9-0.2-8.2-0.5-12.8s-0.5-7.4-0.6-8.1l-0.1-1l7.8-3V22
		l0,4.7V28.5z"/>
	<path class="st2" d="M276,24.1c0,1.9-0.3,4-0.8,6.3c-0.5,2.3-1.3,4.4-2.2,6.4c-0.9,1.9-2,3.7-3.3,5.2c-1.2,1.5-2.5,2.8-3.9,3.9
		c-2.8,2.2-5.5,3.3-8,3.3c-2.2,0-3.9-0.8-5.1-2.3c-1.4-1.7-2.1-4.2-2.1-7.5c0-3.6,0.8-7.4,2.5-11.5s3.8-7.6,6.5-10.3
		c2.9-2.9,6-4.4,9.1-4.4c2.6,0,4.5,1.1,5.8,3.2C275.6,18,276,20.6,276,24.1z M269.4,27.1c0-2.6-0.8-3.9-2.3-3.9
		c-1.9,0-3.6,0.9-5.2,2.8c-1.2,1.5-2.3,3.5-3.1,6.1c-0.7,2.1-1,4.1-1,6c0,1.3,0.5,2.2,1.6,2.8c0.3,0.2,0.7,0.3,1.1,0.3
		c1.4,0,2.7-0.5,3.8-1.5s2-2.2,2.8-3.6c0.8-1.4,1.3-3,1.7-4.6C269.2,29.9,269.4,28.4,269.4,27.1z"/>
	<path class="st2" d="M279.2,14.9c0.7-0.1,1.5-0.1,2.4-0.2s1.8-0.2,2.7-0.3c0.9-0.1,1.8-0.2,2.8-0.3c-0.8,3.8-1.5,6.9-1.9,9.1
		s-0.8,4-1.1,5.4c-0.3,1.3-0.5,2.6-0.8,3.7c-0.5,2.4-0.8,3.9-1,4.6c-0.5,2.2-0.7,3.5-0.7,4.2c0,0.6,0.1,1.1,0.4,1.4s0.6,0.5,1.1,0.5
		s0.9-0.2,1.2-0.7c0.4-0.4,0.7-1,0.9-1.5c0.2-0.6,0.4-1.2,0.5-1.8c0.1-0.6,0.3-1.3,0.4-1.9c0.1-0.6,0.3-1.5,0.6-2.7
		c0.2-1.1,0.5-2.3,0.7-3.6c0.2-1.2,0.5-2.5,0.7-3.8c0.7-3.3,1.4-7.4,2.3-12.5l7.3-0.5l-0.2,1.2c-0.4,2-0.8,4.2-1.2,6.8
		s-0.9,4.8-1.2,6.7c-1,4.9-1.7,8.3-2.2,10.4c-0.5,2-1.1,3.7-1.9,5c-0.8,1.3-1.8,2.3-2.9,3.2c-2.1,1.6-4.5,2.3-7.3,2.3
		c-1.7,0-3.1-0.5-4.4-1.4c-1.4-1.1-2.1-2.6-2.1-4.5c0-0.1,0-0.3,0-0.4c0-0.1,0-0.5,0.1-1.3c0.1-0.7,0.3-2,0.5-3.9
		c0.3-1.9,0.6-3.8,0.9-5.8s0.7-4,1.1-6.1c0.4-2,0.7-3.9,1-5.5C278.7,17.5,279.1,15.4,279.2,14.9z"/>
	<path class="st2" d="M317,48.2c-2.4-7.9-3.7-12.4-3.8-13.5l-0.6,0.2c-0.3,1.4-0.6,3.4-1.1,6c-0.5,2.6-0.9,4.6-1.2,6.1l-7.8,2
		c3.3-15.7,5.2-26.9,6-33.5c3.6-1.1,7.7-1.7,12.2-1.7c3.4,0,5.4,1.2,6,3.5c0.2,0.7,0.3,1.6,0.3,2.7c0,1.1-0.2,2.2-0.7,3.4
		c-0.4,1.2-1,2.4-1.8,3.5c-1.6,2.3-3.5,4-5.8,5.2c1.2,2.6,2.3,5.1,3.3,7.4c1,2.3,1.8,4.3,2.4,5.9L317,48.2z M317.4,20.5l-2.1,0
		l-1.5,7.6c1.3-0.1,2.8-0.9,4.7-2.4c2-1.5,3-2.7,3-3.7c0-0.9-0.9-1.4-2.6-1.5C318.4,20.6,317.9,20.5,317.4,20.5z"/>
	<path class="st2" d="M324,49l6.3-34.1l15.2-1.3c-0.2,0.7-0.4,1.4-0.6,2.1c-0.2,0.7-0.3,1.3-0.5,2s-0.3,1.2-0.4,1.7
		c-0.9,0.1-2.2,0.1-3.8,0.1H337l-1.7,8.6c1.7-0.1,3.2-0.2,4.3-0.2c1.2,0,1.9-0.1,2.3-0.1c-0.1,0.9-0.2,1.8-0.4,2.6
		c-0.1,0.9-0.2,1.7-0.4,2.6c-0.3,0-0.9,0.1-1.6,0.1c-0.7,0-1.5,0-2.3,0.1c-0.8,0-1.7,0.1-2.6,0.1l-1.6,8.9l7-1.1l-0.5,5.5L324,49z"
		/>
	<path class="st2" d="M347.6,13.8h1.4c0.6,0,2.4-0.1,5.3-0.2c0.4,2.3,0.8,4.3,1.2,6.3c1,5.6,1.7,9.1,2.1,10.7
		c0.1-0.7,0.3-1.4,0.4-2.3s0.3-1.7,0.5-2.6c0.2-0.9,0.4-1.9,0.6-2.8c0.3-1.5,1-4.6,1.9-9.2l5.9-0.7c-3.4,15.8-5.5,27.1-6.4,34
		c-0.4,0-1.7,0.3-3.9,0.8c-2.2,0.5-3.5,0.9-4,1c-0.6-8.6-1.3-14.6-2.1-18.2c-0.1,0.6-0.2,1.3-0.4,2.1c-0.2,0.8-0.3,1.6-0.5,2.6
		c-0.6,3.4-1.4,7.5-2.3,12.3l-7,1.6c3.6-17,5.6-28.8,6.2-35.4C346.9,13.8,347.3,13.8,347.6,13.8z"/>
	<path class="st2" d="M366.7,20.8l0.2-6.1c1.6,0.1,3.3,0.2,4.9,0.2c4.4,0,8.6-0.3,12.8-0.8l-0.5,2.6c-0.2,0.7-0.3,1.5-0.4,2.2
		c-0.1,0.8-0.3,1.4-0.4,2c-0.7,0.2-1.4,0.3-2.2,0.4c-0.7,0.1-1.4,0.2-2.1,0.3c-0.6,2.4-1.1,5.4-1.7,9c-1.3,7.9-2.1,13.6-2.6,17.2
		L366,49c2.5-11.9,4.2-21.2,5.1-27.9c-0.8-0.1-1.5-0.1-2.3-0.1C368.2,21.1,367.4,21,366.7,20.8z"/>
</g>
<g>
	<rect x="-27.6" y="60.2" class="st1" width="501.3" height="29"/>
	<path class="st2" d="M141.8,63.6l0.1-3.1c0.8,0.1,1.6,0.1,2.5,0.1c2.2,0,4.3-0.1,6.4-0.4l-0.3,1.3c-0.1,0.4-0.2,0.7-0.2,1.1
		s-0.1,0.7-0.2,1c-0.4,0.1-0.7,0.2-1.1,0.2s-0.7,0.1-1.1,0.2c-0.3,1.2-0.6,2.7-0.8,4.5c-0.6,3.9-1.1,6.8-1.3,8.6l-4.3,0.7
		c1.3-5.9,2.1-10.6,2.6-13.9c-0.4,0-0.8-0.1-1.1,0S142.2,63.7,141.8,63.6z"/>
	<path class="st2" d="M148.2,77.7c1.7-8.2,2.7-14.1,3-17.6c1.5,0.1,2.8,0.2,3.9,0.2c-0.8,3.3-1.3,5.5-1.5,6.8l2.4-0.3
		c0.2-1.1,0.4-2.2,0.6-3.3c0.2-1.1,0.4-2.2,0.7-3.3c0.6-0.1,1.3-0.2,2-0.2s1.2-0.1,1.5-0.1l0.4,0c-0.8,2.5-1.5,6-2.3,10.5
		c-0.4,2-0.7,4.1-1,6.2l-3.8,0.4c0.2-1,0.4-1.9,0.6-2.7s0.3-1.7,0.5-2.5s0.3-1.5,0.4-2.1l-2.3,0.2c-0.4,2-0.8,4.3-1.3,7L148.2,77.7z
		"/>
	<path class="st2" d="M158.8,77.7l3.1-17.1l7.6-0.7c-0.1,0.4-0.2,0.7-0.3,1s-0.2,0.7-0.2,1s-0.1,0.6-0.2,0.9c-0.5,0-1.1,0.1-1.9,0.1
		h-1.6l-0.8,4.3c0.9,0,1.6-0.1,2.2-0.1s1,0,1.1,0c-0.1,0.5-0.1,0.9-0.2,1.3s-0.1,0.9-0.2,1.3c-0.2,0-0.4,0-0.8,0s-0.7,0-1.1,0
		s-0.8,0-1.3,0l-0.8,4.4l3.5-0.6l-0.2,2.7L158.8,77.7z"/>
	<path class="st2" d="M176.9,73.7c0.4,0,0.8-0.2,1.2-0.7c0.4-0.5,0.7-1,0.8-1.5l2.7,1.1c-0.7,1.6-1.6,2.9-2.8,3.9
		c-1,0.9-2.1,1.3-3.1,1.3c-1,0-1.8-0.5-2.4-1.4c-0.7-1-1-2.2-1-3.8s0.2-3.1,0.6-4.6s1-2.8,1.7-3.9c0.8-1.2,1.6-2.1,2.7-2.8
		s2.2-1.1,3.4-1.1c0.8,0,1.5,0.3,2,0.9c0.5,0.6,0.8,1.4,0.8,2.5v0.3c0,0.1,0,0.2,0,0.3l-3.1,0.8c-0.2-0.4-0.4-0.6-0.7-0.6
		s-0.5,0.1-0.8,0.4s-0.6,0.7-0.8,1.1s-0.5,1-0.8,1.6s-0.5,1.2-0.7,1.8c-0.4,1.3-0.7,2.4-0.7,3.2S176.4,73.7,176.9,73.7z"/>
	<path class="st2" d="M181.6,77.7c1.7-8.2,2.7-14.1,3-17.6c1.5,0.1,2.8,0.2,3.9,0.2c-0.8,3.3-1.3,5.5-1.5,6.8l2.4-0.3
		c0.2-1.1,0.4-2.2,0.6-3.3c0.2-1.1,0.4-2.2,0.7-3.3c0.6-0.1,1.3-0.2,2-0.2s1.2-0.1,1.5-0.1l0.4,0c-0.8,2.5-1.5,6-2.3,10.5
		c-0.4,2-0.7,4.1-1,6.2l-3.8,0.4c0.2-1,0.4-1.9,0.6-2.7s0.3-1.7,0.5-2.5s0.3-1.5,0.4-2.1l-2.3,0.2c-0.4,2-0.8,4.3-1.3,7L181.6,77.7z
		"/>
	<path class="st2" d="M192.2,77.7l3.1-17.1L203,60c-0.1,0.4-0.2,0.7-0.3,1s-0.2,0.7-0.2,1s-0.1,0.6-0.2,0.9c-0.5,0-1.1,0.1-1.9,0.1
		h-1.6l-0.8,4.3c0.9,0,1.6-0.1,2.2-0.1s1,0,1.1,0c-0.1,0.5-0.1,0.9-0.2,1.3s-0.1,0.9-0.2,1.3c-0.2,0-0.4,0-0.8,0s-0.7,0-1.1,0
		s-0.8,0-1.3,0l-0.8,4.4l3.5-0.6l-0.2,2.7L192.2,77.7z"/>
	<path class="st2" d="M204.8,73.6l-1,3.4c-0.4,0-0.8,0.1-1.3,0.2s-0.9,0.1-1.4,0.2c-0.5,0.1-1,0.1-1.5,0.2c0.6-2.1,1.2-3.9,1.6-5.4
		s0.8-2.7,1.1-3.6s0.6-1.9,0.8-2.8s0.5-1.8,0.8-2.7s0.5-1.7,0.7-2.4c2.9-0.2,5.1-0.5,6.6-0.8c-0.1,1.5-0.3,3.4-0.4,5.5
		c-0.2,4.2-0.4,8.1-0.5,11.6c-0.5,0.1-0.9,0.1-1.4,0.2s-0.9,0.1-1.4,0.2s-0.9,0.1-1.3,0.2c0.2-1.5,0.3-2.9,0.4-4.1H204.8z
		 M205.3,71.2l1.7-0.1c0-0.1,0-0.3,0-0.5s0.1-0.5,0.1-0.8c0.1-1.7,0.3-3.2,0.4-4.7l0.2-2.1l-0.4,0L205.3,71.2z"/>
	<path class="st2" d="M210.5,77.7c1.6-7.3,2.8-13,3.4-17c1.7-0.5,3-0.8,3.9-0.8s1.5,0.1,2,0.4s0.9,0.6,1.2,1
		c0.5,0.7,0.8,1.8,0.8,3.2c0,0.9-0.2,1.8-0.5,2.6s-0.8,1.6-1.3,2.2s-1.2,1.2-1.9,1.5s-1.5,0.6-2.2,0.6h-0.3c-0.3,1.3-0.6,3.1-1,5.5
		L210.5,77.7z M217.2,62.9c-0.4,2.3-0.8,4.3-1.1,6c0.6-0.1,1.1-0.6,1.6-1.4c0.5-0.8,0.8-1.8,0.8-2.9c0-0.6-0.1-1-0.4-1.3
		S217.5,62.9,217.2,62.9z"/>
	<path class="st2" d="M219.9,77.7l3.1-17.1l7.6-0.7c-0.1,0.4-0.2,0.7-0.3,1s-0.2,0.7-0.2,1s-0.1,0.6-0.2,0.9c-0.5,0-1.1,0.1-1.9,0.1
		h-1.6l-0.8,4.3c0.9,0,1.6-0.1,2.2-0.1s1,0,1.1,0c-0.1,0.5-0.1,0.9-0.2,1.3s-0.1,0.9-0.2,1.3c-0.2,0-0.4,0-0.8,0s-0.7,0-1.1,0
		s-0.8,0-1.3,0l-0.8,4.4l3.5-0.6l-0.2,2.7L219.9,77.7z"/>
	<path class="st2" d="M235.2,77.3c-1.2-4-1.8-6.2-1.9-6.8l-0.3,0.1c-0.1,0.7-0.3,1.7-0.6,3s-0.4,2.3-0.6,3.1l-3.9,1
		c1.6-7.9,2.6-13.4,3-16.7c1.8-0.6,3.8-0.8,6.1-0.8c1.7,0,2.7,0.6,3,1.8c0.1,0.4,0.1,0.8,0.1,1.3s-0.1,1.1-0.3,1.7s-0.5,1.2-0.9,1.8
		c-0.8,1.1-1.7,2-2.9,2.6c0.6,1.3,1.2,2.6,1.6,3.7s0.9,2.1,1.2,2.9L235.2,77.3z M235.4,63.5l-1,0l-0.8,3.8c0.6-0.1,1.4-0.5,2.4-1.2
		c1-0.8,1.5-1.4,1.5-1.9c0-0.5-0.4-0.7-1.3-0.8C235.9,63.5,235.7,63.5,235.4,63.5z"/>
	<path class="st2" d="M250.3,60.3c-1.8,9.1-2.9,14.7-3.3,16.9c-0.4,0-1.2,0.1-2.3,0.2c-1.1,0.1-1.6,0.2-1.7,0.2
		c0.5-1.8,1-3.8,1.4-5.9c1-4.9,1.7-8.5,2.1-10.9L250.3,60.3z"/>
	<path class="st2" d="M250.4,63.6l0.1-3.1c0.8,0.1,1.6,0.1,2.5,0.1c2.2,0,4.3-0.1,6.4-0.4l-0.3,1.3c-0.1,0.4-0.2,0.7-0.2,1.1
		s-0.1,0.7-0.2,1c-0.4,0.1-0.7,0.2-1.1,0.2s-0.7,0.1-1.1,0.2c-0.3,1.2-0.6,2.7-0.8,4.5c-0.6,3.9-1.1,6.8-1.3,8.6l-4.3,0.7
		c1.3-5.9,2.1-10.6,2.6-13.9c-0.4,0-0.8-0.1-1.1,0S250.7,63.7,250.4,63.6z"/>
	<path class="st2" d="M271.6,64.5c-0.3-1.2-0.7-1.8-1.4-1.8c-0.4,0-0.8,0.3-1.3,0.9c-0.5,0.6-0.9,1.3-1.3,2.2
		c-1,2.1-1.5,4.1-1.5,6.1c0,1,0.1,1.7,0.4,2.1s0.6,0.6,1,0.6s0.8-0.1,1.1-0.2s0.6-0.4,0.9-0.7c0.6-0.7,1-1.4,1-2.3l-2.6,0.4l0.4-2.4
		c2.2-0.3,4.2-0.6,5.9-0.9c-0.1,1.6-0.4,3-1,4.3s-1.2,2.2-1.9,3s-1.5,1.4-2.4,1.8c-0.9,0.4-1.6,0.6-2.3,0.6s-1.3-0.1-1.8-0.4
		s-1-0.7-1.4-1.2c-0.8-1.1-1.3-2.7-1.3-4.7s0.3-3.8,0.9-5.4s1.3-2.8,2.2-3.8s1.9-1.8,2.9-2.3s1.9-0.8,2.7-0.8s1.4,0.1,1.9,0.3
		s0.9,0.5,1.1,0.9c0.6,0.7,0.9,1.7,0.9,2.9L271.6,64.5z"/>
	<path class="st2" d="M273.5,77.7l3.1-17.1l7.6-0.7c-0.1,0.4-0.2,0.7-0.3,1s-0.2,0.7-0.2,1s-0.1,0.6-0.2,0.9c-0.5,0-1.1,0.1-1.9,0.1
		H280l-0.8,4.3c0.9,0,1.6-0.1,2.2-0.1s1,0,1.1,0c-0.1,0.5-0.1,0.9-0.2,1.3s-0.1,0.9-0.2,1.3c-0.2,0-0.4,0-0.8,0s-0.7,0-1.1,0
		s-0.8,0-1.3,0l-0.8,4.4l3.5-0.6l-0.2,2.7L273.5,77.7z"/>
	<path class="st2" d="M283.9,63.6l0.1-3.1c0.8,0.1,1.6,0.1,2.5,0.1c2.2,0,4.3-0.1,6.4-0.4l-0.3,1.3c-0.1,0.4-0.2,0.7-0.2,1.1
		s-0.1,0.7-0.2,1c-0.4,0.1-0.7,0.2-1.1,0.2s-0.7,0.1-1.1,0.2c-0.3,1.2-0.6,2.7-0.8,4.5c-0.6,3.9-1.1,6.8-1.3,8.6l-4.3,0.7
		c1.3-5.9,2.1-10.6,2.6-13.9c-0.4,0-0.8-0.1-1.1,0S284.3,63.7,283.9,63.6z"/>
	<path class="st2" d="M298.9,65.4c0.1-0.3,0.1-0.6,0.1-1s-0.1-0.6-0.3-0.8s-0.4-0.3-0.6-0.3s-0.4,0-0.6,0.1s-0.4,0.2-0.6,0.4
		c-0.4,0.4-0.7,0.7-0.7,1.2s0.1,0.8,0.3,1s0.5,0.5,0.8,0.7s0.7,0.4,1,0.7s0.7,0.5,1.1,0.9c0.8,0.9,1.1,2,1.1,3.5
		c0,1.8-0.6,3.2-1.9,4.3c-1.2,1.1-2.8,1.6-4.6,1.6c-1.4,0-2.6-0.7-3.8-2.2l1.8-3.5c0.2,0.4,0.6,0.8,1.3,1.2c0.6,0.4,1.1,0.6,1.4,0.6
		s0.6,0,0.8-0.1s0.4-0.2,0.6-0.3c0.4-0.3,0.6-0.6,0.6-1s-0.1-0.8-0.4-1.1s-0.6-0.6-0.9-0.9s-0.8-0.6-1.2-0.9s-0.8-0.6-1.2-1
		c-0.9-0.8-1.3-1.6-1.3-2.5s0.2-1.6,0.7-2.4c0.5-0.7,1.1-1.3,1.9-1.9s1.6-0.9,2.4-1.2s1.6-0.5,2.2-0.5s1.1,0.1,1.5,0.2
		s0.7,0.3,1,0.5c0.6,0.5,0.9,1.2,0.9,2.2c0,0.2,0,0.5-0.1,0.7s-0.1,0.5-0.1,0.7L298.9,65.4z"/>
	<path class="st2" d="M302.6,78.2c-0.4,0-0.8-0.1-1-0.2s-0.5-0.3-0.7-0.5c-0.4-0.5-0.5-1-0.5-1.6c0-1,0.4-1.7,1.3-2.2
		c0.3-0.1,0.6-0.2,1.1-0.2c0.9,0,1.6,0.2,2.1,0.7s0.7,0.9,0.7,1.5c0,0.7-0.3,1.2-0.8,1.7C304.2,78,303.5,78.2,302.6,78.2z
		 M309.8,59.8c-0.9,2-1.6,4-2.4,6.1c-0.7,2-1.4,4.1-2.1,6.2c-0.5,0-0.9,0-1.4,0s-0.9,0.1-1.4,0.1c0.5-2,1-3.9,1.5-5.9s1-3.9,1.5-5.9
		c0.3,0,0.6-0.1,1-0.2s0.8-0.1,1.2-0.2s0.8-0.1,1.2-0.2S309.5,59.8,309.8,59.8z"/>
</g>
<polyline class="st0" points="215.2,87.8 126.7,145.3 169.8,84.1 "/>
<g>
</g>
<g>
</g>
<g>
</g>
<g>
</g>
<g>
</g>
<g>
</g>
</svg>
