<?xml version="1.0" encoding="utf-8"?>
<!-- Generator: Adobe Illustrator 19.2.1, SVG Export Plug-In . SVG Version: 6.00 Build 0)  -->
<svg version="1.1" id="Layer_1" xmlns="http://www.w3.org/2000/svg" xmlns:xlink="http://www.w3.org/1999/xlink" x="0px" y="0px"
	 viewBox="0 0 35.5 35.9" style="enable-background:new 0 0 35.5 35.9;" xml:space="preserve">
<style type="text/css">
	.st0{fill:#FFFFFF;}
	.st1{fill:#1B689A;}
</style>
<g>
	<rect x="1.6" y="2.2" class="st0" width="32" height="32"/>
	<path class="st1" d="M25.3,13.5L25.3,13.5c0,0.1-0.1,0.1-0.1,0.1c-0.5,0.5-0.9,0.9-1.3,1.4c-0.1,0.1-0.1,0.2-0.1,0.3
		c0,0.5,0,1-0.1,1.5c-0.9,5.5-6.1,8.8-11.4,7.2c-0.8-0.2-1.5-0.5-2.3-1c1.7,0.1,3.2-0.3,4.6-1.3c-0.7-0.1-1.3-0.3-1.8-0.6
		c-0.5-0.4-0.9-0.9-1.1-1.6h1.3c-1.7-0.8-2.5-2-2.3-3.1c0.2,0.1,0.4,0.2,0.6,0.2c0.2,0.1,0.4,0.1,0.6,0.1c-1.3-1.2-1.7-3.1-0.8-4.2
		c1.7,2,3.8,3.1,6.4,3.3c0-0.2,0-0.3,0-0.5c-0.1-1.3,0.6-2.5,1.8-3.1c0.3-0.1,0.5-0.2,0.8-0.3h1c0.5,0.2,1,0.4,1.4,0.7
		c0.3,0.2,0.6,0.3,0.9,0.2c0.2-0.1,0.4-0.1,0.5-0.2c0.3-0.1,0.6-0.3,0.9-0.4c-0.2,0.7-0.7,1.2-1.2,1.7c0.1,0,0.2,0,0.3,0
		C24.4,13.8,24.9,13.7,25.3,13.5"/>
</g>
</svg>
